<svg version="1.1" xmlns="http://www.w3.org/2000/svg" xmlns:xlink="http://www.w3.org/1999/xlink" stroke-linecap="round" stroke-linejoin="round" stroke-width="0" fill-rule="evenodd" clip-rule="evenodd" id="dhSKt8NmKTb2kOs9XMkF_bottom" viewBox="101000 -75000 17000 19000" width="17mm" height="19mm" class="w-100 h-100"><defs><style>.dhSKt8NmKTb2kOs9XMkF_fr4 {color: #666666;}
.dhSKt8NmKTb2kOs9XMkF_cu {color: #cccccc;}
.dhSKt8NmKTb2kOs9XMkF_cf {color: #cc9933;}
.dhSKt8NmKTb2kOs9XMkF_sm {color: #004200; opacity: 0.75;}
.dhSKt8NmKTb2kOs9XMkF_ss {color: #ffffff;}
.dhSKt8NmKTb2kOs9XMkF_sp {color: #999999;}
.dhSKt8NmKTb2kOs9XMkF_out {color: #000000;}</style><rect x="-1050" y="-1050" width="2100" height="2100" rx="1050" ry="1050" id="hdD-TEZAPT-kZt_N0FOR_pad-10"/><rect x="-1800" y="-1800" width="3600" height="3600" id="hdD-TEZAPT-kZt_N0FOR_pad-11"/><rect x="-1200" y="-1200" width="2400" height="2400" id="hdD-TEZAPT-kZt_N0FOR_pad-12"/><rect x="-850" y="-850" width="1700" height="1700" rx="850" ry="850" id="xu5Cgix_JtamoQYkvxIE_pad-10"/><rect x="-1600" y="-1600" width="3200" height="3200" id="xu5Cgix_JtamoQYkvxIE_pad-11"/><rect x="-1000" y="-1000" width="2000" height="2000" id="xu5Cgix_JtamoQYkvxIE_pad-12"/><circle cx="0" cy="0" r="175" id="xu5Cgix_JtamoQYkvxIE_pad-15"/><circle cx="0" cy="0" r="500" id="Y_iIv_nCjT0lIfGfV2vW_pad-1"/><circle cx="0" cy="0" r="1100" id="Y_iIv_nCjT0lIfGfV2vW_pad-2"/><g id="dhSKt8NmKTb2kOs9XMkF_bottom_soldermask"><use xlink:href="#hdD-TEZAPT-kZt_N0FOR_pad-10" x="116340" y="-73160"/><use xlink:href="#hdD-TEZAPT-kZt_N0FOR_pad-10" x="113800" y="-73160"/><use xlink:href="#hdD-TEZAPT-kZt_N0FOR_pad-10" x="111260" y="-73160"/><use xlink:href="#hdD-TEZAPT-kZt_N0FOR_pad-10" x="108720" y="-73160"/><use xlink:href="#hdD-TEZAPT-kZt_N0FOR_pad-10" x="106180" y="-73160"/><use xlink:href="#hdD-TEZAPT-kZt_N0FOR_pad-10" x="103640" y="-73160"/><use xlink:href="#hdD-TEZAPT-kZt_N0FOR_pad-10" x="116340" y="-57920"/><use xlink:href="#hdD-TEZAPT-kZt_N0FOR_pad-10" x="103640" y="-57920"/><use xlink:href="#hdD-TEZAPT-kZt_N0FOR_pad-11" x="114128" y="-61730"/><use xlink:href="#hdD-TEZAPT-kZt_N0FOR_pad-12" x="112228" y="-68730"/><use xlink:href="#hdD-TEZAPT-kZt_N0FOR_pad-12" x="109728" y="-68730"/><use xlink:href="#hdD-TEZAPT-kZt_N0FOR_pad-12" x="107228" y="-68730"/><use xlink:href="#hdD-TEZAPT-kZt_N0FOR_pad-11" x="105328" y="-61730"/></g><g id="dhSKt8NmKTb2kOs9XMkF_bottom_copper"><use xlink:href="#xu5Cgix_JtamoQYkvxIE_pad-10" x="116340" y="-73160"/><use xlink:href="#xu5Cgix_JtamoQYkvxIE_pad-10" x="113800" y="-73160"/><use xlink:href="#xu5Cgix_JtamoQYkvxIE_pad-10" x="111260" y="-73160"/><use xlink:href="#xu5Cgix_JtamoQYkvxIE_pad-10" x="108720" y="-73160"/><use xlink:href="#xu5Cgix_JtamoQYkvxIE_pad-10" x="106180" y="-73160"/><use xlink:href="#xu5Cgix_JtamoQYkvxIE_pad-10" x="103640" y="-73160"/><use xlink:href="#xu5Cgix_JtamoQYkvxIE_pad-10" x="116340" y="-57920"/><use xlink:href="#xu5Cgix_JtamoQYkvxIE_pad-10" x="103640" y="-57920"/><use xlink:href="#xu5Cgix_JtamoQYkvxIE_pad-11" x="114128" y="-61730"/><use xlink:href="#xu5Cgix_JtamoQYkvxIE_pad-12" x="112228" y="-68730"/><use xlink:href="#xu5Cgix_JtamoQYkvxIE_pad-12" x="109728" y="-68730"/><use xlink:href="#xu5Cgix_JtamoQYkvxIE_pad-12" x="107228" y="-68730"/><use xlink:href="#xu5Cgix_JtamoQYkvxIE_pad-11" x="105328" y="-61730"/><path d="M 112228 -67095 112228 -68730 M 111450 -66317 112228 -67095 M 111450 -59580 111450 -66317 M 113110 -57920 111450 -59580 M 116340 -57920 113110 -57920" fill="none" stroke-width="635"/><path d="M 102444.817 -57038.642 102198.514 -57563.108 102319.181 -57793 103513 -57793 103513 -57773 103767 -57773 103767 -57793 104960.819 -57793 105081.486 -57563.108 104835.183 -57038.642 104474.567 -56710 115477.964 -56710 115269.375 -56849.375 115190.446 -56967.5 113203.81 -56967.5 113110 -56948.84 113016.19 -56967.5 112738.353 -57022.765 112423.286 -57233.286 112370.147 -57312.814 110842.819 -58840.144 110763.286 -58893.286 110563.93 -59191.645 110552.765 -59208.354 110478.84 -59580 110497.5 -59673.81 110497.501 -66223.185 110478.84 -66317 110552.765 -66688.646 110552.766 -66688.647 110763.287 -67003.714 110842.817 -67056.854 110903.415 -67117.452 110728 -67082.56 108728 -67082.56 108480.235 -67131.843 108466.084 -67141.299 108354.309 -67095 107513.75 -67095 107355 -67253.75 107355 -68603 107375 -68603 107375 -68857 107355 -68857 107355 -70206.25 107513.75 -70365 108354.309 -70365 108466.084 -70318.701 108480.235 -70328.157 108728 -70377.44 110728 -70377.44 110975.765 -70328.157 110978 -70326.664 110980.235 -70328.157 111228 -70377.44 113228 -70377.44 113475.765 -70328.157 113685.809 -70187.809 113826.157 -69977.765 113875.44 -69730 113875.44 -67730 113826.157 -67482.235 113685.809 -67272.191 113475.765 -67131.843 113228 -67082.56 113196.686 -67082.56 113165.183 -66924.185 113125.235 -66723.353 112914.714 -66408.286 112835.183 -66355.145 112402.5 -65922.463 112402.5 -63952.477 112528 -63977.44 115728 -63977.44 115975.765 -63928.157 116185.809 -63787.809 116326.157 -63577.765 116375.44 -63330 116375.44 -60130 116326.157 -59882.235 116185.809 -59672.191 115975.765 -59531.843 115728 -59482.56 112894.478 -59482.56 113504.539 -58872.5 115190.446 -58872.5 115269.375 -58990.625 115760.582 -59318.839 116193.744 -59405 116486.256 -59405 116919.418 -59318.839 117290.001 -59071.223 117290 -72008.776 116919.418 -71761.161 116486.256 -71675 116193.744 -71675 115760.582 -71761.161 115269.375 -72089.375 115056.157 -72408.478 114995.183 -72278.642 114566.924 -71888.355 114156.89 -71718.524 113927 -71839.845 113927 -73033 113947 -73033 113947 -73287 113927 -73287 113927 -73307 113673 -73307 113673 -73287 111387 -73287 111387 -73307 111133 -73307 111133 -73287 108847 -73287 108847 -73307 108593 -73307 108593 -73287 106307 -73287 106307 -73307 106053 -73307 106053 -73287 103767 -73287 103767 -73307 103513 -73307 103513 -73287 102319.181 -73287 102198.514 -73516.892 102444.817 -74041.358 102717.65 -74290 101710 -74290 101710 -72803.108 102198.514 -72803.108 102319.181 -73033 103513 -73033 103513 -71839.845 103767 -71839.845 103767 -73033 106053 -73033 106053 -71839.845 106307 -71839.845 106307 -73033 108593 -73033 108593 -71839.845 108847 -71839.845 108847 -73033 111133 -73033 111133 -71839.845 111387 -71839.845 111387 -73033 113673 -73033 113673 -71839.845 113443.11 -71718.524 113033.076 -71888.355 112604.817 -72278.642 112530 -72437.954 112455.183 -72278.642 112026.924 -71888.355 111616.89 -71718.524 111387 -71839.845 111133 -71839.845 110903.11 -71718.524 110493.076 -71888.355 110064.817 -72278.642 109990 -72437.954 109915.183 -72278.642 109486.924 -71888.355 109076.89 -71718.524 108847 -71839.845 108593 -71839.845 108363.11 -71718.524 107953.076 -71888.355 107524.817 -72278.642 107450 -72437.954 107375.183 -72278.642 106946.924 -71888.355 106536.89 -71718.524 106307 -71839.845 106053 -71839.845 105823.11 -71718.524 105413.076 -71888.355 104984.817 -72278.642 104910 -72437.954 104835.183 -72278.642 104406.924 -71888.355 103996.89 -71718.524 103767 -71839.845 103513 -71839.845 103283.11 -71718.524 102873.076 -71888.355 102444.817 -72278.642 102198.514 -72803.108 101710 -72803.108 101710 -69015.75 105593 -69015.75 105593 -69856.31 105689.673 -70089.699 105868.302 -70268.327 106101.691 -70365 106942.25 -70365 107101 -70206.25 107101 -68857 105751.75 -68857 105593 -69015.75 101710 -69015.75 101710 -67603.69 105593 -67603.69 105593 -68444.25 105751.75 -68603 107101 -68603 107101 -67253.75 106942.25 -67095 106101.691 -67095 105868.302 -67191.673 105689.673 -67370.301 105593 -67603.69 101710 -67603.69 101710 -60130 103080.56 -60130 103080.56 -63330 103129.843 -63577.765 103270.191 -63787.809 103480.235 -63928.157 103728 -63977.44 106928 -63977.44 107175.765 -63928.157 107385.809 -63787.809 107526.157 -63577.765 107575.44 -63330 107575.44 -60130 107526.157 -59882.235 107385.809 -59672.191 107175.765 -59531.843 106928 -59482.56 103728 -59482.56 103480.235 -59531.843 103270.191 -59672.191 103129.843 -59882.235 103080.56 -60130 101710 -60130 101710 -58276.892 102198.514 -58276.892 102444.817 -58801.358 102873.076 -59191.645 103283.11 -59361.476 103513 -59240.155 103513 -58047 103767 -58047 103767 -59240.155 103996.89 -59361.476 104406.924 -59191.645 104835.183 -58801.358 105081.486 -58276.892 104960.819 -58047 103767 -58047 103513 -58047 102319.181 -58047 102198.514 -58276.892 101710 -58276.892 101710 -56710 102805.433 -56710 102444.817 -57038.642 102444.817 -57038.642"/><path d="M 102444.817 -57038.642 102198.514 -57563.108 102319.181 -57793 103513 -57793 103513 -57773 103767 -57773 103767 -57793 104960.819 -57793 105081.486 -57563.108 104835.183 -57038.642 104474.567 -56710 115477.964 -56710 115269.375 -56849.375 115190.446 -56967.5 113203.81 -56967.5 113110 -56948.84 113016.19 -56967.5 112738.353 -57022.765 112423.286 -57233.286 112370.147 -57312.814 110842.819 -58840.144 110763.286 -58893.286 110563.93 -59191.645 110552.765 -59208.354 110478.84 -59580 110497.5 -59673.81 110497.501 -66223.185 110478.84 -66317 110552.765 -66688.646 110552.766 -66688.647 110763.287 -67003.714 110842.817 -67056.854 110903.415 -67117.452 110728 -67082.56 108728 -67082.56 108480.235 -67131.843 108466.084 -67141.299 108354.309 -67095 107513.75 -67095 107355 -67253.75 107355 -68603 107375 -68603 107375 -68857 107355 -68857 107355 -70206.25 107513.75 -70365 108354.309 -70365 108466.084 -70318.701 108480.235 -70328.157 108728 -70377.44 110728 -70377.44 110975.765 -70328.157 110978 -70326.664 110980.235 -70328.157 111228 -70377.44 113228 -70377.44 113475.765 -70328.157 113685.809 -70187.809 113826.157 -69977.765 113875.44 -69730 113875.44 -67730 113826.157 -67482.235 113685.809 -67272.191 113475.765 -67131.843 113228 -67082.56 113196.686 -67082.56 113165.183 -66924.185 113125.235 -66723.353 112914.714 -66408.286 112835.183 -66355.145 112402.5 -65922.463 112402.5 -63952.477 112528 -63977.44 115728 -63977.44 115975.765 -63928.157 116185.809 -63787.809 116326.157 -63577.765 116375.44 -63330 116375.44 -60130 116326.157 -59882.235 116185.809 -59672.191 115975.765 -59531.843 115728 -59482.56 112894.478 -59482.56 113504.539 -58872.5 115190.446 -58872.5 115269.375 -58990.625 115760.582 -59318.839 116193.744 -59405 116486.256 -59405 116919.418 -59318.839 117290.001 -59071.223 117290 -72008.776 116919.418 -71761.161 116486.256 -71675 116193.744 -71675 115760.582 -71761.161 115269.375 -72089.375 115056.157 -72408.478 114995.183 -72278.642 114566.924 -71888.355 114156.89 -71718.524 113927 -71839.845 113927 -73033 113947 -73033 113947 -73287 113927 -73287 113927 -73307 113673 -73307 113673 -73287 111387 -73287 111387 -73307 111133 -73307 111133 -73287 108847 -73287 108847 -73307 108593 -73307 108593 -73287 106307 -73287 106307 -73307 106053 -73307 106053 -73287 103767 -73287 103767 -73307 103513 -73307 103513 -73287 102319.181 -73287 102198.514 -73516.892 102444.817 -74041.358 102717.65 -74290 101710 -74290 101710 -72803.108 102198.514 -72803.108 102319.181 -73033 103513 -73033 103513 -71839.845 103767 -71839.845 103767 -73033 106053 -73033 106053 -71839.845 106307 -71839.845 106307 -73033 108593 -73033 108593 -71839.845 108847 -71839.845 108847 -73033 111133 -73033 111133 -71839.845 111387 -71839.845 111387 -73033 113673 -73033 113673 -71839.845 113443.11 -71718.524 113033.076 -71888.355 112604.817 -72278.642 112530 -72437.954 112455.183 -72278.642 112026.924 -71888.355 111616.89 -71718.524 111387 -71839.845 111133 -71839.845 110903.11 -71718.524 110493.076 -71888.355 110064.817 -72278.642 109990 -72437.954 109915.183 -72278.642 109486.924 -71888.355 109076.89 -71718.524 108847 -71839.845 108593 -71839.845 108363.11 -71718.524 107953.076 -71888.355 107524.817 -72278.642 107450 -72437.954 107375.183 -72278.642 106946.924 -71888.355 106536.89 -71718.524 106307 -71839.845 106053 -71839.845 105823.11 -71718.524 105413.076 -71888.355 104984.817 -72278.642 104910 -72437.954 104835.183 -72278.642 104406.924 -71888.355 103996.89 -71718.524 103767 -71839.845 103513 -71839.845 103283.11 -71718.524 102873.076 -71888.355 102444.817 -72278.642 102198.514 -72803.108 101710 -72803.108 101710 -69015.75 105593 -69015.75 105593 -69856.31 105689.673 -70089.699 105868.302 -70268.327 106101.691 -70365 106942.25 -70365 107101 -70206.25 107101 -68857 105751.75 -68857 105593 -69015.75 101710 -69015.75 101710 -67603.69 105593 -67603.69 105593 -68444.25 105751.75 -68603 107101 -68603 107101 -67253.75 106942.25 -67095 106101.691 -67095 105868.302 -67191.673 105689.673 -67370.301 105593 -67603.69 101710 -67603.69 101710 -60130 103080.56 -60130 103080.56 -63330 103129.843 -63577.765 103270.191 -63787.809 103480.235 -63928.157 103728 -63977.44 106928 -63977.44 107175.765 -63928.157 107385.809 -63787.809 107526.157 -63577.765 107575.44 -63330 107575.44 -60130 107526.157 -59882.235 107385.809 -59672.191 107175.765 -59531.843 106928 -59482.56 103728 -59482.56 103480.235 -59531.843 103270.191 -59672.191 103129.843 -59882.235 103080.56 -60130 101710 -60130 101710 -58276.892 102198.514 -58276.892 102444.817 -58801.358 102873.076 -59191.645 103283.11 -59361.476 103513 -59240.155 103513 -58047 103767 -58047 103767 -59240.155 103996.89 -59361.476 104406.924 -59191.645 104835.183 -58801.358 105081.486 -58276.892 104960.819 -58047 103767 -58047 103513 -58047 102319.181 -58047 102198.514 -58276.892 101710 -58276.892 101710 -56710 102805.433 -56710 102444.817 -57038.642" fill="none" stroke-width="254"/><use xlink:href="#xu5Cgix_JtamoQYkvxIE_pad-15" x="116340" y="-73160"/><use xlink:href="#xu5Cgix_JtamoQYkvxIE_pad-15" x="113800" y="-73160"/><use xlink:href="#xu5Cgix_JtamoQYkvxIE_pad-15" x="111260" y="-73160"/><use xlink:href="#xu5Cgix_JtamoQYkvxIE_pad-15" x="108720" y="-73160"/><use xlink:href="#xu5Cgix_JtamoQYkvxIE_pad-15" x="106180" y="-73160"/><use xlink:href="#xu5Cgix_JtamoQYkvxIE_pad-15" x="103640" y="-73160"/><use xlink:href="#xu5Cgix_JtamoQYkvxIE_pad-15" x="116340" y="-57920"/><use xlink:href="#xu5Cgix_JtamoQYkvxIE_pad-15" x="103640" y="-57920"/><use xlink:href="#xu5Cgix_JtamoQYkvxIE_pad-15" x="114128" y="-61730"/><use xlink:href="#xu5Cgix_JtamoQYkvxIE_pad-15" x="112228" y="-68730"/><use xlink:href="#xu5Cgix_JtamoQYkvxIE_pad-15" x="109728" y="-68730"/><use xlink:href="#xu5Cgix_JtamoQYkvxIE_pad-15" x="107228" y="-68730"/><use xlink:href="#xu5Cgix_JtamoQYkvxIE_pad-15" x="105328" y="-61730"/></g><g id="dhSKt8NmKTb2kOs9XMkF_bottom_drill1"><use xlink:href="#Y_iIv_nCjT0lIfGfV2vW_pad-1" x="107228" y="-68730"/><use xlink:href="#Y_iIv_nCjT0lIfGfV2vW_pad-1" x="109728" y="-68730"/><use xlink:href="#Y_iIv_nCjT0lIfGfV2vW_pad-1" x="112228" y="-68730"/><use xlink:href="#Y_iIv_nCjT0lIfGfV2vW_pad-1" x="116340" y="-57920"/><use xlink:href="#Y_iIv_nCjT0lIfGfV2vW_pad-1" x="103640" y="-57920"/><use xlink:href="#Y_iIv_nCjT0lIfGfV2vW_pad-1" x="103640" y="-73160"/><use xlink:href="#Y_iIv_nCjT0lIfGfV2vW_pad-1" x="106180" y="-73160"/><use xlink:href="#Y_iIv_nCjT0lIfGfV2vW_pad-1" x="108720" y="-73160"/><use xlink:href="#Y_iIv_nCjT0lIfGfV2vW_pad-1" x="111260" y="-73160"/><use xlink:href="#Y_iIv_nCjT0lIfGfV2vW_pad-1" x="113800" y="-73160"/><use xlink:href="#Y_iIv_nCjT0lIfGfV2vW_pad-1" x="116340" y="-73160"/><use xlink:href="#Y_iIv_nCjT0lIfGfV2vW_pad-2" x="105328" y="-61730"/><use xlink:href="#Y_iIv_nCjT0lIfGfV2vW_pad-2" x="114128" y="-61730"/></g><clipPath id="dhSKt8NmKTb2kOs9XMkF_bottom_outline"><path d="M 101000 -56000 101000 -75000 118000 -75000 118000 -56000 101000 -56000" fill="none" stroke-width="150"/></clipPath><mask id="dhSKt8NmKTb2kOs9XMkF_bottom_mech-mask"><g fill="#000" stroke="#000"><rect x="101000" y="-75000" width="17000" height="19000" fill="#fff"/><use xlink:href="#dhSKt8NmKTb2kOs9XMkF_bottom_drill1"/></g></mask><mask id="dhSKt8NmKTb2kOs9XMkF_bottom_cf-mask"><g fill="#fff" stroke="#fff"><use xlink:href="#dhSKt8NmKTb2kOs9XMkF_bottom_soldermask"/></g></mask><mask id="dhSKt8NmKTb2kOs9XMkF_bottom_sm-mask"><g fill="#000" stroke="#000"><rect x="101000" y="-75000" width="17000" height="19000" fill="#fff"/><use xlink:href="#dhSKt8NmKTb2kOs9XMkF_bottom_soldermask"/></g></mask></defs><g transform="translate(0,-131000) scale(1,-1)"><g mask="url(#dhSKt8NmKTb2kOs9XMkF_bottom_mech-mask)" clip-path="url(#dhSKt8NmKTb2kOs9XMkF_bottom_outline)" transform="translate(219000,0) scale(-1,1)"><rect x="101000" y="-75000" width="17000" height="19000" fill="currentColor" class="dhSKt8NmKTb2kOs9XMkF_fr4"/><use xlink:href="#dhSKt8NmKTb2kOs9XMkF_bottom_copper" fill="currentColor" stroke="currentColor" class="dhSKt8NmKTb2kOs9XMkF_cu"/><use xlink:href="#dhSKt8NmKTb2kOs9XMkF_bottom_copper" fill="currentColor" stroke="currentColor" class="dhSKt8NmKTb2kOs9XMkF_cf" mask="url(#dhSKt8NmKTb2kOs9XMkF_bottom_cf-mask)"/><g mask="url(#dhSKt8NmKTb2kOs9XMkF_bottom_sm-mask)"><rect x="101000" y="-75000" width="17000" height="19000" fill="currentColor" class="dhSKt8NmKTb2kOs9XMkF_sm"/></g></g></g></svg>