<svg version="1.1" xmlns="http://www.w3.org/2000/svg" xmlns:xlink="http://www.w3.org/1999/xlink" stroke-linecap="round" stroke-linejoin="round" stroke-width="0" fill-rule="evenodd" clip-rule="evenodd" id="k1Z9Ly0tXZukV28f97GK_top" viewBox="101000 -75000 17000 19000" width="17mm" height="19mm" class="w-100 h-100"><defs><style>.k1Z9Ly0tXZukV28f97GK_fr4 {color: #666666;}
.k1Z9Ly0tXZukV28f97GK_cu {color: #cccccc;}
.k1Z9Ly0tXZukV28f97GK_cf {color: #cc9933;}
.k1Z9Ly0tXZukV28f97GK_sm {color: #004200; opacity: 0.75;}
.k1Z9Ly0tXZukV28f97GK_ss {color: #ffffff;}
.k1Z9Ly0tXZukV28f97GK_sp {color: #999999;}
.k1Z9Ly0tXZukV28f97GK_out {color: #000000;}</style><rect x="-850" y="-850" width="1700" height="1700" rx="850" ry="850" id="BMv4fIBpaU2LFEXgeO5m_pad-10"/><circle cx="0" cy="0" r="437.5" id="BMv4fIBpaU2LFEXgeO5m_pad-12"/><rect x="-1600" y="-1600" width="3200" height="3200" id="BMv4fIBpaU2LFEXgeO5m_pad-13"/><rect x="-1000" y="-1000" width="2000" height="2000" id="BMv4fIBpaU2LFEXgeO5m_pad-14"/><circle cx="0" cy="0" r="175" id="BMv4fIBpaU2LFEXgeO5m_pad-17"/><rect x="-1050" y="-1050" width="2100" height="2100" rx="1050" ry="1050" id="L7QZnNfX_D7g-6eFA50F_pad-10"/><circle cx="0" cy="0" r="637.5" id="L7QZnNfX_D7g-6eFA50F_pad-12"/><rect x="-1800" y="-1800" width="3600" height="3600" id="L7QZnNfX_D7g-6eFA50F_pad-13"/><rect x="-1200" y="-1200" width="2400" height="2400" id="L7QZnNfX_D7g-6eFA50F_pad-14"/><circle cx="0" cy="0" r="437.5" id="YSNNNe1JNP1CQVzOTsQK_pad-11"/><circle cx="0" cy="0" r="500" id="w_ullhJQU_1_U3kxt01N_pad-1"/><circle cx="0" cy="0" r="1100" id="w_ullhJQU_1_U3kxt01N_pad-2"/><g id="k1Z9Ly0tXZukV28f97GK_top_copper"><use xlink:href="#BMv4fIBpaU2LFEXgeO5m_pad-10" x="116340" y="-73160"/><use xlink:href="#BMv4fIBpaU2LFEXgeO5m_pad-10" x="113800" y="-73160"/><use xlink:href="#BMv4fIBpaU2LFEXgeO5m_pad-10" x="111260" y="-73160"/><use xlink:href="#BMv4fIBpaU2LFEXgeO5m_pad-10" x="108720" y="-73160"/><use xlink:href="#BMv4fIBpaU2LFEXgeO5m_pad-10" x="106180" y="-73160"/><use xlink:href="#BMv4fIBpaU2LFEXgeO5m_pad-10" x="103640" y="-73160"/><use xlink:href="#BMv4fIBpaU2LFEXgeO5m_pad-10" x="116340" y="-57920"/><use xlink:href="#BMv4fIBpaU2LFEXgeO5m_pad-10" x="103640" y="-57920"/><path d="M 115048.191 -69122.053 115069.426 -69125.203 115090.25 -69130.419 115110.462 -69137.651 115129.868 -69146.83 115148.281 -69157.866 115165.524 -69170.654 115181.43 -69185.07 115195.846 -69200.976 115208.634 -69218.219 115219.67 -69236.632 115228.849 -69256.038 115236.081 -69276.25 115241.297 -69297.074 115244.447 -69318.309 115245.5 -69339.75 115245.5 -69852.25 115244.447 -69873.691 115241.297 -69894.926 115236.081 -69915.75 115228.849 -69935.962 115219.67 -69955.368 115208.634 -69973.781 115195.846 -69991.024 115181.43 -70006.93 115165.524 -70021.346 115148.281 -70034.134 115129.868 -70045.17 115110.462 -70054.349 115090.25 -70061.581 115069.426 -70066.797 115048.191 -70069.947 115026.75 -70071 114589.25 -70071 114567.809 -70069.947 114546.574 -70066.797 114525.75 -70061.581 114505.538 -70054.349 114486.132 -70045.17 114467.719 -70034.134 114450.476 -70021.346 114434.57 -70006.93 114420.154 -69991.024 114407.366 -69973.781 114396.33 -69955.368 114387.151 -69935.962 114379.919 -69915.75 114374.703 -69894.926 114371.553 -69873.691 114370.5 -69852.25 114370.5 -69339.75 114371.553 -69318.309 114374.703 -69297.074 114379.919 -69276.25 114387.151 -69256.038 114396.33 -69236.632 114407.366 -69218.219 114420.154 -69200.976 114434.57 -69185.07 114450.476 -69170.654 114467.719 -69157.866 114486.132 -69146.83 114505.538 -69137.651 114525.75 -69130.419 114546.574 -69125.203 114567.809 -69122.053 114589.25 -69121 115026.75 -69121 115048.191 -69122.053 115048.191 -69122.053"/><use xlink:href="#BMv4fIBpaU2LFEXgeO5m_pad-12" x="114808" y="-69596"/><path d="M 116623.191 -69122.053 116644.426 -69125.203 116665.25 -69130.419 116685.462 -69137.651 116704.868 -69146.83 116723.281 -69157.866 116740.524 -69170.654 116756.43 -69185.07 116770.846 -69200.976 116783.634 -69218.219 116794.67 -69236.632 116803.849 -69256.038 116811.081 -69276.25 116816.297 -69297.074 116819.447 -69318.309 116820.5 -69339.75 116820.5 -69852.25 116819.447 -69873.691 116816.297 -69894.926 116811.081 -69915.75 116803.849 -69935.962 116794.67 -69955.368 116783.634 -69973.781 116770.846 -69991.024 116756.43 -70006.93 116740.524 -70021.346 116723.281 -70034.134 116704.868 -70045.17 116685.462 -70054.349 116665.25 -70061.581 116644.426 -70066.797 116623.191 -70069.947 116601.75 -70071 116164.25 -70071 116142.809 -70069.947 116121.574 -70066.797 116100.75 -70061.581 116080.538 -70054.349 116061.132 -70045.17 116042.719 -70034.134 116025.476 -70021.346 116009.57 -70006.93 115995.154 -69991.024 115982.366 -69973.781 115971.33 -69955.368 115962.151 -69935.962 115954.919 -69915.75 115949.703 -69894.926 115946.553 -69873.691 115945.5 -69852.25 115945.5 -69339.75 115946.553 -69318.309 115949.703 -69297.074 115954.919 -69276.25 115962.151 -69256.038 115971.33 -69236.632 115982.366 -69218.219 115995.154 -69200.976 116009.57 -69185.07 116025.476 -69170.654 116042.719 -69157.866 116061.132 -69146.83 116080.538 -69137.651 116100.75 -69130.419 116121.574 -69125.203 116142.809 -69122.053 116164.25 -69121 116601.75 -69121 116623.191 -69122.053 116623.191 -69122.053"/><use xlink:href="#BMv4fIBpaU2LFEXgeO5m_pad-12" x="116383" y="-69596"/><use xlink:href="#BMv4fIBpaU2LFEXgeO5m_pad-13" x="114128" y="-61730"/><use xlink:href="#BMv4fIBpaU2LFEXgeO5m_pad-14" x="112228" y="-68730"/><use xlink:href="#BMv4fIBpaU2LFEXgeO5m_pad-14" x="109728" y="-68730"/><use xlink:href="#BMv4fIBpaU2LFEXgeO5m_pad-14" x="107228" y="-68730"/><use xlink:href="#BMv4fIBpaU2LFEXgeO5m_pad-13" x="105328" y="-61730"/><path d="M 107228 -67095 107228 -68730 M 108010 -66313 107228 -67095 M 108010 -59620 108010 -66313 M 106310 -57920 108010 -59620 M 103640 -57920 106310 -57920 M 116383 -73117 116340 -73160 M 116383 -69596 116383 -73117 M 116383 -68003 116383 -69596 M 115280 -66900 116383 -68003 M 109728 -67862 110690 -66900 115280 -66900 M 109728 -69230 109728 -67862" fill="none" stroke-width="635"/><path d="M 102569.375 -56849.375 102241.161 -57340.582 102125.908 -57920 102241.161 -58499.418 102569.375 -58990.625 103060.582 -59318.839 103493.744 -59405 103786.256 -59405 104219.418 -59318.839 104710.625 -58990.625 104789.554 -58872.5 105915.463 -58872.5 106525.522 -59482.56 103728 -59482.56 103480.235 -59531.843 103270.191 -59672.191 103129.843 -59882.235 103080.56 -60130 103080.56 -63330 103129.843 -63577.765 103270.191 -63787.809 103480.235 -63928.157 103728 -63977.44 106928 -63977.44 107057.501 -63951.681 107057.501 -65918.461 106620.819 -66355.144 106541.286 -66408.286 106356.628 -66684.647 106330.765 -66723.354 106259.314 -67082.56 106228 -67082.56 105980.235 -67131.843 105770.191 -67272.191 105629.843 -67482.235 105580.56 -67730 105580.56 -69730 105629.843 -69977.765 105770.191 -70187.809 105980.235 -70328.157 106228 -70377.44 108228 -70377.44 108475.765 -70328.157 108478 -70326.664 108480.235 -70328.157 108728 -70377.44 110728 -70377.44 110975.765 -70328.157 110989.916 -70318.701 111101.691 -70365 111942.25 -70365 112101 -70206.25 112101 -68857 112355 -68857 112355 -70206.25 112513.75 -70365 113354.309 -70365 113587.698 -70268.327 113735.5 -70120.526 113735.5 -70197.31 113832.173 -70430.699 114010.802 -70609.327 114244.191 -70706 114522.25 -70706 114681 -70547.25 114681 -69723 114661 -69723 114661 -69469 114681 -69469 114681 -68644.75 114522.25 -68486 114244.191 -68486 114010.802 -68582.673 113832.173 -68761.301 113766.676 -68919.426 113704.25 -68857 112355 -68857 112101 -68857 112081 -68857 112081 -68603 112101 -68603 112101 -68583 112355 -68583 112355 -68603 113704.25 -68603 113863 -68444.25 113863 -67852.5 114885.462 -67852.5 115430.5 -68397.539 115430.5 -68510.311 115371.809 -68486 115093.75 -68486 114935 -68644.75 114935 -69469 114955 -69469 114955 -69723 114935 -69723 114935 -70547.25 115093.75 -70706 115371.809 -70706 115430.5 -70681.689 115430.501 -71981.714 115269.375 -72089.375 115056.157 -72408.478 114995.183 -72278.642 114566.924 -71888.355 114156.89 -71718.524 113927 -71839.845 113927 -73033 113947 -73033 113947 -73287 113927 -73287 113927 -73307 113673 -73307 113673 -73287 111387 -73287 111387 -73307 111133 -73307 111133 -73287 108847 -73287 108847 -73307 108593 -73307 108593 -73287 106307 -73287 106307 -73307 106053 -73307 106053 -73287 103767 -73287 103767 -73307 103513 -73307 103513 -73287 102319.181 -73287 102198.514 -73516.892 102444.817 -74041.358 102717.65 -74290 101710 -74290 101710 -72803.108 102198.514 -72803.108 102319.181 -73033 103513 -73033 103513 -71839.845 103767 -71839.845 103767 -73033 106053 -73033 106053 -71839.845 106307 -71839.845 106307 -73033 108593 -73033 108593 -71839.845 108847 -71839.845 108847 -73033 111133 -73033 111133 -71839.845 111387 -71839.845 111387 -73033 113673 -73033 113673 -71839.845 113443.11 -71718.524 113033.076 -71888.355 112604.817 -72278.642 112530 -72437.954 112455.183 -72278.642 112026.924 -71888.355 111616.89 -71718.524 111387 -71839.845 111133 -71839.845 110903.11 -71718.524 110493.076 -71888.355 110064.817 -72278.642 109990 -72437.954 109915.183 -72278.642 109486.924 -71888.355 109076.89 -71718.524 108847 -71839.845 108593 -71839.845 108363.11 -71718.524 107953.076 -71888.355 107524.817 -72278.642 107450 -72437.954 107375.183 -72278.642 106946.924 -71888.355 106536.89 -71718.524 106307 -71839.845 106053 -71839.845 105823.11 -71718.524 105413.076 -71888.355 104984.817 -72278.642 104910 -72437.954 104835.183 -72278.642 104406.924 -71888.355 103996.89 -71718.524 103767 -71839.845 103513 -71839.845 103283.11 -71718.524 102873.076 -71888.355 102444.817 -72278.642 102198.514 -72803.108 101710 -72803.108 101710 -56710 102777.964 -56710 102569.375 -56849.375 102569.375 -56849.375"/><path d="M 102569.375 -56849.375 102241.161 -57340.582 102125.908 -57920 102241.161 -58499.418 102569.375 -58990.625 103060.582 -59318.839 103493.744 -59405 103786.256 -59405 104219.418 -59318.839 104710.625 -58990.625 104789.554 -58872.5 105915.463 -58872.5 106525.522 -59482.56 103728 -59482.56 103480.235 -59531.843 103270.191 -59672.191 103129.843 -59882.235 103080.56 -60130 103080.56 -63330 103129.843 -63577.765 103270.191 -63787.809 103480.235 -63928.157 103728 -63977.44 106928 -63977.44 107057.501 -63951.681 107057.501 -65918.461 106620.819 -66355.144 106541.286 -66408.286 106356.628 -66684.647 106330.765 -66723.354 106259.314 -67082.56 106228 -67082.56 105980.235 -67131.843 105770.191 -67272.191 105629.843 -67482.235 105580.56 -67730 105580.56 -69730 105629.843 -69977.765 105770.191 -70187.809 105980.235 -70328.157 106228 -70377.44 108228 -70377.44 108475.765 -70328.157 108478 -70326.664 108480.235 -70328.157 108728 -70377.44 110728 -70377.44 110975.765 -70328.157 110989.916 -70318.701 111101.691 -70365 111942.25 -70365 112101 -70206.25 112101 -68857 112355 -68857 112355 -70206.25 112513.75 -70365 113354.309 -70365 113587.698 -70268.327 113735.5 -70120.526 113735.5 -70197.31 113832.173 -70430.699 114010.802 -70609.327 114244.191 -70706 114522.25 -70706 114681 -70547.25 114681 -69723 114661 -69723 114661 -69469 114681 -69469 114681 -68644.75 114522.25 -68486 114244.191 -68486 114010.802 -68582.673 113832.173 -68761.301 113766.676 -68919.426 113704.25 -68857 112355 -68857 112101 -68857 112081 -68857 112081 -68603 112101 -68603 112101 -68583 112355 -68583 112355 -68603 113704.25 -68603 113863 -68444.25 113863 -67852.5 114885.462 -67852.5 115430.5 -68397.539 115430.5 -68510.311 115371.809 -68486 115093.75 -68486 114935 -68644.75 114935 -69469 114955 -69469 114955 -69723 114935 -69723 114935 -70547.25 115093.75 -70706 115371.809 -70706 115430.5 -70681.689 115430.501 -71981.714 115269.375 -72089.375 115056.157 -72408.478 114995.183 -72278.642 114566.924 -71888.355 114156.89 -71718.524 113927 -71839.845 113927 -73033 113947 -73033 113947 -73287 113927 -73287 113927 -73307 113673 -73307 113673 -73287 111387 -73287 111387 -73307 111133 -73307 111133 -73287 108847 -73287 108847 -73307 108593 -73307 108593 -73287 106307 -73287 106307 -73307 106053 -73307 106053 -73287 103767 -73287 103767 -73307 103513 -73307 103513 -73287 102319.181 -73287 102198.514 -73516.892 102444.817 -74041.358 102717.65 -74290 101710 -74290 101710 -72803.108 102198.514 -72803.108 102319.181 -73033 103513 -73033 103513 -71839.845 103767 -71839.845 103767 -73033 106053 -73033 106053 -71839.845 106307 -71839.845 106307 -73033 108593 -73033 108593 -71839.845 108847 -71839.845 108847 -73033 111133 -73033 111133 -71839.845 111387 -71839.845 111387 -73033 113673 -73033 113673 -71839.845 113443.11 -71718.524 113033.076 -71888.355 112604.817 -72278.642 112530 -72437.954 112455.183 -72278.642 112026.924 -71888.355 111616.89 -71718.524 111387 -71839.845 111133 -71839.845 110903.11 -71718.524 110493.076 -71888.355 110064.817 -72278.642 109990 -72437.954 109915.183 -72278.642 109486.924 -71888.355 109076.89 -71718.524 108847 -71839.845 108593 -71839.845 108363.11 -71718.524 107953.076 -71888.355 107524.817 -72278.642 107450 -72437.954 107375.183 -72278.642 106946.924 -71888.355 106536.89 -71718.524 106307 -71839.845 106053 -71839.845 105823.11 -71718.524 105413.076 -71888.355 104984.817 -72278.642 104910 -72437.954 104835.183 -72278.642 104406.924 -71888.355 103996.89 -71718.524 103767 -71839.845 103513 -71839.845 103283.11 -71718.524 102873.076 -71888.355 102444.817 -72278.642 102198.514 -72803.108 101710 -72803.108 101710 -56710 102777.964 -56710 102569.375 -56849.375" fill="none" stroke-width="254"/><path d="M 115144.817 -57038.642 114898.514 -57563.108 115019.181 -57793 116213 -57793 116213 -57773 116467 -57773 116467 -57793 116487 -57793 116487 -58047 116467 -58047 116467 -59240.155 116696.89 -59361.476 117106.924 -59191.645 117290.001 -59024.801 117290 -67680.447 117280.235 -67631.353 117122.853 -67395.814 117069.714 -67316.286 116990.186 -67263.147 116019.856 -66292.819 115966.714 -66213.286 115651.647 -66002.765 115373.81 -65947.5 115280 -65928.84 115186.19 -65947.5 110783.804 -65947.5 110689.999 -65928.841 110596.194 -65947.5 110596.19 -65947.5 110318.353 -66002.765 110003.286 -66213.286 109950.145 -66292.817 109160.403 -67082.56 108728 -67082.56 108552.586 -67117.452 108617.183 -67052.855 108696.714 -66999.714 108907.235 -66684.647 108981.16 -66313.001 108962.5 -66219.191 108962.5 -60130 111880.56 -60130 111880.56 -63330 111929.843 -63577.765 112070.191 -63787.809 112280.235 -63928.157 112528 -63977.44 115728 -63977.44 115975.765 -63928.157 116185.809 -63787.809 116326.157 -63577.765 116375.44 -63330 116375.44 -60130 116326.157 -59882.235 116185.809 -59672.191 115975.765 -59531.843 115728 -59482.56 112528 -59482.56 112280.235 -59531.843 112070.191 -59672.191 111929.843 -59882.235 111880.56 -60130 108962.5 -60130 108962.5 -59713.809 108981.16 -59619.999 108907.235 -59248.353 108869.344 -59191.645 108696.714 -58933.286 108617.184 -58880.146 108013.93 -58276.892 114898.514 -58276.892 115144.817 -58801.358 115573.076 -59191.645 115983.11 -59361.476 116213 -59240.155 116213 -58047 115019.181 -58047 114898.514 -58276.892 108013.93 -58276.892 107049.857 -57312.82 106996.714 -57233.286 106681.647 -57022.765 106403.81 -56967.5 106310 -56948.84 106216.19 -56967.5 104789.554 -56967.5 104710.625 -56849.375 104502.036 -56710 115505.433 -56710 115144.817 -57038.642 115144.817 -57038.642"/><path d="M 115144.817 -57038.642 114898.514 -57563.108 115019.181 -57793 116213 -57793 116213 -57773 116467 -57773 116467 -57793 116487 -57793 116487 -58047 116467 -58047 116467 -59240.155 116696.89 -59361.476 117106.924 -59191.645 117290.001 -59024.801 117290 -67680.447 117280.235 -67631.353 117122.853 -67395.814 117069.714 -67316.286 116990.186 -67263.147 116019.856 -66292.819 115966.714 -66213.286 115651.647 -66002.765 115373.81 -65947.5 115280 -65928.84 115186.19 -65947.5 110783.804 -65947.5 110689.999 -65928.841 110596.194 -65947.5 110596.19 -65947.5 110318.353 -66002.765 110003.286 -66213.286 109950.145 -66292.817 109160.403 -67082.56 108728 -67082.56 108552.586 -67117.452 108617.183 -67052.855 108696.714 -66999.714 108907.235 -66684.647 108981.16 -66313.001 108962.5 -66219.191 108962.5 -60130 111880.56 -60130 111880.56 -63330 111929.843 -63577.765 112070.191 -63787.809 112280.235 -63928.157 112528 -63977.44 115728 -63977.44 115975.765 -63928.157 116185.809 -63787.809 116326.157 -63577.765 116375.44 -63330 116375.44 -60130 116326.157 -59882.235 116185.809 -59672.191 115975.765 -59531.843 115728 -59482.56 112528 -59482.56 112280.235 -59531.843 112070.191 -59672.191 111929.843 -59882.235 111880.56 -60130 108962.5 -60130 108962.5 -59713.809 108981.16 -59619.999 108907.235 -59248.353 108869.344 -59191.645 108696.714 -58933.286 108617.184 -58880.146 108013.93 -58276.892 114898.514 -58276.892 115144.817 -58801.358 115573.076 -59191.645 115983.11 -59361.476 116213 -59240.155 116213 -58047 115019.181 -58047 114898.514 -58276.892 108013.93 -58276.892 107049.857 -57312.82 106996.714 -57233.286 106681.647 -57022.765 106403.81 -56967.5 106310 -56948.84 106216.19 -56967.5 104789.554 -56967.5 104710.625 -56849.375 104502.036 -56710 115505.433 -56710 115144.817 -57038.642" fill="none" stroke-width="254"/><use xlink:href="#BMv4fIBpaU2LFEXgeO5m_pad-17" x="116340" y="-73160"/><use xlink:href="#BMv4fIBpaU2LFEXgeO5m_pad-17" x="113800" y="-73160"/><use xlink:href="#BMv4fIBpaU2LFEXgeO5m_pad-17" x="111260" y="-73160"/><use xlink:href="#BMv4fIBpaU2LFEXgeO5m_pad-17" x="108720" y="-73160"/><use xlink:href="#BMv4fIBpaU2LFEXgeO5m_pad-17" x="106180" y="-73160"/><use xlink:href="#BMv4fIBpaU2LFEXgeO5m_pad-17" x="103640" y="-73160"/><use xlink:href="#BMv4fIBpaU2LFEXgeO5m_pad-17" x="116340" y="-57920"/><use xlink:href="#BMv4fIBpaU2LFEXgeO5m_pad-17" x="103640" y="-57920"/><use xlink:href="#BMv4fIBpaU2LFEXgeO5m_pad-17" x="114128" y="-61730"/><use xlink:href="#BMv4fIBpaU2LFEXgeO5m_pad-17" x="112228" y="-68730"/><use xlink:href="#BMv4fIBpaU2LFEXgeO5m_pad-17" x="109728" y="-68730"/><use xlink:href="#BMv4fIBpaU2LFEXgeO5m_pad-17" x="107228" y="-68730"/><use xlink:href="#BMv4fIBpaU2LFEXgeO5m_pad-17" x="105328" y="-61730"/></g><g id="k1Z9Ly0tXZukV28f97GK_top_silkscreen"><path d="M 116350 -61291.904 116302.38 -61387.142 116302.38 -61530 116350 -61672.857 116445.238 -61768.095 116540.476 -61815.714 116730.952 -61863.333 116873.809 -61863.333 117064.285 -61815.714 117159.523 -61768.095 117254.761 -61672.857 117302.38 -61530 117302.38 -61434.761 117254.761 -61291.904 117207.142 -61244.285 116873.809 -61244.285 116873.809 -61434.761 M 117302.38 -60815.714 116302.38 -60815.714 117302.38 -60244.285 116302.38 -60244.285 M 117302.38 -59768.095 116302.38 -59768.095 116302.38 -59530 116350 -59387.142 116445.238 -59291.904 116540.476 -59244.285 116730.952 -59196.666 116873.809 -59196.666 117064.285 -59244.285 117159.523 -59291.904 117254.761 -59387.142 117302.38 -59530 117302.38 -59768.095 M 101723.809 -68452.38 102180.952 -68452.38 M 101952.38 -69452.38 101952.38 -68452.38 M 102904.761 -69452.38 102638.095 -68976.19 M 102447.619 -69452.38 102447.619 -68452.38 102752.38 -68452.38 102828.571 -68500 102866.666 -68547.619 102904.761 -68642.857 102904.761 -68785.714 102866.666 -68880.952 102828.571 -68928.571 102752.38 -68976.19 102447.619 -68976.19 M 103247.619 -69452.38 103247.619 -68452.38 M 103628.571 -69452.38 103628.571 -68452.38 103895.238 -69166.666 104161.904 -68452.38 104161.904 -69452.38 M 115540 -70707.38 115692.38 -70707.38 115768.571 -70755 115844.761 -70850.238 115882.857 -71040.714 115882.857 -71374.047 115844.761 -71564.523 115768.571 -71659.761 115692.38 -71707.38 115540 -71707.38 115463.809 -71659.761 115387.619 -71564.523 115349.523 -71374.047 115349.523 -71040.714 115387.619 -70850.238 115463.809 -70755 115540 -70707.38 M 116225.714 -70707.38 116225.714 -71516.904 116263.809 -71612.142 116301.904 -71659.761 116378.095 -71707.38 116530.476 -71707.38 116606.666 -71659.761 116644.761 -71612.142 116682.857 -71516.904 116682.857 -70707.38 M 116949.523 -70707.38 117406.666 -70707.38 M 117178.095 -71707.38 117178.095 -70707.38" fill="none" stroke-width="150"/><path d="M 114435 -71255 114435 -71890 M 110625 -71255 114435 -71255 M 103005 -71255 106815 -71255 M 103005 -71890 103005 -71255" fill="none" stroke-width="200"/><path d="M 107958.095 -70755 107862.857 -70707.38 107720 -70707.38 107577.142 -70755 107481.904 -70850.238 107434.285 -70945.476 107386.666 -71135.952 107386.666 -71278.809 107434.285 -71469.285 107481.904 -71564.523 107577.142 -71659.761 107720 -71707.38 107815.238 -71707.38 107958.095 -71659.761 108005.714 -71612.142 108005.714 -71278.809 107815.238 -71278.809 M 108434.285 -71707.38 108434.285 -70707.38 109005.714 -71707.38 109005.714 -70707.38 M 109481.904 -71707.38 109481.904 -70707.38 109720 -70707.38 109862.857 -70755 109958.095 -70850.238 110005.714 -70945.476 110053.333 -71135.952 110053.333 -71278.809 110005.714 -71469.285 109958.095 -71564.523 109862.857 -71659.761 109720 -71707.38 109481.904 -71707.38 M 101852.38 -62506.666 101852.38 -61887.619 102233.333 -62220.952 102233.333 -62078.095 102280.952 -61982.857 102328.571 -61935.238 102423.809 -61887.619 102661.904 -61887.619 102757.142 -61935.238 102804.761 -61982.857 102852.38 -62078.095 102852.38 -62363.809 102804.761 -62459.047 102757.142 -62506.666 M 101852.38 -61601.904 102852.38 -61268.571 101852.38 -60935.238 M 101852.38 -60697.142 101852.38 -60078.095 102233.333 -60411.428 102233.333 -60268.571 102280.952 -60173.333 102328.571 -60125.714 102423.809 -60078.095 102661.904 -60078.095 102757.142 -60125.714 102804.761 -60173.333 102852.38 -60268.571 102852.38 -60554.285 102804.761 -60649.523 102757.142 -60697.142 M 102566.666 -59697.142 102566.666 -59220.952 M 102852.38 -59792.38 101852.38 -59459.047 102852.38 -59125.714" fill="none" stroke-width="150"/><path d="M 115432.721 -69086 115758.279 -69086 M 115432.721 -70106 115758.279 -70106" fill="none" stroke-width="120"/><path d="M 109628 -59530 109628 -60430 109828 -60430 109828 -59530 M 111964.068 -61730 A 2236.068 2236.068 0 0 1 107491.932 -61730 2236.068 2236.068 0 0 1 111964.068 -61730 M 113928 -67330 A 400 400 0 0 1 113128 -67330 400 400 0 0 1 113928 -67330 M 106328 -57930 A 400 400 0 0 1 105528 -57930 400 400 0 0 1 106328 -57930 M 113428 -68230 114428 -68230 M 114428 -63530 114428 -68230 M 105028 -63530 105028 -68230 106028 -68230 M 105028 -56930 105028 -59930 M 114428 -56930 114428 -59930 M 105028 -56930 114428 -56930 M 115533.333 -68227.142 115485.714 -68274.761 115342.857 -68322.38 115247.619 -68322.38 115104.761 -68274.761 115009.523 -68179.523 114961.904 -68084.285 114914.285 -67893.809 114914.285 -67750.952 114961.904 -67560.476 115009.523 -67465.238 115104.761 -67370 115247.619 -67322.38 115342.857 -67322.38 115485.714 -67370 115533.333 -67417.619 M 116485.714 -68322.38 115914.285 -68322.38 M 116200 -68322.38 116200 -67322.38 116104.761 -67465.238 116009.523 -67560.476 115914.285 -67608.095 M 109132.761 -66882.38 108799.428 -66406.19 M 108561.333 -66882.38 108561.333 -65882.38 108942.285 -65882.38 109037.523 -65930 109085.142 -65977.619 109132.761 -66072.857 109132.761 -66215.714 109085.142 -66310.952 109037.523 -66358.571 108942.285 -66406.19 108561.333 -66406.19 M 109418.476 -65882.38 109751.809 -66882.38 110085.142 -65882.38 M 110942.285 -66882.38 110370.857 -66882.38 M 110656.571 -66882.38 110656.571 -65882.38 110561.333 -66025.238 110466.095 -66120.476 110370.857 -66168.095" fill="none" stroke-width="150"/></g><g id="k1Z9Ly0tXZukV28f97GK_top_soldermask"><use xlink:href="#L7QZnNfX_D7g-6eFA50F_pad-10" x="116340" y="-73160"/><use xlink:href="#L7QZnNfX_D7g-6eFA50F_pad-10" x="113800" y="-73160"/><use xlink:href="#L7QZnNfX_D7g-6eFA50F_pad-10" x="111260" y="-73160"/><use xlink:href="#L7QZnNfX_D7g-6eFA50F_pad-10" x="108720" y="-73160"/><use xlink:href="#L7QZnNfX_D7g-6eFA50F_pad-10" x="106180" y="-73160"/><use xlink:href="#L7QZnNfX_D7g-6eFA50F_pad-10" x="103640" y="-73160"/><use xlink:href="#L7QZnNfX_D7g-6eFA50F_pad-10" x="116340" y="-57920"/><use xlink:href="#L7QZnNfX_D7g-6eFA50F_pad-10" x="103640" y="-57920"/><path d="M 115157.993 -68922.535 115188.935 -68927.125 115219.278 -68934.725 115248.73 -68945.263 115277.008 -68958.638 115303.838 -68974.719 115328.963 -68993.353 115352.14 -69014.36 115373.147 -69037.537 115391.781 -69062.662 115407.862 -69089.492 115421.237 -69117.77 115431.775 -69147.222 115439.375 -69177.565 115443.965 -69208.507 115445.5 -69239.75 115445.5 -69952.25 115443.965 -69983.493 115439.375 -70014.435 115431.775 -70044.778 115421.237 -70074.23 115407.862 -70102.508 115391.781 -70129.338 115373.147 -70154.463 115352.14 -70177.64 115328.963 -70198.647 115303.838 -70217.281 115277.008 -70233.362 115248.73 -70246.737 115219.278 -70257.275 115188.935 -70264.875 115157.993 -70269.465 115126.75 -70271 114489.25 -70271 114458.007 -70269.465 114427.065 -70264.875 114396.722 -70257.275 114367.27 -70246.737 114338.992 -70233.362 114312.162 -70217.281 114287.037 -70198.647 114263.86 -70177.64 114242.853 -70154.463 114224.219 -70129.338 114208.138 -70102.508 114194.763 -70074.23 114184.225 -70044.778 114176.625 -70014.435 114172.035 -69983.493 114170.5 -69952.25 114170.5 -69239.75 114172.035 -69208.507 114176.625 -69177.565 114184.225 -69147.222 114194.763 -69117.77 114208.138 -69089.492 114224.219 -69062.662 114242.853 -69037.537 114263.86 -69014.36 114287.037 -68993.353 114312.162 -68974.719 114338.992 -68958.638 114367.27 -68945.263 114396.722 -68934.725 114427.065 -68927.125 114458.007 -68922.535 114489.25 -68921 115126.75 -68921 115157.993 -68922.535 115157.993 -68922.535"/><use xlink:href="#L7QZnNfX_D7g-6eFA50F_pad-12" x="114808" y="-69596"/><path d="M 116732.993 -68922.535 116763.935 -68927.125 116794.278 -68934.725 116823.73 -68945.263 116852.008 -68958.638 116878.838 -68974.719 116903.963 -68993.353 116927.14 -69014.36 116948.147 -69037.537 116966.781 -69062.662 116982.862 -69089.492 116996.237 -69117.77 117006.775 -69147.222 117014.375 -69177.565 117018.965 -69208.507 117020.5 -69239.75 117020.5 -69952.25 117018.965 -69983.493 117014.375 -70014.435 117006.775 -70044.778 116996.237 -70074.23 116982.862 -70102.508 116966.781 -70129.338 116948.147 -70154.463 116927.14 -70177.64 116903.963 -70198.647 116878.838 -70217.281 116852.008 -70233.362 116823.73 -70246.737 116794.278 -70257.275 116763.935 -70264.875 116732.993 -70269.465 116701.75 -70271 116064.25 -70271 116033.007 -70269.465 116002.065 -70264.875 115971.722 -70257.275 115942.27 -70246.737 115913.992 -70233.362 115887.162 -70217.281 115862.037 -70198.647 115838.86 -70177.64 115817.853 -70154.463 115799.219 -70129.338 115783.138 -70102.508 115769.763 -70074.23 115759.225 -70044.778 115751.625 -70014.435 115747.035 -69983.493 115745.5 -69952.25 115745.5 -69239.75 115747.035 -69208.507 115751.625 -69177.565 115759.225 -69147.222 115769.763 -69117.77 115783.138 -69089.492 115799.219 -69062.662 115817.853 -69037.537 115838.86 -69014.36 115862.037 -68993.353 115887.162 -68974.719 115913.992 -68958.638 115942.27 -68945.263 115971.722 -68934.725 116002.065 -68927.125 116033.007 -68922.535 116064.25 -68921 116701.75 -68921 116732.993 -68922.535 116732.993 -68922.535"/><use xlink:href="#L7QZnNfX_D7g-6eFA50F_pad-12" x="116383" y="-69596"/><use xlink:href="#L7QZnNfX_D7g-6eFA50F_pad-13" x="114128" y="-61730"/><use xlink:href="#L7QZnNfX_D7g-6eFA50F_pad-14" x="112228" y="-68730"/><use xlink:href="#L7QZnNfX_D7g-6eFA50F_pad-14" x="109728" y="-68730"/><use xlink:href="#L7QZnNfX_D7g-6eFA50F_pad-14" x="107228" y="-68730"/><use xlink:href="#L7QZnNfX_D7g-6eFA50F_pad-13" x="105328" y="-61730"/></g><g id="k1Z9Ly0tXZukV28f97GK_top_solderpaste"><path d="M 115048.191 -69122.053 115069.426 -69125.203 115090.25 -69130.419 115110.462 -69137.651 115129.868 -69146.83 115148.281 -69157.866 115165.524 -69170.654 115181.43 -69185.07 115195.846 -69200.976 115208.634 -69218.219 115219.67 -69236.632 115228.849 -69256.038 115236.081 -69276.25 115241.297 -69297.074 115244.447 -69318.309 115245.5 -69339.75 115245.5 -69852.25 115244.447 -69873.691 115241.297 -69894.926 115236.081 -69915.75 115228.849 -69935.962 115219.67 -69955.368 115208.634 -69973.781 115195.846 -69991.024 115181.43 -70006.93 115165.524 -70021.346 115148.281 -70034.134 115129.868 -70045.17 115110.462 -70054.349 115090.25 -70061.581 115069.426 -70066.797 115048.191 -70069.947 115026.75 -70071 114589.25 -70071 114567.809 -70069.947 114546.574 -70066.797 114525.75 -70061.581 114505.538 -70054.349 114486.132 -70045.17 114467.719 -70034.134 114450.476 -70021.346 114434.57 -70006.93 114420.154 -69991.024 114407.366 -69973.781 114396.33 -69955.368 114387.151 -69935.962 114379.919 -69915.75 114374.703 -69894.926 114371.553 -69873.691 114370.5 -69852.25 114370.5 -69339.75 114371.553 -69318.309 114374.703 -69297.074 114379.919 -69276.25 114387.151 -69256.038 114396.33 -69236.632 114407.366 -69218.219 114420.154 -69200.976 114434.57 -69185.07 114450.476 -69170.654 114467.719 -69157.866 114486.132 -69146.83 114505.538 -69137.651 114525.75 -69130.419 114546.574 -69125.203 114567.809 -69122.053 114589.25 -69121 115026.75 -69121 115048.191 -69122.053 115048.191 -69122.053"/><use xlink:href="#YSNNNe1JNP1CQVzOTsQK_pad-11" x="114808" y="-69596"/><path d="M 116623.191 -69122.053 116644.426 -69125.203 116665.25 -69130.419 116685.462 -69137.651 116704.868 -69146.83 116723.281 -69157.866 116740.524 -69170.654 116756.43 -69185.07 116770.846 -69200.976 116783.634 -69218.219 116794.67 -69236.632 116803.849 -69256.038 116811.081 -69276.25 116816.297 -69297.074 116819.447 -69318.309 116820.5 -69339.75 116820.5 -69852.25 116819.447 -69873.691 116816.297 -69894.926 116811.081 -69915.75 116803.849 -69935.962 116794.67 -69955.368 116783.634 -69973.781 116770.846 -69991.024 116756.43 -70006.93 116740.524 -70021.346 116723.281 -70034.134 116704.868 -70045.17 116685.462 -70054.349 116665.25 -70061.581 116644.426 -70066.797 116623.191 -70069.947 116601.75 -70071 116164.25 -70071 116142.809 -70069.947 116121.574 -70066.797 116100.75 -70061.581 116080.538 -70054.349 116061.132 -70045.17 116042.719 -70034.134 116025.476 -70021.346 116009.57 -70006.93 115995.154 -69991.024 115982.366 -69973.781 115971.33 -69955.368 115962.151 -69935.962 115954.919 -69915.75 115949.703 -69894.926 115946.553 -69873.691 115945.5 -69852.25 115945.5 -69339.75 115946.553 -69318.309 115949.703 -69297.074 115954.919 -69276.25 115962.151 -69256.038 115971.33 -69236.632 115982.366 -69218.219 115995.154 -69200.976 116009.57 -69185.07 116025.476 -69170.654 116042.719 -69157.866 116061.132 -69146.83 116080.538 -69137.651 116100.75 -69130.419 116121.574 -69125.203 116142.809 -69122.053 116164.25 -69121 116601.75 -69121 116623.191 -69122.053 116623.191 -69122.053"/><use xlink:href="#YSNNNe1JNP1CQVzOTsQK_pad-11" x="116383" y="-69596"/></g><g id="k1Z9Ly0tXZukV28f97GK_top_drill1"><use xlink:href="#w_ullhJQU_1_U3kxt01N_pad-1" x="107228" y="-68730"/><use xlink:href="#w_ullhJQU_1_U3kxt01N_pad-1" x="109728" y="-68730"/><use xlink:href="#w_ullhJQU_1_U3kxt01N_pad-1" x="112228" y="-68730"/><use xlink:href="#w_ullhJQU_1_U3kxt01N_pad-1" x="116340" y="-57920"/><use xlink:href="#w_ullhJQU_1_U3kxt01N_pad-1" x="103640" y="-57920"/><use xlink:href="#w_ullhJQU_1_U3kxt01N_pad-1" x="103640" y="-73160"/><use xlink:href="#w_ullhJQU_1_U3kxt01N_pad-1" x="106180" y="-73160"/><use xlink:href="#w_ullhJQU_1_U3kxt01N_pad-1" x="108720" y="-73160"/><use xlink:href="#w_ullhJQU_1_U3kxt01N_pad-1" x="111260" y="-73160"/><use xlink:href="#w_ullhJQU_1_U3kxt01N_pad-1" x="113800" y="-73160"/><use xlink:href="#w_ullhJQU_1_U3kxt01N_pad-1" x="116340" y="-73160"/><use xlink:href="#w_ullhJQU_1_U3kxt01N_pad-2" x="105328" y="-61730"/><use xlink:href="#w_ullhJQU_1_U3kxt01N_pad-2" x="114128" y="-61730"/></g><clipPath id="k1Z9Ly0tXZukV28f97GK_top_outline"><path d="M 101000 -56000 101000 -75000 118000 -75000 118000 -56000 101000 -56000" fill="none" stroke-width="150"/></clipPath><mask id="k1Z9Ly0tXZukV28f97GK_top_mech-mask"><g fill="#000" stroke="#000"><rect x="101000" y="-75000" width="17000" height="19000" fill="#fff"/><use xlink:href="#k1Z9Ly0tXZukV28f97GK_top_drill1"/></g></mask><mask id="k1Z9Ly0tXZukV28f97GK_top_cf-mask"><g fill="#fff" stroke="#fff"><use xlink:href="#k1Z9Ly0tXZukV28f97GK_top_soldermask"/></g></mask><mask id="k1Z9Ly0tXZukV28f97GK_top_sm-mask"><g fill="#000" stroke="#000"><rect x="101000" y="-75000" width="17000" height="19000" fill="#fff"/><use xlink:href="#k1Z9Ly0tXZukV28f97GK_top_soldermask"/></g></mask></defs><g transform="translate(0,-131000) scale(1,-1)"><g mask="url(#k1Z9Ly0tXZukV28f97GK_top_mech-mask)" clip-path="url(#k1Z9Ly0tXZukV28f97GK_top_outline)"><rect x="101000" y="-75000" width="17000" height="19000" fill="currentColor" class="k1Z9Ly0tXZukV28f97GK_fr4"/><use xlink:href="#k1Z9Ly0tXZukV28f97GK_top_copper" fill="currentColor" stroke="currentColor" class="k1Z9Ly0tXZukV28f97GK_cu"/><use xlink:href="#k1Z9Ly0tXZukV28f97GK_top_copper" fill="currentColor" stroke="currentColor" class="k1Z9Ly0tXZukV28f97GK_cf" mask="url(#k1Z9Ly0tXZukV28f97GK_top_cf-mask)"/><g mask="url(#k1Z9Ly0tXZukV28f97GK_top_sm-mask)"><rect x="101000" y="-75000" width="17000" height="19000" fill="currentColor" class="k1Z9Ly0tXZukV28f97GK_sm"/><use xlink:href="#k1Z9Ly0tXZukV28f97GK_top_silkscreen" fill="currentColor" stroke="currentColor" class="k1Z9Ly0tXZukV28f97GK_ss"/></g><use xlink:href="#k1Z9Ly0tXZukV28f97GK_top_solderpaste" fill="currentColor" stroke="currentColor" class="k1Z9Ly0tXZukV28f97GK_sp"/></g></g></svg>