<svg version="1.1" xmlns="http://www.w3.org/2000/svg" xmlns:xlink="http://www.w3.org/1999/xlink" stroke-linecap="round" stroke-linejoin="round" stroke-width="0" fill-rule="evenodd" clip-rule="evenodd" id="u6sWVgar-FnwbKv89uMB_bottom" viewBox="101000 -75000 17000 19000" width="17mm" height="19mm" class="w-100 h-100"><defs><style>.u6sWVgar-FnwbKv89uMB_fr4 {color: #666666;}
.u6sWVgar-FnwbKv89uMB_cu {color: #cccccc;}
.u6sWVgar-FnwbKv89uMB_cf {color: #cc9933;}
.u6sWVgar-FnwbKv89uMB_sm {color: #004200; opacity: 0.75;}
.u6sWVgar-FnwbKv89uMB_ss {color: #ffffff;}
.u6sWVgar-FnwbKv89uMB_sp {color: #999999;}
.u6sWVgar-FnwbKv89uMB_out {color: #000000;}</style><rect x="-1050" y="-1050" width="2100" height="2100" rx="1050" ry="1050" id="EsVVUfkxlHMkPajW8ftA_pad-10"/><rect x="-1450" y="-1450" width="2900" height="2900" id="EsVVUfkxlHMkPajW8ftA_pad-11"/><rect x="-1200" y="-1200" width="2400" height="2400" id="EsVVUfkxlHMkPajW8ftA_pad-12"/><rect x="-850" y="-850" width="1700" height="1700" rx="850" ry="850" id="UTojiFKzZJ2e4HBKSGfD_pad-10"/><rect x="-1250" y="-1250" width="2500" height="2500" id="UTojiFKzZJ2e4HBKSGfD_pad-11"/><rect x="-1000" y="-1000" width="2000" height="2000" id="UTojiFKzZJ2e4HBKSGfD_pad-12"/><circle cx="0" cy="0" r="175" id="UTojiFKzZJ2e4HBKSGfD_pad-15"/><circle cx="0" cy="0" r="500" id="j86OgrC5uf1FBAfNKohp_pad-1"/><circle cx="0" cy="0" r="750" id="j86OgrC5uf1FBAfNKohp_pad-2"/><g id="u6sWVgar-FnwbKv89uMB_bottom_soldermask"><use xlink:href="#EsVVUfkxlHMkPajW8ftA_pad-10" x="116340" y="-73160"/><use xlink:href="#EsVVUfkxlHMkPajW8ftA_pad-10" x="113800" y="-73160"/><use xlink:href="#EsVVUfkxlHMkPajW8ftA_pad-10" x="111260" y="-73160"/><use xlink:href="#EsVVUfkxlHMkPajW8ftA_pad-10" x="108720" y="-73160"/><use xlink:href="#EsVVUfkxlHMkPajW8ftA_pad-10" x="106180" y="-73160"/><use xlink:href="#EsVVUfkxlHMkPajW8ftA_pad-10" x="103640" y="-73160"/><use xlink:href="#EsVVUfkxlHMkPajW8ftA_pad-10" x="116340" y="-57920"/><use xlink:href="#EsVVUfkxlHMkPajW8ftA_pad-10" x="103640" y="-57920"/><use xlink:href="#EsVVUfkxlHMkPajW8ftA_pad-11" x="115428" y="-61730"/><use xlink:href="#EsVVUfkxlHMkPajW8ftA_pad-12" x="112228" y="-69230"/><use xlink:href="#EsVVUfkxlHMkPajW8ftA_pad-12" x="109728" y="-69230"/><use xlink:href="#EsVVUfkxlHMkPajW8ftA_pad-12" x="107228" y="-69230"/><use xlink:href="#EsVVUfkxlHMkPajW8ftA_pad-11" x="104028" y="-61730"/></g><g id="u6sWVgar-FnwbKv89uMB_bottom_copper"><use xlink:href="#UTojiFKzZJ2e4HBKSGfD_pad-10" x="116340" y="-73160"/><use xlink:href="#UTojiFKzZJ2e4HBKSGfD_pad-10" x="113800" y="-73160"/><use xlink:href="#UTojiFKzZJ2e4HBKSGfD_pad-10" x="111260" y="-73160"/><use xlink:href="#UTojiFKzZJ2e4HBKSGfD_pad-10" x="108720" y="-73160"/><use xlink:href="#UTojiFKzZJ2e4HBKSGfD_pad-10" x="106180" y="-73160"/><use xlink:href="#UTojiFKzZJ2e4HBKSGfD_pad-10" x="103640" y="-73160"/><use xlink:href="#UTojiFKzZJ2e4HBKSGfD_pad-10" x="116340" y="-57920"/><use xlink:href="#UTojiFKzZJ2e4HBKSGfD_pad-10" x="103640" y="-57920"/><use xlink:href="#UTojiFKzZJ2e4HBKSGfD_pad-11" x="115428" y="-61730"/><use xlink:href="#UTojiFKzZJ2e4HBKSGfD_pad-12" x="112228" y="-69230"/><use xlink:href="#UTojiFKzZJ2e4HBKSGfD_pad-12" x="109728" y="-69230"/><use xlink:href="#UTojiFKzZJ2e4HBKSGfD_pad-12" x="107228" y="-69230"/><use xlink:href="#UTojiFKzZJ2e4HBKSGfD_pad-11" x="104028" y="-61730"/><path d="M 112228 -67595 112228 -69230 M 112228 -60829.919 112228 -67595 M 115137.919 -57920 112228 -60829.919 M 116340 -57920 115137.919 -57920" fill="none" stroke-width="635"/><path d="M 102444.817 -57038.642 102198.514 -57563.108 102319.181 -57793 103513 -57793 103513 -57773 103767 -57773 103767 -57793 104960.819 -57793 105081.486 -57563.108 104835.183 -57038.642 104474.567 -56710 115477.964 -56710 115269.375 -56849.375 115195.29 -56960.252 115137.919 -56948.84 115044.109 -56967.5 114766.272 -57022.765 114451.205 -57233.286 114398.064 -57312.817 111620.82 -60090.062 111541.286 -60143.205 111330.766 -60458.272 111330.765 -60458.273 111256.84 -60829.919 111275.5 -60923.729 111275.501 -67501.186 111275.5 -67501.191 111275.5 -67582.56 111228 -67582.56 110980.235 -67631.843 110978 -67633.336 110975.765 -67631.843 110728 -67582.56 108728 -67582.56 108480.235 -67631.843 108466.084 -67641.299 108354.309 -67595 107513.75 -67595 107355 -67753.75 107355 -69103 107375 -69103 107375 -69357 107355 -69357 107355 -70706.25 107513.75 -70865 108354.309 -70865 108466.084 -70818.701 108480.235 -70828.157 108728 -70877.44 110728 -70877.44 110975.765 -70828.157 110978 -70826.664 110980.235 -70828.157 111228 -70877.44 113228 -70877.44 113475.765 -70828.157 113685.809 -70687.809 113826.157 -70477.765 113875.44 -70230 113875.44 -68230 113826.157 -67982.235 113685.809 -67772.191 113475.765 -67631.843 113228 -67582.56 113180.5 -67582.56 113180.5 -61224.456 113530.56 -60874.396 113530.56 -62980 113579.843 -63227.765 113720.191 -63437.809 113930.235 -63578.157 114178 -63627.44 116678 -63627.44 116925.765 -63578.157 117135.809 -63437.809 117276.157 -63227.765 117290.001 -63158.168 117290 -72008.776 116919.418 -71761.161 116486.256 -71675 116193.744 -71675 115760.582 -71761.161 115269.375 -72089.375 115056.157 -72408.478 114995.183 -72278.642 114566.924 -71888.355 114156.89 -71718.524 113927 -71839.845 113927 -73033 113947 -73033 113947 -73287 113927 -73287 113927 -73307 113673 -73307 113673 -73287 111387 -73287 111387 -73307 111133 -73307 111133 -73287 108847 -73287 108847 -73307 108593 -73307 108593 -73287 106307 -73287 106307 -73307 106053 -73307 106053 -73287 103767 -73287 103767 -73307 103513 -73307 103513 -73287 102319.181 -73287 102198.514 -73516.892 102444.817 -74041.358 102717.65 -74290 101710 -74290 101710 -72803.108 102198.514 -72803.108 102319.181 -73033 103513 -73033 103513 -71839.845 103767 -71839.845 103767 -73033 106053 -73033 106053 -71839.845 106307 -71839.845 106307 -73033 108593 -73033 108593 -71839.845 108847 -71839.845 108847 -73033 111133 -73033 111133 -71839.845 111387 -71839.845 111387 -73033 113673 -73033 113673 -71839.845 113443.11 -71718.524 113033.076 -71888.355 112604.817 -72278.642 112530 -72437.954 112455.183 -72278.642 112026.924 -71888.355 111616.89 -71718.524 111387 -71839.845 111133 -71839.845 110903.11 -71718.524 110493.076 -71888.355 110064.817 -72278.642 109990 -72437.954 109915.183 -72278.642 109486.924 -71888.355 109076.89 -71718.524 108847 -71839.845 108593 -71839.845 108363.11 -71718.524 107953.076 -71888.355 107524.817 -72278.642 107450 -72437.954 107375.183 -72278.642 106946.924 -71888.355 106536.89 -71718.524 106307 -71839.845 106053 -71839.845 105823.11 -71718.524 105413.076 -71888.355 104984.817 -72278.642 104910 -72437.954 104835.183 -72278.642 104406.924 -71888.355 103996.89 -71718.524 103767 -71839.845 103513 -71839.845 103283.11 -71718.524 102873.076 -71888.355 102444.817 -72278.642 102198.514 -72803.108 101710 -72803.108 101710 -69515.75 105593 -69515.75 105593 -70356.31 105689.673 -70589.699 105868.302 -70768.327 106101.691 -70865 106942.25 -70865 107101 -70706.25 107101 -69357 105751.75 -69357 105593 -69515.75 101710 -69515.75 101710 -68103.69 105593 -68103.69 105593 -68944.25 105751.75 -69103 107101 -69103 107101 -67753.75 106942.25 -67595 106101.691 -67595 105868.302 -67691.673 105689.673 -67870.301 105593 -68103.69 101710 -68103.69 101710 -60480 102130.56 -60480 102130.56 -62980 102179.843 -63227.765 102320.191 -63437.809 102530.235 -63578.157 102778 -63627.44 105278 -63627.44 105525.765 -63578.157 105735.809 -63437.809 105876.157 -63227.765 105925.44 -62980 105925.44 -60480 105876.157 -60232.235 105735.809 -60022.191 105525.765 -59881.843 105278 -59832.56 102778 -59832.56 102530.235 -59881.843 102320.191 -60022.191 102179.843 -60232.235 102130.56 -60480 101710 -60480 101710 -58276.892 102198.514 -58276.892 102444.817 -58801.358 102873.076 -59191.645 103283.11 -59361.476 103513 -59240.155 103513 -58047 103767 -58047 103767 -59240.155 103996.89 -59361.476 104406.924 -59191.645 104835.183 -58801.358 105081.486 -58276.892 104960.819 -58047 103767 -58047 103513 -58047 102319.181 -58047 102198.514 -58276.892 101710 -58276.892 101710 -56710 102805.433 -56710 102444.817 -57038.642 102444.817 -57038.642"/><path d="M 102444.817 -57038.642 102198.514 -57563.108 102319.181 -57793 103513 -57793 103513 -57773 103767 -57773 103767 -57793 104960.819 -57793 105081.486 -57563.108 104835.183 -57038.642 104474.567 -56710 115477.964 -56710 115269.375 -56849.375 115195.29 -56960.252 115137.919 -56948.84 115044.109 -56967.5 114766.272 -57022.765 114451.205 -57233.286 114398.064 -57312.817 111620.82 -60090.062 111541.286 -60143.205 111330.766 -60458.272 111330.765 -60458.273 111256.84 -60829.919 111275.5 -60923.729 111275.501 -67501.186 111275.5 -67501.191 111275.5 -67582.56 111228 -67582.56 110980.235 -67631.843 110978 -67633.336 110975.765 -67631.843 110728 -67582.56 108728 -67582.56 108480.235 -67631.843 108466.084 -67641.299 108354.309 -67595 107513.75 -67595 107355 -67753.75 107355 -69103 107375 -69103 107375 -69357 107355 -69357 107355 -70706.25 107513.75 -70865 108354.309 -70865 108466.084 -70818.701 108480.235 -70828.157 108728 -70877.44 110728 -70877.44 110975.765 -70828.157 110978 -70826.664 110980.235 -70828.157 111228 -70877.44 113228 -70877.44 113475.765 -70828.157 113685.809 -70687.809 113826.157 -70477.765 113875.44 -70230 113875.44 -68230 113826.157 -67982.235 113685.809 -67772.191 113475.765 -67631.843 113228 -67582.56 113180.5 -67582.56 113180.5 -61224.456 113530.56 -60874.396 113530.56 -62980 113579.843 -63227.765 113720.191 -63437.809 113930.235 -63578.157 114178 -63627.44 116678 -63627.44 116925.765 -63578.157 117135.809 -63437.809 117276.157 -63227.765 117290.001 -63158.168 117290 -72008.776 116919.418 -71761.161 116486.256 -71675 116193.744 -71675 115760.582 -71761.161 115269.375 -72089.375 115056.157 -72408.478 114995.183 -72278.642 114566.924 -71888.355 114156.89 -71718.524 113927 -71839.845 113927 -73033 113947 -73033 113947 -73287 113927 -73287 113927 -73307 113673 -73307 113673 -73287 111387 -73287 111387 -73307 111133 -73307 111133 -73287 108847 -73287 108847 -73307 108593 -73307 108593 -73287 106307 -73287 106307 -73307 106053 -73307 106053 -73287 103767 -73287 103767 -73307 103513 -73307 103513 -73287 102319.181 -73287 102198.514 -73516.892 102444.817 -74041.358 102717.65 -74290 101710 -74290 101710 -72803.108 102198.514 -72803.108 102319.181 -73033 103513 -73033 103513 -71839.845 103767 -71839.845 103767 -73033 106053 -73033 106053 -71839.845 106307 -71839.845 106307 -73033 108593 -73033 108593 -71839.845 108847 -71839.845 108847 -73033 111133 -73033 111133 -71839.845 111387 -71839.845 111387 -73033 113673 -73033 113673 -71839.845 113443.11 -71718.524 113033.076 -71888.355 112604.817 -72278.642 112530 -72437.954 112455.183 -72278.642 112026.924 -71888.355 111616.89 -71718.524 111387 -71839.845 111133 -71839.845 110903.11 -71718.524 110493.076 -71888.355 110064.817 -72278.642 109990 -72437.954 109915.183 -72278.642 109486.924 -71888.355 109076.89 -71718.524 108847 -71839.845 108593 -71839.845 108363.11 -71718.524 107953.076 -71888.355 107524.817 -72278.642 107450 -72437.954 107375.183 -72278.642 106946.924 -71888.355 106536.89 -71718.524 106307 -71839.845 106053 -71839.845 105823.11 -71718.524 105413.076 -71888.355 104984.817 -72278.642 104910 -72437.954 104835.183 -72278.642 104406.924 -71888.355 103996.89 -71718.524 103767 -71839.845 103513 -71839.845 103283.11 -71718.524 102873.076 -71888.355 102444.817 -72278.642 102198.514 -72803.108 101710 -72803.108 101710 -69515.75 105593 -69515.75 105593 -70356.31 105689.673 -70589.699 105868.302 -70768.327 106101.691 -70865 106942.25 -70865 107101 -70706.25 107101 -69357 105751.75 -69357 105593 -69515.75 101710 -69515.75 101710 -68103.69 105593 -68103.69 105593 -68944.25 105751.75 -69103 107101 -69103 107101 -67753.75 106942.25 -67595 106101.691 -67595 105868.302 -67691.673 105689.673 -67870.301 105593 -68103.69 101710 -68103.69 101710 -60480 102130.56 -60480 102130.56 -62980 102179.843 -63227.765 102320.191 -63437.809 102530.235 -63578.157 102778 -63627.44 105278 -63627.44 105525.765 -63578.157 105735.809 -63437.809 105876.157 -63227.765 105925.44 -62980 105925.44 -60480 105876.157 -60232.235 105735.809 -60022.191 105525.765 -59881.843 105278 -59832.56 102778 -59832.56 102530.235 -59881.843 102320.191 -60022.191 102179.843 -60232.235 102130.56 -60480 101710 -60480 101710 -58276.892 102198.514 -58276.892 102444.817 -58801.358 102873.076 -59191.645 103283.11 -59361.476 103513 -59240.155 103513 -58047 103767 -58047 103767 -59240.155 103996.89 -59361.476 104406.924 -59191.645 104835.183 -58801.358 105081.486 -58276.892 104960.819 -58047 103767 -58047 103513 -58047 102319.181 -58047 102198.514 -58276.892 101710 -58276.892 101710 -56710 102805.433 -56710 102444.817 -57038.642" fill="none" stroke-width="254"/><use xlink:href="#UTojiFKzZJ2e4HBKSGfD_pad-15" x="116340" y="-73160"/><use xlink:href="#UTojiFKzZJ2e4HBKSGfD_pad-15" x="113800" y="-73160"/><use xlink:href="#UTojiFKzZJ2e4HBKSGfD_pad-15" x="111260" y="-73160"/><use xlink:href="#UTojiFKzZJ2e4HBKSGfD_pad-15" x="108720" y="-73160"/><use xlink:href="#UTojiFKzZJ2e4HBKSGfD_pad-15" x="106180" y="-73160"/><use xlink:href="#UTojiFKzZJ2e4HBKSGfD_pad-15" x="103640" y="-73160"/><use xlink:href="#UTojiFKzZJ2e4HBKSGfD_pad-15" x="116340" y="-57920"/><use xlink:href="#UTojiFKzZJ2e4HBKSGfD_pad-15" x="103640" y="-57920"/><use xlink:href="#UTojiFKzZJ2e4HBKSGfD_pad-15" x="115428" y="-61730"/><use xlink:href="#UTojiFKzZJ2e4HBKSGfD_pad-15" x="112228" y="-69230"/><use xlink:href="#UTojiFKzZJ2e4HBKSGfD_pad-15" x="109728" y="-69230"/><use xlink:href="#UTojiFKzZJ2e4HBKSGfD_pad-15" x="107228" y="-69230"/><use xlink:href="#UTojiFKzZJ2e4HBKSGfD_pad-15" x="104028" y="-61730"/></g><g id="u6sWVgar-FnwbKv89uMB_bottom_drill1"><use xlink:href="#j86OgrC5uf1FBAfNKohp_pad-1" x="107228" y="-69230"/><use xlink:href="#j86OgrC5uf1FBAfNKohp_pad-1" x="109728" y="-69230"/><use xlink:href="#j86OgrC5uf1FBAfNKohp_pad-1" x="112228" y="-69230"/><use xlink:href="#j86OgrC5uf1FBAfNKohp_pad-1" x="116340" y="-57920"/><use xlink:href="#j86OgrC5uf1FBAfNKohp_pad-1" x="103640" y="-73160"/><use xlink:href="#j86OgrC5uf1FBAfNKohp_pad-1" x="106180" y="-73160"/><use xlink:href="#j86OgrC5uf1FBAfNKohp_pad-1" x="108720" y="-73160"/><use xlink:href="#j86OgrC5uf1FBAfNKohp_pad-1" x="111260" y="-73160"/><use xlink:href="#j86OgrC5uf1FBAfNKohp_pad-1" x="113800" y="-73160"/><use xlink:href="#j86OgrC5uf1FBAfNKohp_pad-1" x="116340" y="-73160"/><use xlink:href="#j86OgrC5uf1FBAfNKohp_pad-1" x="103640" y="-57920"/><use xlink:href="#j86OgrC5uf1FBAfNKohp_pad-2" x="104028" y="-61730"/><use xlink:href="#j86OgrC5uf1FBAfNKohp_pad-2" x="115428" y="-61730"/></g><clipPath id="u6sWVgar-FnwbKv89uMB_bottom_outline"><path d="M 101000 -56000 101000 -75000 118000 -75000 118000 -56000 101000 -56000" fill="none" stroke-width="150"/></clipPath><mask id="u6sWVgar-FnwbKv89uMB_bottom_mech-mask"><g fill="#000" stroke="#000"><rect x="101000" y="-75000" width="17000" height="19000" fill="#fff"/><use xlink:href="#u6sWVgar-FnwbKv89uMB_bottom_drill1"/></g></mask><mask id="u6sWVgar-FnwbKv89uMB_bottom_cf-mask"><g fill="#fff" stroke="#fff"><use xlink:href="#u6sWVgar-FnwbKv89uMB_bottom_soldermask"/></g></mask><mask id="u6sWVgar-FnwbKv89uMB_bottom_sm-mask"><g fill="#000" stroke="#000"><rect x="101000" y="-75000" width="17000" height="19000" fill="#fff"/><use xlink:href="#u6sWVgar-FnwbKv89uMB_bottom_soldermask"/></g></mask></defs><g transform="translate(0,-131000) scale(1,-1)"><g mask="url(#u6sWVgar-FnwbKv89uMB_bottom_mech-mask)" clip-path="url(#u6sWVgar-FnwbKv89uMB_bottom_outline)" transform="translate(219000,0) scale(-1,1)"><rect x="101000" y="-75000" width="17000" height="19000" fill="currentColor" class="u6sWVgar-FnwbKv89uMB_fr4"/><use xlink:href="#u6sWVgar-FnwbKv89uMB_bottom_copper" fill="currentColor" stroke="currentColor" class="u6sWVgar-FnwbKv89uMB_cu"/><use xlink:href="#u6sWVgar-FnwbKv89uMB_bottom_copper" fill="currentColor" stroke="currentColor" class="u6sWVgar-FnwbKv89uMB_cf" mask="url(#u6sWVgar-FnwbKv89uMB_bottom_cf-mask)"/><g mask="url(#u6sWVgar-FnwbKv89uMB_bottom_sm-mask)"><rect x="101000" y="-75000" width="17000" height="19000" fill="currentColor" class="u6sWVgar-FnwbKv89uMB_sm"/></g></g></g></svg>