<svg version="1.1" xmlns="http://www.w3.org/2000/svg" xmlns:xlink="http://www.w3.org/1999/xlink" stroke-linecap="round" stroke-linejoin="round" stroke-width="0" fill-rule="evenodd" clip-rule="evenodd" id="gAYfSrfFCTVOtq3IzP4__bottom" viewBox="101000 -75000 20000 19000" width="20mm" height="19mm" class="w-100 h-100"><defs><style>.gAYfSrfFCTVOtq3IzP4__fr4 {color: #666666;}
.gAYfSrfFCTVOtq3IzP4__cu {color: #cccccc;}
.gAYfSrfFCTVOtq3IzP4__cf {color: #cc9933;}
.gAYfSrfFCTVOtq3IzP4__sm {color: #004200; opacity: 0.75;}
.gAYfSrfFCTVOtq3IzP4__ss {color: #ffffff;}
.gAYfSrfFCTVOtq3IzP4__sp {color: #999999;}
.gAYfSrfFCTVOtq3IzP4__out {color: #000000;}</style><rect x="-850" y="-850" width="1700" height="1700" rx="850" ry="850" id="QpnYWkz8AMv3c6k1full_pad-10"/><rect x="-800" y="-1150" width="1600" height="2300" rx="800" ry="800" id="QpnYWkz8AMv3c6k1full_pad-11"/><rect x="-800" y="-1250" width="1600" height="2500" rx="800" ry="800" id="QpnYWkz8AMv3c6k1full_pad-12"/><rect x="-750" y="-1250" width="1500" height="2500" rx="750" ry="750" id="QpnYWkz8AMv3c6k1full_pad-13"/><circle cx="0" cy="0" r="175" id="QpnYWkz8AMv3c6k1full_pad-15"/><rect x="-300" y="-650" width="600" height="1300" rx="300" ry="300" id="QpnYWkz8AMv3c6k1full_pad-16"/><rect x="-300" y="-750" width="600" height="1500" rx="300" ry="300" id="QpnYWkz8AMv3c6k1full_pad-17"/><rect x="-250" y="-750" width="500" height="1500" rx="250" ry="250" id="QpnYWkz8AMv3c6k1full_pad-18"/><circle cx="0" cy="0" r="500" id="hTYSWKC-w6TWIHrfYaQX_pad-3"/><circle cx="0" cy="0" r="1500" id="hTYSWKC-w6TWIHrfYaQX_pad-4"/><g id="gAYfSrfFCTVOtq3IzP4__bottom_copper"><use xlink:href="#QpnYWkz8AMv3c6k1full_pad-10" x="116340" y="-73160"/><use xlink:href="#QpnYWkz8AMv3c6k1full_pad-10" x="113800" y="-73160"/><use xlink:href="#QpnYWkz8AMv3c6k1full_pad-10" x="111260" y="-73160"/><use xlink:href="#QpnYWkz8AMv3c6k1full_pad-10" x="108720" y="-73160"/><use xlink:href="#QpnYWkz8AMv3c6k1full_pad-10" x="106180" y="-73160"/><use xlink:href="#QpnYWkz8AMv3c6k1full_pad-10" x="103640" y="-73160"/><use xlink:href="#QpnYWkz8AMv3c6k1full_pad-10" x="116340" y="-57920"/><use xlink:href="#QpnYWkz8AMv3c6k1full_pad-10" x="113800" y="-57920"/><use xlink:href="#QpnYWkz8AMv3c6k1full_pad-10" x="111260" y="-57920"/><use xlink:href="#QpnYWkz8AMv3c6k1full_pad-10" x="108720" y="-57920"/><use xlink:href="#QpnYWkz8AMv3c6k1full_pad-10" x="106180" y="-57920"/><use xlink:href="#QpnYWkz8AMv3c6k1full_pad-10" x="103640" y="-57920"/><use xlink:href="#QpnYWkz8AMv3c6k1full_pad-11" x="102875" y="-65540"/><use xlink:href="#QpnYWkz8AMv3c6k1full_pad-12" x="105975" y="-65540"/><use xlink:href="#QpnYWkz8AMv3c6k1full_pad-13" x="114275" y="-65540"/><path d="M 102444.817 -57038.642 102198.514 -57563.108 102319.181 -57793 103513 -57793 103513 -57773 103767 -57773 103767 -57793 106053 -57793 106053 -57773 106307 -57773 106307 -57793 108593 -57793 108593 -57773 108847 -57773 108847 -57793 111133 -57793 111133 -57773 111387 -57773 111387 -57793 113673 -57793 113673 -57773 113927 -57773 113927 -57793 113947 -57793 113947 -58047 113927 -58047 113927 -59240.155 114156.89 -59361.476 114566.924 -59191.645 114995.183 -58801.358 115056.157 -58671.522 115269.375 -58990.625 115760.582 -59318.839 116193.744 -59405 116486.256 -59405 116919.418 -59318.839 117410.625 -58990.625 117738.839 -58499.418 117854.092 -57920 117738.839 -57340.582 117410.625 -56849.375 117202.036 -56710 120290.001 -56710 120290 -74290 117321.764 -74290 117410.625 -74230.625 117738.839 -73739.418 117854.092 -73160 117738.839 -72580.582 117410.625 -72089.375 116919.418 -71761.161 116486.256 -71675 116193.744 -71675 115760.582 -71761.161 115269.375 -72089.375 115070 -72387.761 114870.625 -72089.375 114379.418 -71761.161 113946.256 -71675 113653.744 -71675 113220.582 -71761.161 112729.375 -72089.375 112516.157 -72408.478 112455.183 -72278.642 112026.924 -71888.355 111616.89 -71718.524 111387 -71839.845 111387 -73033 111407 -73033 111407 -73287 111387 -73287 111387 -73307 111133 -73307 111133 -73287 108847 -73287 108847 -73307 108593 -73307 108593 -73287 106307 -73287 106307 -73307 106053 -73307 106053 -73287 103767 -73287 103767 -73307 103513 -73307 103513 -73287 102319.181 -73287 102198.514 -73516.892 102444.817 -74041.358 102717.65 -74290 101710 -74290 101710 -72803.108 102198.514 -72803.108 102319.181 -73033 103513 -73033 103513 -71839.845 103767 -71839.845 103767 -73033 106053 -73033 106053 -71839.845 106307 -71839.845 106307 -73033 108593 -73033 108593 -71839.845 108847 -71839.845 108847 -73033 111133 -73033 111133 -71839.845 110903.11 -71718.524 110493.076 -71888.355 110064.817 -72278.642 109990 -72437.954 109915.183 -72278.642 109486.924 -71888.355 109076.89 -71718.524 108847 -71839.845 108593 -71839.845 108363.11 -71718.524 107953.076 -71888.355 107524.817 -72278.642 107450 -72437.954 107375.183 -72278.642 106946.924 -71888.355 106536.89 -71718.524 106307 -71839.845 106053 -71839.845 105823.11 -71718.524 105413.076 -71888.355 104984.817 -72278.642 104910 -72437.954 104835.183 -72278.642 104406.924 -71888.355 103996.89 -71718.524 103767 -71839.845 103513 -71839.845 103283.11 -71718.524 102873.076 -71888.355 102444.817 -72278.642 102198.514 -72803.108 101710 -72803.108 101710 -66695.952 101950.104 -66994.5 102443.181 -67264.367 102525.961 -67281.904 102748 -67159.915 102748 -65667 103002 -65667 103002 -67159.915 103224.039 -67281.904 103306.819 -67264.367 103799.896 -66994.5 104152.166 -66556.483 104310 -66017 104310 -65667 103002 -65667 102748 -65667 102728 -65667 102728 -65413 102748 -65413 102748 -63920.085 103002 -63920.085 103002 -65413 104310 -65413 104310 -65063 104276.551 -64948.667 104540 -64948.667 104540 -66131.332 104623.26 -66549.908 104940.423 -67024.576 105415.091 -67341.74 105975 -67453.113 106534.908 -67341.74 107009.576 -67024.577 107326.74 -66549.909 107370.755 -66328.632 107545.034 -66749.38 108145.62 -67349.966 108930.322 -67675 109779.678 -67675 110564.38 -67349.966 111164.966 -66749.38 111490 -65964.678 111490 -65115.322 111402.3 -64903.593 112890 -64903.593 112890 -66176.406 112970.359 -66580.399 113276.471 -67038.528 113734.6 -67344.641 114275 -67452.133 114815.399 -67344.641 115273.528 -67038.529 115579.641 -66580.4 115660 -66176.407 115660 -64903.593 115579.641 -64499.6 115273.529 -64041.471 114815.4 -63735.359 114275 -63627.867 113734.601 -63735.359 113276.472 -64041.471 112970.359 -64499.6 112890 -64903.593 111402.3 -64903.593 111164.966 -64330.62 110564.38 -63730.034 109779.678 -63405 108930.322 -63405 108145.62 -63730.034 107545.034 -64330.62 107370.755 -64751.368 107326.74 -64530.091 107009.577 -64055.423 106534.909 -63738.26 105975 -63626.887 105415.092 -63738.26 104940.424 -64055.423 104623.26 -64530.091 104540 -64948.667 104276.551 -64948.667 104152.166 -64523.517 103799.896 -64085.5 103306.819 -63815.633 103224.039 -63798.096 103002 -63920.085 102748 -63920.085 102525.961 -63798.096 102443.181 -63815.633 101950.104 -64085.5 101710 -64384.048 101710 -58276.892 102198.514 -58276.892 102444.817 -58801.358 102873.076 -59191.645 103283.11 -59361.476 103513 -59240.155 103513 -58047 103767 -58047 103767 -59240.155 103996.89 -59361.476 104406.924 -59191.645 104835.183 -58801.358 104910 -58642.046 104984.817 -58801.358 105413.076 -59191.645 105823.11 -59361.476 106053 -59240.155 106053 -58047 106307 -58047 106307 -59240.155 106536.89 -59361.476 106946.924 -59191.645 107375.183 -58801.358 107450 -58642.046 107524.817 -58801.358 107953.076 -59191.645 108363.11 -59361.476 108593 -59240.155 108593 -58047 108847 -58047 108847 -59240.155 109076.89 -59361.476 109486.924 -59191.645 109915.183 -58801.358 109990 -58642.046 110064.817 -58801.358 110493.076 -59191.645 110903.11 -59361.476 111133 -59240.155 111133 -58047 111387 -58047 111387 -59240.155 111616.89 -59361.476 112026.924 -59191.645 112455.183 -58801.358 112530 -58642.046 112604.817 -58801.358 113033.076 -59191.645 113443.11 -59361.476 113673 -59240.155 113673 -58047 111387 -58047 111133 -58047 108847 -58047 108593 -58047 106307 -58047 106053 -58047 103767 -58047 103513 -58047 102319.181 -58047 102198.514 -58276.892 101710 -58276.892 101710 -56710 102805.433 -56710 102444.817 -57038.642 102444.817 -57038.642"/><path d="M 102444.817 -57038.642 102198.514 -57563.108 102319.181 -57793 103513 -57793 103513 -57773 103767 -57773 103767 -57793 106053 -57793 106053 -57773 106307 -57773 106307 -57793 108593 -57793 108593 -57773 108847 -57773 108847 -57793 111133 -57793 111133 -57773 111387 -57773 111387 -57793 113673 -57793 113673 -57773 113927 -57773 113927 -57793 113947 -57793 113947 -58047 113927 -58047 113927 -59240.155 114156.89 -59361.476 114566.924 -59191.645 114995.183 -58801.358 115056.157 -58671.522 115269.375 -58990.625 115760.582 -59318.839 116193.744 -59405 116486.256 -59405 116919.418 -59318.839 117410.625 -58990.625 117738.839 -58499.418 117854.092 -57920 117738.839 -57340.582 117410.625 -56849.375 117202.036 -56710 120290.001 -56710 120290 -74290 117321.764 -74290 117410.625 -74230.625 117738.839 -73739.418 117854.092 -73160 117738.839 -72580.582 117410.625 -72089.375 116919.418 -71761.161 116486.256 -71675 116193.744 -71675 115760.582 -71761.161 115269.375 -72089.375 115070 -72387.761 114870.625 -72089.375 114379.418 -71761.161 113946.256 -71675 113653.744 -71675 113220.582 -71761.161 112729.375 -72089.375 112516.157 -72408.478 112455.183 -72278.642 112026.924 -71888.355 111616.89 -71718.524 111387 -71839.845 111387 -73033 111407 -73033 111407 -73287 111387 -73287 111387 -73307 111133 -73307 111133 -73287 108847 -73287 108847 -73307 108593 -73307 108593 -73287 106307 -73287 106307 -73307 106053 -73307 106053 -73287 103767 -73287 103767 -73307 103513 -73307 103513 -73287 102319.181 -73287 102198.514 -73516.892 102444.817 -74041.358 102717.65 -74290 101710 -74290 101710 -72803.108 102198.514 -72803.108 102319.181 -73033 103513 -73033 103513 -71839.845 103767 -71839.845 103767 -73033 106053 -73033 106053 -71839.845 106307 -71839.845 106307 -73033 108593 -73033 108593 -71839.845 108847 -71839.845 108847 -73033 111133 -73033 111133 -71839.845 110903.11 -71718.524 110493.076 -71888.355 110064.817 -72278.642 109990 -72437.954 109915.183 -72278.642 109486.924 -71888.355 109076.89 -71718.524 108847 -71839.845 108593 -71839.845 108363.11 -71718.524 107953.076 -71888.355 107524.817 -72278.642 107450 -72437.954 107375.183 -72278.642 106946.924 -71888.355 106536.89 -71718.524 106307 -71839.845 106053 -71839.845 105823.11 -71718.524 105413.076 -71888.355 104984.817 -72278.642 104910 -72437.954 104835.183 -72278.642 104406.924 -71888.355 103996.89 -71718.524 103767 -71839.845 103513 -71839.845 103283.11 -71718.524 102873.076 -71888.355 102444.817 -72278.642 102198.514 -72803.108 101710 -72803.108 101710 -66695.952 101950.104 -66994.5 102443.181 -67264.367 102525.961 -67281.904 102748 -67159.915 102748 -65667 103002 -65667 103002 -67159.915 103224.039 -67281.904 103306.819 -67264.367 103799.896 -66994.5 104152.166 -66556.483 104310 -66017 104310 -65667 103002 -65667 102748 -65667 102728 -65667 102728 -65413 102748 -65413 102748 -63920.085 103002 -63920.085 103002 -65413 104310 -65413 104310 -65063 104276.551 -64948.667 104540 -64948.667 104540 -66131.332 104623.26 -66549.908 104940.423 -67024.576 105415.091 -67341.74 105975 -67453.113 106534.908 -67341.74 107009.576 -67024.577 107326.74 -66549.909 107370.755 -66328.632 107545.034 -66749.38 108145.62 -67349.966 108930.322 -67675 109779.678 -67675 110564.38 -67349.966 111164.966 -66749.38 111490 -65964.678 111490 -65115.322 111402.3 -64903.593 112890 -64903.593 112890 -66176.406 112970.359 -66580.399 113276.471 -67038.528 113734.6 -67344.641 114275 -67452.133 114815.399 -67344.641 115273.528 -67038.529 115579.641 -66580.4 115660 -66176.407 115660 -64903.593 115579.641 -64499.6 115273.529 -64041.471 114815.4 -63735.359 114275 -63627.867 113734.601 -63735.359 113276.472 -64041.471 112970.359 -64499.6 112890 -64903.593 111402.3 -64903.593 111164.966 -64330.62 110564.38 -63730.034 109779.678 -63405 108930.322 -63405 108145.62 -63730.034 107545.034 -64330.62 107370.755 -64751.368 107326.74 -64530.091 107009.577 -64055.423 106534.909 -63738.26 105975 -63626.887 105415.092 -63738.26 104940.424 -64055.423 104623.26 -64530.091 104540 -64948.667 104276.551 -64948.667 104152.166 -64523.517 103799.896 -64085.5 103306.819 -63815.633 103224.039 -63798.096 103002 -63920.085 102748 -63920.085 102525.961 -63798.096 102443.181 -63815.633 101950.104 -64085.5 101710 -64384.048 101710 -58276.892 102198.514 -58276.892 102444.817 -58801.358 102873.076 -59191.645 103283.11 -59361.476 103513 -59240.155 103513 -58047 103767 -58047 103767 -59240.155 103996.89 -59361.476 104406.924 -59191.645 104835.183 -58801.358 104910 -58642.046 104984.817 -58801.358 105413.076 -59191.645 105823.11 -59361.476 106053 -59240.155 106053 -58047 106307 -58047 106307 -59240.155 106536.89 -59361.476 106946.924 -59191.645 107375.183 -58801.358 107450 -58642.046 107524.817 -58801.358 107953.076 -59191.645 108363.11 -59361.476 108593 -59240.155 108593 -58047 108847 -58047 108847 -59240.155 109076.89 -59361.476 109486.924 -59191.645 109915.183 -58801.358 109990 -58642.046 110064.817 -58801.358 110493.076 -59191.645 110903.11 -59361.476 111133 -59240.155 111133 -58047 111387 -58047 111387 -59240.155 111616.89 -59361.476 112026.924 -59191.645 112455.183 -58801.358 112530 -58642.046 112604.817 -58801.358 113033.076 -59191.645 113443.11 -59361.476 113673 -59240.155 113673 -58047 111387 -58047 111133 -58047 108847 -58047 108593 -58047 106307 -58047 106053 -58047 103767 -58047 103513 -58047 102319.181 -58047 102198.514 -58276.892 101710 -58276.892 101710 -56710 102805.433 -56710 102444.817 -57038.642" fill="none" stroke-width="254"/><use xlink:href="#QpnYWkz8AMv3c6k1full_pad-15" x="116340" y="-73160"/><use xlink:href="#QpnYWkz8AMv3c6k1full_pad-15" x="113800" y="-73160"/><use xlink:href="#QpnYWkz8AMv3c6k1full_pad-15" x="111260" y="-73160"/><use xlink:href="#QpnYWkz8AMv3c6k1full_pad-15" x="108720" y="-73160"/><use xlink:href="#QpnYWkz8AMv3c6k1full_pad-15" x="106180" y="-73160"/><use xlink:href="#QpnYWkz8AMv3c6k1full_pad-15" x="103640" y="-73160"/><use xlink:href="#QpnYWkz8AMv3c6k1full_pad-15" x="116340" y="-57920"/><use xlink:href="#QpnYWkz8AMv3c6k1full_pad-15" x="113800" y="-57920"/><use xlink:href="#QpnYWkz8AMv3c6k1full_pad-15" x="111260" y="-57920"/><use xlink:href="#QpnYWkz8AMv3c6k1full_pad-15" x="108720" y="-57920"/><use xlink:href="#QpnYWkz8AMv3c6k1full_pad-15" x="106180" y="-57920"/><use xlink:href="#QpnYWkz8AMv3c6k1full_pad-15" x="103640" y="-57920"/><use xlink:href="#QpnYWkz8AMv3c6k1full_pad-16" x="102875" y="-65540"/><use xlink:href="#QpnYWkz8AMv3c6k1full_pad-17" x="105975" y="-65540"/><use xlink:href="#QpnYWkz8AMv3c6k1full_pad-18" x="114275" y="-65540"/><use xlink:href="#QpnYWkz8AMv3c6k1full_pad-15" x="109355" y="-65540"/></g><g id="gAYfSrfFCTVOtq3IzP4__bottom_soldermask"><path d="M 116512.507 -72292.733 116678.392 -72343.053 116831.267 -72424.766 116965.265 -72534.735 117075.234 -72668.733 117156.947 -72821.608 117207.267 -72987.493 117224.258 -73160 117207.267 -73332.507 117156.947 -73498.392 117075.234 -73651.267 116965.265 -73785.265 116831.267 -73895.234 116678.392 -73976.947 116512.507 -74027.267 116383.232 -74040 116296.768 -74040 116167.493 -74027.267 116001.608 -73976.947 115848.733 -73895.234 115714.735 -73785.265 115604.766 -73651.267 115523.053 -73498.392 115472.733 -73332.507 115455.742 -73160 115472.733 -72987.493 115523.053 -72821.608 115604.766 -72668.733 115714.735 -72534.735 115848.733 -72424.766 116001.608 -72343.053 116167.493 -72292.733 116296.768 -72280 116383.232 -72280 116512.507 -72292.733 116512.507 -72292.733"/><path d="M 113972.507 -72292.733 114138.392 -72343.053 114291.267 -72424.766 114425.265 -72534.735 114535.234 -72668.733 114616.947 -72821.608 114667.267 -72987.493 114684.258 -73160 114667.267 -73332.507 114616.947 -73498.392 114535.234 -73651.267 114425.265 -73785.265 114291.267 -73895.234 114138.392 -73976.947 113972.507 -74027.267 113843.232 -74040 113756.768 -74040 113627.493 -74027.267 113461.608 -73976.947 113308.733 -73895.234 113174.735 -73785.265 113064.766 -73651.267 112983.053 -73498.392 112932.733 -73332.507 112915.742 -73160 112932.733 -72987.493 112983.053 -72821.608 113064.766 -72668.733 113174.735 -72534.735 113308.733 -72424.766 113461.608 -72343.053 113627.493 -72292.733 113756.768 -72280 113843.232 -72280 113972.507 -72292.733 113972.507 -72292.733"/><path d="M 111432.507 -72292.733 111598.392 -72343.053 111751.267 -72424.766 111885.265 -72534.735 111995.234 -72668.733 112076.947 -72821.608 112127.267 -72987.493 112144.258 -73160 112127.267 -73332.507 112076.947 -73498.392 111995.234 -73651.267 111885.265 -73785.265 111751.267 -73895.234 111598.392 -73976.947 111432.507 -74027.267 111303.232 -74040 111216.768 -74040 111087.493 -74027.267 110921.608 -73976.947 110768.733 -73895.234 110634.735 -73785.265 110524.766 -73651.267 110443.053 -73498.392 110392.733 -73332.507 110375.742 -73160 110392.733 -72987.493 110443.053 -72821.608 110524.766 -72668.733 110634.735 -72534.735 110768.733 -72424.766 110921.608 -72343.053 111087.493 -72292.733 111216.768 -72280 111303.232 -72280 111432.507 -72292.733 111432.507 -72292.733"/><path d="M 108892.507 -72292.733 109058.392 -72343.053 109211.267 -72424.766 109345.265 -72534.735 109455.234 -72668.733 109536.947 -72821.608 109587.267 -72987.493 109604.258 -73160 109587.267 -73332.507 109536.947 -73498.392 109455.234 -73651.267 109345.265 -73785.265 109211.267 -73895.234 109058.392 -73976.947 108892.507 -74027.267 108763.232 -74040 108676.768 -74040 108547.493 -74027.267 108381.608 -73976.947 108228.733 -73895.234 108094.735 -73785.265 107984.766 -73651.267 107903.053 -73498.392 107852.733 -73332.507 107835.742 -73160 107852.733 -72987.493 107903.053 -72821.608 107984.766 -72668.733 108094.735 -72534.735 108228.733 -72424.766 108381.608 -72343.053 108547.493 -72292.733 108676.768 -72280 108763.232 -72280 108892.507 -72292.733 108892.507 -72292.733"/><path d="M 106352.507 -72292.733 106518.392 -72343.053 106671.267 -72424.766 106805.265 -72534.735 106915.234 -72668.733 106996.947 -72821.608 107047.267 -72987.493 107064.258 -73160 107047.267 -73332.507 106996.947 -73498.392 106915.234 -73651.267 106805.265 -73785.265 106671.267 -73895.234 106518.392 -73976.947 106352.507 -74027.267 106223.232 -74040 106136.768 -74040 106007.493 -74027.267 105841.608 -73976.947 105688.733 -73895.234 105554.735 -73785.265 105444.766 -73651.267 105363.053 -73498.392 105312.733 -73332.507 105295.742 -73160 105312.733 -72987.493 105363.053 -72821.608 105444.766 -72668.733 105554.735 -72534.735 105688.733 -72424.766 105841.608 -72343.053 106007.493 -72292.733 106136.768 -72280 106223.232 -72280 106352.507 -72292.733 106352.507 -72292.733"/><path d="M 103812.507 -72292.733 103978.392 -72343.053 104131.267 -72424.766 104265.265 -72534.735 104375.234 -72668.733 104456.947 -72821.608 104507.267 -72987.493 104524.258 -73160 104507.267 -73332.507 104456.947 -73498.392 104375.234 -73651.267 104265.265 -73785.265 104131.267 -73895.234 103978.392 -73976.947 103812.507 -74027.267 103683.232 -74040 103596.768 -74040 103467.493 -74027.267 103301.608 -73976.947 103148.733 -73895.234 103014.735 -73785.265 102904.766 -73651.267 102823.053 -73498.392 102772.733 -73332.507 102755.742 -73160 102772.733 -72987.493 102823.053 -72821.608 102904.766 -72668.733 103014.735 -72534.735 103148.733 -72424.766 103301.608 -72343.053 103467.493 -72292.733 103596.768 -72280 103683.232 -72280 103812.507 -72292.733 103812.507 -72292.733"/><path d="M 109801.281 -64068.796 109801.282 -64068.796 109801.285 -64068.797 110079.727 -64184.132 110079.729 -64184.133 110282.275 -64319.47 110330.318 -64351.571 110543.429 -64564.682 110543.431 -64564.685 110681.177 -64770.836 110710.868 -64815.273 110826.203 -65093.715 110826.204 -65093.718 110826.204 -65093.719 110885 -65389.306 110885 -65690.694 110826.204 -65986.281 110826.203 -65986.285 110710.868 -66264.727 110710.867 -66264.729 110660.614 -66339.938 110543.429 -66515.318 110330.318 -66728.429 110330.315 -66728.431 110079.729 -66895.867 110079.728 -66895.868 110079.727 -66895.868 109801.285 -67011.203 109801.282 -67011.204 109801.281 -67011.204 109505.694 -67070 109204.306 -67070 108908.719 -67011.204 108908.718 -67011.204 108908.715 -67011.203 108630.273 -66895.868 108630.272 -66895.868 108630.271 -66895.867 108379.685 -66728.431 108379.682 -66728.429 108166.571 -66515.318 108049.386 -66339.938 107999.133 -66264.729 107999.132 -66264.727 107883.797 -65986.285 107883.796 -65986.281 107825 -65690.694 107825 -65389.306 107883.796 -65093.719 107883.796 -65093.718 107883.797 -65093.715 107999.132 -64815.273 108028.824 -64770.836 108166.569 -64564.685 108166.571 -64564.682 108379.682 -64351.571 108427.725 -64319.47 108630.271 -64184.133 108630.273 -64184.132 108908.715 -64068.797 108908.718 -64068.796 108908.719 -64068.796 109204.306 -64010 109505.694 -64010 109801.281 -64068.796 109801.281 -64068.796"/><path d="M 106137.708 -64272.009 106294.164 -64319.47 106422.966 -64388.316 106438.354 -64396.541 106564.739 -64500.261 106650.332 -64604.558 106668.459 -64626.646 106745.53 -64770.836 106792.991 -64927.292 106805 -65049.224 106805 -66030.776 106792.991 -66152.708 106745.53 -66309.164 106721.91 -66353.354 106668.459 -66453.354 106564.741 -66579.735 106564.739 -66579.736 106564.738 -66579.738 106438.353 -66683.459 106438.351 -66683.46 106438.35 -66683.461 106392.457 -66707.991 106294.163 -66760.53 106137.707 -66807.991 105975 -66824.016 105812.292 -66807.991 105655.836 -66760.53 105511.646 -66683.459 105483.706 -66660.529 105385.265 -66579.741 105385.264 -66579.739 105385.262 -66579.738 105281.541 -66453.353 105204.47 -66309.163 105157.009 -66152.707 105145 -66030.775 105145 -65049.224 105157.01 -64927.292 105204.471 -64770.836 105281.542 -64626.646 105299.669 -64604.558 105385.262 -64500.261 105511.647 -64396.541 105527.035 -64388.316 105655.837 -64319.47 105812.293 -64272.009 105975 -64255.984 106137.708 -64272.009 106137.708 -64272.009"/><path d="M 114427.907 -64271.286 114574.937 -64315.887 114710.442 -64388.316 114829.212 -64485.788 114926.684 -64604.558 114999.113 -64740.063 115043.714 -64887.093 115055 -65001.682 115055 -66078.318 115043.714 -66192.907 114999.113 -66339.937 114926.684 -66475.442 114829.212 -66594.212 114710.441 -66691.684 114574.936 -66764.113 114427.906 -66808.714 114275 -66823.774 114122.093 -66808.714 113975.063 -66764.113 113839.558 -66691.684 113720.788 -66594.212 113623.316 -66475.441 113550.887 -66339.936 113506.286 -66192.906 113495 -66078.317 113495.001 -65001.682 113506.287 -64887.093 113550.888 -64740.063 113623.317 -64604.558 113720.789 -64485.788 113839.559 -64388.316 113975.064 -64315.887 114122.094 -64271.286 114275 -64256.226 114427.907 -64271.286 114427.907 -64271.286"/><path d="M 103037.708 -64372.009 103194.164 -64419.47 103338.354 -64496.541 103464.739 -64600.261 103568.459 -64726.646 103645.53 -64870.836 103692.991 -65027.292 103705 -65149.224 103705 -65930.776 103692.991 -66052.708 103645.53 -66209.164 103575.63 -66339.938 103568.459 -66353.354 103464.741 -66479.735 103464.739 -66479.736 103464.738 -66479.738 103338.353 -66583.459 103338.351 -66583.46 103338.35 -66583.461 103318.236 -66594.212 103194.163 -66660.53 103037.707 -66707.991 102875 -66724.016 102712.292 -66707.991 102555.836 -66660.53 102411.646 -66583.459 102328.616 -66515.318 102285.265 -66479.741 102285.264 -66479.739 102285.262 -66479.738 102181.541 -66353.353 102174.371 -66339.938 102134.17 -66264.727 102104.47 -66209.163 102057.009 -66052.707 102045 -65930.775 102045 -65149.224 102057.009 -65027.292 102104.471 -64870.836 102181.542 -64726.646 102285.262 -64600.261 102411.647 -64496.541 102555.837 -64419.47 102712.293 -64372.009 102875 -64355.984 103037.708 -64372.009 103037.708 -64372.009"/><path d="M 111432.507 -57052.733 111598.392 -57103.053 111751.267 -57184.766 111885.265 -57294.735 111995.234 -57428.733 112076.947 -57581.608 112127.267 -57747.493 112144.258 -57920 112127.267 -58092.507 112076.947 -58258.392 111995.234 -58411.267 111885.265 -58545.265 111751.267 -58655.234 111598.392 -58736.947 111432.507 -58787.267 111303.232 -58800 111216.768 -58800 111087.493 -58787.267 110921.608 -58736.947 110768.733 -58655.234 110634.735 -58545.265 110524.766 -58411.267 110443.053 -58258.392 110392.733 -58092.507 110375.742 -57920 110392.733 -57747.493 110443.053 -57581.608 110524.766 -57428.733 110634.735 -57294.735 110768.733 -57184.766 110921.608 -57103.053 111087.493 -57052.733 111216.768 -57040 111303.232 -57040 111432.507 -57052.733 111432.507 -57052.733"/><path d="M 108892.507 -57052.733 109058.392 -57103.053 109211.267 -57184.766 109345.265 -57294.735 109455.234 -57428.733 109536.947 -57581.608 109587.267 -57747.493 109604.258 -57920 109587.267 -58092.507 109536.947 -58258.392 109455.234 -58411.267 109345.265 -58545.265 109211.267 -58655.234 109058.392 -58736.947 108892.507 -58787.267 108763.232 -58800 108676.768 -58800 108547.493 -58787.267 108381.608 -58736.947 108228.733 -58655.234 108094.735 -58545.265 107984.766 -58411.267 107903.053 -58258.392 107852.733 -58092.507 107835.742 -57920 107852.733 -57747.493 107903.053 -57581.608 107984.766 -57428.733 108094.735 -57294.735 108228.733 -57184.766 108381.608 -57103.053 108547.493 -57052.733 108676.768 -57040 108763.232 -57040 108892.507 -57052.733 108892.507 -57052.733"/><path d="M 106352.507 -57052.733 106518.392 -57103.053 106671.267 -57184.766 106805.265 -57294.735 106915.234 -57428.733 106996.947 -57581.608 107047.267 -57747.493 107064.258 -57920 107047.267 -58092.507 106996.947 -58258.392 106915.234 -58411.267 106805.265 -58545.265 106671.267 -58655.234 106518.392 -58736.947 106352.507 -58787.267 106223.232 -58800 106136.768 -58800 106007.493 -58787.267 105841.608 -58736.947 105688.733 -58655.234 105554.735 -58545.265 105444.766 -58411.267 105363.053 -58258.392 105312.733 -58092.507 105295.742 -57920 105312.733 -57747.493 105363.053 -57581.608 105444.766 -57428.733 105554.735 -57294.735 105688.733 -57184.766 105841.608 -57103.053 106007.493 -57052.733 106136.768 -57040 106223.232 -57040 106352.507 -57052.733 106352.507 -57052.733"/><path d="M 103812.507 -57052.733 103978.392 -57103.053 104131.267 -57184.766 104265.265 -57294.735 104375.234 -57428.733 104456.947 -57581.608 104507.267 -57747.493 104524.258 -57920 104507.267 -58092.507 104456.947 -58258.392 104375.234 -58411.267 104265.265 -58545.265 104131.267 -58655.234 103978.392 -58736.947 103812.507 -58787.267 103683.232 -58800 103596.768 -58800 103467.493 -58787.267 103301.608 -58736.947 103148.733 -58655.234 103014.735 -58545.265 102904.766 -58411.267 102823.053 -58258.392 102772.733 -58092.507 102755.742 -57920 102772.733 -57747.493 102823.053 -57581.608 102904.766 -57428.733 103014.735 -57294.735 103148.733 -57184.766 103301.608 -57103.053 103467.493 -57052.733 103596.768 -57040 103683.232 -57040 103812.507 -57052.733 103812.507 -57052.733"/><path d="M 113972.507 -57052.733 114138.392 -57103.053 114291.267 -57184.766 114425.265 -57294.735 114535.234 -57428.733 114616.947 -57581.608 114667.267 -57747.493 114684.258 -57920 114667.267 -58092.507 114616.947 -58258.392 114535.234 -58411.267 114425.265 -58545.265 114291.267 -58655.234 114138.392 -58736.947 113972.507 -58787.267 113843.232 -58800 113756.768 -58800 113627.493 -58787.267 113461.608 -58736.947 113308.733 -58655.234 113174.735 -58545.265 113064.766 -58411.267 112983.053 -58258.392 112932.733 -58092.507 112915.742 -57920 112932.733 -57747.493 112983.053 -57581.608 113064.766 -57428.733 113174.735 -57294.735 113308.733 -57184.766 113461.608 -57103.053 113627.493 -57052.733 113756.768 -57040 113843.232 -57040 113972.507 -57052.733 113972.507 -57052.733"/><path d="M 116512.507 -57052.733 116678.392 -57103.053 116831.267 -57184.766 116965.265 -57294.735 117075.234 -57428.733 117156.947 -57581.608 117207.267 -57747.493 117224.258 -57920 117207.267 -58092.507 117156.947 -58258.392 117075.234 -58411.267 116965.265 -58545.265 116831.267 -58655.234 116678.392 -58736.947 116512.507 -58787.267 116383.232 -58800 116296.768 -58800 116167.493 -58787.267 116001.608 -58736.947 115848.733 -58655.234 115714.735 -58545.265 115604.766 -58411.267 115523.053 -58258.392 115472.733 -58092.507 115455.742 -57920 115472.733 -57747.493 115523.053 -57581.608 115604.766 -57428.733 115714.735 -57294.735 115848.733 -57184.766 116001.608 -57103.053 116167.493 -57052.733 116296.768 -57040 116383.232 -57040 116512.507 -57052.733 116512.507 -57052.733"/></g><g id="gAYfSrfFCTVOtq3IzP4__bottom_drill1"><use xlink:href="#hTYSWKC-w6TWIHrfYaQX_pad-3" x="103640" y="-73160"/><use xlink:href="#hTYSWKC-w6TWIHrfYaQX_pad-3" x="106180" y="-73160"/><use xlink:href="#hTYSWKC-w6TWIHrfYaQX_pad-3" x="108720" y="-73160"/><use xlink:href="#hTYSWKC-w6TWIHrfYaQX_pad-3" x="111260" y="-73160"/><use xlink:href="#hTYSWKC-w6TWIHrfYaQX_pad-3" x="113800" y="-73160"/><use xlink:href="#hTYSWKC-w6TWIHrfYaQX_pad-3" x="116340" y="-73160"/><use xlink:href="#hTYSWKC-w6TWIHrfYaQX_pad-3" x="103640" y="-57920"/><use xlink:href="#hTYSWKC-w6TWIHrfYaQX_pad-3" x="106180" y="-57920"/><use xlink:href="#hTYSWKC-w6TWIHrfYaQX_pad-3" x="108720" y="-57920"/><use xlink:href="#hTYSWKC-w6TWIHrfYaQX_pad-3" x="111260" y="-57920"/><use xlink:href="#hTYSWKC-w6TWIHrfYaQX_pad-3" x="113800" y="-57920"/><use xlink:href="#hTYSWKC-w6TWIHrfYaQX_pad-3" x="116340" y="-57920"/><use xlink:href="#hTYSWKC-w6TWIHrfYaQX_pad-4" x="109355" y="-65540"/><path d="M 114275 -65040 114275 -66040" fill="none" stroke-width="500"/><path d="M 102875 -65190 102875 -65890 M 105975 -65090 105975 -65990" fill="none" stroke-width="600"/></g><clipPath id="gAYfSrfFCTVOtq3IzP4__bottom_outline"><path d="M 101000 -56000 101000 -75000 121000 -75000 121000 -56000 101000 -56000" fill="none" stroke-width="150"/></clipPath><mask id="gAYfSrfFCTVOtq3IzP4__bottom_mech-mask"><g fill="#000" stroke="#000"><rect x="101000" y="-75000" width="20000" height="19000" fill="#fff"/><use xlink:href="#gAYfSrfFCTVOtq3IzP4__bottom_drill1"/></g></mask><mask id="gAYfSrfFCTVOtq3IzP4__bottom_cf-mask"><g fill="#fff" stroke="#fff"><use xlink:href="#gAYfSrfFCTVOtq3IzP4__bottom_soldermask"/></g></mask><mask id="gAYfSrfFCTVOtq3IzP4__bottom_sm-mask"><g fill="#000" stroke="#000"><rect x="101000" y="-75000" width="20000" height="19000" fill="#fff"/><use xlink:href="#gAYfSrfFCTVOtq3IzP4__bottom_soldermask"/></g></mask></defs><g transform="translate(0,-131000) scale(1,-1)"><g mask="url(#gAYfSrfFCTVOtq3IzP4__bottom_mech-mask)" clip-path="url(#gAYfSrfFCTVOtq3IzP4__bottom_outline)" transform="translate(222000,0) scale(-1,1)"><rect x="101000" y="-75000" width="20000" height="19000" fill="currentColor" class="gAYfSrfFCTVOtq3IzP4__fr4"/><use xlink:href="#gAYfSrfFCTVOtq3IzP4__bottom_copper" fill="currentColor" stroke="currentColor" class="gAYfSrfFCTVOtq3IzP4__cu"/><use xlink:href="#gAYfSrfFCTVOtq3IzP4__bottom_copper" fill="currentColor" stroke="currentColor" class="gAYfSrfFCTVOtq3IzP4__cf" mask="url(#gAYfSrfFCTVOtq3IzP4__bottom_cf-mask)"/><g mask="url(#gAYfSrfFCTVOtq3IzP4__bottom_sm-mask)"><rect x="101000" y="-75000" width="20000" height="19000" fill="currentColor" class="gAYfSrfFCTVOtq3IzP4__sm"/></g></g></g></svg>