<?xml version="1.0" encoding="utf-8"?>
<!-- Generator: Adobe Illustrator 27.6.0, SVG Export Plug-In . SVG Version: 6.00 Build 0)  -->
<svg version="1.1"
	 id="svg16908" xmlns:svg="http://www.w3.org/2000/svg" xmlns:rdf="http://www.w3.org/1999/02/22-rdf-syntax-ns#" xmlns:dc="http://purl.org/dc/elements/1.1/" xmlns:sodipodi="http://sodipodi.sourceforge.net/DTD/sodipodi-0.dtd" xmlns:cc="http://creativecommons.org/ns#" xmlns:inkscape="http://www.inkscape.org/namespaces/inkscape"
	 xmlns="http://www.w3.org/2000/svg" xmlns:xlink="http://www.w3.org/1999/xlink" x="0px" y="0px" width="79.37008px"
	 height="79.37339px" viewBox="0 0 79.37008 79.37339" style="enable-background:new 0 0 79.37008 79.37339;" xml:space="preserve">
<sodipodi:namedview  bordercolor="#666666" borderopacity="1.0" fit-margin-bottom="0" fit-margin-left="0" fit-margin-right="0" fit-margin-top="0" id="base" inkscape:current-layer="layer1" inkscape:cx="-76.991733" inkscape:cy="7.9974093" inkscape:document-units="mm" inkscape:pageopacity="0.0" inkscape:pageshadow="2" inkscape:window-height="1422" inkscape:window-maximized="0" inkscape:window-width="2560" inkscape:window-x="0" inkscape:window-y="18" inkscape:zoom="3.959798" pagecolor="#ffffff" showgrid="false" units="px">
	</sodipodi:namedview>
<path style="opacity:0.6;fill:#1A1A1A;enable-background:new    ;" d="M39.71843,0.99288v2.99105
	c1.88389,0.00215,3.73487,0.15322,5.53926,0.43952c0.68266,0.10862,1.26155,0.53088,1.65567,1.09845
	c3.26837,4.70886,8.99133,7.48447,14.71016,7.13271c0.77627-0.04748,1.55559,0.16185,2.12927,0.68661
	c2.65261,2.42853,4.93932,5.25052,6.75991,8.37826c0.3969,0.68194,0.42973,1.50092,0.20466,2.25732
	c-1.66053,5.57928-0.17975,11.89372,3.80698,16.14437c0.48017,0.51181,0.77357,1.18153,0.72798,1.88218
	c-0.24062,3.69961-1.04072,7.24457-2.32385,10.5489c-0.25861,0.66575-0.8224,1.15024-1.49023,1.40416
	c-5.59898,2.12964-9.76472,7.37622-10.56536,13.31372c-0.09541,0.70856-0.43898,1.3682-1.0284,1.77247
	c-2.86867,1.96886-6.03849,3.52554-9.42483,4.59269c-0.77258,0.24313-1.59984,0.08092-2.29795-0.32946
	c-5.12034-3.01191-11.75319-3.01191-16.87351,0c-0.69814,0.41039-1.52538,0.5726-2.29796,0.32946
	c-3.38607-1.06644-6.55525-2.62347-9.42132-4.59196c-0.58932-0.40499-0.93282-1.06464-1.02876-1.77319
	c-0.80351-5.9375-4.96936-11.18445-10.56527-13.31372c-0.66755-0.25393-1.23107-0.73806-1.48951-1.40381
	c-1.28331-3.30433-2.08378-6.84966-2.32701-10.54927c-0.04613-0.70065,0.247-1.37037,0.72717-1.88218
	c3.987-4.25063,5.47066-10.56509,3.8076-16.14437c-0.22543-0.7564-0.19279-1.57574,0.2042-2.25733
	c1.82041-3.12737,4.10695-5.94973,6.75927-8.37754c0.57395-0.52549,1.35363-0.73482,2.13045-0.68733
	c5.72108,0.35176,11.44143-2.42384,14.70953-7.13271c0.39403-0.56756,0.97319-0.98983,1.65585-1.09808
	c1.8061-0.28666,3.65511-0.43773,5.53917-0.43988V0.99288C18.29693,1.01086,0.99217,18.32919,0.99217,39.68488
	c0,21.37008,17.32292,38.69633,38.69283,38.69633c21.37008,0,38.693-17.32624,38.693-38.69633
	C78.37799,18.32956,61.07296,1.01086,39.71843,0.99288z"/>
<g id="path109720_24_" inkscape:connector-curvature="0" style="opacity:0.33;enable-background:new    ;">
	<g>
		<path d="M39.68492,5.08769c1.79738,0,3.61405,0.14373,5.39951,0.42718c0.46822,0.07434,0.77817,0.43123,0.92125,0.63736
			c3.27008,4.71084,8.88088,7.63726,14.64282,7.63726c0.34712,0,0.6952-0.01059,1.04276-0.03198
			c0.04874-0.00299,0.09748-0.00451,0.14615-0.00451c0.46978,0,0.88506,0.1433,1.1693,0.4035
			c2.59245,2.37324,4.79654,5.10482,6.55103,8.11889c0.29548,0.5076,0.18989,1.08634,0.10064,1.38618
			c-1.76875,5.94242-0.17513,12.69984,4.06,17.21533c0.29715,0.31681,0.45438,0.70123,0.43137,1.0547
			c-0.22935,3.5257-0.98679,6.96436-2.25125,10.22046c-0.12952,0.33348-0.44045,0.61475-0.85307,0.77169
			c-5.98885,2.27765-10.41161,7.85101-11.26751,14.19878c-0.0591,0.43829-0.26272,0.80614-0.55866,1.00923
			c-2.81121,1.92944-5.88354,3.42651-9.13165,4.44965c-0.13283,0.04184-0.27404,0.06305-0.41971,0.06305
			c-0.32108,0-0.66204-0.10072-0.98602-0.29128c-2.68195-1.57751-5.79303-2.41132-8.99691-2.41132
			c-3.20388,0-6.31497,0.83382-8.99694,2.41132c-0.32399,0.19056-0.66497,0.29128-0.98603,0.29128
			c-0.14567,0-0.2869-0.02121-0.41975-0.06306c-3.24889-1.02338-6.31993-2.5202-9.12779-4.4489
			c-0.29612-0.20342-0.50001-0.5717-0.55939-1.01042C18.73609,60.77457,14.3134,55.2014,8.32775,52.92377
			c-0.41233-0.1569-0.72305-0.43799-0.85245-0.77122c-1.26387-3.25438-2.02237-6.69346-2.25445-10.22176
			c-0.02323-0.35324,0.13371-0.73735,0.43059-1.05386c4.23753-4.51764,5.8314-11.27526,4.06054-17.21585
			c-0.08935-0.29976-0.19516-0.87841,0.10027-1.38589c1.75441-3.01387,3.9583-5.74525,6.55047-8.11828
			c0.28452-0.26047,0.70016-0.40391,1.17035-0.40391c0.04865,0,0.09739,0.00152,0.14617,0.00452
			c0.34808,0.02139,0.69553,0.03197,1.04311,0.03197c5.7617,0,11.37214-2.92645,14.6419-7.6373
			c0.14302-0.20605,0.45288-0.5628,0.92134-0.63714C36.07275,5.23148,37.88936,5.08769,39.68492,5.08769 M39.68492,3.98277
			c-1.89591,0-3.75566,0.15273-5.5725,0.44101c-0.68265,0.10831-1.26178,0.53055-1.65589,1.09838
			c-3.08209,4.4405-8.34606,7.16241-13.7342,7.16241c-0.32499,0-0.64985-0.00987-0.97531-0.02989
			c-0.07135-0.00439-0.14274-0.0066-0.21397-0.0066c-0.70429,0-1.39513,0.21662-1.91644,0.69385
			c-2.65236,2.42813-4.93883,5.25005-6.7593,8.37741c-0.39698,0.68194-0.42964,1.50123-0.20422,2.25741
			c1.66305,5.57895,0.17947,11.89371-3.80756,16.14428c-0.4802,0.51193-0.77331,1.18193-0.72724,1.8823
			c0.24333,3.69952,1.04374,7.24491,2.32701,10.54922c0.25855,0.66573,0.82199,1.14993,1.48949,1.40391
			c5.59601,2.12938,9.76181,7.37626,10.56531,13.31379c0.09588,0.70846,0.43945,1.36821,1.02874,1.77299
			c2.86605,1.96866,6.03527,3.52541,9.42142,4.59203c0.24699,0.07778,0.49956,0.11412,0.75171,0.11412
			c0.53656,0,1.07126-0.16447,1.5462-0.44382c2.56016-1.50586,5.49848-2.2588,8.43678-2.2588
			c2.93829,0,5.87657,0.75293,8.43673,2.25878c0.47492,0.27936,1.00962,0.44383,1.5462,0.44383
			c0.25216,0,0.50473-0.03633,0.7517-0.11412c3.38645-1.0667,6.5562-2.62361,9.42492-4.59251
			c0.58935-0.40449,0.93289-1.06419,1.02842-1.77258c0.80058-5.93749,4.96635-11.18433,10.56528-13.31369
			c0.66784-0.254,1.23161-0.73838,1.49027-1.40444c1.28312-3.30414,2.08322-6.84939,2.32387-10.54872
			c0.04559-0.70045-0.24786-1.37034-0.72805-1.88231c-3.98664-4.25056-5.46748-10.5653-3.80692-16.14424
			c0.2251-0.75619,0.1922-1.57538-0.20472-2.25725c-1.82059-3.1276-4.10728-5.94973-6.75987-8.37801
			c-0.52101-0.47694-1.21148-0.69345-1.91539-0.69345c-0.07124,0-0.14261,0.00222-0.21397,0.00661
			c-0.32495,0.01999-0.65039,0.02989-0.97492,0.02989c-5.3867,0-10.65252-2.72161-13.73515-7.16241
			c-0.39416-0.56783-0.973-0.99016-1.65567-1.09854C43.44247,4.13544,41.58049,3.98277,39.68492,3.98277L39.68492,3.98277z"/>
	</g>
</g>
<g id="path109720_15_" inkscape:connector-curvature="0" style="opacity:0.1;">
	<path style="fill:#FFFFFF;" d="M39.68502,8.78283c1.09978,0,2.21292,0.06043,3.30855,0.17984
		c1.11562,0.12157,2.19106,0.74525,3.02818,1.75629c3.02652,3.65609,7.65943,5.83861,12.39301,5.83861
		c0.12596,0,0.25267-0.00144,0.37875-0.00467l0.07646-0.00107c0.82478,0,1.61373,0.32479,2.22161,0.9143
		c1.80953,1.75413,3.3979,3.72192,4.72102,5.84902c0.45941,0.73841,0.60155,1.63185,0.39,2.45154
		c-1.28726,4.98761-0.00963,10.51689,3.33427,14.43052c0.56464,0.66073,0.8277,1.51315,0.74069,2.39975
		c-0.22958,2.34005-0.72604,4.64593-1.4756,6.85325c-0.33127,0.97544-1.08907,1.77967-2.13367,2.26416
		c-4.59912,2.13251-8.05113,6.54464-9.00892,11.51463c-0.18651,0.96788-0.72173,1.77571-1.50723,2.27387
		c-1.98761,1.26174-4.12141,2.29364-6.34222,3.06658c-0.34111,0.1187-0.69569,0.17876-1.05389,0.17876
		c-0.51731,0-1.03035-0.12876-1.48387-0.37263c-2.29216-1.23189-4.91567-1.88326-7.5869-1.88326
		c-2.67149,0-5.29521,0.65137-7.58743,1.88361c-0.4533,0.24349-0.96632,0.37227-1.48359,0.37227
		c-0.35829,0-0.71291-0.06007-1.05414-0.17876c-2.21996-0.77294-4.35234-1.80378-6.33808-3.06479
		c-0.78596-0.49923-1.32193-1.30778-1.50919-2.27674c-0.96015-4.96963-4.41205-9.3814-9.00842-11.51355
		c-1.04414-0.48449-1.80155-1.28836-2.13275-2.26344c-0.74964-2.2066-1.24692-4.51356-1.47803-6.85612
		c-0.08613-0.87293,0.18327-1.74694,0.73919-2.39723c3.34602-3.91506,4.62405-9.4447,3.3353-14.43123
		c-0.21182-0.81934-0.06982-1.71313,0.38967-2.45154c1.32266-2.1264,2.91073-4.09417,4.71988-5.84832
		c0.60846-0.58986,1.39805-0.91465,2.22337-0.91465l0.07652,0.00107c0.12637,0.00324,0.25253,0.00467,0.37881,0.00467
		c4.73358,0,9.36615-2.18287,12.3921-5.83861c0.83666-1.01105,1.91185-1.63437,3.0275-1.75593
		C37.47401,8.84361,38.58735,8.78283,39.68502,8.78283 M39.68502,7.6779c-1.15863,0-2.30215,0.06403-3.42863,0.18667
		c-1.49319,0.16257-2.80136,0.9927-3.75908,2.14978c-2.81028,3.39533-7.12885,5.43829-11.54093,5.43829
		c-0.11721,0-0.2343-0.00144-0.35162-0.00432c-0.03459-0.00072-0.0692-0.00144-0.1037-0.00144
		c-1.11893,0-2.18665,0.44528-2.99235,1.22614c-1.8648,1.80808-3.51027,3.84132-4.88914,6.058
		c-0.61621,0.99054-0.81312,2.1825-0.52118,3.31189c1.20123,4.64773,0.01454,9.78603-3.1055,13.43674
		c-0.76238,0.89199-1.11403,2.0559-0.99883,3.22376c0.24279,2.46089,0.76263,4.83978,1.53142,7.10286
		c0.44599,1.31318,1.45595,2.32674,2.71383,2.91049c4.29117,1.99043,7.49011,6.06988,8.38868,10.72083
		c0.23846,1.23405,0.94076,2.32602,2.00179,2.99968c2.0429,1.29736,4.24403,2.36702,6.5671,3.17558
		c0.46086,0.16042,0.94005,0.24027,1.41735,0.24027c0.69317,0,1.38242-0.16833,2.00667-0.50391
		c2.17257-1.16786,4.6186-1.75198,7.06435-1.75198c2.44575,0,4.89122,0.58375,7.06379,1.75161
		c0.62427,0.33557,1.31377,0.50427,2.00697,0.50427c0.47729,0,0.9563-0.07985,1.41717-0.24027
		c2.32399-0.8089,4.5262-1.87894,6.57109-3.177c1.06046-0.67296,1.76235-1.76421,2.00004-2.99788
		c0.89631-4.65095,4.09533-8.73039,8.38875-10.72118c1.25851-0.58375,2.26904-1.59767,2.71512-2.9112
		c0.76832-2.26271,1.28765-4.64052,1.52901-7.1007c0.11465-1.16858-0.23753-2.33286-1.00031-3.22556
		c-3.1194-3.6507-4.30392-8.78901-3.10445-13.43637c0.2915-1.12938,0.09436-2.32133-0.52171-3.31152
		c-1.37907-2.21703-3.0249-4.25063-4.89011-6.05872c-0.80522-0.78086-1.8724-1.22577-2.99067-1.22577
		c-0.03455,0-0.06908,0.00072-0.10372,0.00144c-0.117,0.00287-0.2346,0.00432-0.3515,0.00432
		c-4.41096,0-8.73086-2.04259-11.54188-5.43829c-0.95798-1.15707-2.26627-1.98756-3.75974-2.15013
		C41.98695,7.74156,40.84301,7.6779,39.68502,7.6779L39.68502,7.6779z"/>
</g>
<path id="path109722_3_" inkscape:connector-curvature="0" style="fill:#E3E3E3;" d="M41.08554,2.47277
	c0,0.77428-0.62972,1.39715-1.40054,1.39715c-0.77082,0-1.39711-0.62287-1.39711-1.39715c0-0.77425,0.62628-1.39714,1.39711-1.39714
	C40.45583,1.07563,41.08554,1.69851,41.08554,2.47277"/>
<path style="opacity:0.71;fill:#171717;enable-background:new    ;" d="M39.68507,8.78283
	c-1.09773,0-2.21102,0.06078-3.30911,0.18019c-1.11561,0.12157-2.19078,0.74489-3.02747,1.75593
	c-3.02594,3.65574-7.65846,5.83861-12.39206,5.83861c-0.12633,0-0.25249-0.00144-0.37883-0.00467l-0.07652-0.00107
	c-0.82527,0-1.61494,0.32479-2.22334,0.91465c-1.80915,1.75413-3.39719,3.72192-4.71991,5.84832
	c-0.45948,0.73841-0.60146,1.6322-0.38962,2.45154c1.28872,4.98654,0.01071,10.51617-3.33534,14.43122
	c-0.55589,0.6503-0.8253,1.52431-0.73922,2.39724c0.23116,2.34256,0.72842,4.64952,1.47808,6.85612
	c0.33115,0.97508,1.08855,1.77895,2.13269,2.26344c4.59637,2.13216,8.04835,6.54392,9.00842,11.51356
	c0.18731,0.96896,0.72322,1.77751,1.50919,2.27674c1.98576,1.26102,4.11819,2.29185,6.33811,3.06479
	c0.34124,0.1187,0.69588,0.17876,1.05412,0.17876c0.51731,0,1.03029-0.12875,1.48357-0.37227
	c2.2923-1.23225,4.91595-1.88361,7.58752-1.88361c2.67121,0,5.29468,0.65137,7.58689,1.88326
	c0.45346,0.24387,0.96654,0.37262,1.48383,0.37262c0.35825,0,0.71279-0.06006,1.05386-0.17876
	c2.2208-0.77294,4.35468-1.80486,6.34223-3.06658c0.78552-0.49815,1.32072-1.30598,1.50722-2.27387
	c0.95782-4.96999,4.4098-9.38212,9.00895-11.51463c1.04459-0.48449,1.80242-1.28872,2.13369-2.26416
	c0.74957-2.20732,1.246-4.51321,1.47556-6.85325c0.08705-0.8866-0.17605-1.73903-0.74065-2.39976
	c-3.3439-3.91362-4.62157-9.4429-3.33428-14.43052c0.21159-0.81971,0.06942-1.71313-0.38998-2.45154
	c-1.32315-2.12712-2.91146-4.09489-4.72109-5.84902c-0.60786-0.58951-1.3968-0.9143-2.22152-0.9143l-0.07652,0.00107
	c-0.12606,0.00324-0.25276,0.00467-0.37874,0.00467c-4.7336,0-9.36647-2.18251-12.39304-5.83861
	c-0.83706-1.01105-1.91249-1.63472-3.0281-1.75629C41.89796,8.84324,40.78486,8.78283,39.68507,8.78283L39.68507,8.78283z"/>
<path id="path109724_5_" inkscape:connector-curvature="0" style="fill:#E3E3E3;" d="M39.96414,39.68832h-0.55484
	c-0.61933,0-1.12141-0.50208-1.12141-1.12141v-27.9299c0-0.61933,0.50208-1.12141,1.12141-1.12141h0.55484
	c0.61933,0,1.12141,0.50208,1.12141,1.12141v27.9299C41.08554,39.18624,40.58348,39.68832,39.96414,39.68832z"/>
</svg>
