<?xml version="1.0" encoding="UTF-8" standalone="no"?>
<svg
   xmlns:dc="http://purl.org/dc/elements/1.1/"
   xmlns:cc="http://creativecommons.org/ns#"
   xmlns:rdf="http://www.w3.org/1999/02/22-rdf-syntax-ns#"
   xmlns:svg="http://www.w3.org/2000/svg"
   xmlns="http://www.w3.org/2000/svg"
   xmlns:sodipodi="http://sodipodi.sourceforge.net/DTD/sodipodi-0.dtd"
   xmlns:inkscape="http://www.inkscape.org/namespaces/inkscape"
   version="1.1"
   id="svg138"
   xml:space="preserve"
   width="14.379999mm"
   height="14.379999mm"
   viewBox="0 0 54.349602 54.349602"
   sodipodi:docname="rogan.1s.black.svg"
   inkscape:version="1.0.2 (e86c8708, 2021-01-15)"><metadata
     id="metadata144"><rdf:RDF><cc:Work
         rdf:about=""><dc:format>image/svg+xml</dc:format><dc:type
           rdf:resource="http://purl.org/dc/dcmitype/StillImage" /><dc:title></dc:title></cc:Work></rdf:RDF></metadata><defs
     id="defs142"><clipPath
       clipPathUnits="userSpaceOnUse"
       id="clipPath154"><path
         d="M 0,40.762 H 40.762 V 0 H 0 Z"
         id="path152" /></clipPath></defs><sodipodi:namedview
     pagecolor="#ffffff"
     bordercolor="#666666"
     borderopacity="1"
     objecttolerance="10"
     gridtolerance="10"
     guidetolerance="10"
     inkscape:pageopacity="0"
     inkscape:pageshadow="2"
     inkscape:window-width="737"
     inkscape:window-height="480"
     id="namedview140"
     showgrid="false"
     inkscape:document-units="mm"
     units="mm"
     inkscape:zoom="18.546594"
     inkscape:cx="27.174801"
     inkscape:cy="27.174801"
     inkscape:window-x="0"
     inkscape:window-y="23"
     inkscape:window-maximized="0"
     inkscape:current-layer="g146" /><g
     id="g146"
     inkscape:groupmode="layer"
     inkscape:label="rogan.1s.black"
     transform="matrix(1.3333333,0,0,-1.3333333,0,54.3496)"><g
       id="g148"><g
         id="g150"
         clip-path="url(#clipPath154)"><g
           id="g156"
           transform="translate(40.7622,20.3811)"><path
             d="m 0,0 c 0,-11.256 -9.125,-20.381 -20.381,-20.381 -11.256,0 -20.381,9.125 -20.381,20.381 0,11.256 9.125,20.381 20.381,20.381 C -9.125,20.381 0,11.256 0,0"
             style="fill:#565656;fill-opacity:1;fill-rule:nonzero;stroke:none"
             id="path158" /></g><g
           id="g160"
           transform="translate(38.2774,20.3811)"><path
             d="m 0,0 c 0,-9.884 -8.012,-17.896 -17.896,-17.896 -9.884,0 -17.897,8.012 -17.897,17.896 0,9.884 8.013,17.896 17.897,17.896 C -8.012,17.896 0,9.884 0,0"
             style="fill:#151515;fill-opacity:1;fill-rule:nonzero;stroke:none"
             id="path162" /></g><g
           id="g164"
           transform="translate(35.103,20.3811)"><path
             d="m 0,0 c 0,-8.131 -6.591,-14.722 -14.722,-14.722 -8.131,0 -14.722,6.591 -14.722,14.722 0,8.131 6.591,14.722 14.722,14.722 C -6.591,14.722 0,8.131 0,0"
             style="fill:#565656;fill-opacity:1;fill-rule:nonzero;stroke:none"
             id="path166" /></g><g
           id="g168"
           transform="translate(32.9618,20.3811)"><path
             d="m 0,0 c 0,-6.948 -5.633,-12.581 -12.581,-12.581 -6.948,0 -12.58,5.633 -12.58,12.581 0,6.948 5.632,12.581 12.58,12.581 C -5.633,12.581 0,6.948 0,0"
             style="fill:#151515;fill-opacity:1;fill-rule:nonzero;stroke:none"
             id="path170" /></g><g
           id="g172"
           transform="translate(29.7861,20.3811)"><path
             d="m 0,0 c 0,-5.194 -4.211,-9.405 -9.405,-9.405 -5.194,0 -9.405,4.211 -9.405,9.405 0,5.194 4.211,9.405 9.405,9.405 C -4.211,9.405 0,5.194 0,0"
             style="fill:#262626;fill-opacity:1;fill-rule:nonzero;stroke:none"
             id="path174" /></g><g
           id="g176"
           transform="translate(30.6042,11.1327)"><path
             d="m 0,0 -4.587,-3.332 -1.249,1.72 4.586,3.332 z"
             style="fill:#565656;fill-opacity:1;fill-rule:nonzero;stroke:none"
             id="path178" /></g><g
           id="g180"
           transform="translate(31.8539,9.4128)"><path
             d="m 0,0 -4.587,-3.332 -1.249,1.72 4.586,3.332 z"
             style="fill:#151515;fill-opacity:1;fill-rule:nonzero;stroke:none"
             id="path182" /></g><g
           id="g184"
           transform="translate(32.336,27.246)"><path
             d="M 0,0 1.752,-5.392 -0.27,-6.049 -2.022,-0.657 Z"
             style="fill:#565656;fill-opacity:1;fill-rule:nonzero;stroke:none"
             id="path186" /></g><g
           id="g188"
           transform="translate(34.3579,27.903)"><path
             d="M 0,0 1.752,-5.392 -0.27,-6.049 -2.022,-0.657 Z"
             style="fill:#151515;fill-opacity:1;fill-rule:nonzero;stroke:none"
             id="path190" /></g><path
           d="m 17.546,33.872 h 5.669 v -2.126 h -5.669 z"
           style="fill:#565656;fill-opacity:1;fill-rule:nonzero;stroke:none"
           id="path192" /><path
           d="m 17.546,35.998 h 5.669 v -2.126 h -5.669 z"
           style="fill:#151515;fill-opacity:1;fill-rule:nonzero;stroke:none"
           id="path194" /><g
           id="g196"
           transform="translate(6.6743,21.8542)"><path
             d="M 0,0 1.752,5.392 3.774,4.735 2.022,-0.657 Z"
             style="fill:#565656;fill-opacity:1;fill-rule:nonzero;stroke:none"
             id="path198" /></g><g
           id="g200"
           transform="translate(4.6524,22.5111)"><path
             d="M 0,0 1.752,5.392 3.774,4.735 2.022,-0.657 Z"
             style="fill:#151515;fill-opacity:1;fill-rule:nonzero;stroke:none"
             id="path202" /></g><g
           id="g204"
           transform="translate(14.7445,7.8004)"><path
             d="m 0,0 -4.587,3.332 1.25,1.72 L 1.25,1.72 Z"
             style="fill:#565656;fill-opacity:1;fill-rule:nonzero;stroke:none"
             id="path206" /></g><g
           id="g208"
           transform="translate(13.4949,6.0805)"><path
             d="m 0,0 -4.587,3.332 1.25,1.72 L 1.25,1.72 Z"
             style="fill:#151515;fill-opacity:1;fill-rule:nonzero;stroke:none"
             id="path210" /></g></g></g></g></svg>
