<?xml version="1.0" encoding="UTF-8" standalone="no"?>
<svg
   xmlns:dc="http://purl.org/dc/elements/1.1/"
   xmlns:cc="http://creativecommons.org/ns#"
   xmlns:rdf="http://www.w3.org/1999/02/22-rdf-syntax-ns#"
   xmlns:svg="http://www.w3.org/2000/svg"
   xmlns="http://www.w3.org/2000/svg"
   xmlns:sodipodi="http://sodipodi.sourceforge.net/DTD/sodipodi-0.dtd"
   xmlns:inkscape="http://www.inkscape.org/namespaces/inkscape"
   version="1.1"
   id="svg28"
   xml:space="preserve"
   width="15.75001mm"
   height="15.75001mm"
   viewBox="0 0 59.527599 59.527599"
   sodipodi:docname="rogan.2s.black.svg"
   inkscape:version="1.0.2 (e86c8708, 2021-01-15)"><metadata
     id="metadata34"><rdf:RDF><cc:Work
         rdf:about=""><dc:format>image/svg+xml</dc:format><dc:type
           rdf:resource="http://purl.org/dc/dcmitype/StillImage" /><dc:title></dc:title></cc:Work></rdf:RDF></metadata><defs
     id="defs32"><clipPath
       clipPathUnits="userSpaceOnUse"
       id="clipPath44"><path
         d="M 0,44.646 H 44.646 V 0 H 0 Z"
         id="path42" /></clipPath></defs><sodipodi:namedview
     pagecolor="#ffffff"
     bordercolor="#666666"
     borderopacity="1"
     objecttolerance="10"
     gridtolerance="10"
     guidetolerance="10"
     inkscape:pageopacity="0"
     inkscape:pageshadow="2"
     inkscape:window-width="740"
     inkscape:window-height="480"
     id="namedview30"
     showgrid="false"
     inkscape:document-units="mm"
     units="mm"
     inkscape:zoom="16.933322"
     inkscape:cx="29.7638"
     inkscape:cy="29.7638"
     inkscape:window-x="0"
     inkscape:window-y="23"
     inkscape:window-maximized="0"
     inkscape:current-layer="g36" /><g
     id="g36"
     inkscape:groupmode="layer"
     inkscape:label="rogan.2s.black"
     transform="matrix(1.3333333,0,0,-1.3333333,0,59.5276)"><g
       id="g38"><g
         id="g40"
         clip-path="url(#clipPath44)"><g
           id="g46"
           transform="translate(44.6457,22.3228)"><path
             d="m 0,0 c 0,-12.329 -9.994,-22.323 -22.323,-22.323 -12.328,0 -22.323,9.994 -22.323,22.323 0,12.329 9.995,22.323 22.323,22.323 C -9.994,22.323 0,12.329 0,0"
             style="fill:#565656;fill-opacity:1;fill-rule:nonzero;stroke:none"
             id="path48" /></g><g
           id="g50"
           transform="translate(42.1727,22.3228)"><path
             d="m 0,0 c 0,-10.963 -8.887,-19.85 -19.85,-19.85 -10.963,0 -19.85,8.887 -19.85,19.85 0,10.963 8.887,19.85 19.85,19.85 C -8.887,19.85 0,10.963 0,0"
             style="fill:#151515;fill-opacity:1;fill-rule:nonzero;stroke:none"
             id="path52" /></g><g
           id="g54"
           transform="translate(38.9644,22.3228)"><path
             d="m 0,0 c 0,-9.191 -7.451,-16.642 -16.642,-16.642 -9.19,0 -16.641,7.451 -16.641,16.642 0,9.191 7.451,16.642 16.641,16.642 C -7.451,16.642 0,9.191 0,0"
             style="fill:#565656;fill-opacity:1;fill-rule:nonzero;stroke:none"
             id="path56" /></g><g
           id="g58"
           transform="translate(36.8448,22.3228)"><path
             d="m 0,0 c 0,-8.02 -6.502,-14.522 -14.522,-14.522 -8.02,0 -14.522,6.502 -14.522,14.522 0,8.02 6.502,14.522 14.522,14.522 C -6.502,14.522 0,8.02 0,0"
             style="fill:#151515;fill-opacity:1;fill-rule:nonzero;stroke:none"
             id="path60" /></g><g
           id="g62"
           transform="translate(33.6295,22.3228)"><path
             d="m 0,0 c 0,-6.245 -5.062,-11.307 -11.307,-11.307 -6.244,0 -11.306,5.062 -11.306,11.307 0,6.245 5.062,11.307 11.306,11.307 C -5.062,11.307 0,6.245 0,0"
             style="fill:#262626;fill-opacity:1;fill-rule:nonzero;stroke:none"
             id="path64" /></g><g
           id="g66"
           transform="translate(33.6695,11.5281)"><path
             d="m 0,0 -4.587,-3.332 -1.249,1.72 4.586,3.332 z"
             style="fill:#565656;fill-opacity:1;fill-rule:nonzero;stroke:none"
             id="path68" /></g><g
           id="g70"
           transform="translate(34.9191,9.8081)"><path
             d="m 0,0 -4.587,-3.332 -1.249,1.72 4.586,3.332 z"
             style="fill:#151515;fill-opacity:1;fill-rule:nonzero;stroke:none"
             id="path72" /></g><g
           id="g74"
           transform="translate(36.0956,29.7784)"><path
             d="M 0,0 1.752,-5.392 -0.27,-6.049 -2.022,-0.657 Z"
             style="fill:#565656;fill-opacity:1;fill-rule:nonzero;stroke:none"
             id="path76" /></g><g
           id="g78"
           transform="translate(38.1175,30.4354)"><path
             d="M 0,0 1.752,-5.392 -0.27,-6.049 -2.022,-0.657 Z"
             style="fill:#151515;fill-opacity:1;fill-rule:nonzero;stroke:none"
             id="path80" /></g><path
           d="m 19.488,37.725 h 5.669 v -2.126 h -5.669 z"
           style="fill:#565656;fill-opacity:1;fill-rule:nonzero;stroke:none"
           id="path82" /><path
           d="m 19.488,39.851 h 5.669 v -2.126 h -5.669 z"
           style="fill:#151515;fill-opacity:1;fill-rule:nonzero;stroke:none"
           id="path84" /><g
           id="g86"
           transform="translate(6.7982,24.3866)"><path
             d="M 0,0 1.752,5.392 3.774,4.735 2.022,-0.657 Z"
             style="fill:#565656;fill-opacity:1;fill-rule:nonzero;stroke:none"
             id="path88" /></g><g
           id="g90"
           transform="translate(4.7762,25.0435)"><path
             d="M 0,0 1.752,5.392 3.774,4.735 2.022,-0.657 Z"
             style="fill:#151515;fill-opacity:1;fill-rule:nonzero;stroke:none"
             id="path92" /></g><g
           id="g94"
           transform="translate(15.5627,8.1957)"><path
             d="m 0,0 -4.587,3.332 1.25,1.72 L 1.25,1.72 Z"
             style="fill:#565656;fill-opacity:1;fill-rule:nonzero;stroke:none"
             id="path96" /></g><g
           id="g98"
           transform="translate(14.3131,6.4758)"><path
             d="m 0,0 -4.587,3.332 1.25,1.72 L 1.25,1.72 Z"
             style="fill:#151515;fill-opacity:1;fill-rule:nonzero;stroke:none"
             id="path100" /></g></g></g></g></svg>
