<?xml version="1.0" encoding="UTF-8" standalone="no"?>
<svg
   xmlns:dc="http://purl.org/dc/elements/1.1/"
   xmlns:cc="http://creativecommons.org/ns#"
   xmlns:rdf="http://www.w3.org/1999/02/22-rdf-syntax-ns#"
   xmlns:svg="http://www.w3.org/2000/svg"
   xmlns="http://www.w3.org/2000/svg"
   xmlns:sodipodi="http://sodipodi.sourceforge.net/DTD/sodipodi-0.dtd"
   xmlns:inkscape="http://www.inkscape.org/namespaces/inkscape"
   version="1.1"
   id="svg427"
   xml:space="preserve"
   width="18.469999mm"
   height="18.469999mm"
   viewBox="0 0 69.807869 69.807869"
   sodipodi:docname="rogan.3ps.svg"
   inkscape:version="1.0.2 (e86c8708, 2021-01-15)"><metadata
     id="metadata433"><rdf:RDF><cc:Work
         rdf:about=""><dc:format>image/svg+xml</dc:format><dc:type
           rdf:resource="http://purl.org/dc/dcmitype/StillImage" /><dc:title></dc:title></cc:Work></rdf:RDF></metadata><defs
     id="defs431"><clipPath
       clipPathUnits="userSpaceOnUse"
       id="clipPath443"><path
         d="M 0,52.356 H 52.356 V 0 H 0 Z"
         id="path441" /></clipPath></defs><sodipodi:namedview
     pagecolor="#ffffff"
     bordercolor="#666666"
     borderopacity="1"
     objecttolerance="10"
     gridtolerance="10"
     guidetolerance="10"
     inkscape:pageopacity="0"
     inkscape:pageshadow="2"
     inkscape:window-width="716"
     inkscape:window-height="480"
     id="namedview429"
     showgrid="false"
     inkscape:document-units="mm"
     units="mm"
     inkscape:zoom="14.439633"
     inkscape:cx="34.903934"
     inkscape:cy="34.903934"
     inkscape:window-x="0"
     inkscape:window-y="23"
     inkscape:window-maximized="0"
     inkscape:current-layer="g435" /><g
     id="g435"
     inkscape:groupmode="layer"
     inkscape:label="rogan.3ps"
     transform="matrix(1.3333333,0,0,-1.3333333,0,69.807867)"><g
       id="g437"><g
         id="g439"
         clip-path="url(#clipPath443)"><g
           id="g445"
           transform="translate(52.3555,26.1782)"><path
             d="m 0,0 c 0,-14.458 -11.72,-26.178 -26.178,-26.178 -14.457,0 -26.177,11.72 -26.177,26.178 0,14.458 11.72,26.178 26.177,26.178 C -11.72,26.178 0,14.458 0,0"
             style="fill:#565656;fill-opacity:1;fill-rule:nonzero;stroke:none"
             id="path447" /></g><g
           id="g449"
           transform="translate(49.8887,26.1782)"><path
             d="m 0,0 c 0,-13.095 -10.616,-23.711 -23.711,-23.711 -13.095,0 -23.71,10.616 -23.71,23.711 0,13.095 10.615,23.71 23.71,23.71 C -10.616,23.71 0,13.095 0,0"
             style="fill:#151515;fill-opacity:1;fill-rule:nonzero;stroke:none"
             id="path451" /></g><g
           id="g453"
           transform="translate(46.6904,26.1782)"><path
             d="m 0,0 c 0,-11.329 -9.184,-20.513 -20.513,-20.513 -11.328,0 -20.512,9.184 -20.512,20.513 0,11.329 9.184,20.512 20.512,20.512 C -9.184,20.512 0,11.329 0,0"
             style="fill:#565656;fill-opacity:1;fill-rule:nonzero;stroke:none"
             id="path455" /></g><g
           id="g457"
           transform="translate(44.5728,26.1782)"><path
             d="m 0,0 c 0,-10.159 -8.236,-18.395 -18.395,-18.395 -10.159,0 -18.395,8.236 -18.395,18.395 0,10.159 8.236,18.395 18.395,18.395 C -8.236,18.395 0,10.159 0,0"
             style="fill:#151515;fill-opacity:1;fill-rule:nonzero;stroke:none"
             id="path459" /></g><g
           id="g461"
           transform="translate(41.3706,26.1782)"><path
             d="m 0,0 c 0,-8.391 -6.802,-15.193 -15.193,-15.193 -8.39,0 -15.192,6.802 -15.192,15.193 0,8.39 6.802,15.192 15.192,15.192 C -6.802,15.192 0,8.39 0,0"
             style="fill:#eeeeee;fill-opacity:1;fill-rule:nonzero;stroke:none"
             id="path463" /></g><path
           d="m 29.013,51.006 h -5.669 v 1.35 h 5.669 z"
           style="fill:#dbdbdb;fill-opacity:1;fill-rule:nonzero;stroke:none"
           id="path465" /><path
           d="m 29.013,40.657 h -5.669 v 10.35 h 5.669 z"
           style="fill:#eeeeee;fill-opacity:1;fill-rule:nonzero;stroke:none"
           id="path467" /><path
           d="m 29.013,6.869 h -5.669 v 2.126 h 5.669 z"
           style="fill:#565656;fill-opacity:1;fill-rule:nonzero;stroke:none"
           id="path469" /><path
           d="m 29.013,4.743 h -5.669 v 2.126 h 5.669 z"
           style="fill:#151515;fill-opacity:1;fill-rule:nonzero;stroke:none"
           id="path471" /><g
           id="g473"
           transform="translate(44.3174,18.9785)"><path
             d="m 0,0 -2.835,-4.91 -1.841,1.063 2.835,4.91 z"
             style="fill:#565656;fill-opacity:1;fill-rule:nonzero;stroke:none"
             id="path475" /></g><g
           id="g477"
           transform="translate(46.1582,17.9155)"><path
             d="m 0,0 -2.834,-4.91 -1.842,1.063 2.835,4.91 z"
             style="fill:#151515;fill-opacity:1;fill-rule:nonzero;stroke:none"
             id="path479" /></g><g
           id="g481"
           transform="translate(41.4824,38.2871)"><path
             d="m 0,0 2.835,-4.91 -1.841,-1.063 -2.835,4.91 z"
             style="fill:#565656;fill-opacity:1;fill-rule:nonzero;stroke:none"
             id="path483" /></g><g
           id="g485"
           transform="translate(43.3237,39.3501)"><path
             d="m 0,0 2.834,-4.91 -1.84,-1.063 -2.835,4.91 z"
             style="fill:#151515;fill-opacity:1;fill-rule:nonzero;stroke:none"
             id="path487" /></g><g
           id="g489"
           transform="translate(8.0386,33.3774)"><path
             d="M 0,0 2.834,4.91 4.676,3.847 1.841,-1.063 Z"
             style="fill:#565656;fill-opacity:1;fill-rule:nonzero;stroke:none"
             id="path491" /></g><g
           id="g493"
           transform="translate(6.1973,34.4404)"><path
             d="M 0,0 2.835,4.91 4.676,3.847 1.841,-1.063 Z"
             style="fill:#151515;fill-opacity:1;fill-rule:nonzero;stroke:none"
             id="path495" /></g><g
           id="g497"
           transform="translate(10.873,14.0688)"><path
             d="m 0,0 -2.834,4.91 1.841,1.063 2.834,-4.91 z"
             style="fill:#565656;fill-opacity:1;fill-rule:nonzero;stroke:none"
             id="path499" /></g><g
           id="g501"
           transform="translate(9.0322,13.0058)"><path
             d="m 0,0 -2.835,4.91 1.841,1.063 2.835,-4.91 z"
             style="fill:#151515;fill-opacity:1;fill-rule:nonzero;stroke:none"
             id="path503" /></g></g></g></g></svg>
