<?xml version="1.0" encoding="UTF-8" standalone="no"?>
<svg
   xmlns:dc="http://purl.org/dc/elements/1.1/"
   xmlns:cc="http://creativecommons.org/ns#"
   xmlns:rdf="http://www.w3.org/1999/02/22-rdf-syntax-ns#"
   xmlns:svg="http://www.w3.org/2000/svg"
   xmlns="http://www.w3.org/2000/svg"
   xmlns:sodipodi="http://sodipodi.sourceforge.net/DTD/sodipodi-0.dtd"
   xmlns:inkscape="http://www.inkscape.org/namespaces/inkscape"
   version="1.1"
   id="svg172"
   xml:space="preserve"
   width="14.200011mm"
   height="14.200011mm"
   viewBox="0 0 53.669334 53.669334"
   sodipodi:docname="sifam.drn111.white.svg"
   inkscape:version="1.0.2 (e86c8708, 2021-01-15)"><metadata
     id="metadata178"><rdf:RDF><cc:Work
         rdf:about=""><dc:format>image/svg+xml</dc:format><dc:type
           rdf:resource="http://purl.org/dc/dcmitype/StillImage" /><dc:title></dc:title></cc:Work></rdf:RDF></metadata><defs
     id="defs176"><clipPath
       clipPathUnits="userSpaceOnUse"
       id="clipPath188"><path
         d="M 0,40.252 H 40.252 V 0 H 0 Z"
         id="path186" /></clipPath></defs><sodipodi:namedview
     pagecolor="#ffffff"
     bordercolor="#666666"
     borderopacity="1"
     objecttolerance="10"
     gridtolerance="10"
     guidetolerance="10"
     inkscape:pageopacity="0"
     inkscape:pageshadow="2"
     inkscape:window-width="756"
     inkscape:window-height="480"
     id="namedview174"
     showgrid="false"
     inkscape:document-units="mm"
     units="mm"
     inkscape:zoom="18.781675"
     inkscape:cx="26.834667"
     inkscape:cy="26.834667"
     inkscape:window-x="0"
     inkscape:window-y="23"
     inkscape:window-maximized="0"
     inkscape:current-layer="g180" /><g
     id="g180"
     inkscape:groupmode="layer"
     inkscape:label="sifam.drn111.white"
     transform="matrix(1.3333333,0,0,-1.3333333,0,53.669333)"><g
       id="g182"><g
         id="g184"
         clip-path="url(#clipPath188)"><g
           id="g190"
           transform="translate(20.126,40.252)"><path
             d="m 0,0 c 11.115,0 20.126,-9.011 20.126,-20.126 0,-11.115 -9.011,-20.126 -20.126,-20.126 -11.115,0 -20.126,9.011 -20.126,20.126 C -20.126,-9.011 -11.115,0 0,0"
             style="fill:#9e9e9e;fill-opacity:1;fill-rule:nonzero;stroke:none"
             id="path192" /></g><g
           id="g194"
           transform="translate(20.126,39.7387)"><path
             d="m 0,0 c 10.832,0 19.613,-8.781 19.613,-19.613 0,-10.832 -8.781,-19.612 -19.613,-19.612 -10.832,0 -19.613,8.78 -19.613,19.612 C -19.613,-8.781 -10.832,0 0,0"
             style="fill:#e8e8e8;fill-opacity:1;fill-rule:nonzero;stroke:none"
             id="path196" /></g><g
           id="g198"
           transform="translate(20.126,37.7065)"><path
             d="m 0,0 c 9.709,0 17.581,-7.871 17.581,-17.581 0,-9.709 -7.872,-17.58 -17.581,-17.58 -9.709,0 -17.581,7.871 -17.581,17.58 C -17.581,-7.871 -9.709,0 0,0"
             style="fill:#9e9e9e;fill-opacity:1;fill-rule:nonzero;stroke:none"
             id="path200" /></g><g
           id="g202"
           transform="translate(20.126,36.9038)"><path
             d="m 0,0 c 9.266,0 16.778,-7.512 16.778,-16.778 0,-9.266 -7.512,-16.778 -16.778,-16.778 -9.266,0 -16.778,7.512 -16.778,16.778 C -16.778,-7.512 -9.266,0 0,0"
             style="fill:#e8e8e8;fill-opacity:1;fill-rule:nonzero;stroke:none"
             id="path204" /></g><g
           id="g206"
           transform="translate(20.126,35.7582)"><path
             d="m 0,0 c 8.633,0 15.632,-6.999 15.632,-15.632 0,-8.634 -6.999,-15.632 -15.632,-15.632 -8.633,0 -15.632,6.998 -15.632,15.632 C -15.632,-6.999 -8.633,0 0,0"
             style="fill:#9e9e9e;fill-opacity:1;fill-rule:nonzero;stroke:none"
             id="path208" /></g><g
           id="g210"
           transform="translate(20.126,35.0153)"><path
             d="m 0,0 c 8.223,0 14.889,-6.666 14.889,-14.889 0,-8.223 -6.666,-14.89 -14.889,-14.89 -8.223,0 -14.889,6.667 -14.889,14.89 C -14.889,-6.666 -8.223,0 0,0"
             style="fill:#ffffff;fill-opacity:1;fill-rule:nonzero;stroke:none"
             id="path212" /></g><g
           id="g214"
           transform="translate(23.6543,36.949)"><path
             d="M 0,0 -1.406,-0.89 H -5.651 L -7.057,0 Z"
             style="fill:#9e9e9e;fill-opacity:1;fill-rule:nonzero;stroke:none"
             id="path216" /></g><g
           id="g218"
           transform="translate(24.0429,37.8391)"><path
             d="M 0,0 -1.584,-0.89 H -6.25 L -7.834,0 Z"
             style="fill:#e8e8e8;fill-opacity:1;fill-rule:nonzero;stroke:none"
             id="path220" /></g><g
           id="g222"
           transform="translate(7.321,31.5931)"><path
             d="M 0,0 0.068,-1.663 -2.055,-5.339 -3.528,-6.111 Z"
             style="fill:#9e9e9e;fill-opacity:1;fill-rule:nonzero;stroke:none"
             id="path224" /></g><g
           id="g226"
           transform="translate(6.7445,32.3747)"><path
             d="m 0,0 -0.021,-1.817 -2.333,-4.04 -1.563,-0.927 z"
             style="fill:#e8e8e8;fill-opacity:1;fill-rule:nonzero;stroke:none"
             id="path228" /></g><g
           id="g230"
           transform="translate(3.7926,14.7701)"><path
             d="M 0,0 1.474,-0.773 3.596,-4.449 3.528,-6.111 Z"
             style="fill:#9e9e9e;fill-opacity:1;fill-rule:nonzero;stroke:none"
             id="path232" /></g><g
           id="g234"
           transform="translate(2.8275,14.6616)"><path
             d="m 0,0 1.563,-0.927 2.333,-4.04 0.021,-1.817 z"
             style="fill:#e8e8e8;fill-opacity:1;fill-rule:nonzero;stroke:none"
             id="path236" /></g><g
           id="g238"
           transform="translate(16.5977,3.3029)"><path
             d="M 0,0 1.406,0.89 H 5.651 L 7.057,0 Z"
             style="fill:#9e9e9e;fill-opacity:1;fill-rule:nonzero;stroke:none"
             id="path240" /></g><g
           id="g242"
           transform="translate(16.209,2.4129)"><path
             d="M 0,0 1.584,0.89 H 6.249 L 7.834,0 Z"
             style="fill:#e8e8e8;fill-opacity:1;fill-rule:nonzero;stroke:none"
             id="path244" /></g><g
           id="g246"
           transform="translate(32.931,8.6588)"><path
             d="M 0,0 -0.068,1.663 2.055,5.339 3.528,6.111 Z"
             style="fill:#9e9e9e;fill-opacity:1;fill-rule:nonzero;stroke:none"
             id="path248" /></g><g
           id="g250"
           transform="translate(33.5075,7.8773)"><path
             d="m 0,0 0.021,1.817 2.333,4.04 1.563,0.927 z"
             style="fill:#e8e8e8;fill-opacity:1;fill-rule:nonzero;stroke:none"
             id="path252" /></g><g
           id="g254"
           transform="translate(36.4593,25.4819)"><path
             d="m 0,0 -1.474,0.773 -2.122,3.676 0.068,1.662 z"
             style="fill:#9e9e9e;fill-opacity:1;fill-rule:nonzero;stroke:none"
             id="path256" /></g><g
           id="g258"
           transform="translate(37.4244,25.5903)"><path
             d="m 0,0 -1.563,0.927 -2.333,4.04 -0.021,1.817 z"
             style="fill:#e8e8e8;fill-opacity:1;fill-rule:nonzero;stroke:none"
             id="path260" /></g><path
           d="m 21.543,20.126 h -2.835 v 16.823 h 2.835 z"
           style="fill:#2b2b2b;fill-opacity:1;fill-rule:nonzero;stroke:none"
           id="path262" /></g></g></g></svg>
