<?xml version="1.0" encoding="UTF-8" standalone="no"?>
<svg
   xmlns:dc="http://purl.org/dc/elements/1.1/"
   xmlns:cc="http://creativecommons.org/ns#"
   xmlns:rdf="http://www.w3.org/1999/02/22-rdf-syntax-ns#"
   xmlns:svg="http://www.w3.org/2000/svg"
   xmlns="http://www.w3.org/2000/svg"
   xmlns:sodipodi="http://sodipodi.sourceforge.net/DTD/sodipodi-0.dtd"
   xmlns:inkscape="http://www.inkscape.org/namespaces/inkscape"
   version="1.1"
   id="svg10"
   xml:space="preserve"
   width="6.500001mm"
   height="6.500001mm"
   viewBox="0 0 24.566933 24.566933"
   sodipodi:docname="songhuei.9mm.svg"
   inkscape:version="1.0.2 (e86c8708, 2021-01-15)"><metadata
     id="metadata16"><rdf:RDF><cc:Work
         rdf:about=""><dc:format>image/svg+xml</dc:format><dc:type
           rdf:resource="http://purl.org/dc/dcmitype/StillImage" /><dc:title></dc:title></cc:Work></rdf:RDF></metadata><defs
     id="defs14"><clipPath
       clipPathUnits="userSpaceOnUse"
       id="clipPath26"><path
         d="M 0,18.425 H 18.425 V 0 H 0 Z"
         id="path24" /></clipPath></defs><sodipodi:namedview
     pagecolor="#ffffff"
     bordercolor="#666666"
     borderopacity="1"
     objecttolerance="10"
     gridtolerance="10"
     guidetolerance="10"
     inkscape:pageopacity="0"
     inkscape:pageshadow="2"
     inkscape:window-width="753"
     inkscape:window-height="480"
     id="namedview12"
     showgrid="false"
     inkscape:document-units="mm"
     units="mm"
     inkscape:zoom="41.030763"
     inkscape:cx="12.283466"
     inkscape:cy="12.283466"
     inkscape:window-x="0"
     inkscape:window-y="23"
     inkscape:window-maximized="0"
     inkscape:current-layer="g18" /><g
     id="g18"
     inkscape:groupmode="layer"
     inkscape:label="songhuei.9mm"
     transform="matrix(1.3333333,0,0,-1.3333333,0,24.566933)"><g
       id="g20"><g
         id="g22"
         clip-path="url(#clipPath26)"><g
           id="g28"
           transform="translate(18.4253,9.2128)"><path
             d="m 0,0 c 0,-5.088 -4.125,-9.213 -9.213,-9.213 -5.088,0 -9.212,4.125 -9.212,9.213 0,5.088 4.124,9.212 9.212,9.212 C -4.125,9.212 0,5.088 0,0"
             style="fill:#383838;fill-opacity:1;fill-rule:nonzero;stroke:none"
             id="path30" /></g><g
           id="g32"
           transform="translate(17.019,9.2128)"><path
             d="m 0,0 c 0,-4.312 -3.495,-7.807 -7.807,-7.807 -4.311,0 -7.806,3.495 -7.806,7.807 0,4.311 3.495,7.806 7.806,7.806 C -3.495,7.806 0,4.311 0,0"
             style="fill:#151515;fill-opacity:1;fill-rule:nonzero;stroke:none"
             id="path34" /></g><g
           id="g36"
           transform="translate(9.2124,16.3212)"><path
             d="M 0,0 -0.697,0.698 0,1.396 0.698,0.698 Z"
             style="fill:#151515;fill-opacity:1;fill-rule:nonzero;stroke:none"
             id="path38" /></g><g
           id="g40"
           transform="translate(7.978,16.2133)"><path
             d="M 0,0 -0.808,0.566 -0.242,1.374 0.566,0.808 Z"
             style="fill:#151515;fill-opacity:1;fill-rule:nonzero;stroke:none"
             id="path42" /></g><g
           id="g44"
           transform="translate(6.7812,15.8925)"><path
             d="M 0,0 -0.894,0.417 -0.477,1.311 0.417,0.894 Z"
             style="fill:#151515;fill-opacity:1;fill-rule:nonzero;stroke:none"
             id="path46" /></g><g
           id="g48"
           transform="translate(5.6582,15.369)"><path
             d="M 0,0 -0.953,0.255 -0.698,1.208 0.255,0.953 Z"
             style="fill:#151515;fill-opacity:1;fill-rule:nonzero;stroke:none"
             id="path50" /></g><g
           id="g52"
           transform="translate(4.6431,14.6581)"><path
             d="M 0,0 -0.983,0.086 -0.896,1.069 0.086,0.983 Z"
             style="fill:#151515;fill-opacity:1;fill-rule:nonzero;stroke:none"
             id="path54" /></g><g
           id="g56"
           transform="translate(3.7671,13.7821)"><path
             d="m 0,0 -0.983,-0.086 -0.086,0.982 0.983,0.087 z"
             style="fill:#151515;fill-opacity:1;fill-rule:nonzero;stroke:none"
             id="path58" /></g><g
           id="g60"
           transform="translate(3.0562,12.767)"><path
             d="m 0,0 -0.953,-0.255 -0.255,0.953 0.953,0.255 z"
             style="fill:#151515;fill-opacity:1;fill-rule:nonzero;stroke:none"
             id="path62" /></g><g
           id="g64"
           transform="translate(2.5327,11.644)"><path
             d="m 0,0 -0.894,-0.417 -0.417,0.894 0.894,0.417 z"
             style="fill:#151515;fill-opacity:1;fill-rule:nonzero;stroke:none"
             id="path66" /></g><g
           id="g68"
           transform="translate(2.2119,10.4472)"><path
             d="m 0,0 -0.808,-0.566 -0.566,0.808 0.808,0.566 z"
             style="fill:#151515;fill-opacity:1;fill-rule:nonzero;stroke:none"
             id="path70" /></g><g
           id="g72"
           transform="translate(2.104,9.2128)"><path
             d="M 0,0 -0.698,-0.698 -1.396,0 -0.698,0.697 Z"
             style="fill:#151515;fill-opacity:1;fill-rule:nonzero;stroke:none"
             id="path74" /></g><g
           id="g76"
           transform="translate(2.2119,7.9779)"><path
             d="m 0,0 -0.566,-0.808 -0.808,0.566 0.566,0.808 z"
             style="fill:#151515;fill-opacity:1;fill-rule:nonzero;stroke:none"
             id="path78" /></g><g
           id="g80"
           transform="translate(2.5327,6.7812)"><path
             d="m 0,0 -0.417,-0.894 -0.894,0.417 0.417,0.894 z"
             style="fill:#151515;fill-opacity:1;fill-rule:nonzero;stroke:none"
             id="path82" /></g><g
           id="g84"
           transform="translate(3.0562,5.6581)"><path
             d="m 0,0 -0.255,-0.953 -0.953,0.256 0.255,0.952 z"
             style="fill:#151515;fill-opacity:1;fill-rule:nonzero;stroke:none"
             id="path86" /></g><g
           id="g88"
           transform="translate(3.7671,4.643)"><path
             d="m 0,0 -0.086,-0.982 -0.983,0.086 0.086,0.982 z"
             style="fill:#151515;fill-opacity:1;fill-rule:nonzero;stroke:none"
             id="path90" /></g><g
           id="g92"
           transform="translate(4.6431,3.767)"><path
             d="m 0,0 0.086,-0.983 -0.982,-0.086 -0.087,0.983 z"
             style="fill:#151515;fill-opacity:1;fill-rule:nonzero;stroke:none"
             id="path94" /></g><g
           id="g96"
           transform="translate(5.6582,3.0561)"><path
             d="m 0,0 0.255,-0.953 -0.953,-0.255 -0.255,0.953 z"
             style="fill:#151515;fill-opacity:1;fill-rule:nonzero;stroke:none"
             id="path98" /></g><g
           id="g100"
           transform="translate(6.7812,2.5326)"><path
             d="m 0,0 0.417,-0.894 -0.894,-0.417 -0.417,0.894 z"
             style="fill:#151515;fill-opacity:1;fill-rule:nonzero;stroke:none"
             id="path102" /></g><g
           id="g104"
           transform="translate(7.978,2.2118)"><path
             d="m 0,0 0.566,-0.808 -0.808,-0.566 -0.566,0.808 z"
             style="fill:#151515;fill-opacity:1;fill-rule:nonzero;stroke:none"
             id="path106" /></g><g
           id="g108"
           transform="translate(9.2124,2.1039)"><path
             d="M 0,0 0.698,-0.698 0,-1.395 -0.697,-0.698 Z"
             style="fill:#151515;fill-opacity:1;fill-rule:nonzero;stroke:none"
             id="path110" /></g><g
           id="g112"
           transform="translate(10.4473,2.2118)"><path
             d="M 0,0 0.808,-0.566 0.242,-1.374 -0.566,-0.808 Z"
             style="fill:#151515;fill-opacity:1;fill-rule:nonzero;stroke:none"
             id="path114" /></g><g
           id="g116"
           transform="translate(11.644,2.5326)"><path
             d="M 0,0 0.894,-0.417 0.477,-1.311 -0.417,-0.894 Z"
             style="fill:#151515;fill-opacity:1;fill-rule:nonzero;stroke:none"
             id="path118" /></g><g
           id="g120"
           transform="translate(12.7671,3.0561)"><path
             d="M 0,0 0.953,-0.255 0.697,-1.208 -0.255,-0.953 Z"
             style="fill:#151515;fill-opacity:1;fill-rule:nonzero;stroke:none"
             id="path122" /></g><g
           id="g124"
           transform="translate(13.7822,3.767)"><path
             d="M 0,0 0.982,-0.086 0.896,-1.069 -0.086,-0.983 Z"
             style="fill:#151515;fill-opacity:1;fill-rule:nonzero;stroke:none"
             id="path126" /></g><g
           id="g128"
           transform="translate(14.6582,4.643)"><path
             d="M 0,0 0.983,0.086 1.069,-0.896 0.086,-0.982 Z"
             style="fill:#151515;fill-opacity:1;fill-rule:nonzero;stroke:none"
             id="path130" /></g><g
           id="g132"
           transform="translate(15.3691,5.6581)"><path
             d="M 0,0 0.953,0.255 1.208,-0.697 0.255,-0.953 Z"
             style="fill:#151515;fill-opacity:1;fill-rule:nonzero;stroke:none"
             id="path134" /></g><g
           id="g136"
           transform="translate(15.8926,6.7812)"><path
             d="M 0,0 0.894,0.417 1.311,-0.477 0.417,-0.894 Z"
             style="fill:#151515;fill-opacity:1;fill-rule:nonzero;stroke:none"
             id="path138" /></g><g
           id="g140"
           transform="translate(16.2134,7.9779)"><path
             d="M 0,0 0.808,0.566 1.374,-0.242 0.566,-0.808 Z"
             style="fill:#151515;fill-opacity:1;fill-rule:nonzero;stroke:none"
             id="path142" /></g><g
           id="g144"
           transform="translate(16.3213,9.2128)"><path
             d="M 0,0 0.698,0.697 1.395,0 0.698,-0.698 Z"
             style="fill:#151515;fill-opacity:1;fill-rule:nonzero;stroke:none"
             id="path146" /></g><g
           id="g148"
           transform="translate(16.2134,10.4472)"><path
             d="M 0,0 0.566,0.808 1.374,0.242 0.808,-0.566 Z"
             style="fill:#151515;fill-opacity:1;fill-rule:nonzero;stroke:none"
             id="path150" /></g><g
           id="g152"
           transform="translate(15.8926,11.644)"><path
             d="M 0,0 0.417,0.894 1.311,0.477 0.894,-0.417 Z"
             style="fill:#151515;fill-opacity:1;fill-rule:nonzero;stroke:none"
             id="path154" /></g><g
           id="g156"
           transform="translate(15.3691,12.767)"><path
             d="M 0,0 0.255,0.953 1.208,0.698 0.953,-0.255 Z"
             style="fill:#151515;fill-opacity:1;fill-rule:nonzero;stroke:none"
             id="path158" /></g><g
           id="g160"
           transform="translate(14.6582,13.7821)"><path
             d="M 0,0 0.086,0.983 1.069,0.896 0.983,-0.086 Z"
             style="fill:#151515;fill-opacity:1;fill-rule:nonzero;stroke:none"
             id="path162" /></g><g
           id="g164"
           transform="translate(13.7822,14.6581)"><path
             d="M 0,0 -0.086,0.983 0.896,1.069 0.982,0.086 Z"
             style="fill:#151515;fill-opacity:1;fill-rule:nonzero;stroke:none"
             id="path166" /></g><g
           id="g168"
           transform="translate(12.7671,15.369)"><path
             d="M 0,0 -0.255,0.953 0.697,1.208 0.953,0.255 Z"
             style="fill:#151515;fill-opacity:1;fill-rule:nonzero;stroke:none"
             id="path170" /></g><g
           id="g172"
           transform="translate(11.644,15.8925)"><path
             d="M 0,0 -0.417,0.894 0.477,1.311 0.894,0.417 Z"
             style="fill:#151515;fill-opacity:1;fill-rule:nonzero;stroke:none"
             id="path174" /></g><g
           id="g176"
           transform="translate(10.4473,16.2133)"><path
             d="M 0,0 -0.566,0.808 0.242,1.374 0.808,0.566 Z"
             style="fill:#151515;fill-opacity:1;fill-rule:nonzero;stroke:none"
             id="path178" /></g><path
           d="m 10.462,11.754 h -2.5 v 5.878 h 2.5 z"
           style="fill:#eeeeee;fill-opacity:1;fill-rule:nonzero;stroke:none"
           id="path180" /></g></g></g></svg>
