<?xml version="1.0" encoding="UTF-8" standalone="no"?>
<svg
   xmlns:dc="http://purl.org/dc/elements/1.1/"
   xmlns:cc="http://creativecommons.org/ns#"
   xmlns:rdf="http://www.w3.org/1999/02/22-rdf-syntax-ns#"
   xmlns:svg="http://www.w3.org/2000/svg"
   xmlns="http://www.w3.org/2000/svg"
   xmlns:sodipodi="http://sodipodi.sourceforge.net/DTD/sodipodi-0.dtd"
   xmlns:inkscape="http://www.inkscape.org/namespaces/inkscape"
   version="1.1"
   id="svg10"
   xml:space="preserve"
   width="8.9999952mm"
   height="8.9999952mm"
   viewBox="0 0 34.015732 34.015732"
   sodipodi:docname="thonk.pj398sm.hex.svg"
   inkscape:version="1.0.2 (e86c8708, 2021-01-15)"><metadata
     id="metadata16"><rdf:RDF><cc:Work
         rdf:about=""><dc:format>image/svg+xml</dc:format><dc:type
           rdf:resource="http://purl.org/dc/dcmitype/StillImage" /><dc:title></dc:title></cc:Work></rdf:RDF></metadata><defs
     id="defs14"><clipPath
       clipPathUnits="userSpaceOnUse"
       id="clipPath30"><path
         d="M 0,25.512 H 25.512 V 0 H 0 Z"
         id="path28" /></clipPath></defs><sodipodi:namedview
     pagecolor="#ffffff"
     bordercolor="#666666"
     borderopacity="1"
     objecttolerance="10"
     gridtolerance="10"
     guidetolerance="10"
     inkscape:pageopacity="0"
     inkscape:pageshadow="2"
     inkscape:window-width="760"
     inkscape:window-height="480"
     id="namedview12"
     showgrid="false"
     inkscape:document-units="mm"
     units="mm"
     inkscape:zoom="29.633347"
     inkscape:cx="17.007866"
     inkscape:cy="17.007866"
     inkscape:window-x="0"
     inkscape:window-y="23"
     inkscape:window-maximized="0"
     inkscape:current-layer="g18" /><g
     id="g18"
     inkscape:groupmode="layer"
     inkscape:label="thonk.pj398sm.hex"
     transform="matrix(1.3333333,0,0,-1.3333333,0,34.015733)"><g
       id="g20"
       transform="translate(6.3783,23.8032)"><path
         d="M 0,0 -6.378,-11.048 0,-22.094 H 12.756 L 19.133,-11.048 12.756,0 Z"
         style="fill:#b3b3b3;fill-opacity:1;fill-rule:nonzero;stroke:none"
         id="path22" /></g><g
       id="g24"><g
         id="g26"
         clip-path="url(#clipPath30)"><g
           id="g32"
           transform="translate(19.1592,22.6192)"><path
             d="m 0,0 c -0.195,0.337 -0.673,0.614 -1.063,0.614 h -10.681 c -0.389,0 -0.868,-0.277 -1.063,-0.614 l -5.34,-9.25 c -0.195,-0.337 -0.195,-0.89 0,-1.227 l 5.34,-9.25 c 0.195,-0.337 0.674,-0.613 1.063,-0.613 h 10.681 c 0.39,0 0.868,0.276 1.063,0.613 l 5.34,9.25 c 0.195,0.337 0.195,0.89 0,1.227 z"
             style="fill:#dbdbdb;fill-opacity:1;fill-rule:nonzero;stroke:none"
             id="path34" /></g><g
           id="g36"
           transform="translate(21.6353,12.756)"><path
             d="m 0,0 c 0,-4.904 -3.975,-8.879 -8.879,-8.879 -4.904,0 -8.88,3.975 -8.88,8.879 0,4.904 3.976,8.879 8.88,8.879 C -3.975,8.879 0,4.904 0,0"
             style="fill:#565656;fill-opacity:1;fill-rule:nonzero;stroke:none"
             id="path38" /></g><g
           id="g40"
           transform="translate(21.1182,12.756)"><path
             d="m 0,0 c 0,-4.618 -3.744,-8.362 -8.362,-8.362 -4.618,0 -8.363,3.744 -8.363,8.362 0,4.618 3.745,8.362 8.363,8.362 C -3.744,8.362 0,4.618 0,0"
             style="fill:#dbdbdb;fill-opacity:1;fill-rule:nonzero;stroke:none"
             id="path42" /></g><g
           id="g44"
           transform="translate(20.5513,12.756)"><path
             d="m 0,0 c 0,-4.305 -3.49,-7.795 -7.795,-7.795 -4.306,0 -7.796,3.49 -7.796,7.795 0,4.305 3.49,7.795 7.796,7.795 C -3.49,7.795 0,4.305 0,0"
             style="fill:#c4c4c4;fill-opacity:1;fill-rule:nonzero;stroke:none"
             id="path46" /></g><g
           id="g48"
           transform="translate(18.7085,12.756)"><path
             d="m 0,0 c 0,-3.288 -2.665,-5.953 -5.953,-5.953 -3.287,0 -5.952,2.665 -5.952,5.953 0,3.288 2.665,5.953 5.952,5.953 C -2.665,5.953 0,3.288 0,0"
             style="fill:#404040;fill-opacity:1;fill-rule:nonzero;stroke:none"
             id="path50" /></g><g
           id="g52"
           transform="translate(18.1416,12.756)"><path
             d="m 0,0 c 0,-2.975 -2.411,-5.386 -5.386,-5.386 -2.974,0 -5.385,2.411 -5.385,5.386 0,2.975 2.411,5.386 5.385,5.386 C -2.411,5.386 0,2.975 0,0"
             style="fill:#121212;fill-opacity:1;fill-rule:nonzero;stroke:none"
             id="path54" /></g></g></g></g></svg>
