<?xml version="1.0" encoding="utf-8"?>
<!-- Generator: Adobe Illustrator 25.2.1, SVG Export Plug-In . SVG Version: 6.00 Build 0)  -->
<svg version="1.1" id="Layer_1" xmlns="http://www.w3.org/2000/svg" xmlns:xlink="http://www.w3.org/1999/xlink" x="0px" y="0px"
	 viewBox="0 0 385.1 127.49" enable-background="new 0 0 385.1 127.49" xml:space="preserve">
<g>
	<path d="M310.37,93.16c1.79,0,2.69,0.9,2.69,2.69v11.76c0,1.8-0.9,2.69-2.69,2.69h-12.01c-1.88,0-2.82-0.9-2.82-2.69V95.86
		c0-1.8,0.94-2.69,2.82-2.69L310.37,93.16L310.37,93.16z"/>
</g>
<g>
	<path d="M338.12,93.16c1.79,0,2.69,0.9,2.69,2.69v11.76c0,1.8-0.9,2.69-2.69,2.69h-12.01c-1.88,0-2.82-0.9-2.82-2.69V95.86
		c0-1.8,0.94-2.69,2.82-2.69L338.12,93.16L338.12,93.16z"/>
</g>
<g>
	<path d="M365.86,93.16c1.79,0,2.69,0.9,2.69,2.69v11.76c0,1.8-0.9,2.69-2.69,2.69h-12.01c-1.88,0-2.82-0.9-2.82-2.69V95.86
		c0-1.8,0.94-2.69,2.82-2.69L365.86,93.16L365.86,93.16z"/>
</g>
<g>
	<path d="M365.86,43.06c1.79,0,2.69,0.9,2.69,2.69v11.76c0,1.8-0.9,2.69-2.69,2.69h-12.01c-1.88,0-2.82-0.9-2.82-2.69V45.76
		c0-1.8,0.94-2.69,2.82-2.69L365.86,43.06L365.86,43.06z"/>
</g>
<g>
	<path d="M338.12,68.11c1.79,0,2.69,0.9,2.69,2.69v11.76c0,1.8-0.9,2.69-2.69,2.69h-12.01c-1.88,0-2.82-0.9-2.82-2.69V70.81
		c0-1.8,0.94-2.69,2.82-2.69L338.12,68.11L338.12,68.11z"/>
</g>
<g>
	<path d="M365.86,68.11c1.79,0,2.69,0.9,2.69,2.69v11.76c0,1.8-0.9,2.69-2.69,2.69h-12.01c-1.88,0-2.82-0.9-2.82-2.69V70.81
		c0-1.8,0.94-2.69,2.82-2.69L365.86,68.11L365.86,68.11z"/>
</g>
<g>
	<path d="M219.21,57.76c-1.47,0-2.21-0.74-2.21-2.21V45.27c0-1.47,0.74-2.21,2.21-2.21h34.3c5.47,0,10.09,0.47,13.84,1.41
		c3.76,0.94,6.76,2.41,9,4.41c2.25,2,3.86,4.57,4.84,7.72s1.47,6.92,1.47,11.33v17.64c0,4.41-0.49,8.19-1.47,11.33
		c-0.98,3.15-2.59,5.72-4.84,7.72s-5.25,3.45-9,4.35c-3.76,0.9-8.37,1.35-13.84,1.35h-34.3c-5.55,0-10.19-0.45-13.9-1.35
		c-3.72-0.9-6.7-2.35-8.94-4.35c-2.25-2-3.86-4.57-4.84-7.72c-0.98-3.14-1.47-6.92-1.47-11.33V21.13c0-1.8,0.94-2.7,2.82-2.7h12.01
		c1.79,0,2.7,0.9,2.7,2.7v21.93v14.7v24.38c0,2.61,0.2,4.78,0.61,6.49s1.12,3.08,2.14,4.1s2.39,1.76,4.1,2.21
		c1.72,0.45,3.88,0.67,6.49,0.67h30.87c2.7,0,4.9-0.22,6.62-0.67s3.08-1.18,4.1-2.21c1.02-1.02,1.73-2.39,2.14-4.1
		c0.41-1.72,0.61-3.88,0.61-6.49v-10.9c0-2.53-0.2-4.67-0.61-6.43c-0.41-1.76-1.12-3.14-2.14-4.17c-1.02-1.02-2.39-1.76-4.1-2.21
		c-1.72-0.45-3.92-0.67-6.62-0.67C251.8,57.76,219.21,57.76,219.21,57.76z"/>
</g>
<path d="M178.42,43.06h-34.3c-5.55,0-10.19,0.47-13.9,1.41c-3.72,0.94-6.7,2.41-8.94,4.41c-2.25,2-3.86,4.57-4.84,7.72
	c-0.98,3.15-1.47,6.92-1.47,11.33v14.21c0,2.61-0.2,4.78-0.61,6.49s-1.12,3.08-2.14,4.1s-2.39,1.76-4.1,2.21
	c-1.72,0.45-3.92,0.67-6.62,0.67H46.85c-5.31,0-8.88-0.86-10.72-2.57c-1.84-1.72-2.76-4.49-2.76-8.33V67.56
	c0-3.92,0.92-6.72,2.76-8.39s5.41-2.51,10.72-2.51H77.6c2.86,0,4.82,0.53,5.88,1.59s1.59,2.86,1.59,5.39v5.15
	c0,1.39-0.69,2.08-2.08,2.08H48.6c-1.47,0-2.21,0.74-2.21,2.21v6.49c0,1.47,0.74,2.21,2.21,2.21h46.64c2.37,0,4.12-0.51,5.27-1.53
	c1.14-1.02,1.72-2.84,1.72-5.45V63.15c0-3.68-0.33-6.8-0.98-9.37s-1.78-4.66-3.37-6.25c-1.59-1.59-3.76-2.74-6.49-3.43
	c-2.74-0.69-6.19-1.04-10.35-1.04h-35.9c-5.55,0-10.19,0.47-13.9,1.41c-3.72,0.94-6.7,2.41-8.94,4.41c-2.25,2-3.86,4.57-4.84,7.72
	s-1.47,6.92-1.47,11.33v17.64c0,4.41,0.49,8.19,1.47,11.33c0.98,3.15,2.59,5.72,4.84,7.72s5.23,3.45,8.94,4.35
	c3.72,0.9,8.35,1.35,13.9,1.35h58.06c5.47,0,10.09-0.45,13.84-1.35c3.76-0.9,6.76-2.35,9-4.35c2.25-2,3.86-4.57,4.84-7.72
	c0.98-3.14,1.47-6.92,1.47-11.33v-4.02c0.08-0.29,0.12-0.61,0.12-0.98v-9.33c0-2.53,0.2-4.67,0.61-6.43
	c0.41-1.76,1.12-3.14,2.14-4.17c1.02-1.02,2.39-1.76,4.1-2.21c1.72-0.45,3.88-0.67,6.49-0.67h32.59c1.47,0,2.21-0.74,2.21-2.21
	V45.27C180.62,43.8,179.89,43.06,178.42,43.06z"/>
</svg>
