<svg version="1.1" xmlns="http://www.w3.org/2000/svg" xmlns:xlink="http://www.w3.org/1999/xlink" stroke-linecap="round" stroke-linejoin="round" stroke-width="0" fill-rule="evenodd" clip-rule="evenodd" id="JV8TgQTNjp9YpHDJuOdf_bottom" viewBox="101000 -75000 10000 19000" width="10mm" height="19mm" class="w-100 h-100"><defs><style>.JV8TgQTNjp9YpHDJuOdf_fr4 {color: #666666;}
.JV8TgQTNjp9YpHDJuOdf_cu {color: #cccccc;}
.JV8TgQTNjp9YpHDJuOdf_cf {color: #cc9933;}
.JV8TgQTNjp9YpHDJuOdf_sm {color: #004200; opacity: 0.75;}
.JV8TgQTNjp9YpHDJuOdf_ss {color: #ffffff;}
.JV8TgQTNjp9YpHDJuOdf_sp {color: #999999;}
.JV8TgQTNjp9YpHDJuOdf_out {color: #000000;}</style><rect x="-850" y="-850" width="1700" height="1700" rx="850" ry="850" id="Fnj3D_k9QXGpL6Ps9Aev_pad-10"/><circle cx="0" cy="0" r="939.8" id="Fnj3D_k9QXGpL6Ps9Aev_pad-11"/><circle cx="0" cy="0" r="175" id="Fnj3D_k9QXGpL6Ps9Aev_pad-13"/><rect x="-1050" y="-1050" width="2100" height="2100" rx="1050" ry="1050" id="ajmhrduplNEqIS05aD0a_pad-10"/><circle cx="0" cy="0" r="1139.8" id="ajmhrduplNEqIS05aD0a_pad-11"/><circle cx="0" cy="0" r="500" id="UZaGtmSGK-Xau0ICrfQ2_pad-1"/><circle cx="0" cy="0" r="546" id="UZaGtmSGK-Xau0ICrfQ2_pad-2"/><g id="JV8TgQTNjp9YpHDJuOdf_bottom_copper"><use xlink:href="#Fnj3D_k9QXGpL6Ps9Aev_pad-10" x="108720" y="-73160"/><use xlink:href="#Fnj3D_k9QXGpL6Ps9Aev_pad-10" x="106180" y="-73160"/><use xlink:href="#Fnj3D_k9QXGpL6Ps9Aev_pad-10" x="103640" y="-73160"/><use xlink:href="#Fnj3D_k9QXGpL6Ps9Aev_pad-10" x="103640" y="-57920"/><use xlink:href="#Fnj3D_k9QXGpL6Ps9Aev_pad-10" x="106180" y="-57920"/><use xlink:href="#Fnj3D_k9QXGpL6Ps9Aev_pad-10" x="108720" y="-57920"/><use xlink:href="#Fnj3D_k9QXGpL6Ps9Aev_pad-11" x="106045" y="-64135"/><use xlink:href="#Fnj3D_k9QXGpL6Ps9Aev_pad-11" x="108585" y="-64135"/><use xlink:href="#Fnj3D_k9QXGpL6Ps9Aev_pad-11" x="103505" y="-64135"/><path d="M 102444.817 -57038.642 102198.514 -57563.108 102319.181 -57793 103513 -57793 103513 -57773 103767 -57773 103767 -57793 103787 -57793 103787 -58047 103767 -58047 103767 -59240.155 103996.89 -59361.476 104406.924 -59191.645 104835.183 -58801.358 104896.157 -58671.522 105109.375 -58990.625 105600.582 -59318.839 106033.744 -59405 106326.256 -59405 106759.418 -59318.839 107250.625 -58990.625 107463.843 -58671.522 107524.817 -58801.358 107953.076 -59191.645 108363.11 -59361.476 108593 -59240.155 108593 -58047 108847 -58047 108847 -59240.155 109076.89 -59361.476 109486.924 -59191.645 109915.183 -58801.358 110161.486 -58276.892 110040.819 -58047 108847 -58047 108593 -58047 108573 -58047 108573 -57793 108593 -57793 108593 -57773 108847 -57773 108847 -57793 110040.819 -57793 110161.486 -57563.108 109915.183 -57038.642 109554.567 -56710 110290.001 -56710 110290 -74290 109701.764 -74290 109790.625 -74230.625 110118.839 -73739.418 110234.092 -73160 110118.839 -72580.582 109790.625 -72089.375 109299.418 -71761.161 108866.256 -71675 108573.744 -71675 108140.582 -71761.161 107649.375 -72089.375 107436.157 -72408.478 107375.183 -72278.642 106946.924 -71888.355 106536.89 -71718.524 106307 -71839.845 106307 -73033 106327 -73033 106327 -73287 106307 -73287 106307 -73307 106053 -73307 106053 -73287 106033 -73287 106033 -73033 106053 -73033 106053 -71839.845 105823.11 -71718.524 105413.076 -71888.355 104984.817 -72278.642 104923.843 -72408.478 104710.625 -72089.375 104219.418 -71761.161 103786.256 -71675 103493.744 -71675 103060.582 -71761.161 102569.375 -72089.375 102241.161 -72580.582 102125.908 -73160 102241.161 -73739.418 102569.375 -74230.625 102658.236 -74290 101710 -74290 101710 -63821.753 101930.2 -63821.753 101930.2 -64448.247 102169.949 -65027.052 102612.948 -65470.051 103191.753 -65709.8 103818.247 -65709.8 104397.052 -65470.051 104775 -65092.103 105152.948 -65470.051 105731.753 -65709.8 106358.247 -65709.8 106937.052 -65470.051 107315 -65092.103 107692.948 -65470.051 108271.753 -65709.8 108898.247 -65709.8 109477.052 -65470.051 109920.051 -65027.052 110159.8 -64448.247 110159.8 -63821.753 109920.051 -63242.948 109477.052 -62799.949 108898.247 -62560.2 108271.753 -62560.2 107692.948 -62799.949 107315 -63177.897 106937.052 -62799.949 106358.247 -62560.2 105731.753 -62560.2 105152.948 -62799.949 104775 -63177.897 104397.052 -62799.949 103818.247 -62560.2 103191.753 -62560.2 102612.948 -62799.949 102169.949 -63242.948 101930.2 -63821.753 101710 -63821.753 101710 -58276.892 102198.514 -58276.892 102444.817 -58801.358 102873.076 -59191.645 103283.11 -59361.476 103513 -59240.155 103513 -58047 102319.181 -58047 102198.514 -58276.892 101710 -58276.892 101710 -56710 102805.433 -56710 102444.817 -57038.642 102444.817 -57038.642"/><path d="M 102444.817 -57038.642 102198.514 -57563.108 102319.181 -57793 103513 -57793 103513 -57773 103767 -57773 103767 -57793 103787 -57793 103787 -58047 103767 -58047 103767 -59240.155 103996.89 -59361.476 104406.924 -59191.645 104835.183 -58801.358 104896.157 -58671.522 105109.375 -58990.625 105600.582 -59318.839 106033.744 -59405 106326.256 -59405 106759.418 -59318.839 107250.625 -58990.625 107463.843 -58671.522 107524.817 -58801.358 107953.076 -59191.645 108363.11 -59361.476 108593 -59240.155 108593 -58047 108847 -58047 108847 -59240.155 109076.89 -59361.476 109486.924 -59191.645 109915.183 -58801.358 110161.486 -58276.892 110040.819 -58047 108847 -58047 108593 -58047 108573 -58047 108573 -57793 108593 -57793 108593 -57773 108847 -57773 108847 -57793 110040.819 -57793 110161.486 -57563.108 109915.183 -57038.642 109554.567 -56710 110290.001 -56710 110290 -74290 109701.764 -74290 109790.625 -74230.625 110118.839 -73739.418 110234.092 -73160 110118.839 -72580.582 109790.625 -72089.375 109299.418 -71761.161 108866.256 -71675 108573.744 -71675 108140.582 -71761.161 107649.375 -72089.375 107436.157 -72408.478 107375.183 -72278.642 106946.924 -71888.355 106536.89 -71718.524 106307 -71839.845 106307 -73033 106327 -73033 106327 -73287 106307 -73287 106307 -73307 106053 -73307 106053 -73287 106033 -73287 106033 -73033 106053 -73033 106053 -71839.845 105823.11 -71718.524 105413.076 -71888.355 104984.817 -72278.642 104923.843 -72408.478 104710.625 -72089.375 104219.418 -71761.161 103786.256 -71675 103493.744 -71675 103060.582 -71761.161 102569.375 -72089.375 102241.161 -72580.582 102125.908 -73160 102241.161 -73739.418 102569.375 -74230.625 102658.236 -74290 101710 -74290 101710 -63821.753 101930.2 -63821.753 101930.2 -64448.247 102169.949 -65027.052 102612.948 -65470.051 103191.753 -65709.8 103818.247 -65709.8 104397.052 -65470.051 104775 -65092.103 105152.948 -65470.051 105731.753 -65709.8 106358.247 -65709.8 106937.052 -65470.051 107315 -65092.103 107692.948 -65470.051 108271.753 -65709.8 108898.247 -65709.8 109477.052 -65470.051 109920.051 -65027.052 110159.8 -64448.247 110159.8 -63821.753 109920.051 -63242.948 109477.052 -62799.949 108898.247 -62560.2 108271.753 -62560.2 107692.948 -62799.949 107315 -63177.897 106937.052 -62799.949 106358.247 -62560.2 105731.753 -62560.2 105152.948 -62799.949 104775 -63177.897 104397.052 -62799.949 103818.247 -62560.2 103191.753 -62560.2 102612.948 -62799.949 102169.949 -63242.948 101930.2 -63821.753 101710 -63821.753 101710 -58276.892 102198.514 -58276.892 102444.817 -58801.358 102873.076 -59191.645 103283.11 -59361.476 103513 -59240.155 103513 -58047 102319.181 -58047 102198.514 -58276.892 101710 -58276.892 101710 -56710 102805.433 -56710 102444.817 -57038.642" fill="none" stroke-width="254"/><use xlink:href="#Fnj3D_k9QXGpL6Ps9Aev_pad-13" x="108720" y="-73160"/><use xlink:href="#Fnj3D_k9QXGpL6Ps9Aev_pad-13" x="106180" y="-73160"/><use xlink:href="#Fnj3D_k9QXGpL6Ps9Aev_pad-13" x="103640" y="-73160"/><use xlink:href="#Fnj3D_k9QXGpL6Ps9Aev_pad-13" x="103640" y="-57920"/><use xlink:href="#Fnj3D_k9QXGpL6Ps9Aev_pad-13" x="106180" y="-57920"/><use xlink:href="#Fnj3D_k9QXGpL6Ps9Aev_pad-13" x="108720" y="-57920"/><use xlink:href="#Fnj3D_k9QXGpL6Ps9Aev_pad-13" x="106045" y="-64135"/><use xlink:href="#Fnj3D_k9QXGpL6Ps9Aev_pad-13" x="108585" y="-64135"/><use xlink:href="#Fnj3D_k9QXGpL6Ps9Aev_pad-13" x="103505" y="-64135"/></g><g id="JV8TgQTNjp9YpHDJuOdf_bottom_soldermask"><use xlink:href="#ajmhrduplNEqIS05aD0a_pad-10" x="108720" y="-73160"/><use xlink:href="#ajmhrduplNEqIS05aD0a_pad-10" x="106180" y="-73160"/><use xlink:href="#ajmhrduplNEqIS05aD0a_pad-10" x="103640" y="-73160"/><use xlink:href="#ajmhrduplNEqIS05aD0a_pad-10" x="103640" y="-57920"/><use xlink:href="#ajmhrduplNEqIS05aD0a_pad-10" x="106180" y="-57920"/><use xlink:href="#ajmhrduplNEqIS05aD0a_pad-10" x="108720" y="-57920"/><use xlink:href="#ajmhrduplNEqIS05aD0a_pad-11" x="106045" y="-64135"/><use xlink:href="#ajmhrduplNEqIS05aD0a_pad-11" x="108585" y="-64135"/><use xlink:href="#ajmhrduplNEqIS05aD0a_pad-11" x="103505" y="-64135"/></g><g id="JV8TgQTNjp9YpHDJuOdf_bottom_drill1"><use xlink:href="#UZaGtmSGK-Xau0ICrfQ2_pad-1" x="103640" y="-57920"/><use xlink:href="#UZaGtmSGK-Xau0ICrfQ2_pad-1" x="106180" y="-57920"/><use xlink:href="#UZaGtmSGK-Xau0ICrfQ2_pad-1" x="108720" y="-57920"/><use xlink:href="#UZaGtmSGK-Xau0ICrfQ2_pad-1" x="103640" y="-73160"/><use xlink:href="#UZaGtmSGK-Xau0ICrfQ2_pad-1" x="106180" y="-73160"/><use xlink:href="#UZaGtmSGK-Xau0ICrfQ2_pad-1" x="108720" y="-73160"/><use xlink:href="#UZaGtmSGK-Xau0ICrfQ2_pad-2" x="103505" y="-64135"/><use xlink:href="#UZaGtmSGK-Xau0ICrfQ2_pad-2" x="106045" y="-64135"/><use xlink:href="#UZaGtmSGK-Xau0ICrfQ2_pad-2" x="108585" y="-64135"/></g><clipPath id="JV8TgQTNjp9YpHDJuOdf_bottom_outline"><path d="M 101000 -56000 101000 -75000 111000 -75000 111000 -56000 101000 -56000" fill="none" stroke-width="150"/></clipPath><mask id="JV8TgQTNjp9YpHDJuOdf_bottom_mech-mask"><g fill="#000" stroke="#000"><rect x="101000" y="-75000" width="10000" height="19000" fill="#fff"/><use xlink:href="#JV8TgQTNjp9YpHDJuOdf_bottom_drill1"/></g></mask><mask id="JV8TgQTNjp9YpHDJuOdf_bottom_cf-mask"><g fill="#fff" stroke="#fff"><use xlink:href="#JV8TgQTNjp9YpHDJuOdf_bottom_soldermask"/></g></mask><mask id="JV8TgQTNjp9YpHDJuOdf_bottom_sm-mask"><g fill="#000" stroke="#000"><rect x="101000" y="-75000" width="10000" height="19000" fill="#fff"/><use xlink:href="#JV8TgQTNjp9YpHDJuOdf_bottom_soldermask"/></g></mask></defs><g transform="translate(0,-131000) scale(1,-1)"><g mask="url(#JV8TgQTNjp9YpHDJuOdf_bottom_mech-mask)" clip-path="url(#JV8TgQTNjp9YpHDJuOdf_bottom_outline)" transform="translate(212000,0) scale(-1,1)"><rect x="101000" y="-75000" width="10000" height="19000" fill="currentColor" class="JV8TgQTNjp9YpHDJuOdf_fr4"/><use xlink:href="#JV8TgQTNjp9YpHDJuOdf_bottom_copper" fill="currentColor" stroke="currentColor" class="JV8TgQTNjp9YpHDJuOdf_cu"/><use xlink:href="#JV8TgQTNjp9YpHDJuOdf_bottom_copper" fill="currentColor" stroke="currentColor" class="JV8TgQTNjp9YpHDJuOdf_cf" mask="url(#JV8TgQTNjp9YpHDJuOdf_bottom_cf-mask)"/><g mask="url(#JV8TgQTNjp9YpHDJuOdf_bottom_sm-mask)"><rect x="101000" y="-75000" width="10000" height="19000" fill="currentColor" class="JV8TgQTNjp9YpHDJuOdf_sm"/></g></g></g></svg>