<svg version="1.1" xmlns="http://www.w3.org/2000/svg" xmlns:xlink="http://www.w3.org/1999/xlink" stroke-linecap="round" stroke-linejoin="round" stroke-width="0" fill-rule="evenodd" clip-rule="evenodd" id="lUnZGcdK3XGGyBxnMDWY_bottom" viewBox="101000 -75000 10000 19000" width="10mm" height="19mm" class="w-100 h-100"><defs><style>.lUnZGcdK3XGGyBxnMDWY_fr4 {color: #666666;}
.lUnZGcdK3XGGyBxnMDWY_cu {color: #cccccc;}
.lUnZGcdK3XGGyBxnMDWY_cf {color: #cc9933;}
.lUnZGcdK3XGGyBxnMDWY_sm {color: #004200; opacity: 0.75;}
.lUnZGcdK3XGGyBxnMDWY_ss {color: #ffffff;}
.lUnZGcdK3XGGyBxnMDWY_sp {color: #999999;}
.lUnZGcdK3XGGyBxnMDWY_out {color: #000000;}</style><rect x="-1050" y="-1050" width="2100" height="2100" rx="1050" ry="1050" id="LDnm5WklFz_drKvHiNB9_pad-10"/><circle cx="0" cy="0" r="1139.8" id="LDnm5WklFz_drKvHiNB9_pad-11"/><rect x="-850" y="-850" width="1700" height="1700" rx="850" ry="850" id="_Sri2b5dsQgIIBT1WUam_pad-10"/><circle cx="0" cy="0" r="939.8" id="_Sri2b5dsQgIIBT1WUam_pad-11"/><circle cx="0" cy="0" r="175" id="_Sri2b5dsQgIIBT1WUam_pad-14"/><circle cx="0" cy="0" r="500" id="ZQL9qYGsnCTrNd8-N-30_pad-1"/><circle cx="0" cy="0" r="546" id="ZQL9qYGsnCTrNd8-N-30_pad-2"/><g id="lUnZGcdK3XGGyBxnMDWY_bottom_soldermask"><use xlink:href="#LDnm5WklFz_drKvHiNB9_pad-10" x="108720" y="-73160"/><use xlink:href="#LDnm5WklFz_drKvHiNB9_pad-10" x="106180" y="-73160"/><use xlink:href="#LDnm5WklFz_drKvHiNB9_pad-10" x="103640" y="-73160"/><use xlink:href="#LDnm5WklFz_drKvHiNB9_pad-10" x="103640" y="-57920"/><use xlink:href="#LDnm5WklFz_drKvHiNB9_pad-10" x="106180" y="-57920"/><use xlink:href="#LDnm5WklFz_drKvHiNB9_pad-10" x="108720" y="-57920"/><use xlink:href="#LDnm5WklFz_drKvHiNB9_pad-11" x="106045" y="-64135"/><use xlink:href="#LDnm5WklFz_drKvHiNB9_pad-11" x="108585" y="-64135"/><use xlink:href="#LDnm5WklFz_drKvHiNB9_pad-11" x="103505" y="-64135"/></g><g id="lUnZGcdK3XGGyBxnMDWY_bottom_copper"><use xlink:href="#_Sri2b5dsQgIIBT1WUam_pad-10" x="108720" y="-73160"/><use xlink:href="#_Sri2b5dsQgIIBT1WUam_pad-10" x="106180" y="-73160"/><use xlink:href="#_Sri2b5dsQgIIBT1WUam_pad-10" x="103640" y="-73160"/><use xlink:href="#_Sri2b5dsQgIIBT1WUam_pad-10" x="103640" y="-57920"/><use xlink:href="#_Sri2b5dsQgIIBT1WUam_pad-10" x="106180" y="-57920"/><use xlink:href="#_Sri2b5dsQgIIBT1WUam_pad-10" x="108720" y="-57920"/><use xlink:href="#_Sri2b5dsQgIIBT1WUam_pad-11" x="106045" y="-64135"/><use xlink:href="#_Sri2b5dsQgIIBT1WUam_pad-11" x="108585" y="-64135"/><use xlink:href="#_Sri2b5dsQgIIBT1WUam_pad-11" x="103505" y="-64135"/><path d="M 103640 -69760 103640 -73160 M 108585 -64815 103640 -69760 M 108585 -64135 108585 -64815" fill="none" stroke-width="406.4"/><path d="M 102444.817 -57038.642 102198.514 -57563.108 102319.181 -57793 103513 -57793 103513 -57773 103767 -57773 103767 -57793 106053 -57793 106053 -57773 106307 -57773 106307 -57793 108593 -57793 108593 -57773 108847 -57773 108847 -57793 110040.819 -57793 110161.486 -57563.108 109915.183 -57038.642 109554.567 -56710 110290.001 -56710 110290 -74290 109701.764 -74290 109790.625 -74230.625 110118.839 -73739.418 110234.092 -73160 110118.839 -72580.582 109790.625 -72089.375 109299.418 -71761.161 108866.256 -71675 108573.744 -71675 108140.582 -71761.161 107649.375 -72089.375 107436.157 -72408.478 107375.183 -72278.642 106946.924 -71888.355 106536.89 -71718.524 106307 -71839.845 106307 -73033 106327 -73033 106327 -73287 106307 -73287 106307 -73307 106053 -73307 106053 -73287 106033 -73287 106033 -73033 106053 -73033 106053 -71839.845 105823.11 -71718.524 105413.076 -71888.355 104984.817 -72278.642 104923.843 -72408.478 104710.625 -72089.375 104478.2 -71934.074 104478.2 -70107.193 108875.594 -65709.8 108898.247 -65709.8 109477.052 -65470.051 109920.051 -65027.052 110159.8 -64448.247 110159.8 -63821.753 109920.051 -63242.948 109477.052 -62799.949 108898.247 -62560.2 108271.753 -62560.2 107692.948 -62799.949 107252.683 -63240.214 107153.968 -63205.637 106224.605 -64135 106238.748 -64149.143 106059.143 -64328.748 106045 -64314.605 105115.637 -65243.968 105206.923 -65504.58 105794.833 -65721.045 106420.828 -65696.049 106587.662 -65626.944 103105.679 -69108.928 103035.692 -69155.692 102850.433 -69432.952 102801.8 -69677.447 102801.8 -69677.451 102785.38 -69760 102801.8 -69842.549 102801.801 -71934.073 102569.375 -72089.375 102241.161 -72580.582 102125.908 -73160 102241.161 -73739.418 102569.375 -74230.625 102658.236 -74290 101710 -74290 101710 -63821.753 101930.2 -63821.753 101930.2 -64448.247 102169.949 -65027.052 102612.948 -65470.051 103191.753 -65709.8 103818.247 -65709.8 104397.052 -65470.051 104837.317 -65029.786 104936.032 -65064.363 105865.395 -64135 104936.032 -63205.637 104837.317 -63240.214 104623.135 -63026.032 105115.637 -63026.032 106045 -63955.395 106974.363 -63026.032 106883.077 -62765.42 106295.167 -62548.955 105669.172 -62573.951 105206.923 -62765.42 105115.637 -63026.032 104623.135 -63026.032 104397.052 -62799.949 103818.247 -62560.2 103191.753 -62560.2 102612.948 -62799.949 102169.949 -63242.948 101930.2 -63821.753 101710 -63821.753 101710 -58276.892 102198.514 -58276.892 102444.817 -58801.358 102873.076 -59191.645 103283.11 -59361.476 103513 -59240.155 103513 -58047 103767 -58047 103767 -59240.155 103996.89 -59361.476 104406.924 -59191.645 104835.183 -58801.358 104910 -58642.046 104984.817 -58801.358 105413.076 -59191.645 105823.11 -59361.476 106053 -59240.155 106053 -58047 106307 -58047 106307 -59240.155 106536.89 -59361.476 106946.924 -59191.645 107375.183 -58801.358 107450 -58642.046 107524.817 -58801.358 107953.076 -59191.645 108363.11 -59361.476 108593 -59240.155 108593 -58047 108847 -58047 108847 -59240.155 109076.89 -59361.476 109486.924 -59191.645 109915.183 -58801.358 110161.486 -58276.892 110040.819 -58047 108847 -58047 108593 -58047 106307 -58047 106053 -58047 103767 -58047 103513 -58047 102319.181 -58047 102198.514 -58276.892 101710 -58276.892 101710 -56710 102805.433 -56710 102444.817 -57038.642 102444.817 -57038.642"/><path d="M 102444.817 -57038.642 102198.514 -57563.108 102319.181 -57793 103513 -57793 103513 -57773 103767 -57773 103767 -57793 106053 -57793 106053 -57773 106307 -57773 106307 -57793 108593 -57793 108593 -57773 108847 -57773 108847 -57793 110040.819 -57793 110161.486 -57563.108 109915.183 -57038.642 109554.567 -56710 110290.001 -56710 110290 -74290 109701.764 -74290 109790.625 -74230.625 110118.839 -73739.418 110234.092 -73160 110118.839 -72580.582 109790.625 -72089.375 109299.418 -71761.161 108866.256 -71675 108573.744 -71675 108140.582 -71761.161 107649.375 -72089.375 107436.157 -72408.478 107375.183 -72278.642 106946.924 -71888.355 106536.89 -71718.524 106307 -71839.845 106307 -73033 106327 -73033 106327 -73287 106307 -73287 106307 -73307 106053 -73307 106053 -73287 106033 -73287 106033 -73033 106053 -73033 106053 -71839.845 105823.11 -71718.524 105413.076 -71888.355 104984.817 -72278.642 104923.843 -72408.478 104710.625 -72089.375 104478.2 -71934.074 104478.2 -70107.193 108875.594 -65709.8 108898.247 -65709.8 109477.052 -65470.051 109920.051 -65027.052 110159.8 -64448.247 110159.8 -63821.753 109920.051 -63242.948 109477.052 -62799.949 108898.247 -62560.2 108271.753 -62560.2 107692.948 -62799.949 107252.683 -63240.214 107153.968 -63205.637 106224.605 -64135 106238.748 -64149.143 106059.143 -64328.748 106045 -64314.605 105115.637 -65243.968 105206.923 -65504.58 105794.833 -65721.045 106420.828 -65696.049 106587.662 -65626.944 103105.679 -69108.928 103035.692 -69155.692 102850.433 -69432.952 102801.8 -69677.447 102801.8 -69677.451 102785.38 -69760 102801.8 -69842.549 102801.801 -71934.073 102569.375 -72089.375 102241.161 -72580.582 102125.908 -73160 102241.161 -73739.418 102569.375 -74230.625 102658.236 -74290 101710 -74290 101710 -63821.753 101930.2 -63821.753 101930.2 -64448.247 102169.949 -65027.052 102612.948 -65470.051 103191.753 -65709.8 103818.247 -65709.8 104397.052 -65470.051 104837.317 -65029.786 104936.032 -65064.363 105865.395 -64135 104936.032 -63205.637 104837.317 -63240.214 104623.135 -63026.032 105115.637 -63026.032 106045 -63955.395 106974.363 -63026.032 106883.077 -62765.42 106295.167 -62548.955 105669.172 -62573.951 105206.923 -62765.42 105115.637 -63026.032 104623.135 -63026.032 104397.052 -62799.949 103818.247 -62560.2 103191.753 -62560.2 102612.948 -62799.949 102169.949 -63242.948 101930.2 -63821.753 101710 -63821.753 101710 -58276.892 102198.514 -58276.892 102444.817 -58801.358 102873.076 -59191.645 103283.11 -59361.476 103513 -59240.155 103513 -58047 103767 -58047 103767 -59240.155 103996.89 -59361.476 104406.924 -59191.645 104835.183 -58801.358 104910 -58642.046 104984.817 -58801.358 105413.076 -59191.645 105823.11 -59361.476 106053 -59240.155 106053 -58047 106307 -58047 106307 -59240.155 106536.89 -59361.476 106946.924 -59191.645 107375.183 -58801.358 107450 -58642.046 107524.817 -58801.358 107953.076 -59191.645 108363.11 -59361.476 108593 -59240.155 108593 -58047 108847 -58047 108847 -59240.155 109076.89 -59361.476 109486.924 -59191.645 109915.183 -58801.358 110161.486 -58276.892 110040.819 -58047 108847 -58047 108593 -58047 106307 -58047 106053 -58047 103767 -58047 103513 -58047 102319.181 -58047 102198.514 -58276.892 101710 -58276.892 101710 -56710 102805.433 -56710 102444.817 -57038.642" fill="none" stroke-width="254"/><use xlink:href="#_Sri2b5dsQgIIBT1WUam_pad-14" x="108720" y="-73160"/><use xlink:href="#_Sri2b5dsQgIIBT1WUam_pad-14" x="106180" y="-73160"/><use xlink:href="#_Sri2b5dsQgIIBT1WUam_pad-14" x="103640" y="-73160"/><use xlink:href="#_Sri2b5dsQgIIBT1WUam_pad-14" x="103640" y="-57920"/><use xlink:href="#_Sri2b5dsQgIIBT1WUam_pad-14" x="106180" y="-57920"/><use xlink:href="#_Sri2b5dsQgIIBT1WUam_pad-14" x="108720" y="-57920"/><use xlink:href="#_Sri2b5dsQgIIBT1WUam_pad-14" x="106045" y="-64135"/><use xlink:href="#_Sri2b5dsQgIIBT1WUam_pad-14" x="108585" y="-64135"/><use xlink:href="#_Sri2b5dsQgIIBT1WUam_pad-14" x="103505" y="-64135"/></g><g id="lUnZGcdK3XGGyBxnMDWY_bottom_drill1"><use xlink:href="#ZQL9qYGsnCTrNd8-N-30_pad-1" x="103640" y="-73160"/><use xlink:href="#ZQL9qYGsnCTrNd8-N-30_pad-1" x="106180" y="-73160"/><use xlink:href="#ZQL9qYGsnCTrNd8-N-30_pad-1" x="108720" y="-73160"/><use xlink:href="#ZQL9qYGsnCTrNd8-N-30_pad-1" x="103640" y="-57920"/><use xlink:href="#ZQL9qYGsnCTrNd8-N-30_pad-1" x="106180" y="-57920"/><use xlink:href="#ZQL9qYGsnCTrNd8-N-30_pad-1" x="108720" y="-57920"/><use xlink:href="#ZQL9qYGsnCTrNd8-N-30_pad-2" x="103505" y="-64135"/><use xlink:href="#ZQL9qYGsnCTrNd8-N-30_pad-2" x="106045" y="-64135"/><use xlink:href="#ZQL9qYGsnCTrNd8-N-30_pad-2" x="108585" y="-64135"/></g><clipPath id="lUnZGcdK3XGGyBxnMDWY_bottom_outline"><path d="M 101000 -56000 101000 -75000 111000 -75000 111000 -56000 101000 -56000" fill="none" stroke-width="150"/></clipPath><mask id="lUnZGcdK3XGGyBxnMDWY_bottom_mech-mask"><g fill="#000" stroke="#000"><rect x="101000" y="-75000" width="10000" height="19000" fill="#fff"/><use xlink:href="#lUnZGcdK3XGGyBxnMDWY_bottom_drill1"/></g></mask><mask id="lUnZGcdK3XGGyBxnMDWY_bottom_cf-mask"><g fill="#fff" stroke="#fff"><use xlink:href="#lUnZGcdK3XGGyBxnMDWY_bottom_soldermask"/></g></mask><mask id="lUnZGcdK3XGGyBxnMDWY_bottom_sm-mask"><g fill="#000" stroke="#000"><rect x="101000" y="-75000" width="10000" height="19000" fill="#fff"/><use xlink:href="#lUnZGcdK3XGGyBxnMDWY_bottom_soldermask"/></g></mask></defs><g transform="translate(0,-131000) scale(1,-1)"><g mask="url(#lUnZGcdK3XGGyBxnMDWY_bottom_mech-mask)" clip-path="url(#lUnZGcdK3XGGyBxnMDWY_bottom_outline)" transform="translate(212000,0) scale(-1,1)"><rect x="101000" y="-75000" width="10000" height="19000" fill="currentColor" class="lUnZGcdK3XGGyBxnMDWY_fr4"/><use xlink:href="#lUnZGcdK3XGGyBxnMDWY_bottom_copper" fill="currentColor" stroke="currentColor" class="lUnZGcdK3XGGyBxnMDWY_cu"/><use xlink:href="#lUnZGcdK3XGGyBxnMDWY_bottom_copper" fill="currentColor" stroke="currentColor" class="lUnZGcdK3XGGyBxnMDWY_cf" mask="url(#lUnZGcdK3XGGyBxnMDWY_bottom_cf-mask)"/><g mask="url(#lUnZGcdK3XGGyBxnMDWY_bottom_sm-mask)"><rect x="101000" y="-75000" width="10000" height="19000" fill="currentColor" class="lUnZGcdK3XGGyBxnMDWY_sm"/></g></g></g></svg>