<?xml version="1.0" encoding="UTF-8" standalone="no"?>
<svg
   xmlns:dc="http://purl.org/dc/elements/1.1/"
   xmlns:cc="http://creativecommons.org/ns#"
   xmlns:rdf="http://www.w3.org/1999/02/22-rdf-syntax-ns#"
   xmlns:svg="http://www.w3.org/2000/svg"
   xmlns="http://www.w3.org/2000/svg"
   xmlns:sodipodi="http://sodipodi.sourceforge.net/DTD/sodipodi-0.dtd"
   xmlns:inkscape="http://www.inkscape.org/namespaces/inkscape"
   width="40.639999mm"
   height="128.5mm"
   viewBox="0 0 40.640003 128.50002"
   version="1.1"
   id="svg8"
   inkscape:version="1.0.2 (e86c8708, 2021-01-15)"
   sodipodi:docname="Drop.svg">
  <defs
     id="defs2" />
  <sodipodi:namedview
     id="base"
     pagecolor="#ffffff"
     bordercolor="#666666"
     borderopacity="1.0"
     inkscape:pageopacity="0.0"
     inkscape:pageshadow="2"
     inkscape:zoom="2.4565667"
     inkscape:cx="1.5158658"
     inkscape:cy="339.43235"
     inkscape:document-units="mm"
     inkscape:current-layer="layer1"
     showgrid="false"
     units="mm"
     inkscape:snap-bbox="true"
     inkscape:snap-page="true"
     inkscape:bbox-nodes="false"
     inkscape:snap-bbox-edge-midpoints="false"
     inkscape:window-width="1440"
     inkscape:window-height="855"
     inkscape:window-x="122"
     inkscape:window-y="183"
     inkscape:window-maximized="0"
     inkscape:snap-bbox-midpoints="true"
     inkscape:snap-nodes="false"
     inkscape:document-rotation="0" />
  <metadata
     id="metadata5">
    <rdf:RDF>
      <cc:Work
         rdf:about="">
        <dc:format>image/svg+xml</dc:format>
        <dc:type
           rdf:resource="http://purl.org/dc/dcmitype/StillImage" />
        <dc:title />
      </cc:Work>
    </rdf:RDF>
  </metadata>
  <g
     inkscape:label="Layer 1"
     inkscape:groupmode="layer"
     id="layer1"
     transform="translate(0,-168.49998)">
    <path
       id="rect420"
       style="display:inline;opacity:1;vector-effect:none;fill:#e6e6e6;fill-opacity:1;fill-rule:evenodd;stroke:none;stroke-width:0.749814;stroke-linecap:butt;stroke-linejoin:miter;stroke-miterlimit:4;stroke-dasharray:none;stroke-dashoffset:0;stroke-opacity:1;paint-order:normal"
       d="m 0,168.49997 h 40.639999 v 128.5 H 0 Z" />
    <path
       inkscape:connector-curvature="0"
       id="path530"
       d="m 32.781066,280.34156 c 0,-0.54984 -0.45064,-0.99908 -1.000481,-0.99908 h -7.68117 c -0.54984,0 -1.00048,0.44924 -1.00048,0.99908 v 12.17359 c 0,0.54983 0.45064,0.99908 1.00048,0.99908 h 7.68117 c 0.54984,0 1.000481,-0.44925 1.000481,-0.99908 z m 0,0"
       style="display:inline;fill:#000000;fill-opacity:1;fill-rule:nonzero;stroke:none;stroke-width:0.352778" />
    <path
       inkscape:connector-curvature="0"
       id="path125847"
       d="m 17.541065,280.34156 c 0,-0.54984 -0.45064,-0.99908 -1.000481,-0.99908 H 8.8594148 c -0.54984,0 -1.00048,0.44924 -1.00048,0.99908 v 12.17359 c 0,0.54983 0.45064,0.99908 1.00048,0.99908 h 7.6811692 c 0.54984,0 1.000481,-0.44925 1.000481,-0.99908 z m 0,0"
       style="display:inline;fill:#000000;fill-opacity:1;fill-rule:nonzero;stroke:none;stroke-width:0.352778" />
    <g
       aria-label="DROP"
       id="text50"
       style="font-style:normal;font-variant:normal;font-weight:bold;font-stretch:normal;font-size:3.175px;line-height:1.25;font-family:Nunito;-inkscape-font-specification:'Nunito, Bold';font-variant-ligatures:normal;font-variant-caps:normal;font-variant-numeric:normal;font-variant-east-asian:normal;fill:#000000;fill-opacity:1;stroke:none;stroke-width:0.264583">
      <path
         d="m 16.247317,175.96306 h 0.551904 q 0.567407,0 0.875916,-0.28526 0.308508,-0.28525 0.308508,-0.82165 0,-0.55035 -0.308508,-0.83871 -0.308509,-0.2899 -0.911573,-0.2899 h -0.492993 q -0.113171,0 -0.179834,0.0698 -0.06511,0.0698 -0.06511,0.19224 v 1.71307 q 0,0.10697 0.06201,0.18448 0.06201,0.076 0.15968,0.076 z m 0.221692,-0.34262 v -1.54874 h 0.313159 q 0.258899,0 0.418579,0.0744 0.15968,0.0729 0.240295,0.24494 0.08062,0.17053 0.08062,0.45579 0,0.41393 -0.15813,0.59376 -0.15658,0.17983 -0.548804,0.17983 z"
         style="font-style:normal;font-variant:normal;font-weight:bold;font-stretch:normal;font-size:3.175px;font-family:Nunito;-inkscape-font-specification:'Nunito, Bold';font-variant-ligatures:normal;font-variant-caps:normal;font-variant-numeric:normal;font-variant-east-asian:normal;text-align:center;text-anchor:middle;stroke-width:0.264583"
         id="path182" />
      <path
         d="m 18.628567,175.96151 q 0.09147,0 0.156579,-0.0605 0.06666,-0.0605 0.06666,-0.16899 v -0.72708 h 0.406177 0.0062 q 0.10852,0 0.178284,0.0202 0.07131,0.0202 0.114721,0.0682 0.04341,0.0465 0.06356,0.11163 0.02015,0.0651 0.03101,0.16898 l 0.03876,0.35811 q 0.01085,0.11318 0.07752,0.17209 0.06666,0.0574 0.15968,0.0574 0.08992,0 0.148828,-0.0589 0.06046,-0.0589 0.06046,-0.16433 0,-0.0264 -0.0016,-0.0403 l -0.04341,-0.36587 q -0.0248,-0.22014 -0.131775,-0.34727 -0.10542,-0.12867 -0.32091,-0.17053 v -0.006 q 0.252697,-0.0403 0.378271,-0.17673 0.125574,-0.13798 0.125574,-0.33642 0,-0.56895 -0.817004,-0.56895 h -0.68368 q -0.09767,0 -0.167431,0.0651 -0.06821,0.0636 -0.06821,0.16278 v 1.77818 q 0,0.10698 0.06511,0.16899 0.06511,0.0605 0.15658,0.0605 z m 0.221692,-1.28674 v -0.61392 h 0.378271 0.03256 q 0.05581,0 0.09147,0.002 0.03566,0.002 0.08682,0.008 0.05116,0.005 0.08216,0.017 0.03256,0.0109 0.06976,0.0326 0.03721,0.0217 0.05736,0.0527 0.02171,0.031 0.03566,0.0791 0.01395,0.0465 0.01395,0.10697 0,0.0636 -0.01705,0.11317 -0.01705,0.0496 -0.04341,0.0822 -0.02635,0.0326 -0.07131,0.0558 -0.04341,0.0233 -0.08527,0.0357 -0.04031,0.0124 -0.100769,0.0202 -0.05891,0.006 -0.10387,0.008 -0.04341,0.002 -0.10852,0.002 z"
         style="font-style:normal;font-variant:normal;font-weight:bold;font-stretch:normal;font-size:3.175px;font-family:Nunito;-inkscape-font-specification:'Nunito, Bold';font-variant-ligatures:normal;font-variant-caps:normal;font-variant-numeric:normal;font-variant-east-asian:normal;text-align:center;text-anchor:middle;stroke-width:0.264583"
         id="path184" />
      <path
         d="m 21.589626,175.653 q -0.313159,0 -0.466638,-0.21084 -0.151929,-0.21239 -0.151929,-0.60771 0,-0.39223 0.153479,-0.60462 0.153479,-0.21394 0.465088,-0.21394 0.313159,0 0.465088,0.21239 0.153479,0.21239 0.153479,0.60617 0,0.39532 -0.153479,0.60771 -0.153479,0.21084 -0.465088,0.21084 z m 0,0.35037 q 0.522449,0 0.804602,-0.31161 0.282154,-0.31161 0.282154,-0.85731 0,-0.54571 -0.282154,-0.85732 -0.282153,-0.31316 -0.804602,-0.31316 -0.519348,0 -0.803052,0.31316 -0.283703,0.31161 -0.283703,0.85732 0,0.5457 0.283703,0.85731 0.283704,0.31161 0.803052,0.31161 z"
         style="font-style:normal;font-variant:normal;font-weight:bold;font-stretch:normal;font-size:3.175px;font-family:Nunito;-inkscape-font-specification:'Nunito, Bold';font-variant-ligatures:normal;font-variant-caps:normal;font-variant-numeric:normal;font-variant-east-asian:normal;text-align:center;text-anchor:middle;stroke-width:0.264583"
         id="path186" />
      <path
         d="m 23.324404,175.96461 q 0.09147,0 0.156579,-0.0636 0.06666,-0.0636 0.06666,-0.16743 v -0.65888 h 0.432532 q 0.84801,0 0.84801,-0.67593 0,-0.18448 -0.05736,-0.31626 -0.05736,-0.13332 -0.168982,-0.20929 -0.110071,-0.0775 -0.255798,-0.11162 -0.144177,-0.0357 -0.336414,-0.0357 h -0.666626 q -0.114721,0 -0.178283,0.0775 -0.06356,0.0775 -0.06356,0.19534 v 1.73478 q 0,0.10386 0.06666,0.16743 0.06666,0.0636 0.15658,0.0636 z m 0.223242,-1.21233 v -0.68678 h 0.413928 q 0.108521,0 0.179834,0.0124 0.07286,0.0124 0.131775,0.0465 0.06046,0.0341 0.08837,0.10232 0.02791,0.0682 0.02791,0.17208 0,0.10697 -0.02791,0.17674 -0.02791,0.0698 -0.08837,0.10852 -0.05891,0.0372 -0.134875,0.0527 -0.07441,0.0155 -0.187586,0.0155 z"
         style="font-style:normal;font-variant:normal;font-weight:bold;font-stretch:normal;font-size:3.175px;font-family:Nunito;-inkscape-font-specification:'Nunito, Bold';font-variant-ligatures:normal;font-variant-caps:normal;font-variant-numeric:normal;font-variant-east-asian:normal;text-align:center;text-anchor:middle;stroke-width:0.264583"
         id="path188" />
    </g>
    <g
       aria-label="OUT L"
       id="text56"
       style="font-style:normal;font-variant:normal;font-weight:normal;font-stretch:normal;font-size:2.29306px;line-height:1.25;font-family:Nunito;-inkscape-font-specification:'Nunito, Normal';font-variant-ligatures:normal;font-variant-caps:normal;font-variant-numeric:normal;font-variant-east-asian:normal;fill:#ffffff;fill-opacity:1;stroke:none;stroke-width:0.264583">
      <path
         d="m 10.143303,291.75996 q -0.2261707,0 -0.3370169,-0.15228 -0.1097265,-0.15339 -0.1097265,-0.4389 0,-0.28328 0.1108462,-0.43667 0.1108461,-0.15451 0.3358972,-0.15451 0.226171,0 0.335898,0.15339 0.110846,0.15339 0.110846,0.43779 0,0.28551 -0.110846,0.4389 -0.110846,0.15228 -0.335898,0.15228 z m 0,0.25304 q 0.377325,0 0.581103,-0.22505 0.203778,-0.22505 0.203778,-0.61917 0,-0.39412 -0.203778,-0.61918 -0.203778,-0.22617 -0.581103,-0.22617 -0.3750853,0 -0.5799827,0.22617 -0.2048975,0.22506 -0.2048975,0.61918 0,0.39412 0.2048975,0.61917 0.2048974,0.22505 0.5799827,0.22505 z"
         style="font-style:normal;font-variant:normal;font-weight:normal;font-stretch:normal;font-size:2.29306px;font-family:Nunito;-inkscape-font-specification:'Nunito, Normal';font-variant-ligatures:normal;font-variant-caps:normal;font-variant-numeric:normal;font-variant-east-asian:normal;text-align:center;text-anchor:middle;fill:#ffffff;stroke-width:0.264583"
         id="path173" />
      <path
         d="m 11.894449,292.013 q 0.141077,0 0.26088,-0.0369 0.120923,-0.0369 0.212735,-0.10749 0.09181,-0.0717 0.143316,-0.18474 0.05262,-0.11309 0.05262,-0.25752 v -0.89685 q 0,-0.075 -0.04814,-0.12092 -0.04703,-0.0459 -0.111966,-0.0459 -0.06606,0 -0.114205,0.0459 -0.04703,0.0459 -0.04703,0.12092 v 0.88901 q 0,0.0873 -0.03023,0.15563 -0.02911,0.0672 -0.0795,0.10637 -0.05039,0.0392 -0.110846,0.0593 -0.06046,0.0202 -0.127641,0.0202 -0.06718,0 -0.127641,-0.0202 -0.05934,-0.0202 -0.108607,-0.0593 -0.04927,-0.0392 -0.0795,-0.10637 -0.02911,-0.0683 -0.02911,-0.15563 v -0.88901 q 0,-0.075 -0.04815,-0.12092 -0.04703,-0.0459 -0.113086,-0.0459 -0.06606,0 -0.113085,0.0459 -0.04703,0.0459 -0.04703,0.12092 v 0.89685 q 0,0.14443 0.0515,0.25864 0.0515,0.11308 0.143317,0.18474 0.09181,0.0705 0.210495,0.10749 0.119804,0.0358 0.260881,0.0358 z"
         style="font-style:normal;font-variant:normal;font-weight:normal;font-stretch:normal;font-size:2.29306px;font-family:Nunito;-inkscape-font-specification:'Nunito, Normal';font-variant-ligatures:normal;font-variant-caps:normal;font-variant-numeric:normal;font-variant-east-asian:normal;text-align:center;text-anchor:middle;fill:#ffffff;stroke-width:0.264583"
         id="path175" />
      <path
         d="m 13.418304,291.98501 q 0.06606,0 0.113085,-0.0459 0.04814,-0.047 0.04814,-0.12204 v -1.19356 h 0.363889 q 0.05598,0 0.08957,-0.0381 0.03359,-0.0381 0.03359,-0.0896 0,-0.0504 -0.03471,-0.0884 -0.03359,-0.0392 -0.08845,-0.0392 h -1.050239 q -0.05598,0 -0.09069,0.0392 -0.03359,0.0381 -0.03359,0.0896 0,0.0515 0.03359,0.0896 0.03359,0.0369 0.09069,0.0369 h 0.365008 v 1.19356 q 0,0.075 0.04703,0.12204 0.04814,0.0459 0.113086,0.0459 z"
         style="font-style:normal;font-variant:normal;font-weight:normal;font-stretch:normal;font-size:2.29306px;font-family:Nunito;-inkscape-font-specification:'Nunito, Normal';font-variant-ligatures:normal;font-variant-caps:normal;font-variant-numeric:normal;font-variant-east-asian:normal;text-align:center;text-anchor:middle;fill:#ffffff;stroke-width:0.264583"
         id="path177" />
      <path
         d="m 15.084355,291.98389 h 0.790478 q 0.05486,0 0.08733,-0.0381 0.03359,-0.0381 0.03359,-0.0885 0,-0.0515 -0.03359,-0.0896 -0.03247,-0.0392 -0.08733,-0.0392 h -0.631487 l -0.0011,-1.19131 q 0,-0.075 -0.04703,-0.12092 -0.04703,-0.0459 -0.111966,-0.0459 -0.06606,0 -0.114205,0.0459 -0.04814,0.0459 -0.04814,0.12092 v 1.25066 q 0,0.0806 0.04591,0.13883 0.04591,0.0571 0.117564,0.0571 z"
         style="font-style:normal;font-variant:normal;font-weight:normal;font-stretch:normal;font-size:2.29306px;font-family:Nunito;-inkscape-font-specification:'Nunito, Normal';font-variant-ligatures:normal;font-variant-caps:normal;font-variant-numeric:normal;font-variant-east-asian:normal;text-align:center;text-anchor:middle;fill:#ffffff;stroke-width:0.264583"
         id="path179" />
    </g>
    <g
       aria-label="OUT R"
       id="text60"
       style="font-style:normal;font-variant:normal;font-weight:normal;font-stretch:normal;font-size:2.29306px;line-height:1.25;font-family:Nunito;-inkscape-font-specification:'Nunito, Normal';font-variant-ligatures:normal;font-variant-caps:normal;font-variant-numeric:normal;font-variant-east-asian:normal;fill:#ffffff;fill-opacity:1;stroke:none;stroke-width:0.264583">
      <path
         d="m 25.228792,291.75996 q -0.226171,0 -0.337017,-0.15228 -0.109727,-0.15339 -0.109727,-0.4389 0,-0.28328 0.110847,-0.43667 0.110846,-0.15451 0.335897,-0.15451 0.226171,0 0.335898,0.15339 0.110846,0.15339 0.110846,0.43779 0,0.28551 -0.110846,0.4389 -0.110847,0.15228 -0.335898,0.15228 z m 0,0.25304 q 0.377325,0 0.581103,-0.22505 0.203778,-0.22505 0.203778,-0.61917 0,-0.39412 -0.203778,-0.61918 -0.203778,-0.22617 -0.581103,-0.22617 -0.375085,0 -0.579983,0.22617 -0.204897,0.22506 -0.204897,0.61918 0,0.39412 0.204897,0.61917 0.204898,0.22505 0.579983,0.22505 z"
         style="font-style:normal;font-variant:normal;font-weight:normal;font-stretch:normal;font-size:2.29306px;font-family:Nunito;-inkscape-font-specification:'Nunito, Normal';font-variant-ligatures:normal;font-variant-caps:normal;font-variant-numeric:normal;font-variant-east-asian:normal;text-align:center;text-anchor:middle;fill:#ffffff;stroke-width:0.264583"
         id="path164" />
      <path
         d="m 26.979938,292.013 q 0.141077,0 0.26088,-0.0369 0.120923,-0.0369 0.212735,-0.10749 0.09181,-0.0717 0.143316,-0.18474 0.05262,-0.11309 0.05262,-0.25752 v -0.89685 q 0,-0.075 -0.04814,-0.12092 -0.04703,-0.0459 -0.111966,-0.0459 -0.06606,0 -0.114205,0.0459 -0.04703,0.0459 -0.04703,0.12092 v 0.88901 q 0,0.0873 -0.03023,0.15563 -0.02911,0.0672 -0.0795,0.10637 -0.05038,0.0392 -0.110846,0.0593 -0.06046,0.0202 -0.127641,0.0202 -0.06718,0 -0.127641,-0.0202 -0.05934,-0.0202 -0.108607,-0.0593 -0.04927,-0.0392 -0.0795,-0.10637 -0.02911,-0.0683 -0.02911,-0.15563 v -0.88901 q 0,-0.075 -0.04815,-0.12092 -0.04703,-0.0459 -0.113086,-0.0459 -0.06606,0 -0.113085,0.0459 -0.04703,0.0459 -0.04703,0.12092 v 0.89685 q 0,0.14443 0.0515,0.25864 0.0515,0.11308 0.143316,0.18474 0.09181,0.0705 0.210496,0.10749 0.119804,0.0358 0.260881,0.0358 z"
         style="font-style:normal;font-variant:normal;font-weight:normal;font-stretch:normal;font-size:2.29306px;font-family:Nunito;-inkscape-font-specification:'Nunito, Normal';font-variant-ligatures:normal;font-variant-caps:normal;font-variant-numeric:normal;font-variant-east-asian:normal;text-align:center;text-anchor:middle;fill:#ffffff;stroke-width:0.264583"
         id="path166" />
      <path
         d="m 28.503792,291.98501 q 0.06606,0 0.113086,-0.0459 0.04815,-0.047 0.04815,-0.12204 v -1.19356 h 0.363889 q 0.05598,0 0.08957,-0.0381 0.03359,-0.0381 0.03359,-0.0896 0,-0.0504 -0.03471,-0.0884 -0.03359,-0.0392 -0.08845,-0.0392 h -1.050239 q -0.05598,0 -0.09069,0.0392 -0.03359,0.0381 -0.03359,0.0896 0,0.0515 0.03359,0.0896 0.03359,0.0369 0.09069,0.0369 h 0.365008 v 1.19356 q 0,0.075 0.04703,0.12204 0.04815,0.0459 0.113085,0.0459 z"
         style="font-style:normal;font-variant:normal;font-weight:normal;font-stretch:normal;font-size:2.29306px;font-family:Nunito;-inkscape-font-specification:'Nunito, Normal';font-variant-ligatures:normal;font-variant-caps:normal;font-variant-numeric:normal;font-variant-east-asian:normal;text-align:center;text-anchor:middle;fill:#ffffff;stroke-width:0.264583"
         id="path168" />
      <path
         d="m 30.166485,291.98277 q 0.06606,0 0.113085,-0.0437 0.04815,-0.0437 0.04815,-0.12204 v -0.52512 h 0.293351 0.0045 q 0.07838,0 0.12876,0.0145 0.0515,0.0146 0.08286,0.0493 0.03135,0.0336 0.04591,0.0806 0.01456,0.047 0.02239,0.12205 l 0.02799,0.25864 q 0.0078,0.0817 0.05598,0.12428 0.04815,0.0414 0.115325,0.0414 0.06494,0 0.107487,-0.0426 0.04367,-0.0426 0.04367,-0.11868 0,-0.019 -0.0011,-0.0291 l -0.03135,-0.26424 q -0.01791,-0.159 -0.09517,-0.25081 -0.07614,-0.0929 -0.231769,-0.12316 v -0.004 q 0.182504,-0.0291 0.273196,-0.12764 0.09069,-0.0996 0.09069,-0.24297 0,-0.41091 -0.59006,-0.41091 h -0.493769 q -0.07054,0 -0.120924,0.047 -0.04926,0.0459 -0.04926,0.11756 v 1.28425 q 0,0.0772 0.04702,0.12204 0.04703,0.0437 0.113086,0.0437 z m 0.160111,-0.92932 v -0.44338 h 0.273196 0.02351 q 0.04031,0 0.06606,0.001 0.02575,0.001 0.0627,0.006 0.03695,0.003 0.05934,0.0123 0.02351,0.008 0.05038,0.0235 0.02687,0.0157 0.04143,0.0381 0.01567,0.0224 0.02575,0.0571 0.01008,0.0336 0.01008,0.0773 0,0.0459 -0.01232,0.0817 -0.01232,0.0358 -0.03135,0.0593 -0.01903,0.0235 -0.0515,0.0403 -0.03135,0.0168 -0.06158,0.0257 -0.02911,0.009 -0.07278,0.0146 -0.04255,0.004 -0.07502,0.006 -0.03135,0.001 -0.07838,0.001 z"
         style="font-style:normal;font-variant:normal;font-weight:normal;font-stretch:normal;font-size:2.29306px;font-family:Nunito;-inkscape-font-specification:'Nunito, Normal';font-variant-ligatures:normal;font-variant-caps:normal;font-variant-numeric:normal;font-variant-east-asian:normal;text-align:center;text-anchor:middle;fill:#ffffff;stroke-width:0.264583"
         id="path170" />
    </g>
    <g
       aria-label="IN L"
       id="text64"
       style="font-style:normal;font-variant:normal;font-weight:normal;font-stretch:normal;font-size:2.29306px;line-height:1.25;font-family:Nunito;-inkscape-font-specification:'Nunito, Normal';font-variant-ligatures:normal;font-variant-caps:normal;font-variant-numeric:normal;font-variant-east-asian:normal;fill:#000000;fill-opacity:1;stroke:none;stroke-width:0.264583">
      <path
         d="m 10.788226,276.1078 q 0.06606,0 0.114206,-0.0459 0.04814,-0.0459 0.04814,-0.12092 v -1.28201 q 0,-0.075 -0.04814,-0.12092 -0.04815,-0.0459 -0.113086,-0.0459 -0.06494,0 -0.113085,0.0459 -0.04703,0.0459 -0.04703,0.12092 v 1.28201 q 0,0.075 0.04703,0.12092 0.04702,0.0459 0.111965,0.0459 z"
         style="font-style:normal;font-variant:normal;font-weight:normal;font-stretch:normal;font-size:2.29306px;font-family:Nunito;-inkscape-font-specification:'Nunito, Normal';font-variant-ligatures:normal;font-variant-caps:normal;font-variant-numeric:normal;font-variant-east-asian:normal;text-align:center;text-anchor:middle;stroke-width:0.264583"
         id="path157" />
      <path
         d="m 11.479056,276.10892 q 0.05822,0 0.101888,-0.0392 0.04367,-0.0392 0.04367,-0.10189 v -0.99202 l 0.731137,1.01217 q 0.03695,0.0526 0.09293,0.0873 0.05598,0.0336 0.104128,0.0336 0.07614,0 0.123162,-0.0605 0.04703,-0.0616 0.04703,-0.15788 v -1.25513 q 0,-0.0638 -0.04367,-0.10301 -0.04255,-0.0392 -0.09965,-0.0392 -0.05822,0 -0.101889,0.0403 -0.04255,0.0392 -0.04255,0.10189 v 0.99201 l -0.736735,-1.02 q -0.03471,-0.0526 -0.08957,-0.0829 -0.05374,-0.0302 -0.104128,-0.0302 -0.07166,0 -0.120923,0.0526 -0.04815,0.0515 -0.04815,0.14108 v 1.27977 q 0,0.0638 0.04255,0.10301 0.04367,0.0381 0.10077,0.0381 z"
         style="font-style:normal;font-variant:normal;font-weight:normal;font-stretch:normal;font-size:2.29306px;font-family:Nunito;-inkscape-font-specification:'Nunito, Normal';font-variant-ligatures:normal;font-variant-caps:normal;font-variant-numeric:normal;font-variant-east-asian:normal;text-align:center;text-anchor:middle;stroke-width:0.264583"
         id="path159" />
      <path
         d="m 13.899757,276.10892 h 0.790478 q 0.05486,0 0.08733,-0.0381 0.03359,-0.0381 0.03359,-0.0885 0,-0.0515 -0.03359,-0.0896 -0.03247,-0.0392 -0.08733,-0.0392 h -0.631487 l -0.0011,-1.19132 q 0,-0.075 -0.04702,-0.12092 -0.04703,-0.0459 -0.111966,-0.0459 -0.06606,0 -0.114205,0.0459 -0.04815,0.0459 -0.04815,0.12092 v 1.25066 q 0,0.0806 0.04591,0.13883 0.04591,0.0571 0.117565,0.0571 z"
         style="font-style:normal;font-variant:normal;font-weight:normal;font-stretch:normal;font-size:2.29306px;font-family:Nunito;-inkscape-font-specification:'Nunito, Normal';font-variant-ligatures:normal;font-variant-caps:normal;font-variant-numeric:normal;font-variant-east-asian:normal;text-align:center;text-anchor:middle;stroke-width:0.264583"
         id="path161" />
    </g>
    <g
       aria-label="IN R"
       id="text68"
       style="font-style:normal;font-variant:normal;font-weight:normal;font-stretch:normal;font-size:2.29306px;line-height:1.25;font-family:Nunito;-inkscape-font-specification:'Nunito, Normal';font-variant-ligatures:normal;font-variant-caps:normal;font-variant-numeric:normal;font-variant-east-asian:normal;fill:#000000;fill-opacity:1;stroke:none;stroke-width:0.264583">
      <path
         d="m 25.873715,276.1078 q 0.06606,0 0.114205,-0.0459 0.04815,-0.0459 0.04815,-0.12092 v -1.28201 q 0,-0.075 -0.04815,-0.12092 -0.04814,-0.0459 -0.113085,-0.0459 -0.06494,0 -0.113086,0.0459 -0.04702,0.0459 -0.04702,0.12092 v 1.28201 q 0,0.075 0.04702,0.12092 0.04703,0.0459 0.111966,0.0459 z"
         style="font-style:normal;font-variant:normal;font-weight:normal;font-stretch:normal;font-size:2.29306px;font-family:Nunito;-inkscape-font-specification:'Nunito, Normal';font-variant-ligatures:normal;font-variant-caps:normal;font-variant-numeric:normal;font-variant-east-asian:normal;text-align:center;text-anchor:middle;stroke-width:0.264583"
         id="path150" />
      <path
         d="m 26.564544,276.10892 q 0.05822,0 0.101889,-0.0392 0.04367,-0.0392 0.04367,-0.10189 v -0.99202 l 0.731137,1.01217 q 0.03695,0.0526 0.09293,0.0873 0.05598,0.0336 0.104129,0.0336 0.07614,0 0.123162,-0.0605 0.04703,-0.0616 0.04703,-0.15788 v -1.25513 q 0,-0.0638 -0.04367,-0.10301 -0.04255,-0.0392 -0.09965,-0.0392 -0.05822,0 -0.101888,0.0403 -0.04255,0.0392 -0.04255,0.10189 v 0.99201 l -0.736736,-1.02 q -0.03471,-0.0526 -0.08957,-0.0829 -0.05374,-0.0302 -0.104128,-0.0302 -0.07166,0 -0.120924,0.0526 -0.04815,0.0515 -0.04815,0.14108 v 1.27977 q 0,0.0638 0.04255,0.10301 0.04367,0.0381 0.100769,0.0381 z"
         style="font-style:normal;font-variant:normal;font-weight:normal;font-stretch:normal;font-size:2.29306px;font-family:Nunito;-inkscape-font-specification:'Nunito, Normal';font-variant-ligatures:normal;font-variant-caps:normal;font-variant-numeric:normal;font-variant-east-asian:normal;text-align:center;text-anchor:middle;stroke-width:0.264583"
         id="path152" />
      <path
         d="m 28.981886,276.1078 q 0.06606,0 0.113086,-0.0437 0.04815,-0.0437 0.04815,-0.12204 v -0.52512 h 0.293351 0.0045 q 0.07838,0 0.128761,0.0145 0.0515,0.0146 0.08285,0.0493 0.03135,0.0336 0.04591,0.0806 0.01456,0.047 0.02239,0.12205 l 0.02799,0.25864 q 0.0078,0.0817 0.05598,0.12428 0.04815,0.0414 0.115325,0.0414 0.06494,0 0.107487,-0.0426 0.04367,-0.0426 0.04367,-0.11868 0,-0.019 -0.0011,-0.0291 l -0.03135,-0.26424 q -0.01792,-0.159 -0.09517,-0.25081 -0.07614,-0.0929 -0.231769,-0.12316 v -0.004 q 0.182504,-0.0291 0.273196,-0.12764 0.09069,-0.0996 0.09069,-0.24297 0,-0.41091 -0.590059,-0.41091 h -0.49377 q -0.07054,0 -0.120923,0.047 -0.04927,0.0459 -0.04927,0.11756 v 1.28425 q 0,0.0772 0.04703,0.12204 0.04703,0.0437 0.113085,0.0437 z m 0.160112,-0.92932 v -0.44338 h 0.273196 0.02351 q 0.04031,0 0.06606,0.001 0.02575,0.001 0.0627,0.006 0.03695,0.003 0.05934,0.0123 0.02351,0.008 0.05038,0.0235 0.02687,0.0157 0.04143,0.0381 0.01568,0.0224 0.02575,0.0571 0.01008,0.0336 0.01008,0.0773 0,0.0459 -0.01232,0.0817 -0.01232,0.0358 -0.03135,0.0593 -0.01903,0.0235 -0.0515,0.0403 -0.03135,0.0168 -0.06158,0.0258 -0.02911,0.009 -0.07278,0.0145 -0.04255,0.004 -0.07502,0.006 -0.03135,0.001 -0.07838,0.001 z"
         style="font-style:normal;font-variant:normal;font-weight:normal;font-stretch:normal;font-size:2.29306px;font-family:Nunito;-inkscape-font-specification:'Nunito, Normal';font-variant-ligatures:normal;font-variant-caps:normal;font-variant-numeric:normal;font-variant-east-asian:normal;text-align:center;text-anchor:middle;stroke-width:0.264583"
         id="path154" />
    </g>
    <g
       aria-label="SYNC"
       id="text76"
       style="font-style:normal;font-variant:normal;font-weight:normal;font-stretch:normal;font-size:2.29306px;line-height:1.25;font-family:Nunito;-inkscape-font-specification:'Nunito, Normal';font-variant-ligatures:normal;font-variant-caps:normal;font-variant-numeric:normal;font-variant-east-asian:normal;fill:#000000;fill-opacity:1;stroke:none;stroke-width:0.264583">
      <path
         d="m 10.249671,260.26306 q 0.29335,0 0.466897,-0.131 0.174667,-0.13212 0.174667,-0.35829 0,-0.0974 -0.02911,-0.17131 -0.02911,-0.075 -0.09069,-0.12988 -0.06046,-0.0549 -0.137718,-0.0929 -0.07614,-0.0381 -0.188103,-0.0739 -0.0056,-0.002 -0.16347,-0.0481 -0.157872,-0.0459 -0.16347,-0.0482 -0.08398,-0.028 -0.125402,-0.0717 -0.040308,-0.0448 -0.040308,-0.11532 0,-0.0549 0.026872,-0.094 0.026872,-0.0392 0.075017,-0.0605 0.04815,-0.0213 0.104128,-0.0302 0.0571,-0.0101 0.126522,-0.0101 0.209376,0 0.389641,0.10301 0.02911,0.0157 0.05374,0.0157 0.04702,0 0.08061,-0.0403 0.03359,-0.0414 0.03359,-0.0918 0,-0.0493 -0.03471,-0.0806 -0.08061,-0.0694 -0.231769,-0.11421 -0.151154,-0.0459 -0.311265,-0.0459 -0.2743163,0 -0.4478633,0.12541 -0.1724274,0.1254 -0.1724274,0.33925 0,0.16571 0.083974,0.26312 0.085094,0.0963 0.2765553,0.16235 l 0.369488,0.12317 q 0.104128,0.0336 0.153393,0.0817 0.04927,0.0482 0.04927,0.13324 0,0.10301 -0.09181,0.15563 -0.09069,0.0526 -0.237368,0.0526 -0.22953,0 -0.4389059,-0.12541 -0.019034,-0.0112 -0.039188,-0.0112 -0.048145,0 -0.088453,0.0537 -0.039188,0.0526 -0.039188,0.10749 0,0.0414 0.025752,0.0605 0.216094,0.16795 0.5811028,0.16795 z"
         style="font-style:normal;font-variant:normal;font-weight:normal;font-stretch:normal;font-size:2.29306px;font-family:Nunito;-inkscape-font-specification:'Nunito, Normal';font-variant-ligatures:normal;font-variant-caps:normal;font-variant-numeric:normal;font-variant-east-asian:normal;text-align:center;text-anchor:middle;stroke-width:0.264583"
         id="path141" />
      <path
         d="m 11.557432,260.07048 q 0,0.0773 0.04702,0.12092 0.04815,0.0426 0.114205,0.0426 0.06606,0 0.113086,-0.0426 0.04703,-0.0437 0.04703,-0.12092 v -0.48929 l 0.473615,-0.75465 q 0.02463,-0.0414 0.02463,-0.0795 0,-0.0526 -0.04031,-0.0885 -0.04031,-0.0358 -0.09293,-0.0358 -0.08174,0 -0.125402,0.0784 l -0.384042,0.6326 -0.369488,-0.61581 q -0.05374,-0.0952 -0.142196,-0.0952 -0.06158,0 -0.108607,0.0448 -0.04591,0.0448 -0.04591,0.10636 0,0.0414 0.02239,0.0795 l 0.466898,0.73785 z"
         style="font-style:normal;font-variant:normal;font-weight:normal;font-stretch:normal;font-size:2.29306px;font-family:Nunito;-inkscape-font-specification:'Nunito, Normal';font-variant-ligatures:normal;font-variant-caps:normal;font-variant-numeric:normal;font-variant-east-asian:normal;text-align:center;text-anchor:middle;stroke-width:0.264583"
         id="path143" />
      <path
         d="m 12.782338,260.23395 q 0.05822,0 0.101889,-0.0392 0.04367,-0.0392 0.04367,-0.10189 v -0.99202 l 0.731137,1.01217 q 0.03695,0.0526 0.09293,0.0873 0.05598,0.0336 0.104128,0.0336 0.07614,0 0.123162,-0.0605 0.04703,-0.0616 0.04703,-0.15788 v -1.25513 q 0,-0.0638 -0.04367,-0.10301 -0.04255,-0.0392 -0.09965,-0.0392 -0.05822,0 -0.101889,0.0403 -0.04255,0.0392 -0.04255,0.10189 v 0.99201 l -0.736735,-1.02 q -0.03471,-0.0526 -0.08957,-0.0829 -0.05374,-0.0302 -0.104128,-0.0302 -0.07166,0 -0.120923,0.0526 -0.04814,0.0515 -0.04814,0.14108 v 1.27977 q 0,0.0638 0.04255,0.10301 0.04367,0.0381 0.100769,0.0381 z"
         style="font-style:normal;font-variant:normal;font-weight:normal;font-stretch:normal;font-size:2.29306px;font-family:Nunito;-inkscape-font-specification:'Nunito, Normal';font-variant-ligatures:normal;font-variant-caps:normal;font-variant-numeric:normal;font-variant-east-asian:normal;text-align:center;text-anchor:middle;stroke-width:0.264583"
         id="path145" />
      <path
         d="m 15.10003,260.26306 q 0.282154,0 0.478094,-0.131 0.0627,-0.0437 0.0627,-0.11309 0,-0.0493 -0.03247,-0.0873 -0.03135,-0.0381 -0.07726,-0.0381 -0.02351,0 -0.04703,0.0123 -0.179145,0.0974 -0.333658,0.0974 -0.232889,0 -0.357171,-0.15116 -0.123163,-0.15227 -0.123163,-0.43218 0,-0.29447 0.123163,-0.44003 0.123162,-0.14556 0.350453,-0.14556 0.04367,0 0.08397,0.006 0.04031,0.006 0.07614,0.0168 0.03583,0.0101 0.05822,0.019 0.02351,0.008 0.05486,0.0224 0.03247,0.0146 0.04143,0.0179 0.02351,0.009 0.04255,0.009 0.05038,0 0.08733,-0.0403 0.03695,-0.0403 0.03695,-0.0918 0,-0.0739 -0.07726,-0.11645 -0.206017,-0.10301 -0.419871,-0.10301 -0.170189,0 -0.316864,0.0605 -0.145555,0.0593 -0.251923,0.16794 -0.106367,0.10861 -0.166829,0.26984 -0.06046,0.16123 -0.06046,0.35605 0,0.24969 0.09965,0.44115 0.100769,0.19034 0.274316,0.29223 0.174667,0.10189 0.39412,0.10189 z"
         style="font-style:normal;font-variant:normal;font-weight:normal;font-stretch:normal;font-size:2.29306px;font-family:Nunito;-inkscape-font-specification:'Nunito, Normal';font-variant-ligatures:normal;font-variant-caps:normal;font-variant-numeric:normal;font-variant-east-asian:normal;text-align:center;text-anchor:middle;stroke-width:0.264583"
         id="path147" />
    </g>
    <g
       aria-label="ARM"
       id="text80"
       style="font-style:normal;font-variant:normal;font-weight:normal;font-stretch:normal;font-size:2.29306px;line-height:1.25;font-family:Nunito;-inkscape-font-specification:'Nunito, Normal';font-variant-ligatures:normal;font-variant-caps:normal;font-variant-numeric:normal;font-variant-east-asian:normal;fill:#000000;fill-opacity:1;stroke:none;stroke-width:0.264583">
      <path
         d="m 26.265596,259.64613 h -0.553112 l 0.276556,-0.73786 z m 0.181384,0.48481 q 0.01903,0.0549 0.05822,0.0829 0.03919,0.0269 0.08733,0.0269 0.06046,0 0.107487,-0.0403 0.04703,-0.0403 0.04703,-0.10189 0,-0.028 -0.0112,-0.0571 l -0.49153,-1.23051 q -0.04703,-0.12428 -0.108607,-0.16683 -0.06046,-0.0425 -0.146675,-0.0425 -0.08621,0 -0.147795,0.0425 -0.06046,0.0426 -0.107487,0.16683 l -0.49153,1.23051 q -0.0112,0.0291 -0.0112,0.0571 0,0.0616 0.04703,0.10189 0.04703,0.0403 0.107487,0.0403 0.04815,0 0.08733,-0.0269 0.03919,-0.028 0.05822,-0.0829 l 0.100769,-0.26872 h 0.714342 z"
         style="font-style:normal;font-variant:normal;font-weight:normal;font-stretch:normal;font-size:2.29306px;font-family:Nunito;-inkscape-font-specification:'Nunito, Normal';font-variant-ligatures:normal;font-variant-caps:normal;font-variant-numeric:normal;font-variant-east-asian:normal;text-align:center;text-anchor:middle;stroke-width:0.264583"
         id="path134" />
      <path
         d="m 27.156844,260.23283 q 0.06606,0 0.113085,-0.0437 0.04814,-0.0437 0.04814,-0.12204 V 259.542 h 0.293351 0.0045 q 0.07838,0 0.128761,0.0146 0.0515,0.0146 0.08285,0.0493 0.03135,0.0336 0.04591,0.0806 0.01455,0.047 0.02239,0.12205 l 0.02799,0.25864 q 0.0078,0.0817 0.05598,0.12428 0.04815,0.0414 0.115325,0.0414 0.06494,0 0.107487,-0.0426 0.04367,-0.0425 0.04367,-0.11868 0,-0.019 -0.0011,-0.0291 l -0.03135,-0.26424 q -0.01791,-0.15899 -0.09517,-0.25081 -0.07614,-0.0929 -0.231769,-0.12316 v -0.004 q 0.182504,-0.0291 0.273196,-0.12764 0.09069,-0.0996 0.09069,-0.24296 0,-0.41092 -0.59006,-0.41092 h -0.49377 q -0.07054,0 -0.120923,0.047 -0.04926,0.0459 -0.04926,0.11756 v 1.28425 q 0,0.0773 0.04703,0.12204 0.04703,0.0437 0.113086,0.0437 z m 0.160111,-0.92932 v -0.44338 h 0.273196 0.02351 q 0.04031,0 0.06606,0.001 0.02575,0.001 0.0627,0.006 0.03695,0.003 0.05934,0.0123 0.02351,0.008 0.05038,0.0235 0.02687,0.0157 0.04143,0.0381 0.01568,0.0224 0.02575,0.0571 0.01008,0.0336 0.01008,0.0772 0,0.0459 -0.01232,0.0817 -0.01232,0.0358 -0.03135,0.0593 -0.01903,0.0235 -0.0515,0.0403 -0.03135,0.0168 -0.06158,0.0258 -0.02911,0.009 -0.07278,0.0145 -0.04255,0.004 -0.07502,0.006 -0.03135,0.001 -0.07838,0.001 z"
         style="font-style:normal;font-variant:normal;font-weight:normal;font-stretch:normal;font-size:2.29306px;font-family:Nunito;-inkscape-font-specification:'Nunito, Normal';font-variant-ligatures:normal;font-variant-caps:normal;font-variant-numeric:normal;font-variant-east-asian:normal;text-align:center;text-anchor:middle;stroke-width:0.264583"
         id="path136" />
      <path
         d="m 29.472297,260.17349 v -0.39076 l -0.389641,-0.93044 q -0.03695,-0.0952 -0.107487,-0.1422 -0.07054,-0.0481 -0.152274,-0.0481 -0.09741,0 -0.169068,0.0593 -0.07166,0.0593 -0.07166,0.15227 l 0.0011,1.22715 q 0,0.056 0.04255,0.0873 0.04367,0.0302 0.103009,0.0302 0.05934,0 0.101889,-0.0302 0.04255,-0.0313 0.04255,-0.0873 v -1.08607 l 0.415393,1.00433 q 0.05822,0.15452 0.183624,0.15452 z m 0.0011,0 q 0.124282,0 0.184743,-0.15452 l 0.414274,-1.00433 v 1.08607 q 0,0.056 0.04255,0.0873 0.04367,0.0302 0.103008,0.0302 0.05934,0 0.101889,-0.0302 0.04367,-0.0313 0.04367,-0.0873 v -1.22715 q 0,-0.0929 -0.07166,-0.15227 -0.07166,-0.0593 -0.167949,-0.0593 -0.08173,0 -0.152273,0.0481 -0.07054,0.047 -0.107488,0.1422 l -0.39076,0.93044 z"
         style="font-style:normal;font-variant:normal;font-weight:normal;font-stretch:normal;font-size:2.29306px;font-family:Nunito;-inkscape-font-specification:'Nunito, Normal';font-variant-ligatures:normal;font-variant-caps:normal;font-variant-numeric:normal;font-variant-east-asian:normal;text-align:center;text-anchor:middle;stroke-width:0.264583"
         id="path138" />
    </g>
    <g
       aria-label="HP"
       id="text100"
       style="font-style:normal;font-variant:normal;font-weight:normal;font-stretch:normal;font-size:2.29306px;line-height:1.25;font-family:Nunito;-inkscape-font-specification:'Nunito, Normal';font-variant-ligatures:normal;font-variant-caps:normal;font-variant-numeric:normal;font-variant-east-asian:normal;fill:#000000;fill-opacity:1;stroke:none;stroke-width:0.264583">
      <path
         d="m 18.991999,222.66203 q 0.06606,0 0.113085,-0.0459 0.04814,-0.0459 0.04814,-0.12092 v -0.53744 h 0.694188 v 0.53744 q 0,0.075 0.04815,0.12092 0.04815,0.0459 0.113085,0.0459 0.06606,0 0.113086,-0.0459 0.04703,-0.0459 0.04703,-0.12092 v -1.27865 q 0,-0.075 -0.04703,-0.12092 -0.04703,-0.0459 -0.111966,-0.0459 -0.06606,0 -0.114205,0.0459 -0.04815,0.0459 -0.04815,0.12092 v 0.47921 h -0.694188 v -0.47921 q 0,-0.075 -0.04814,-0.12092 -0.04703,-0.0459 -0.111966,-0.0459 -0.06606,0 -0.114205,0.0459 -0.04703,0.0459 -0.04703,0.12092 v 1.27865 q 0,0.075 0.04703,0.12092 0.04814,0.0459 0.113086,0.0459 z"
         style="font-style:normal;font-variant:normal;font-weight:normal;font-stretch:normal;font-size:2.29306px;font-family:Nunito;-inkscape-font-specification:'Nunito, Normal';font-variant-ligatures:normal;font-variant-caps:normal;font-variant-numeric:normal;font-variant-east-asian:normal;text-align:center;text-anchor:middle;stroke-width:0.264583"
         id="path129" />
      <path
         d="m 20.708435,222.66427 q 0.06606,0 0.113085,-0.0459 0.04815,-0.0459 0.04815,-0.12092 v -0.47586 h 0.312385 q 0.612453,0 0.612453,-0.48817 0,-0.13324 -0.04143,-0.22841 -0.04143,-0.0963 -0.122043,-0.15115 -0.0795,-0.056 -0.184744,-0.0806 -0.104128,-0.0257 -0.242965,-0.0257 h -0.481453 q -0.08285,0 -0.128761,0.056 -0.04591,0.056 -0.04591,0.14108 v 1.2529 q 0,0.075 0.04814,0.12092 0.04815,0.0459 0.113086,0.0459 z m 0.16123,-0.87558 v -0.496 h 0.298949 q 0.07838,0 0.129881,0.009 0.05262,0.009 0.09517,0.0336 0.04367,0.0246 0.06382,0.0739 0.02015,0.0493 0.02015,0.12428 0,0.0773 -0.02015,0.12764 -0.02015,0.0504 -0.06382,0.0784 -0.04255,0.0269 -0.09741,0.0381 -0.05374,0.0112 -0.135478,0.0112 z"
         style="font-style:normal;font-variant:normal;font-weight:normal;font-stretch:normal;font-size:2.29306px;font-family:Nunito;-inkscape-font-specification:'Nunito, Normal';font-variant-ligatures:normal;font-variant-caps:normal;font-variant-numeric:normal;font-variant-east-asian:normal;text-align:center;text-anchor:middle;stroke-width:0.264583"
         id="path131" />
    </g>
    <g
       aria-label="FREQ"
       id="text104"
       style="font-style:normal;font-variant:normal;font-weight:normal;font-stretch:normal;font-size:2.29306px;line-height:1.25;font-family:Nunito;-inkscape-font-specification:'Nunito, Normal';font-variant-ligatures:normal;font-variant-caps:normal;font-variant-numeric:normal;font-variant-east-asian:normal;fill:#000000;fill-opacity:1;stroke:none;stroke-width:0.264583">
      <path
         d="m 17.531964,204.67142 q 0.06606,0 0.114205,-0.0459 0.04815,-0.0459 0.04815,-0.12092 v -0.53856 h 0.572145 q 0.05486,0 0.08621,-0.0358 0.03135,-0.037 0.03135,-0.0885 0,-0.0504 -0.03247,-0.0873 -0.03135,-0.037 -0.08509,-0.037 h -0.572145 v -0.40756 h 0.604615 q 0.05374,0 0.08509,-0.0381 0.03247,-0.0381 0.03247,-0.0884 0,-0.0504 -0.03247,-0.0884 -0.03135,-0.0381 -0.08509,-0.0381 h -0.756889 q -0.07054,0 -0.119803,0.0459 -0.04926,0.0448 -0.04926,0.1198 v 1.28201 q 0,0.075 0.04591,0.12092 0.04702,0.0459 0.113085,0.0459 z"
         style="font-style:normal;font-variant:normal;font-weight:normal;font-stretch:normal;font-size:2.29306px;font-family:Nunito;-inkscape-font-specification:'Nunito, Normal';font-variant-ligatures:normal;font-variant-caps:normal;font-variant-numeric:normal;font-variant-east-asian:normal;text-align:center;text-anchor:middle;stroke-width:0.264583"
         id="path120" />
      <path
         d="m 18.846443,204.6703 q 0.06606,0 0.113085,-0.0437 0.04815,-0.0437 0.04815,-0.12204 v -0.52512 h 0.29335 0.0045 q 0.07838,0 0.128761,0.0146 0.0515,0.0146 0.08285,0.0493 0.03135,0.0336 0.04591,0.0806 0.01456,0.047 0.02239,0.12205 l 0.02799,0.25864 q 0.0078,0.0817 0.05598,0.12428 0.04815,0.0414 0.115325,0.0414 0.06494,0 0.107487,-0.0426 0.04367,-0.0426 0.04367,-0.11868 0,-0.019 -0.0011,-0.0291 l -0.03135,-0.26424 q -0.01791,-0.159 -0.09517,-0.25081 -0.07614,-0.0929 -0.231769,-0.12316 v -0.004 q 0.182504,-0.0291 0.273197,-0.12764 0.09069,-0.0996 0.09069,-0.24297 0,-0.41091 -0.59006,-0.41091 H 18.85652 q -0.07054,0 -0.120923,0.047 -0.04926,0.0459 -0.04926,0.11756 v 1.28425 q 0,0.0772 0.04703,0.12204 0.04703,0.0437 0.113086,0.0437 z m 0.160111,-0.92932 v -0.44338 h 0.273197 0.02351 q 0.04031,0 0.06606,0.001 0.02575,0.001 0.0627,0.006 0.03695,0.003 0.05934,0.0123 0.02351,0.008 0.05039,0.0235 0.02687,0.0157 0.04143,0.0381 0.01567,0.0224 0.02575,0.0571 0.01008,0.0336 0.01008,0.0773 0,0.0459 -0.01232,0.0817 -0.01232,0.0358 -0.03135,0.0593 -0.01903,0.0235 -0.0515,0.0403 -0.03135,0.0168 -0.06158,0.0257 -0.02911,0.009 -0.07278,0.0146 -0.04255,0.004 -0.07502,0.006 -0.03135,0.001 -0.07838,0.001 z"
         style="font-style:normal;font-variant:normal;font-weight:normal;font-stretch:normal;font-size:2.29306px;font-family:Nunito;-inkscape-font-specification:'Nunito, Normal';font-variant-ligatures:normal;font-variant-caps:normal;font-variant-numeric:normal;font-variant-east-asian:normal;text-align:center;text-anchor:middle;stroke-width:0.264583"
         id="path122" />
      <path
         d="m 20.42964,204.67142 h 0.829666 q 0.05374,0 0.0851,-0.037 0.03247,-0.0381 0.03247,-0.0884 0,-0.0504 -0.03247,-0.0885 -0.03135,-0.0381 -0.0851,-0.0381 h -0.668435 v -0.44898 h 0.599017 q 0.05486,0 0.08733,-0.0369 0.03359,-0.0369 0.03359,-0.0873 0,-0.0504 -0.03247,-0.0873 -0.03247,-0.037 -0.08845,-0.037 h -0.599017 v -0.41204 h 0.642683 q 0.05486,0 0.08733,-0.0381 0.03247,-0.0381 0.03247,-0.0884 0,-0.0504 -0.03247,-0.0884 -0.03247,-0.0381 -0.08733,-0.0381 h -0.796077 q -0.0795,0 -0.123162,0.0537 -0.04255,0.0526 -0.04255,0.13548 v 1.24506 q 0,0.0705 0.04591,0.1254 0.04591,0.0549 0.111966,0.0549 z"
         style="font-style:normal;font-variant:normal;font-weight:normal;font-stretch:normal;font-size:2.29306px;font-family:Nunito;-inkscape-font-specification:'Nunito, Normal';font-variant-ligatures:normal;font-variant-caps:normal;font-variant-numeric:normal;font-variant-east-asian:normal;text-align:center;text-anchor:middle;stroke-width:0.264583"
         id="path124" />
      <path
         d="m 22.911922,204.9211 q 0.04479,0 0.07726,-0.0358 0.03359,-0.0347 0.03359,-0.084 0,-0.0627 -0.06942,-0.10077 l -0.300069,-0.17355 -0.351572,0.0918 0.550871,0.28664 q 0.02799,0.0157 0.05934,0.0157 z m -0.520641,-0.47361 q -0.226171,0 -0.337017,-0.15228 -0.109726,-0.15339 -0.109726,-0.4389 0,-0.28328 0.110846,-0.43667 0.110846,-0.15451 0.335897,-0.15451 0.226171,0 0.335898,0.15339 0.110846,0.15339 0.110846,0.43779 0,0.28551 -0.110846,0.4389 -0.110846,0.15228 -0.335898,0.15228 z m 0,0.25304 q 0.377325,0 0.581103,-0.22505 0.203778,-0.22505 0.203778,-0.61917 0,-0.39412 -0.203778,-0.61917 -0.203778,-0.22618 -0.581103,-0.22618 -0.375085,0 -0.579983,0.22618 -0.204897,0.22505 -0.204897,0.61917 0,0.39412 0.204897,0.61917 0.204898,0.22505 0.579983,0.22505 z"
         style="font-style:normal;font-variant:normal;font-weight:normal;font-stretch:normal;font-size:2.29306px;font-family:Nunito;-inkscape-font-specification:'Nunito, Normal';font-variant-ligatures:normal;font-variant-caps:normal;font-variant-numeric:normal;font-variant-east-asian:normal;text-align:center;text-anchor:middle;stroke-width:0.264583"
         id="path126" />
    </g>
    <g
       aria-label="MUTE"
       id="text51"
       style="font-style:normal;font-variant:normal;font-weight:normal;font-stretch:normal;font-size:2.29306px;line-height:1.25;font-family:Nunito;-inkscape-font-specification:'Nunito, Normal';font-variant-ligatures:normal;font-variant-caps:normal;font-variant-numeric:normal;font-variant-east-asian:normal;fill:#000000;fill-opacity:1;stroke:none;stroke-width:0.264583">
      <path
         d="m 18.006699,209.37347 v -0.39076 l -0.389641,-0.93044 q -0.03695,-0.0952 -0.107487,-0.1422 -0.07054,-0.0481 -0.152273,-0.0481 -0.09741,0 -0.169069,0.0593 -0.07166,0.0593 -0.07166,0.15227 l 0.0011,1.22715 q 0,0.056 0.04255,0.0873 0.04367,0.0302 0.103008,0.0302 0.05934,0 0.101889,-0.0302 0.04255,-0.0314 0.04255,-0.0873 v -1.08607 l 0.415393,1.00434 q 0.05822,0.15451 0.183624,0.15451 z m 0.0011,0 q 0.124282,0 0.184744,-0.15451 l 0.414273,-1.00434 v 1.08607 q 0,0.056 0.04255,0.0873 0.04367,0.0302 0.103009,0.0302 0.05934,0 0.101889,-0.0302 0.04367,-0.0314 0.04367,-0.0873 v -1.22715 q 0,-0.0929 -0.07166,-0.15227 -0.07166,-0.0593 -0.167949,-0.0593 -0.08173,0 -0.152273,0.0481 -0.07054,0.047 -0.107487,0.1422 l -0.390761,0.93044 z"
         style="font-style:normal;font-variant:normal;font-weight:normal;font-stretch:normal;font-size:2.29306px;font-family:Nunito;-inkscape-font-specification:'Nunito, Normal';font-variant-ligatures:normal;font-variant-caps:normal;font-variant-numeric:normal;font-variant-east-asian:normal;text-align:center;text-anchor:middle;stroke-width:0.264583"
         id="path111" />
      <path
         d="m 19.948187,209.46304 q 0.141077,0 0.26088,-0.037 0.120923,-0.0369 0.212735,-0.10749 0.09181,-0.0717 0.143316,-0.18474 0.05262,-0.11308 0.05262,-0.25752 v -0.89685 q 0,-0.075 -0.04814,-0.12092 -0.04703,-0.0459 -0.111966,-0.0459 -0.06606,0 -0.114205,0.0459 -0.04703,0.0459 -0.04703,0.12092 v 0.88901 q 0,0.0873 -0.03023,0.15563 -0.02911,0.0672 -0.0795,0.10637 -0.05038,0.0392 -0.110846,0.0593 -0.06046,0.0202 -0.127641,0.0202 -0.06718,0 -0.127641,-0.0202 -0.05934,-0.0202 -0.108607,-0.0593 -0.04927,-0.0392 -0.0795,-0.10637 -0.02911,-0.0683 -0.02911,-0.15563 v -0.88901 q 0,-0.075 -0.04815,-0.12092 -0.04703,-0.0459 -0.113086,-0.0459 -0.06606,0 -0.113085,0.0459 -0.04703,0.0459 -0.04703,0.12092 v 0.89685 q 0,0.14444 0.0515,0.25864 0.0515,0.11309 0.143317,0.18474 0.09181,0.0705 0.210495,0.10749 0.119804,0.0358 0.260881,0.0358 z"
         style="font-style:normal;font-variant:normal;font-weight:normal;font-stretch:normal;font-size:2.29306px;font-family:Nunito;-inkscape-font-specification:'Nunito, Normal';font-variant-ligatures:normal;font-variant-caps:normal;font-variant-numeric:normal;font-variant-east-asian:normal;text-align:center;text-anchor:middle;stroke-width:0.264583"
         id="path113" />
      <path
         d="m 21.472041,209.43505 q 0.06606,0 0.113086,-0.0459 0.04815,-0.047 0.04815,-0.12204 v -1.19356 h 0.363889 q 0.05598,0 0.08957,-0.0381 0.03359,-0.0381 0.03359,-0.0896 0,-0.0504 -0.03471,-0.0884 -0.03359,-0.0392 -0.08845,-0.0392 h -1.050239 q -0.05598,0 -0.09069,0.0392 -0.03359,0.0381 -0.03359,0.0896 0,0.0515 0.03359,0.0896 0.03359,0.0369 0.09069,0.0369 h 0.365008 v 1.19356 q 0,0.075 0.04703,0.12204 0.04815,0.0459 0.113085,0.0459 z"
         style="font-style:normal;font-variant:normal;font-weight:normal;font-stretch:normal;font-size:2.29306px;font-family:Nunito;-inkscape-font-specification:'Nunito, Normal';font-variant-ligatures:normal;font-variant-caps:normal;font-variant-numeric:normal;font-variant-east-asian:normal;text-align:center;text-anchor:middle;stroke-width:0.264583"
         id="path115" />
      <path
         d="m 22.49205,209.43393 h 0.829667 q 0.05374,0 0.08509,-0.0369 0.03247,-0.0381 0.03247,-0.0885 0,-0.0504 -0.03247,-0.0885 -0.03135,-0.0381 -0.08509,-0.0381 h -0.668436 v -0.44899 h 0.599017 q 0.05486,0 0.08733,-0.037 0.03359,-0.0369 0.03359,-0.0873 0,-0.0504 -0.03247,-0.0873 -0.03247,-0.0369 -0.08845,-0.0369 h -0.599017 v -0.41203 h 0.642684 q 0.05486,0 0.08733,-0.0381 0.03247,-0.0381 0.03247,-0.0885 0,-0.0504 -0.03247,-0.0884 -0.03247,-0.0381 -0.08733,-0.0381 h -0.796077 q -0.0795,0 -0.123162,0.0538 -0.04255,0.0526 -0.04255,0.13547 v 1.24506 q 0,0.0705 0.04591,0.12541 0.04591,0.0549 0.111966,0.0549 z"
         style="font-style:normal;font-variant:normal;font-weight:normal;font-stretch:normal;font-size:2.29306px;font-family:Nunito;-inkscape-font-specification:'Nunito, Normal';font-variant-ligatures:normal;font-variant-caps:normal;font-variant-numeric:normal;font-variant-east-asian:normal;text-align:center;text-anchor:middle;stroke-width:0.264583"
         id="path117" />
    </g>
    <path
       style="fill:none;stroke:#000000;stroke-width:0.264583px;stroke-linecap:butt;stroke-linejoin:miter;stroke-opacity:1"
       d="m 12.709133,246.26264 v 2.3695"
       id="path55" />
    <path
       style="fill:none;stroke:#000000;stroke-width:0.264583px;stroke-linecap:butt;stroke-linejoin:miter;stroke-opacity:1"
       d="m 27.89547,246.37035 v 2.15409"
       id="path57" />
    <path
       style="fill:none;stroke:#000000;stroke-width:0.264583px;stroke-linecap:butt;stroke-linejoin:miter;stroke-opacity:1"
       d="m 12.601429,235.8153 v 2.04639"
       id="path59" />
    <path
       style="fill:none;stroke:#000000;stroke-width:0.264583px;stroke-linecap:butt;stroke-linejoin:miter;stroke-opacity:1"
       d="m 23.694994,231.93794 h -6.67768"
       id="path61" />
    <path
       style="fill:none;stroke:#000000;stroke-width:0.264583px;stroke-linecap:butt;stroke-linejoin:miter;stroke-opacity:1"
       d="m 28.003174,235.8153 v 2.04639"
       id="path63" />
  </g>
  <g
     inkscape:groupmode="layer"
     id="layer2"
     inkscape:label="components"
     style="display:none">
    <circle
       style="display:inline;opacity:1;vector-effect:none;fill:#0000ff;fill-opacity:1;fill-rule:evenodd;stroke:none;stroke-width:1;stroke-linecap:butt;stroke-linejoin:miter;stroke-miterlimit:4;stroke-dasharray:none;stroke-dashoffset:0;stroke-opacity:1;paint-order:normal"
       id="circle4958"
       cx="27.940001"
       cy="116"
       r="4"
       inkscape:label="sine" />
    <circle
       style="display:inline;opacity:1;vector-effect:none;fill:#0000ff;fill-opacity:1;fill-rule:evenodd;stroke:none;stroke-width:1;stroke-linecap:butt;stroke-linejoin:miter;stroke-miterlimit:4;stroke-dasharray:none;stroke-dashoffset:0;stroke-opacity:1;paint-order:normal"
       id="circle52"
       cx="12.7"
       cy="116"
       r="4"
       inkscape:label="sine" />
    <circle
       style="display:inline;opacity:1;vector-effect:none;fill:#0000ff;fill-opacity:1;fill-rule:evenodd;stroke:none;stroke-width:1;stroke-linecap:butt;stroke-linejoin:miter;stroke-miterlimit:4;stroke-dasharray:none;stroke-dashoffset:0;stroke-opacity:1;paint-order:normal"
       id="circle70"
       cx="27.940001"
       cy="100.12502"
       r="4"
       inkscape:label="sine" />
    <circle
       style="display:inline;opacity:1;vector-effect:none;fill:#0000ff;fill-opacity:1;fill-rule:evenodd;stroke:none;stroke-width:1;stroke-linecap:butt;stroke-linejoin:miter;stroke-miterlimit:4;stroke-dasharray:none;stroke-dashoffset:0;stroke-opacity:1;paint-order:normal"
       id="circle72"
       cx="12.7"
       cy="100.12502"
       r="4"
       inkscape:label="sine" />
    <circle
       style="display:inline;opacity:1;vector-effect:none;fill:#0000ff;fill-opacity:1;fill-rule:evenodd;stroke:none;stroke-width:1;stroke-linecap:butt;stroke-linejoin:miter;stroke-miterlimit:4;stroke-dasharray:none;stroke-dashoffset:0;stroke-opacity:1;paint-order:normal"
       id="circle82"
       cx="27.940001"
       cy="84.250031"
       r="4"
       inkscape:label="sine" />
    <circle
       style="display:inline;opacity:1;vector-effect:none;fill:#0000ff;fill-opacity:1;fill-rule:evenodd;stroke:none;stroke-width:1;stroke-linecap:butt;stroke-linejoin:miter;stroke-miterlimit:4;stroke-dasharray:none;stroke-dashoffset:0;stroke-opacity:1;paint-order:normal"
       id="circle84"
       cx="12.7"
       cy="84.250031"
       r="4"
       inkscape:label="sine" />
    <circle
       style="display:inline;opacity:1;vector-effect:none;fill:#0000ff;fill-opacity:1;fill-rule:evenodd;stroke:none;stroke-width:1;stroke-linecap:butt;stroke-linejoin:miter;stroke-miterlimit:4;stroke-dasharray:none;stroke-dashoffset:0;stroke-opacity:1;paint-order:normal"
       id="circle86"
       cx="12.7"
       cy="73.666702"
       r="4"
       inkscape:label="sine" />
    <circle
       style="display:inline;opacity:1;vector-effect:none;fill:#0000ff;fill-opacity:1;fill-rule:evenodd;stroke:none;stroke-width:1;stroke-linecap:butt;stroke-linejoin:miter;stroke-miterlimit:4;stroke-dasharray:none;stroke-dashoffset:0;stroke-opacity:1;paint-order:normal"
       id="circle88"
       cx="27.940001"
       cy="73.666702"
       r="4"
       inkscape:label="sine" />
    <circle
       style="display:inline;opacity:1;vector-effect:none;fill:#0000ff;fill-opacity:1;fill-rule:evenodd;stroke:none;stroke-width:1;stroke-linecap:butt;stroke-linejoin:miter;stroke-miterlimit:4;stroke-dasharray:none;stroke-dashoffset:0;stroke-opacity:1;paint-order:normal"
       id="circle90"
       cx="27.940001"
       cy="63.08337"
       r="4"
       inkscape:label="sine" />
    <circle
       style="display:inline;opacity:1;vector-effect:none;fill:#0000ff;fill-opacity:1;fill-rule:evenodd;stroke:none;stroke-width:1;stroke-linecap:butt;stroke-linejoin:miter;stroke-miterlimit:4;stroke-dasharray:none;stroke-dashoffset:0;stroke-opacity:1;paint-order:normal"
       id="circle92"
       cx="12.7"
       cy="63.08337"
       r="4"
       inkscape:label="sine" />
    <circle
       style="display:inline;opacity:1;vector-effect:none;fill:#0000ff;fill-opacity:1;fill-rule:evenodd;stroke:none;stroke-width:1;stroke-linecap:butt;stroke-linejoin:miter;stroke-miterlimit:4;stroke-dasharray:none;stroke-dashoffset:0;stroke-opacity:1;paint-order:normal"
       id="circle94"
       cx="20.32"
       cy="46.679199"
       r="4"
       inkscape:label="sine" />
    <circle
       style="display:inline;opacity:1;vector-effect:none;fill:#0000ff;fill-opacity:1;fill-rule:evenodd;stroke:none;stroke-width:2.62501;stroke-linecap:butt;stroke-linejoin:miter;stroke-miterlimit:4;stroke-dasharray:none;stroke-dashoffset:0;stroke-opacity:1;paint-order:normal"
       id="circle96"
       cx="20.32"
       cy="21.799999"
       inkscape:label="sine"
       r="10.5" />
  </g>
</svg>
