<?xml version="1.0" encoding="UTF-8" standalone="no"?>
<svg
   xmlns:dc="http://purl.org/dc/elements/1.1/"
   xmlns:cc="http://creativecommons.org/ns#"
   xmlns:rdf="http://www.w3.org/1999/02/22-rdf-syntax-ns#"
   xmlns:svg="http://www.w3.org/2000/svg"
   xmlns="http://www.w3.org/2000/svg"
   xmlns:sodipodi="http://sodipodi.sourceforge.net/DTD/sodipodi-0.dtd"
   xmlns:inkscape="http://www.inkscape.org/namespaces/inkscape"
   version="1.1"
   id="svg28"
   xml:space="preserve"
   width="60.599998mm"
   height="128.50002mm"
   viewBox="0 0 229.03936 485.66934"
   sodipodi:docname="Custom.svg"
   inkscape:version="1.0.2 (e86c8708, 2021-01-15)"><metadata
     id="metadata34"><rdf:RDF><cc:Work
         rdf:about=""><dc:format>image/svg+xml</dc:format><dc:type
           rdf:resource="http://purl.org/dc/dcmitype/StillImage" /><dc:title /></cc:Work></rdf:RDF></metadata><defs
     id="defs32"><clipPath
       clipPathUnits="userSpaceOnUse"
       id="clipPath56"><path
         d="M 0,364.252 H 200.693 V 0 H 0 Z"
         id="path54" /></clipPath></defs><sodipodi:namedview
     pagecolor="#ffffff"
     bordercolor="#666666"
     borderopacity="1"
     objecttolerance="10"
     gridtolerance="10"
     guidetolerance="10"
     inkscape:pageopacity="0"
     inkscape:pageshadow="2"
     inkscape:window-width="1260"
     inkscape:window-height="841"
     id="namedview30"
     showgrid="false"
     inkscape:document-units="mm"
     units="mm"
     inkscape:zoom="1.3972642"
     inkscape:cx="96.345594"
     inkscape:cy="255.29791"
     inkscape:window-x="0"
     inkscape:window-y="23"
     inkscape:window-maximized="0"
     inkscape:current-layer="g36"
     inkscape:document-rotation="0" /><g
     id="g36"
     inkscape:groupmode="layer"
     inkscape:label="panel"
     transform="matrix(1.3333333,0,0,-1.3333333,0,485.66933)"><g
       transform="matrix(0.02540621,0,0,0.02540621,-4.9350088,5.1371116)"
       fill="#000000"
       stroke="none"
       id="g1461"><path
         d="m 337,12640 c 6,-196 18,-252 83,-385 102,-209 248,-410 450,-620 80,-83 166,-182 191,-220 138,-208 224,-466 239,-715 l 7,-125 1,125 c 3,207 -39,395 -132,595 -67,144 -106,196 -280,375 -151,155 -241,261 -311,368 -25,38 -28,50 -26,120 2,87 -21,217 -48,272 -10,19 -24,58 -30,85 -14,55 -51,110 -80,120 -21,6 -37,40 -47,100 -16,94 -22,59 -17,-95 z m 72,-133 c 28,-84 76,-177 91,-177 3,0 4,19 3,43 -3,38 -2,39 8,17 18,-42 39,-168 39,-233 -1,-58 -2,-61 -16,-42 -9,11 -23,33 -31,49 l -16,30 27,-17 c 31,-21 32,-16 15,62 -7,36 -26,69 -65,118 -58,73 -94,152 -94,208 0,19 2,35 4,35 2,0 18,-42 35,-93 z"
         id="path1331" /><path
         d="m 964,12343 c -10,-39 -40,-98 -86,-166 -54,-80 -69,-119 -69,-187 -1,-68 16,-105 76,-172 24,-27 48,-65 53,-85 11,-37 11,-38 9,-6 -1,25 7,41 35,70 73,75 83,139 43,277 -40,139 -48,178 -46,239 2,61 -5,74 -15,30 z m 32,-226 c 47,-153 43,-221 -21,-297 l -33,-39 -51,87 c -57,97 -68,138 -53,185 10,32 10,32 11,-14 1,-49 55,-170 79,-177 23,-7 15,109 -12,163 l -25,48 19,36 19,36 1,-40 c 0,-22 7,-69 15,-105 8,-36 14,-82 15,-102 0,-20 4,-39 9,-43 21,-12 23,70 6,169 -10,56 -20,120 -22,144 -3,23 -9,42 -14,42 -4,0 0,13 9,30 l 17,30 3,-38 c 2,-20 14,-72 28,-115 z"
         id="path1333" /><path
         d="m 218,11773 c -85,-4 -88,-4 -88,-28 0,-49 180,-156 294,-175 74,-12 144,1 213,40 57,32 73,32 203,4 55,-12 2,15 -60,31 -36,9 -99,35 -140,57 -41,23 -88,48 -105,57 -31,17 -140,22 -317,14 z m 365,-79 c 42,-21 77,-41 77,-44 0,-12 -115,-42 -174,-46 l -61,-3 53,9 c 54,10 106,32 117,49 13,22 -48,44 -143,53 -130,13 -156,30 -37,25 81,-3 98,-8 168,-43 z m -288,26 c 4,-6 -7,-10 -25,-10 -18,0 -29,4 -25,10 3,6 15,10 25,10 10,0 22,-4 25,-10 z m -67,-20 c 12,-20 12,-21 -13,-4 -28,18 -31,24 -12,24 7,0 18,-9 25,-20 z"
         id="path1335" /><path
         d="m 1533,11100 c -93,-19 -181,-92 -202,-167 -17,-60 -13,-62 13,-8 28,60 56,87 119,115 191,85 360,-27 345,-227 -8,-105 -60,-173 -133,-173 -70,0 -132,73 -118,140 7,38 44,65 77,56 34,-8 44,21 12,36 -56,25 -94,-11 -103,-97 -11,-102 31,-165 114,-172 98,-8 152,65 160,217 4,71 1,95 -17,142 -27,73 -82,123 -152,137 -54,12 -56,12 -115,1 z"
         id="path1337" /><path
         d="m 193,10802 c -77,-28 -129,-66 -160,-119 -24,-42 -28,-58 -28,-128 0,-71 4,-88 33,-146 42,-84 113,-155 203,-205 40,-21 87,-57 106,-79 31,-35 33,-36 20,-10 -20,39 -68,83 -137,127 -94,60 -176,155 -205,239 -42,117 9,215 145,278 76,35 194,36 298,2 39,-13 72,-27 72,-31 0,-4 -9,-15 -20,-25 -11,-10 -27,-42 -36,-72 -14,-48 -14,-58 1,-110 11,-39 29,-69 54,-94 36,-37 100,-63 127,-52 22,8 17,23 -8,23 -44,0 -109,42 -139,88 -46,72 -37,133 30,196 l 30,29 43,-28 c 67,-44 160,-144 195,-211 59,-112 77,-199 78,-379 v -160 l -37,-81 c -21,-45 -38,-89 -38,-99 0,-10 -44,-90 -97,-179 -146,-244 -217,-406 -261,-601 -35,-154 -34,-197 2,-60 61,236 151,441 293,665 82,129 111,189 133,273 10,40 30,93 45,120 15,26 24,47 21,47 -3,0 -13,-15 -23,-32 l -18,-33 -6,160 c -6,185 -22,261 -80,383 -30,61 -59,102 -114,159 -41,43 -72,80 -69,83 12,11 179,12 218,0 88,-25 163,-99 188,-184 6,-23 15,-81 19,-131 l 7,-90 -3,110 c -2,84 -8,124 -25,169 -30,79 -97,147 -165,167 -64,18 -198,16 -252,-4 -39,-15 -44,-14 -105,10 -86,36 -256,43 -335,15 z"
         id="path1339" /><path
         d="m 1300,10525 c 0,-54 -29,-183 -56,-250 -46,-113 -197,-365 -452,-755 -140,-214 -229,-384 -256,-485 -19,-74 -48,-237 -42,-242 2,-3 14,40 26,94 53,232 88,309 270,579 145,217 351,554 420,690 26,51 57,127 69,171 21,80 39,233 27,233 -3,0 -6,-16 -6,-35 z"
         id="path1341" /><path
         d="m 1531,10519 c -1,-28 39,-68 79,-79 42,-11 77,-3 99,24 13,15 9,16 -42,10 -65,-8 -109,6 -125,39 -8,16 -11,18 -11,6 z"
         id="path1343" /><path
         d="m 1487,10365 c 7,-20 55,-45 87,-45 21,0 56,22 56,36 0,2 -25,3 -56,3 -30,-1 -60,3 -67,10 -16,16 -27,14 -20,-4 z"
         id="path1345" /><path
         d="m 1062,10305 c 0,-16 2,-22 5,-12 2,9 2,23 0,30 -3,6 -5,-1 -5,-18 z"
         id="path1347" /><path
         d="m 1422,10278 c 5,-15 28,-23 28,-10 0,5 -7,13 -16,16 -10,4 -14,1 -12,-6 z"
         id="path1349" /><path
         d="m 1051,10254 c 0,-11 3,-14 6,-6 3,7 2,16 -1,19 -3,4 -6,-2 -5,-13 z"
         id="path1351" /><path
         d="m 364,9721 c -77,-36 -119,-136 -75,-180 12,-12 34,-21 51,-21 36,0 39,12 6,29 -79,43 -34,132 68,133 93,2 156,-73 156,-184 0,-107 -50,-196 -210,-373 -99,-110 -190,-243 -220,-321 -82,-220 -36,-500 114,-707 78,-107 154,-180 374,-361 130,-107 96,-69 -53,59 -204,175 -327,323 -388,469 -45,107 -57,160 -64,281 -12,221 23,296 258,558 156,173 203,266 203,397 -1,174 -102,277 -220,221 z"
         id="path1353" /><path
         d="m 1390,9556 c -69,-20 -114,-41 -190,-90 -74,-48 -187,-156 -217,-207 -11,-19 -41,-42 -81,-62 -88,-44 -210,-143 -276,-225 -93,-115 -150,-233 -185,-384 -20,-87 -10,-94 15,-10 73,249 249,458 479,568 118,57 188,75 317,81 91,5 117,2 180,-17 98,-29 186,-79 256,-146 l 57,-54 -39,-35 c -21,-19 -61,-42 -90,-51 -128,-44 -308,3 -252,65 20,22 20,31 1,31 -8,0 -22,-11 -31,-25 -14,-22 -14,-30 -3,-66 17,-50 51,-78 110,-89 92,-17 207,21 282,92 48,46 56,42 87,-42 12,-36 19,-46 19,-30 0,14 -10,52 -22,85 l -22,60 22,56 c 13,31 27,88 33,126 33,233 -95,385 -323,382 -45,0 -102,-6 -127,-13 z m 277,-48 c 67,-25 135,-97 154,-165 19,-66 14,-158 -11,-225 -29,-78 -43,-87 -68,-46 -27,44 -107,119 -159,151 -108,67 -264,90 -421,63 -51,-9 -109,-23 -129,-31 -20,-8 -38,-14 -40,-12 -6,6 131,136 182,173 159,113 343,148 492,92 z"
         id="path1355" /><path
         d="m 992,8920 c -62,-38 -79,-129 -42,-216 29,-67 24,-140 -11,-166 -14,-11 -44,-22 -67,-25 -65,-9 -51,-43 17,-43 39,0 77,41 91,100 11,44 9,58 -15,141 -21,70 -25,99 -18,123 23,81 174,106 203,33 l 9,-22 v 22 c 1,12 -12,32 -30,47 -38,32 -90,34 -137,6 z"
         id="path1357" /><path
         d="M 745,8828 C 619,8686 554,8520 543,8315 c -4,-83 -2,-132 11,-195 50,-251 268,-525 518,-651 105,-53 120,-49 26,6 -153,90 -363,323 -447,498 -52,105 -74,199 -74,312 0,111 22,204 74,310 37,76 109,176 94,130 -13,-40 -27,-685 -16,-747 14,-80 50,-157 111,-232 60,-76 80,-95 80,-74 0,8 -32,56 -70,107 -79,104 -98,142 -106,215 -2,28 -1,212 4,408 8,352 8,358 31,382 17,18 22,33 19,62 l -3,38 z"
         id="path1359" /><path
         d="m 1256,8838 c 20,-63 78,-102 152,-103 36,0 48,5 68,28 28,33 31,52 7,42 -10,-4 -43,-10 -74,-12 -61,-6 -109,12 -132,47 -16,27 -30,25 -21,-2 z"
         id="path1361" /><path
         d="m 1828,8705 c -8,-64 -54,-153 -108,-205 -88,-86 -286,-160 -385,-145 -62,9 -115,44 -143,95 l -24,45 6,-35 c 16,-89 90,-157 181,-168 146,-16 372,122 445,272 26,53 53,186 38,186 -3,0 -8,-20 -10,-45 z"
         id="path1363" /><path
         d="m 1420,8705 c -29,-17 -98,-19 -134,-5 -39,14 -31,1 9,-16 51,-21 118,-18 140,6 23,26 17,32 -15,15 z"
         id="path1365" /><path
         d="m 1464,8644 c -22,-23 -44,-35 -73,-40 -53,-8 -53,-24 0,-24 33,0 47,6 75,34 19,19 34,41 34,50 0,20 2,21 -36,-20 z"
         id="path1367" /><path
         d="m 1507,8540 c -9,-13 -14,-26 -12,-29 9,-8 38,26 33,40 -3,8 -10,5 -21,-11 z"
         id="path1369" /><path
         d="m 2850,8471 c 0,-6 5,-13 10,-16 25,-15 40,-72 50,-182 7,-69 19,-135 29,-159 10,-22 49,-74 86,-115 115,-126 144,-226 111,-387 -22,-111 -61,-216 -172,-475 -107,-250 -148,-365 -199,-562 -28,-105 -48,-159 -80,-215 -99,-170 -241,-496 -291,-668 -21,-73 -25,-107 -24,-212 0,-69 4,-138 9,-155 7,-22 10,11 10,115 2,174 16,262 66,395 54,148 184,405 265,528 211,318 526,527 796,527 126,0 236,-58 275,-144 23,-51 25,-21 4,51 -51,171 -310,203 -584,73 -150,-72 -280,-177 -392,-318 -33,-40 -59,-68 -59,-62 0,6 11,56 25,111 31,122 86,276 155,434 29,66 75,172 102,235 97,222 135,378 126,507 -3,38 -13,83 -23,102 -9,19 -18,48 -20,65 -1,17 -5,51 -8,76 l -7,45 13,-50 c 14,-52 45,-120 53,-113 2,3 -5,42 -16,89 -59,249 -82,297 -186,380 -35,29 -64,56 -64,61 0,11 -38,48 -50,48 -5,0 -10,-4 -10,-9 z m 101,-108 c 13,-14 19,-23 12,-19 -26,14 -24,-19 5,-82 32,-69 66,-185 60,-203 -5,-16 -70,70 -85,113 -13,38 -31,218 -21,218 2,0 15,-12 29,-27 z m 133,-162 c 8,-21 17,-61 20,-88 5,-40 3,-36 -14,26 -11,41 -29,89 -40,108 -26,44 -26,53 0,20 11,-14 27,-44 34,-66 z m -17,-93 c -3,-7 -5,-2 -5,12 0,14 2,19 5,13 2,-7 2,-19 0,-25 z"
         id="path1371" /><path
         d="m 1991,8372 c -9,-25 -55,-78 -146,-167 -153,-151 -185,-202 -193,-305 -2,-36 0,-81 6,-100 9,-32 10,-28 11,41 1,99 23,158 78,217 l 44,47 -25,-45 c -42,-76 -60,-163 -60,-290 0,-100 3,-121 23,-163 13,-26 27,-50 32,-53 18,-11 41,69 46,160 3,55 11,97 19,107 8,9 12,18 9,20 -2,3 2,69 10,148 8,78 14,146 12,150 -2,9 124,171 134,171 3,0 12,-26 19,-57 7,-32 27,-107 45,-168 44,-146 49,-188 31,-272 -17,-84 -46,-144 -115,-238 -28,-38 -51,-74 -51,-79 0,-19 76,64 110,121 91,149 102,275 44,475 -46,158 -52,181 -58,251 -2,32 -6,60 -8,63 -2,2 -10,-13 -17,-34 z"
         id="path1373" /><path
         d="m 435,8154 c 14,-115 92,-271 154,-313 20,-13 17,-6 -13,33 -50,66 -95,155 -123,246 -17,55 -22,64 -18,34 z"
         id="path1375" /><path
         d="m 930,7943 c 0,-68 132,-286 231,-383 43,-41 91,-75 147,-103 77,-38 92,-42 178,-45 83,-4 94,-7 94,-23 0,-11 12,-22 34,-30 31,-11 32,-14 23,-39 -16,-41 -1,-78 37,-97 l 34,-16 -24,-56 c -56,-127 -144,-227 -239,-272 -42,-20 -90,-32 -158,-40 -53,-7 -99,-10 -102,-8 -2,3 6,32 20,64 13,33 33,107 45,165 12,58 28,119 34,135 16,38 62,92 90,107 18,9 17,6 -6,-18 -39,-42 -57,-103 -69,-229 -9,-93 -15,-117 -39,-157 l -29,-48 h 33 c 43,0 62,17 75,67 7,25 24,52 45,70 25,23 31,34 25,49 -9,26 80,145 140,188 23,17 41,36 41,43 0,24 -61,-16 -125,-81 -32,-33 -55,-55 -51,-48 10,16 14,46 20,132 l 4,65 46,15 c 25,8 46,19 46,24 0,4 -28,7 -63,4 -104,-6 -182,-74 -206,-178 -6,-25 -19,-85 -30,-135 -12,-51 -38,-124 -61,-170 -22,-44 -40,-93 -40,-108 0,-26 2,-28 33,-23 17,3 74,13 126,21 146,25 224,63 296,147 42,50 111,183 121,234 5,25 14,38 31,45 13,5 26,9 27,9 2,0 6,-31 8,-68 4,-58 14,-86 61,-178 67,-134 95,-221 105,-339 6,-64 11,-84 17,-70 5,11 30,59 57,106 94,169 122,285 93,392 -23,89 -52,136 -124,204 -36,35 -60,63 -53,63 24,0 52,40 52,75 0,44 -36,73 -69,55 -19,-10 -20,-8 -15,19 14,70 -23,113 -77,90 -20,-8 -32,-21 -36,-40 -5,-27 -6,-27 -29,-13 -15,10 -29,36 -39,72 -22,76 -54,130 -108,179 -86,79 -171,110 -402,148 -82,13 -172,31 -200,40 -68,20 -75,19 -75,-12 z m 280,-93 c 295,-55 399,-108 468,-238 18,-33 32,-64 32,-70 0,-6 -10,-26 -22,-46 -18,-28 -30,-35 -55,-36 -19,0 -36,-7 -41,-16 -8,-15 -19,-14 -113,11 -182,48 -278,110 -382,248 -49,66 -117,175 -117,190 0,3 15,1 33,-4 17,-4 106,-22 197,-39 z m 673,-358 c -1,-40 -31,-105 -44,-97 -5,4 -8,-4 -6,-17 2,-20 -2,-23 -33,-23 -28,0 -35,4 -35,20 0,12 9,21 25,26 21,5 22,7 8,14 -28,11 -48,-2 -54,-35 -6,-29 -34,-43 -34,-16 0,8 -19,16 -52,22 -65,11 -65,29 0,30 66,1 67,2 47,24 -17,19 -17,20 11,31 18,6 35,7 44,1 8,-5 25,-15 37,-23 32,-19 40,-3 13,26 -33,36 -21,57 32,53 42,-3 43,-4 41,-36 z m 65,-74 c 19,-19 15,-27 -24,-43 -26,-11 -35,-19 -30,-31 5,-12 2,-15 -10,-10 -8,3 -21,6 -28,6 -24,0 -6,44 27,68 36,25 48,27 65,10 z m -182,-99 c 4,-7 21,-9 43,-5 24,3 50,-1 77,-13 51,-23 59,-35 38,-55 -34,-35 -112,-32 -121,4 -5,18 -11,19 -59,14 -41,-5 -59,-3 -79,10 -35,23 -23,36 31,36 24,0 44,5 44,10 0,13 17,13 26,-1 z m 214,-110 c 7,-12 4,-15 -12,-15 -41,2 -58,-40 -60,-149 -2,-101 9,-143 45,-173 11,-10 16,10 26,126 7,75 13,147 14,159 1,22 2,22 30,-5 68,-64 92,-169 63,-280 -18,-70 -77,-196 -106,-226 -21,-22 -18,-32 -39,134 -9,74 -19,102 -80,225 -38,77 -73,158 -76,180 l -7,40 26,-28 c 16,-17 35,-27 54,-27 34,0 78,31 88,62 6,21 9,19 34,-23 z"
         id="path1377" /><path
         d="m 1080,7826 c 31,-35 78,-62 200,-119 l 95,-44 3,61 c 2,33 8,64 14,67 6,4 -25,10 -68,14 -73,6 -184,24 -244,41 l -25,7 z"
         id="path1379" /><path
         d="m 1240,7705 c 0,-3 34,-28 75,-55 98,-63 285,-137 285,-112 0,10 -90,52 -179,83 -30,11 -83,35 -118,54 -35,19 -63,32 -63,30 z"
         id="path1381" /><path
         d="m 1902,7818 c -17,-35 -33,-83 -37,-108 -5,-40 -3,-36 20,29 14,40 33,87 41,103 9,16 13,32 11,35 -3,2 -19,-24 -35,-59 z"
         id="path1383" /><path
         d="m 400,7712 c 0,-6 22,-72 49,-145 26,-72 56,-159 66,-192 56,-194 168,-287 347,-287 64,-1 87,4 133,27 51,24 75,48 63,60 -2,3 -26,-4 -54,-14 -61,-23 -139,-37 -130,-23 7,11 83,32 123,33 32,0 32,0 -70,39 -63,25 -87,44 -35,29 61,-17 120,-10 206,25 45,19 96,37 112,41 24,5 30,12 30,32 0,25 -1,25 -50,19 -27,-4 -68,-13 -91,-21 -58,-21 -63,-19 -82,19 -21,46 -80,79 -197,111 -52,15 -112,33 -132,41 -21,7 -38,12 -38,9 0,-10 81,-45 185,-79 111,-36 185,-81 185,-113 0,-26 -172,-14 -230,16 -40,21 -317,291 -371,361 -10,14 -19,19 -19,12 z m 301,-360 c 44,-47 52,-59 30,-48 -15,8 -53,46 -84,83 -108,131 -116,139 -125,125 -11,-17 -24,-1 -41,48 -12,36 10,16 220,-208 z m -157,65 c 8,-29 17,-68 21,-87 6,-35 6,-35 -9,-10 -12,22 -46,135 -46,155 0,3 4,3 10,0 5,-3 16,-29 24,-58 z m 116,-217 c 6,-11 9,-20 7,-20 -2,0 -12,9 -22,20 -10,11 -13,20 -7,20 6,0 16,-9 22,-20 z"
         id="path1385" /><path
         d="m 2190,7643 c -107,-18 -200,-92 -200,-158 0,-16 4,-14 21,12 19,30 67,69 75,61 2,-3 -6,-24 -18,-49 -32,-67 -34,-117 -6,-158 l 23,-34 120,-3 c 65,-2 127,-2 136,1 18,6 20,35 4,47 -6,5 -6,8 1,8 6,0 11,12 12,28 1,15 5,57 10,94 6,46 5,69 -2,72 -6,3 3,3 19,-1 17,-3 79,-30 138,-59 63,-31 129,-56 158,-60 57,-8 55,-15 -18,-66 -78,-53 -234,-96 -415,-113 -81,-8 -172,9 -200,37 -20,20 -20,20 -16,-3 2,-12 16,-31 31,-43 26,-19 42,-21 155,-21 134,0 193,11 325,61 124,48 230,136 213,180 -3,8 -19,14 -40,14 -43,0 -132,33 -242,88 -119,60 -200,79 -284,65 z"
         id="path1387" /><path
         d="m 2181,7160 c 181,-93 245,-334 158,-594 -37,-111 -82,-185 -151,-253 -170,-165 -352,-229 -628,-221 -139,4 -149,5 -196,33 -45,26 -150,122 -142,131 12,11 48,-11 48,-30 1,-20 1,-20 12,-2 15,26 5,181 -16,229 -18,44 -4,46 28,4 16,-21 20,-49 26,-149 3,-68 11,-131 16,-140 13,-24 16,229 2,272 -14,45 -50,84 -113,120 -27,16 -84,58 -127,94 -42,36 -78,66 -81,66 -3,0 -8,-7 -11,-16 -3,-9 10,-38 34,-72 30,-43 48,-88 75,-181 45,-159 66,-203 136,-274 l 57,-59 -46,7 c -72,11 -221,63 -290,101 -155,87 -262,248 -262,394 0,100 52,201 131,256 68,47 45,68 -31,29 -159,-82 -174,-403 -28,-596 59,-78 128,-133 231,-184 l 89,-43 -46,-20 c -64,-29 -86,-68 -86,-157 0,-159 116,-291 265,-303 77,-6 113,7 155,55 41,46 43,117 4,163 -52,61 -159,97 -194,65 -11,-10 -20,-28 -20,-39 1,-19 2,-19 11,-3 14,24 56,21 117,-9 95,-47 129,-116 76,-151 -39,-25 -148,-22 -205,5 -103,50 -179,143 -179,218 0,37 5,47 41,77 26,23 63,41 103,52 58,16 70,16 163,1 130,-21 340,-21 440,0 309,64 534,248 620,509 23,68 27,98 27,200 0,125 -14,196 -56,278 -29,57 -93,122 -143,146 -67,31 -78,24 -14,-9 z M 1125,6581 c 3,-5 1,-12 -5,-16 -5,-3 -10,1 -10,9 0,18 6,21 15,7 z m 13,-87 c -3,-14 -5,-12 -10,9 -3,19 -2,25 4,19 6,-6 8,-18 6,-28 z"
         id="path1389" /><path
         d="m 2383,7051 c 80,-88 108,-142 127,-244 l 9,-52 -3,66 c -5,88 -36,145 -134,240 l -76,74 z"
         id="path1391" /><path
         d="m 1735,6797 c -68,-210 -54,-319 54,-420 67,-63 123,-89 201,-94 51,-3 73,0 100,15 42,23 80,84 80,130 0,104 -101,180 -158,119 -27,-29 -28,-41 -3,-27 62,33 145,-15 145,-85 0,-100 -148,-138 -273,-70 -167,91 -204,192 -142,387 29,90 47,168 40,168 -2,0 -22,-55 -44,-123 z"
         id="path1393" /><path
         d="m 3410,6678 c -27,-18 -38,-35 -47,-70 -20,-84 9,-154 81,-191 139,-72 301,17 351,193 6,20 1,16 -22,-15 -63,-85 -150,-135 -235,-135 -61,0 -140,49 -159,99 -27,70 109,132 176,80 23,-19 26,-28 23,-65 -4,-53 8,-58 18,-7 13,71 -28,121 -107,130 -35,4 -51,0 -79,-19 z"
         id="path1395" /><path
         d="m 1607,6532 c -3,-17 -9,-43 -12,-58 l -5,-29 14,30 c 13,27 15,28 22,11 6,-16 -9,-36 -26,-33 -17,2 -51,-27 -46,-40 4,-10 -19,-41 -68,-92 -74,-77 -96,-107 -96,-135 0,-17 49,-77 50,-60 0,6 -7,17 -15,24 -8,7 -15,19 -15,27 0,13 16,14 108,8 105,-7 107,-6 130,18 25,27 42,76 42,124 0,26 -62,218 -74,230 -2,2 -6,-9 -9,-25 z m -42,-195 c -27,-43 -45,-40 -21,3 11,22 25,35 29,31 5,-5 1,-20 -8,-34 z m 95,-74 c -10,-16 -11,-15 -6,7 3,14 7,39 8,55 1,26 2,25 5,-7 2,-21 -1,-46 -7,-55 z m -70,67 c 0,-5 -5,-10 -11,-10 -5,0 -7,5 -4,10 3,6 8,10 11,10 2,0 4,-4 4,-10 z m -110,-65 c -6,-8 -9,-19 -5,-25 3,-5 3,-10 -2,-10 -4,0 -19,-3 -33,-6 -23,-5 -23,-3 10,25 37,33 50,40 30,16 z"
         id="path1397" /><path
         d="m 2477,6433 c -43,-163 -148,-307 -285,-394 -36,-23 -135,-75 -220,-115 -182,-87 -273,-145 -339,-218 -55,-60 -108,-153 -118,-209 -9,-45 17,-122 45,-137 22,-12 58,0 81,26 23,27 52,85 45,92 -3,3 -6,1 -6,-5 0,-6 -12,-22 -26,-37 -44,-43 -97,-31 -117,27 -12,33 14,103 58,159 63,81 159,147 360,250 99,50 212,112 250,138 95,64 177,155 219,243 35,72 80,219 74,238 -2,6 -12,-20 -21,-58 z"
         id="path1399" /><path
         d="m 4575,6477 c -53,-13 -151,-112 -188,-189 -49,-102 -77,-254 -77,-413 0,-107 37,-585 51,-659 12,-68 49,-190 54,-184 2,2 -2,26 -11,53 -34,113 -54,288 -74,628 -15,247 -3,356 47,457 41,80 66,99 117,86 54,-13 69,-100 40,-226 -21,-95 -14,-119 14,-45 35,91 65,125 111,125 53,0 70,-23 87,-121 8,-46 20,-87 28,-91 7,-4 19,-21 26,-37 11,-28 9,-32 -43,-94 -108,-127 -186,-263 -225,-389 -23,-73 -47,-224 -58,-360 l -6,-88 -26,20 c -32,26 -57,25 -76,-2 -32,-46 -17,-76 75,-155 43,-36 144,-171 214,-286 75,-123 106,-160 120,-145 4,3 -2,23 -13,45 -11,21 -23,54 -27,73 -4,19 -16,63 -27,98 -18,58 -23,66 -88,113 -38,28 -81,65 -96,82 -17,21 -27,28 -31,19 -6,-17 -33,4 -33,25 0,8 -21,34 -46,58 l -46,42 33,-5 c 44,-6 59,-19 59,-50 0,-38 12,-19 15,25 1,21 10,83 18,138 49,308 89,408 241,599 178,224 383,405 566,500 80,42 87,43 112,30 60,-32 41,-110 -46,-192 -28,-26 -103,-76 -166,-111 -133,-73 -144,-84 -121,-119 6,-11 26,-5 92,28 72,37 89,41 127,36 50,-7 77,-23 104,-63 l 20,-28 -7,30 c -8,38 -35,77 -63,90 -12,5 -22,12 -22,16 0,3 17,20 38,37 l 39,30 -10,-43 c -9,-41 -8,-48 18,-86 25,-36 29,-49 28,-107 -1,-43 -11,-93 -27,-139 -14,-40 -26,-82 -26,-93 0,-16 -7,-20 -35,-20 h -35 l 36,47 c 39,51 53,80 60,128 4,26 3,25 -9,-8 -21,-55 -53,-97 -108,-142 -37,-30 -49,-47 -49,-67 0,-31 -1,-31 59,-17 51,11 106,-2 121,-31 28,-52 2,-148 -56,-210 -34,-37 -44,-55 -44,-81 0,-29 5,-36 30,-46 39,-14 40,-50 4,-93 -48,-56 -73,-63 -165,-45 -123,23 -264,19 -393,-10 -60,-13 -111,-27 -114,-30 -13,-13 9,-12 73,2 39,8 120,16 180,16 100,1 116,-1 175,-27 232,-101 214,-96 347,-95 69,0 130,-4 141,-10 25,-13 35,-41 35,-95 0,-47 -30,-78 -93,-97 -37,-11 -58,-38 -46,-58 3,-4 25,-11 48,-15 79,-13 138,-71 138,-136 0,-109 -109,-221 -202,-206 -47,8 -57,-8 -38,-63 23,-71 -30,-109 -139,-98 -47,5 -60,11 -84,39 -61,71 -192,258 -268,383 -43,71 -87,139 -96,150 -27,30 -93,79 -99,72 -3,-3 6,-13 21,-23 36,-24 91,-106 163,-249 60,-118 174,-302 235,-379 35,-44 145,-129 157,-121 4,3 13,-2 20,-10 11,-13 8,-15 -18,-15 -21,0 -43,11 -67,31 -23,21 -35,26 -35,16 0,-45 112,-117 183,-117 32,0 47,8 90,49 29,26 91,74 139,105 101,66 141,108 177,186 37,80 35,156 -7,231 -18,31 -32,62 -32,70 0,8 16,31 36,50 50,47 74,102 74,172 0,106 -75,199 -170,212 -27,4 -54,4 -60,0 -15,-9 -13,-2 17,50 20,37 28,66 31,126 6,109 -19,183 -117,348 -143,238 -150,303 -52,524 58,132 70,178 71,270 0,150 -79,189 -249,122 -120,-47 -329,-181 -444,-285 l -67,-62 -37,77 c -36,76 -36,80 -43,236 -6,140 -10,163 -31,206 -37,71 -99,100 -174,80 z m 140,-179 c 19,-49 33,-203 16,-178 -6,8 -11,30 -11,47 0,18 -9,56 -20,85 -11,29 -20,61 -20,71 0,31 17,18 35,-25 z m -212,18 c 4,-10 1,-13 -8,-9 -8,3 -12,9 -9,14 7,12 11,11 17,-5 z m 60,-54 c 9,-9 25,-37 36,-61 l 19,-44 -21,-30 -22,-29 -7,67 c -3,36 -14,77 -22,91 -19,28 -7,32 17,6 z m 1010,-89 c 8,-10 18,-30 22,-44 9,-37 -25,-171 -84,-324 l -49,-130 -7,50 c -3,28 -8,58 -10,68 -2,10 11,38 29,61 50,65 80,143 80,208 1,50 -3,61 -26,85 -31,31 -48,25 -24,-9 26,-36 20,-75 -20,-129 -20,-27 -37,-49 -39,-49 -2,0 2,19 10,41 21,59 19,121 -5,152 -24,30 -17,35 56,36 37,1 55,-4 67,-16 z m -113,-647 c 0,-13 3,-39 6,-57 l 6,-34 -21,20 c -16,16 -19,28 -14,58 6,41 23,51 23,13 z m 30,-238 c 0,-20 -9,-65 -20,-100 -22,-69 -26,-138 -9,-155 7,-7 7,-24 -1,-56 -7,-25 -10,-70 -8,-101 l 3,-56 h -37 c -21,0 -38,2 -38,4 0,2 11,24 25,47 31,54 34,135 7,169 -17,21 -17,24 18,93 31,64 35,79 35,153 0,70 2,79 12,61 7,-12 12,-38 13,-59 z m 103,-81 c 108,-181 113,-282 17,-346 -23,-15 -23,-15 -17,9 11,40 20,175 14,202 -4,15 -22,31 -53,46 -39,19 -45,26 -40,45 3,12 9,48 13,80 3,31 7,57 8,57 1,0 27,-42 58,-93 z m 80,-459 c -4,-7 -6,-21 -5,-31 3,-17 2,-17 -27,-3 -16,9 -38,16 -48,16 -30,1 28,29 60,30 20,0 26,-4 20,-12 z m 167,-70 c 24,-39 27,-123 6,-171 -7,-18 -26,-43 -41,-57 -24,-22 -27,-23 -21,-5 15,50 26,133 26,196 0,38 2,69 5,69 3,0 14,-15 25,-32 z m -136,-80 c -3,-5 -9,-50 -13,-98 l -6,-90 -33,26 -32,26 24,29 c 27,32 45,85 47,134 0,29 1,29 10,7 5,-13 6,-28 3,-34 z m -1009,-45 c 9,-38 0,-38 -22,0 -11,19 -29,47 -39,63 -18,29 -17,29 18,-5 20,-18 39,-45 43,-58 z m 1055,-257 c 0,-49 -31,-120 -62,-146 -32,-26 -33,-18 -4,25 31,45 40,91 33,158 l -6,52 19,-24 c 13,-15 20,-38 20,-65 z m 60,-138 c 0,-44 -27,-103 -60,-133 l -23,-20 18,35 c 12,22 20,65 23,119 5,85 5,85 23,62 11,-14 19,-39 19,-63 z m -300,-133 c -7,-8 -16,-12 -21,-9 -13,8 -1,24 18,24 13,0 13,-3 3,-15 z m 80,-90 c 0,-8 -153,-135 -158,-131 -2,3 10,25 27,50 32,46 53,62 100,77 14,4 27,8 29,8 1,1 2,-1 2,-4 z"
         id="path1401" /><path
         d="m 4443,6118 c -17,-21 -32,-86 -44,-198 -10,-95 -9,-124 17,-332 15,-125 30,-226 32,-223 2,2 -4,93 -14,203 -17,190 -17,203 0,303 32,190 38,241 28,251 -5,5 -13,4 -19,-4 z"
         id="path1403" /><path
         d="m 4642,5933 c -16,-32 -37,-80 -45,-108 -27,-83 -96,-339 -92,-343 1,-2 8,13 15,33 6,19 42,100 80,178 74,156 103,235 98,268 -6,41 -27,31 -56,-28 z"
         id="path1405" /><path
         d="m 4117,5964 c -11,-11 -8,-83 3,-105 6,-10 21,-19 34,-19 22,0 24,-4 25,-59 1,-108 77,-427 139,-586 22,-55 42,-109 45,-120 4,-19 5,-19 6,1 2,31 -41,190 -88,326 -66,192 -82,264 -88,391 -3,64 -9,117 -12,117 -4,0 -13,-6 -20,-12 -12,-11 -13,-9 -6,7 15,38 11,60 -10,63 -12,2 -24,0 -28,-4 z"
         id="path1407" /><path
         d="m 3800,5740 c -15,-27 1,-81 36,-128 16,-20 67,-77 114,-127 47,-49 114,-127 148,-172 35,-46 65,-83 67,-83 10,0 -204,290 -272,368 -66,76 -87,112 -65,112 5,0 14,-10 20,-22 10,-22 11,-22 11,5 2,58 -37,88 -59,47 z"
         id="path1409" /><path
         d="m 5220,5626 c -153,-57 -359,-215 -456,-352 -43,-61 -197,-365 -188,-373 6,-7 7,-6 77,141 86,177 142,238 374,405 169,122 257,192 238,192 -5,0 -26,-6 -45,-13 z"
         id="path1411" /><path
         d="m 2136,5434 c -54,-104 -129,-189 -242,-275 -190,-146 -209,-178 -209,-354 0,-104 3,-127 23,-171 24,-53 92,-130 92,-104 0,10 3,11 11,3 10,-10 4,-25 -27,-71 -2,-2 -32,8 -68,22 -50,20 -70,24 -90,16 -28,-10 -42,-46 -32,-84 8,-31 -15,-51 -90,-77 -91,-32 -221,-36 -321,-11 -169,43 -258,104 -365,250 -39,53 -91,118 -117,145 l -45,47 h 35 c 20,0 125,17 235,37 172,32 219,37 349,38 137,0 155,-2 203,-24 31,-14 69,-43 92,-68 38,-44 80,-134 80,-173 0,-11 4,-20 9,-20 15,0 -17,120 -50,187 -63,129 -180,209 -323,220 -95,7 -159,-5 -366,-72 -167,-54 -290,-79 -358,-73 -32,3 -37,0 -40,-20 -2,-12 3,-24 10,-26 7,-2 32,-9 55,-15 58,-16 140,-93 225,-214 94,-132 137,-173 233,-218 157,-74 336,-88 451,-35 l 52,24 15,-39 c 8,-21 13,-47 10,-58 -6,-24 17,-68 57,-106 l 32,-30 -7,-120 c -10,-203 -37,-279 -125,-358 -70,-63 -143,-85 -324,-97 -78,-5 -158,-10 -179,-10 h -39 l 32,26 c 17,15 52,63 78,108 36,60 61,89 96,114 27,17 43,32 37,32 -7,0 -10,3 -8,8 8,12 30,293 24,299 -4,3 -26,-6 -51,-21 -59,-35 -92,-92 -128,-223 -32,-117 -54,-165 -107,-238 -54,-73 -55,-74 -35,-96 17,-19 16,-19 -29,-19 h -46 l 18,43 c 10,23 37,99 60,169 29,88 58,151 90,200 57,87 160,186 227,219 63,30 156,37 208,15 45,-19 46,-19 46,-7 0,13 -79,48 -125,55 -49,8 -144,-16 -202,-50 -107,-62 -170,-153 -245,-354 -22,-58 -51,-129 -65,-159 -23,-47 -91,-126 -146,-169 -18,-14 -24,-82 -7,-82 5,0 32,9 61,20 129,51 188,62 394,70 237,9 282,21 370,101 95,87 134,208 135,417 v 102 h 35 c 25,0 44,8 60,24 20,20 26,22 36,10 6,-7 27,-16 46,-20 30,-6 34,-10 28,-28 -14,-44 -18,-223 -6,-259 15,-46 64,-88 149,-131 l 68,-34 2,31 c 1,18 7,87 13,155 9,94 9,126 0,135 -6,6 -42,30 -79,52 -51,31 -68,46 -70,66 -4,31 22,57 41,41 6,-6 41,-18 77,-27 142,-35 192,-57 235,-99 78,-79 89,-205 35,-417 -48,-193 -50,-199 -61,-199 -5,0 -21,25 -35,55 -32,67 -90,118 -229,205 -213,132 -261,219 -189,349 36,66 28,95 -15,52 -41,-41 -54,-174 -26,-267 20,-67 62,-108 215,-208 141,-93 213,-160 253,-237 15,-29 27,-51 27,-49 1,3 24,93 51,200 39,149 52,219 56,297 7,124 -5,172 -58,248 l -38,55 h 63 c 156,0 263,45 376,159 44,44 88,100 105,133 17,32 36,58 42,58 23,0 212.3252,21.6015 280.3252,-8.3985 117.859,12.1842 34.7842,20.8642 76.7842,-15.1358 l 30,-26 -37,6 c -105,17 -315.6677,-25.3793 -302.6677,-38.3793 2,-3 23.7244,-31.1968 137.5288,1.8853 69.815,31.1849 123.1389,3.494 172.1389,-3.506 l 57.9152,1.9683 48.0073,-24.8487 c 79,-86 -56.1064,-343.5242 -56.1064,-420.5242 0,-170 -21.4492,-502.7907 -103.9255,-528.0611 -340,-95 -514,-165 -690,-278 -80,-51 -91,-55 -180,-66 -137,-18 -372,-66 -465,-96 -248,-80 -561,-289 -698,-465 -87,-110 -137,-229 -137,-326 0,-113 72,-219 187,-276 58,-28 79,-33 164,-36 137,-6 212,19 291,98 63,63 88,124 88,213 0,198 -161,271 -289,132 -52,-57 -62,-92 -31,-117 40,-32 70,-16 35,19 -9,8 -15,23 -13,32 5,25 82,62 143,68 52,5 56,4 89,-29 42,-42 53,-91 37,-161 -16,-69 -43,-110 -99,-147 -151,-100 -397,-71 -516,61 -156,174 -25,440 339,683 239,161 440,229 828,281 l 49,6 -55,-64 c -126,-148 -188,-321 -212,-592 -25,-278 108,-439 348,-422 185,13 342,161 364,344 3,24 10,40 15,37 5,-3 6,-14 3,-25 -8,-24 7,-25 28,-1 47,52 62,154 52,348 l -7,136 -33,-32 c -46,-44 -81,-114 -94,-184 -16,-89 -14,-245 4,-280 14,-26 13,-32 -7,-73 -30,-59 -115,-138 -185,-171 -50,-23 -71,-27 -153,-27 -104,0 -144,14 -214,76 -90,78 -119,240 -77,421 24,104 41,142 41,93 1,-132 194,-279 321,-245 63,17 49,37 -31,42 -162,12 -300,143 -274,261 21,96 166,227 364,328 l 85,43 200,7 c 218,8 307,18 430,50 265,67 513,244 613,436 52,100 55,131 5,43 -48,-83 -175,-211 -277,-279 -148,-100 -282,-149 -467,-170 -102,-12 -299,-19 -299,-11 0,3 30,16 68,29 350,121 219.3516,84.646 360.3516,232.646 94,100 77.6428,431.3342 82.6428,539.3342 5,97 41.9034,175.8287 67.0754,283.4473 l 18.1412,142.9711 -1.5116,35.0354 c 86,-21 405.7423,194.9537 461.7423,116.9537 l 17,-25 -14,30 c -32,68 -381.7423,-120.9537 -487.7423,-87.9537 -22,7 -33.59,27.0317 -77.59,62.0317 C 3075.4304,4587.7284 3042.1251,4435.348 2794,4484 c -99,20 -244,56 -323,81 -80,25 -147,42 -150,40 -2,-3 -2,-6 0,-8 17,-11 409,-137 427,-137 12,0 22,-5 22,-11 0,-16 -115,-2 -265,33 -171,40 -308,44 -373,10 -42,-22 -82,-72 -82,-102 0,-8 9,0 20,18 13,21 38,41 67,54 65,29 195,20 363,-24 101,-26 145,-32 228,-33 56,0 102,-3 102,-7 0,-10 -66,-85 -104,-118 -59,-52 -123,-90 -201,-121 -68,-27 -94,-32 -170,-33 -95,-1 -148,13 -208,56 -26,19 -27,22 -12,31 10,5 65,11 124,14 129,6 171,16 164,42 -2,10 0,41 5,70 9,50 8,52 -20,76 -32,27 -78,39 -155,39 -96,1 -145,-63 -146,-188 -1,-39 3,-79 7,-88 7,-16 2,-18 -48,-15 -56,2 -56,2 -56,33 0,17 -7,37 -15,44 -11,9 -12,16 -5,25 39,47 25,137 -22,148 -16,4 -28,18 -37,42 -7,20 -19,39 -27,42 -20,8 -17,20 7,26 12,3 19,9 16,14 -3,4 1,61 7,126 l 12,119 -29,24 -28,24 20,28 c 11,16 27,34 35,41 9,8 17,43 21,109 4,53 11,107 16,120 6,15 5,21 -1,17 -21,-13 -8,6 43,63 28,32 70,91 91,130 22,40 42,72 45,72 10,0 120,-412 127,-475 7,-74 -10,-173 -41,-235 -41,-80 -132,-151 -220,-169 -17,-4 -30,-13 -30,-21 0,-12 15,-15 67,-15 59,0 70,3 104,31 79,63 144,224 144,353 0,88 -15,159 -71,330 -22,68 -46,163 -53,210 l -12,86 z m -312,-416 c -43,-85 -55,-137 -61,-268 -4,-101 -3,-132 10,-163 21,-48 3,-38 -34,21 -33,53 -35,82 -15,259 7,65 18,118 27,129 13,16 88,74 96,74 2,0 -8,-23 -23,-52 z m 78,-568 c 32,-28 32,-29 10,-30 -40,0 -23,-34 20,-41 86,-14 93,-76 11,-98 -43,-12 -41,-37 7,-61 23,-12 40,-26 37,-33 -6,-20 -56,-39 -119,-44 -54,-5 -60,-4 -65,16 -7,27 -11,26 -35,-4 -26,-33 -82,-34 -128,-2 -42,28 -48,45 -18,49 34,5 28,33 -12,60 -27,18 -35,31 -35,53 0,28 3,30 35,29 19,0 44,-4 54,-9 16,-7 18,-5 14,13 -5,16 -1,22 16,25 19,3 18,5 -9,15 -58,24 -75,36 -75,53 0,41 106,32 145,-11 20,-22 35,-26 35,-8 0,19 42,58 62,58 10,0 32,-13 50,-30 z m 937,-1897 c -1,-128 -13,-121 -25,14 -7,74 -2,103 16,103 6,0 10,-43 9,-117 z m -88,-4 c -5,-13 -10,-19 -10,-12 -1,15 10,45 15,40 3,-2 0,-15 -5,-28 z m 29,-156 c -6,-29 -16,-53 -21,-53 -14,0 -11,65 9,138 l 17,67 3,-50 c 2,-27 -2,-74 -8,-102 z"
         id="path1413"
         sodipodi:nodetypes="ccscsscccccccccsccccsscccccsccccccccccccsccccsccccccsccccccscccccscccccssccccccccsccccccscccsccccccccsccscccccccccscccscsccsscccccsccccccccccscccccccccsccccccccccccccscccccccccccccccssccsccccscccccccccccccscccccsccccccccccccscccsscsccccccccccscccscccccccccscccccscsscccscsccscscccc" /><path
         d="m 1752,4328 c -17,-17 -15,-73 4,-89 21,-17 46,-1 56,36 5,21 4,25 -4,17 -15,-15 -48,-16 -48,-2 0,6 11,15 25,22 13,6 22,15 19,19 -8,13 -38,11 -52,-3 z"
         id="path1415" /><path
         d="m 2472,5422 c -16,-15 -40,-48 -53,-72 -21,-39 -24,-58 -24,-151 0,-104 1,-107 42,-191 33,-66 64,-108 140,-189 54,-57 109,-117 121,-134 22,-28 22,-26 -3,20 -14,28 -59,88 -101,135 -121,137 -147,180 -156,258 -4,37 -7,106 -7,153 l -1,87 35,31 c 68,59 155,31 155,-51 0,-39 -29,-83 -60,-93 -11,-4 -20,-15 -20,-26 0,-46 94,19 106,73 9,43 -14,115 -48,149 -39,39 -85,39 -126,1 z"
         id="path1417" /><path
         d="m 5172,5275 c -88,-30 -214,-92 -304,-151 -63,-41 -233,-192 -225,-201 3,-2 53,31 113,73 148,103 281,166 420,198 120,27 204,60 204,81 0,34 -109,33 -208,0 z"
         id="path1419" /><path
         d="m 2801,5118 c -147,-42 -178,-212 -77,-425 40,-84 57,-99 21,-20 -67,153 -83,277 -42,337 35,53 80,74 156,74 107,0 196,-60 189,-128 -3,-27 -12,-35 -68,-64 -67,-34 -79,-45 -60,-57 21,-13 79,6 109,36 82,82 21,220 -111,248 -57,13 -71,13 -117,-1 z"
         id="path1421" /><path
         d="m 1095,4815 c -27,-8 -108,-22 -180,-30 -166,-20 -195,-25 -195,-36 0,-16 101,-60 169,-75 65,-14 321,-19 290,-6 -13,6 -14,17 -4,85 12,89 13,88 -80,62 z"
         id="path1423" /><path
         d="m 3844,4745 c -103,-22 -177,-73 -217,-149 -30,-57 -30,-165 0,-222 51,-96 131,-140 239,-131 53,4 73,10 102,34 88,71 72,203 -30,251 -43,21 -105,28 -188,22 -34,-2 -23,-5 41,-10 113,-9 165,-36 198,-104 23,-46 24,-51 10,-90 -18,-52 -50,-68 -138,-68 -113,-1 -210,56 -232,135 -12,46 2,127 30,174 44,72 137,113 271,121 106,5 180,-9 269,-54 116,-58 208,-168 245,-293 21,-70 21,-202 0,-272 -40,-136 -101,-225 -276,-406 -187,-194 -259,-300 -293,-430 -18,-68 -19,-157 -4,-204 43,-127 200,-187 324,-124 27,13 49,23 50,22 1,-1 9,-27 18,-58 19,-62 75,-134 133,-170 39,-24 34,-50 -6,-29 -12,6 -24,9 -27,6 -3,-3 -18,12 -33,33 -34,47 -73,71 -168,105 -113,40 -183,43 -347,13 -77,-14 -168,-29 -202,-33 -58,-6 -63,-8 -63,-31 0,-13 11,-39 24,-56 13,-18 107.3997,-52.3092 134.3997,-104.3092 56.3635,-35.1455 104.8726,-57.273 131.8726,-84.273 C 3965.2723,2412.4178 4102,2333 4239,2460 c 18,17 34,30 35,28 4,-7 26,-59 26,-62 0,-2 -11,-6 -23,-10 -60,-15 -103,-76 -147,-211 -31,-96 -56,-143 -99,-185 l -37,-37 -38,33 c -80,69 -181,98 -341,98 -235,1 -385,-95 -385,-244 1,-132 148,-257 315,-268 86,-5 131,11 170,62 36,48 46,127 20,156 -23,25 -35,25 -35,0 0,-10 9,-24 20,-30 30,-16 24,-48 -18,-91 -51,-50 -80,-56 -182,-35 -164,34 -238,90 -248,186 -4,42 0,57 22,90 86,131 394,173 577,80 95,-49 169,-148 190,-253 7,-32 14,-56 16,-53 10,9 -18,149 -37,186 -11,22 -20,42 -20,44 0,3 60,5 133,4 115,-2 138,1 179,19 53,24 104,86 114,139 6,33 24,48 24,21 0,-25 69,-94 137,-137 37,-24 106,-68 152,-97 46,-30 85,-52 87,-50 3,2 1,46 -4,98 -8,80 -9,85 -11,37 0,-32 -3,-58 -6,-58 -3,0 -45,27 -93,59 l -87,59 9,116 c 6,77 13,113 20,109 6,-4 -17,23 -51,60 -35,37 -64,79 -68,96 -8,40 -20,39 -42,-1 -12,-24 -18,-66 -21,-151 -3,-84 -8,-115 -15,-108 -7,7 -10,49 -8,108 1,54 0,95 -3,93 -3,-3 -10,-54 -16,-114 -17,-164 -47,-214 -151,-250 -43,-15 -219,-23 -232,-10 -3,3 3,20 13,37 10,18 31,73 45,122 15,50 36,106 45,125 24,47 83,100 151,138 l 56,30 29,-19 c 40,-26 52,-24 72,11 23,40 73,43 90,5 12,-26 87,-85 109,-85 7,0 13,-6 13,-14 0,-8 23,-27 52,-43 74,-40 91,-68 98,-161 l 7,-77 1,81 c 2,68 -2,88 -23,130 -14,27 -25,50 -25,52 0,1 19,2 43,2 23,0 60,9 83,19 36,16 47,30 85,107 50,99 77,123 167,149 79,23 112,42 112,64 0,15 -10,21 -39,26 -21,3 -98,35 -170,70 -72,36 -151,70 -176,76 -120,30 -255,-36 -300,-146 -25,-59 -25,-79 -1,-34 13,25 42,61 64,81 94,85 214,91 354,18 46,-24 109,-57 142,-74 32,-17 52,-32 45,-34 -131,-41 -168,-70 -213,-167 -41,-90 -62,-105 -141,-105 h -60 l 36,23 c 20,12 35,27 33,32 -2,6 2,73 10,150 8,77 12,143 10,147 -2,3 2,9 8,11 10,4 10,6 0,6 -7,1 -39,-10 -72,-24 -33,-14 -75,-25 -94,-25 -38,0 -55,-14 -103,-82 l -27,-39 17,-71 c 10,-39 16,-72 14,-74 -11,-12 -40,28 -40,54 0,25 -3,29 -14,21 -10,-9 -13,-8 -13,3 0,11 -8,13 -31,10 -23,-3 -33,-12 -41,-33 -12,-35 -43,-38 -82,-8 -21,17 -30,19 -41,9 -21,-17 -65,-4 -65,19 0,10 7,24 15,31 8,7 15,20 15,30 0,10 -7,20 -15,24 -25,9 -17,24 19,36 28,9 40,8 65,-4 40,-21 48,-20 27,3 -15,16 -15,20 -2,31 15,12 82,17 92,7 3,-3 -2,-19 -10,-36 -22,-43 -20,-61 7,-61 13,0 28,-5 35,-12 8,-8 12,-9 12,-1 0,6 -11,20 -25,31 -24,19 -24,21 -10,56 19,45 15,52 -32,61 -64,12 -160,90 -184,150 -13,33 -16,197 -5,262 4,23 37,93 73,155 36,62 72,130 80,151 l 16,39 28,-89 c 17,-52 47,-116 75,-158 25,-38 55,-88 66,-110 29,-56 35,-165 14,-239 -10,-32 -15,-60 -13,-62 10,-10 58,124 64,176 5,51 2,66 -24,122 -16,34 -57,105 -91,156 -70,107 -102,195 -103,286 v 61 l -19,-74 c -11,-41 -37,-106 -59,-145 -21,-39 -58,-107 -82,-151 -24,-44 -53,-114 -65,-155 -20,-71 -23,-76 -65,-97 -83,-44 -216,-23 -267,41 -59,75 -52,213 18,354 37,73 62,104 209,255 92,95 181,193 199,219 87,127 128,266 120,412 -20,346 -301,564 -634,491 z m 337,-1955 c 79,-26 136,-63 152,-97 10,-22 8,-28 -9,-42 -29,-23 -46,-57 -44,-89 1,-15 2,-32 1,-38 -2,-19 -173,-92 -243,-104 -114,-20 -103.8733,74.5634 -177.8733,154.5634 C 3821.1267,2616.5634 3604,2737 3614,2747 c 2,3 38,11 78,18 40,8 114,23 163,34 112,26 231,22 326,-9 z"
         id="path1425"
         sodipodi:nodetypes="cscccccccccccccccccccscccsccccscccccsccccccccccscccccccccscccscccccsccccccccsccccsccccccccsscccccsscccsccccccccccscccscccssccccscsscccssscccccscssscccccsccccccscccccccsccccccccccccccccccc" /><path
         d="m 3660,2730 c 0,-5 11,-17 25,-26 14,-9 54,-55 89,-103 71,-97 109,-135 146,-149 l 25,-9 3,80 c 2,44 7,109 11,144 7,62 7,64 -13,59 -67,-16 -125,-17 -182,-2 -71,18 -104,20 -104,6 z"
         id="path1427" /><path
         d="m 4887,4713 c -4,-6 18,-12 56,-16 51,-4 85,-17 190,-72 143,-74 201,-95 266,-95 58,0 121,35 121,67 0,34 -32,42 -188,49 -117,6 -149,11 -217,36 -84,31 -217,49 -228,31 z"
         id="path1429" /><path
         d="m 4976,4502 c -3,-5 10,-14 29,-20 18,-7 84,-51 147,-97 131,-99 233,-155 278,-155 41,0 160,42 160,56 0,17 -92,100 -136,122 -21,11 -88,30 -149,41 -60,12 -139,31 -174,42 -65,20 -146,25 -155,11 z"
         id="path1431" /><path
         d="m 4444,3331 c -37,-57 -55,-123 -61,-231 -7,-117 7,-191 49,-256 l 32,-49 16,155 c 11,105 13,161 6,175 -6,11 -9,71 -7,133 2,61 0,112 -3,112 -3,0 -17,-18 -32,-39 z"
         id="path1435" /><path
         d="m 4403,2573 c -19,-7 -16,-26 6,-40 15,-10 20,-9 25,2 6,16 -2,45 -13,44 -3,0 -12,-3 -18,-6 z"
         id="path1437" /><path
         d="m 4261,2134 c -13,-13 -48,-36 -77,-50 -50,-24 -54,-28 -54,-60 v -34 l 51,26 51,25 26,-23 c 14,-13 21,-16 17,-9 -11,19 -6,110 6,133 13,24 8,22 -20,-8 z"
         id="path1439" /><path
         d="m 1922,2010 c 0,-14 2,-19 5,-12 2,6 2,18 0,25 -3,6 -5,1 -5,-13 z"
         id="path1441" /><path
         d="m 4491,1959 c -7,-24 -30,-78 -51,-119 -20,-41 -63,-147 -95,-235 -77,-217 -104,-265 -200,-361 -83,-83 -164,-137 -225,-149 -19,-3 -118,-28 -220,-55 -102,-27 -196,-51 -210,-54 -14,-3 9,-3 50,-1 41,3 140,19 220,35 563,119 813,115 1080,-17 180,-89 327,-273 338,-424 13,-183 -186,-306 -441,-271 -196,26 -307,97 -339,215 -11,44 -11,52 7,85 29,54 75,74 155,69 107,-7 157,-45 124,-94 -13,-21 -22,-24 -55,-21 -31,3 -39,0 -39,-13 0,-23 25,-41 52,-37 58,8 90,128 47,182 -32,40 -118,62 -186,46 -96,-21 -143,-80 -143,-178 0,-164 100,-278 285,-327 70,-18 202,-20 277,-4 154,33 263,140 283,279 21,141 -79,351 -222,466 -71,56 -214,126 -306,148 -158,39 -364,44 -544,12 -40,-7 -73,-10 -72,-7 0,3 19,20 42,36 95,69 174,199 243,395 20,58 58,152 84,210 54,118 84,203 78,221 -2,7 -10,-8 -17,-32 z"
         id="path1443" /><path
         d="m 1931,1969 c -1,-29 40,-144 85,-234 159,-324 519,-580 944,-671 64,-14 129,-18 260,-19 152,0 187,3 265,24 172,44 337,138 430,243 46,53 135,215 135,247 0,9 -9,-3 -20,-26 -67,-150 -230,-293 -412,-363 -139,-54 -253,-73 -428,-74 -236,0 -423,44 -633,151 -294,150 -501,376 -597,655 -16,46 -29,76 -29,67 z"
         id="path1445" /><path
         d="m 5535,1943 c -91,-11 -183,-42 -310,-106 -186,-93 -240,-112 -429,-153 -226,-48 -311,-79 -395,-143 -31,-24 -91,-104 -91,-122 0,-4 24,16 53,45 51,51 182,126 221,126 20,0 146,-56 146,-65 0,-4 -8,-4 -17,-1 -9,4 3,-11 28,-32 26,-23 64,-75 92,-126 62,-112 96,-149 165,-183 51,-25 67,-28 157,-28 83,1 121,7 219,35 101,28 116,35 95,42 -13,5 -34,7 -47,5 -12,-2 -25,0 -28,4 -3,5 1,9 8,9 7,1 -3,10 -22,20 -25,14 -46,18 -72,14 -21,-3 -38,-2 -38,3 0,5 -35,15 -77,21 -104,16 -177,52 -304,149 -111,85 -167,118 -233,137 l -41,12 103,22 c 126,27 156,27 302,2 192,-33 309,-23 405,35 11,7 67,41 125,77 125,77 188,104 258,114 52,7 67,19 35,27 -10,3 -3,5 15,6 43,1 41,18 -5,30 -94,24 -231,35 -318,24 z m 15,-51 c 0,-17 -56,-34 -115,-36 -39,-2 -87,-13 -137,-33 -43,-17 -78,-29 -78,-27 0,7 94,51 145,69 28,9 79,20 115,25 36,4 66,8 68,9 1,0 2,-3 2,-7 z m 130,-32 c -8,-5 -19,-10 -25,-10 -5,0 -3,5 5,10 8,5 20,10 25,10 6,0 3,-5 -5,-10 z m -330,-95 c 0,-9 -72,-35 -94,-34 -11,1 4,9 34,19 30,10 56,18 58,19 1,1 2,-1 2,-4 z m -260,-45 c 0,-5 -8,-10 -17,-10 -15,0 -16,2 -3,10 19,12 20,12 20,0 z m -58,-50 33,-20 -55,6 c -75,8 -92,15 -60,24 39,12 47,11 82,-10 z m -189,-219 c 26,-19 45,-36 43,-38 -12,-12 -58,14 -87,49 -34,44 -29,42 44,-11 z m 47,-111 c 6,-11 8,-20 6,-20 -3,0 -10,9 -16,20 -6,11 -8,20 -6,20 3,0 10,-9 16,-20 z"
         id="path1447" /><path
         d="m 6350,1603 c -53,-10 -124,-13 -240,-10 -204,5 -308,-5 -402,-38 -166,-58 -225,-69 -373,-69 -136,0 -163,4 -330,50 -16,4 -17,3 -5,-5 27,-20 224,-79 302,-91 63,-10 93,-10 160,1 46,8 88,13 93,13 6,-1 60,-12 120,-24 208,-43 426,-28 584,38 112,48 202,115 111,84 -46,-17 -28,1 29,28 28,13 51,27 51,32 0,10 -4,9 -100,-9 z m -163,-118 c -54,-20 -179,-45 -219,-44 -25,0 -19,4 27,14 33,7 83,20 110,28 28,9 66,16 85,16 h 35 z m -472,-19 c 11,-4 29,-12 40,-17 18,-8 17,-9 -5,-5 -14,2 -55,8 -92,11 -37,4 -66,10 -64,14 6,9 96,7 121,-3 z"
         id="path1449" /><path
         d="m 6680,1441 c -110,-36 -182,-127 -184,-232 -2,-138 126,-204 263,-134 66,33 161,120 161,148 0,17 -6,14 -40,-16 -65,-60 -116,-81 -192,-80 -74,0 -123,22 -147,64 -13,23 -12,30 5,65 24,49 70,80 142,95 155,32 308,-33 363,-155 62,-138 -37,-302 -242,-401 -175,-84 -384,-122 -629,-112 -166,6 -274,25 -398,68 -147,52 -197,84 -335,217 -110,105 -157,140 -157,116 0,-9 119,-155 174,-212 100,-106 277,-203 451,-248 134,-36 420,-45 569,-20 350,60 561,214 606,444 7,34 10,85 7,112 -18,149 -165,278 -326,286 -36,2 -77,0 -91,-5 z"
         id="path1455" /></g></g></svg>
