<?xml version="1.0" encoding="utf-8"?>
<!-- Generator: Adobe Illustrator 27.6.0, SVG Export Plug-In . SVG Version: 6.00 Build 0)  -->
<svg version="1.1"
	 id="svg28" xmlns:inkscape="http://www.inkscape.org/namespaces/inkscape" xmlns:svg="http://www.w3.org/2000/svg" xmlns:rdf="http://www.w3.org/1999/02/22-rdf-syntax-ns#" xmlns:dc="http://purl.org/dc/elements/1.1/" xmlns:sodipodi="http://sodipodi.sourceforge.net/DTD/sodipodi-0.dtd" xmlns:cc="http://creativecommons.org/ns#" inkscape:version="1.0.2 (e86c8708, 2021-01-15)" sodipodi:docname="Custom.svg"
	 xmlns="http://www.w3.org/2000/svg" xmlns:xlink="http://www.w3.org/1999/xlink" x="0px" y="0px" width="171.77951px"
	 height="364.25201px" viewBox="0 0 171.77951 364.25201" style="enable-background:new 0 0 171.77951 364.25201;"
	 xml:space="preserve">
<sodipodi:namedview  bordercolor="#666666" borderopacity="1" gridtolerance="10" guidetolerance="10" id="namedview30" inkscape:current-layer="g36" inkscape:cx="96.345594" inkscape:cy="255.29791" inkscape:document-rotation="0" inkscape:document-units="mm" inkscape:pageopacity="0" inkscape:pageshadow="2" inkscape:window-height="841" inkscape:window-maximized="0" inkscape:window-width="1260" inkscape:window-x="0" inkscape:window-y="23" inkscape:zoom="1.3972642" objecttolerance="10" pagecolor="#ffffff" showgrid="false" units="mm">
	</sodipodi:namedview>
<g id="g36" transform="matrix(1.3333333,0,0,-1.3333333,0,485.66933)" inkscape:groupmode="layer" inkscape:label="panel">
	<g id="g1461" transform="matrix(0.02540621,0,0,0.02540621,-4.9350088,5.1371116)">
		<path id="path1331" style="fill:#FFFFFF;" d="M301.31357,13013.8418c4.50003-147.00098,13.50012-189.00098,62.25052-288.75195
			c76.50067-156.75098,186.00159-307.50293,337.50287-465.00391c60.00055-62.25098,124.5011-136.50098,143.25122-165.00195
			c103.50092-156.00098,168.00146-349.50293,179.25153-536.25391l5.25-93.75098l0.75,93.75098
			c2.25012,155.25098-29.25018,296.25195-99.00079,446.25391c-50.25043,108.00098-79.50067,147.00098-210.00177,281.25195
			c-113.25098,116.25098-180.75153,195.75195-233.25198,276.00293c-18.75015,28.5-21.00018,37.5-19.50018,90
			c1.50003,65.25098-15.75012,162.75195-36.00031,204.00195c-7.50006,14.25-18.00015,43.5-22.50018,63.75098
			c-10.50009,41.25-38.25034,82.5-60.00052,90c-15.75012,4.5-27.75021,30.00098-35.25031,75.00098
			C302.06357,13155.59375,297.56354,13129.34277,301.31357,13013.8418z M355.31403,12914.0918
			c21.00018-63.00098,57.00049-132.75195,68.25058-132.75195c2.25003,0,3.00003,14.25098,2.25003,32.25098
			c-2.25003,28.5-1.50003,29.25,6.00003,12.75c13.50012-31.5,29.25024-126.00098,29.25024-174.75195
			c-0.75-43.5-1.5-45.75-12.00009-31.5c-6.75006,8.25-17.25015,24.75-23.25018,36.75l-12.00012,22.50098l20.25018-12.75098
			c23.25018-15.75,24.00021-12,11.25009,46.50098c-5.25003,27-19.50015,51.75-48.75043,88.50098
			c-43.50037,54.75-70.50058,114.00098-70.50058,156.00098c0,14.25,1.5,26.25,3.00003,26.25
			C330.56381,12983.8418,342.5639,12952.3418,355.31403,12914.0918z"/>
		<path id="path1333" style="fill:#FFFFFF;" d="M771.56757,12791.09082c-7.50006-29.25098-30.00024-73.50098-64.50055-124.50195
			c-40.50037-60-51.75043-89.25-51.75043-140.25098c-0.75-51,12.00006-78.75,57.00049-129.00098
			c18.00012-20.25,36.00031-48.75,39.75031-63.75c8.25006-27.75098,8.25006-28.50098,6.75006-4.50098
			c-0.75,18.75098,5.25006,30.75098,26.25024,52.50098c54.75049,56.25,62.25055,104.25098,32.25024,207.75195
			c-30.00024,104.25098-36.00031,133.50098-34.50024,179.25098C784.31769,12814.34082,779.06763,12824.09082,771.56757,12791.09082z
			 M795.56775,12621.58887c35.25031-114.75098,32.25031-165.75098-15.75012-222.75195l-24.75018-29.25l-38.25037,65.25
			c-42.75037,72.75098-51.00043,103.50098-39.75031,138.75195c7.50006,24,7.50006,24,8.25006-10.5
			c0.75-36.75098,41.25037-127.50195,59.25049-132.75195c17.25018-5.25,11.25012,81.75098-9.00006,122.25098l-18.75018,36.00098
			l14.25012,27l14.25012,27l0.75-30c0-16.5,5.25006-51.75098,11.25012-78.75098s10.50006-61.5,11.25012-76.5
			c0-15.00098,3-29.25098,6.75006-32.25098c15.75012-9,17.25012,52.50098,4.5,126.75098
			c-7.50006,42.00098-15.00012,90.00098-16.50012,108.00098c-2.25,17.25098-6.75006,31.50098-10.50012,31.50098
			c-3,0,0,9.75,6.75006,22.5l12.75012,22.5l2.25-28.5C776.06763,12692.83984,785.06769,12653.83887,795.56775,12621.58887z"/>
		<path id="path1335" style="fill:#FFFFFF;" d="M212.06281,12363.58691c-63.75053-3-66.00056-3-66.00056-21
			c0-36.75098,135.00114-117.00098,220.50188-131.25195c55.50049-9,108.00092,0.75,159.75137,30.00098
			c42.75037,24,54.75043,24,152.25128,3c41.25037-9,1.5,11.25-45.00037,23.25c-27.00024,6.75-74.25067,26.25-105.00092,42.75
			c-30.75024,17.25-66.00055,36.00098-78.75067,42.75098C426.56464,12365.83691,344.81393,12369.58691,212.06281,12363.58691z
			 M485.81512,12304.33594c31.50031-15.75,57.75049-30.75,57.75049-33c0-9-86.25073-31.5-130.5011-34.5l-45.7504-2.25l39.75034,6.75
			c40.50037,7.5,79.5007,24,87.75076,36.75c9.75009,16.5-36.00031,33-107.25092,39.75
			c-97.50082,9.75-117.00101,22.50098-27.75024,18.75098C420.56458,12334.33691,433.3147,12330.58594,485.81512,12304.33594z
			 M269.81329,12323.83594c3.00003-4.5-5.25003-7.5-18.75015-7.5s-21.75018,3-18.75017,7.5
			c2.25003,4.5,11.25011,7.50098,18.75017,7.50098S267.56329,12328.33594,269.81329,12323.83594z M219.56287,12308.83594
			c9.00008-15,9.00008-15.75-9.75008-3c-21.00018,13.5-23.2502,18-9.00008,18
			C206.06276,12323.83594,214.31282,12317.08594,219.56287,12308.83594z"/>
		<path id="path1337" style="fill:#FFFFFF;" d="M1198.32117,11858.83203c-69.75061-14.25-135.7511-69-151.50122-125.25098
			c-12.75012-45-9.75012-46.5,9.75-6c21.00024,45.00098,42.00037,65.25098,89.25085,86.25098
			c143.25122,63.75098,270.0022-20.25,258.7522-170.25098c-6.00012-78.75098-45.00049-129.75195-99.75085-129.75195
			c-52.50049,0-99.00085,54.75098-88.50085,105.00098c5.25012,28.50098,33.00037,48.75098,57.75061,42.00098
			c25.50012-6,33.00024,15.75,9,27c-42.00037,18.75-70.50061-8.25-77.25061-72.75098
			c-8.25012-76.5,23.25012-123.75098,85.50073-129.00098c73.50061-6,114.00098,48.75098,120.00098,162.75195
			c3,53.25,0.75,71.25-12.75012,106.5c-20.25012,54.75098-61.50049,92.25098-114.00098,102.75098
			C1244.07153,11867.08203,1242.57153,11867.08203,1198.32117,11858.83203z"/>
		<path id="path1339" style="fill:#FFFFFF;" d="M193.31265,11635.33008c-57.7505-21-96.75083-49.5-120.00103-89.25
			c-18.00015-31.50098-21.00018-43.50098-21.00018-96.00098c0-53.25098,3.00003-66.00098,24.75021-109.50098
			c31.50027-63.00098,84.75072-116.25098,152.2513-153.75098c30.00024-15.75098,65.25055-42.75098,79.50067-59.25098
			c23.25018-26.25,24.75021-27,15.00012-7.5c-15.00012,29.25-51.00043,62.25-102.75087,95.25098
			c-70.5006,45-132.00113,116.25098-153.75131,179.25098c-31.50027,87.75098,6.75005,161.25195,108.75092,208.50195
			c57.00049,26.25,145.50125,27,223.50189,1.5c29.25024-9.75,54.00046-20.25,54.00046-23.25s-6.75006-11.25-15.00012-18.75
			s-20.25015-31.5-27.00021-54.00098c-10.50009-36-10.50009-43.5,0.75-82.5c8.25006-29.25098,21.75018-51.75098,40.50034-70.50098
			c27.00024-27.75,75.00064-47.25,95.25082-39c16.50012,6,12.75012,17.25-6.00006,17.25c-33.00027,0-81.7507,31.5-104.25089,66
			c-34.50031,54.00098-27.75024,99.75098,22.50018,147.00195l22.50018,21.75l32.25027-21
			c50.25043-33.00098,120.00104-108.00098,146.25128-158.25195c44.25037-84,57.75049-149.25098,58.50049-284.25195v-120.00098
			l-27.75024-60.75098c-15.75012-33.75-28.50024-66.75-28.50024-74.25s-33.00031-67.50098-72.75061-134.25195
			c-109.50095-183.00098-162.7514-304.50195-195.75168-450.75293c-26.25021-115.50195-25.50021-147.75195,1.5-45.00098
			c45.7504,177.00195,113.25098,330.75293,219.75186,498.75391c61.50055,96.75098,83.25073,141.75195,99.75085,204.75195
			c7.50006,30.00098,22.50018,69.75098,33.75031,90.00098c11.25012,19.5,18.00012,35.25,15.75012,35.25s-9.75006-11.25-17.25012-24
			l-13.50012-24.75l-4.50006,120.00098c-4.5,138.75098-16.50012,195.75195-60.00049,287.25195
			c-22.50018,45.75098-44.25037,76.50098-85.50073,119.25098c-30.75024,32.25098-54.00049,60.00098-51.75043,62.25098
			c9.00006,8.25,134.2511,9,163.5014,0c66.00055-18.75,122.25104-74.25098,141.00116-138.00098
			c4.50006-17.25,11.25012-60.75098,14.25012-98.25098l5.25006-67.50098l-2.25,82.50098
			c-1.50006,63.00098-6.00006,93.00098-18.75018,126.75098c-22.50018,59.25098-72.75061,110.25098-123.75104,125.25098
			c-48.00043,13.5-148.50128,12-189.00165-3c-29.25021-11.25-33.00024-10.5-78.75064,7.5
			C380.06424,11651.08105,252.56316,11656.33105,193.31265,11635.33008z"/>
		<path id="path1341" style="fill:#FFFFFF;" d="M1023.5697,11427.5791c0-40.50098-21.75018-137.25195-42.00037-187.50195
			c-34.50031-84.75098-147.75122-273.75195-339.00287-566.25488c-105.00092-160.50098-171.75146-288.00195-192.00162-363.75293
			c-14.25012-55.50098-36.00034-177.75195-31.50027-181.50195c1.5-2.25,10.50009,30.00098,19.50015,70.50098
			c39.75034,174.00098,66.00058,231.75195,202.50174,434.25391c108.75092,162.75098,263.2522,415.50293,315.00269,517.50391
			c19.50012,38.25098,42.75037,95.25098,51.75043,128.25098c15.75012,60.00098,29.25024,174.75195,20.25012,174.75195
			C1025.8197,11453.8291,1023.5697,11441.8291,1023.5697,11427.5791z"/>
		<path id="path1343" style="fill:#FFFFFF;" d="M1196.82117,11423.0791c-0.75-21.00098,29.25024-51.00098,59.25049-59.25098
			c31.50024-8.25,57.75049-2.25,74.25061,18c9.75012,11.25,6.75012,12-31.50024,7.5c-48.75037-6-81.75061,4.5-93.75073,29.25098
			C1199.07117,11430.5791,1196.82117,11432.0791,1196.82117,11423.0791z"/>
		<path id="path1345" style="fill:#FFFFFF;" d="M1163.82092,11307.57812c5.25-15.00098,41.25037-33.75098,65.25049-33.75098
			c15.75012,0,42.00037,16.5,42.00037,27.00098c0,1.5-18.75012,2.25-42.00037,2.25c-22.50012-0.75-45.00037,2.25-50.25037,7.5
			C1166.82092,11322.57812,1158.5708,11321.07812,1163.82092,11307.57812z"/>
		<path id="path1347" style="fill:#FFFFFF;" d="M845.06818,11262.57715c0-12,1.5-16.5,3.75006-9c1.5,6.75,1.5,17.25,0,22.5
			C846.56818,11280.57715,845.06818,11275.32715,845.06818,11262.57715z"/>
		<path id="path1349" style="fill:#FFFFFF;" d="M1115.07043,11242.32715c3.75012-11.25,21.00024-17.25,21.00024-7.5
			c0,3.75-5.25,9.75-12.00012,12C1116.57056,11249.82715,1113.57043,11247.57715,1115.07043,11242.32715z"/>
		<path id="path1351" style="fill:#FFFFFF;" d="M836.81812,11224.32715c0-8.25,2.25-10.5,4.50006-4.5c2.25,5.25,1.5,12-0.75,14.25
			C838.31812,11237.07715,836.06812,11232.57715,836.81812,11224.32715z"/>
		<path id="path1353" style="fill:#FFFFFF;" d="M321.56375,10824.57324c-57.75052-27-89.25078-102.00098-56.25049-135.00098
			c9.00006-9,25.50021-15.75,38.25034-15.75c27.00021,0,29.25024,9,4.50003,21.75
			c-59.2505,32.25098-25.50021,99.00098,51.00043,99.75098c69.75058,1.5,117.00101-54.75,117.00101-138.00098
			c0-80.25098-37.50034-147.00098-157.50134-279.75293c-74.25064-82.5-142.50122-182.25098-165.00142-240.75195
			c-61.50052-165.00098-27.00022-375.00293,85.50073-530.25391c58.5005-80.25098,115.50099-135.00098,280.50238-270.75293
			c97.50079-80.25,72.00061-51.75-39.75034,44.25098c-153.00131,131.25098-245.25209,242.25195-291.0025,351.75293
			c-33.75029,80.25098-42.75037,120.00098-48.00041,210.75195c-9.00008,165.75098,17.25015,222.00195,193.50165,418.50293
			c117.00101,129.75098,152.25131,199.50195,152.25131,297.75293
			C485.81512,10789.32324,410.06448,10866.57422,321.56375,10824.57324z"/>
		<path id="path1355" style="fill:#FFFFFF;" d="M1091.07031,10700.82227c-51.75049-15-85.50073-30.75-142.50122-67.5
			c-55.50049-36.00098-140.25122-117.00098-162.7514-155.25195c-8.25006-14.25-30.75024-31.5-60.75049-46.5
			c-66.00061-33-157.50134-107.25098-207.00177-168.75195c-69.75061-86.25-112.50098-174.75098-138.75119-288.00195
			c-15.00015-65.25098-7.50006-70.50098,11.25009-7.5c54.75046,186.75195,186.75159,343.50293,359.25305,426.00391
			c88.50073,42.75,141.00122,56.25,237.75201,60.75c68.25055,3.75,87.75079,1.5,135.00116-12.75
			c73.50061-21.75,139.50122-59.25,192.00159-109.50098l42.75037-40.5l-29.25024-26.25
			c-15.75012-14.25098-45.75037-31.50098-67.50049-38.25098c-96.00085-33-231.00208,2.25-189.00171,48.75098
			c15.00012,16.5,15.00012,23.25,0.75,23.25c-6,0-16.50012-8.25-23.25012-18.75c-10.50012-16.50098-10.50012-22.50098-2.25-49.50098
			c12.75012-37.5,38.25024-58.5,82.50061-66.75c69.00061-12.75,155.25134,15.75,211.50183,69
			c36.00037,34.50098,42.00037,31.5,65.25061-31.5c9-27,14.25012-34.5,14.25012-22.5c0,10.5-7.50012,39-16.50012,63.75
			l-16.50024,45.00098l16.50024,42c9.75,23.25,20.25012,66.00098,24.75012,94.50098
			c24.75024,174.75098-71.25061,288.75195-242.25208,286.50195
			C1152.5708,10710.57227,1109.82043,10706.07227,1091.07031,10700.82227z M1298.82202,10664.82227
			c50.25049-18.75,101.25085-72.75098,115.50098-123.75098c14.25012-49.50098,10.50012-118.50098-8.25-168.75195
			c-21.75024-58.5-32.25037-65.25-51.00049-34.5c-20.25012,33-80.25061,89.25098-119.25098,113.25098
			c-81.00073,50.25098-198.00171,67.50098-315.75269,47.25098c-38.25037-6.75098-81.75073-17.25098-96.75085-23.25098
			s-28.50024-10.5-30.00024-9c-4.50006,4.5,98.25085,102.00098,136.50116,129.75098
			C1049.06995,10680.57227,1187.07104,10706.82227,1298.82202,10664.82227z"/>
		<path id="path1357" style="fill:#FFFFFF;" d="M792.56775,10223.81836c-46.50043-28.5-59.25049-96.75098-31.50024-162.00098
			c21.75018-50.25098,18.00012-105.00098-8.25012-124.50098c-10.50006-8.25-33.00024-16.5-50.25043-18.75098
			c-48.75037-6.75-38.25031-32.25,12.75012-32.25c29.25024,0,57.75049,30.75,68.25061,75.00098
			c8.25006,33,6.75006,43.5-11.25012,105.75098c-15.75012,52.5-18.75018,74.25-13.50012,92.25098
			c17.25018,60.75,130.5011,79.5,152.25128,24.75l6.75006-16.5v16.5c0.75,9-9.00006,24-22.50018,35.25
			C866.81836,10243.31836,827.81805,10244.81836,792.56775,10223.81836z"/>
		<path id="path1359" style="fill:#FFFFFF;" d="M607.31616,10154.81836
			c-94.50079-106.50098-143.25122-231.00195-151.50128-384.75391c-3.00003-62.25-1.5-99.00098,8.25006-146.25098
			c37.50034-188.25195,201.00171-393.75391,388.5033-488.25391c78.75067-39.75098,90.00079-36.75098,19.50018,4.5
			c-114.75098,67.5-272.25232,242.25195-335.25287,373.50293c-39.00031,78.75098-55.50046,149.25098-55.50046,234.00195
			c0,83.25098,16.50015,153.00098,55.50046,232.50195c27.75024,57.00098,81.75073,132.00098,70.50061,97.50098
			c-9.75006-30-20.25018-513.75488-12.00012-560.25488c10.50012-60.00098,37.50037-117.75098,83.25073-174.00195
			c45.00037-57,60.00049-71.25,60.00049-55.5c0,6-24.00018,42-52.50043,80.25098
			c-59.25049,78-73.50061,106.50098-79.50067,161.25098c-1.5,21-0.75,159.00098,3,306.00293
			c6.00006,264.00195,6.00006,268.50195,23.25024,286.50195c12.75006,13.5,16.50012,24.75,14.25012,46.50098l-2.25006,28.5
			L607.31616,10154.81836z"/>
		<path id="path1361" style="fill:#FFFFFF;" d="M990.56946,10162.31836c15.00012-47.25098,58.50049-76.50098,114.00098-77.25098
			c27.00024,0,36.00024,3.75,51.00037,21c21.00024,24.75,23.25024,39,5.25012,31.5c-7.50012-3-32.25037-7.5-55.50049-9
			c-45.75037-4.5-81.75073,9-99.00085,35.25098C994.31946,10184.06836,983.8194,10182.56836,990.56946,10162.31836z"/>
		<path id="path1363" style="fill:#FFFFFF;" d="M1419.57312,10062.56738c-6.00012-48.00098-40.50037-114.75098-81.00073-153.75195
			c-66.00061-64.5-214.50183-120.00098-288.75244-108.75098c-46.50043,6.75098-86.25073,33.00098-107.25092,71.25098
			l-18.00018,33.75l4.50006-26.25c12.00012-66.75,67.50055-117.75098,135.75116-126.00098
			c109.50098-12,279.00232,91.50098,333.75281,204.00195c19.50024,39.75,39.75037,139.50098,28.50024,139.50098
			C1424.82312,10096.31738,1421.07312,10081.31738,1419.57312,10062.56738z"/>
		<path id="path1365" style="fill:#FFFFFF;" d="M1113.57043,10062.56738c-21.75012-12.75-73.50061-14.25-100.50079-3.75
			c-29.25024,10.5-23.25024,0.75,6.75006-12c38.25024-15.75098,88.50073-13.50098,105.00085,4.5
			C1142.07068,10070.81738,1137.57068,10075.31738,1113.57043,10062.56738z"/>
		<path id="path1367" style="fill:#FFFFFF;" d="M1146.5708,10016.81641c-16.50024-17.25-33.00037-26.25-54.75049-30
			c-39.75037-6-39.75037-18,0-18c24.75024,0,35.25024,4.5,56.25049,25.5c14.25012,14.25,25.50024,30.75,25.50024,37.5
			C1173.57104,10046.81738,1175.07104,10047.56738,1146.5708,10016.81641z"/>
		<path id="path1369" style="fill:#FFFFFF;" d="M1178.82104,9938.81641c-6.75012-9.75-10.50012-19.50098-9.00012-21.75098
			c6.75012-6,28.50024,19.50098,24.75024,30.00098C1192.32117,9953.06641,1187.07104,9950.81641,1178.82104,9938.81641z"/>
		<path id="path1371" style="fill:#FFFFFF;" d="M2186.07959,9887.06543c0-4.5,3.75-9.75,7.5-12
			c18.75024-11.25,30.00024-54,37.50049-136.50098c5.25-51.75098,14.25-101.25098,21.75-119.25098
			c7.50024-16.5,36.75049-55.50098,64.50073-86.25098c86.25073-94.50098,108.00073-169.50098,83.25073-290.25195
			c-16.50024-83.25098-45.75049-162.00195-129.00122-356.25391c-80.25073-187.50098-111.00098-273.75195-149.25122-421.50293
			c-21.00024-78.75098-36.00024-119.25098-60.00049-161.25195c-74.25073-127.50049-180.75159-372.00293-218.25195-501.00391
			c-15.75012-54.75049-18.75012-80.25049-18.00012-159.00146c0-51.75049,3-103.50049,6.75-116.25098
			c5.25012-16.5,7.50012,8.25,7.50012,86.25098c1.5,130.50098,12.00012,196.50146,49.50037,296.25244
			c40.50037,111.00098,138.00122,303.75293,198.75183,396.00293c158.25122,238.50293,394.50317,395.25391,597.00488,395.25391
			c94.50098,0,177.00171-43.5,206.25195-108.00098c17.25-38.25,18.75-15.75,3,38.25
			c-38.25049,128.25098-232.50195,152.25195-438.00391,54.75098c-112.50073-54.00098-210.00171-132.75098-294.00244-238.50195
			c-24.75024-30.00098-44.25024-51.00098-44.25024-46.50098s8.25,42.00098,18.75,83.25098
			c23.25024,91.50098,64.50073,207.00195,116.25098,325.50293c21.75024,49.5,56.25049,129.00098,76.50073,176.25098
			c72.75073,166.50195,101.25098,283.50293,94.50073,380.25391c-2.25,28.5-9.75,62.25-17.25,76.5
			c-6.75,14.25-13.50024,36.00098-15.00024,48.75098c-0.75,12.75-3.75,38.25-6,57l-5.25,33.75098l9.75-37.50098
			c10.50024-39,33.75024-90.00098,39.75049-84.75098c1.5,2.25098-3.75024,31.50098-12.00024,66.75098
			c-44.25024,186.75195-61.50049,222.75195-139.50122,285.00293c-26.25024,21.75-48.00024,42-48.00024,45.75
			c0,8.25-28.50024,36-37.50049,36C2189.82959,9893.81543,2186.07959,9890.81543,2186.07959,9887.06543z M2261.83032,9806.06543
			c9.75-10.50098,14.25-17.25098,9-14.25098c-19.50024,10.5-18.00024-14.25,3.75-61.5
			c24.00024-51.75098,49.50049-138.75098,45.00049-152.25098c-3.75-12.00098-52.50049,52.5-63.75073,84.75
			c-9.75,28.50098-23.25,163.50195-15.75,163.50195C2241.58008,9826.31543,2251.33008,9817.31543,2261.83032,9806.06543z
			 M2361.58105,9684.56348c6-15.75,12.75024-45.75,15.00024-66c3.75-30,2.25-27-10.50024,19.5
			c-8.25,30.75-21.75,66.75098-30.00024,81.00098c-19.5,33-19.5,39.75,0,15
			C2344.33105,9723.56445,2356.33105,9701.06445,2361.58105,9684.56348z M2348.83105,9614.81348c-2.25-5.25-3.75-1.5-3.75,9
			s1.5,14.25,3.75,9.75C2350.33105,9628.31348,2350.33105,9619.31348,2348.83105,9614.81348z"/>
		<path id="path1373" style="fill:#FFFFFF;" d="M1541.8241,9812.81543c-6.75-18.75098-41.25037-58.50098-109.50085-125.25195
			c-114.75098-113.25098-138.75122-151.50098-144.75134-228.75195c-1.5-27,0-60.75,4.50012-75c6.75-24,7.5-21,8.25,30.75
			c0.75,74.25098,17.25024,118.50098,58.50049,162.75195l33.00037,35.25l-18.75024-33.75
			c-31.50024-57.00098-45.00037-122.25195-45.00037-217.50195c0-75.00098,2.25-90.75098,17.25012-122.25098
			c9.75012-19.50098,20.25024-37.50098,24.00024-39.75098c13.50012-8.25,30.75024,51.75098,34.50037,120.00098
			c2.25,41.25098,8.25,72.75098,14.25012,80.25098c6,6.75,9,13.5,6.75,15c-1.5,2.25,1.5,51.75098,7.50012,111.00098
			c6,58.50098,10.5,109.50098,9,112.50098c-1.5,6.75,93.00085,128.25098,100.50085,128.25098c2.25,0,9.00012-19.5,14.25012-42.75
			c5.25012-24,20.25024-80.25098,33.75037-126.00098c33.00024-109.50098,36.75024-141.00195,23.25012-204.00195
			c-12.75012-63.00098-34.50024-108.00098-86.25073-178.50195c-21.00012-28.5-38.25037-55.5-38.25037-59.25
			c0-14.25,57.00049,48,82.50073,90.75098c68.25061,111.75098,76.50073,206.25098,33.00037,356.25293
			c-34.50037,118.50098-39.00037,135.75098-43.50049,188.25098c-1.5,24.00098-4.5,45.00098-6,47.25098
			C1553.07422,9839.81543,1547.07422,9828.56543,1541.8241,9812.81543z"/>
		<path id="path1375" style="fill:#FFFFFF;" d="M374.81418,9649.31348c10.50009-86.25098,69.00061-203.25195,115.50101-234.75195
			c15.00012-9.75,12.75009-4.5-9.75009,24.75c-37.50034,49.50098-71.25061,116.25098-92.25079,184.50195
			C375.56421,9665.06348,371.81418,9671.81348,374.81418,9649.31348z"/>
		<path id="path1377" style="fill:#FFFFFF;" d="M746.06732,9491.0625c0-51.00098,99.00085-214.50195,173.25153-287.25293
			c32.25024-30.75,68.25055-56.25,110.25085-77.25c57.75049-28.50098,69.00061-31.50098,133.50122-33.75098
			c62.25049-3,70.50061-5.25,70.50061-17.25c0-8.25,9-16.5,25.50012-22.5c23.25024-8.25,24.00024-10.5,17.25024-29.25
			c-12.00012-30.75098-0.75-58.50098,27.75024-72.75098l25.50012-12l-18.00012-42
			c-42.00037-95.25098-108.00085-170.25195-179.25146-204.00195c-31.50037-15-67.50061-24-118.50104-30
			c-39.75037-5.25-74.25067-7.50098-76.50067-6.00098c-1.5,2.25098,4.50006,24.00098,15.00012,48.00098
			c9.75012,24.75,24.75024,80.25098,33.75031,123.75098s21.00018,89.25098,25.50018,101.25098
			c12.00012,28.5,46.50037,69,67.50061,80.25098c13.50012,6.75,12.75012,4.5-4.5-13.50098
			c-29.25024-31.5-42.75037-77.25-51.75049-171.75098c-6.75006-69.75098-11.25012-87.75098-29.25024-117.75098l-21.75018-36
			h24.75018c32.25024,0,46.50037,12.75,56.25049,50.25c5.25,18.75,18.00012,39,33.75024,52.50098
			c18.75024,17.25,23.25024,25.5,18.75024,36.75c-6.75012,19.5,60.00049,108.75098,105.00085,141.00098
			c17.25012,12.75,30.75024,27,30.75024,32.25c0,18.00098-45.75037-12-93.75073-60.75
			c-24.00024-24.75-41.25037-41.25098-38.25037-36c7.50012,12,10.50012,34.5,15.00012,99l3,48.75098l34.50037,11.25
			c18.75012,6,34.50024,14.25,34.50024,18c0,3-21.00012,5.25-47.25037,3c-78.00073-4.5-136.50116-55.5-154.50134-133.50098
			c-4.50006-18.75-14.25012-63.75098-22.50018-101.25098c-9.00006-38.25-28.50024-93.00098-45.75037-127.50098
			c-16.50018-33-30.00031-69.75098-30.00031-81.00098c0-19.5,1.50006-21,24.75024-17.25c12.75012,2.25,55.50049,9.75,94.50079,15.75
			c109.50092,18.75,168.0014,47.25098,222.00189,110.25098c31.50024,37.5,83.25073,137.25098,90.75073,175.50195
			c3.75012,18.75,10.50012,28.5,23.25024,33.75c9.75012,3.75,19.50012,6.75,20.25012,6.75c1.5,0,4.50012-23.25,6.00012-51
			c3-43.50098,10.5-64.50098,45.75037-133.50195c50.25037-100.5,71.25061-165.75098,78.75061-254.25195
			c4.50012-48,8.25012-63,12.75012-52.5c3.75012,8.25,22.50024,44.25,42.75037,79.5
			c70.50061,126.75195,91.50085,213.75195,69.75061,294.00293c-17.25012,66.75098-39.00037,102.00098-93.00073,153.00098
			c-27.00024,26.25098-45.00037,47.25098-39.75037,47.25098c18.00012,0,39.00037,30,39.00037,56.25
			c0,33.00098-27.00024,54.75098-51.75049,41.25098c-14.25012-7.5-15.00012-6-11.25012,14.25
			c10.50012,52.5-17.25012,84.75-57.75049,67.5c-15.00012-6-24.00012-15.75-27.00024-30c-3.75-20.25-4.5-20.25-21.75012-9.75
			c-11.25012,7.5-21.75024,27-29.25024,54c-16.50012,57.00098-40.50037,97.50098-81.00073,134.25195
			c-64.50049,59.25-128.2511,82.5-301.50256,111.00098c-61.50049,9.75-129.0011,23.25-150.00128,30
			C751.31738,9515.0625,746.06732,9514.3125,746.06732,9491.0625z M956.06915,9421.31152
			c221.25189-41.25,299.2525-81.00098,351.00299-178.50098c13.50012-24.75098,24.00012-48.00098,24.00012-52.50098
			s-7.5-19.5-16.50012-34.5c-13.50012-21-22.50012-26.25-41.25037-27c-14.25012,0-27.00012-5.25-30.75024-12
			c-6-11.25098-14.25012-10.50098-84.75073,8.25c-136.5011,36-208.50171,82.5-286.50238,186.00098
			c-36.75031,49.50098-87.75073,131.25098-87.75073,142.50098c0,2.25,11.25006,0.75,24.75018-3
			C821.06799,9447.56152,887.81854,9434.06152,956.06915,9421.31152z M1460.82349,9152.80957
			c-0.75012-30-23.25024-78.75098-33.00037-72.75098c-3.75,3-6-3-4.5-12.75c1.5-15-1.5-17.25-24.75024-17.25
			c-21.00012,0-26.25024,3-26.25024,15c0,9,6.75012,15.75,18.75024,19.5c15.75012,3.75,16.50012,5.25,6,10.5
			c-21.00012,8.25-36.00024-1.5-40.50037-26.25c-4.5-21.75-25.50024-32.25-25.50024-12c0,6-14.25012,12-39.00024,16.5
			c-48.75049,8.25-48.75049,21.75,0,22.5c49.50037,0.75,50.25037,1.5,35.25024,18
			c-12.75012,14.25098-12.75012,15.00098,8.25012,23.25098c13.50012,4.5,26.25024,5.25,33.00024,0.75
			c6.00012-3.75,18.75012-11.25,27.75024-17.25c24.00024-14.25098,30.00024-2.25,9.75012,19.5
			c-24.75024,27-15.75012,42.75,24.00012,39.75C1461.57349,9177.55957,1462.32349,9176.80957,1460.82349,9152.80957z
			 M1509.57385,9097.30859c14.25012-14.25,11.25012-20.25-18.00012-32.25c-19.50024-8.25-26.25024-14.25-22.50024-23.25
			s1.5-11.25-7.5-7.5c-6.00012,2.25-15.75024,4.5-21.00024,4.5c-18.00012,0-4.5,33,20.25024,51
			C1487.82361,9108.55859,1496.82373,9110.05859,1509.57385,9097.30859z M1373.07263,9023.05859
			c3.00012-5.25,15.75024-6.75,32.25037-3.75c18.00012,2.25,37.50024-0.75,57.75049-9.75
			c38.25024-17.25098,44.25037-26.25098,28.50024-41.25098c-25.50024-26.25-84.00073-24-90.75085,3
			c-3.75,13.5-8.25,14.25-44.25037,10.5c-30.75024-3.75-44.25037-2.25-59.25049,7.5
			c-26.25024,17.25098-17.25012,27.00098,23.25024,27.00098c18.00012,0,33.00024,3.75,33.00024,7.5
			C1353.57251,9033.55859,1366.32263,9033.55859,1373.07263,9023.05859z M1533.5741,8940.55762c5.25-9,3-11.25-9.00012-11.25
			c-30.75024,1.5-43.50037-30-45.00037-111.75098c-1.5-75.75098,6.75-107.25098,33.75024-129.75098
			c8.25012-7.5,12.00012,7.5,19.50024,94.50098c5.25,56.25,9.75,110.25098,10.5,119.25098c0.75,16.5,1.5,16.5,22.50024-3.75
			c51.00037-48.00098,69.00061-126.75195,47.25037-210.00195c-13.50012-52.50098-57.75049-147.00195-79.50061-169.50195
			c-15.75024-16.5-13.50012-24-29.25024,100.50098c-6.75012,55.50098-14.25012,76.50098-60.00061,168.75195
			c-28.50024,57.75-54.75037,118.50098-57.00049,135.00098l-5.25,30l19.50012-21c12.00012-12.75,26.25024-20.25,40.50037-20.25
			c25.50024,0,58.50049,23.25,66.00061,46.5C1512.57385,8973.55762,1514.82385,8972.05762,1533.5741,8940.55762z"/>
		<path id="path1379" style="fill:#FFFFFF;" d="M858.5683,9403.31152c23.25018-26.25,58.50049-46.5,150.00128-89.25098l71.25061-33
			l2.25,45.75c1.5,24.75098,6.00012,48.00098,10.50012,50.25098c4.5,3-18.75012,7.5-51.00049,10.5
			c-54.75043,4.5-138.00116,18-183.00153,30.75l-18.75012,5.25L858.5683,9403.31152z"/>
		<path id="path1381" style="fill:#FFFFFF;" d="M978.56934,9312.56055c0-2.25,25.50018-21,56.25049-41.25
			c73.50061-47.25098,213.75183-102.75098,213.75183-84.00098c0,7.5-67.50061,39-134.25122,62.25098
			c-22.50012,8.25-62.25049,26.25-88.50073,40.5C999.56952,9304.31055,978.56934,9314.06055,978.56934,9312.56055z"/>
		<path id="path1383" style="fill:#FFFFFF;" d="M1475.07361,9397.31152c-12.75012-26.25-24.75024-62.25098-27.75024-81.00098
			c-3.75012-30-2.25012-27,15.00012,21.75c10.5,30.00098,24.75012,65.25098,30.75024,77.25098c6.75,12,9.75,24,8.25,26.25
			C1499.07373,9443.06152,1487.07361,9423.56152,1475.07361,9397.31152z"/>
		<path id="path1385" style="fill:#FFFFFF;" d="M348.56396,9317.81055c0-4.5,16.50015-54,36.75031-108.75098
			c19.50018-54,42.00037-119.25098,49.50043-144.00098c42.00037-145.50098,126.0011-215.25195,260.2522-215.25195
			c48.00043-0.75,65.25055,3,99.75085,20.25c38.25037,18.00098,56.25049,36.00098,47.25043,45.00098
			c-1.5,2.25-19.50018-3-40.50037-10.5c-45.75037-17.25-104.25085-27.75098-97.50079-17.25c5.25,8.25,62.25049,24,92.25073,24.75
			c24.00024,0,24.00024,0-52.50043,29.25c-47.25037,18.75-65.25055,33-26.25024,21.75c45.75043-12.75,90.00079-7.5,154.50134,18.75
			c33.75031,14.25,72.00061,27.75098,84.00073,30.75098c18.00012,3.75,22.50018,9,22.50018,24c0,18.75-0.75,18.75-37.50031,14.25
			c-20.25018-3-51.00043-9.75-68.25061-15.75c-43.50037-15.75-47.25037-14.25-61.50049,14.25
			c-15.75018,34.5-60.00055,59.25-147.75128,83.25098c-39.00031,11.25-84.00073,24.75-99.00085,30.75
			c-15.75012,5.25-28.50024,9-28.50024,6.75c0-7.5,60.75055-33.75,138.75122-59.25098c83.25067-27,138.75116-60.75,138.75116-84.75
			c0-19.5-129.0011-10.5-172.50146,12c-30.00024,15.75-237.75204,218.25195-278.25238,270.75195
			C355.31403,9319.31055,348.56396,9323.06055,348.56396,9317.81055z M574.31592,9047.80859
			c33.00024-35.25,39.00031-44.25,22.50018-36c-11.25012,6-39.75037,34.5-63.00055,62.25
			c-81.0007,98.25098-87.00076,104.25098-93.75079,93.75098c-8.25009-12.75-18.00015-0.75-30.75027,36
			C400.31442,9230.80957,416.81454,9215.80957,574.31592,9047.80859z M456.56488,9096.55859
			c6.00006-21.75,12.75012-51,15.75015-65.25c4.50003-26.25,4.50003-26.25-6.75006-7.5
			c-9.00009,16.5-34.50031,101.25098-34.50031,116.25098c0,2.25,3.00003,2.25,7.50006,0
			C442.31476,9137.80957,450.56485,9118.30957,456.56488,9096.55859z M543.56561,8933.80762c4.50006-8.25,6.75006-15,5.25006-15
			s-9.00006,6.75-16.50012,15s-9.75012,15-5.25006,15S539.06561,8942.05762,543.56561,8933.80762z"/>
		<path id="path1387" style="fill:#FFFFFF;" d="M1691.07544,9266.06055c-80.25073-13.5-150.00134-69.00098-150.00134-118.50098
			c0-12,3-10.5,15.75012,9c14.25012,22.5,50.25049,51.75,56.25049,45.75c1.5-2.25-4.5-18-13.50012-36.75
			c-24.00012-50.25098-25.50024-87.75098-4.5-118.50098l17.25012-25.5l90.00073-2.25c48.75049-1.5,95.25085-1.5,102.00085,0.75
			c13.50012,4.5,15.00024,26.25,3.00012,35.25c-4.50012,3.75-4.50012,6,0.75,6c4.5,0,8.25,9,9,21
			c0.75,11.25,3.75012,42.75098,7.50012,70.50098c4.5,34.5,3.75,51.75-1.5,54c-4.50012,2.25,2.25,2.25,14.25012-0.75
			c12.75012-2.25,59.25049-22.5,103.50085-44.25c47.25037-23.25,96.75085-42,118.5011-45
			c42.75024-6.00098,41.25024-11.25098-13.50024-49.50098c-58.50049-39.75-175.50146-72.00098-311.25256-84.75098
			c-60.75061-6-129.0011,6.75-150.00134,27.75098c-15.00012,15-15.00012,15-12.00012-2.25
			c1.5-9.00098,12.00012-23.25098,23.25024-32.25098c19.50012-14.25,31.50024-15.75,116.25098-15.75
			c100.50085,0,144.75122,8.25,243.75208,45.75098c93.00073,36,172.50146,102,159.75146,135.00098
			c-2.25024,6-14.25024,10.5-30.00024,10.5c-32.25049,0-99.00098,24.75-181.50171,66
			C1814.82642,9262.31055,1754.07593,9276.56055,1691.07544,9266.06055z"/>
		<path id="path1389" style="fill:#FFFFFF;" d="M1684.32532,8903.80762c135.75122-69.75098,183.75159-250.50293,118.50098-445.50391
			c-27.75024-83.25098-61.50049-138.75098-113.25098-189.75195c-127.50098-123.75098-264.0022-171.75146-471.00391-165.75146
			c-104.25098,3-111.75098,3.75-147.00134,24.75049c-33.75024,19.5-112.50092,91.50098-106.50085,98.25098
			c9.00006,8.25,36.00031-8.25,36.00031-22.5c0.75-15.00049,0.75-15.00049,9.00006-1.5
			c11.25012,19.5,3.75006,135.75098-12.00006,171.75098c-13.50012,33-3.00006,34.5,21.00012,3
			c12.00018-15.75,15.00018-36.75,19.50018-111.75098c2.25-51,8.25012-98.25098,12.00012-105.00098
			c9.75012-18,12.00012,171.75195,1.5,204.00195c-10.50012,33.75-37.50031,63-84.75073,90.00098
			c-20.25018,12-63.00055,43.5-95.25079,70.5c-31.50024,27.00098-58.50049,49.50098-60.75049,49.50098
			c-2.25006,0-6.00006-5.25-8.25012-12c-2.25-6.75,7.50006-28.50098,25.50024-54.00098
			c22.50018-32.25,36.00031-66,56.25049-135.75098c33.75024-119.25098,49.50043-152.25098,102.00085-205.50195l42.75031-44.25
			l-34.50024,5.25c-54.00043,8.25-165.7514,47.25049-217.50183,75.75098c-116.25098,65.25-196.50171,186.00098-196.50171,295.50195
			c0,75.00098,39.00037,150.75098,98.25085,192.00195c51.00043,35.25,33.75031,51-23.25018,21.75
			c-119.25104-61.50098-130.5011-302.25293-21.00018-447.00391c44.25037-58.5,96.00079-99.75098,173.25146-138.00098
			l66.75055-32.25049l-34.50024-15c-48.00043-21.75-64.50055-51.00049-64.50055-117.75098
			c0-119.25098,87.00073-218.25195,198.75165-227.25195c57.75055-4.5,84.75079,5.25,116.25104,41.25049
			c30.75024,34.5,32.25024,87.75049,3,122.25098c-39.00037,45.75049-119.25104,72.75049-145.50122,48.75049
			c-8.25006-7.5-15.00012-21.00049-15.00012-29.25049c0.75-14.25,1.5-14.25,8.25006-2.25c10.50006,18,42.00037,15.75,87.75067-6.75
			c71.25061-35.25049,96.75085-87.00098,57.00049-113.25098c-29.25024-18.75-111.00092-16.5-153.75128,3.75
			c-77.25061,37.50049-134.2511,107.25098-134.2511,163.50146c0,27.75,3.75,35.25049,30.75024,57.75049
			c19.50018,17.25,47.25043,30.75,77.25067,39.00049c43.50037,12,52.50043,12,122.25098,0.75
			c97.50085-15.75049,255.0022-15.75049,330.00281,0c231.75208,48,400.50342,186.00146,465.00403,381.75342
			c17.25012,51,20.25012,73.5,20.25012,150.00098c0,93.75098-10.50012,147.00098-42.00037,208.50195
			c-21.75012,42.75-69.75061,91.50098-107.25085,109.50098C1644.57495,8933.80762,1636.32495,8928.55762,1684.32532,8903.80762z
			 M892.3186,8469.55371c2.25-3.75,0.75-9-3.75006-12c-3.75-2.25-7.50006,0.75-7.50006,6.75
			C881.06848,8477.80371,885.56854,8480.05371,892.3186,8469.55371z M902.06866,8404.30273c-2.25-10.5-3.75-9-7.50006,6.75
			c-2.25,14.25-1.5,18.75098,3.00006,14.25C902.06866,8420.80273,903.56866,8411.80273,902.06866,8404.30273z"/>
		<path id="path1391" style="fill:#FFFFFF;" d="M1835.82666,8822.05664c60.00049-66.00098,81.00061-106.50098,95.25073-183.00195
			l6.75012-39l-2.25,49.5c-3.75012,66.00098-27.00024,108.75098-100.50085,180.00195l-57.00049,55.5L1835.82666,8822.05664z"/>
		<path id="path1393" style="fill:#FFFFFF;" d="M1349.82251,8631.55469c-51.00049-157.50098-40.50037-239.25195,40.50037-315.00195
			c50.25037-47.25098,92.25073-66.75098,150.75122-70.50098c38.25037-2.25,54.75049,0,75.00061,11.25
			c31.50037,17.25,60.00061,63.00098,60.00061,97.50098c0,78.00098-75.75073,135.00098-118.5011,89.25098
			c-20.25012-21.75098-21.00012-30.75098-2.25-20.25098c46.50037,24.75098,108.75098-11.25,108.75098-63.75
			c0-75.00098-111.00098-103.50098-204.75183-52.50098c-125.25098,68.25098-153.00122,144.00195-106.50085,290.25293
			c21.75024,67.50098,35.25024,126.00098,30.00024,126.00098C1381.32275,8723.80566,1366.32263,8682.55566,1349.82251,8631.55469z"
			/>
		<path id="path1395" style="fill:#FFFFFF;" d="M2606.08325,8542.30371c-20.25024-13.5-28.50024-26.25-35.25049-52.5
			c-15-63.00098,6.75024-115.50098,60.75073-143.25098c104.25073-54.00098,225.75171,12.75,263.2522,144.75098
			c4.5,15,0.75,12-16.50024-11.25c-47.25024-63.75098-112.50098-101.25098-176.25146-101.25098
			c-45.75049,0-105.00098,36.75-119.25098,74.25098c-20.25024,52.5,81.75073,99.00098,132.00098,60
			c17.25024-14.25,19.50024-21,17.25024-48.75c-3-39.75098,6-43.50098,13.50024-5.25
			c9.75,53.25-21.00024,90.75098-80.25073,97.50098C2639.0835,8559.55469,2627.08325,8556.55469,2606.08325,8542.30371z"/>
		<path id="path1397" style="fill:#FFFFFF;" d="M1253.82166,8432.80371c-2.25-12.75098-6.75-32.25098-9.00012-43.50098l-3.75-21.75
			l10.50012,22.5c9.75012,20.25,11.25012,21,16.50012,8.25c4.5-12-6.75-27-19.50012-24.75c-12.75012,1.5-38.25037-20.25-34.50037-30
			c3.00012-7.5-14.25012-30.75098-51.00037-69.00098c-55.50049-57.75-72.00061-80.25098-72.00061-101.25049
			c0-12.75049,36.75024-57.75049,37.50024-45.00049c0,4.5-5.25,12.75-11.25,18c-6.00012,5.25-11.25012,14.25-11.25012,20.25
			c0,9.75049,12.00012,10.50049,81.00061,6.00049c78.75073-5.25049,80.25073-4.50049,97.50085,13.5
			c18.75024,20.25049,31.50024,57.00049,31.50024,93.00049c0,19.5-46.50037,163.50195-55.50037,172.50195
			C1259.07166,8453.05371,1256.07166,8444.80371,1253.82166,8432.80371z M1222.32141,8286.55176
			c-20.25024-32.25-33.75024-30-15.75012,2.25c8.25,16.5,18.75012,26.25098,21.75012,23.25
			C1232.07153,8308.30176,1229.07141,8297.05176,1222.32141,8286.55176z M1293.57202,8231.05176c-7.50012-12-8.25012-11.25-4.5,5.25
			c2.25,10.5,5.25,29.25,6,41.25c0.75,19.5,1.5,18.75,3.75-5.25C1300.32202,8256.55176,1298.07202,8237.80176,1293.57202,8231.05176
			z M1241.07153,8281.30176c0-3.75-3.75-7.5-8.25-7.5c-3.75012,0-5.25012,3.75-3.00012,7.5c2.25012,4.5,6.00012,7.5,8.25012,7.5
			C1239.57153,8288.80176,1241.07153,8285.80176,1241.07153,8281.30176z M1158.5708,8232.55176c-4.5-6-6.75-14.25-3.75-18.75
			c2.25-3.75,2.25-7.5-1.5-7.5c-3,0-14.25012-2.25-24.75024-4.5c-17.25012-3.75098-17.25012-2.25,7.50012,18.75
			C1163.82092,8245.30176,1173.57104,8250.55176,1158.5708,8232.55176z"/>
		<path id="path1399" style="fill:#FFFFFF;" d="M1906.32727,8358.55273
			c-32.25037-122.25098-111.00098-230.25195-213.75183-295.50244c-27.00024-17.25049-101.25085-56.25049-165.00146-86.25098
			c-136.5011-65.25049-204.75171-108.75098-254.2522-163.50146c-41.25024-45-81.00061-114.75098-88.50073-156.75098
			c-6.75-33.75049,12.75012-91.50098,33.75037-102.75098c16.50012-9,43.50037,0,60.75049,19.5
			c17.25012,20.25,39.00037,63.75049,33.75024,69.00049c-2.25,2.25-4.5,0.75-4.5-3.75s-9.00012-16.5-19.50012-27.75
			c-33.00037-32.25049-72.75073-23.25049-87.75085,20.25c-9,24.75049,10.50012,77.25049,43.50037,119.25098
			c47.25049,60.75049,119.2511,110.25098,270.00232,187.50146c74.25061,37.50049,159.00134,84.00098,187.50159,103.50098
			c71.25061,48.00049,132.75122,116.25098,164.25146,182.25195c26.25024,54,60.00049,164.25098,55.50049,178.50098
			C1920.57739,8406.55273,1913.07727,8387.05273,1906.32727,8358.55273z"/>
		<path id="path1401" style="fill:#FFFFFF;" d="M3479.84058,8391.55273c-39.75024-9.75-113.25098-84.00098-141.00122-141.75098
			c-36.75024-76.50049-57.75049-190.50146-57.75049-309.75244c0-80.25098,27.75024-438.75391,38.25049-494.25439
			c9-51.00049,36.75024-142.50146,40.50024-138.00146c1.5,1.50049-1.5,19.50049-8.25,39.75049
			c-25.50024,84.75098-40.50049,216.00195-55.50049,471.00391c-11.25024,185.25195-2.25,267.00244,35.25024,342.75293
			c30.75024,60.00098,49.50049,74.25098,87.75073,64.50098c40.50024-9.75,51.75049-75.00098,30.00024-169.50146
			c-15.75024-71.25098-10.5-89.25098,10.5-33.75049c26.25024,68.25049,48.75049,93.75098,83.25073,93.75098
			c39.75049,0,52.50049-17.25049,65.25073-90.75098c6-34.50049,15-65.25049,21-68.25049c5.25-3,14.25024-15.75,19.50024-27.75049
			c8.25-21,6.75-24-32.25024-70.50049c-81.00073-95.25098-139.50122-197.25146-168.75146-291.75244
			c-17.25024-54.75049-35.25024-168.00146-43.50049-270.00244l-4.5-66.00049l-19.5,15
			c-24.00024,19.50049-42.75049,18.75049-57.00049-1.5c-24.00024-34.5-12.75024-57.00049,56.25049-116.25098
			c32.25024-27,108.00073-128.25098,160.50122-214.50146c56.25049-92.25098,79.50073-120.00098,90.00073-108.75098
			c3,2.25-1.5,17.25-9.75,33.75c-8.25,15.75049-17.25024,40.50049-20.25024,54.75049c-3,14.25049-12,47.25049-20.25,73.50098
			c-13.50024,43.5-17.25024,49.5-66.00073,84.75049c-28.50024,21-60.75049,48.75049-72.00049,61.50049
			c-12.75024,15.75-20.25024,21-23.25024,14.25c-4.5-12.75-24.75024,3-24.75024,18.75049c0,6-15.75,25.5-34.50024,43.5
			l-34.50024,31.50049l24.75024-3.75c33.00024-4.5,44.25024-14.25,44.25024-37.50049c0-28.5,9-14.25,11.25,18.75049
			c0.75024,15.75,7.50024,62.25049,13.50024,103.50049c36.75024,231.00195,66.75049,306.00293,180.75146,449.25391
			c133.50122,168.00146,287.25244,303.75293,424.50366,375.00342c60.00049,31.5,65.25049,32.25,84.00049,22.5
			c45.00049-24,30.75049-82.50049-34.5-144.00098c-21.00024-19.50049-77.25073-57.00049-124.50122-83.25098
			c-99.75073-54.75049-108.00073-63.00049-90.75073-89.25049c4.5-8.25049,19.50024-3.75,69.00073,21
			c54.00049,27.75,66.75049,30.75049,95.25073,27c37.50024-5.25,57.75049-17.25,78.00049-47.25l15.00049-21.00049l-5.25,22.50049
			c-6.00049,28.5-26.25049,57.75049-47.25073,67.50049c-9,3.75-16.5,9-16.5,12c0,2.25,12.75,15,28.50024,27.75049l29.25,22.5
			l-7.5-32.25049c-6.75-30.75-6-36,13.50049-64.50049c18.75-27,21.75-36.75,21-80.25049
			c-0.75-32.25049-8.25-69.75049-20.25-104.25098c-10.50049-30-19.50049-61.50049-19.50049-69.75049c0-12-5.25-15-26.25024-15
			h-26.25l27.00024,35.25c29.25024,38.25049,39.75,60.00049,45.00049,96.00098c3,19.5,2.25,18.75-6.75049-6
			c-15.75-41.25049-39.75024-72.75098-81.00049-106.50098c-27.75024-22.50049-36.75024-35.25049-36.75024-50.25049
			c0-23.25-0.75-23.25,44.25024-12.75c38.25049,8.25,79.50098-1.5,90.75098-23.25049c21-39,1.5-111.00098-42.00049-157.50098
			c-25.50024-27.75049-33.00024-41.25049-33.00024-60.75049c0-21.75049,3.75-27.00049,22.50024-34.50049
			c29.25-10.5,30-37.50049,3-69.75049c-36.00049-42.00049-54.75049-47.25049-123.75122-33.75049
			c-92.25073,17.25-198.00146,14.25-294.75244-7.5c-45.00024-9.75-83.25073-20.25-85.50073-22.5
			c-9.75-9.75049,6.75-9.00049,54.75049,1.5c29.25024,6,90.00073,12,135.00122,12c75.00049,0.75,87.00073-0.75,131.25098-20.25
			c174.00146-75.75098,160.50146-72.00098,260.2522-71.25098c51.75049,0,97.50098-3,105.75098-7.5
			c18.75-9.75,26.25049-30.75,26.25049-71.25049c0-35.25049-22.50049-58.50049-69.75098-72.75049
			c-27.75-8.25-43.5-28.50049-34.5-43.50049c2.25-3,18.75-8.25,36-11.25c59.25049-9.75,103.50098-53.25049,103.50098-102.00098
			c0-81.75049-81.75049-165.75146-151.50146-154.50146c-35.25,6-42.75-6-28.5-47.25049
			c17.25-53.25049-22.5-81.75049-104.25098-73.50049c-35.25024,3.75-45.00024,8.25-63.00049,29.25049
			c-45.75024,53.25049-144.00122,193.50146-201.00171,287.25244c-32.25024,53.25049-65.25049,104.25049-72.00049,112.50098
			c-20.25024,22.5-69.75073,59.25049-74.25073,54.00049c-2.25-2.25,4.5-9.75049,15.75024-17.25049
			c27.00024-18,68.25049-79.50049,122.25098-186.75146c45.00024-88.50098,130.50098-226.50195,176.25146-284.25244
			c26.25024-33.00049,108.75098-96.75098,117.75098-90.75098c3,2.25,9.75-1.5,15.00024-7.5c8.25-9.75,6-11.25-13.50024-11.25
			c-15.75,0-32.25024,8.25-50.25049,23.25049c-17.25,15.75-26.25024,19.5-26.25024,12
			c0-33.75049,84.00073-87.75098,137.25146-87.75098c24,0,35.25,6,67.50049,36.75049
			c21.75,19.5,68.25049,55.50049,104.25098,78.75049c75.75049,49.50049,105.75049,81.00098,132.75098,139.50146
			c27.75,60.00049,26.25,117.00098-5.25,173.25146c-13.5,23.25-24.00049,46.5-24.00049,52.50049c0,6,12.00049,23.25,27.00049,37.5
			c37.50049,35.25049,55.50049,76.50098,55.50049,129.00098c0,79.50098-56.25049,149.25146-127.50098,159.00146
			c-20.25049,3-40.50049,3-45.00049,0c-11.25-6.75-9.75-1.5,12.75,37.50049c15,27.75,21,49.50049,23.25,94.50098
			c4.50049,81.75049-14.25,137.25098-87.75049,261.00195c-107.25098,178.50146-112.50098,227.25195-39.00049,393.00342
			c43.50049,99.00098,52.50049,133.50098,53.25049,202.50146c0,112.50146-59.25049,141.75146-186.75146,91.50146
			c-90.00073-35.25098-246.7522-135.75146-333.00293-213.75244l-50.25024-46.5l-27.75024,57.75049
			c-27.00024,57.00049-27.00024,60.00049-32.25049,177.00146c-4.5,105.00049-7.5,122.25049-23.25,154.50146
			C3582.59155,8384.80273,3536.09106,8406.55273,3479.84058,8391.55273z M3584.84155,8257.30176
			c14.25-36.75,24.75024-152.25146,12-133.50098c-4.5,6-8.25,22.5-8.25,35.25c0,13.50049-6.75,42.00098-15.00024,63.75098
			c-8.25,21.75-15,45.75-15,53.25C3558.59131,8299.30176,3571.34131,8289.55176,3584.84155,8257.30176z M3425.84009,8270.80176
			c3-7.5,0.75-9.75-6-6.75c-6,2.25-9,6.75-6.75,10.5C3418.34009,8283.55176,3421.34009,8282.80176,3425.84009,8270.80176z
			 M3470.84058,8230.30176c6.75-6.75,18.75-27.75,27.00024-45.75049l14.25-33.00049l-15.75-22.5l-16.50024-21.75049l-5.25,50.25049
			c-2.25,27.00049-10.5,57.75098-16.50024,68.25098C3443.84033,8246.80176,3452.84033,8249.80176,3470.84058,8230.30176z
			 M4228.34717,8163.55078c6-7.5,13.5-22.5,16.5-33c6.75-27.75049-18.75-128.25098-63.00049-243.00195l-36.75049-97.50098
			l-5.25,37.50049c-2.25,21-6,43.5-7.5,51c-1.5,7.50049,8.25,28.50049,21.75,45.75049
			c37.50049,48.75049,60.00049,107.25098,60.00049,156.00146c0.75,37.50049-2.25,45.75049-19.5,63.75049
			c-23.25,23.25-36.00049,18.75-18-6.75c19.5-27.00049,15-56.25049-15.00049-96.75098c-15-20.25-27.75-36.75-29.25-36.75
			s1.5,14.25,7.5,30.75c15.75,44.25049,14.25,90.75098-3.75,114.00098c-18,22.50049-12.75,26.25049,42.00049,27.00049
			C4205.84668,8176.30127,4219.34668,8172.55127,4228.34717,8163.55078z M4143.59619,7678.29688c0-9.75,2.25-29.25049,4.5-42.75049
			l4.5-25.5l-15.75,15c-12,12-14.25,21-10.5,43.50049C4130.84619,7699.29688,4143.59619,7706.79688,4143.59619,7678.29688z
			 M4166.09668,7499.79541c0-15-6.75049-48.75049-15.00049-75.00049c-16.5-51.75049-19.5-103.50098-6.75-116.25098
			c5.25-5.25049,5.25-18.00049-0.75-42.00049c-5.25-18.75049-7.5-52.50049-6-75.75098l2.25-42h-27.75
			c-15.75049,0-28.50049,1.5-28.50049,3s8.25,18,18.75,35.25c23.25049,40.50049,25.50049,101.25098,5.25,126.75146
			c-12.74976,15.75-12.74976,18,13.50049,69.75049c23.25,48.00049,26.25,59.25049,26.25,114.75098
			c0,52.50049,1.5,59.25049,9,45.75049C4161.59619,7535.04541,4165.34619,7515.54541,4166.09668,7499.79541z M4243.34717,7439.04492
			c81.00049-135.75146,84.75049-211.50195,12.75-259.50244c-17.25-11.25-17.25-11.25-12.75,6.75
			c8.25,30.00049,15,131.25146,10.5,151.50146c-3,11.25-16.5,23.25-39.75049,34.50049c-29.25,14.25-33.75,19.5-30,33.75
			c2.25,9,6.75,36.00049,9.75,60.00049c2.25,23.25049,5.25,42.75049,6,42.75049S4220.09668,7477.29492,4243.34717,7439.04492z
			 M4303.34766,7094.79199c-3-5.25-4.5-15.75-3.75-23.25049c2.25-12.75,1.5-12.75-20.25049-2.25c-12,6.75-28.5,12.00049-36,12.00049
			c-22.50049,0.75,21,21.75,45.00049,22.5C4303.34766,7103.79199,4307.84766,7100.79199,4303.34766,7094.79199z
			 M4428.59863,7042.2915c18-29.25049,20.25-92.25098,4.5-128.25098c-5.25-13.50049-19.5-32.25049-30.75-42.75049
			c-18.00049-16.5-20.25049-17.25-15.75049-3.75c11.25049,37.5,19.50049,99.75098,19.50049,147.00098
			c0,28.50049,1.5,51.75049,3.75,51.75049S4420.34863,7055.0415,4428.59863,7042.2915z M4326.59766,6982.29102
			c-2.25-3.75-6.75-37.50049-9.75-73.50049l-4.5-67.50098l-24.75,19.50049l-24.00049,19.5l18.00049,21.75
			c20.25,24.00049,33.75,63.75098,35.25,100.50098c0,21.75049,0.75,21.75049,7.5,5.25
			C4328.09766,6998.04102,4328.84766,6986.79102,4326.59766,6982.29102z M3569.84131,6948.54053c6.75-28.5,0-28.5-16.5,0
			c-8.25024,14.25-21.75024,35.25049-29.25024,47.25049c-13.50024,21.75-12.75024,21.75,13.5-3.75
			C3552.59131,6978.54102,3566.84131,6958.29053,3569.84131,6948.54053z M4361.09814,6755.78906
			c0-36.75049-23.25049-90.00098-46.50049-109.50098c-24-19.5-24.75-13.5-3,18.75c23.25,33.75049,30.00049,68.25049,24.75,118.50098
			l-4.5,39.00049l14.25049-18C4355.84814,6793.28955,4361.09814,6776.03906,4361.09814,6755.78906z M4406.09863,6652.28809
			c0-33.00049-20.25049-77.25049-45.00049-99.75098l-17.25-15l13.5,26.25049c9,16.5,15,48.75,17.25,89.25049
			c3.75,63.75049,3.75,63.75049,17.25,46.50049C4400.09863,6689.03857,4406.09863,6670.28809,4406.09863,6652.28809z
			 M4181.09668,6552.53711c-5.25-6-12-9-15.75049-6.75c-9.75,6-0.75,18.00049,13.50049,18.00049
			C4188.59668,6563.7876,4188.59668,6561.53711,4181.09668,6552.53711z M4241.09717,6485.03662
			c0-6-114.75098-101.25098-118.50098-98.25098c-1.5,2.25,7.5,18.75049,20.25,37.50049
			c24.00049,34.50049,39.75049,46.50049,75.00049,57.75049c10.50049,3,20.25049,6,21.75049,6
			C4240.34717,6488.78662,4241.09717,6487.28662,4241.09717,6485.03662z"/>
		<path id="path1403" style="fill:#FFFFFF;" d="M3380.83984,8122.30078c-12.75024-15.75049-24.00024-64.50049-33.00024-148.50146
			c-7.50024-71.25049-6.75024-93.00098,12.75-249.00195c11.25-93.75098,22.50024-169.50146,24.00024-167.25146
			c1.5,1.5-3,69.75049-10.50024,152.25098c-12.75,142.50146-12.75,152.25146,0,227.25195
			c24.00024,142.50146,28.50024,180.75195,21.00024,188.25195C3391.33984,8129.05078,3385.33984,8128.30078,3380.83984,8122.30078z"
			/>
		<path id="path1405" style="fill:#FFFFFF;" d="M3530.09106,7983.54932c-12.00024-24-27.75024-60.00049-33.75024-81.00049
			c-20.25024-62.25049-72.00073-254.25244-69.00073-257.25244c0.75-1.5,6,9.75049,11.25024,24.75049
			c4.5,14.25,31.50024,75.00049,60.00049,133.50098c55.50049,117.00098,77.25049,176.25146,73.50049,201.00195
			C3567.59131,8035.2998,3551.84131,8027.7998,3530.09106,7983.54932z"/>
		<path id="path1411" style="fill:#FFFFFF;" d="M3963.59473,7753.29736c-114.75098-42.75-269.2522-161.25146-342.00293-264.00195
			c-32.25024-45.75049-147.75122-273.75244-141.00122-279.75244c4.5-5.25,5.25-4.5,57.75049,105.75098
			c64.50049,132.75098,106.50098,178.50146,280.50244,303.75244c126.75098,91.50098,192.75171,144.00098,178.50146,144.00098
			C3993.59497,7763.04736,3977.84473,7758.54736,3963.59473,7753.29736z"/>
		
			<path id="path1413" sodipodi:nodetypes="ccscsscccccccccsccccsscccccsccccccccccccsccccsccccccsccccccscccccscccccssccccccccsccccccscccsccccccccsccscccccccccscccscsccsscccccsccccccccccscccccccccsccccccccccccccscccccccccccccccssccsccccscccccccccccccscccccsccccccccccccscccsscsccccccccccscccscccccccccscccccscsscccscsccscscccc" style="fill:#FFFFFF;" d="
			M1650.57507,7609.29639c-40.50037-78.00098-96.75085-141.75146-181.50159-206.25195
			c-142.50122-109.50098-156.75134-133.50098-156.75134-265.50195c0-78.00098,2.25-95.25098,17.25012-128.25146
			c18.00024-39.75,69.00061-97.50049,69.00061-78.00049c0,7.5,2.25,8.25,8.25012,2.25c7.5-7.5,3-18.75-20.25024-53.25049
			c-1.5-1.5-24.00012,6-51.00037,16.5c-37.50037,15.00049-52.50049,18.00049-67.50061,12.00049
			c-21.00012-7.50049-31.50024-34.50049-24.00024-63.00098c6.00012-23.25-11.25-38.25-67.50049-57.75049
			c-68.25061-24-165.75146-27-240.75208-8.25c-126.7511,32.25049-193.50165,78.00098-273.75232,187.50195
			c-29.25024,39.75-68.25061,88.50049-87.75073,108.75049l-33.75031,35.25049h26.25018
			c15.00018,0,93.75085,12.75,176.25153,27.75049c129.0011,24,164.2514,27.75,261.7522,28.5c102.75092,0,116.25104-1.5,152.25128-18
			c23.25024-10.5,51.75049-32.25049,69.00061-51.00049c28.50024-33.00049,60.00049-100.50098,60.00049-129.75098
			c0-8.25049,3.00012-15.00049,6.75012-15.00049c11.25012,0-12.75012,90.00098-37.50037,140.25146
			c-47.25037,96.75049-135.0011,156.75098-242.25201,165.00146c-71.25061,5.25-119.25104-3.75-274.50238-54.00049
			c-125.25104-40.50049-217.50183-59.25049-268.50226-54.75049c-24.00021,2.25-27.75024,0-30.00024-15.00049
			c-1.50003-9,2.25-18,7.50006-19.5c5.25003-1.5,24.00018-6.75,41.25034-11.25c43.5004-12,105.00089-69.75049,168.75143-160.50146
			c70.50061-99.00098,102.75085-129.75098,174.75146-163.50146c117.75104-55.50049,252.00214-66.00049,338.25287-26.25l39.00037,18
			l11.25012-29.25c6-15.75049,9.75-35.25049,7.5-43.50049c-4.5-18,12.75012-51.00049,42.75037-79.50049l24.00024-22.50049
			l-5.25-90.00049c-7.50012-152.25146-27.75024-209.25195-93.75085-268.50244
			c-52.50049-47.25049-107.25085-63.75049-243.00208-72.75049c-58.50049-3.75-118.50098-7.50049-134.2511-7.50049h-29.25031
			l24.00024,19.50049c12.75012,11.25,39.00031,47.25049,58.50049,81.00049c27.00024,45.00049,45.75037,66.75049,72.00061,85.50098
			c20.25018,12.75,32.25031,24,27.75024,24c-5.25006,0-7.50006,2.25-6.00006,6c6.00006,9,22.50018,219.75195,18.00018,224.25195
			c-3.00006,2.25-19.50018-4.5-38.25037-15.75c-44.25037-26.25049-69.00055-69.00049-96.00079-167.25146
			c-24.00018-87.75098-40.50037-123.75098-80.25067-178.50146c-40.50037-54.75049-41.25037-55.50049-26.25024-72.00049
			c12.75012-14.25049,12.00012-14.25049-21.75018-14.25049h-34.50031l13.50012,32.25049
			c7.50006,17.25,27.75024,74.25049,45.00037,126.75098c21.75018,66.00049,43.50037,113.25098,67.50061,150.00146
			c42.75037,65.25049,120.00098,139.50098,170.2514,164.25146c47.25049,22.5,117.00098,27.75,156.00134,11.25
			c33.75024-14.25,34.50037-14.25,34.50037-5.25c0,9.75-59.25061,36-93.75085,41.25c-36.75037,6.00049-108.00092-12-151.50128-37.5
			c-80.25067-46.50049-127.5011-114.75098-183.75159-265.50244c-16.50012-43.50049-38.25031-96.75098-48.75043-119.25098
			c-17.25012-35.25049-68.25055-94.50098-109.50092-126.75098c-13.50012-10.5-18.00012-61.50049-5.25006-61.50049
			c3.75006,0,24.00024,6.75,45.75043,15c96.75079,38.25049,141.00116,46.50049,295.5025,52.50049
			c177.75146,6.75,211.50183,15.75,277.50232,75.75049c71.25061,65.25049,100.50085,156.00146,101.25085,312.75293v76.50049
			h26.25024c18.75024,0,33.00037,6,45.00037,18c15.00012,15.00049,19.50024,16.50049,27.00024,7.5
			c4.50012-5.25,20.25024-12,34.50037-15c22.50012-4.5,25.50012-7.5,21.00012-21
			c-10.50012-33.00049-13.50012-167.25146-4.5-194.25195c11.25012-34.5,48.00037-66.00049,111.75098-98.25049l51.00037-25.50049
			l1.5,23.25049c0.75,13.5,5.25012,65.25049,9.75012,116.25098c6.75,70.50049,6.75,94.50049,0,101.25098
			c-4.5,4.5-31.50024,22.5-59.25049,39c-38.25037,23.25049-51.00049,34.50049-52.50049,49.50049
			c-3,23.25,16.50012,42.75049,30.75024,30.75049c4.50012-4.5,30.75024-13.50049,57.75049-20.25049
			c106.50098-26.25,144.00122-42.75,176.25159-74.25049c58.50049-59.25049,66.75049-153.75146,26.25012-312.75244
			c-36.00024-144.75146-37.50024-149.25146-45.75037-149.25146c-3.75,0-15.75012,18.75-26.25024,41.25049
			c-24.00012,50.25049-67.50049,88.50049-171.75146,153.75098c-159.75134,99.00098-195.75159,164.25146-141.7511,261.75244
			c27.00012,49.50049,21.00012,71.25049-11.25012,39.00049c-30.75024-30.75049-40.50037-130.50146-19.50024-200.25195
			c15.00012-50.25049,46.50049-81.00049,161.25146-156.00146c105.75085-69.75049,159.75134-120.00098,189.75159-177.75146
			c11.25012-21.75,20.25012-38.25,20.25012-36.75c0.75,2.25,18.00024,69.75049,38.25037,150.00098
			c29.25024,111.75098,39.00037,164.25146,42.00037,222.75195c5.25,93.00098-3.75,129.00098-43.50037,186.00146l-28.50024,41.25049
			h47.25037c117.00098,0,197.25171,33.75049,282.00244,119.25098c33.00024,33.00049,66.00049,75.00049,78.75073,99.75098
			c12.75,24,27.00024,43.50049,31.50024,43.50049c17.25,0,159.24512,16.20117,210.24561-6.29883
			c88.39502,9.1377,26.08838,15.64795,57.58862-11.35205l22.50024-19.50049l-27.75024,4.50049
			c-78.75073,12.75-236.75293-19.03516-227.00269-28.78516c1.5-2.25,17.79346-23.39746,103.14746,1.41406
			c52.36157,23.38916,92.35498,2.62061,129.10522-2.62939l43.43677,1.47607l36.00586-18.63672
			c59.25049-64.50049-42.08008-257.64502-42.08008-315.39551c0-127.50098-16.08716-377.09619-77.94482-396.04932
			c-255.0022-71.25049-385.50342-123.75098-517.50452-208.50146c-60.00049-38.25049-68.25061-41.25049-135.0011-49.50049
			c-102.75085-13.50049-279.00244-49.50049-348.75293-72.00098c-186.00159-60.00049-420.75366-216.75146-523.50452-348.75293
			c-65.25055-82.50049-102.75085-171.75146-102.75085-244.50195c0-84.75049,54.00043-164.25146,140.25116-207.00146
			c43.50037-21.00049,59.25055-24.75049,123.00104-27.00049c102.75085-4.5,159.00134,14.25,218.25183,73.50049
			c47.25049,47.25049,66.00061,93.00098,66.00061,159.75146c0,148.50146-120.75098,203.25195-216.75183,99.00098
			c-39.00037-42.75049-46.50037-69.00049-23.25024-87.75098c30.00024-24,52.50049-12,26.25024,14.25049
			c-6.75,6-11.25012,17.25-9.75012,24c3.75012,18.75,61.50061,46.50049,107.25098,51.00049
			c39.00037,3.75,42.00037,3,66.75061-21.75049c31.50024-31.5,39.75024-68.25049,27.75024-120.75098
			c-12.00012-51.75049-32.25037-82.50049-74.25073-110.25098c-113.25098-75.00049-297.7525-53.25-387.00323,45.75049
			c-117.00104,130.50146-18.75018,330.00293,254.25214,512.25439c179.25159,120.75098,330.00281,171.75146,621.00525,210.75195
			l36.75037,4.5l-41.25037-48.00049c-94.50085-111.00098-141.00122-240.75195-159.00134-444.00391
			c-18.75012-208.50146,81.00073-329.25244,261.0022-316.50244c138.75122,9.75,256.5022,120.75098,273.00244,258.00195
			c2.25,18.00049,7.5,30.00049,11.25,27.75049s4.5-10.5,2.25-18.75c-6-18.00049,5.25-18.75049,21.00024-0.75049
			c35.25024,39.00049,46.50024,115.50146,39.00024,261.00244l-5.25,102.00098l-24.75024-24.00049
			c-34.50024-33-60.75049-85.50049-70.50049-138.00098c-12.00024-66.75049-10.50024-183.75146,3-210.00195
			c10.5-19.5,9.75-24-5.25-54.75049c-22.50024-44.25-86.25085-103.50049-138.75134-128.25098
			c-37.50024-17.25-53.25037-20.25-114.75098-20.25c-78.00061,0-108.00085,10.5-160.50134,57.00049
			c-67.50049,58.50049-89.25073,180.00146-57.75049,315.75244c18.00024,78.00098,30.75024,106.50098,30.75024,69.75098
			c0.75-99.00098,145.50134-209.25195,240.75208-183.75195c47.25037,12.75049,36.75037,27.75049-23.25012,31.50049
			c-121.5011,9-225.00195,107.25098-205.50183,195.75146c15.75012,72.00098,124.5011,170.25146,273.00232,246.00244l63.75061,32.25
			l150.00134,5.25c163.50122,6,230.25195,13.5,322.50269,37.50049c198.75171,50.25049,384.75317,183.00146,459.75391,327.00293
			c39.00024,75.00049,41.25024,98.25049,3.75,32.25c-36.00024-62.25049-131.25122-158.25146-207.75171-209.25195
			c-111.00098-75.00049-211.50195-111.75049-350.25293-127.50098c-76.50073-9-224.25195-14.25-224.25195-8.25
			c0,2.25,22.50024,12,51.00049,21.75c262.5022,90.75098,164.51489,63.48535,270.26587,174.48633
			c70.50049,75.00049,58.23267,323.50342,61.98267,404.50391c3.75,72.75049,31.42773,131.87256,50.30688,212.5874
			l13.60596,107.22949l-1.13379,26.27686c64.50073-15.75049,304.30933,146.21631,346.30957,87.71582l12.75024-18.75l-10.50024,22.5
			c-24,51.00049-286.30908-90.71582-365.80957-65.96582c-16.50024,5.25-25.19287,20.27393-58.19312,46.52441
			c-164.0105,126.94775-188.98975,12.66113-375.08496,49.15039c-74.25073,15.00049-183.00171,42.00049-242.2522,60.75049
			c-60.00049,18.75049-110.25085,31.50049-112.50098,30.00049c-1.5-2.25-1.5-4.5,0-6
			c12.75012-8.25,306.75269-102.75098,320.25269-102.75098c9.00024,0,16.50024-3.75,16.50024-8.25
			c0-12-86.25073-1.5-198.75171,24.75c-128.2511,30.00049-231.00195,33.00049-279.75232,7.5
			c-31.50037-16.5-61.50061-54.00049-61.50061-76.50049c0-6,6.75012,0,15.00012,13.5
			c9.75012,15.75049,28.50024,30.75049,50.25049,40.50049c48.75037,21.75,146.25122,15,272.25232-18
			c75.75061-19.50049,108.75085-24.00049,171.00146-24.75049c42.00024,0,76.50073-2.25,76.50073-5.25
			c0-7.5-49.50049-63.75049-78.00073-88.50049c-44.25049-39.00049-92.25085-67.50098-150.75134-90.75098
			c-51.00037-20.25-70.50061-24-127.5011-24.75c-71.25061-0.75-111.00098,9.75-156.00134,42
			c-19.50012,14.25049-20.25012,16.50049-9,23.25049c7.5,3.75,48.75037,8.25,93.00073,10.5
			c96.75085,4.5,128.2511,12,123.0011,31.50049c-1.5,7.5,0,30.75,3.75,52.5c6.75,37.50049,6,39.00049-15.00012,57.00049
			c-24.00024,20.25049-58.50049,29.25049-116.25098,29.25049c-72.00061,0.75-108.75098-47.25049-109.50098-141.00146
			c-0.75-29.25,2.25-59.25049,5.25012-66.00049c5.25-12,1.5-13.5-36.00037-11.25c-42.00037,1.5-42.00037,1.5-42.00037,24.75049
			c0,12.75-5.25,27.75-11.25012,33c-8.25,6.75-9,12-3.75,18.75c29.25024,35.25049,18.75012,102.75098-16.50012,111.00098
			c-12.00012,3-21.00012,13.50049-27.75024,31.50049c-5.25,15-14.25012,29.25-20.25012,31.50049c-15.00012,6-12.75012,15,5.25,19.5
			c9.00012,2.25,14.25012,6.75,12.00012,10.5c-2.25,3,0.75,45.75049,5.25,94.50098l9.00012,89.25049l-21.75024,18.00049
			l-21.00012,18l15.00012,21c8.25,12,20.25012,25.50049,26.25024,30.75049c6.75,6,12.75012,32.25,15.75012,81.75049
			c3,39.75049,8.25,80.25098,12.00012,90.00098c4.5,11.25,3.75,15.75-0.75,12.75c-15.75024-9.75-6.00012,4.5,32.25024,47.25049
			c21.00012,24,52.50037,68.25049,68.25061,97.50049c16.50012,30.00049,31.50024,54.00049,33.75024,54.00049
			c7.5,0,90.00073-309.00244,95.25085-356.25293c5.25-55.50049-7.50012-129.75098-30.75037-176.25146
			c-30.75024-60.00049-99.00073-113.25098-165.00134-126.75098c-12.75012-3-22.50024-9.75-22.50024-15.75
			c0-9,11.25012-11.25049,50.25049-11.25049c44.25037,0,52.50049,2.25049,78.00061,23.25049
			c59.25049,47.25049,108.00098,168.00146,108.00098,264.75195c0,66.00098-11.25012,119.25146-53.25049,247.50244
			c-16.50012,51.00049-34.50024,122.25098-39.75037,157.50146l-9,64.50049L1650.57507,7609.29639z M1416.573,7297.29346
			c-32.25024-63.75049-41.25024-102.75049-45.75037-201.00146c-3-75.75098-2.25-99.00098,7.50012-122.25098
			c15.75012-36.00049,2.25-28.50049-25.50024,15.75c-24.75024,39.75049-26.25024,61.50049-11.25012,194.25146
			c5.25012,48.75049,13.50012,88.50098,20.25024,96.75098c9.75,12,66.00049,55.50049,72.00061,55.50049
			C1435.32324,7336.29395,1427.82312,7319.04395,1416.573,7297.29346z M1475.07361,6871.29004
			c24.00012-21,24.00012-21.75,7.5-22.50049c-30.00024,0-17.25012-25.5,15.00012-30.75
			c64.50061-10.5,69.75061-57.00049,8.25012-73.50049c-32.25037-9-30.75024-27.75049,5.25-45.75049
			c17.25012-9,30.00024-19.5,27.75024-24.75049c-4.5-15-42.00037-29.25-89.25073-33c-40.50037-3.75-45.00037-3-48.75049,12
			c-5.25,20.25-8.25,19.5-26.25012-3c-19.50024-24.75-61.50061-25.5-96.00085-1.5c-31.50024,21-36.00037,33.75049-13.50012,36.75049
			c25.50024,3.75,21.00012,24.75-9.00012,45c-20.25012,13.50049-26.25024,23.25049-26.25024,39.75049
			c0,21,2.25012,22.50049,26.25024,21.75049c14.25012,0,33.00037-3.00049,40.50037-6.75049
			c12.00012-5.25,13.50012-3.75,10.50012,9.75049c-3.75,12-0.75,16.5,12.00012,18.75c14.25012,2.25,13.50012,3.75-6.75012,11.25
			c-43.50037,18-56.25049,27.00049-56.25049,39.75049c0,30.75,79.50073,24,108.75098-8.25
			c15.00012-16.50049,26.25024-19.50049,26.25024-6c0,14.25,31.50024,43.5,46.50037,43.5
			C1445.07324,6893.79004,1461.57349,6884.04004,1475.07361,6871.29004z M2177.82959,5448.52783
			c-0.75-96.00098-9.75024-90.75049-18.75024,10.5c-5.25,55.50049-1.5,77.25098,12.00024,77.25098
			C2175.57959,5536.27881,2178.57959,5504.02832,2177.82959,5448.52783z M2111.82886,5445.52783c-3.75-9.75-7.5-14.25-7.5-9
			c-0.75,11.25,7.5,33.75,11.25024,30C2117.8291,5465.02783,2115.5791,5455.27783,2111.82886,5445.52783z M2133.5791,5328.52686
			c-4.5-21.75-12-39.75049-15.75-39.75049c-10.50024,0-8.25024,48.75049,6.75,103.50098l12.75,50.25049l2.25-37.50049
			C2141.0791,5384.77734,2138.0791,5349.52686,2133.5791,5328.52686z"/>
		<path id="path1415" style="fill:#FFFFFF;" d="M1362.57263,6779.78906c-12.75012-12.75-11.25012-54.75049,3-66.75049
			c15.75012-12.75,34.50024-0.75,42.00037,27.00049c3.75,15.75,3,18.75-3,12.75c-11.25012-11.25-36.00037-12-36.00037-1.5
			c0,4.5,8.25012,11.25,18.75012,16.5c9.75012,4.5,16.50024,11.25,14.25012,14.25
			C1395.57288,6791.78955,1373.07263,6790.28906,1362.57263,6779.78906z"/>
		<path id="path1417" style="fill:#FFFFFF;" d="M1902.57715,7600.29639c-12.00012-11.25049-30.00024-36.00049-39.75024-54.00049
			c-15.75024-29.25049-18.00024-43.50049-18.00024-113.25098c0-78.00098,0.75-80.25098,31.50024-143.25146
			c24.75024-49.50049,48.00049-81.00049,105.00098-141.75098c40.50037-42.75049,81.75073-87.75098,90.75073-100.50098
			c16.50024-21,16.50024-19.5-2.25,15c-10.5,21.00049-44.25037,66.00049-75.75061,101.25098
			c-90.75085,102.75098-110.25098,135.00098-117.00098,193.50146c-3.00012,27.75049-5.25012,79.50098-5.25012,114.75098
			l-0.75,65.25049l26.25024,23.25049c51.00037,44.25049,116.25098,23.25,116.25098-38.25049
			c0-29.25-21.75012-62.25049-45.00037-69.75049c-8.25012-3-15.00012-11.25-15.00012-19.5
			c0-34.50049,70.50061,14.25,79.50061,54.75049c6.75012,32.25-10.5,86.25049-36.00024,111.75098
			C1967.82776,7628.79639,1933.32739,7628.79639,1902.57715,7600.29639z"/>
		<path id="path1419" style="fill:#FFFFFF;" d="M3927.59448,7490.04541c-66.00073-22.50049-160.50146-69.00098-228.00195-113.25098
			c-47.25049-30.75049-174.75146-144.00146-168.75146-150.75146c2.25-1.5,39.75024,23.25,84.75073,54.75049
			c111.00098,77.25049,210.75171,124.50098,315.00269,148.50146c90.00073,20.25,153.00122,45,153.00122,60.75049
			C4083.5957,7515.54541,4001.84497,7514.79541,3927.59448,7490.04541z"/>
		<path id="path1421" style="fill:#FFFFFF;" d="M2149.32935,7372.29443c-110.25098-31.50049-133.50122-159.00146-57.75049-318.75293
			c30.00024-63.00049,42.75024-74.25049,15.75-15c-50.25024,114.75098-62.25049,207.75146-31.50024,252.75195
			c26.25024,39.75049,60.00049,55.50049,117.00098,55.50049c80.25073,0,147.00122-45.00049,141.75122-96.00098
			c-2.25-20.25-9-26.25-51.00049-48c-50.25024-25.50049-59.25049-33.75049-45.00024-42.75049c15.75-9.75,59.25049,4.5,81.75073,27
			c61.50049,61.50049,15.75,165.00146-83.25073,186.00195C2194.32959,7382.79443,2183.82959,7382.79443,2149.32935,7372.29443z"/>
		<path id="path1423" style="fill:#FFFFFF;" d="M869.81842,7145.04248c-20.25018-6-81.00073-16.50049-135.00116-22.50049
			c-124.50104-15-146.25128-18.75-146.25128-27c0-12,75.75067-45.00049,126.7511-56.25049
			c48.75043-10.5,240.75208-14.25,217.50183-4.5c-9.75006,4.5-10.50006,12.75-3,63.75049
			C938.81897,7165.29248,939.56897,7164.54248,869.81842,7145.04248z"/>
		
			<path id="path1425" sodipodi:nodetypes="cscccccccccccccccccccscccsccccscccccsccccccccccscccccccccscccscccccsccccccccsccccsccccccccsscccccsscccsccccccccccscccscccssccccscsscccssscccccscssscccccsccccccscccccccsccccccccccccccccccc" style="fill:#FFFFFF;" d="
			M2931.58594,7092.54199c-77.25073-16.50049-132.75122-54.75049-162.75146-111.75098c-22.5-42.75049-22.5-123.75098,0-166.50146
			c38.25049-72.00049,98.25098-105.00098,179.25171-98.25098c39.75024,3,54.75024,7.5,76.50049,25.50049
			c66.00073,53.25049,54.00049,152.25098-22.50024,188.25146c-32.25024,15.75-78.75049,21-141.00098,16.5
			c-25.50024-1.5-17.25024-3.75,30.75024-7.5c84.75073-6.75,123.75098-27,148.50122-78.00049
			c17.25-34.50049,18-38.25049,7.5-67.50049c-13.5-39.00049-37.50024-51.00049-103.50098-51.00049
			c-84.75073-0.75-157.50122,42-174.00146,101.25049c-9,34.50049,1.5,95.25098,22.50024,130.50146
			c33.00024,54.00049,102.75098,84.75049,203.25171,90.75049c79.50073,3.75,135.00122-6.75,201.75171-40.5
			c87.00073-43.50049,156.00146-126.00146,183.75171-219.75195c15.75-52.50049,15.75-151.50146,0-204.00195
			c-30.00024-102.00098-75.75073-168.75146-207.00195-304.50244c-140.25098-145.50146-194.25146-225.00195-219.75171-322.50293
			c-13.50024-51.00049-14.25024-117.75098-3-153.00098c32.25024-95.25098,150.00122-140.25146,243.00195-93.00098
			c20.25024,9.75,36.75024,17.25,37.50024,16.5c0.75024-0.75,6.75024-20.25,13.50024-43.50049
			c14.25-46.5,56.25049-100.50049,99.75073-127.50098c29.25024-18,25.50024-37.5-4.5-21.75c-9,4.5-18,6.75-20.25,4.5
			c-2.25024-2.25-13.50024,9-24.75024,24.75c-25.50024,35.25049-54.75049,53.25049-126.00122,78.75098
			c-84.75073,30-137.25098,32.25-260.2522,9.75c-57.75049-10.5-126.00098-21.75-151.50122-24.75
			c-43.50049-4.50049-47.25049-6.00049-47.25049-23.25049c0-9.75,8.25024-29.25,18.00024-42.00049
			c9.75-13.5,80.55054-39.23193,100.80054-78.23242c42.27295-26.35938,78.65503-42.95508,98.90527-63.20508
			c93.75073-94.50098,196.29761-154.06494,299.04834-58.81396c13.50024,12.75,25.50024,22.5,26.25024,21
			c3-5.25,19.50024-44.25049,19.50024-46.50049c0-1.5-8.25-4.5-17.25024-7.5c-45.00024-11.25-77.25049-57.00049-110.25098-158.25098
			c-23.25-72.00098-42.00024-107.25098-74.25049-138.75146l-27.75024-27.75l-28.50024,24.75
			c-60.00049,51.75049-135.75122,73.50049-255.7522,73.50049c-176.25146,0.75-288.75244-71.25049-288.75244-183.00146
			c0.75-99.00098,111.00098-192.75146,236.25195-201.00146c64.50049-3.75,98.25098,8.25,127.50122,46.5
			c27.00024,36.00049,34.50024,95.25098,15,117.00146c-17.25,18.75-26.25024,18.75-26.25024,0
			c0-7.50049,6.75-18.00049,15.00024-22.50049c22.50024-12,18-36-13.50024-68.25049
			c-38.25024-37.50049-60.00049-42.00049-136.50098-26.25049c-123.00122,25.50049-178.50171,67.50098-186.00171,139.50146
			c-3,31.5,0,42.75049,16.50024,67.50049c64.50049,98.25098,295.50244,129.75098,432.75366,60.00049
			c71.25049-36.75049,126.75098-111.00098,142.50122-189.75146c5.25-24.00049,10.5-42.00049,12-39.75049
			c7.5,6.75-13.5,111.75098-27.75024,139.50146c-8.25,16.5-15,31.5-15,33c0,2.25,45.00024,3.75,99.75073,3
			c86.25073-1.5,103.50098,0.75,134.25122,14.25c39.75024,18.00049,78.00049,64.50098,85.50073,104.25098
			c4.5,24.75049,18,36.00049,18,15.75049c0-18.75049,51.75049-70.50098,102.75098-102.75098
			c27.75024-18.00049,79.50073-51.00049,114.00098-72.75098c34.50024-22.5,63.75049-39,65.25049-37.5c2.25,1.5,0.75,34.5-3,73.50049
			c-6,60.00049-6.75,63.75049-8.25,27.75049c0-24.00049-2.25-43.50049-4.5-43.50049s-33.75049,20.25-69.75073,44.25049
			l-65.25049,44.25l6.75,87.00098c4.5,57.75049,9.75024,84.75049,15.00024,81.75049c4.5-3-12.75024,17.25049-38.25049,45.00049
			c-26.25024,27.75049-48.00024,59.25049-51.00024,72.00049c-6.00024,30.00049-15.00024,29.25049-31.50049-0.75
			c-9-18-13.5-49.50049-15.75-113.25098c-2.25-63.00049-6-86.25049-11.25-81.00049c-5.25024,5.25-7.50024,36.75049-6.00024,81.00049
			c0.75,40.50049,0,71.25098-2.25,69.75098c-2.25-2.25-7.5-40.50049-12-85.50098
			c-12.75024-123.00098-35.25024-160.50146-113.25098-187.50146c-32.25024-11.25-164.25146-17.25-174.00146-7.5
			c-2.25,2.25,2.25,15,9.75,27.75c7.5,13.5,23.25024,54.75049,33.75024,91.50098c11.25024,37.5,27.00024,79.50049,33.75049,93.75049
			c18,35.25049,62.25049,75.00098,113.25073,103.50098l42.00049,22.50049l21.75024-14.25049
			c30.00024-19.5,39.00024-18,54.00049,8.25c17.25,30.00049,54.75024,32.25049,67.50049,3.75049
			c9-19.50049,65.25049-63.75098,81.75073-63.75098c5.25,0,9.75-4.5,9.75-10.5s17.25024-20.25,39.00024-32.25
			c55.50049-30.00049,68.25073-51.00049,73.50073-120.75098l5.25-57.75049l0.75,60.75049c1.5,51.00049-1.5,66.00049-17.25,97.50049
			c-10.50024,20.25049-18.75024,37.50049-18.75024,39.00049c0,0.75,14.25,1.5,32.25024,1.5c17.25024,0,45.00049,6.75,62.25049,14.25
			c27.00024,12.00049,35.25049,22.50049,63.75049,80.25098c37.50049,74.25049,57.75073,92.25049,125.25122,111.75098
			c59.25049,17.25,84.00073,31.5,84.00073,48c0,11.25049-7.5,15.75049-29.25024,19.50049
			c-15.75024,2.25-73.50073,26.25-127.50122,52.50049c-54.00049,27-113.25098,52.50049-132.00098,57.00049
			c-90.00073,22.5-191.25171-27.00049-225.00195-109.50098c-18.75024-44.25049-18.75024-59.25049-0.75-25.50049
			c9.75,18.75049,31.50024,45.75049,48.00049,60.75049c70.50049,63.75098,160.50122,68.25098,265.5022,13.50049
			c34.50024-18.00049,81.75073-42.75049,106.50073-55.50049c24.00024-12.75049,39.00049-24.00049,33.75049-25.50049
			c-98.25098-30.75-126.00122-52.50049-159.75146-125.25098c-30.75024-67.50049-46.50049-78.75049-105.75098-78.75049h-45.00024
			l27.00024,17.25c15,9,26.25024,20.25,24.75024,24c-1.5,4.50049,1.5,54.75049,7.5,112.50098s9,107.25098,7.5,110.25098
			c-1.5,2.25,1.5,6.75,6,8.25c7.50024,3.00049,7.50024,4.50049,0,4.50049c-5.25,0.75-29.25024-7.50049-54.00024-18.00049
			c-24.75024-10.5-56.25049-18.75-70.50073-18.75c-28.50024,0-41.25024-10.5-77.25073-61.50049l-20.25-29.25049l12.75-53.25049
			c7.5-29.25,12.00024-54.00049,10.5-55.50049c-8.25-9-30.00024,21.00049-30.00024,40.50049c0,18.75-2.25,21.75049-10.5,15.75
			c-7.5-6.75-9.75-6-9.75,2.25c0,8.25049-6,9.75049-23.25024,7.50049s-24.75024-9.00049-30.75024-24.75049
			c-9-26.25-32.25024-28.5-61.50049-6c-15.75024,12.75-22.50024,14.25-30.75024,6.75c-15.75024-12.75-48.75049-3-48.75049,14.25
			c0,7.50049,5.25,18.00049,11.25,23.25049c6.00024,5.25,11.25024,15,11.25024,22.5s-5.25,15-11.25024,18.00049
			c-18.75,6.75-12.75,18,14.25024,27c21.00024,6.75,30.00024,6,48.75049-3c30.00024-15.75,36.00024-15,20.25,2.25
			c-11.25,12-11.25,15-1.5,23.25c11.25024,9.00049,61.50049,12.75049,69.00073,5.25c2.25-2.25-1.5-14.25-7.50024-27
			c-16.5-32.25049-15-45.75049,5.25-45.75049c9.75024,0,21.00024-3.75,26.25024-9c6.00024-6,9.00024-6.75,9.00024-0.75
			c0,4.5-8.25024,15-18.75024,23.25c-18.00024,14.25049-18.00024,15.75049-7.5,42.00049
			c14.25,33.75049,11.25,39.00049-24.00024,45.75049c-48.00049,9-120.00098,67.50049-138.00122,112.50098
			c-9.75,24.75-12,147.75098-3.75,196.50146c3,17.25049,27.75024,69.75098,54.75049,116.25098
			c27.00024,46.50049,54.00049,97.50098,60.00049,113.25098l12,29.25049l21.00024-66.75049
			c12.75024-39.00049,35.25024-87.00098,56.25049-118.50098c18.75024-28.50049,41.25049-66.00098,49.50049-82.50098
			c21.75024-42.00049,26.25024-123.75098,10.5-179.25146c-7.5-24-11.25-45.00049-9.75-46.50049
			c7.5-7.5,43.50024,93.00098,48.00049,132.00146c3.75,38.25,1.5,49.5-18.00024,91.50049
			c-12,25.50049-42.75049,78.75098-68.25049,117.00098c-52.50049,80.25098-76.50073,146.25146-77.25073,214.50195v45.75049
			l-14.25024-55.50049c-8.25-30.75049-27.75024-79.50098-44.25024-108.75098
			c-15.75024-29.25049-43.50049-80.25098-61.50049-113.25098c-18.00024-33.00049-39.75049-85.50098-48.75049-116.25098
			c-15.00024-53.25049-17.25024-57.00049-48.75049-72.75049c-62.25049-33.00049-162.00122-17.25049-200.25171,30.75
			c-44.25024,56.25049-39.00024,159.75146,13.50024,265.50244c27.75024,54.75049,46.50024,78.00049,156.75122,191.25146
			c69.00073,71.25049,135.75122,144.75146,149.25122,164.25146c65.25073,95.25098,96.00098,199.50146,90.00098,309.00244
			C3392.08984,6983.79102,3181.33813,7147.29248,2931.58594,7092.54199z M3184.33813,5626.2793
			c59.25049-19.5,102.00073-47.25049,114.00098-72.75049c7.5-16.5,6-21-6.75-31.50049
			c-21.75024-17.25-34.50049-42.75-33.00049-66.75049c0.75-11.25,1.5-24,0.75-28.5
			c-1.5-14.25049-129.75098-69.00049-182.25146-78.00098c-85.50073-15-77.90552,55.92334-133.40601,115.92383
			c-29.25024,31.5-192.09668,121.82861-184.59668,129.32861c1.5,2.25,28.50024,8.25,58.50049,13.5
			c30.00024,6,85.50073,17.25,122.25098,25.5C3023.83667,5652.52979,3113.0874,5649.52979,3184.33813,5626.2793z"/>
		<path id="path1427" style="fill:#FFFFFF;" d="M2793.58472,5581.27881c0-3.75,8.25-12.75,18.75024-19.5
			c10.5-6.75,40.50024-41.25049,66.75049-77.25049c53.25049-72.75098,81.75073-101.25098,109.50098-111.75098l18.75024-6.75
			l2.25,60.00049c1.5,33,5.25,81.75049,8.25,108.00098c5.25,46.5,5.25,48-9.75,44.25c-50.25049-12-93.75098-12.75-136.50122-1.5
			C2818.33496,5590.2793,2793.58472,5591.7793,2793.58472,5581.27881z"/>
		<path id="path1429" style="fill:#FFFFFF;" d="M3713.84253,7068.5415c-3-4.5,13.50024-9,42.00049-12
			c38.25024-3,63.75049-12.75,142.50122-54.00049c107.25073-55.50049,150.75122-71.25049,199.50146-71.25049
			c43.50049,0,90.75098,26.25,90.75098,50.25049c0,25.5-24.00049,31.5-141.00122,36.75
			c-87.75073,4.50049-111.75098,8.25049-162.75146,27.00049C3821.84351,7068.5415,3722.09277,7082.04199,3713.84253,7068.5415z"/>
		<path id="path1431" style="fill:#FFFFFF;" d="M3780.59326,6910.29053c-2.25-3.75,7.5-10.50049,21.75-15.00049
			c13.50024-5.25,63.00073-38.25,110.25098-72.75049c98.25098-74.25049,174.75146-116.25098,208.50195-116.25098
			c30.75,0,120.00098,31.50049,120.00098,42.00049c0,12.75-69.00049,75.00049-102.00098,91.50049
			c-15.75,8.25-66.00049,22.50049-111.75098,30.75049c-45.00024,9-104.25073,23.25-130.50098,31.5
			C3848.09375,6917.04053,3787.34326,6920.79053,3780.59326,6910.29053z"/>
		<path id="path1435" style="fill:#FFFFFF;" d="M3381.58984,6032.03271c-27.75024-42.75-41.25049-92.25049-45.75049-173.25146
			c-5.25-87.75049,5.25-143.25098,36.75024-192.00146l24.00024-36.75049l12.00024,116.25098
			c8.25,78.75098,9.75,120.75098,4.5,131.25146c-4.5,8.25-6.75,53.25049-5.25,99.75049c1.5,45.75049,0,84.00098-2.25,84.00098
			C3403.33984,6061.2832,3392.83984,6047.7832,3381.58984,6032.03271z"/>
		<path id="path1437" style="fill:#FFFFFF;" d="M3350.8396,5463.52783c-14.25024-5.25-12.00024-19.5,4.5-30
			c11.25-7.5,15-6.75,18.75,1.5c4.50024,12-1.5,33.75-9.75,33C3362.0896,5468.02783,3355.3396,5465.77783,3350.8396,5463.52783z"/>
		<path id="path1439" style="fill:#FFFFFF;" d="M3244.33862,5134.27539c-9.75-9.75049-36.00024-27.00049-57.75049-37.50049
			c-37.50024-18-40.50049-21-40.50049-45.00049v-25.5l38.25049,19.5l38.25024,18.75l19.50024-17.25c10.5-9.75,15.75-12,12.75-6.75
			c-8.25,14.25-4.5,82.50049,4.5,99.75098C3269.08887,5158.27539,3265.33887,5156.77539,3244.33862,5134.27539z"/>
		<path id="path1441" style="fill:#FFFFFF;" d="M1490.07373,5041.27441c0-10.5,1.5-14.25,3.75-9c1.5,4.5,1.5,13.5,0,18.75
			C1491.57373,5055.52441,1490.07373,5051.77441,1490.07373,5041.27441z"/>
		<path id="path1443" style="fill:#FFFFFF;" d="M3416.84009,5003.02393c-5.25-18-22.50024-58.50049-38.25024-89.25049
			c-15.00024-30.75049-47.25049-110.25098-71.25073-176.25146c-57.75049-162.75146-78.00073-198.75195-150.00122-270.75244
			c-62.25049-62.25049-123.00098-102.75098-168.75146-111.75098c-14.25024-2.25-88.50073-21-165.00146-41.25049
			c-76.50049-20.25-147.00122-38.25-157.50122-40.5c-10.50024-2.25,6.75-2.25,37.50024-0.75
			c30.75024,2.25,105.00098,14.25,165.00146,26.25c422.25366,89.25098,609.75513,86.25098,810.00684-12.75
			c135.00122-66.75049,245.2522-204.75171,253.5022-318.00269c9.75-137.25122-139.50122-229.50195-330.75293-203.25171
			c-147.00122,19.5-230.25195,72.75049-254.2522,161.25122c-8.25,33.00024-8.25,39.00049,5.25024,63.75049
			c21.75,40.50049,56.25049,55.50049,116.25098,51.75049c80.25073-5.25,117.75098-33.75024,93.00073-70.50049
			c-9.75-15.75024-16.50024-18.00024-41.25024-15.75024c-23.25024,2.25-29.25049,0-29.25049-9.75
			c0-17.25024,18.75024-30.75024,39.00049-27.75024c43.50024,6,67.50049,96.00073,35.25024,136.50122
			c-24.00024,30.00024-88.50073,46.50049-139.50122,34.50024c-72.00049-15.75024-107.25098-60.00049-107.25098-133.50122
			c0-123.00098,75.00073-208.50171,213.75195-245.25195c52.50049-13.50024,151.50122-15.00024,207.75171-3
			c115.50098,24.75,197.25171,105.00073,212.25195,209.25171c15.75,105.75098-59.25049,263.2522-166.50146,349.50269
			c-53.25049,42.00049-160.50146,94.50098-229.50195,111.00098c-118.50098,29.25049-273.00244,33.00049-408.00342,9.00049
			c-30.00024-5.25049-54.75049-7.50049-54.00049-5.25049c0,2.25049,14.25,15.00049,31.50024,27.00049
			c71.25049,51.75049,130.50098,149.25146,182.25146,296.25244c15.00024,43.50049,43.50049,114.00098,63.00049,157.50146
			c40.50049,88.50049,63.00073,152.25146,58.50049,165.75146C3428.09009,5032.27441,3422.09009,5021.02441,3416.84009,5003.02393z"
			/>
		<path id="path1445" style="fill:#FFFFFF;" d="M1496.82373,5010.52393c-0.75-21.75,30.00024-108.00049,63.75049-175.50146
			c119.2511-243.00195,389.25342-435.00342,708.0061-503.25391c48.00049-10.50049,96.75073-13.50049,195.00171-14.25049
			c114.00098,0,140.25122,2.25,198.75171,18.00049c129.00098,33,252.75195,103.50098,322.50269,182.25146
			c34.50024,39.75049,101.25073,161.25146,101.25073,185.25146c0,6.75-6.75-2.25-15-19.5
			c-50.25049-112.50098-172.50146-219.75195-309.00269-272.25244c-104.25098-40.50049-189.75171-54.75049-321.00269-55.50049
			c-177.00146,0-317.25269,33.00049-474.75403,113.25098c-220.50195,112.50098-375.75317,282.00244-447.75378,491.25439
			C1506.57385,4994.77393,1496.82373,5017.27441,1496.82373,5010.52393z"/>
		<path id="path1447" style="fill:#FFFFFF;" d="M4199.84668,4991.02393c-68.25049-8.25-137.25122-31.5-232.50195-79.50049
			c-139.50122-69.75049-180.00146-84.00098-321.75269-114.75098c-169.50146-36.00049-233.25195-59.25049-296.25244-107.25098
			c-23.25024-18-68.25073-78.00049-68.25073-91.50098c0-3,18.00024,12,39.75049,33.75049
			c38.25024,38.25049,136.50098,94.50098,165.75122,94.50098c15.00024,0,109.50098-42.00049,109.50098-48.75049c0-3-6-3-12.75-0.75
			c-6.75024,3,2.25-8.25,21-24.00049c19.50024-17.25,48.00049-56.25049,69.00073-94.50049
			c46.50024-84.00098,72.00049-111.75098,123.75098-137.25146c38.25024-18.75,50.25049-21,117.75098-21
			c62.25049,0.75,90.75073,5.25,164.25146,26.25c75.75049,21.00049,87.00098,26.25049,71.25049,31.50049
			c-9.75,3.75-25.5,5.25-35.25,3.75c-9.00049-1.5-18.75049,0-21.00024,3c-2.25024,3.75,0.75,6.75,5.99976,6.75
			c5.25,0.75-2.25,7.5-16.5,15c-18.75024,10.50049-34.50024,13.50049-54.00049,10.50049
			c-15.75-2.25049-28.50024-1.50049-28.50024,2.25c0,3.75-26.25024,11.25-57.75049,15.75
			c-78.00049,12-132.75098,39.00049-228.00195,111.75098c-83.25073,63.75049-125.25098,88.50049-174.75146,102.75098l-30.75024,9
			l77.25073,16.5c94.50073,20.25,117.00098,20.25,226.50195,1.5c144.00122-24.75,231.75195-17.25,303.75269,26.25
			c8.25,5.25049,50.25049,30.75049,93.75049,57.75098c93.75098,57.75049,141.00146,78.00049,193.50195,85.50049
			c39,5.25,50.25049,14.25,26.25,20.25c-7.5,2.25-2.25,3.75,11.25,4.5c32.25049,0.75,30.75049,13.50049-3.75,22.50049
			C4367.84814,4991.02393,4265.09717,4999.27393,4199.84668,4991.02393z M4211.09668,4952.77344c0-12.75-42-25.5-86.25049-27
			c-29.25024-1.5-65.25073-9.75-102.75098-24.75c-32.25024-12.75049-58.50049-21.75049-58.50049-20.25049
			c0,5.25,70.50049,38.25049,108.75098,51.75049c21,6.75,59.25049,15,86.25049,18.75c27.00049,3,49.50049,6.00049,51.00049,6.75049
			C4210.34668,4958.02393,4211.09668,4955.77393,4211.09668,4952.77344z M4308.59766,4928.77344c-6-3.75-14.25-7.5-18.75-7.5
			c-3.75,0-2.25,3.75,3.75,7.5s15,7.5,18.75,7.5C4316.84766,4936.27344,4314.59766,4932.52344,4308.59766,4928.77344z
			 M4061.09546,4857.52295c0-6.75-54.00049-26.25049-70.50049-25.50049c-8.25,0.75,3,6.75,25.50024,14.25049
			c22.50024,7.5,42.00024,13.5,43.50024,14.25C4060.34546,4861.27295,4061.09546,4859.77295,4061.09546,4857.52295z
			 M3866.09399,4823.77246c0-3.75-6.00024-7.5-12.75024-7.5c-11.25,0-12,1.5-2.25,7.5
			C3865.34399,4832.77246,3866.09399,4832.77246,3866.09399,4823.77246z M3822.59351,4786.27246l24.75024-15.00049l-41.25049,4.5
			c-56.25024,6-69.00049,11.25049-45.00024,18.00049C3790.34326,4802.77246,3796.34326,4802.02246,3822.59351,4786.27246z
			 M3680.84229,4622.021c19.50024-14.25049,33.75024-27.00049,32.25024-28.50049c-9-9-43.50024,10.5-65.25049,36.75049
			C3622.3418,4663.271,3626.0918,4661.771,3680.84229,4622.021z M3716.09253,4538.77002c4.5-8.25,6.00024-15,4.5-15
			c-2.25,0-7.5,6.75-12,15s-6,15.00049-4.5,15.00049C3706.34253,4553.77051,3711.59253,4547.02002,3716.09253,4538.77002z"/>
		<path id="path1449" style="fill:#FFFFFF;" d="M4811.10205,4736.02197c-39.75049-7.5-93.00098-9.75-180.00146-7.5
			c-153.00146,3.75-231.00195-3.75049-301.50293-28.50049c-124.50098-43.50049-168.75146-51.75049-279.7522-51.75049
			c-102.00098,0-122.25098,3-247.5022,37.50049c-12,3-12.75,2.25-3.75-3.75
			c20.25024-15.00049,168.00146-59.25049,226.50195-68.25049c47.25049-7.50049,69.75073-7.50049,120.00098,0.75
			c34.50049,6,66.00049,9.75,69.75049,9.75c4.5-0.75,45.00049-9,90.00098-18.00049c156.00146-32.25,319.50244-21,438.00391,28.50049
			c84.00049,36.00049,151.50098,86.25049,83.25049,63.00049c-34.50049-12.75-21,0.75,21.75,21
			c21.00049,9.75049,38.25049,20.25049,38.25049,24.00049C4886.10254,4750.27197,4883.10254,4749.52197,4811.10205,4736.02197z
			 M4688.85107,4647.521c-40.50049-15-134.25146-33.75-164.25146-33c-18.75049,0-14.25,3,20.25,10.5
			c24.75049,5.25,62.25049,15,82.50098,21c21,6.75,49.5,12,63.75049,12h26.25L4688.85107,4647.521z M4334.84766,4633.271
			c8.25049-3,21.75049-9,30.00049-12.75c13.5-6,12.75-6.75-3.75-3.75c-10.5,1.5-41.25049,6-69.00049,8.25
			c-27.75049,3-49.50049,7.5-48.00049,10.5C4248.59717,4642.271,4316.09766,4640.771,4334.84766,4633.271z"/>
		<path id="path1455" style="fill:#FFFFFF;" d="M5058.604,4614.521c-82.50049-27.00049-136.50098-95.25098-138.00098-174.00146
			c-1.5-103.50098,94.50049-153.00146,197.25146-100.50098c49.50049,24.75,120.75098,90.00049,120.75098,111.00098
			c0,12.75-4.5,10.5-30-12c-48.75049-45.00049-87.00098-60.75098-144.00146-60.00098
			c-55.50049,0-92.25049,16.50049-110.25098,48.00049c-9.75,17.25049-9,22.50049,3.75,48.75049
			c18.00049,36.75049,52.50049,60.00049,106.50098,71.25049c116.25098,24.00049,231.00195-24.75,272.25244-116.25098
			c46.50049-103.50049-27.75049-226.50195-181.50146-300.75244c-131.25146-63.00049-288.00244-91.50073-471.75391-84.00073
			c-124.50146,4.5-205.50195,18.75024-298.50293,51.00073c-110.25098,39-147.75098,63.00049-251.25195,162.75098
			c-82.50073,78.75098-117.75098,105.00098-117.75098,87.00098c0-6.75,89.25049-116.25098,130.50098-159.00146
			c75.00049-79.50049,207.75195-152.25122,338.25293-186.00146c100.50098-27.00024,315.00293-33.75024,426.75342-15.00024
			c262.50244,45.00049,420.75391,160.50122,454.50391,333.00269c5.25049,25.50049,7.50049,63.75098,5.25049,84.00098
			c-13.50049,111.75098-123.75146,208.50195-244.50244,214.50195C5099.85449,4619.771,5069.104,4618.271,5058.604,4614.521z"/>
	</g>
</g>
</svg>
