<?xml version="1.0" encoding="utf-8"?>
<!-- Generator: Adobe Illustrator 27.6.0, SVG Export Plug-In . SVG Version: 6.00 Build 0)  -->
<svg version="1.1"
	 id="svg28" xmlns:inkscape="http://www.inkscape.org/namespaces/inkscape" xmlns:svg="http://www.w3.org/2000/svg" xmlns:rdf="http://www.w3.org/1999/02/22-rdf-syntax-ns#" xmlns:dc="http://purl.org/dc/elements/1.1/" xmlns:sodipodi="http://sodipodi.sourceforge.net/DTD/sodipodi-0.dtd" xmlns:cc="http://creativecommons.org/ns#" inkscape:version="1.0.2 (e86c8708, 2021-01-15)" sodipodi:docname="Custom.svg"
	 xmlns="http://www.w3.org/2000/svg" xmlns:xlink="http://www.w3.org/1999/xlink" x="0px" y="0px" width="171.77951px"
	 height="364.25201px" viewBox="0 0 171.77951 364.25201" style="enable-background:new 0 0 171.77951 364.25201;"
	 xml:space="preserve">
<sodipodi:namedview  bordercolor="#666666" borderopacity="1" gridtolerance="10" guidetolerance="10" id="namedview30" inkscape:current-layer="g36" inkscape:cx="96.345594" inkscape:cy="255.29791" inkscape:document-rotation="0" inkscape:document-units="mm" inkscape:pageopacity="0" inkscape:pageshadow="2" inkscape:window-height="841" inkscape:window-maximized="0" inkscape:window-width="1260" inkscape:window-x="0" inkscape:window-y="23" inkscape:zoom="1.3972642" objecttolerance="10" pagecolor="#ffffff" showgrid="false" units="mm">
	</sodipodi:namedview>
<g id="g36" transform="matrix(1.3333333,0,0,-1.3333333,0,485.66933)" inkscape:groupmode="layer" inkscape:label="panel">
	<g id="g1461" transform="matrix(0.02540621,0,0,0.02540621,-4.9350088,5.1371116)">
		<path id="path1407" d="M3136.33765,8006.7998c-8.25-8.25-6-62.25049,2.25-78.75098c4.5-7.5,15.75024-14.25,25.50024-14.25
			c16.50024,0,18.00024-3,18.75024-44.25049c0.75-81.00049,57.75049-320.25244,104.25073-439.50342
			c16.50024-41.25049,31.50024-81.75098,33.75049-90.00098c3-14.25,3.75-14.25,4.5,0.75
			c1.5,23.25-30.75024,142.50146-66.00073,244.50195c-49.50024,144.00146-61.50049,198.00195-66.00049,293.25244
			c-2.25,48.00049-6.75,87.75098-9,87.75098c-3,0-9.75024-4.5-15.00024-9c-9-8.25-9.75-6.75-4.5,5.25
			c11.25024,28.5,8.25,45.00049-7.5,47.25049C3148.33789,8011.2998,3139.33765,8009.7998,3136.33765,8006.7998z"/>
		<path id="path1409" d="M2898.58569,7838.79834c-11.25024-20.25049,0.75-60.75049,27.00024-96.00098
			c12-15,50.25049-57.75049,85.50073-95.25098c35.25024-36.75,85.50073-95.25049,111.00098-129.00098
			c26.25024-34.5,48.75024-62.25049,50.25024-62.25049c7.50024,0-153.00122,217.50195-204.00171,276.00244
			c-49.50024,57.00049-65.25049,84.00049-48.75024,84.00049c3.75,0,10.5-7.5,15-16.5c7.5-16.5,8.25-16.5,8.25,3.75
			C2944.33594,7847.04834,2915.08569,7869.54834,2898.58569,7838.79834z"/>
	</g>
</g>
</svg>
