<?xml version="1.0" encoding="UTF-8" standalone="no"?>
<svg
   xmlns:dc="http://purl.org/dc/elements/1.1/"
   xmlns:cc="http://creativecommons.org/ns#"
   xmlns:rdf="http://www.w3.org/1999/02/22-rdf-syntax-ns#"
   xmlns:svg="http://www.w3.org/2000/svg"
   xmlns="http://www.w3.org/2000/svg"
   xmlns:sodipodi="http://sodipodi.sourceforge.net/DTD/sodipodi-0.dtd"
   xmlns:inkscape="http://www.inkscape.org/namespaces/inkscape"
   version="1.1"
   id="svg272"
   xml:space="preserve"
   width="60.600166mm"
   height="128.50002mm"
   viewBox="0 0 229.03999 485.66934"
   sodipodi:docname="panel3.svg"
   inkscape:version="1.0.2 (e86c8708, 2021-01-15)"><metadata
     id="metadata278"><rdf:RDF><cc:Work
         rdf:about=""><dc:format>image/svg+xml</dc:format><dc:type
           rdf:resource="http://purl.org/dc/dcmitype/StillImage" /><dc:title></dc:title></cc:Work></rdf:RDF></metadata><defs
     id="defs276"><clipPath
       clipPathUnits="userSpaceOnUse"
       id="clipPath288"><path
         d="M 0,364.252 H 171.78 V 0 H 0 Z"
         id="path286" /></clipPath></defs><sodipodi:namedview
     pagecolor="#ffffff"
     bordercolor="#666666"
     borderopacity="1"
     objecttolerance="10"
     gridtolerance="10"
     guidetolerance="10"
     inkscape:pageopacity="0"
     inkscape:pageshadow="2"
     inkscape:window-width="778"
     inkscape:window-height="480"
     id="namedview274"
     showgrid="false"
     inkscape:document-units="mm"
     units="mm"
     inkscape:zoom="2.0754862"
     inkscape:cx="114.52"
     inkscape:cy="242.83467"
     inkscape:window-x="0"
     inkscape:window-y="23"
     inkscape:window-maximized="0"
     inkscape:current-layer="g280" /><g
     id="g280"
     inkscape:groupmode="layer"
     inkscape:label="faust-flanger-panel3"
     transform="matrix(1.3333333,0,0,-1.3333333,0,485.66933)"><g
       id="g282"><g
         id="g284"
         clip-path="url(#clipPath288)"><g
           id="g290"
           transform="translate(121.9655,194.1586)"><path
             d="m 0,0 c 0,13.15 10.661,23.811 23.811,23.811 13.15,0 23.81,-10.661 23.81,-23.811 0,-13.15 -10.66,-23.809 -23.81,-23.809 C 10.661,-23.809 0,-13.15 0,0"
             style="fill:#ffffff;fill-opacity:1;fill-rule:nonzero;stroke:none"
             id="path292" /></g><g
           id="g294"
           transform="translate(2.454,194.1586)"><path
             d="m 0,0 c 0,13.15 10.661,23.811 23.811,23.811 13.15,0 23.81,-10.661 23.81,-23.811 0,-13.15 -10.66,-23.809 -23.81,-23.809 C 10.661,-23.809 0,-13.15 0,0"
             style="fill:#ffffff;fill-opacity:1;fill-rule:nonzero;stroke:none"
             id="path296" /></g><g
           id="g298"
           transform="translate(75.0698,176.918)"><path
             d="M 0,0 V 5.669 H 1.155 V 1.139 H 3.596 V 0 Z"
             style="fill:#ffffff;fill-opacity:1;fill-rule:nonzero;stroke:none"
             id="path300" /></g><g
           id="g302"
           transform="translate(79.3462,176.918)"><path
             d="M 0,0 V 5.669 H 3.488 V 4.547 H 1.155 V 3.442 H 2.969 V 2.354 H 1.155 V 1.131 H 3.657 V 0 Z"
             style="fill:#ffffff;fill-opacity:1;fill-rule:nonzero;stroke:none"
             id="path304" /></g><g
           id="g306"
           transform="translate(85.2134,176.918)"><path
             d="m 0,0 -1.874,5.669 h 1.277 L 0.65,1.53 1.866,5.669 H 3.09 L 1.217,0 Z"
             style="fill:#ffffff;fill-opacity:1;fill-rule:nonzero;stroke:none"
             id="path308" /></g><g
           id="g310"
           transform="translate(88.8545,176.918)"><path
             d="M 0,0 V 5.669 H 3.488 V 4.547 H 1.155 V 3.442 H 2.969 V 2.354 H 1.155 V 1.131 H 3.657 V 0 Z"
             style="fill:#ffffff;fill-opacity:1;fill-rule:nonzero;stroke:none"
             id="path312" /></g><g
           id="g314"
           transform="translate(93.291,176.918)"><path
             d="M 0,0 V 5.669 H 1.155 V 1.139 H 3.596 V 0 Z"
             style="fill:#ffffff;fill-opacity:1;fill-rule:nonzero;stroke:none"
             id="path316" /></g><g
           id="g318"
           transform="translate(126.5078,106.2129)"><path
             d="m 0,0 h 0.704 c 0.51,0 0.902,0.15 1.178,0.451 0.275,0.3 0.413,0.708 0.413,1.224 0,0.521 -0.127,0.939 -0.383,1.254 C 1.657,3.243 1.255,3.4 0.704,3.4 H 0 Z m -1.155,-1.139 v 5.67 H 0.772 C 1.298,4.531 1.766,4.43 2.177,4.229 2.587,4.028 2.909,3.716 3.145,3.294 3.379,2.872 3.496,2.329 3.496,1.666 3.496,1.043 3.378,0.523 3.141,0.106 2.903,-0.31 2.579,-0.622 2.169,-0.828 1.758,-1.035 1.29,-1.139 0.765,-1.139 Z"
             style="fill:#ffffff;fill-opacity:1;fill-rule:nonzero;stroke:none"
             id="path320" /></g><g
           id="g322"
           transform="translate(130.7988,105.0742)"><path
             d="M 0,0 V 5.67 H 3.488 V 4.548 H 1.155 V 3.442 H 2.969 V 2.354 H 1.155 V 1.131 H 3.657 V 0 Z"
             style="fill:#ffffff;fill-opacity:1;fill-rule:nonzero;stroke:none"
             id="path324" /></g><g
           id="g326"
           transform="translate(135.2363,105.0742)"><path
             d="M 0,0 V 5.67 H 1.155 V 1.139 H 3.596 V 0 Z"
             style="fill:#ffffff;fill-opacity:1;fill-rule:nonzero;stroke:none"
             id="path328" /></g><g
           id="g330"
           transform="translate(141.0498,107.3692)"><path
             d="m 0,0 h 1.255 l -0.62,2.142 z m -1.866,-2.295 1.904,5.67 h 1.278 l 1.867,-5.67 H 1.92 l -0.39,1.301 h -1.798 l -0.389,-1.301 z"
             style="fill:#ffffff;fill-opacity:1;fill-rule:nonzero;stroke:none"
             id="path332" /></g><g
           id="g334"
           transform="translate(145.3262,105.0742)"><path
             d="M 0,0 V 2.371 L -1.79,5.67 h 1.309 L 0.628,3.527 1.706,5.67 H 2.961 L 1.171,2.38 V 0 Z"
             style="fill:#ffffff;fill-opacity:1;fill-rule:nonzero;stroke:none"
             id="path336" /></g><g
           id="g338"
           transform="translate(16.4424,105.0742)"><path
             d="M 0,0 V 5.67 H 3.428 V 4.539 H 1.155 V 3.256 H 2.884 V 2.159 H 1.155 V 0 Z"
             style="fill:#ffffff;fill-opacity:1;fill-rule:nonzero;stroke:none"
             id="path340" /></g><g
           id="g342"
           transform="translate(20.5654,105.0742)"><path
             d="M 0,0 V 5.67 H 3.488 V 4.548 H 1.155 V 3.442 H 2.969 V 2.354 H 1.155 V 1.131 H 3.657 V 0 Z"
             style="fill:#ffffff;fill-opacity:1;fill-rule:nonzero;stroke:none"
             id="path344" /></g><g
           id="g346"
           transform="translate(25.002,105.0742)"><path
             d="M 0,0 V 5.67 H 3.488 V 4.548 H 1.155 V 3.442 H 2.969 V 2.354 H 1.155 V 1.131 H 3.657 V 0 Z"
             style="fill:#ffffff;fill-opacity:1;fill-rule:nonzero;stroke:none"
             id="path348" /></g><g
           id="g350"
           transform="translate(30.5938,106.2129)"><path
             d="m 0,0 h 0.704 c 0.51,0 0.902,0.15 1.178,0.451 0.275,0.3 0.413,0.708 0.413,1.224 0,0.521 -0.127,0.939 -0.383,1.254 C 1.657,3.243 1.255,3.4 0.704,3.4 H 0 Z m -1.155,-1.139 v 5.67 H 0.772 C 1.298,4.531 1.766,4.43 2.177,4.229 2.587,4.028 2.909,3.716 3.145,3.294 3.379,2.872 3.496,2.329 3.496,1.666 3.496,1.043 3.378,0.523 3.141,0.106 2.903,-0.31 2.579,-0.622 2.169,-0.828 1.758,-1.035 1.29,-1.139 0.765,-1.139 Z"
             style="fill:#ffffff;fill-opacity:1;fill-rule:nonzero;stroke:none"
             id="path352" /></g><g
           id="g354"
           transform="translate(36.0098,106.0606)"><path
             d="M 0,0 H 0.749 C 0.861,0 0.985,0.016 1.12,0.047 1.256,0.077 1.372,0.146 1.469,0.25 1.565,0.355 1.614,0.519 1.614,0.739 1.614,0.943 1.566,1.099 1.473,1.207 1.378,1.314 1.263,1.387 1.128,1.424 0.993,1.46 0.866,1.479 0.749,1.479 H 0 Z m 0,2.414 h 0.681 c 0.173,0 0.333,0.046 0.478,0.14 0.145,0.093 0.218,0.259 0.218,0.497 0,0.17 -0.034,0.301 -0.104,0.391 C 1.205,3.533 1.116,3.597 1.01,3.634 0.902,3.67 0.793,3.688 0.681,3.688 H 0 Z m -1.125,-3.4 v 5.67 H 0.788 C 1.211,4.684 1.549,4.613 1.802,4.475 2.054,4.336 2.236,4.154 2.349,3.931 2.46,3.707 2.517,3.465 2.517,3.204 2.517,2.966 2.47,2.762 2.375,2.592 2.28,2.422 2.174,2.29 2.054,2.197 1.934,2.104 1.833,2.045 1.752,2.022 1.792,2.012 1.84,1.994 1.894,1.972 1.946,1.949 2.001,1.924 2.058,1.896 2.267,1.793 2.44,1.635 2.578,1.419 2.716,1.204 2.784,0.943 2.784,0.637 c 0,-0.583 -0.18,-1 -0.539,-1.249 C 1.886,-0.861 1.399,-0.986 0.788,-0.986 Z"
             style="fill:#ffffff;fill-opacity:1;fill-rule:nonzero;stroke:none"
             id="path356" /></g><g
           id="g358"
           transform="translate(40.8369,107.3692)"><path
             d="m 0,0 h 1.255 l -0.62,2.142 z m -1.866,-2.295 1.904,5.67 h 1.278 l 1.867,-5.67 H 1.92 l -0.39,1.301 h -1.798 l -0.389,-1.301 z"
             style="fill:#ffffff;fill-opacity:1;fill-rule:nonzero;stroke:none"
             id="path360" /></g><g
           id="g362"
           transform="translate(48.1582,106.919)"><path
             d="M 0,0 0.788,-0.799 C 0.646,-1.015 0.463,-1.213 0.241,-1.395 0.02,-1.575 -0.229,-1.72 -0.505,-1.828 -0.78,-1.936 -1.076,-1.989 -1.393,-1.989 c -0.514,0 -0.969,0.128 -1.365,0.383 -0.395,0.254 -0.704,0.604 -0.926,1.049 -0.221,0.445 -0.332,0.953 -0.332,1.526 0,0.419 0.064,0.811 0.191,1.177 0.128,0.366 0.307,0.684 0.54,0.957 0.231,0.271 0.51,0.484 0.833,0.637 0.324,0.153 0.682,0.23 1.075,0.23 0.47,0 0.883,-0.097 1.239,-0.289 C 0.22,3.487 0.516,3.21 0.75,2.848 L -0.038,2.006 C -0.191,2.244 -0.372,2.435 -0.581,2.579 -0.79,2.724 -1.04,2.796 -1.331,2.796 -1.637,2.796 -1.9,2.716 -2.123,2.554 -2.345,2.393 -2.516,2.176 -2.636,1.903 -2.755,1.632 -2.815,1.331 -2.815,1.003 c 0,-0.335 0.06,-0.635 0.179,-0.901 0.12,-0.267 0.29,-0.478 0.509,-0.633 0.22,-0.156 0.478,-0.235 0.773,-0.235 0.245,0 0.449,0.037 0.612,0.112 0.163,0.073 0.303,0.168 0.417,0.284 C -0.21,-0.254 -0.102,-0.131 0,0"
             style="fill:#ffffff;fill-opacity:1;fill-rule:nonzero;stroke:none"
             id="path364" /></g><g
           id="g366"
           transform="translate(49.5508,105.0742)"><path
             d="M 0,0 V 5.67 H 1.155 V 3.408 L 2.861,5.67 H 4.2 L 2.448,3.46 4.437,0 h -1.4 L 1.676,2.474 1.155,1.827 V 0 Z"
             style="fill:#ffffff;fill-opacity:1;fill-rule:nonzero;stroke:none"
             id="path368" /></g><path
           d="m 73.162,110.744 h 1.155 v -5.67 h -1.155 z"
           style="fill:#ffffff;fill-opacity:1;fill-rule:nonzero;stroke:none"
           id="path370" /><g
           id="g372"
           transform="translate(75.311,105.0742)"><path
             d="M 0,0 V 5.67 H 1.102 L 3.313,1.989 V 5.67 H 4.452 V 0 H 3.404 L 1.14,3.748 V 0 Z"
             style="fill:#ffffff;fill-opacity:1;fill-rule:nonzero;stroke:none"
             id="path374" /></g><g
           id="g376"
           transform="translate(82.188,105.0742)"><path
             d="m 0,0 -1.874,5.67 h 1.277 L 0.65,1.53 1.866,5.67 H 3.091 L 1.217,0 Z"
             style="fill:#ffffff;fill-opacity:1;fill-rule:nonzero;stroke:none"
             id="path378" /></g><g
           id="g380"
           transform="translate(85.8296,105.0742)"><path
             d="M 0,0 V 5.67 H 3.489 V 4.548 H 1.155 V 3.442 H 2.969 V 2.354 H 1.155 V 1.131 H 3.658 V 0 Z"
             style="fill:#ffffff;fill-opacity:1;fill-rule:nonzero;stroke:none"
             id="path382" /></g><g
           id="g384"
           transform="translate(91.3916,108.1856)"><path
             d="M 0,0 H 0.711 C 0.926,0 1.094,0.07 1.216,0.212 1.339,0.354 1.399,0.532 1.399,0.748 1.399,0.979 1.337,1.164 1.212,1.3 1.087,1.437 0.92,1.504 0.711,1.504 H 0 Z m -1.125,-3.111 v 5.67 H 0.772 C 1.17,2.559 1.502,2.478 1.767,2.316 2.032,2.154 2.23,1.939 2.363,1.67 2.496,1.4 2.563,1.104 2.563,0.781 2.563,0.419 2.49,0.099 2.345,-0.179 2.199,-0.456 1.994,-0.678 1.729,-0.842 L 2.86,-3.111 H 1.591 L 0.643,-1.029 H 0 v -2.082 z"
             style="fill:#ffffff;fill-opacity:1;fill-rule:nonzero;stroke:none"
             id="path386" /></g><g
           id="g388"
           transform="translate(96.0732,105.0742)"><path
             d="M 0,0 V 4.539 H -1.652 V 5.67 H 2.806 V 4.539 H 1.161 V 0 Z"
             style="fill:#ffffff;fill-opacity:1;fill-rule:nonzero;stroke:none"
             id="path390" /></g><g
           id="g392"
           transform="translate(112.5303,75.5264)"><path
             d="m 0,0 c 0.301,0 0.56,0.082 0.776,0.246 0.217,0.165 0.383,0.383 0.497,0.655 0.116,0.272 0.172,0.57 0.172,0.893 0,0.322 -0.056,0.618 -0.172,0.888 C 1.159,2.951 0.993,3.166 0.776,3.328 0.56,3.489 0.301,3.57 0,3.57 -0.301,3.57 -0.56,3.489 -0.776,3.328 -0.993,3.166 -1.16,2.951 -1.277,2.682 -1.396,2.412 -1.454,2.116 -1.454,1.794 -1.454,1.471 -1.396,1.173 -1.277,0.901 -1.16,0.629 -0.993,0.411 -0.776,0.246 -0.56,0.082 -0.301,0 0,0 m 0,-1.207 c -0.378,0 -0.727,0.075 -1.048,0.226 -0.321,0.149 -0.603,0.361 -0.846,0.632 -0.242,0.273 -0.429,0.59 -0.562,0.953 -0.133,0.362 -0.198,0.753 -0.198,1.172 0,0.425 0.065,0.818 0.198,1.178 0.133,0.359 0.319,0.676 0.559,0.947 0.239,0.273 0.521,0.484 0.845,0.634 C -0.729,4.685 -0.378,4.76 0,4.76 0.377,4.76 0.727,4.685 1.048,4.535 1.369,4.385 1.65,4.174 1.894,3.901 2.136,3.63 2.322,3.313 2.455,2.954 2.588,2.594 2.654,2.201 2.654,1.776 2.654,1.357 2.588,0.966 2.455,0.604 2.322,0.241 2.136,-0.076 1.894,-0.349 1.65,-0.62 1.369,-0.832 1.048,-0.981 0.727,-1.132 0.377,-1.207 0,-1.207"
             style="fill:#ffffff;fill-opacity:1;fill-rule:nonzero;stroke:none"
             id="path394" /></g><g
           id="g396"
           transform="translate(115.9414,76.6143)"><path
             d="M 0,0 V 3.52 H 1.163 V 0.161 c 0,-0.368 0.072,-0.665 0.218,-0.891 0.145,-0.228 0.399,-0.341 0.761,-0.341 0.362,0 0.615,0.113 0.757,0.341 0.143,0.226 0.214,0.523 0.214,0.891 V 3.52 H 4.284 V 0 C 4.284,-0.453 4.196,-0.853 4.021,-1.198 3.844,-1.544 3.597,-1.814 3.278,-2.01 2.959,-2.206 2.581,-2.304 2.142,-2.304 1.708,-2.304 1.331,-2.207 1.01,-2.015 0.688,-1.822 0.439,-1.551 0.264,-1.203 0.088,-0.854 0,-0.453 0,0"
             style="fill:#ffffff;fill-opacity:1;fill-rule:nonzero;stroke:none"
             id="path398" /></g><g
           id="g400"
           transform="translate(122.498,74.4639)"><path
             d="M 0,0 V 4.539 H -1.652 V 5.67 H 2.807 V 4.539 H 1.162 V 0 Z"
             style="fill:#ffffff;fill-opacity:1;fill-rule:nonzero;stroke:none"
             id="path402" /></g><g
           id="g404"
           transform="translate(127.0879,77.4981)"><path
             d="M 0,0 H 0.673 C 0.882,0 1.05,0.074 1.178,0.222 1.306,0.368 1.369,0.556 1.369,0.782 1.369,1.021 1.306,1.215 1.178,1.364 1.05,1.515 0.88,1.59 0.665,1.59 H 0 Z m -1.125,-3.034 v 5.67 H 0.734 C 1.157,2.636 1.5,2.549 1.763,2.376 2.025,2.203 2.218,1.978 2.341,1.7 2.463,1.423 2.524,1.125 2.524,0.808 2.524,0.405 2.442,0.066 2.279,-0.208 2.116,-0.482 1.903,-0.689 1.641,-0.828 1.378,-0.968 1.094,-1.037 0.788,-1.037 H 0 v -1.997 z"
             style="fill:#ffffff;fill-opacity:1;fill-rule:nonzero;stroke:none"
             id="path406" /></g><g
           id="g408"
           transform="translate(130.3467,76.6143)"><path
             d="M 0,0 V 3.52 H 1.163 V 0.161 c 0,-0.368 0.072,-0.665 0.218,-0.891 0.145,-0.228 0.399,-0.341 0.761,-0.341 0.362,0 0.615,0.113 0.757,0.341 0.143,0.226 0.214,0.523 0.214,0.891 V 3.52 H 4.284 V 0 C 4.284,-0.453 4.196,-0.853 4.021,-1.198 3.844,-1.544 3.597,-1.814 3.278,-2.01 2.959,-2.206 2.581,-2.304 2.142,-2.304 1.708,-2.304 1.331,-2.207 1.01,-2.015 0.688,-1.822 0.439,-1.551 0.264,-1.203 0.088,-0.854 0,-0.453 0,0"
             style="fill:#ffffff;fill-opacity:1;fill-rule:nonzero;stroke:none"
             id="path410" /></g><g
           id="g412"
           transform="translate(136.9033,74.4639)"><path
             d="M 0,0 V 4.539 H -1.652 V 5.67 H 2.807 V 4.539 H 1.162 V 0 Z"
             style="fill:#ffffff;fill-opacity:1;fill-rule:nonzero;stroke:none"
             id="path414" /></g><path
           d="m 37.496,80.134 h 1.155 v -5.67 h -1.155 z"
           style="fill:#ffffff;fill-opacity:1;fill-rule:nonzero;stroke:none"
           id="path416" /><g
           id="g418"
           transform="translate(39.645,74.4639)"><path
             d="M 0,0 V 5.67 H 1.102 L 3.313,1.989 V 5.67 H 4.452 V 0 H 3.404 L 1.14,3.748 V 0 Z"
             style="fill:#ffffff;fill-opacity:1;fill-rule:nonzero;stroke:none"
             id="path420" /></g><g
           id="g422"
           transform="translate(46.2163,77.4981)"><path
             d="M 0,0 H 0.673 C 0.882,0 1.05,0.074 1.178,0.222 1.306,0.368 1.369,0.556 1.369,0.782 1.369,1.021 1.306,1.215 1.178,1.364 1.05,1.515 0.88,1.59 0.665,1.59 H 0 Z m -1.125,-3.034 v 5.67 H 0.734 C 1.157,2.636 1.5,2.549 1.763,2.376 2.025,2.203 2.218,1.978 2.341,1.7 2.463,1.423 2.524,1.125 2.524,0.808 2.524,0.405 2.442,0.066 2.279,-0.208 2.116,-0.482 1.903,-0.689 1.641,-0.828 1.378,-0.968 1.094,-1.037 0.788,-1.037 H 0 v -1.997 z"
             style="fill:#ffffff;fill-opacity:1;fill-rule:nonzero;stroke:none"
             id="path424" /></g><g
           id="g426"
           transform="translate(49.4751,76.6143)"><path
             d="M 0,0 V 3.52 H 1.163 V 0.161 c 0,-0.368 0.072,-0.665 0.218,-0.891 0.145,-0.228 0.399,-0.341 0.761,-0.341 0.362,0 0.615,0.113 0.757,0.341 0.143,0.226 0.214,0.523 0.214,0.891 V 3.52 H 4.284 V 0 C 4.284,-0.453 4.196,-0.853 4.021,-1.198 3.844,-1.544 3.597,-1.814 3.278,-2.01 2.959,-2.206 2.581,-2.304 2.142,-2.304 1.708,-2.304 1.331,-2.207 1.01,-2.015 0.688,-1.822 0.439,-1.551 0.264,-1.203 0.088,-0.854 0,-0.453 0,0"
             style="fill:#ffffff;fill-opacity:1;fill-rule:nonzero;stroke:none"
             id="path428" /></g><g
           id="g430"
           transform="translate(56.0317,74.4639)"><path
             d="M 0,0 V 4.539 H -1.652 V 5.67 H 2.807 V 4.539 H 1.162 V 0 Z"
             style="fill:#ffffff;fill-opacity:1;fill-rule:nonzero;stroke:none"
             id="path432" /></g><g
           id="g434"
           transform="translate(20.4883,39.8565)"><path
             d="M 0,0 V 5.67 H 1.155 V 1.139 H 3.596 V 0 Z"
             style="fill:#ffffff;fill-opacity:1;fill-rule:nonzero;stroke:none"
             id="path436" /></g><g
           id="g438"
           transform="translate(24.7646,39.8565)"><path
             d="M 0,0 V 5.67 H 3.488 V 4.548 H 1.155 V 3.442 H 2.969 V 2.354 H 1.155 V 1.131 H 3.657 V 0 Z"
             style="fill:#ffffff;fill-opacity:1;fill-rule:nonzero;stroke:none"
             id="path440" /></g><g
           id="g442"
           transform="translate(29.2012,39.8565)"><path
             d="M 0,0 V 5.67 H 3.428 V 4.539 H 1.155 V 3.256 H 2.884 V 2.159 H 1.155 V 0 Z"
             style="fill:#ffffff;fill-opacity:1;fill-rule:nonzero;stroke:none"
             id="path444" /></g><g
           id="g446"
           transform="translate(34.6406,39.8565)"><path
             d="M 0,0 V 4.539 H -1.652 V 5.67 H 2.807 V 4.539 H 1.162 V 0 Z"
             style="fill:#ffffff;fill-opacity:1;fill-rule:nonzero;stroke:none"
             id="path448" /></g><g
           id="g450"
           transform="translate(57.5112,42.9678)"><path
             d="M 0,0 H 0.711 C 0.926,0 1.094,0.07 1.216,0.212 1.339,0.354 1.399,0.532 1.399,0.748 1.399,0.979 1.337,1.164 1.212,1.3 1.087,1.437 0.92,1.504 0.711,1.504 H 0 Z m -1.125,-3.111 v 5.67 H 0.772 C 1.17,2.559 1.502,2.478 1.767,2.316 2.032,2.154 2.23,1.939 2.363,1.67 2.496,1.4 2.563,1.104 2.563,0.781 2.563,0.419 2.49,0.099 2.345,-0.179 2.199,-0.456 1.994,-0.678 1.729,-0.842 L 2.86,-3.111 H 1.591 L 0.643,-1.029 H 0 v -2.082 z"
             style="fill:#ffffff;fill-opacity:1;fill-rule:nonzero;stroke:none"
             id="path452" /></g><path
           d="m 61.03,45.526 h 1.155 v -5.67 H 61.03 Z"
           style="fill:#ffffff;fill-opacity:1;fill-rule:nonzero;stroke:none"
           id="path454" /><g
           id="g456"
           transform="translate(65.8188,41.9385)"><path
             d="M 0,0 V 1.037 H 1.966 V -1.419 C 1.7,-1.668 1.391,-1.864 1.036,-2.006 0.682,-2.147 0.277,-2.218 -0.176,-2.218 c -0.556,0 -1.033,0.126 -1.43,0.378 -0.399,0.252 -0.704,0.601 -0.915,1.046 -0.211,0.444 -0.317,0.956 -0.317,1.534 0,0.425 0.064,0.819 0.191,1.182 0.127,0.362 0.308,0.68 0.543,0.951 0.235,0.273 0.514,0.483 0.837,0.634 0.325,0.15 0.68,0.225 1.068,0.225 0.464,0 0.872,-0.095 1.223,-0.285 C 1.377,3.257 1.665,2.992 1.89,2.652 L 1.109,1.828 C 0.951,2.043 0.772,2.219 0.573,2.354 0.375,2.491 0.133,2.559 -0.153,2.559 -0.465,2.559 -0.73,2.477 -0.953,2.313 -1.175,2.148 -1.344,1.929 -1.461,1.653 -1.579,1.379 -1.638,1.074 -1.638,0.74 c 0,-0.363 0.069,-0.678 0.203,-0.948 0.135,-0.269 0.318,-0.478 0.547,-0.625 0.23,-0.146 0.49,-0.221 0.781,-0.221 0.204,0 0.39,0.028 0.558,0.081 0.168,0.054 0.319,0.14 0.451,0.259 V 0 Z"
             style="fill:#ffffff;fill-opacity:1;fill-rule:nonzero;stroke:none"
             id="path458" /></g><g
           id="g460"
           transform="translate(68.7104,39.8565)"><path
             d="M 0,0 V 5.67 H 1.155 V 3.493 H 3.366 V 5.67 H 4.521 V 0 H 3.366 V 2.329 H 1.155 V 0 Z"
             style="fill:#ffffff;fill-opacity:1;fill-rule:nonzero;stroke:none"
             id="path462" /></g><g
           id="g464"
           transform="translate(75.5425,39.8565)"><path
             d="M 0,0 V 4.539 H -1.652 V 5.67 H 2.807 V 4.539 H 1.162 V 0 Z"
             style="fill:#ffffff;fill-opacity:1;fill-rule:nonzero;stroke:none"
             id="path466" /></g><g
           id="g468"
           transform="translate(97.2881,39.8565)"><path
             d="M 0,0 V 5.67 H 1.155 V 1.139 H 3.596 V 0 Z"
             style="fill:#ffffff;fill-opacity:1;fill-rule:nonzero;stroke:none"
             id="path470" /></g><g
           id="g472"
           transform="translate(101.5645,39.8565)"><path
             d="M 0,0 V 5.67 H 3.488 V 4.548 H 1.155 V 3.442 H 2.969 V 2.354 H 1.155 V 1.131 H 3.657 V 0 Z"
             style="fill:#ffffff;fill-opacity:1;fill-rule:nonzero;stroke:none"
             id="path474" /></g><g
           id="g476"
           transform="translate(106.001,39.8565)"><path
             d="M 0,0 V 5.67 H 3.428 V 4.539 H 1.155 V 3.256 H 2.884 V 2.159 H 1.155 V 0 Z"
             style="fill:#ffffff;fill-opacity:1;fill-rule:nonzero;stroke:none"
             id="path478" /></g><g
           id="g480"
           transform="translate(111.4404,39.8565)"><path
             d="M 0,0 V 4.539 H -1.652 V 5.67 H 2.807 V 4.539 H 1.162 V 0 Z"
             style="fill:#ffffff;fill-opacity:1;fill-rule:nonzero;stroke:none"
             id="path482" /></g><g
           id="g484"
           transform="translate(134.3105,42.9678)"><path
             d="M 0,0 H 0.711 C 0.926,0 1.094,0.07 1.216,0.212 1.339,0.354 1.399,0.532 1.399,0.748 1.399,0.979 1.337,1.164 1.212,1.3 1.087,1.437 0.92,1.504 0.711,1.504 H 0 Z m -1.125,-3.111 v 5.67 H 0.772 C 1.17,2.559 1.502,2.478 1.767,2.316 2.032,2.154 2.23,1.939 2.363,1.67 2.496,1.4 2.563,1.104 2.563,0.781 2.563,0.419 2.49,0.099 2.345,-0.179 2.199,-0.456 1.994,-0.678 1.729,-0.842 L 2.86,-3.111 H 1.591 L 0.643,-1.029 H 0 v -2.082 z"
             style="fill:#ffffff;fill-opacity:1;fill-rule:nonzero;stroke:none"
             id="path486" /></g><path
           d="m 137.829,45.526 h 1.155 v -5.67 h -1.155 z"
           style="fill:#ffffff;fill-opacity:1;fill-rule:nonzero;stroke:none"
           id="path488" /><g
           id="g490"
           transform="translate(142.6182,41.9385)"><path
             d="M 0,0 V 1.037 H 1.966 V -1.419 C 1.7,-1.668 1.391,-1.864 1.036,-2.006 0.682,-2.147 0.277,-2.218 -0.176,-2.218 c -0.556,0 -1.033,0.126 -1.43,0.378 -0.399,0.252 -0.704,0.601 -0.915,1.046 -0.211,0.444 -0.317,0.956 -0.317,1.534 0,0.425 0.064,0.819 0.191,1.182 0.127,0.362 0.308,0.68 0.543,0.951 0.235,0.273 0.514,0.483 0.837,0.634 0.325,0.15 0.68,0.225 1.068,0.225 0.464,0 0.872,-0.095 1.223,-0.285 C 1.377,3.257 1.665,2.992 1.89,2.652 L 1.109,1.828 C 0.951,2.043 0.772,2.219 0.573,2.354 0.375,2.491 0.133,2.559 -0.153,2.559 -0.465,2.559 -0.73,2.477 -0.953,2.313 -1.175,2.148 -1.344,1.929 -1.461,1.653 -1.579,1.379 -1.638,1.074 -1.638,0.74 c 0,-0.363 0.069,-0.678 0.203,-0.948 0.135,-0.269 0.318,-0.478 0.547,-0.625 0.23,-0.146 0.49,-0.221 0.781,-0.221 0.204,0 0.39,0.028 0.558,0.081 0.168,0.054 0.319,0.14 0.451,0.259 V 0 Z"
             style="fill:#ffffff;fill-opacity:1;fill-rule:nonzero;stroke:none"
             id="path492" /></g><g
           id="g494"
           transform="translate(145.5098,39.8565)"><path
             d="M 0,0 V 5.67 H 1.155 V 3.493 H 3.366 V 5.67 H 4.521 V 0 H 3.366 V 2.329 H 1.155 V 0 Z"
             style="fill:#ffffff;fill-opacity:1;fill-rule:nonzero;stroke:none"
             id="path496" /></g><g
           id="g498"
           transform="translate(152.3418,39.8565)"><path
             d="M 0,0 V 4.539 H -1.652 V 5.67 H 2.807 V 4.539 H 1.162 V 0 Z"
             style="fill:#ffffff;fill-opacity:1;fill-rule:nonzero;stroke:none"
             id="path500" /></g><g
           id="g502"
           transform="translate(65.0639,21.3304)"><path
             d="m 0,0 h -4.469 v -2.275 h 3.398 V -4.212 H -4.469 V -8.027 H -6.736 V 1.996 H 0 Z"
             style="fill:#ffffff;fill-opacity:1;fill-rule:nonzero;stroke:none"
             id="path504" /></g><g
           id="g506"
           transform="translate(69.0069,13.3029)"><path
             d="m 0,0 c -0.68,0 -1.231,0.551 -1.231,1.231 0,0.68 0.551,1.231 1.231,1.231 0.68,0 1.231,-0.551 1.231,-1.231 C 1.231,0.551 0.68,0 0,0"
             style="fill:#ffffff;fill-opacity:1;fill-rule:nonzero;stroke:none"
             id="path508" /></g><g
           id="g510"
           transform="translate(73.2425,17.3607)"><path
             d="M 0,0 -1.218,3.786 -2.465,0 -2.528,-0.207 h -2.169 l 2.305,6.173 h 2.509 l 2.259,-6.17 -2.312,-0.005 z"
             style="fill:#ffffff;fill-opacity:1;fill-rule:nonzero;stroke:none"
             id="path512" /></g><g
           id="g514"
           transform="translate(75.187,13.3029)"><path
             d="m 0,0 c -0.68,0 -1.231,0.551 -1.231,1.231 0,0.68 0.551,1.231 1.231,1.231 0.68,0 1.231,-0.551 1.231,-1.231 C 1.231,0.551 0.68,0 0,0"
             style="fill:#ffffff;fill-opacity:1;fill-rule:nonzero;stroke:none"
             id="path516" /></g><g
           id="g518"
           transform="translate(89.0072,17.0331)"><path
             d="m 0,0 c 0,-0.602 -0.098,-1.153 -0.294,-1.655 -0.195,-0.501 -0.477,-0.929 -0.844,-1.284 -0.368,-0.354 -0.812,-0.632 -1.333,-0.833 -0.522,-0.2 -1.103,-0.3 -1.745,-0.3 -0.639,0 -1.218,0.098 -1.738,0.293 -0.519,0.196 -0.961,0.473 -1.324,0.833 -0.364,0.36 -0.643,0.79 -0.838,1.291 -0.195,0.502 -0.293,1.053 -0.293,1.655 v 6.222 h 2.267 V 0.2 c 0,-0.337 0.033,-0.64 0.099,-0.908 0.066,-0.268 0.174,-0.499 0.324,-0.692 0.15,-0.194 0.348,-0.344 0.596,-0.451 0.247,-0.106 0.549,-0.16 0.907,-0.16 0.353,0 0.652,0.054 0.897,0.16 0.245,0.107 0.444,0.257 0.596,0.451 0.152,0.193 0.26,0.424 0.324,0.692 0.063,0.268 0.095,0.571 0.095,0.908 V 6.222 H 0 Z"
             style="fill:#ffffff;fill-opacity:1;fill-rule:nonzero;stroke:none"
             id="path520" /></g><g
           id="g522"
           transform="translate(100.7824,14.915)"><path
             d="m 0,0 c -0.201,-0.38 -0.474,-0.708 -0.82,-0.985 -0.344,-0.278 -0.751,-0.495 -1.218,-0.65 -0.469,-0.156 -0.971,-0.234 -1.51,-0.234 -0.497,0 -0.952,0.047 -1.363,0.142 -0.412,0.094 -0.782,0.218 -1.112,0.373 -0.329,0.155 -0.626,0.332 -0.89,0.53 -0.264,0.198 -0.492,0.402 -0.682,0.61 l 1.46,1.58 c 0.131,-0.142 0.283,-0.287 0.456,-0.435 0.174,-0.147 0.367,-0.282 0.581,-0.402 0.215,-0.12 0.449,-0.218 0.702,-0.291 0.253,-0.074 0.526,-0.111 0.818,-0.111 0.172,0 0.343,0.025 0.512,0.074 0.169,0.049 0.325,0.122 0.467,0.217 0.142,0.096 0.255,0.212 0.339,0.347 0.083,0.135 0.125,0.289 0.125,0.461 0,0.374 -0.181,0.664 -0.541,0.871 -0.361,0.206 -0.933,0.411 -1.719,0.612 -0.38,0.089 -0.731,0.219 -1.053,0.391 -0.323,0.173 -0.6,0.379 -0.833,0.62 -0.233,0.241 -0.412,0.518 -0.542,0.83 -0.127,0.313 -0.192,0.66 -0.192,1.044 0,0.42 0.074,0.815 0.223,1.186 0.148,0.371 0.374,0.698 0.679,0.981 0.304,0.283 0.682,0.507 1.135,0.673 0.453,0.166 0.988,0.249 1.606,0.249 0.51,0 0.962,-0.052 1.356,-0.157 0.394,-0.104 0.728,-0.229 1.002,-0.375 0.274,-0.146 0.5,-0.295 0.676,-0.447 0.177,-0.153 0.309,-0.273 0.397,-0.361 L -1.247,5.897 C -1.36,5.985 -1.489,6.082 -1.633,6.188 -1.778,6.294 -1.939,6.392 -2.118,6.483 -2.297,6.574 -2.496,6.651 -2.713,6.712 -2.931,6.773 -3.161,6.804 -3.401,6.804 -3.562,6.804 -3.721,6.778 -3.876,6.727 -4.03,6.675 -4.17,6.608 -4.295,6.524 -4.42,6.44 -4.521,6.339 -4.597,6.221 -4.673,6.103 -4.711,5.98 -4.711,5.853 -4.711,5.508 -4.53,5.23 -4.166,5.019 -3.803,4.807 -3.306,4.63 -2.672,4.487 -2.3,4.399 -1.936,4.277 -1.581,4.122 -1.227,3.967 -0.91,3.763 -0.631,3.51 -0.352,3.256 -0.127,2.946 0.044,2.58 0.215,2.214 0.301,1.767 0.301,1.241 0.301,0.793 0.2,0.379 0,0"
             style="fill:#ffffff;fill-opacity:1;fill-rule:nonzero;stroke:none"
             id="path524" /></g><g
           id="g526"
           transform="translate(110.2378,21.3304)"><path
             d="M 0,0 V -8.027 H -2.304 V 0 H -5.533 V 1.996 H 3.214 V 0 Z"
             style="fill:#ffffff;fill-opacity:1;fill-rule:nonzero;stroke:none"
             id="path528" /></g><g
           id="g530"
           transform="translate(110.0215,343.5723)"><path
             d="M 0,0 H 1.194 C 1.545,0 1.825,-0.112 2.035,-0.336 2.245,-0.56 2.35,-0.863 2.35,-1.246 2.35,-1.601 2.247,-1.895 2.042,-2.128 1.836,-2.361 1.554,-2.478 1.194,-2.478 H 0 Z m 0,-7.602 v 3.43 h 1.078 l 1.593,-3.43 h 2.132 l -1.901,3.738 c 0.445,0.271 0.789,0.635 1.034,1.092 0.244,0.457 0.366,0.984 0.366,1.582 0,0.532 -0.112,1.02 -0.334,1.463 C 3.745,0.716 3.411,1.071 2.966,1.337 2.521,1.603 1.965,1.736 1.297,1.736 h -3.185 v -9.338 z m -3.198,0 v 1.862 h -4.199 v 2.016 h 3.043 v 1.792 h -3.043 v 1.82 h 3.917 v 1.848 h -5.856 v -9.338 z m -9.477,3.43 v -1.176 c -0.222,-0.196 -0.474,-0.339 -0.758,-0.427 -0.282,-0.089 -0.594,-0.133 -0.937,-0.133 -0.487,0 -0.924,0.121 -1.31,0.364 -0.384,0.243 -0.691,0.586 -0.918,1.029 -0.227,0.443 -0.34,0.964 -0.34,1.561 0,0.551 0.098,1.052 0.295,1.505 0.197,0.452 0.482,0.814 0.854,1.085 0.373,0.271 0.82,0.406 1.342,0.406 0.479,0 0.886,-0.112 1.22,-0.336 0.333,-0.224 0.633,-0.514 0.899,-0.868 l 1.309,1.358 c -0.377,0.56 -0.86,0.996 -1.451,1.309 -0.59,0.312 -1.275,0.469 -2.054,0.469 -0.651,0 -1.247,-0.124 -1.791,-0.371 -0.544,-0.248 -1.013,-0.595 -1.407,-1.043 -0.393,-0.448 -0.697,-0.971 -0.911,-1.568 -0.215,-0.597 -0.321,-1.246 -0.321,-1.946 0,-0.952 0.178,-1.795 0.533,-2.527 0.355,-0.733 0.866,-1.307 1.534,-1.722 0.668,-0.415 1.468,-0.623 2.402,-0.623 0.761,0 1.44,0.117 2.035,0.35 0.595,0.233 1.115,0.555 1.56,0.966 v 4.046 h -3.3 v -1.708 z m -13.175,-3.43 v 6.174 l 3.801,-6.174 h 1.76 v 9.338 h -1.913 v -6.062 l -3.712,6.062 h -1.849 v -9.338 z m -7.114,7.308 1.04,-3.528 h -2.106 z m -2.17,-7.308 0.655,2.142 h 3.018 l 0.654,-2.142 h 2.12 l -3.134,9.338 h -2.144 l -3.198,-9.338 z m -2.619,0 v 1.876 h -4.097 v 7.462 h -1.939 v -9.338 z m -11.018,0 v 3.556 h 2.902 v 1.806 h -2.902 v 2.114 h 3.814 v 1.862 h -5.753 v -9.338 z m 75.097,-82.805 h 0.704 c 0.551,0 0.953,-0.157 1.208,-0.472 0.256,-0.314 0.383,-0.732 0.383,-1.254 0,-0.515 -0.138,-0.924 -0.413,-1.223 -0.275,-0.301 -0.668,-0.452 -1.178,-0.452 h -0.704 z m 0.765,-4.539 c 0.525,0 0.993,0.103 1.404,0.31 0.41,0.206 0.734,0.519 0.972,0.935 0.237,0.417 0.355,0.936 0.355,1.559 0,0.663 -0.117,1.206 -0.351,1.628 -0.236,0.422 -0.558,0.735 -0.968,0.936 -0.411,0.2 -0.879,0.302 -1.404,0.302 h -1.928 v -5.67 z m -2.699,0 v 1.131 H 21.89 v 1.223 h 1.813 v 1.088 H 21.89 v 1.106 h 2.333 v 1.122 h -3.489 v -5.67 z m -4.437,0 v 1.131 h -2.502 v 1.223 h 1.814 v 1.088 h -1.814 v 1.106 h 2.333 v 1.122 h -3.488 v -5.67 z m -6.954,4.624 h 0.665 c 0.215,0 0.385,-0.075 0.513,-0.226 0.128,-0.149 0.191,-0.344 0.191,-0.582 0,-0.226 -0.063,-0.414 -0.191,-0.56 -0.128,-0.148 -0.296,-0.222 -0.505,-0.222 h -0.673 z m 0,-4.624 v 1.997 h 0.788 c 0.306,0 0.59,0.069 0.853,0.209 0.262,0.138 0.475,0.345 0.638,0.62 0.163,0.274 0.245,0.613 0.245,1.015 0,0.318 -0.061,0.616 -0.183,0.893 -0.123,0.277 -0.316,0.503 -0.578,0.676 -0.263,0.173 -0.606,0.26 -1.029,0.26 h -1.859 v -5.67 z m -5.517,0.344 c 0.195,-0.144 0.421,-0.262 0.682,-0.353 0.26,-0.09 0.558,-0.136 0.895,-0.136 0.367,0 0.699,0.076 0.994,0.23 0.296,0.153 0.531,0.362 0.704,0.629 0.174,0.266 0.26,0.569 0.26,0.909 0,0.391 -0.074,0.709 -0.222,0.952 -0.148,0.244 -0.338,0.433 -0.569,0.569 -0.233,0.137 -0.474,0.239 -0.724,0.307 -0.321,0.079 -0.573,0.179 -0.757,0.297 -0.184,0.119 -0.275,0.275 -0.275,0.468 0,0.147 0.07,0.273 0.21,0.378 0.14,0.105 0.292,0.158 0.455,0.158 0.25,0 0.467,-0.062 0.65,-0.184 0.184,-0.121 0.332,-0.23 0.444,-0.327 l 0.665,0.816 c -0.055,0.074 -0.155,0.17 -0.297,0.289 -0.144,0.12 -0.333,0.228 -0.571,0.328 -0.237,0.098 -0.529,0.148 -0.876,0.148 -0.418,0 -0.764,-0.08 -1.04,-0.242 -0.275,-0.161 -0.482,-0.374 -0.62,-0.638 -0.138,-0.263 -0.206,-0.554 -0.206,-0.871 0,-0.431 0.127,-0.782 0.382,-1.054 0.255,-0.272 0.576,-0.462 0.964,-0.569 0.398,-0.108 0.688,-0.222 0.872,-0.34 0.184,-0.119 0.275,-0.284 0.275,-0.493 0,-0.131 -0.037,-0.242 -0.11,-0.336 -0.074,-0.094 -0.167,-0.164 -0.279,-0.213 -0.113,-0.048 -0.228,-0.072 -0.345,-0.072 -0.296,0 -0.555,0.077 -0.776,0.229 -0.222,0.154 -0.399,0.31 -0.532,0.468 l -0.742,-0.892 c 0.133,-0.159 0.296,-0.311 0.489,-0.455 m -70.838,-0.344 v 2.329 h 2.211 v -2.329 h 1.156 v 5.67 h -1.156 v -2.177 h -2.211 v 2.177 h -1.155 v -5.67 z m -3.458,0 v 4.539 h 1.645 v 1.131 h -4.459 v -1.131 h 1.652 v -4.539 z m -5.699,4.624 h 0.665 c 0.215,0 0.385,-0.075 0.513,-0.226 0.128,-0.149 0.191,-0.344 0.191,-0.582 0,-0.226 -0.063,-0.414 -0.191,-0.56 -0.128,-0.148 -0.296,-0.222 -0.505,-0.222 h -0.673 z m 0,-4.624 v 1.997 h 0.788 c 0.306,0 0.59,0.069 0.853,0.209 0.263,0.138 0.475,0.345 0.639,0.62 0.163,0.274 0.245,0.613 0.245,1.015 0,0.318 -0.062,0.616 -0.184,0.893 -0.123,0.277 -0.315,0.503 -0.578,0.676 -0.263,0.173 -0.606,0.26 -1.028,0.26 h -1.86 v -5.67 z m -1.904,0 v 1.131 h -2.502 v 1.223 h 1.813 v 1.088 h -1.813 v 1.106 h 2.333 v 1.122 h -3.488 v -5.67 z m -7.948,4.539 h 0.704 c 0.551,0 0.953,-0.157 1.208,-0.472 0.256,-0.314 0.383,-0.732 0.383,-1.254 0,-0.515 -0.138,-0.924 -0.413,-1.223 -0.276,-0.301 -0.668,-0.452 -1.178,-0.452 h -0.704 z m 0.764,-4.539 c 0.526,0 0.994,0.103 1.405,0.31 0.41,0.206 0.734,0.519 0.971,0.935 0.238,0.417 0.356,0.936 0.356,1.559 0,0.663 -0.117,1.206 -0.352,1.628 -0.235,0.422 -0.557,0.735 -0.968,0.936 -0.411,0.2 -0.878,0.302 -1.404,0.302 h -1.928 v -5.67 z m 34.199,-3.849 -44.694,0.096 43.67,119.306 H 0.105 L 44.671,-98.76 2.725,-98.761 l -1.202,4.006 -24.122,73.22 -23.555,-73.22 z"
             style="fill:#ffffff;fill-opacity:1;fill-rule:nonzero;stroke:none"
             id="path532" /></g></g></g></g></svg>
