<svg version="1.1" xmlns="http://www.w3.org/2000/svg" xmlns:xlink="http://www.w3.org/1999/xlink" stroke-linecap="round" stroke-linejoin="round" stroke-width="0" fill-rule="evenodd" clip-rule="evenodd" id="qgRJ8pSVRmTJltTwI48-_bottom" viewBox="101000 -75000 10000 19000" width="10mm" height="19mm" class="w-100 h-100"><defs><style>.qgRJ8pSVRmTJltTwI48-_fr4 {color: #666666;}
.qgRJ8pSVRmTJltTwI48-_cu {color: #cccccc;}
.qgRJ8pSVRmTJltTwI48-_cf {color: #cc9933;}
.qgRJ8pSVRmTJltTwI48-_sm {color: #004200; opacity: 0.75;}
.qgRJ8pSVRmTJltTwI48-_ss {color: #ffffff;}
.qgRJ8pSVRmTJltTwI48-_sp {color: #999999;}
.qgRJ8pSVRmTJltTwI48-_out {color: #000000;}</style><rect x="-1050" y="-1050" width="2100" height="2100" rx="1050" ry="1050" id="aAHqrG8R7wWIl8uy2sN8_pad-10"/><circle cx="0" cy="0" r="1000" id="aAHqrG8R7wWIl8uy2sN8_pad-11"/><rect x="-1000" y="-1000" width="2000" height="2000" id="aAHqrG8R7wWIl8uy2sN8_pad-12"/><rect x="-850" y="-850" width="1700" height="1700" rx="850" ry="850" id="hypIoZnNbd4hyi7GDU8J_pad-10"/><circle cx="0" cy="0" r="800" id="hypIoZnNbd4hyi7GDU8J_pad-11"/><rect x="-800" y="-800" width="1600" height="1600" id="hypIoZnNbd4hyi7GDU8J_pad-12"/><circle cx="0" cy="0" r="175" id="hypIoZnNbd4hyi7GDU8J_pad-14"/><circle cx="0" cy="0" r="450" id="t805G5v0b-uJSZKo-64d_pad-1"/><circle cx="0" cy="0" r="500" id="t805G5v0b-uJSZKo-64d_pad-2"/><g id="qgRJ8pSVRmTJltTwI48-_bottom_soldermask"><use xlink:href="#aAHqrG8R7wWIl8uy2sN8_pad-10" x="108720" y="-73160"/><use xlink:href="#aAHqrG8R7wWIl8uy2sN8_pad-10" x="106180" y="-73160"/><use xlink:href="#aAHqrG8R7wWIl8uy2sN8_pad-10" x="103640" y="-73160"/><use xlink:href="#aAHqrG8R7wWIl8uy2sN8_pad-11" x="108204" y="-66040"/><use xlink:href="#aAHqrG8R7wWIl8uy2sN8_pad-12" x="106204" y="-66040"/><use xlink:href="#aAHqrG8R7wWIl8uy2sN8_pad-11" x="104204" y="-66040"/><use xlink:href="#aAHqrG8R7wWIl8uy2sN8_pad-10" x="103640" y="-57920"/><use xlink:href="#aAHqrG8R7wWIl8uy2sN8_pad-10" x="106180" y="-57920"/><use xlink:href="#aAHqrG8R7wWIl8uy2sN8_pad-10" x="108720" y="-57920"/></g><g id="qgRJ8pSVRmTJltTwI48-_bottom_copper"><use xlink:href="#hypIoZnNbd4hyi7GDU8J_pad-10" x="108720" y="-73160"/><use xlink:href="#hypIoZnNbd4hyi7GDU8J_pad-10" x="106180" y="-73160"/><use xlink:href="#hypIoZnNbd4hyi7GDU8J_pad-10" x="103640" y="-73160"/><use xlink:href="#hypIoZnNbd4hyi7GDU8J_pad-11" x="108204" y="-66040"/><use xlink:href="#hypIoZnNbd4hyi7GDU8J_pad-12" x="106204" y="-66040"/><use xlink:href="#hypIoZnNbd4hyi7GDU8J_pad-11" x="104204" y="-66040"/><use xlink:href="#hypIoZnNbd4hyi7GDU8J_pad-10" x="103640" y="-57920"/><use xlink:href="#hypIoZnNbd4hyi7GDU8J_pad-10" x="106180" y="-57920"/><use xlink:href="#hypIoZnNbd4hyi7GDU8J_pad-10" x="108720" y="-57920"/><path d="M 102569.375 -56849.375 102241.161 -57340.582 102125.908 -57920 102241.161 -58499.418 102569.375 -58990.625 103060.582 -59318.839 103493.744 -59405 103786.256 -59405 104219.418 -59318.839 104710.625 -58990.625 104923.843 -58671.522 104984.817 -58801.358 105413.076 -59191.645 105823.11 -59361.476 106053 -59240.155 106053 -58047 106033 -58047 106033 -57793 106053 -57793 106053 -57773 106307 -57773 106307 -57793 106327 -57793 106327 -58047 106307 -58047 106307 -59240.155 106536.89 -59361.476 106946.924 -59191.645 107375.183 -58801.358 107436.157 -58671.522 107649.375 -58990.625 108140.582 -59318.839 108573.744 -59405 108866.256 -59405 109299.418 -59318.839 109790.625 -58990.625 110118.839 -58499.418 110234.092 -57920 110118.839 -57340.582 109790.625 -56849.375 109582.036 -56710 110290.001 -56710 110290 -74290 109642.35 -74290 109915.183 -74041.358 110161.486 -73516.892 110040.819 -73287 108847 -73287 108847 -73307 108593 -73307 108593 -73287 106307 -73287 106307 -73307 106053 -73307 106053 -73287 103767 -73287 103767 -73307 103513 -73307 103513 -73287 102319.181 -73287 102198.514 -73516.892 102444.817 -74041.358 102717.65 -74290 101710 -74290 101710 -72803.108 102198.514 -72803.108 102319.181 -73033 103513 -73033 103513 -71839.845 103767 -71839.845 103767 -73033 106053 -73033 106053 -71839.845 106307 -71839.845 106307 -73033 108593 -73033 108593 -71839.845 108847 -71839.845 108847 -73033 110040.819 -73033 110161.486 -72803.108 109915.183 -72278.642 109486.924 -71888.355 109076.89 -71718.524 108847 -71839.845 108593 -71839.845 108363.11 -71718.524 107953.076 -71888.355 107524.817 -72278.642 107450 -72437.954 107375.183 -72278.642 106946.924 -71888.355 106536.89 -71718.524 106307 -71839.845 106053 -71839.845 105823.11 -71718.524 105413.076 -71888.355 104984.817 -72278.642 104910 -72437.954 104835.183 -72278.642 104406.924 -71888.355 103996.89 -71718.524 103767 -71839.845 103513 -71839.845 103283.11 -71718.524 102873.076 -71888.355 102444.817 -72278.642 102198.514 -72803.108 101710 -72803.108 101710 -65754.561 102769 -65754.561 102769 -66325.439 102987.466 -66852.862 103391.138 -67256.534 103918.561 -67475 104489.439 -67475 104950.144 -67284.17 105044.302 -67378.327 105277.691 -67475 105918.25 -67475 106077 -67316.25 106077 -66167 106057 -66167 106057 -65913 106077 -65913 106077 -64763.75 106331 -64763.75 106331 -65913 106351 -65913 106351 -66167 106331 -66167 106331 -67316.25 106489.75 -67475 107130.309 -67475 107363.698 -67378.327 107457.856 -67284.17 107918.561 -67475 108489.439 -67475 109016.862 -67256.534 109420.534 -66852.862 109639 -66325.439 109639 -65754.561 109420.534 -65227.138 109016.862 -64823.466 108489.439 -64605 107918.561 -64605 107457.856 -64795.83 107363.698 -64701.673 107130.309 -64605 106489.75 -64605 106331 -64763.75 106077 -64763.75 105918.25 -64605 105277.691 -64605 105044.302 -64701.673 104950.144 -64795.83 104489.439 -64605 103918.561 -64605 103391.138 -64823.466 102987.466 -65227.138 102769 -65754.561 101710 -65754.561 101710 -56710 102777.964 -56710 102569.375 -56849.375 102569.375 -56849.375"/><path d="M 102569.375 -56849.375 102241.161 -57340.582 102125.908 -57920 102241.161 -58499.418 102569.375 -58990.625 103060.582 -59318.839 103493.744 -59405 103786.256 -59405 104219.418 -59318.839 104710.625 -58990.625 104923.843 -58671.522 104984.817 -58801.358 105413.076 -59191.645 105823.11 -59361.476 106053 -59240.155 106053 -58047 106033 -58047 106033 -57793 106053 -57793 106053 -57773 106307 -57773 106307 -57793 106327 -57793 106327 -58047 106307 -58047 106307 -59240.155 106536.89 -59361.476 106946.924 -59191.645 107375.183 -58801.358 107436.157 -58671.522 107649.375 -58990.625 108140.582 -59318.839 108573.744 -59405 108866.256 -59405 109299.418 -59318.839 109790.625 -58990.625 110118.839 -58499.418 110234.092 -57920 110118.839 -57340.582 109790.625 -56849.375 109582.036 -56710 110290.001 -56710 110290 -74290 109642.35 -74290 109915.183 -74041.358 110161.486 -73516.892 110040.819 -73287 108847 -73287 108847 -73307 108593 -73307 108593 -73287 106307 -73287 106307 -73307 106053 -73307 106053 -73287 103767 -73287 103767 -73307 103513 -73307 103513 -73287 102319.181 -73287 102198.514 -73516.892 102444.817 -74041.358 102717.65 -74290 101710 -74290 101710 -72803.108 102198.514 -72803.108 102319.181 -73033 103513 -73033 103513 -71839.845 103767 -71839.845 103767 -73033 106053 -73033 106053 -71839.845 106307 -71839.845 106307 -73033 108593 -73033 108593 -71839.845 108847 -71839.845 108847 -73033 110040.819 -73033 110161.486 -72803.108 109915.183 -72278.642 109486.924 -71888.355 109076.89 -71718.524 108847 -71839.845 108593 -71839.845 108363.11 -71718.524 107953.076 -71888.355 107524.817 -72278.642 107450 -72437.954 107375.183 -72278.642 106946.924 -71888.355 106536.89 -71718.524 106307 -71839.845 106053 -71839.845 105823.11 -71718.524 105413.076 -71888.355 104984.817 -72278.642 104910 -72437.954 104835.183 -72278.642 104406.924 -71888.355 103996.89 -71718.524 103767 -71839.845 103513 -71839.845 103283.11 -71718.524 102873.076 -71888.355 102444.817 -72278.642 102198.514 -72803.108 101710 -72803.108 101710 -65754.561 102769 -65754.561 102769 -66325.439 102987.466 -66852.862 103391.138 -67256.534 103918.561 -67475 104489.439 -67475 104950.144 -67284.17 105044.302 -67378.327 105277.691 -67475 105918.25 -67475 106077 -67316.25 106077 -66167 106057 -66167 106057 -65913 106077 -65913 106077 -64763.75 106331 -64763.75 106331 -65913 106351 -65913 106351 -66167 106331 -66167 106331 -67316.25 106489.75 -67475 107130.309 -67475 107363.698 -67378.327 107457.856 -67284.17 107918.561 -67475 108489.439 -67475 109016.862 -67256.534 109420.534 -66852.862 109639 -66325.439 109639 -65754.561 109420.534 -65227.138 109016.862 -64823.466 108489.439 -64605 107918.561 -64605 107457.856 -64795.83 107363.698 -64701.673 107130.309 -64605 106489.75 -64605 106331 -64763.75 106077 -64763.75 105918.25 -64605 105277.691 -64605 105044.302 -64701.673 104950.144 -64795.83 104489.439 -64605 103918.561 -64605 103391.138 -64823.466 102987.466 -65227.138 102769 -65754.561 101710 -65754.561 101710 -56710 102777.964 -56710 102569.375 -56849.375" fill="none" stroke-width="254"/><use xlink:href="#hypIoZnNbd4hyi7GDU8J_pad-14" x="108720" y="-73160"/><use xlink:href="#hypIoZnNbd4hyi7GDU8J_pad-14" x="106180" y="-73160"/><use xlink:href="#hypIoZnNbd4hyi7GDU8J_pad-14" x="103640" y="-73160"/><use xlink:href="#hypIoZnNbd4hyi7GDU8J_pad-14" x="108204" y="-66040"/><use xlink:href="#hypIoZnNbd4hyi7GDU8J_pad-14" x="106204" y="-66040"/><use xlink:href="#hypIoZnNbd4hyi7GDU8J_pad-14" x="104204" y="-66040"/><use xlink:href="#hypIoZnNbd4hyi7GDU8J_pad-14" x="103640" y="-57920"/><use xlink:href="#hypIoZnNbd4hyi7GDU8J_pad-14" x="106180" y="-57920"/><use xlink:href="#hypIoZnNbd4hyi7GDU8J_pad-14" x="108720" y="-57920"/></g><g id="qgRJ8pSVRmTJltTwI48-_bottom_drill1"><use xlink:href="#t805G5v0b-uJSZKo-64d_pad-1" x="104204" y="-66040"/><use xlink:href="#t805G5v0b-uJSZKo-64d_pad-1" x="106204" y="-66040"/><use xlink:href="#t805G5v0b-uJSZKo-64d_pad-1" x="108204" y="-66040"/><use xlink:href="#t805G5v0b-uJSZKo-64d_pad-2" x="103640" y="-73160"/><use xlink:href="#t805G5v0b-uJSZKo-64d_pad-2" x="106180" y="-73160"/><use xlink:href="#t805G5v0b-uJSZKo-64d_pad-2" x="108720" y="-73160"/><use xlink:href="#t805G5v0b-uJSZKo-64d_pad-2" x="103640" y="-57920"/><use xlink:href="#t805G5v0b-uJSZKo-64d_pad-2" x="106180" y="-57920"/><use xlink:href="#t805G5v0b-uJSZKo-64d_pad-2" x="108720" y="-57920"/></g><clipPath id="qgRJ8pSVRmTJltTwI48-_bottom_outline"><path d="M 101000 -56000 101000 -75000 111000 -75000 111000 -56000 101000 -56000" fill="none" stroke-width="150"/></clipPath><mask id="qgRJ8pSVRmTJltTwI48-_bottom_mech-mask"><g fill="#000" stroke="#000"><rect x="101000" y="-75000" width="10000" height="19000" fill="#fff"/><use xlink:href="#qgRJ8pSVRmTJltTwI48-_bottom_drill1"/></g></mask><mask id="qgRJ8pSVRmTJltTwI48-_bottom_cf-mask"><g fill="#fff" stroke="#fff"><use xlink:href="#qgRJ8pSVRmTJltTwI48-_bottom_soldermask"/></g></mask><mask id="qgRJ8pSVRmTJltTwI48-_bottom_sm-mask"><g fill="#000" stroke="#000"><rect x="101000" y="-75000" width="10000" height="19000" fill="#fff"/><use xlink:href="#qgRJ8pSVRmTJltTwI48-_bottom_soldermask"/></g></mask></defs><g transform="translate(0,-131000) scale(1,-1)"><g mask="url(#qgRJ8pSVRmTJltTwI48-_bottom_mech-mask)" clip-path="url(#qgRJ8pSVRmTJltTwI48-_bottom_outline)" transform="translate(212000,0) scale(-1,1)"><rect x="101000" y="-75000" width="10000" height="19000" fill="currentColor" class="qgRJ8pSVRmTJltTwI48-_fr4"/><use xlink:href="#qgRJ8pSVRmTJltTwI48-_bottom_copper" fill="currentColor" stroke="currentColor" class="qgRJ8pSVRmTJltTwI48-_cu"/><use xlink:href="#qgRJ8pSVRmTJltTwI48-_bottom_copper" fill="currentColor" stroke="currentColor" class="qgRJ8pSVRmTJltTwI48-_cf" mask="url(#qgRJ8pSVRmTJltTwI48-_bottom_cf-mask)"/><g mask="url(#qgRJ8pSVRmTJltTwI48-_bottom_sm-mask)"><rect x="101000" y="-75000" width="10000" height="19000" fill="currentColor" class="qgRJ8pSVRmTJltTwI48-_sm"/></g></g></g></svg>