<svg version="1.1" xmlns="http://www.w3.org/2000/svg" xmlns:xlink="http://www.w3.org/1999/xlink" stroke-linecap="round" stroke-linejoin="round" stroke-width="0" fill-rule="evenodd" clip-rule="evenodd" id="UIWoGBYVR6z2682zCga-_bottom" viewBox="101000 -82500 17000 35500" width="17mm" height="35.5mm" class="w-100 h-100"><defs><style>.UIWoGBYVR6z2682zCga-_fr4 {color: #666666;}
.UIWoGBYVR6z2682zCga-_cu {color: #cccccc;}
.UIWoGBYVR6z2682zCga-_cf {color: #cc9933;}
.UIWoGBYVR6z2682zCga-_sm {color: #004200; opacity: 0.75;}
.UIWoGBYVR6z2682zCga-_ss {color: #ffffff;}
.UIWoGBYVR6z2682zCga-_sp {color: #999999;}
.UIWoGBYVR6z2682zCga-_out {color: #000000;}</style><rect x="-850" y="-850" width="1700" height="1700" rx="850" ry="850" id="Pjg2NPvnGy41poAy-C7D_pad-10"/><circle cx="0" cy="0" r="950" id="Pjg2NPvnGy41poAy-C7D_pad-11"/><circle cx="0" cy="0" r="175" id="Pjg2NPvnGy41poAy-C7D_pad-14"/><rect x="-1050" y="-1050" width="2100" height="2100" rx="1050" ry="1050" id="iJlODO1QrGlyJ-vRrGYJ_pad-10"/><circle cx="0" cy="0" r="1150" id="iJlODO1QrGlyJ-vRrGYJ_pad-11"/><circle cx="0" cy="0" r="500" id="ALGdSkRK9zdt62PuBWIy_pad-1"/><circle cx="0" cy="0" r="550" id="ALGdSkRK9zdt62PuBWIy_pad-2"/><g id="UIWoGBYVR6z2682zCga-_bottom_copper"><use xlink:href="#Pjg2NPvnGy41poAy-C7D_pad-10" x="116340" y="-73160"/><use xlink:href="#Pjg2NPvnGy41poAy-C7D_pad-10" x="103640" y="-73160"/><use xlink:href="#Pjg2NPvnGy41poAy-C7D_pad-10" x="116340" y="-57920"/><use xlink:href="#Pjg2NPvnGy41poAy-C7D_pad-10" x="103640" y="-57920"/><use xlink:href="#Pjg2NPvnGy41poAy-C7D_pad-11" x="106232" y="-79770"/><use xlink:href="#Pjg2NPvnGy41poAy-C7D_pad-11" x="108732" y="-79770"/><use xlink:href="#Pjg2NPvnGy41poAy-C7D_pad-11" x="111232" y="-79770"/><use xlink:href="#Pjg2NPvnGy41poAy-C7D_pad-11" x="113732" y="-79770"/><use xlink:href="#Pjg2NPvnGy41poAy-C7D_pad-11" x="113732" y="-49770"/><use xlink:href="#Pjg2NPvnGy41poAy-C7D_pad-11" x="108732" y="-49770"/><path d="M 111290 -73160 116340 -73160 M 106232 -78218 111290 -73160 M 106232 -79770 106232 -78218" fill="none" stroke-width="406.4"/><path d="M 115269.375 -74230.625 115571.43 -74432.452 115488.119 -74488.119 115331.195 -74722.972 115276.091 -75000 115290.001 -75069.931 115290 -79360.305 115110.019 -78925.792 114848.35 -78833.255 113911.605 -79770 114848.35 -80706.745 115110.019 -80614.208 115290 -80126.155 115290 -81790 104710 -81790 104710 -80237.371 104888.302 -80667.83 105334.17 -81113.698 105916.724 -81355 106547.276 -81355 107129.83 -81113.698 107357.178 -80886.35 107795.255 -80886.35 107887.792 -81148.019 108479.398 -81366.188 109109.461 -81341.352 109576.208 -81148.019 109668.745 -80886.35 108732 -79949.605 107795.255 -80886.35 107357.178 -80886.35 107557.387 -80686.141 107615.65 -80706.745 108552.395 -79770 108911.605 -79770 109848.35 -80706.745 109906.613 -80686.141 110334.17 -81113.698 110916.724 -81355 111547.276 -81355 112129.83 -81113.698 112357.178 -80886.35 112795.255 -80886.35 112887.792 -81148.019 113479.398 -81366.188 114109.461 -81341.352 114576.208 -81148.019 114668.745 -80886.35 113732 -79949.605 112795.255 -80886.35 112357.178 -80886.35 112557.387 -80686.141 112615.65 -80706.745 113552.395 -79770 112615.65 -78833.255 112557.387 -78853.859 112357.178 -78653.65 112795.255 -78653.65 113732 -79590.395 114668.745 -78653.65 114576.208 -78391.981 113984.602 -78173.812 113354.539 -78198.648 112887.792 -78391.981 112795.255 -78653.65 112357.178 -78653.65 112129.83 -78426.302 111547.276 -78185 110916.724 -78185 110334.17 -78426.302 109906.613 -78853.859 109848.35 -78833.255 108911.605 -79770 108552.395 -79770 107615.65 -78833.255 107557.387 -78853.859 107357.178 -78653.65 107795.255 -78653.65 108732 -79590.395 109668.745 -78653.65 109576.208 -78391.981 108984.602 -78173.812 108354.539 -78198.648 107887.792 -78391.981 107795.255 -78653.65 107357.178 -78653.65 107169.461 -78465.933 111637.194 -73998.2 115114.074 -73998.2 115269.375 -74230.625 115269.375 -74230.625"/><path d="M 115269.375 -74230.625 115571.43 -74432.452 115488.119 -74488.119 115331.195 -74722.972 115276.091 -75000 115290.001 -75069.931 115290 -79360.305 115110.019 -78925.792 114848.35 -78833.255 113911.605 -79770 114848.35 -80706.745 115110.019 -80614.208 115290 -80126.155 115290 -81790 104710 -81790 104710 -80237.371 104888.302 -80667.83 105334.17 -81113.698 105916.724 -81355 106547.276 -81355 107129.83 -81113.698 107357.178 -80886.35 107795.255 -80886.35 107887.792 -81148.019 108479.398 -81366.188 109109.461 -81341.352 109576.208 -81148.019 109668.745 -80886.35 108732 -79949.605 107795.255 -80886.35 107357.178 -80886.35 107557.387 -80686.141 107615.65 -80706.745 108552.395 -79770 108911.605 -79770 109848.35 -80706.745 109906.613 -80686.141 110334.17 -81113.698 110916.724 -81355 111547.276 -81355 112129.83 -81113.698 112357.178 -80886.35 112795.255 -80886.35 112887.792 -81148.019 113479.398 -81366.188 114109.461 -81341.352 114576.208 -81148.019 114668.745 -80886.35 113732 -79949.605 112795.255 -80886.35 112357.178 -80886.35 112557.387 -80686.141 112615.65 -80706.745 113552.395 -79770 112615.65 -78833.255 112557.387 -78853.859 112357.178 -78653.65 112795.255 -78653.65 113732 -79590.395 114668.745 -78653.65 114576.208 -78391.981 113984.602 -78173.812 113354.539 -78198.648 112887.792 -78391.981 112795.255 -78653.65 112357.178 -78653.65 112129.83 -78426.302 111547.276 -78185 110916.724 -78185 110334.17 -78426.302 109906.613 -78853.859 109848.35 -78833.255 108911.605 -79770 108552.395 -79770 107615.65 -78833.255 107557.387 -78853.859 107357.178 -78653.65 107795.255 -78653.65 108732 -79590.395 109668.745 -78653.65 109576.208 -78391.981 108984.602 -78173.812 108354.539 -78198.648 107887.792 -78391.981 107795.255 -78653.65 107357.178 -78653.65 107169.461 -78465.933 111637.194 -73998.2 115114.074 -73998.2 115269.375 -74230.625" fill="none" stroke-width="254"/><path d="M 115290 -49389.541 115075.698 -48872.17 114629.83 -48426.302 114047.276 -48185 113416.724 -48185 112834.17 -48426.302 112388.302 -48872.17 112147 -49454.724 112147 -50085.276 112388.302 -50667.83 112834.17 -51113.698 113416.724 -51355 114047.276 -51355 114629.83 -51113.698 115075.698 -50667.83 115290 -50150.459 115290.001 -55930.069 115276.091 -56000 115331.195 -56277.028 115488.119 -56511.881 115631.295 -56607.548 115269.375 -56849.375 114941.161 -57340.582 114825.908 -57920 114941.161 -58499.418 115269.375 -58990.625 115760.582 -59318.839 116193.744 -59405 116486.256 -59405 116919.418 -59318.839 117290.001 -59071.223 117290 -72008.776 116919.418 -71761.161 116486.256 -71675 116193.744 -71675 115760.582 -71761.161 115269.375 -72089.375 115114.074 -72321.8 111372.548 -72321.8 111289.999 -72305.38 111207.45 -72321.8 111207.446 -72321.8 110962.951 -72370.433 110869.245 -72433.045 110755.677 -72508.929 110755.676 -72508.93 110685.692 -72555.692 110638.93 -72625.676 105697.677 -77566.93 105627.693 -77613.692 105580.931 -77683.676 105580.929 -77683.678 105442.434 -77890.951 105377.38 -78218 105393.801 -78300.554 105393.801 -78401.602 105334.17 -78426.302 104888.302 -78872.17 104710 -79302.629 104710 -75069.925 104723.909 -75000 104668.805 -74722.972 104511.881 -74488.119 104398.957 -74412.666 104521.358 -74355.183 104911.645 -73926.924 105081.476 -73516.89 104960.155 -73287 103767 -73287 103767 -73307 103513 -73307 103513 -73287 102319.845 -73287 102198.524 -73516.89 102368.355 -73926.924 102699.239 -74290 101710 -74290 101710 -72803.11 102198.524 -72803.11 102319.845 -73033 103513 -73033 103513 -71839.181 103767 -71839.181 103767 -73033 104960.155 -73033 105081.476 -72803.11 104911.645 -72393.076 104521.358 -71964.817 103996.892 -71718.514 103767 -71839.181 103513 -71839.181 103283.108 -71718.514 102758.642 -71964.817 102368.355 -72393.076 102198.524 -72803.11 101710 -72803.11 101710 -56710 102777.964 -56710 102569.375 -56849.375 102241.161 -57340.582 102125.908 -57920 102241.161 -58499.418 102569.375 -58990.625 103060.582 -59318.839 103493.744 -59405 103786.256 -59405 104219.418 -59318.839 104710.625 -58990.625 105038.839 -58499.418 105154.092 -57920 105038.839 -57340.582 104710.625 -56849.375 104358.705 -56614.23 104511.881 -56511.881 104668.805 -56277.028 104723.909 -56000 104710 -55930.074 104710 -49454.724 107147 -49454.724 107147 -50085.276 107388.302 -50667.83 107834.17 -51113.698 108416.724 -51355 109047.276 -51355 109629.83 -51113.698 110075.698 -50667.83 110317 -50085.276 110317 -49454.724 110075.698 -48872.17 109629.83 -48426.302 109047.276 -48185 108416.724 -48185 107834.17 -48426.302 107388.302 -48872.17 107147 -49454.724 104710 -49454.724 104710 -47710 115290 -47710 115290 -49389.541 115290 -49389.541"/><path d="M 115290 -49389.541 115075.698 -48872.17 114629.83 -48426.302 114047.276 -48185 113416.724 -48185 112834.17 -48426.302 112388.302 -48872.17 112147 -49454.724 112147 -50085.276 112388.302 -50667.83 112834.17 -51113.698 113416.724 -51355 114047.276 -51355 114629.83 -51113.698 115075.698 -50667.83 115290 -50150.459 115290.001 -55930.069 115276.091 -56000 115331.195 -56277.028 115488.119 -56511.881 115631.295 -56607.548 115269.375 -56849.375 114941.161 -57340.582 114825.908 -57920 114941.161 -58499.418 115269.375 -58990.625 115760.582 -59318.839 116193.744 -59405 116486.256 -59405 116919.418 -59318.839 117290.001 -59071.223 117290 -72008.776 116919.418 -71761.161 116486.256 -71675 116193.744 -71675 115760.582 -71761.161 115269.375 -72089.375 115114.074 -72321.8 111372.548 -72321.8 111289.999 -72305.38 111207.45 -72321.8 111207.446 -72321.8 110962.951 -72370.433 110869.245 -72433.045 110755.677 -72508.929 110755.676 -72508.93 110685.692 -72555.692 110638.93 -72625.676 105697.677 -77566.93 105627.693 -77613.692 105580.931 -77683.676 105580.929 -77683.678 105442.434 -77890.951 105377.38 -78218 105393.801 -78300.554 105393.801 -78401.602 105334.17 -78426.302 104888.302 -78872.17 104710 -79302.629 104710 -75069.925 104723.909 -75000 104668.805 -74722.972 104511.881 -74488.119 104398.957 -74412.666 104521.358 -74355.183 104911.645 -73926.924 105081.476 -73516.89 104960.155 -73287 103767 -73287 103767 -73307 103513 -73307 103513 -73287 102319.845 -73287 102198.524 -73516.89 102368.355 -73926.924 102699.239 -74290 101710 -74290 101710 -72803.11 102198.524 -72803.11 102319.845 -73033 103513 -73033 103513 -71839.181 103767 -71839.181 103767 -73033 104960.155 -73033 105081.476 -72803.11 104911.645 -72393.076 104521.358 -71964.817 103996.892 -71718.514 103767 -71839.181 103513 -71839.181 103283.108 -71718.514 102758.642 -71964.817 102368.355 -72393.076 102198.524 -72803.11 101710 -72803.11 101710 -56710 102777.964 -56710 102569.375 -56849.375 102241.161 -57340.582 102125.908 -57920 102241.161 -58499.418 102569.375 -58990.625 103060.582 -59318.839 103493.744 -59405 103786.256 -59405 104219.418 -59318.839 104710.625 -58990.625 105038.839 -58499.418 105154.092 -57920 105038.839 -57340.582 104710.625 -56849.375 104358.705 -56614.23 104511.881 -56511.881 104668.805 -56277.028 104723.909 -56000 104710 -55930.074 104710 -49454.724 107147 -49454.724 107147 -50085.276 107388.302 -50667.83 107834.17 -51113.698 108416.724 -51355 109047.276 -51355 109629.83 -51113.698 110075.698 -50667.83 110317 -50085.276 110317 -49454.724 110075.698 -48872.17 109629.83 -48426.302 109047.276 -48185 108416.724 -48185 107834.17 -48426.302 107388.302 -48872.17 107147 -49454.724 104710 -49454.724 104710 -47710 115290 -47710 115290 -49389.541" fill="none" stroke-width="254"/><use xlink:href="#Pjg2NPvnGy41poAy-C7D_pad-14" x="116340" y="-73160"/><use xlink:href="#Pjg2NPvnGy41poAy-C7D_pad-14" x="103640" y="-73160"/><use xlink:href="#Pjg2NPvnGy41poAy-C7D_pad-14" x="116340" y="-57920"/><use xlink:href="#Pjg2NPvnGy41poAy-C7D_pad-14" x="103640" y="-57920"/><use xlink:href="#Pjg2NPvnGy41poAy-C7D_pad-14" x="106232" y="-79770"/><use xlink:href="#Pjg2NPvnGy41poAy-C7D_pad-14" x="108732" y="-79770"/><use xlink:href="#Pjg2NPvnGy41poAy-C7D_pad-14" x="111232" y="-79770"/><use xlink:href="#Pjg2NPvnGy41poAy-C7D_pad-14" x="113732" y="-79770"/><use xlink:href="#Pjg2NPvnGy41poAy-C7D_pad-14" x="113732" y="-49770"/><use xlink:href="#Pjg2NPvnGy41poAy-C7D_pad-14" x="108732" y="-49770"/></g><g id="UIWoGBYVR6z2682zCga-_bottom_soldermask"><use xlink:href="#iJlODO1QrGlyJ-vRrGYJ_pad-10" x="116340" y="-73160"/><use xlink:href="#iJlODO1QrGlyJ-vRrGYJ_pad-10" x="103640" y="-73160"/><use xlink:href="#iJlODO1QrGlyJ-vRrGYJ_pad-10" x="116340" y="-57920"/><use xlink:href="#iJlODO1QrGlyJ-vRrGYJ_pad-10" x="103640" y="-57920"/><use xlink:href="#iJlODO1QrGlyJ-vRrGYJ_pad-11" x="106232" y="-79770"/><use xlink:href="#iJlODO1QrGlyJ-vRrGYJ_pad-11" x="108732" y="-79770"/><use xlink:href="#iJlODO1QrGlyJ-vRrGYJ_pad-11" x="111232" y="-79770"/><use xlink:href="#iJlODO1QrGlyJ-vRrGYJ_pad-11" x="113732" y="-79770"/><use xlink:href="#iJlODO1QrGlyJ-vRrGYJ_pad-11" x="113732" y="-49770"/><use xlink:href="#iJlODO1QrGlyJ-vRrGYJ_pad-11" x="108732" y="-49770"/></g><g id="UIWoGBYVR6z2682zCga-_bottom_drill1"><use xlink:href="#ALGdSkRK9zdt62PuBWIy_pad-1" x="116340" y="-73160"/><use xlink:href="#ALGdSkRK9zdt62PuBWIy_pad-1" x="116340" y="-57920"/><use xlink:href="#ALGdSkRK9zdt62PuBWIy_pad-1" x="103640" y="-73160"/><use xlink:href="#ALGdSkRK9zdt62PuBWIy_pad-1" x="103640" y="-57920"/><use xlink:href="#ALGdSkRK9zdt62PuBWIy_pad-2" x="106232" y="-79770"/><use xlink:href="#ALGdSkRK9zdt62PuBWIy_pad-2" x="108732" y="-49770"/><use xlink:href="#ALGdSkRK9zdt62PuBWIy_pad-2" x="108732" y="-79770"/><use xlink:href="#ALGdSkRK9zdt62PuBWIy_pad-2" x="111232" y="-79770"/><use xlink:href="#ALGdSkRK9zdt62PuBWIy_pad-2" x="113732" y="-49770"/><use xlink:href="#ALGdSkRK9zdt62PuBWIy_pad-2" x="113732" y="-79770"/></g><clipPath id="UIWoGBYVR6z2682zCga-_bottom_outline"><path d="M 116000 -56000 118000 -56000 118000 -75000 116000 -75000 116000 -82500 104000 -82500 104000 -75000 101000 -75000 101000 -56000 104000 -56000 104000 -47000 116000 -47000 116000 -56000" fill="none" stroke-width="150"/></clipPath><mask id="UIWoGBYVR6z2682zCga-_bottom_mech-mask"><g fill="#000" stroke="#000"><rect x="101000" y="-82500" width="17000" height="35500" fill="#fff"/><use xlink:href="#UIWoGBYVR6z2682zCga-_bottom_drill1"/></g></mask><mask id="UIWoGBYVR6z2682zCga-_bottom_cf-mask"><g fill="#fff" stroke="#fff"><use xlink:href="#UIWoGBYVR6z2682zCga-_bottom_soldermask"/></g></mask><mask id="UIWoGBYVR6z2682zCga-_bottom_sm-mask"><g fill="#000" stroke="#000"><rect x="101000" y="-82500" width="17000" height="35500" fill="#fff"/><use xlink:href="#UIWoGBYVR6z2682zCga-_bottom_soldermask"/></g></mask></defs><g transform="translate(0,-129500) scale(1,-1)"><g mask="url(#UIWoGBYVR6z2682zCga-_bottom_mech-mask)" clip-path="url(#UIWoGBYVR6z2682zCga-_bottom_outline)" transform="translate(219000,0) scale(-1,1)"><rect x="101000" y="-82500" width="17000" height="35500" fill="currentColor" class="UIWoGBYVR6z2682zCga-_fr4"/><use xlink:href="#UIWoGBYVR6z2682zCga-_bottom_copper" fill="currentColor" stroke="currentColor" class="UIWoGBYVR6z2682zCga-_cu"/><use xlink:href="#UIWoGBYVR6z2682zCga-_bottom_copper" fill="currentColor" stroke="currentColor" class="UIWoGBYVR6z2682zCga-_cf" mask="url(#UIWoGBYVR6z2682zCga-_bottom_cf-mask)"/><g mask="url(#UIWoGBYVR6z2682zCga-_bottom_sm-mask)"><rect x="101000" y="-82500" width="17000" height="35500" fill="currentColor" class="UIWoGBYVR6z2682zCga-_sm"/></g></g></g></svg>