<svg version="1.1" xmlns="http://www.w3.org/2000/svg" xmlns:xlink="http://www.w3.org/1999/xlink" stroke-linecap="round" stroke-linejoin="round" stroke-width="0" fill-rule="evenodd" clip-rule="evenodd" id="_28adNDwkOsF8RD94_qd_top" viewBox="101000 -75000 8000 19000" width="8mm" height="19mm" class="w-100 h-100"><defs><style>._28adNDwkOsF8RD94_qd_fr4 {color: #666666;}
._28adNDwkOsF8RD94_qd_cu {color: #cccccc;}
._28adNDwkOsF8RD94_qd_cf {color: #cc9933;}
._28adNDwkOsF8RD94_qd_sm {color: #004200; opacity: 0.75;}
._28adNDwkOsF8RD94_qd_ss {color: #ffffff;}
._28adNDwkOsF8RD94_qd_sp {color: #999999;}
._28adNDwkOsF8RD94_qd_out {color: #000000;}</style><rect x="-1050" y="-1050" width="2100" height="2100" rx="1050" ry="1050" id="N43nUYm42P-Tk-CSliG7_pad-10"/><rect x="-1100" y="-1100" width="2200" height="2200" id="N43nUYm42P-Tk-CSliG7_pad-11"/><circle cx="0" cy="0" r="1100" id="N43nUYm42P-Tk-CSliG7_pad-12"/><circle cx="0" cy="0" r="637.5" id="N43nUYm42P-Tk-CSliG7_pad-14"/><rect x="-850" y="-850" width="1700" height="1700" rx="850" ry="850" id="to1Nmq3a7v3cQJetldbG_pad-10"/><rect x="-900" y="-900" width="1800" height="1800" id="to1Nmq3a7v3cQJetldbG_pad-11"/><circle cx="0" cy="0" r="900" id="to1Nmq3a7v3cQJetldbG_pad-12"/><circle cx="0" cy="0" r="437.5" id="to1Nmq3a7v3cQJetldbG_pad-14"/><circle cx="0" cy="0" r="175" id="to1Nmq3a7v3cQJetldbG_pad-17"/><circle cx="0" cy="0" r="437.5" id="uo7xaDRD5AqZLoR2hLQ6_pad-11"/><circle cx="0" cy="0" r="450" id="XiTwP9SB9E4NfUFUbnUA_pad-1"/><circle cx="0" cy="0" r="500" id="XiTwP9SB9E4NfUFUbnUA_pad-2"/><g id="_28adNDwkOsF8RD94_qd_top_soldermask"><use xlink:href="#N43nUYm42P-Tk-CSliG7_pad-10" x="106180" y="-73160"/><use xlink:href="#N43nUYm42P-Tk-CSliG7_pad-10" x="103640" y="-73160"/><use xlink:href="#N43nUYm42P-Tk-CSliG7_pad-10" x="103640" y="-57920"/><use xlink:href="#N43nUYm42P-Tk-CSliG7_pad-10" x="106180" y="-57920"/><use xlink:href="#N43nUYm42P-Tk-CSliG7_pad-11" x="106172" y="-64516"/><use xlink:href="#N43nUYm42P-Tk-CSliG7_pad-12" x="103632" y="-64516"/><path d="M 105277.493 -60794.535 105308.435 -60799.125 105338.778 -60806.725 105368.23 -60817.263 105396.508 -60830.638 105423.338 -60846.719 105448.463 -60865.353 105471.64 -60886.36 105492.647 -60909.537 105511.281 -60934.662 105527.362 -60961.492 105540.737 -60989.77 105551.275 -61019.222 105558.875 -61049.565 105563.465 -61080.507 105565 -61111.75 105565 -61824.25 105563.465 -61855.493 105558.875 -61886.435 105551.275 -61916.778 105540.737 -61946.23 105527.362 -61974.508 105511.281 -62001.338 105492.647 -62026.463 105471.64 -62049.64 105448.463 -62070.647 105423.338 -62089.281 105396.508 -62105.362 105368.23 -62118.737 105338.778 -62129.275 105308.435 -62136.875 105277.493 -62141.465 105246.25 -62143 104608.75 -62143 104577.507 -62141.465 104546.565 -62136.875 104516.222 -62129.275 104486.77 -62118.737 104458.492 -62105.362 104431.662 -62089.281 104406.537 -62070.647 104383.36 -62049.64 104362.353 -62026.463 104343.719 -62001.338 104327.638 -61974.508 104314.263 -61946.23 104303.725 -61916.778 104296.125 -61886.435 104291.535 -61855.493 104290 -61824.25 104290 -61111.75 104291.535 -61080.507 104296.125 -61049.565 104303.725 -61019.222 104314.263 -60989.77 104327.638 -60961.492 104343.719 -60934.662 104362.353 -60909.537 104383.36 -60886.36 104406.537 -60865.353 104431.662 -60846.719 104458.492 -60830.638 104486.77 -60817.263 104516.222 -60806.725 104546.565 -60799.125 104577.507 -60794.535 104608.75 -60793 105246.25 -60793 105277.493 -60794.535 105277.493 -60794.535"/><use xlink:href="#N43nUYm42P-Tk-CSliG7_pad-14" x="104927.5" y="-61468"/><path d="M 103702.493 -60794.535 103733.435 -60799.125 103763.778 -60806.725 103793.23 -60817.263 103821.508 -60830.638 103848.338 -60846.719 103873.463 -60865.353 103896.64 -60886.36 103917.647 -60909.537 103936.281 -60934.662 103952.362 -60961.492 103965.737 -60989.77 103976.275 -61019.222 103983.875 -61049.565 103988.465 -61080.507 103990 -61111.75 103990 -61824.25 103988.465 -61855.493 103983.875 -61886.435 103976.275 -61916.778 103965.737 -61946.23 103952.362 -61974.508 103936.281 -62001.338 103917.647 -62026.463 103896.64 -62049.64 103873.463 -62070.647 103848.338 -62089.281 103821.508 -62105.362 103793.23 -62118.737 103763.778 -62129.275 103733.435 -62136.875 103702.493 -62141.465 103671.25 -62143 103033.75 -62143 103002.507 -62141.465 102971.565 -62136.875 102941.222 -62129.275 102911.77 -62118.737 102883.492 -62105.362 102856.662 -62089.281 102831.537 -62070.647 102808.36 -62049.64 102787.353 -62026.463 102768.719 -62001.338 102752.638 -61974.508 102739.263 -61946.23 102728.725 -61916.778 102721.125 -61886.435 102716.535 -61855.493 102715 -61824.25 102715 -61111.75 102716.535 -61080.507 102721.125 -61049.565 102728.725 -61019.222 102739.263 -60989.77 102752.638 -60961.492 102768.719 -60934.662 102787.353 -60909.537 102808.36 -60886.36 102831.537 -60865.353 102856.662 -60846.719 102883.492 -60830.638 102911.77 -60817.263 102941.222 -60806.725 102971.565 -60799.125 103002.507 -60794.535 103033.75 -60793 103671.25 -60793 103702.493 -60794.535 103702.493 -60794.535"/><use xlink:href="#N43nUYm42P-Tk-CSliG7_pad-14" x="103352.5" y="-61468"/></g><g id="_28adNDwkOsF8RD94_qd_top_silkscreen"><path d="M 107188 -71120 107188 -72136 M 106172 -71120 107188 -71120 M 102616 -71120 102616 -72136 M 103632 -71120 102616 -71120 M 103220.952 -60277.38 103220.952 -59277.38 M 103601.904 -60277.38 103601.904 -59277.38 104059.047 -60277.38 104059.047 -59277.38 M 104338.571 -70755 104267.142 -70707.38 104160 -70707.38 104052.857 -70755 103981.428 -70850.238 103945.714 -70945.476 103910 -71135.952 103910 -71278.809 103945.714 -71469.285 103981.428 -71564.523 104052.857 -71659.761 104160 -71707.38 104231.428 -71707.38 104338.571 -71659.761 104374.285 -71612.142 104374.285 -71278.809 104231.428 -71278.809 M 104695.714 -71707.38 104695.714 -70707.38 105124.285 -71707.38 105124.285 -70707.38 M 105481.428 -71707.38 105481.428 -70707.38 105660 -70707.38 105767.142 -70755 105838.571 -70850.238 105874.285 -70945.476 105910 -71135.952 105910 -71278.809 105874.285 -71469.285 105838.571 -71564.523 105767.142 -71659.761 105660 -71707.38 105481.428 -71707.38 M 105570.476 -59325 105494.285 -59277.38 105380 -59277.38 105265.714 -59325 105189.523 -59420.238 105151.428 -59515.476 105113.333 -59705.952 105113.333 -59848.809 105151.428 -60039.285 105189.523 -60134.523 105265.714 -60229.761 105380 -60277.38 105456.19 -60277.38 105570.476 -60229.761 105608.571 -60182.142 105608.571 -59848.809 105456.19 -59848.809 M 105951.428 -60277.38 105951.428 -59277.38 106408.571 -60277.38 106408.571 -59277.38 M 106789.523 -60277.38 106789.523 -59277.38 106980 -59277.38 107094.285 -59325 107170.476 -59420.238 107208.571 -59515.476 107246.666 -59705.952 107246.666 -59848.809 107208.571 -60039.285 107170.476 -60134.523 107094.285 -60229.761 106980 -60277.38 106789.523 -60277.38 M 104545.285 -68207.38 104092.904 -68207.38 104092.904 -67207.38 M 104861.952 -67683.571 105178.619 -67683.571 M 105314.333 -68207.38 104861.952 -68207.38 104861.952 -67207.38 105314.333 -67207.38 M 105721.476 -68207.38 105721.476 -67207.38 105947.666 -67207.38 106083.38 -67255 106173.857 -67350.238 106219.095 -67445.476 106264.333 -67635.952 106264.333 -67778.809 106219.095 -67969.285 106173.857 -68064.523 106083.38 -68159.761 105947.666 -68207.38 105721.476 -68207.38 M 103459.571 -69857.38 103459.571 -69190.714 M 103459.571 -69285.952 103504.809 -69238.333 103595.285 -69190.714 103731 -69190.714 103821.476 -69238.333 103866.714 -69333.571 103866.714 -69857.38 M 103866.714 -69333.571 103911.952 -69238.333 104002.428 -69190.714 104138.142 -69190.714 104228.619 -69238.333 104273.857 -69333.571 104273.857 -69857.38 M 104861.952 -69857.38 104771.476 -69809.761 104726.238 -69762.142 104681 -69666.904 104681 -69381.19 104726.238 -69285.952 104771.476 -69238.333 104861.952 -69190.714 104997.666 -69190.714 105088.142 -69238.333 105133.38 -69285.952 105178.619 -69381.19 105178.619 -69666.904 105133.38 -69762.142 105088.142 -69809.761 104997.666 -69857.38 104861.952 -69857.38 M 105585.761 -69190.714 105585.761 -69857.38 M 105585.761 -69285.952 105631 -69238.333 105721.476 -69190.714 105857.19 -69190.714 105947.666 -69238.333 105992.904 -69333.571 105992.904 -69857.38 M 106581 -69857.38 106490.523 -69809.761 106445.285 -69762.142 106400.047 -69666.904 106400.047 -69381.19 106445.285 -69285.952 106490.523 -69238.333 106581 -69190.714 106716.714 -69190.714 106807.19 -69238.333 106852.428 -69285.952 106897.666 -69381.19 106897.666 -69666.904 106852.428 -69762.142 106807.19 -69809.761 106716.714 -69857.38 106581 -69857.38" fill="none" stroke-width="150"/><path d="M 103229.665 -65594.608 A 1989.9998919 1989.9998919 0 0 1 106462 -65751.516 M 103229.665 -63437.392 A 1989.9998919 1989.9998919 0 0 0 106462 -63280.484 M 103860.87 -65595.837 A 1499.9998745 1499.9998745 0 0 1 105942.961 -65596 M 103860.87 -63436.163 A 1499.9998745 1499.9998745 0 0 0 105942.961 -63436 M 106462 -65752 106462 -65596 M 106462 -63436 106462 -63280 M 104302.779 -61978 103977.221 -61978 M 104302.779 -60958 103977.221 -60958" fill="none" stroke-width="120"/><path d="M 101877.904 -67000.38 101877.904 -66000.38 102116 -66000.38 102258.857 -66048 102354.095 -66143.238 102401.714 -66238.476 102449.333 -66428.952 102449.333 -66571.809 102401.714 -66762.285 102354.095 -66857.523 102258.857 -66952.761 102116 -67000.38 101877.904 -67000.38 M 103401.714 -67000.38 102830.285 -67000.38 M 103116 -67000.38 103116 -66000.38 103020.761 -66143.238 102925.523 -66238.476 102830.285 -66286.095 M 106513.333 -61920.38 106180 -61444.19 M 105941.904 -61920.38 105941.904 -60920.38 106322.857 -60920.38 106418.095 -60968 106465.714 -61015.619 106513.333 -61110.857 106513.333 -61253.714 106465.714 -61348.952 106418.095 -61396.571 106322.857 -61444.19 105941.904 -61444.19 M 107465.714 -61920.38 106894.285 -61920.38 M 107180 -61920.38 107180 -60920.38 107084.761 -61063.238 106989.523 -61158.476 106894.285 -61206.095" fill="none" stroke-width="150"/></g><g id="_28adNDwkOsF8RD94_qd_top_copper"><use xlink:href="#to1Nmq3a7v3cQJetldbG_pad-10" x="106180" y="-73160"/><use xlink:href="#to1Nmq3a7v3cQJetldbG_pad-10" x="103640" y="-73160"/><use xlink:href="#to1Nmq3a7v3cQJetldbG_pad-10" x="103640" y="-57920"/><use xlink:href="#to1Nmq3a7v3cQJetldbG_pad-10" x="106180" y="-57920"/><use xlink:href="#to1Nmq3a7v3cQJetldbG_pad-11" x="106172" y="-64516"/><use xlink:href="#to1Nmq3a7v3cQJetldbG_pad-12" x="103632" y="-64516"/><path d="M 105167.691 -60994.053 105188.926 -60997.203 105209.75 -61002.419 105229.962 -61009.651 105249.368 -61018.83 105267.781 -61029.866 105285.024 -61042.654 105300.93 -61057.07 105315.346 -61072.976 105328.134 -61090.219 105339.17 -61108.632 105348.349 -61128.038 105355.581 -61148.25 105360.797 -61169.074 105363.947 -61190.309 105365 -61211.75 105365 -61724.25 105363.947 -61745.691 105360.797 -61766.926 105355.581 -61787.75 105348.349 -61807.962 105339.17 -61827.368 105328.134 -61845.781 105315.346 -61863.024 105300.93 -61878.93 105285.024 -61893.346 105267.781 -61906.134 105249.368 -61917.17 105229.962 -61926.349 105209.75 -61933.581 105188.926 -61938.797 105167.691 -61941.947 105146.25 -61943 104708.75 -61943 104687.309 -61941.947 104666.074 -61938.797 104645.25 -61933.581 104625.038 -61926.349 104605.632 -61917.17 104587.219 -61906.134 104569.976 -61893.346 104554.07 -61878.93 104539.654 -61863.024 104526.866 -61845.781 104515.83 -61827.368 104506.651 -61807.962 104499.419 -61787.75 104494.203 -61766.926 104491.053 -61745.691 104490 -61724.25 104490 -61211.75 104491.053 -61190.309 104494.203 -61169.074 104499.419 -61148.25 104506.651 -61128.038 104515.83 -61108.632 104526.866 -61090.219 104539.654 -61072.976 104554.07 -61057.07 104569.976 -61042.654 104587.219 -61029.866 104605.632 -61018.83 104625.038 -61009.651 104645.25 -61002.419 104666.074 -60997.203 104687.309 -60994.053 104708.75 -60993 105146.25 -60993 105167.691 -60994.053 105167.691 -60994.053"/><use xlink:href="#to1Nmq3a7v3cQJetldbG_pad-14" x="104927.5" y="-61468"/><path d="M 103592.691 -60994.053 103613.926 -60997.203 103634.75 -61002.419 103654.962 -61009.651 103674.368 -61018.83 103692.781 -61029.866 103710.024 -61042.654 103725.93 -61057.07 103740.346 -61072.976 103753.134 -61090.219 103764.17 -61108.632 103773.349 -61128.038 103780.581 -61148.25 103785.797 -61169.074 103788.947 -61190.309 103790 -61211.75 103790 -61724.25 103788.947 -61745.691 103785.797 -61766.926 103780.581 -61787.75 103773.349 -61807.962 103764.17 -61827.368 103753.134 -61845.781 103740.346 -61863.024 103725.93 -61878.93 103710.024 -61893.346 103692.781 -61906.134 103674.368 -61917.17 103654.962 -61926.349 103634.75 -61933.581 103613.926 -61938.797 103592.691 -61941.947 103571.25 -61943 103133.75 -61943 103112.309 -61941.947 103091.074 -61938.797 103070.25 -61933.581 103050.038 -61926.349 103030.632 -61917.17 103012.219 -61906.134 102994.976 -61893.346 102979.07 -61878.93 102964.654 -61863.024 102951.866 -61845.781 102940.83 -61827.368 102931.651 -61807.962 102924.419 -61787.75 102919.203 -61766.926 102916.053 -61745.691 102915 -61724.25 102915 -61211.75 102916.053 -61190.309 102919.203 -61169.074 102924.419 -61148.25 102931.651 -61128.038 102940.83 -61108.632 102951.866 -61090.219 102964.654 -61072.976 102979.07 -61057.07 102994.976 -61042.654 103012.219 -61029.866 103030.632 -61018.83 103050.038 -61009.651 103070.25 -61002.419 103091.074 -60997.203 103112.309 -60994.053 103133.75 -60993 103571.25 -60993 103592.691 -60994.053 103592.691 -60994.053"/><use xlink:href="#to1Nmq3a7v3cQJetldbG_pad-14" x="103352.5" y="-61468"/><path d="M 104590 -61805.5 104590 -63558 103632 -64516 M 104927.5 -61468 104590 -61805.5 M 103352.5 -58207.5 103640 -57920 M 103352.5 -61468 103352.5 -58207.5" fill="none" stroke-width="406.4"/><path d="M 102569.375 -56849.375 102241.161 -57340.582 102125.908 -57920 102241.161 -58499.418 102514.301 -58908.201 102514.3 -60609.678 102333.495 -60880.273 102267.56 -61211.75 102267.56 -61724.25 102333.495 -62055.727 102521.261 -62336.739 102802.273 -62524.505 103133.75 -62590.44 103571.25 -62590.44 103751.8 -62554.526 103751.801 -62981 103326.67 -62981 102762.493 -63214.69 102330.69 -63646.493 102097 -64210.67 102097 -64821.33 102330.69 -65385.507 102762.493 -65817.31 103326.67 -66051 103937.33 -66051 104501.507 -65817.31 104677.861 -65640.956 104733.673 -65775.699 104912.302 -65954.327 105145.691 -66051 105886.25 -66051 106045 -65892.25 106045 -64643 106299 -64643 106299 -65892.25 106457.75 -66051 107198.309 -66051 107431.698 -65954.327 107610.327 -65775.699 107707 -65542.31 107707 -64801.75 107548.25 -64643 106299 -64643 106045 -64643 106025 -64643 106025 -64389 106045 -64389 106045 -63139.75 106299 -63139.75 106299 -64389 107548.25 -64389 107707 -64230.25 107707 -63489.69 107610.327 -63256.301 107431.698 -63077.673 107198.309 -62981 106457.75 -62981 106299 -63139.75 106045 -63139.75 105886.25 -62981 105428.2 -62981 105428.2 -62534.357 105477.727 -62524.505 105758.739 -62336.739 105946.505 -62055.727 106012.44 -61724.25 106012.44 -61211.75 105946.505 -60880.273 105758.739 -60599.261 105477.727 -60411.495 105146.25 -60345.56 104708.75 -60345.56 104377.273 -60411.495 104190.7 -60536.159 104190.7 -59324.551 104219.418 -59318.839 104710.625 -58990.625 104923.843 -58671.522 104984.817 -58801.358 105413.076 -59191.645 105823.11 -59361.476 106053 -59240.155 106053 -58047 106307 -58047 106307 -59240.155 106536.89 -59361.476 106946.924 -59191.645 107375.183 -58801.358 107621.486 -58276.892 107500.819 -58047 106307 -58047 106053 -58047 106033 -58047 106033 -57793 106053 -57793 106053 -57773 106307 -57773 106307 -57793 107500.819 -57793 107621.486 -57563.108 107375.183 -57038.642 107014.567 -56710 108290.001 -56710 108290 -74290 107102.35 -74290 107375.183 -74041.358 107621.486 -73516.892 107500.819 -73287 106307 -73287 106307 -73307 106053 -73307 106053 -73287 103767 -73287 103767 -73307 103513 -73307 103513 -73287 102319.181 -73287 102198.514 -73516.892 102444.817 -74041.358 102717.65 -74290 101710 -74290 101710 -72803.108 102198.514 -72803.108 102319.181 -73033 103513 -73033 103513 -71839.845 103767 -71839.845 103767 -73033 106053 -73033 106053 -71839.845 106307 -71839.845 106307 -73033 107500.819 -73033 107621.486 -72803.108 107375.183 -72278.642 106946.924 -71888.355 106536.89 -71718.524 106307 -71839.845 106053 -71839.845 105823.11 -71718.524 105413.076 -71888.355 104984.817 -72278.642 104910 -72437.954 104835.183 -72278.642 104406.924 -71888.355 103996.89 -71718.524 103767 -71839.845 103513 -71839.845 103283.11 -71718.524 102873.076 -71888.355 102444.817 -72278.642 102198.514 -72803.108 101710 -72803.108 101710 -56710 102777.964 -56710 102569.375 -56849.375 102569.375 -56849.375"/><path d="M 102569.375 -56849.375 102241.161 -57340.582 102125.908 -57920 102241.161 -58499.418 102514.301 -58908.201 102514.3 -60609.678 102333.495 -60880.273 102267.56 -61211.75 102267.56 -61724.25 102333.495 -62055.727 102521.261 -62336.739 102802.273 -62524.505 103133.75 -62590.44 103571.25 -62590.44 103751.8 -62554.526 103751.801 -62981 103326.67 -62981 102762.493 -63214.69 102330.69 -63646.493 102097 -64210.67 102097 -64821.33 102330.69 -65385.507 102762.493 -65817.31 103326.67 -66051 103937.33 -66051 104501.507 -65817.31 104677.861 -65640.956 104733.673 -65775.699 104912.302 -65954.327 105145.691 -66051 105886.25 -66051 106045 -65892.25 106045 -64643 106299 -64643 106299 -65892.25 106457.75 -66051 107198.309 -66051 107431.698 -65954.327 107610.327 -65775.699 107707 -65542.31 107707 -64801.75 107548.25 -64643 106299 -64643 106045 -64643 106025 -64643 106025 -64389 106045 -64389 106045 -63139.75 106299 -63139.75 106299 -64389 107548.25 -64389 107707 -64230.25 107707 -63489.69 107610.327 -63256.301 107431.698 -63077.673 107198.309 -62981 106457.75 -62981 106299 -63139.75 106045 -63139.75 105886.25 -62981 105428.2 -62981 105428.2 -62534.357 105477.727 -62524.505 105758.739 -62336.739 105946.505 -62055.727 106012.44 -61724.25 106012.44 -61211.75 105946.505 -60880.273 105758.739 -60599.261 105477.727 -60411.495 105146.25 -60345.56 104708.75 -60345.56 104377.273 -60411.495 104190.7 -60536.159 104190.7 -59324.551 104219.418 -59318.839 104710.625 -58990.625 104923.843 -58671.522 104984.817 -58801.358 105413.076 -59191.645 105823.11 -59361.476 106053 -59240.155 106053 -58047 106307 -58047 106307 -59240.155 106536.89 -59361.476 106946.924 -59191.645 107375.183 -58801.358 107621.486 -58276.892 107500.819 -58047 106307 -58047 106053 -58047 106033 -58047 106033 -57793 106053 -57793 106053 -57773 106307 -57773 106307 -57793 107500.819 -57793 107621.486 -57563.108 107375.183 -57038.642 107014.567 -56710 108290.001 -56710 108290 -74290 107102.35 -74290 107375.183 -74041.358 107621.486 -73516.892 107500.819 -73287 106307 -73287 106307 -73307 106053 -73307 106053 -73287 103767 -73287 103767 -73307 103513 -73307 103513 -73287 102319.181 -73287 102198.514 -73516.892 102444.817 -74041.358 102717.65 -74290 101710 -74290 101710 -72803.108 102198.514 -72803.108 102319.181 -73033 103513 -73033 103513 -71839.845 103767 -71839.845 103767 -73033 106053 -73033 106053 -71839.845 106307 -71839.845 106307 -73033 107500.819 -73033 107621.486 -72803.108 107375.183 -72278.642 106946.924 -71888.355 106536.89 -71718.524 106307 -71839.845 106053 -71839.845 105823.11 -71718.524 105413.076 -71888.355 104984.817 -72278.642 104910 -72437.954 104835.183 -72278.642 104406.924 -71888.355 103996.89 -71718.524 103767 -71839.845 103513 -71839.845 103283.11 -71718.524 102873.076 -71888.355 102444.817 -72278.642 102198.514 -72803.108 101710 -72803.108 101710 -56710 102777.964 -56710 102569.375 -56849.375" fill="none" stroke-width="254"/><use xlink:href="#to1Nmq3a7v3cQJetldbG_pad-17" x="106180" y="-73160"/><use xlink:href="#to1Nmq3a7v3cQJetldbG_pad-17" x="103640" y="-73160"/><use xlink:href="#to1Nmq3a7v3cQJetldbG_pad-17" x="103640" y="-57920"/><use xlink:href="#to1Nmq3a7v3cQJetldbG_pad-17" x="106180" y="-57920"/><use xlink:href="#to1Nmq3a7v3cQJetldbG_pad-17" x="106172" y="-64516"/><use xlink:href="#to1Nmq3a7v3cQJetldbG_pad-17" x="103632" y="-64516"/></g><g id="_28adNDwkOsF8RD94_qd_top_solderpaste"><path d="M 105167.691 -60994.053 105188.926 -60997.203 105209.75 -61002.419 105229.962 -61009.651 105249.368 -61018.83 105267.781 -61029.866 105285.024 -61042.654 105300.93 -61057.07 105315.346 -61072.976 105328.134 -61090.219 105339.17 -61108.632 105348.349 -61128.038 105355.581 -61148.25 105360.797 -61169.074 105363.947 -61190.309 105365 -61211.75 105365 -61724.25 105363.947 -61745.691 105360.797 -61766.926 105355.581 -61787.75 105348.349 -61807.962 105339.17 -61827.368 105328.134 -61845.781 105315.346 -61863.024 105300.93 -61878.93 105285.024 -61893.346 105267.781 -61906.134 105249.368 -61917.17 105229.962 -61926.349 105209.75 -61933.581 105188.926 -61938.797 105167.691 -61941.947 105146.25 -61943 104708.75 -61943 104687.309 -61941.947 104666.074 -61938.797 104645.25 -61933.581 104625.038 -61926.349 104605.632 -61917.17 104587.219 -61906.134 104569.976 -61893.346 104554.07 -61878.93 104539.654 -61863.024 104526.866 -61845.781 104515.83 -61827.368 104506.651 -61807.962 104499.419 -61787.75 104494.203 -61766.926 104491.053 -61745.691 104490 -61724.25 104490 -61211.75 104491.053 -61190.309 104494.203 -61169.074 104499.419 -61148.25 104506.651 -61128.038 104515.83 -61108.632 104526.866 -61090.219 104539.654 -61072.976 104554.07 -61057.07 104569.976 -61042.654 104587.219 -61029.866 104605.632 -61018.83 104625.038 -61009.651 104645.25 -61002.419 104666.074 -60997.203 104687.309 -60994.053 104708.75 -60993 105146.25 -60993 105167.691 -60994.053 105167.691 -60994.053"/><use xlink:href="#uo7xaDRD5AqZLoR2hLQ6_pad-11" x="104927.5" y="-61468"/><path d="M 103592.691 -60994.053 103613.926 -60997.203 103634.75 -61002.419 103654.962 -61009.651 103674.368 -61018.83 103692.781 -61029.866 103710.024 -61042.654 103725.93 -61057.07 103740.346 -61072.976 103753.134 -61090.219 103764.17 -61108.632 103773.349 -61128.038 103780.581 -61148.25 103785.797 -61169.074 103788.947 -61190.309 103790 -61211.75 103790 -61724.25 103788.947 -61745.691 103785.797 -61766.926 103780.581 -61787.75 103773.349 -61807.962 103764.17 -61827.368 103753.134 -61845.781 103740.346 -61863.024 103725.93 -61878.93 103710.024 -61893.346 103692.781 -61906.134 103674.368 -61917.17 103654.962 -61926.349 103634.75 -61933.581 103613.926 -61938.797 103592.691 -61941.947 103571.25 -61943 103133.75 -61943 103112.309 -61941.947 103091.074 -61938.797 103070.25 -61933.581 103050.038 -61926.349 103030.632 -61917.17 103012.219 -61906.134 102994.976 -61893.346 102979.07 -61878.93 102964.654 -61863.024 102951.866 -61845.781 102940.83 -61827.368 102931.651 -61807.962 102924.419 -61787.75 102919.203 -61766.926 102916.053 -61745.691 102915 -61724.25 102915 -61211.75 102916.053 -61190.309 102919.203 -61169.074 102924.419 -61148.25 102931.651 -61128.038 102940.83 -61108.632 102951.866 -61090.219 102964.654 -61072.976 102979.07 -61057.07 102994.976 -61042.654 103012.219 -61029.866 103030.632 -61018.83 103050.038 -61009.651 103070.25 -61002.419 103091.074 -60997.203 103112.309 -60994.053 103133.75 -60993 103571.25 -60993 103592.691 -60994.053 103592.691 -60994.053"/><use xlink:href="#uo7xaDRD5AqZLoR2hLQ6_pad-11" x="103352.5" y="-61468"/></g><g id="_28adNDwkOsF8RD94_qd_top_drill1"><use xlink:href="#XiTwP9SB9E4NfUFUbnUA_pad-1" x="103632" y="-64516"/><use xlink:href="#XiTwP9SB9E4NfUFUbnUA_pad-1" x="106172" y="-64516"/><use xlink:href="#XiTwP9SB9E4NfUFUbnUA_pad-2" x="103640" y="-57920"/><use xlink:href="#XiTwP9SB9E4NfUFUbnUA_pad-2" x="106180" y="-57920"/><use xlink:href="#XiTwP9SB9E4NfUFUbnUA_pad-2" x="103640" y="-73160"/><use xlink:href="#XiTwP9SB9E4NfUFUbnUA_pad-2" x="106180" y="-73160"/></g><clipPath id="_28adNDwkOsF8RD94_qd_top_outline"><path d="M 101000 -56000 101000 -75000 109000 -75000 109000 -56000 101000 -56000" fill="none" stroke-width="150"/></clipPath><mask id="_28adNDwkOsF8RD94_qd_top_mech-mask"><g fill="#000" stroke="#000"><rect x="101000" y="-75000" width="8000" height="19000" fill="#fff"/><use xlink:href="#_28adNDwkOsF8RD94_qd_top_drill1"/></g></mask><mask id="_28adNDwkOsF8RD94_qd_top_cf-mask"><g fill="#fff" stroke="#fff"><use xlink:href="#_28adNDwkOsF8RD94_qd_top_soldermask"/></g></mask><mask id="_28adNDwkOsF8RD94_qd_top_sm-mask"><g fill="#000" stroke="#000"><rect x="101000" y="-75000" width="8000" height="19000" fill="#fff"/><use xlink:href="#_28adNDwkOsF8RD94_qd_top_soldermask"/></g></mask></defs><g transform="translate(0,-131000) scale(1,-1)"><g mask="url(#_28adNDwkOsF8RD94_qd_top_mech-mask)" clip-path="url(#_28adNDwkOsF8RD94_qd_top_outline)"><rect x="101000" y="-75000" width="8000" height="19000" fill="currentColor" class="_28adNDwkOsF8RD94_qd_fr4"/><use xlink:href="#_28adNDwkOsF8RD94_qd_top_copper" fill="currentColor" stroke="currentColor" class="_28adNDwkOsF8RD94_qd_cu"/><use xlink:href="#_28adNDwkOsF8RD94_qd_top_copper" fill="currentColor" stroke="currentColor" class="_28adNDwkOsF8RD94_qd_cf" mask="url(#_28adNDwkOsF8RD94_qd_top_cf-mask)"/><g mask="url(#_28adNDwkOsF8RD94_qd_top_sm-mask)"><rect x="101000" y="-75000" width="8000" height="19000" fill="currentColor" class="_28adNDwkOsF8RD94_qd_sm"/><use xlink:href="#_28adNDwkOsF8RD94_qd_top_silkscreen" fill="currentColor" stroke="currentColor" class="_28adNDwkOsF8RD94_qd_ss"/></g><use xlink:href="#_28adNDwkOsF8RD94_qd_top_solderpaste" fill="currentColor" stroke="currentColor" class="_28adNDwkOsF8RD94_qd_sp"/></g></g></svg>