<svg version="1.1" xmlns="http://www.w3.org/2000/svg" xmlns:xlink="http://www.w3.org/1999/xlink" stroke-linecap="round" stroke-linejoin="round" stroke-width="0" fill-rule="evenodd" clip-rule="evenodd" id="VKc239pU5PFAg5FmD6Q0_bottom" viewBox="101000 -75000 22000 19000" width="22mm" height="19mm" class="w-100 h-100"><defs><style>.VKc239pU5PFAg5FmD6Q0_fr4 {color: #666666;}
.VKc239pU5PFAg5FmD6Q0_cu {color: #cccccc;}
.VKc239pU5PFAg5FmD6Q0_cf {color: #cc9933;}
.VKc239pU5PFAg5FmD6Q0_sm {color: #004200; opacity: 0.75;}
.VKc239pU5PFAg5FmD6Q0_ss {color: #ffffff;}
.VKc239pU5PFAg5FmD6Q0_sp {color: #999999;}
.VKc239pU5PFAg5FmD6Q0_out {color: #000000;}</style><rect x="-850" y="-850" width="1700" height="1700" rx="850" ry="850" id="LNwVlLfp5_viU3G8eq_R_pad-10"/><circle cx="0" cy="0" r="342.9" id="LNwVlLfp5_viU3G8eq_R_pad-11"/><circle cx="0" cy="0" r="152.4" id="LNwVlLfp5_viU3G8eq_R_pad-15"/><circle cx="0" cy="0" r="175" id="LNwVlLfp5_viU3G8eq_R_pad-16"/><rect x="-920" y="-920" width="1840" height="1840" rx="920" ry="920" id="y-dn-FPB-nrfBh8KVs0__pad-10"/><circle cx="0" cy="0" r="152.5" id="iwxRzA9nKxHQ-aLOdAMo_pad-1"/><circle cx="0" cy="0" r="500" id="iwxRzA9nKxHQ-aLOdAMo_pad-2"/><g id="VKc239pU5PFAg5FmD6Q0_bottom_copper"><use xlink:href="#LNwVlLfp5_viU3G8eq_R_pad-10" x="103640" y="-73160"/><use xlink:href="#LNwVlLfp5_viU3G8eq_R_pad-10" x="106180" y="-73160"/><use xlink:href="#LNwVlLfp5_viU3G8eq_R_pad-10" x="108720" y="-73160"/><use xlink:href="#LNwVlLfp5_viU3G8eq_R_pad-10" x="111260" y="-73160"/><use xlink:href="#LNwVlLfp5_viU3G8eq_R_pad-10" x="113800" y="-73160"/><use xlink:href="#LNwVlLfp5_viU3G8eq_R_pad-10" x="116340" y="-73160"/><use xlink:href="#LNwVlLfp5_viU3G8eq_R_pad-10" x="118880" y="-73160"/><use xlink:href="#LNwVlLfp5_viU3G8eq_R_pad-10" x="121420" y="-73160"/><use xlink:href="#LNwVlLfp5_viU3G8eq_R_pad-10" x="121420" y="-57920"/><use xlink:href="#LNwVlLfp5_viU3G8eq_R_pad-10" x="118880" y="-57920"/><use xlink:href="#LNwVlLfp5_viU3G8eq_R_pad-10" x="116340" y="-57920"/><use xlink:href="#LNwVlLfp5_viU3G8eq_R_pad-10" x="113800" y="-57920"/><use xlink:href="#LNwVlLfp5_viU3G8eq_R_pad-10" x="111260" y="-57920"/><use xlink:href="#LNwVlLfp5_viU3G8eq_R_pad-10" x="108720" y="-57920"/><use xlink:href="#LNwVlLfp5_viU3G8eq_R_pad-10" x="106180" y="-57920"/><use xlink:href="#LNwVlLfp5_viU3G8eq_R_pad-10" x="103640" y="-57920"/><use xlink:href="#LNwVlLfp5_viU3G8eq_R_pad-11" x="110290" y="-69130"/><use xlink:href="#LNwVlLfp5_viU3G8eq_R_pad-11" x="107900" y="-69300"/><use xlink:href="#LNwVlLfp5_viU3G8eq_R_pad-11" x="109190" y="-69220"/><use xlink:href="#LNwVlLfp5_viU3G8eq_R_pad-11" x="108560" y="-68200"/><use xlink:href="#LNwVlLfp5_viU3G8eq_R_pad-11" x="117870" y="-67958.501"/><use xlink:href="#LNwVlLfp5_viU3G8eq_R_pad-11" x="118860" y="-67308.501"/><use xlink:href="#LNwVlLfp5_viU3G8eq_R_pad-11" x="120860" y="-66140.002"/><use xlink:href="#LNwVlLfp5_viU3G8eq_R_pad-11" x="107930" y="-61400"/><use xlink:href="#LNwVlLfp5_viU3G8eq_R_pad-11" x="107930" y="-62230"/><use xlink:href="#LNwVlLfp5_viU3G8eq_R_pad-11" x="107930" y="-63050"/><path d="M 117870 -67958.501 117870 -59450 116340 -57920 M 119580 -58620 118880 -57920 M 119580 -66588.501 119580 -58620 M 118860 -67308.501 119580 -66588.501 M 121420 -57920 121420 -65580.002 121202.899 -65797.103 120860 -66140.002 M 103640 -59122.081 104567.919 -60050 M 103640 -57920 103640 -59122.081 M 104567.919 -60050 107150 -60050 M 107930 -60830 107930 -61400 M 107150 -60050 107930 -60830 M 107930 -61400 107930 -63050" fill="none" stroke-width="406.4"/><path d="M 102693.368 -56766.525 102486.525 -56973.368 102324.01 -57216.589 102212.068 -57486.842 102155 -57773.74 102155 -58066.26 102212.068 -58353.158 102324.01 -58623.411 102486.525 -58866.632 102693.368 -59073.475 102799.974 -59144.707 102813.929 -59286.396 102861.858 -59444.397 102939.691 -59590.012 102939.692 -59590.013 103044.437 -59717.645 103076.413 -59743.887 103946.11 -60613.585 103972.355 -60645.564 104099.987 -60750.309 104245.602 -60828.142 104403.603 -60876.071 104526.749 -60888.2 104526.756 -60888.2 104567.919 -60892.254 104609.082 -60888.2 106802.807 -60888.2 107001.303 -61086.697 106989.68 -61114.757 106952.1 -61303.685 106952.1 -61496.315 106989.68 -61685.243 107043.427 -61815 106989.68 -61944.757 106952.1 -62133.685 106952.1 -62326.315 106989.68 -62515.243 107041.356 -62640 106989.68 -62764.757 106952.1 -62953.685 106952.1 -63146.315 106989.68 -63335.243 107063.396 -63513.21 107170.415 -63673.375 107306.625 -63809.585 107466.79 -63916.604 107644.757 -63990.32 107833.685 -64027.9 108026.315 -64027.9 108215.243 -63990.32 108393.21 -63916.604 108553.375 -63809.585 108689.585 -63673.375 108796.604 -63513.21 108870.32 -63335.243 108907.9 -63146.315 108907.9 -62953.685 108870.32 -62764.757 108818.644 -62640 108870.32 -62515.243 108907.9 -62326.315 108907.9 -62133.685 108870.32 -61944.757 108816.573 -61815 108870.32 -61685.243 108907.9 -61496.315 108907.9 -61303.685 108870.32 -61114.757 108796.604 -60936.79 108768.2 -60894.28 108768.2 -60871.163 108772.254 -60830 108768.2 -60788.837 108768.2 -60788.83 108756.071 -60665.684 108708.142 -60507.683 108630.309 -60362.068 108525.564 -60234.436 108493.588 -60208.195 107771.811 -59486.418 107745.564 -59454.436 107617.932 -59349.691 107472.317 -59271.858 107314.316 -59223.929 107191.17 -59211.8 107191.163 -59211.8 107150 -59207.746 107108.837 -59211.8 106904.597 -59211.8 106946.92 -59191.641 107180.269 -59017.588 107375.178 -58801.355 107450 -58675.745 107524.822 -58801.355 107719.731 -59017.588 107953.08 -59191.641 108215.901 -59316.825 108363.11 -59361.476 108593 -59240.155 108593 -58047 108847 -58047 108847 -59240.155 109076.89 -59361.476 109224.099 -59316.825 109486.92 -59191.641 109720.269 -59017.588 109915.178 -58801.355 109990 -58675.745 110064.822 -58801.355 110259.731 -59017.588 110493.08 -59191.641 110755.901 -59316.825 110903.11 -59361.476 111133 -59240.155 111133 -58047 108847 -58047 108593 -58047 106307 -58047 106307 -58067 106053 -58067 106053 -58047 106033 -58047 106033 -57793 106053 -57793 106053 -57773 106307 -57773 106307 -57793 108593 -57793 108593 -57773 108847 -57773 108847 -57793 111133 -57793 111133 -57773 111387 -57773 111387 -57793 111407 -57793 111407 -58047 111387 -58047 111387 -59240.155 111616.89 -59361.476 111764.099 -59316.825 112026.92 -59191.641 112260.269 -59017.588 112455.178 -58801.355 112524.805 -58684.466 112646.525 -58866.632 112853.368 -59073.475 113096.589 -59235.99 113366.842 -59347.932 113653.74 -59405 113946.26 -59405 114233.158 -59347.932 114503.411 -59235.99 114746.632 -59073.475 114953.475 -58866.632 115070 -58692.24 115186.525 -58866.632 115393.368 -59073.475 115636.589 -59235.99 115906.842 -59347.932 116193.74 -59405 116486.26 -59405 116614.164 -59379.558 117031.801 -59797.195 117031.8 -67452.781 117003.396 -67495.291 116929.68 -67673.258 116892.1 -67862.186 116892.1 -68054.816 116929.68 -68243.744 117003.396 -68421.711 117110.415 -68581.876 117246.625 -68718.086 117406.79 -68825.105 117584.757 -68898.821 117773.685 -68936.401 117966.315 -68936.401 118155.243 -68898.821 118333.21 -68825.105 118493.375 -68718.086 118629.585 -68581.876 118736.604 -68421.711 118792.651 -68286.401 118956.315 -68286.401 119145.243 -68248.821 119323.21 -68175.105 119483.375 -68068.086 119619.585 -67931.876 119726.604 -67771.711 119800.32 -67593.744 119810.294 -67543.6 120143.588 -67210.307 120175.564 -67184.065 120251.205 -67091.897 120280.309 -67056.433 120330.587 -66962.37 120396.79 -67006.606 120574.757 -67080.322 120763.685 -67117.902 120956.315 -67117.902 121145.243 -67080.322 121323.21 -67006.606 121483.375 -66899.587 121619.585 -66763.377 121726.604 -66603.212 121800.32 -66425.245 121810.294 -66375.101 121983.582 -66201.813 122015.564 -66175.566 122120.309 -66047.934 122198.142 -65902.319 122246.071 -65744.318 122258.2 -65621.172 122258.2 -65621.166 122262.254 -65580.003 122258.2 -65538.84 122258.2 -59145.927 122290.001 -59124.678 122290 -71955.321 122123.411 -71844.01 121853.158 -71732.068 121566.26 -71675 121273.74 -71675 120986.842 -71732.068 120716.589 -71844.01 120473.368 -72006.525 120266.525 -72213.368 120150 -72387.76 120033.475 -72213.368 119826.632 -72006.525 119583.411 -71844.01 119313.158 -71732.068 119026.26 -71675 118733.74 -71675 118446.842 -71732.068 118176.589 -71844.01 117933.368 -72006.525 117726.525 -72213.368 117610 -72387.76 117493.475 -72213.368 117286.632 -72006.525 117043.411 -71844.01 116773.158 -71732.068 116486.26 -71675 116193.74 -71675 115906.842 -71732.068 115636.589 -71844.01 115393.368 -72006.525 115186.525 -72213.368 115070 -72387.76 114953.475 -72213.368 114746.632 -72006.525 114503.411 -71844.01 114233.158 -71732.068 113946.26 -71675 113653.74 -71675 113366.842 -71732.068 113096.589 -71844.01 112853.368 -72006.525 112646.525 -72213.368 112530 -72387.76 112413.475 -72213.368 112206.632 -72006.525 111963.411 -71844.01 111693.158 -71732.068 111406.26 -71675 111113.74 -71675 110826.842 -71732.068 110556.589 -71844.01 110313.368 -72006.525 110106.525 -72213.368 109990 -72387.76 109873.475 -72213.368 109666.632 -72006.525 109423.411 -71844.01 109153.158 -71732.068 108866.26 -71675 108573.74 -71675 108286.842 -71732.068 108016.589 -71844.01 107773.368 -72006.525 107566.525 -72213.368 107450 -72387.76 107333.475 -72213.368 107126.632 -72006.525 106883.411 -71844.01 106613.158 -71732.068 106326.26 -71675 106033.74 -71675 105746.842 -71732.068 105476.589 -71844.01 105233.368 -72006.525 105026.525 -72213.368 104910 -72387.76 104793.475 -72213.368 104586.632 -72006.525 104343.411 -71844.01 104073.158 -71732.068 103786.26 -71675 103493.74 -71675 103206.842 -71732.068 102936.589 -71844.01 102693.368 -72006.525 102486.525 -72213.368 102324.01 -72456.589 102212.068 -72726.842 102155 -73013.74 102155 -73306.26 102212.068 -73593.158 102324.01 -73863.411 102486.525 -74106.632 102669.893 -74290 101710 -74290 101710 -56710 102777.964 -56710 102693.368 -56766.525" fill="none" stroke-width="254"/><path d="M 102693.368 -56766.525 102486.525 -56973.368 102324.01 -57216.589 102212.068 -57486.842 102155 -57773.74 102155 -58066.26 102212.068 -58353.158 102324.01 -58623.411 102486.525 -58866.632 102693.368 -59073.475 102799.974 -59144.707 102813.929 -59286.396 102861.858 -59444.397 102939.691 -59590.012 102939.692 -59590.013 103044.437 -59717.645 103076.413 -59743.887 103946.11 -60613.585 103972.355 -60645.564 104099.987 -60750.309 104245.602 -60828.142 104403.603 -60876.071 104526.749 -60888.2 104526.756 -60888.2 104567.919 -60892.254 104609.082 -60888.2 106802.807 -60888.2 107001.303 -61086.697 106989.68 -61114.757 106952.1 -61303.685 106952.1 -61496.315 106989.68 -61685.243 107043.427 -61815 106989.68 -61944.757 106952.1 -62133.685 106952.1 -62326.315 106989.68 -62515.243 107041.356 -62640 106989.68 -62764.757 106952.1 -62953.685 106952.1 -63146.315 106989.68 -63335.243 107063.396 -63513.21 107170.415 -63673.375 107306.625 -63809.585 107466.79 -63916.604 107644.757 -63990.32 107833.685 -64027.9 108026.315 -64027.9 108215.243 -63990.32 108393.21 -63916.604 108553.375 -63809.585 108689.585 -63673.375 108796.604 -63513.21 108870.32 -63335.243 108907.9 -63146.315 108907.9 -62953.685 108870.32 -62764.757 108818.644 -62640 108870.32 -62515.243 108907.9 -62326.315 108907.9 -62133.685 108870.32 -61944.757 108816.573 -61815 108870.32 -61685.243 108907.9 -61496.315 108907.9 -61303.685 108870.32 -61114.757 108796.604 -60936.79 108768.2 -60894.28 108768.2 -60871.163 108772.254 -60830 108768.2 -60788.837 108768.2 -60788.83 108756.071 -60665.684 108708.142 -60507.683 108630.309 -60362.068 108525.564 -60234.436 108493.588 -60208.195 107771.811 -59486.418 107745.564 -59454.436 107617.932 -59349.691 107472.317 -59271.858 107314.316 -59223.929 107191.17 -59211.8 107191.163 -59211.8 107150 -59207.746 107108.837 -59211.8 106904.597 -59211.8 106946.92 -59191.641 107180.269 -59017.588 107375.178 -58801.355 107450 -58675.745 107524.822 -58801.355 107719.731 -59017.588 107953.08 -59191.641 108215.901 -59316.825 108363.11 -59361.476 108593 -59240.155 108593 -58047 108847 -58047 108847 -59240.155 109076.89 -59361.476 109224.099 -59316.825 109486.92 -59191.641 109720.269 -59017.588 109915.178 -58801.355 109990 -58675.745 110064.822 -58801.355 110259.731 -59017.588 110493.08 -59191.641 110755.901 -59316.825 110903.11 -59361.476 111133 -59240.155 111133 -58047 108847 -58047 108593 -58047 106307 -58047 106307 -58067 106053 -58067 106053 -58047 106033 -58047 106033 -57793 106053 -57793 106053 -57773 106307 -57773 106307 -57793 108593 -57793 108593 -57773 108847 -57773 108847 -57793 111133 -57793 111133 -57773 111387 -57773 111387 -57793 111407 -57793 111407 -58047 111387 -58047 111387 -59240.155 111616.89 -59361.476 111764.099 -59316.825 112026.92 -59191.641 112260.269 -59017.588 112455.178 -58801.355 112524.805 -58684.466 112646.525 -58866.632 112853.368 -59073.475 113096.589 -59235.99 113366.842 -59347.932 113653.74 -59405 113946.26 -59405 114233.158 -59347.932 114503.411 -59235.99 114746.632 -59073.475 114953.475 -58866.632 115070 -58692.24 115186.525 -58866.632 115393.368 -59073.475 115636.589 -59235.99 115906.842 -59347.932 116193.74 -59405 116486.26 -59405 116614.164 -59379.558 117031.801 -59797.195 117031.8 -67452.781 117003.396 -67495.291 116929.68 -67673.258 116892.1 -67862.186 116892.1 -68054.816 116929.68 -68243.744 117003.396 -68421.711 117110.415 -68581.876 117246.625 -68718.086 117406.79 -68825.105 117584.757 -68898.821 117773.685 -68936.401 117966.315 -68936.401 118155.243 -68898.821 118333.21 -68825.105 118493.375 -68718.086 118629.585 -68581.876 118736.604 -68421.711 118792.651 -68286.401 118956.315 -68286.401 119145.243 -68248.821 119323.21 -68175.105 119483.375 -68068.086 119619.585 -67931.876 119726.604 -67771.711 119800.32 -67593.744 119810.294 -67543.6 120143.588 -67210.307 120175.564 -67184.065 120251.205 -67091.897 120280.309 -67056.433 120330.587 -66962.37 120396.79 -67006.606 120574.757 -67080.322 120763.685 -67117.902 120956.315 -67117.902 121145.243 -67080.322 121323.21 -67006.606 121483.375 -66899.587 121619.585 -66763.377 121726.604 -66603.212 121800.32 -66425.245 121810.294 -66375.101 121983.582 -66201.813 122015.564 -66175.566 122120.309 -66047.934 122198.142 -65902.319 122246.071 -65744.318 122258.2 -65621.172 122258.2 -65621.166 122262.254 -65580.003 122258.2 -65538.84 122258.2 -59145.927 122290.001 -59124.678 122290 -71955.321 122123.411 -71844.01 121853.158 -71732.068 121566.26 -71675 121273.74 -71675 120986.842 -71732.068 120716.589 -71844.01 120473.368 -72006.525 120266.525 -72213.368 120150 -72387.76 120033.475 -72213.368 119826.632 -72006.525 119583.411 -71844.01 119313.158 -71732.068 119026.26 -71675 118733.74 -71675 118446.842 -71732.068 118176.589 -71844.01 117933.368 -72006.525 117726.525 -72213.368 117610 -72387.76 117493.475 -72213.368 117286.632 -72006.525 117043.411 -71844.01 116773.158 -71732.068 116486.26 -71675 116193.74 -71675 115906.842 -71732.068 115636.589 -71844.01 115393.368 -72006.525 115186.525 -72213.368 115070 -72387.76 114953.475 -72213.368 114746.632 -72006.525 114503.411 -71844.01 114233.158 -71732.068 113946.26 -71675 113653.74 -71675 113366.842 -71732.068 113096.589 -71844.01 112853.368 -72006.525 112646.525 -72213.368 112530 -72387.76 112413.475 -72213.368 112206.632 -72006.525 111963.411 -71844.01 111693.158 -71732.068 111406.26 -71675 111113.74 -71675 110826.842 -71732.068 110556.589 -71844.01 110313.368 -72006.525 110106.525 -72213.368 109990 -72387.76 109873.475 -72213.368 109666.632 -72006.525 109423.411 -71844.01 109153.158 -71732.068 108866.26 -71675 108573.74 -71675 108286.842 -71732.068 108016.589 -71844.01 107773.368 -72006.525 107566.525 -72213.368 107450 -72387.76 107333.475 -72213.368 107126.632 -72006.525 106883.411 -71844.01 106613.158 -71732.068 106326.26 -71675 106033.74 -71675 105746.842 -71732.068 105476.589 -71844.01 105233.368 -72006.525 105026.525 -72213.368 104910 -72387.76 104793.475 -72213.368 104586.632 -72006.525 104343.411 -71844.01 104073.158 -71732.068 103786.26 -71675 103493.74 -71675 103206.842 -71732.068 102936.589 -71844.01 102693.368 -72006.525 102486.525 -72213.368 102324.01 -72456.589 102212.068 -72726.842 102155 -73013.74 102155 -73306.26 102212.068 -73593.158 102324.01 -73863.411 102486.525 -74106.632 102669.893 -74290 101710 -74290 101710 -56710 102777.964 -56710 102693.368 -56766.525"/><use xlink:href="#LNwVlLfp5_viU3G8eq_R_pad-15" x="110290" y="-69130"/><use xlink:href="#LNwVlLfp5_viU3G8eq_R_pad-15" x="107900" y="-69300"/><use xlink:href="#LNwVlLfp5_viU3G8eq_R_pad-15" x="109190" y="-69220"/><use xlink:href="#LNwVlLfp5_viU3G8eq_R_pad-15" x="108560" y="-68200"/><use xlink:href="#LNwVlLfp5_viU3G8eq_R_pad-15" x="117870" y="-67958.501"/><use xlink:href="#LNwVlLfp5_viU3G8eq_R_pad-15" x="118860" y="-67308.501"/><use xlink:href="#LNwVlLfp5_viU3G8eq_R_pad-15" x="120860" y="-66140.002"/><use xlink:href="#LNwVlLfp5_viU3G8eq_R_pad-15" x="107930" y="-61400"/><use xlink:href="#LNwVlLfp5_viU3G8eq_R_pad-15" x="107930" y="-62230"/><use xlink:href="#LNwVlLfp5_viU3G8eq_R_pad-15" x="107930" y="-63050"/><use xlink:href="#LNwVlLfp5_viU3G8eq_R_pad-16" x="103640" y="-73160"/><use xlink:href="#LNwVlLfp5_viU3G8eq_R_pad-16" x="106180" y="-73160"/><use xlink:href="#LNwVlLfp5_viU3G8eq_R_pad-16" x="108720" y="-73160"/><use xlink:href="#LNwVlLfp5_viU3G8eq_R_pad-16" x="111260" y="-73160"/><use xlink:href="#LNwVlLfp5_viU3G8eq_R_pad-16" x="113800" y="-73160"/><use xlink:href="#LNwVlLfp5_viU3G8eq_R_pad-16" x="116340" y="-73160"/><use xlink:href="#LNwVlLfp5_viU3G8eq_R_pad-16" x="118880" y="-73160"/><use xlink:href="#LNwVlLfp5_viU3G8eq_R_pad-16" x="121420" y="-73160"/><use xlink:href="#LNwVlLfp5_viU3G8eq_R_pad-16" x="121420" y="-57920"/><use xlink:href="#LNwVlLfp5_viU3G8eq_R_pad-16" x="118880" y="-57920"/><use xlink:href="#LNwVlLfp5_viU3G8eq_R_pad-16" x="116340" y="-57920"/><use xlink:href="#LNwVlLfp5_viU3G8eq_R_pad-16" x="113800" y="-57920"/><use xlink:href="#LNwVlLfp5_viU3G8eq_R_pad-16" x="111260" y="-57920"/><use xlink:href="#LNwVlLfp5_viU3G8eq_R_pad-16" x="108720" y="-57920"/><use xlink:href="#LNwVlLfp5_viU3G8eq_R_pad-16" x="106180" y="-57920"/><use xlink:href="#LNwVlLfp5_viU3G8eq_R_pad-16" x="103640" y="-57920"/></g><g id="VKc239pU5PFAg5FmD6Q0_bottom_soldermask"><use xlink:href="#y-dn-FPB-nrfBh8KVs0__pad-10" x="103640" y="-73160"/><use xlink:href="#y-dn-FPB-nrfBh8KVs0__pad-10" x="106180" y="-73160"/><use xlink:href="#y-dn-FPB-nrfBh8KVs0__pad-10" x="108720" y="-73160"/><use xlink:href="#y-dn-FPB-nrfBh8KVs0__pad-10" x="111260" y="-73160"/><use xlink:href="#y-dn-FPB-nrfBh8KVs0__pad-10" x="113800" y="-73160"/><use xlink:href="#y-dn-FPB-nrfBh8KVs0__pad-10" x="116340" y="-73160"/><use xlink:href="#y-dn-FPB-nrfBh8KVs0__pad-10" x="118880" y="-73160"/><use xlink:href="#y-dn-FPB-nrfBh8KVs0__pad-10" x="121420" y="-73160"/><use xlink:href="#y-dn-FPB-nrfBh8KVs0__pad-10" x="121420" y="-57920"/><use xlink:href="#y-dn-FPB-nrfBh8KVs0__pad-10" x="118880" y="-57920"/><use xlink:href="#y-dn-FPB-nrfBh8KVs0__pad-10" x="116340" y="-57920"/><use xlink:href="#y-dn-FPB-nrfBh8KVs0__pad-10" x="113800" y="-57920"/><use xlink:href="#y-dn-FPB-nrfBh8KVs0__pad-10" x="111260" y="-57920"/><use xlink:href="#y-dn-FPB-nrfBh8KVs0__pad-10" x="108720" y="-57920"/><use xlink:href="#y-dn-FPB-nrfBh8KVs0__pad-10" x="106180" y="-57920"/><use xlink:href="#y-dn-FPB-nrfBh8KVs0__pad-10" x="103640" y="-57920"/></g><g id="VKc239pU5PFAg5FmD6Q0_bottom_drill1"><use xlink:href="#iwxRzA9nKxHQ-aLOdAMo_pad-1" x="107900" y="-69300"/><use xlink:href="#iwxRzA9nKxHQ-aLOdAMo_pad-1" x="107930" y="-61400"/><use xlink:href="#iwxRzA9nKxHQ-aLOdAMo_pad-1" x="107930" y="-62230"/><use xlink:href="#iwxRzA9nKxHQ-aLOdAMo_pad-1" x="107930" y="-63050"/><use xlink:href="#iwxRzA9nKxHQ-aLOdAMo_pad-1" x="108560" y="-68200"/><use xlink:href="#iwxRzA9nKxHQ-aLOdAMo_pad-1" x="109190" y="-69220"/><use xlink:href="#iwxRzA9nKxHQ-aLOdAMo_pad-1" x="110290" y="-69130"/><use xlink:href="#iwxRzA9nKxHQ-aLOdAMo_pad-1" x="117870" y="-67959"/><use xlink:href="#iwxRzA9nKxHQ-aLOdAMo_pad-1" x="118860" y="-67309"/><use xlink:href="#iwxRzA9nKxHQ-aLOdAMo_pad-1" x="120860" y="-66140"/><use xlink:href="#iwxRzA9nKxHQ-aLOdAMo_pad-2" x="103640" y="-57920"/><use xlink:href="#iwxRzA9nKxHQ-aLOdAMo_pad-2" x="103640" y="-73160"/><use xlink:href="#iwxRzA9nKxHQ-aLOdAMo_pad-2" x="106180" y="-57920"/><use xlink:href="#iwxRzA9nKxHQ-aLOdAMo_pad-2" x="106180" y="-73160"/><use xlink:href="#iwxRzA9nKxHQ-aLOdAMo_pad-2" x="108720" y="-57920"/><use xlink:href="#iwxRzA9nKxHQ-aLOdAMo_pad-2" x="108720" y="-73160"/><use xlink:href="#iwxRzA9nKxHQ-aLOdAMo_pad-2" x="111260" y="-57920"/><use xlink:href="#iwxRzA9nKxHQ-aLOdAMo_pad-2" x="111260" y="-73160"/><use xlink:href="#iwxRzA9nKxHQ-aLOdAMo_pad-2" x="113800" y="-57920"/><use xlink:href="#iwxRzA9nKxHQ-aLOdAMo_pad-2" x="113800" y="-73160"/><use xlink:href="#iwxRzA9nKxHQ-aLOdAMo_pad-2" x="116340" y="-57920"/><use xlink:href="#iwxRzA9nKxHQ-aLOdAMo_pad-2" x="116340" y="-73160"/><use xlink:href="#iwxRzA9nKxHQ-aLOdAMo_pad-2" x="118880" y="-57920"/><use xlink:href="#iwxRzA9nKxHQ-aLOdAMo_pad-2" x="118880" y="-73160"/><use xlink:href="#iwxRzA9nKxHQ-aLOdAMo_pad-2" x="121420" y="-57920"/><use xlink:href="#iwxRzA9nKxHQ-aLOdAMo_pad-2" x="121420" y="-73160"/></g><clipPath id="VKc239pU5PFAg5FmD6Q0_bottom_outline"><path d="M 101000 -56000 101000 -75000 123000 -75000 123000 -56000 101000 -56000" fill="none" stroke-width="150"/></clipPath><mask id="VKc239pU5PFAg5FmD6Q0_bottom_mech-mask"><g fill="#000" stroke="#000"><rect x="101000" y="-75000" width="22000" height="19000" fill="#fff"/><use xlink:href="#VKc239pU5PFAg5FmD6Q0_bottom_drill1"/></g></mask><mask id="VKc239pU5PFAg5FmD6Q0_bottom_cf-mask"><g fill="#fff" stroke="#fff"><use xlink:href="#VKc239pU5PFAg5FmD6Q0_bottom_soldermask"/></g></mask><mask id="VKc239pU5PFAg5FmD6Q0_bottom_sm-mask"><g fill="#000" stroke="#000"><rect x="101000" y="-75000" width="22000" height="19000" fill="#fff"/><use xlink:href="#VKc239pU5PFAg5FmD6Q0_bottom_soldermask"/></g></mask></defs><g transform="translate(0,-131000) scale(1,-1)"><g mask="url(#VKc239pU5PFAg5FmD6Q0_bottom_mech-mask)" clip-path="url(#VKc239pU5PFAg5FmD6Q0_bottom_outline)" transform="translate(224000,0) scale(-1,1)"><rect x="101000" y="-75000" width="22000" height="19000" fill="currentColor" class="VKc239pU5PFAg5FmD6Q0_fr4"/><use xlink:href="#VKc239pU5PFAg5FmD6Q0_bottom_copper" fill="currentColor" stroke="currentColor" class="VKc239pU5PFAg5FmD6Q0_cu"/><use xlink:href="#VKc239pU5PFAg5FmD6Q0_bottom_copper" fill="currentColor" stroke="currentColor" class="VKc239pU5PFAg5FmD6Q0_cf" mask="url(#VKc239pU5PFAg5FmD6Q0_bottom_cf-mask)"/><g mask="url(#VKc239pU5PFAg5FmD6Q0_bottom_sm-mask)"><rect x="101000" y="-75000" width="22000" height="19000" fill="currentColor" class="VKc239pU5PFAg5FmD6Q0_sm"/></g></g></g></svg>