<svg version="1.1" xmlns="http://www.w3.org/2000/svg" xmlns:xlink="http://www.w3.org/1999/xlink" stroke-linecap="round" stroke-linejoin="round" stroke-width="0" fill-rule="evenodd" clip-rule="evenodd" id="UIWoGBYVR6z2682zCga-_top" viewBox="101000 -82500 17000 35500" width="17mm" height="35.5mm" class="w-100 h-100"><defs><style>.UIWoGBYVR6z2682zCga-_fr4 {color: #666666;}
.UIWoGBYVR6z2682zCga-_cu {color: #cccccc;}
.UIWoGBYVR6z2682zCga-_cf {color: #cc9933;}
.UIWoGBYVR6z2682zCga-_sm {color: #004200; opacity: 0.75;}
.UIWoGBYVR6z2682zCga-_ss {color: #ffffff;}
.UIWoGBYVR6z2682zCga-_sp {color: #999999;}
.UIWoGBYVR6z2682zCga-_out {color: #000000;}</style><rect x="-850" y="-850" width="1700" height="1700" rx="850" ry="850" id="Zn9Q7RQkW0hVaWimUe4W_pad-10"/><circle cx="0" cy="0" r="437.5" id="Zn9Q7RQkW0hVaWimUe4W_pad-12"/><circle cx="0" cy="0" r="950" id="Zn9Q7RQkW0hVaWimUe4W_pad-13"/><circle cx="0" cy="0" r="175" id="Zn9Q7RQkW0hVaWimUe4W_pad-16"/><rect x="-1050" y="-1050" width="2100" height="2100" rx="1050" ry="1050" id="g0a1mP-spbYfmmpRsZh3_pad-10"/><circle cx="0" cy="0" r="637.5" id="g0a1mP-spbYfmmpRsZh3_pad-12"/><circle cx="0" cy="0" r="1150" id="g0a1mP-spbYfmmpRsZh3_pad-13"/><circle cx="0" cy="0" r="437.5" id="pL63FL6rutQmCi8ka1JE_pad-11"/><circle cx="0" cy="0" r="500" id="ALGdSkRK9zdt62PuBWIy_pad-1"/><circle cx="0" cy="0" r="550" id="ALGdSkRK9zdt62PuBWIy_pad-2"/><g id="UIWoGBYVR6z2682zCga-_top_silkscreen"><path d="M 115880.952 -60152.38 115880.952 -59152.38 M 116261.904 -60152.38 116261.904 -59152.38 116719.047 -60152.38 116719.047 -59152.38 M 101797.047 -68984.761 101911.333 -69032.38 102101.809 -69032.38 102178 -68984.761 102216.095 -68937.142 102254.19 -68841.904 102254.19 -68746.666 102216.095 -68651.428 102178 -68603.809 102101.809 -68556.19 101949.428 -68508.571 101873.238 -68460.952 101835.142 -68413.333 101797.047 -68318.095 101797.047 -68222.857 101835.142 -68127.619 101873.238 -68080 101949.428 -68032.38 102139.904 -68032.38 102254.19 -68080 M 102711.333 -69032.38 102635.142 -68984.761 102597.047 -68889.523 102597.047 -68032.38 M 103016.095 -69032.38 103016.095 -68365.714 M 103016.095 -68032.38 102978 -68080 103016.095 -68127.619 103054.19 -68080 103016.095 -68032.38 103016.095 -68127.619 M 103739.904 -69032.38 103739.904 -68032.38 M 103739.904 -68984.761 103663.714 -69032.38 103511.333 -69032.38 103435.142 -68984.761 103397.047 -68937.142 103358.952 -68841.904 103358.952 -68556.19 103397.047 -68460.952 103435.142 -68413.333 103511.333 -68365.714 103663.714 -68365.714 103739.904 -68413.333 M 104425.619 -68984.761 104349.428 -69032.38 104197.047 -69032.38 104120.857 -68984.761 104082.761 -68889.523 104082.761 -68508.571 104120.857 -68413.333 104197.047 -68365.714 104349.428 -68365.714 104425.619 -68413.333 104463.714 -68508.571 104463.714 -68603.809 104082.761 -68699.047 M 104806.571 -69032.38 104806.571 -68365.714 M 104806.571 -68556.19 104844.666 -68460.952 104882.761 -68413.333 104958.952 -68365.714 105035.142 -68365.714 M 115540 -70707.38 115692.38 -70707.38 115768.571 -70755 115844.761 -70850.238 115882.857 -71040.714 115882.857 -71374.047 115844.761 -71564.523 115768.571 -71659.761 115692.38 -71707.38 115540 -71707.38 115463.809 -71659.761 115387.619 -71564.523 115349.523 -71374.047 115349.523 -71040.714 115387.619 -70850.238 115463.809 -70755 115540 -70707.38 M 116225.714 -70707.38 116225.714 -71516.904 116263.809 -71612.142 116301.904 -71659.761 116378.095 -71707.38 116530.476 -71707.38 116606.666 -71659.761 116644.761 -71612.142 116682.857 -71516.904 116682.857 -70707.38 M 116949.523 -70707.38 117406.666 -70707.38 M 117178.095 -71707.38 117178.095 -70707.38 M 102878.095 -70755 102782.857 -70707.38 102640 -70707.38 102497.142 -70755 102401.904 -70850.238 102354.285 -70945.476 102306.666 -71135.952 102306.666 -71278.809 102354.285 -71469.285 102401.904 -71564.523 102497.142 -71659.761 102640 -71707.38 102735.238 -71707.38 102878.095 -71659.761 102925.714 -71612.142 102925.714 -71278.809 102735.238 -71278.809 M 103354.285 -71707.38 103354.285 -70707.38 103925.714 -71707.38 103925.714 -70707.38 M 104401.904 -71707.38 104401.904 -70707.38 104640 -70707.38 104782.857 -70755 104878.095 -70850.238 104925.714 -70945.476 104973.333 -71135.952 104973.333 -71278.809 104925.714 -71469.285 104878.095 -71564.523 104782.857 -71659.761 104640 -71707.38 104401.904 -71707.38 M 101643.333 -59192.38 102262.38 -59192.38 101929.047 -59573.333 102071.904 -59573.333 102167.142 -59620.952 102214.761 -59668.571 102262.38 -59763.809 102262.38 -60001.904 102214.761 -60097.142 102167.142 -60144.761 102071.904 -60192.38 101786.19 -60192.38 101690.952 -60144.761 101643.333 -60097.142 M 102548.095 -59192.38 102881.428 -60192.38 103214.761 -59192.38 M 103452.857 -59192.38 104071.904 -59192.38 103738.571 -59573.333 103881.428 -59573.333 103976.666 -59620.952 104024.285 -59668.571 104071.904 -59763.809 104071.904 -60001.904 104024.285 -60097.142 103976.666 -60144.761 103881.428 -60192.38 103595.714 -60192.38 103500.476 -60144.761 103452.857 -60097.142 M 104452.857 -59906.666 104929.047 -59906.666 M 104357.619 -60192.38 104690.952 -59192.38 105024.285 -60192.38" fill="none" stroke-width="150"/><path d="M 115822 -68742.779 115822 -68417.221 M 116842 -68742.779 116842 -68417.221 M 116842 -61813.221 116842 -62138.779 M 115822 -61813.221 115822 -62138.779" fill="none" stroke-width="120"/><path d="M 105482 -82270 105482 -47270 114482 -47270 114482 -82270 105482 -82270 M 108482 -78270 108482 -51270 111482 -51270 111482 -78270 108482 -78270 M 108982 -51770 108982 -58770 110982 -58770 110982 -51770 108982 -51770 M 108982 -57770 110982 -57770 M 108982 -52770 110982 -52770 M 116165.333 -66651.142 116117.714 -66698.761 115974.857 -66746.38 115879.619 -66746.38 115736.761 -66698.761 115641.523 -66603.523 115593.904 -66508.285 115546.285 -66317.809 115546.285 -66174.952 115593.904 -65984.476 115641.523 -65889.238 115736.761 -65794 115879.619 -65746.38 115974.857 -65746.38 116117.714 -65794 116165.333 -65841.619 M 117117.714 -66746.38 116546.285 -66746.38 M 116832 -66746.38 116832 -65746.38 116736.761 -65889.238 116641.523 -65984.476 116546.285 -66032.095 M 116165.333 -64968.38 115832 -64492.19 M 115593.904 -64968.38 115593.904 -63968.38 115974.857 -63968.38 116070.095 -64016 116117.714 -64063.619 116165.333 -64158.857 116165.333 -64301.714 116117.714 -64396.952 116070.095 -64444.571 115974.857 -64492.19 115593.904 -64492.19 M 117117.714 -64968.38 116546.285 -64968.38 M 116832 -64968.38 116832 -63968.38 116736.761 -64111.238 116641.523 -64206.476 116546.285 -64254.095 M 109434.38 -65531.904 110243.904 -65531.904 110339.142 -65484.285 110386.761 -65436.666 110434.38 -65341.428 110434.38 -65150.952 110386.761 -65055.714 110339.142 -65008.095 110243.904 -64960.476 109434.38 -64960.476 M 110434.38 -63960.476 110434.38 -64531.904 M 110434.38 -64246.19 109434.38 -64246.19 109577.238 -64341.428 109672.476 -64436.666 109720.095 -64531.904" fill="none" stroke-width="150"/></g><g id="UIWoGBYVR6z2682zCga-_top_copper"><use xlink:href="#Zn9Q7RQkW0hVaWimUe4W_pad-10" x="116340" y="-73160"/><use xlink:href="#Zn9Q7RQkW0hVaWimUe4W_pad-10" x="103640" y="-73160"/><use xlink:href="#Zn9Q7RQkW0hVaWimUe4W_pad-10" x="116340" y="-57920"/><use xlink:href="#Zn9Q7RQkW0hVaWimUe4W_pad-10" x="103640" y="-57920"/><path d="M 116609.691 -68931.053 116630.926 -68934.203 116651.75 -68939.419 116671.962 -68946.651 116691.368 -68955.83 116709.781 -68966.866 116727.024 -68979.654 116742.93 -68994.07 116757.346 -69009.976 116770.134 -69027.219 116781.17 -69045.632 116790.349 -69065.038 116797.581 -69085.25 116802.797 -69106.074 116805.947 -69127.309 116807 -69148.75 116807 -69586.25 116805.947 -69607.691 116802.797 -69628.926 116797.581 -69649.75 116790.349 -69669.962 116781.17 -69689.368 116770.134 -69707.781 116757.346 -69725.024 116742.93 -69740.93 116727.024 -69755.346 116709.781 -69768.134 116691.368 -69779.17 116671.962 -69788.349 116651.75 -69795.581 116630.926 -69800.797 116609.691 -69803.947 116588.25 -69805 116075.75 -69805 116054.309 -69803.947 116033.074 -69800.797 116012.25 -69795.581 115992.038 -69788.349 115972.632 -69779.17 115954.219 -69768.134 115936.976 -69755.346 115921.07 -69740.93 115906.654 -69725.024 115893.866 -69707.781 115882.83 -69689.368 115873.651 -69669.962 115866.419 -69649.75 115861.203 -69628.926 115858.053 -69607.691 115857 -69586.25 115857 -69148.75 115858.053 -69127.309 115861.203 -69106.074 115866.419 -69085.25 115873.651 -69065.038 115882.83 -69045.632 115893.866 -69027.219 115906.654 -69009.976 115921.07 -68994.07 115936.976 -68979.654 115954.219 -68966.866 115972.632 -68955.83 115992.038 -68946.651 116012.25 -68939.419 116033.074 -68934.203 116054.309 -68931.053 116075.75 -68930 116588.25 -68930 116609.691 -68931.053 116609.691 -68931.053"/><use xlink:href="#Zn9Q7RQkW0hVaWimUe4W_pad-12" x="116332" y="-69367.5"/><path d="M 116609.691 -67356.053 116630.926 -67359.203 116651.75 -67364.419 116671.962 -67371.651 116691.368 -67380.83 116709.781 -67391.866 116727.024 -67404.654 116742.93 -67419.07 116757.346 -67434.976 116770.134 -67452.219 116781.17 -67470.632 116790.349 -67490.038 116797.581 -67510.25 116802.797 -67531.074 116805.947 -67552.309 116807 -67573.75 116807 -68011.25 116805.947 -68032.691 116802.797 -68053.926 116797.581 -68074.75 116790.349 -68094.962 116781.17 -68114.368 116770.134 -68132.781 116757.346 -68150.024 116742.93 -68165.93 116727.024 -68180.346 116709.781 -68193.134 116691.368 -68204.17 116671.962 -68213.349 116651.75 -68220.581 116630.926 -68225.797 116609.691 -68228.947 116588.25 -68230 116075.75 -68230 116054.309 -68228.947 116033.074 -68225.797 116012.25 -68220.581 115992.038 -68213.349 115972.632 -68204.17 115954.219 -68193.134 115936.976 -68180.346 115921.07 -68165.93 115906.654 -68150.024 115893.866 -68132.781 115882.83 -68114.368 115873.651 -68094.962 115866.419 -68074.75 115861.203 -68053.926 115858.053 -68032.691 115857 -68011.25 115857 -67573.75 115858.053 -67552.309 115861.203 -67531.074 115866.419 -67510.25 115873.651 -67490.038 115882.83 -67470.632 115893.866 -67452.219 115906.654 -67434.976 115921.07 -67419.07 115936.976 -67404.654 115954.219 -67391.866 115972.632 -67380.83 115992.038 -67371.651 116012.25 -67364.419 116033.074 -67359.203 116054.309 -67356.053 116075.75 -67355 116588.25 -67355 116609.691 -67356.053 116609.691 -67356.053"/><use xlink:href="#Zn9Q7RQkW0hVaWimUe4W_pad-12" x="116332" y="-67792.5"/><path d="M 116609.691 -60752.053 116630.926 -60755.203 116651.75 -60760.419 116671.962 -60767.651 116691.368 -60776.83 116709.781 -60787.866 116727.024 -60800.654 116742.93 -60815.07 116757.346 -60830.976 116770.134 -60848.219 116781.17 -60866.632 116790.349 -60886.038 116797.581 -60906.25 116802.797 -60927.074 116805.947 -60948.309 116807 -60969.75 116807 -61407.25 116805.947 -61428.691 116802.797 -61449.926 116797.581 -61470.75 116790.349 -61490.962 116781.17 -61510.368 116770.134 -61528.781 116757.346 -61546.024 116742.93 -61561.93 116727.024 -61576.346 116709.781 -61589.134 116691.368 -61600.17 116671.962 -61609.349 116651.75 -61616.581 116630.926 -61621.797 116609.691 -61624.947 116588.25 -61626 116075.75 -61626 116054.309 -61624.947 116033.074 -61621.797 116012.25 -61616.581 115992.038 -61609.349 115972.632 -61600.17 115954.219 -61589.134 115936.976 -61576.346 115921.07 -61561.93 115906.654 -61546.024 115893.866 -61528.781 115882.83 -61510.368 115873.651 -61490.962 115866.419 -61470.75 115861.203 -61449.926 115858.053 -61428.691 115857 -61407.25 115857 -60969.75 115858.053 -60948.309 115861.203 -60927.074 115866.419 -60906.25 115873.651 -60886.038 115882.83 -60866.632 115893.866 -60848.219 115906.654 -60830.976 115921.07 -60815.07 115936.976 -60800.654 115954.219 -60787.866 115972.632 -60776.83 115992.038 -60767.651 116012.25 -60760.419 116033.074 -60755.203 116054.309 -60752.053 116075.75 -60751 116588.25 -60751 116609.691 -60752.053 116609.691 -60752.053"/><use xlink:href="#Zn9Q7RQkW0hVaWimUe4W_pad-12" x="116332" y="-61188.5"/><path d="M 116609.691 -62327.053 116630.926 -62330.203 116651.75 -62335.419 116671.962 -62342.651 116691.368 -62351.83 116709.781 -62362.866 116727.024 -62375.654 116742.93 -62390.07 116757.346 -62405.976 116770.134 -62423.219 116781.17 -62441.632 116790.349 -62461.038 116797.581 -62481.25 116802.797 -62502.074 116805.947 -62523.309 116807 -62544.75 116807 -62982.25 116805.947 -63003.691 116802.797 -63024.926 116797.581 -63045.75 116790.349 -63065.962 116781.17 -63085.368 116770.134 -63103.781 116757.346 -63121.024 116742.93 -63136.93 116727.024 -63151.346 116709.781 -63164.134 116691.368 -63175.17 116671.962 -63184.349 116651.75 -63191.581 116630.926 -63196.797 116609.691 -63199.947 116588.25 -63201 116075.75 -63201 116054.309 -63199.947 116033.074 -63196.797 116012.25 -63191.581 115992.038 -63184.349 115972.632 -63175.17 115954.219 -63164.134 115936.976 -63151.346 115921.07 -63136.93 115906.654 -63121.024 115893.866 -63103.781 115882.83 -63085.368 115873.651 -63065.962 115866.419 -63045.75 115861.203 -63024.926 115858.053 -63003.691 115857 -62982.25 115857 -62544.75 115858.053 -62523.309 115861.203 -62502.074 115866.419 -62481.25 115873.651 -62461.038 115882.83 -62441.632 115893.866 -62423.219 115906.654 -62405.976 115921.07 -62390.07 115936.976 -62375.654 115954.219 -62362.866 115972.632 -62351.83 115992.038 -62342.651 116012.25 -62335.419 116033.074 -62330.203 116054.309 -62327.053 116075.75 -62326 116588.25 -62326 116609.691 -62327.053 116609.691 -62327.053"/><use xlink:href="#Zn9Q7RQkW0hVaWimUe4W_pad-12" x="116332" y="-62763.5"/><use xlink:href="#Zn9Q7RQkW0hVaWimUe4W_pad-13" x="106232" y="-79770"/><use xlink:href="#Zn9Q7RQkW0hVaWimUe4W_pad-13" x="108732" y="-79770"/><use xlink:href="#Zn9Q7RQkW0hVaWimUe4W_pad-13" x="111232" y="-79770"/><use xlink:href="#Zn9Q7RQkW0hVaWimUe4W_pad-13" x="113732" y="-79770"/><use xlink:href="#Zn9Q7RQkW0hVaWimUe4W_pad-13" x="113732" y="-49770"/><use xlink:href="#Zn9Q7RQkW0hVaWimUe4W_pad-13" x="108732" y="-49770"/><path d="M 108732 -54778 108732 -49770 M 105590 -57920 108732 -54778 M 103640 -57920 105590 -57920 M 116332 -73152 116340 -73160 M 116332 -69367.5 116332 -73152 M 116340 -61180.5 116332 -61188.5 M 116340 -57920 116340 -61180.5 M 113732 -61222 113732 -49770 M 115273.5 -62763.5 113732 -61222 M 116332 -62763.5 115273.5 -62763.5" fill="none" stroke-width="406.4"/><path d="M 115290 -49389.541 115075.698 -48872.17 114629.83 -48426.302 114047.276 -48185 113416.724 -48185 112834.17 -48426.302 112388.302 -48872.17 112147 -49454.724 112147 -50085.276 112388.302 -50667.83 112834.17 -51113.698 112893.801 -51138.398 112893.8 -61139.451 112877.38 -61222 112893.8 -61304.549 112893.8 -61304.553 112942.433 -61549.048 113127.692 -61826.308 113197.679 -61873.072 114622.43 -63297.824 114669.192 -63367.808 114739.176 -63414.57 114739.177 -63414.571 114852.745 -63490.455 114946.451 -63553.067 115190.946 -63601.7 115190.95 -63601.7 115273.499 -63618.12 115356.048 -63601.7 115473.679 -63601.7 115744.273 -63782.505 116075.75 -63848.44 116588.25 -63848.44 116919.727 -63782.505 117200.739 -63594.739 117290.001 -63461.149 117290 -66939.975 117166.699 -66816.673 116933.31 -66720 116617.75 -66720 116459 -66878.75 116459 -67665.5 116479 -67665.5 116479 -67919.5 116459 -67919.5 116459 -67939.5 116205 -67939.5 116205 -67919.5 115380.75 -67919.5 115222 -68078.25 115222 -68356.309 115318.673 -68589.698 115383.943 -68654.969 115275.495 -68817.273 115209.56 -69148.75 115209.56 -69586.25 115275.495 -69917.727 115463.261 -70198.739 115493.8 -70219.145 115493.801 -71939.419 115269.375 -72089.375 114941.161 -72580.582 114825.908 -73160 114941.161 -73739.418 115269.375 -74230.625 115571.43 -74432.452 115488.119 -74488.119 115331.195 -74722.972 115276.091 -75000 115290.001 -75069.931 115290 -79360.305 115110.019 -78925.792 114848.35 -78833.255 113911.605 -79770 114848.35 -80706.745 115110.019 -80614.208 115290 -80126.155 115290 -81790 104710 -81790 104710 -80237.371 104888.302 -80667.83 105334.17 -81113.698 105916.724 -81355 106547.276 -81355 107129.83 -81113.698 107357.178 -80886.35 107795.255 -80886.35 107887.792 -81148.019 108479.398 -81366.188 109109.461 -81341.352 109576.208 -81148.019 109668.745 -80886.35 108732 -79949.605 107795.255 -80886.35 107357.178 -80886.35 107557.387 -80686.141 107615.65 -80706.745 108552.395 -79770 108911.605 -79770 109848.35 -80706.745 109906.613 -80686.141 110334.17 -81113.698 110916.724 -81355 111547.276 -81355 112129.83 -81113.698 112357.178 -80886.35 112795.255 -80886.35 112887.792 -81148.019 113479.398 -81366.188 114109.461 -81341.352 114576.208 -81148.019 114668.745 -80886.35 113732 -79949.605 112795.255 -80886.35 112357.178 -80886.35 112557.387 -80686.141 112615.65 -80706.745 113552.395 -79770 112615.65 -78833.255 112557.387 -78853.859 112357.178 -78653.65 112795.255 -78653.65 113732 -79590.395 114668.745 -78653.65 114576.208 -78391.981 113984.602 -78173.812 113354.539 -78198.648 112887.792 -78391.981 112795.255 -78653.65 112357.178 -78653.65 112129.83 -78426.302 111547.276 -78185 110916.724 -78185 110334.17 -78426.302 109906.613 -78853.859 109848.35 -78833.255 108911.605 -79770 108552.395 -79770 107615.65 -78833.255 107557.387 -78853.859 107357.178 -78653.65 107795.255 -78653.65 108732 -79590.395 109668.745 -78653.65 109576.208 -78391.981 108984.602 -78173.812 108354.539 -78198.648 107887.792 -78391.981 107795.255 -78653.65 107357.178 -78653.65 107129.83 -78426.302 106547.276 -78185 105916.724 -78185 105334.17 -78426.302 104888.302 -78872.17 104710 -79302.629 104710 -75069.925 104723.909 -75000 104668.805 -74722.972 104511.881 -74488.119 104398.957 -74412.666 104521.358 -74355.183 104911.645 -73926.924 105081.476 -73516.89 104960.155 -73287 103767 -73287 103767 -73307 103513 -73307 103513 -73287 102319.845 -73287 102198.524 -73516.89 102368.355 -73926.924 102699.239 -74290 101710 -74290 101710 -72803.11 102198.524 -72803.11 102319.845 -73033 103513 -73033 103513 -71839.181 103767 -71839.181 103767 -73033 104960.155 -73033 105081.476 -72803.11 104911.645 -72393.076 104521.358 -71964.817 103996.892 -71718.514 103767 -71839.181 103513 -71839.181 103283.108 -71718.514 102758.642 -71964.817 102368.355 -72393.076 102198.524 -72803.11 101710 -72803.11 101710 -67228.691 115222 -67228.691 115222 -67506.75 115380.75 -67665.5 116205 -67665.5 116205 -66878.75 116046.25 -66720 115730.69 -66720 115497.301 -66816.673 115318.673 -66995.302 115222 -67228.691 101710 -67228.691 101710 -56710 102777.964 -56710 102569.375 -56849.375 102241.161 -57340.582 102125.908 -57920 102241.161 -58499.418 102569.375 -58990.625 103060.582 -59318.839 103493.744 -59405 103786.256 -59405 104219.418 -59318.839 104710.625 -58990.625 104865.926 -58758.2 105507.451 -58758.2 105590 -58774.62 105672.549 -58758.2 105672.554 -58758.2 105917.049 -58709.567 106194.308 -58524.308 106241.072 -58454.321 109266.325 -55429.069 109336.308 -55382.308 109397.987 -55290 109521.566 -55105.05 109521.567 -55105.049 109570.2 -54860.554 109570.2 -54860.55 109586.62 -54778.001 109570.2 -54695.452 109570.2 -51138.398 109629.83 -51113.698 110075.698 -50667.83 110317 -50085.276 110317 -49454.724 110075.698 -48872.17 109629.83 -48426.302 109047.276 -48185 108416.724 -48185 107834.17 -48426.302 107388.302 -48872.17 107147 -49454.724 107147 -50085.276 107388.302 -50667.83 107834.17 -51113.698 107893.801 -51138.398 107893.8 -54430.806 105242.807 -57081.8 104865.926 -57081.8 104710.625 -56849.375 104358.705 -56614.23 104511.881 -56511.881 104668.805 -56277.028 104723.909 -56000 104710 -55930.074 104710 -47710 115290 -47710 115290 -49389.541 115290 -49389.541"/><path d="M 115290 -49389.541 115075.698 -48872.17 114629.83 -48426.302 114047.276 -48185 113416.724 -48185 112834.17 -48426.302 112388.302 -48872.17 112147 -49454.724 112147 -50085.276 112388.302 -50667.83 112834.17 -51113.698 112893.801 -51138.398 112893.8 -61139.451 112877.38 -61222 112893.8 -61304.549 112893.8 -61304.553 112942.433 -61549.048 113127.692 -61826.308 113197.679 -61873.072 114622.43 -63297.824 114669.192 -63367.808 114739.176 -63414.57 114739.177 -63414.571 114852.745 -63490.455 114946.451 -63553.067 115190.946 -63601.7 115190.95 -63601.7 115273.499 -63618.12 115356.048 -63601.7 115473.679 -63601.7 115744.273 -63782.505 116075.75 -63848.44 116588.25 -63848.44 116919.727 -63782.505 117200.739 -63594.739 117290.001 -63461.149 117290 -66939.975 117166.699 -66816.673 116933.31 -66720 116617.75 -66720 116459 -66878.75 116459 -67665.5 116479 -67665.5 116479 -67919.5 116459 -67919.5 116459 -67939.5 116205 -67939.5 116205 -67919.5 115380.75 -67919.5 115222 -68078.25 115222 -68356.309 115318.673 -68589.698 115383.943 -68654.969 115275.495 -68817.273 115209.56 -69148.75 115209.56 -69586.25 115275.495 -69917.727 115463.261 -70198.739 115493.8 -70219.145 115493.801 -71939.419 115269.375 -72089.375 114941.161 -72580.582 114825.908 -73160 114941.161 -73739.418 115269.375 -74230.625 115571.43 -74432.452 115488.119 -74488.119 115331.195 -74722.972 115276.091 -75000 115290.001 -75069.931 115290 -79360.305 115110.019 -78925.792 114848.35 -78833.255 113911.605 -79770 114848.35 -80706.745 115110.019 -80614.208 115290 -80126.155 115290 -81790 104710 -81790 104710 -80237.371 104888.302 -80667.83 105334.17 -81113.698 105916.724 -81355 106547.276 -81355 107129.83 -81113.698 107357.178 -80886.35 107795.255 -80886.35 107887.792 -81148.019 108479.398 -81366.188 109109.461 -81341.352 109576.208 -81148.019 109668.745 -80886.35 108732 -79949.605 107795.255 -80886.35 107357.178 -80886.35 107557.387 -80686.141 107615.65 -80706.745 108552.395 -79770 108911.605 -79770 109848.35 -80706.745 109906.613 -80686.141 110334.17 -81113.698 110916.724 -81355 111547.276 -81355 112129.83 -81113.698 112357.178 -80886.35 112795.255 -80886.35 112887.792 -81148.019 113479.398 -81366.188 114109.461 -81341.352 114576.208 -81148.019 114668.745 -80886.35 113732 -79949.605 112795.255 -80886.35 112357.178 -80886.35 112557.387 -80686.141 112615.65 -80706.745 113552.395 -79770 112615.65 -78833.255 112557.387 -78853.859 112357.178 -78653.65 112795.255 -78653.65 113732 -79590.395 114668.745 -78653.65 114576.208 -78391.981 113984.602 -78173.812 113354.539 -78198.648 112887.792 -78391.981 112795.255 -78653.65 112357.178 -78653.65 112129.83 -78426.302 111547.276 -78185 110916.724 -78185 110334.17 -78426.302 109906.613 -78853.859 109848.35 -78833.255 108911.605 -79770 108552.395 -79770 107615.65 -78833.255 107557.387 -78853.859 107357.178 -78653.65 107795.255 -78653.65 108732 -79590.395 109668.745 -78653.65 109576.208 -78391.981 108984.602 -78173.812 108354.539 -78198.648 107887.792 -78391.981 107795.255 -78653.65 107357.178 -78653.65 107129.83 -78426.302 106547.276 -78185 105916.724 -78185 105334.17 -78426.302 104888.302 -78872.17 104710 -79302.629 104710 -75069.925 104723.909 -75000 104668.805 -74722.972 104511.881 -74488.119 104398.957 -74412.666 104521.358 -74355.183 104911.645 -73926.924 105081.476 -73516.89 104960.155 -73287 103767 -73287 103767 -73307 103513 -73307 103513 -73287 102319.845 -73287 102198.524 -73516.89 102368.355 -73926.924 102699.239 -74290 101710 -74290 101710 -72803.11 102198.524 -72803.11 102319.845 -73033 103513 -73033 103513 -71839.181 103767 -71839.181 103767 -73033 104960.155 -73033 105081.476 -72803.11 104911.645 -72393.076 104521.358 -71964.817 103996.892 -71718.514 103767 -71839.181 103513 -71839.181 103283.108 -71718.514 102758.642 -71964.817 102368.355 -72393.076 102198.524 -72803.11 101710 -72803.11 101710 -67228.691 115222 -67228.691 115222 -67506.75 115380.75 -67665.5 116205 -67665.5 116205 -66878.75 116046.25 -66720 115730.69 -66720 115497.301 -66816.673 115318.673 -66995.302 115222 -67228.691 101710 -67228.691 101710 -56710 102777.964 -56710 102569.375 -56849.375 102241.161 -57340.582 102125.908 -57920 102241.161 -58499.418 102569.375 -58990.625 103060.582 -59318.839 103493.744 -59405 103786.256 -59405 104219.418 -59318.839 104710.625 -58990.625 104865.926 -58758.2 105507.451 -58758.2 105590 -58774.62 105672.549 -58758.2 105672.554 -58758.2 105917.049 -58709.567 106194.308 -58524.308 106241.072 -58454.321 109266.325 -55429.069 109336.308 -55382.308 109397.987 -55290 109521.566 -55105.05 109521.567 -55105.049 109570.2 -54860.554 109570.2 -54860.55 109586.62 -54778.001 109570.2 -54695.452 109570.2 -51138.398 109629.83 -51113.698 110075.698 -50667.83 110317 -50085.276 110317 -49454.724 110075.698 -48872.17 109629.83 -48426.302 109047.276 -48185 108416.724 -48185 107834.17 -48426.302 107388.302 -48872.17 107147 -49454.724 107147 -50085.276 107388.302 -50667.83 107834.17 -51113.698 107893.801 -51138.398 107893.8 -54430.806 105242.807 -57081.8 104865.926 -57081.8 104710.625 -56849.375 104358.705 -56614.23 104511.881 -56511.881 104668.805 -56277.028 104723.909 -56000 104710 -55930.074 104710 -47710 115290 -47710 115290 -49389.541" fill="none" stroke-width="254"/><use xlink:href="#Zn9Q7RQkW0hVaWimUe4W_pad-16" x="116340" y="-73160"/><use xlink:href="#Zn9Q7RQkW0hVaWimUe4W_pad-16" x="103640" y="-73160"/><use xlink:href="#Zn9Q7RQkW0hVaWimUe4W_pad-16" x="116340" y="-57920"/><use xlink:href="#Zn9Q7RQkW0hVaWimUe4W_pad-16" x="103640" y="-57920"/><use xlink:href="#Zn9Q7RQkW0hVaWimUe4W_pad-16" x="106232" y="-79770"/><use xlink:href="#Zn9Q7RQkW0hVaWimUe4W_pad-16" x="108732" y="-79770"/><use xlink:href="#Zn9Q7RQkW0hVaWimUe4W_pad-16" x="111232" y="-79770"/><use xlink:href="#Zn9Q7RQkW0hVaWimUe4W_pad-16" x="113732" y="-79770"/><use xlink:href="#Zn9Q7RQkW0hVaWimUe4W_pad-16" x="113732" y="-49770"/><use xlink:href="#Zn9Q7RQkW0hVaWimUe4W_pad-16" x="108732" y="-49770"/></g><g id="UIWoGBYVR6z2682zCga-_top_soldermask"><use xlink:href="#g0a1mP-spbYfmmpRsZh3_pad-10" x="116340" y="-73160"/><use xlink:href="#g0a1mP-spbYfmmpRsZh3_pad-10" x="103640" y="-73160"/><use xlink:href="#g0a1mP-spbYfmmpRsZh3_pad-10" x="116340" y="-57920"/><use xlink:href="#g0a1mP-spbYfmmpRsZh3_pad-10" x="103640" y="-57920"/><path d="M 116719.493 -68731.535 116750.435 -68736.125 116780.778 -68743.725 116810.23 -68754.263 116838.508 -68767.638 116865.338 -68783.719 116890.463 -68802.353 116913.64 -68823.36 116934.647 -68846.537 116953.281 -68871.662 116969.362 -68898.492 116982.737 -68926.77 116993.275 -68956.222 117000.875 -68986.565 117005.465 -69017.507 117007 -69048.75 117007 -69686.25 117005.465 -69717.493 117000.875 -69748.435 116993.275 -69778.778 116982.737 -69808.23 116969.362 -69836.508 116953.281 -69863.338 116934.647 -69888.463 116913.64 -69911.64 116890.463 -69932.647 116865.338 -69951.281 116838.508 -69967.362 116810.23 -69980.737 116780.778 -69991.275 116750.435 -69998.875 116719.493 -70003.465 116688.25 -70005 115975.75 -70005 115944.507 -70003.465 115913.565 -69998.875 115883.222 -69991.275 115853.77 -69980.737 115825.492 -69967.362 115798.662 -69951.281 115773.537 -69932.647 115750.36 -69911.64 115729.353 -69888.463 115710.719 -69863.338 115694.638 -69836.508 115681.263 -69808.23 115670.725 -69778.778 115663.125 -69748.435 115658.535 -69717.493 115657 -69686.25 115657 -69048.75 115658.535 -69017.507 115663.125 -68986.565 115670.725 -68956.222 115681.263 -68926.77 115694.638 -68898.492 115710.719 -68871.662 115729.353 -68846.537 115750.36 -68823.36 115773.537 -68802.353 115798.662 -68783.719 115825.492 -68767.638 115853.77 -68754.263 115883.222 -68743.725 115913.565 -68736.125 115944.507 -68731.535 115975.75 -68730 116688.25 -68730 116719.493 -68731.535 116719.493 -68731.535"/><use xlink:href="#g0a1mP-spbYfmmpRsZh3_pad-12" x="116332" y="-69367.5"/><path d="M 116719.493 -67156.535 116750.435 -67161.125 116780.778 -67168.725 116810.23 -67179.263 116838.508 -67192.638 116865.338 -67208.719 116890.463 -67227.353 116913.64 -67248.36 116934.647 -67271.537 116953.281 -67296.662 116969.362 -67323.492 116982.737 -67351.77 116993.275 -67381.222 117000.875 -67411.565 117005.465 -67442.507 117007 -67473.75 117007 -68111.25 117005.465 -68142.493 117000.875 -68173.435 116993.275 -68203.778 116982.737 -68233.23 116969.362 -68261.508 116953.281 -68288.338 116934.647 -68313.463 116913.64 -68336.64 116890.463 -68357.647 116865.338 -68376.281 116838.508 -68392.362 116810.23 -68405.737 116780.778 -68416.275 116750.435 -68423.875 116719.493 -68428.465 116688.25 -68430 115975.75 -68430 115944.507 -68428.465 115913.565 -68423.875 115883.222 -68416.275 115853.77 -68405.737 115825.492 -68392.362 115798.662 -68376.281 115773.537 -68357.647 115750.36 -68336.64 115729.353 -68313.463 115710.719 -68288.338 115694.638 -68261.508 115681.263 -68233.23 115670.725 -68203.778 115663.125 -68173.435 115658.535 -68142.493 115657 -68111.25 115657 -67473.75 115658.535 -67442.507 115663.125 -67411.565 115670.725 -67381.222 115681.263 -67351.77 115694.638 -67323.492 115710.719 -67296.662 115729.353 -67271.537 115750.36 -67248.36 115773.537 -67227.353 115798.662 -67208.719 115825.492 -67192.638 115853.77 -67179.263 115883.222 -67168.725 115913.565 -67161.125 115944.507 -67156.535 115975.75 -67155 116688.25 -67155 116719.493 -67156.535 116719.493 -67156.535"/><use xlink:href="#g0a1mP-spbYfmmpRsZh3_pad-12" x="116332" y="-67792.5"/><path d="M 116719.493 -60552.535 116750.435 -60557.125 116780.778 -60564.725 116810.23 -60575.263 116838.508 -60588.638 116865.338 -60604.719 116890.463 -60623.353 116913.64 -60644.36 116934.647 -60667.537 116953.281 -60692.662 116969.362 -60719.492 116982.737 -60747.77 116993.275 -60777.222 117000.875 -60807.565 117005.465 -60838.507 117007 -60869.75 117007 -61507.25 117005.465 -61538.493 117000.875 -61569.435 116993.275 -61599.778 116982.737 -61629.23 116969.362 -61657.508 116953.281 -61684.338 116934.647 -61709.463 116913.64 -61732.64 116890.463 -61753.647 116865.338 -61772.281 116838.508 -61788.362 116810.23 -61801.737 116780.778 -61812.275 116750.435 -61819.875 116719.493 -61824.465 116688.25 -61826 115975.75 -61826 115944.507 -61824.465 115913.565 -61819.875 115883.222 -61812.275 115853.77 -61801.737 115825.492 -61788.362 115798.662 -61772.281 115773.537 -61753.647 115750.36 -61732.64 115729.353 -61709.463 115710.719 -61684.338 115694.638 -61657.508 115681.263 -61629.23 115670.725 -61599.778 115663.125 -61569.435 115658.535 -61538.493 115657 -61507.25 115657 -60869.75 115658.535 -60838.507 115663.125 -60807.565 115670.725 -60777.222 115681.263 -60747.77 115694.638 -60719.492 115710.719 -60692.662 115729.353 -60667.537 115750.36 -60644.36 115773.537 -60623.353 115798.662 -60604.719 115825.492 -60588.638 115853.77 -60575.263 115883.222 -60564.725 115913.565 -60557.125 115944.507 -60552.535 115975.75 -60551 116688.25 -60551 116719.493 -60552.535 116719.493 -60552.535"/><use xlink:href="#g0a1mP-spbYfmmpRsZh3_pad-12" x="116332" y="-61188.5"/><path d="M 116719.493 -62127.535 116750.435 -62132.125 116780.778 -62139.725 116810.23 -62150.263 116838.508 -62163.638 116865.338 -62179.719 116890.463 -62198.353 116913.64 -62219.36 116934.647 -62242.537 116953.281 -62267.662 116969.362 -62294.492 116982.737 -62322.77 116993.275 -62352.222 117000.875 -62382.565 117005.465 -62413.507 117007 -62444.75 117007 -63082.25 117005.465 -63113.493 117000.875 -63144.435 116993.275 -63174.778 116982.737 -63204.23 116969.362 -63232.508 116953.281 -63259.338 116934.647 -63284.463 116913.64 -63307.64 116890.463 -63328.647 116865.338 -63347.281 116838.508 -63363.362 116810.23 -63376.737 116780.778 -63387.275 116750.435 -63394.875 116719.493 -63399.465 116688.25 -63401 115975.75 -63401 115944.507 -63399.465 115913.565 -63394.875 115883.222 -63387.275 115853.77 -63376.737 115825.492 -63363.362 115798.662 -63347.281 115773.537 -63328.647 115750.36 -63307.64 115729.353 -63284.463 115710.719 -63259.338 115694.638 -63232.508 115681.263 -63204.23 115670.725 -63174.778 115663.125 -63144.435 115658.535 -63113.493 115657 -63082.25 115657 -62444.75 115658.535 -62413.507 115663.125 -62382.565 115670.725 -62352.222 115681.263 -62322.77 115694.638 -62294.492 115710.719 -62267.662 115729.353 -62242.537 115750.36 -62219.36 115773.537 -62198.353 115798.662 -62179.719 115825.492 -62163.638 115853.77 -62150.263 115883.222 -62139.725 115913.565 -62132.125 115944.507 -62127.535 115975.75 -62126 116688.25 -62126 116719.493 -62127.535 116719.493 -62127.535"/><use xlink:href="#g0a1mP-spbYfmmpRsZh3_pad-12" x="116332" y="-62763.5"/><use xlink:href="#g0a1mP-spbYfmmpRsZh3_pad-13" x="106232" y="-79770"/><use xlink:href="#g0a1mP-spbYfmmpRsZh3_pad-13" x="108732" y="-79770"/><use xlink:href="#g0a1mP-spbYfmmpRsZh3_pad-13" x="111232" y="-79770"/><use xlink:href="#g0a1mP-spbYfmmpRsZh3_pad-13" x="113732" y="-79770"/><use xlink:href="#g0a1mP-spbYfmmpRsZh3_pad-13" x="113732" y="-49770"/><use xlink:href="#g0a1mP-spbYfmmpRsZh3_pad-13" x="108732" y="-49770"/></g><g id="UIWoGBYVR6z2682zCga-_top_solderpaste"><path d="M 116609.691 -68931.053 116630.926 -68934.203 116651.75 -68939.419 116671.962 -68946.651 116691.368 -68955.83 116709.781 -68966.866 116727.024 -68979.654 116742.93 -68994.07 116757.346 -69009.976 116770.134 -69027.219 116781.17 -69045.632 116790.349 -69065.038 116797.581 -69085.25 116802.797 -69106.074 116805.947 -69127.309 116807 -69148.75 116807 -69586.25 116805.947 -69607.691 116802.797 -69628.926 116797.581 -69649.75 116790.349 -69669.962 116781.17 -69689.368 116770.134 -69707.781 116757.346 -69725.024 116742.93 -69740.93 116727.024 -69755.346 116709.781 -69768.134 116691.368 -69779.17 116671.962 -69788.349 116651.75 -69795.581 116630.926 -69800.797 116609.691 -69803.947 116588.25 -69805 116075.75 -69805 116054.309 -69803.947 116033.074 -69800.797 116012.25 -69795.581 115992.038 -69788.349 115972.632 -69779.17 115954.219 -69768.134 115936.976 -69755.346 115921.07 -69740.93 115906.654 -69725.024 115893.866 -69707.781 115882.83 -69689.368 115873.651 -69669.962 115866.419 -69649.75 115861.203 -69628.926 115858.053 -69607.691 115857 -69586.25 115857 -69148.75 115858.053 -69127.309 115861.203 -69106.074 115866.419 -69085.25 115873.651 -69065.038 115882.83 -69045.632 115893.866 -69027.219 115906.654 -69009.976 115921.07 -68994.07 115936.976 -68979.654 115954.219 -68966.866 115972.632 -68955.83 115992.038 -68946.651 116012.25 -68939.419 116033.074 -68934.203 116054.309 -68931.053 116075.75 -68930 116588.25 -68930 116609.691 -68931.053 116609.691 -68931.053"/><use xlink:href="#pL63FL6rutQmCi8ka1JE_pad-11" x="116332" y="-69367.5"/><path d="M 116609.691 -67356.053 116630.926 -67359.203 116651.75 -67364.419 116671.962 -67371.651 116691.368 -67380.83 116709.781 -67391.866 116727.024 -67404.654 116742.93 -67419.07 116757.346 -67434.976 116770.134 -67452.219 116781.17 -67470.632 116790.349 -67490.038 116797.581 -67510.25 116802.797 -67531.074 116805.947 -67552.309 116807 -67573.75 116807 -68011.25 116805.947 -68032.691 116802.797 -68053.926 116797.581 -68074.75 116790.349 -68094.962 116781.17 -68114.368 116770.134 -68132.781 116757.346 -68150.024 116742.93 -68165.93 116727.024 -68180.346 116709.781 -68193.134 116691.368 -68204.17 116671.962 -68213.349 116651.75 -68220.581 116630.926 -68225.797 116609.691 -68228.947 116588.25 -68230 116075.75 -68230 116054.309 -68228.947 116033.074 -68225.797 116012.25 -68220.581 115992.038 -68213.349 115972.632 -68204.17 115954.219 -68193.134 115936.976 -68180.346 115921.07 -68165.93 115906.654 -68150.024 115893.866 -68132.781 115882.83 -68114.368 115873.651 -68094.962 115866.419 -68074.75 115861.203 -68053.926 115858.053 -68032.691 115857 -68011.25 115857 -67573.75 115858.053 -67552.309 115861.203 -67531.074 115866.419 -67510.25 115873.651 -67490.038 115882.83 -67470.632 115893.866 -67452.219 115906.654 -67434.976 115921.07 -67419.07 115936.976 -67404.654 115954.219 -67391.866 115972.632 -67380.83 115992.038 -67371.651 116012.25 -67364.419 116033.074 -67359.203 116054.309 -67356.053 116075.75 -67355 116588.25 -67355 116609.691 -67356.053 116609.691 -67356.053"/><use xlink:href="#pL63FL6rutQmCi8ka1JE_pad-11" x="116332" y="-67792.5"/><path d="M 116609.691 -60752.053 116630.926 -60755.203 116651.75 -60760.419 116671.962 -60767.651 116691.368 -60776.83 116709.781 -60787.866 116727.024 -60800.654 116742.93 -60815.07 116757.346 -60830.976 116770.134 -60848.219 116781.17 -60866.632 116790.349 -60886.038 116797.581 -60906.25 116802.797 -60927.074 116805.947 -60948.309 116807 -60969.75 116807 -61407.25 116805.947 -61428.691 116802.797 -61449.926 116797.581 -61470.75 116790.349 -61490.962 116781.17 -61510.368 116770.134 -61528.781 116757.346 -61546.024 116742.93 -61561.93 116727.024 -61576.346 116709.781 -61589.134 116691.368 -61600.17 116671.962 -61609.349 116651.75 -61616.581 116630.926 -61621.797 116609.691 -61624.947 116588.25 -61626 116075.75 -61626 116054.309 -61624.947 116033.074 -61621.797 116012.25 -61616.581 115992.038 -61609.349 115972.632 -61600.17 115954.219 -61589.134 115936.976 -61576.346 115921.07 -61561.93 115906.654 -61546.024 115893.866 -61528.781 115882.83 -61510.368 115873.651 -61490.962 115866.419 -61470.75 115861.203 -61449.926 115858.053 -61428.691 115857 -61407.25 115857 -60969.75 115858.053 -60948.309 115861.203 -60927.074 115866.419 -60906.25 115873.651 -60886.038 115882.83 -60866.632 115893.866 -60848.219 115906.654 -60830.976 115921.07 -60815.07 115936.976 -60800.654 115954.219 -60787.866 115972.632 -60776.83 115992.038 -60767.651 116012.25 -60760.419 116033.074 -60755.203 116054.309 -60752.053 116075.75 -60751 116588.25 -60751 116609.691 -60752.053 116609.691 -60752.053"/><use xlink:href="#pL63FL6rutQmCi8ka1JE_pad-11" x="116332" y="-61188.5"/><path d="M 116609.691 -62327.053 116630.926 -62330.203 116651.75 -62335.419 116671.962 -62342.651 116691.368 -62351.83 116709.781 -62362.866 116727.024 -62375.654 116742.93 -62390.07 116757.346 -62405.976 116770.134 -62423.219 116781.17 -62441.632 116790.349 -62461.038 116797.581 -62481.25 116802.797 -62502.074 116805.947 -62523.309 116807 -62544.75 116807 -62982.25 116805.947 -63003.691 116802.797 -63024.926 116797.581 -63045.75 116790.349 -63065.962 116781.17 -63085.368 116770.134 -63103.781 116757.346 -63121.024 116742.93 -63136.93 116727.024 -63151.346 116709.781 -63164.134 116691.368 -63175.17 116671.962 -63184.349 116651.75 -63191.581 116630.926 -63196.797 116609.691 -63199.947 116588.25 -63201 116075.75 -63201 116054.309 -63199.947 116033.074 -63196.797 116012.25 -63191.581 115992.038 -63184.349 115972.632 -63175.17 115954.219 -63164.134 115936.976 -63151.346 115921.07 -63136.93 115906.654 -63121.024 115893.866 -63103.781 115882.83 -63085.368 115873.651 -63065.962 115866.419 -63045.75 115861.203 -63024.926 115858.053 -63003.691 115857 -62982.25 115857 -62544.75 115858.053 -62523.309 115861.203 -62502.074 115866.419 -62481.25 115873.651 -62461.038 115882.83 -62441.632 115893.866 -62423.219 115906.654 -62405.976 115921.07 -62390.07 115936.976 -62375.654 115954.219 -62362.866 115972.632 -62351.83 115992.038 -62342.651 116012.25 -62335.419 116033.074 -62330.203 116054.309 -62327.053 116075.75 -62326 116588.25 -62326 116609.691 -62327.053 116609.691 -62327.053"/><use xlink:href="#pL63FL6rutQmCi8ka1JE_pad-11" x="116332" y="-62763.5"/></g><g id="UIWoGBYVR6z2682zCga-_top_drill1"><use xlink:href="#ALGdSkRK9zdt62PuBWIy_pad-1" x="116340" y="-73160"/><use xlink:href="#ALGdSkRK9zdt62PuBWIy_pad-1" x="116340" y="-57920"/><use xlink:href="#ALGdSkRK9zdt62PuBWIy_pad-1" x="103640" y="-73160"/><use xlink:href="#ALGdSkRK9zdt62PuBWIy_pad-1" x="103640" y="-57920"/><use xlink:href="#ALGdSkRK9zdt62PuBWIy_pad-2" x="106232" y="-79770"/><use xlink:href="#ALGdSkRK9zdt62PuBWIy_pad-2" x="108732" y="-49770"/><use xlink:href="#ALGdSkRK9zdt62PuBWIy_pad-2" x="108732" y="-79770"/><use xlink:href="#ALGdSkRK9zdt62PuBWIy_pad-2" x="111232" y="-79770"/><use xlink:href="#ALGdSkRK9zdt62PuBWIy_pad-2" x="113732" y="-49770"/><use xlink:href="#ALGdSkRK9zdt62PuBWIy_pad-2" x="113732" y="-79770"/></g><clipPath id="UIWoGBYVR6z2682zCga-_top_outline"><path d="M 116000 -56000 118000 -56000 118000 -75000 116000 -75000 116000 -82500 104000 -82500 104000 -75000 101000 -75000 101000 -56000 104000 -56000 104000 -47000 116000 -47000 116000 -56000" fill="none" stroke-width="150"/></clipPath><mask id="UIWoGBYVR6z2682zCga-_top_mech-mask"><g fill="#000" stroke="#000"><rect x="101000" y="-82500" width="17000" height="35500" fill="#fff"/><use xlink:href="#UIWoGBYVR6z2682zCga-_top_drill1"/></g></mask><mask id="UIWoGBYVR6z2682zCga-_top_cf-mask"><g fill="#fff" stroke="#fff"><use xlink:href="#UIWoGBYVR6z2682zCga-_top_soldermask"/></g></mask><mask id="UIWoGBYVR6z2682zCga-_top_sm-mask"><g fill="#000" stroke="#000"><rect x="101000" y="-82500" width="17000" height="35500" fill="#fff"/><use xlink:href="#UIWoGBYVR6z2682zCga-_top_soldermask"/></g></mask></defs><g transform="translate(0,-129500) scale(1,-1)"><g mask="url(#UIWoGBYVR6z2682zCga-_top_mech-mask)" clip-path="url(#UIWoGBYVR6z2682zCga-_top_outline)"><rect x="101000" y="-82500" width="17000" height="35500" fill="currentColor" class="UIWoGBYVR6z2682zCga-_fr4"/><use xlink:href="#UIWoGBYVR6z2682zCga-_top_copper" fill="currentColor" stroke="currentColor" class="UIWoGBYVR6z2682zCga-_cu"/><use xlink:href="#UIWoGBYVR6z2682zCga-_top_copper" fill="currentColor" stroke="currentColor" class="UIWoGBYVR6z2682zCga-_cf" mask="url(#UIWoGBYVR6z2682zCga-_top_cf-mask)"/><g mask="url(#UIWoGBYVR6z2682zCga-_top_sm-mask)"><rect x="101000" y="-82500" width="17000" height="35500" fill="currentColor" class="UIWoGBYVR6z2682zCga-_sm"/><use xlink:href="#UIWoGBYVR6z2682zCga-_top_silkscreen" fill="currentColor" stroke="currentColor" class="UIWoGBYVR6z2682zCga-_ss"/></g><use xlink:href="#UIWoGBYVR6z2682zCga-_top_solderpaste" fill="currentColor" stroke="currentColor" class="UIWoGBYVR6z2682zCga-_sp"/></g></g></svg>