<svg version="1.1" xmlns="http://www.w3.org/2000/svg" xmlns:xlink="http://www.w3.org/1999/xlink" stroke-linecap="round" stroke-linejoin="round" stroke-width="0" fill-rule="evenodd" clip-rule="evenodd" id="drWAf9hmVb05gsuAN5EF_top" viewBox="114500 -97000 37000 21500" width="37mm" height="21.5mm" class="w-100 h-100"><defs><style>.drWAf9hmVb05gsuAN5EF_fr4 {color: #666666;}
.drWAf9hmVb05gsuAN5EF_cu {color: #cccccc;}
.drWAf9hmVb05gsuAN5EF_cf {color: #cc9933;}
.drWAf9hmVb05gsuAN5EF_sm {color: #004200; opacity: 0.75;}
.drWAf9hmVb05gsuAN5EF_ss {color: #ffffff;}
.drWAf9hmVb05gsuAN5EF_sp {color: #999999;}
.drWAf9hmVb05gsuAN5EF_out {color: #000000;}</style><rect x="-850" y="-850" width="1700" height="1700" rx="850" ry="850" id="tUNBQqzgIR9kTLpGfhKG_pad-10"/><rect x="-863.6" y="-863.6" width="1727.2" height="1727.2" id="tUNBQqzgIR9kTLpGfhKG_pad-11"/><rect x="-863.6" y="-863.6" width="1727.2" height="1727.2" rx="863.6" ry="863.6" id="tUNBQqzgIR9kTLpGfhKG_pad-12"/><rect x="-1300" y="-800" width="2600" height="1600" id="tUNBQqzgIR9kTLpGfhKG_pad-13"/><rect x="-600" y="-450" width="1200" height="900" id="tUNBQqzgIR9kTLpGfhKG_pad-14"/><circle cx="0" cy="0" r="437.5" id="tUNBQqzgIR9kTLpGfhKG_pad-16"/><circle cx="0" cy="0" r="175" id="tUNBQqzgIR9kTLpGfhKG_pad-19"/><rect x="-1050" y="-1050" width="2100" height="2100" rx="1050" ry="1050" id="tl6DYua83HL25NuN8mBd_pad-10"/><rect x="-1063.6" y="-1063.6" width="2127.2" height="2127.2" id="tl6DYua83HL25NuN8mBd_pad-11"/><rect x="-1063.6" y="-1063.6" width="2127.2" height="2127.2" rx="1063.6" ry="1063.6" id="tl6DYua83HL25NuN8mBd_pad-12"/><rect x="-1500" y="-1000" width="3000" height="2000" id="tl6DYua83HL25NuN8mBd_pad-13"/><rect x="-800" y="-650" width="1600" height="1300" id="tl6DYua83HL25NuN8mBd_pad-14"/><circle cx="0" cy="0" r="637.5" id="tl6DYua83HL25NuN8mBd_pad-16"/><rect x="-1300" y="-800" width="2600" height="1600" id="yj2cT-crPllmIeVQx_7E_pad-10"/><rect x="-600" y="-450" width="1200" height="900" id="yj2cT-crPllmIeVQx_7E_pad-11"/><circle cx="0" cy="0" r="437.5" id="yj2cT-crPllmIeVQx_7E_pad-13"/><circle cx="0" cy="0" r="500" id="IxixiROrUcrGrvZKP1dk_pad-1"/><circle cx="0" cy="0" r="508" id="IxixiROrUcrGrvZKP1dk_pad-2"/><g id="drWAf9hmVb05gsuAN5EF_top_copper"><use xlink:href="#tUNBQqzgIR9kTLpGfhKG_pad-10" x="137160" y="-88900"/><use xlink:href="#tUNBQqzgIR9kTLpGfhKG_pad-10" x="139700" y="-88900"/><use xlink:href="#tUNBQqzgIR9kTLpGfhKG_pad-10" x="142240" y="-88900"/><use xlink:href="#tUNBQqzgIR9kTLpGfhKG_pad-10" x="144780" y="-88900"/><use xlink:href="#tUNBQqzgIR9kTLpGfhKG_pad-10" x="147320" y="-88900"/><use xlink:href="#tUNBQqzgIR9kTLpGfhKG_pad-10" x="149860" y="-88900"/><use xlink:href="#tUNBQqzgIR9kTLpGfhKG_pad-10" x="149860" y="-81280"/><use xlink:href="#tUNBQqzgIR9kTLpGfhKG_pad-10" x="147320" y="-81280"/><use xlink:href="#tUNBQqzgIR9kTLpGfhKG_pad-10" x="144780" y="-81280"/><use xlink:href="#tUNBQqzgIR9kTLpGfhKG_pad-10" x="142240" y="-81280"/><use xlink:href="#tUNBQqzgIR9kTLpGfhKG_pad-10" x="139700" y="-81280"/><use xlink:href="#tUNBQqzgIR9kTLpGfhKG_pad-10" x="137160" y="-81280"/><use xlink:href="#tUNBQqzgIR9kTLpGfhKG_pad-11" x="118110" y="-81280"/><use xlink:href="#tUNBQqzgIR9kTLpGfhKG_pad-12" x="120650" y="-81280"/><use xlink:href="#tUNBQqzgIR9kTLpGfhKG_pad-12" x="118110" y="-83820"/><use xlink:href="#tUNBQqzgIR9kTLpGfhKG_pad-12" x="120650" y="-83820"/><use xlink:href="#tUNBQqzgIR9kTLpGfhKG_pad-12" x="118110" y="-86360"/><use xlink:href="#tUNBQqzgIR9kTLpGfhKG_pad-12" x="120650" y="-86360"/><use xlink:href="#tUNBQqzgIR9kTLpGfhKG_pad-12" x="118110" y="-88900"/><use xlink:href="#tUNBQqzgIR9kTLpGfhKG_pad-12" x="120650" y="-88900"/><use xlink:href="#tUNBQqzgIR9kTLpGfhKG_pad-12" x="118110" y="-91440"/><use xlink:href="#tUNBQqzgIR9kTLpGfhKG_pad-12" x="120650" y="-91440"/><use xlink:href="#tUNBQqzgIR9kTLpGfhKG_pad-13" x="135150" y="-92075"/><use xlink:href="#tUNBQqzgIR9kTLpGfhKG_pad-13" x="131550" y="-92075"/><use xlink:href="#tUNBQqzgIR9kTLpGfhKG_pad-13" x="130915" y="-78740"/><use xlink:href="#tUNBQqzgIR9kTLpGfhKG_pad-13" x="134515" y="-78740"/><use xlink:href="#tUNBQqzgIR9kTLpGfhKG_pad-14" x="125730" y="-93725"/><use xlink:href="#tUNBQqzgIR9kTLpGfhKG_pad-14" x="125730" y="-90425"/><use xlink:href="#tUNBQqzgIR9kTLpGfhKG_pad-14" x="125730" y="-78360"/><use xlink:href="#tUNBQqzgIR9kTLpGfhKG_pad-14" x="125730" y="-81660"/><path d="M 129932.691 -93506.053 129953.926 -93509.203 129974.75 -93514.419 129994.962 -93521.651 130014.368 -93530.83 130032.781 -93541.866 130050.024 -93554.654 130065.93 -93569.07 130080.346 -93584.976 130093.134 -93602.219 130104.17 -93620.632 130113.349 -93640.038 130120.581 -93660.25 130125.797 -93681.074 130128.947 -93702.309 130130 -93723.75 130130 -94236.25 130128.947 -94257.691 130125.797 -94278.926 130120.581 -94299.75 130113.349 -94319.962 130104.17 -94339.368 130093.134 -94357.781 130080.346 -94375.024 130065.93 -94390.93 130050.024 -94405.346 130032.781 -94418.134 130014.368 -94429.17 129994.962 -94438.349 129974.75 -94445.581 129953.926 -94450.797 129932.691 -94453.947 129911.25 -94455 129473.75 -94455 129452.309 -94453.947 129431.074 -94450.797 129410.25 -94445.581 129390.038 -94438.349 129370.632 -94429.17 129352.219 -94418.134 129334.976 -94405.346 129319.07 -94390.93 129304.654 -94375.024 129291.866 -94357.781 129280.83 -94339.368 129271.651 -94319.962 129264.419 -94299.75 129259.203 -94278.926 129256.053 -94257.691 129255 -94236.25 129255 -93723.75 129256.053 -93702.309 129259.203 -93681.074 129264.419 -93660.25 129271.651 -93640.038 129280.83 -93620.632 129291.866 -93602.219 129304.654 -93584.976 129319.07 -93569.07 129334.976 -93554.654 129352.219 -93541.866 129370.632 -93530.83 129390.038 -93521.651 129410.25 -93514.419 129431.074 -93509.203 129452.309 -93506.053 129473.75 -93505 129911.25 -93505 129932.691 -93506.053 129932.691 -93506.053"/><use xlink:href="#tUNBQqzgIR9kTLpGfhKG_pad-16" x="129692.5" y="-93980"/><path d="M 128357.691 -93506.053 128378.926 -93509.203 128399.75 -93514.419 128419.962 -93521.651 128439.368 -93530.83 128457.781 -93541.866 128475.024 -93554.654 128490.93 -93569.07 128505.346 -93584.976 128518.134 -93602.219 128529.17 -93620.632 128538.349 -93640.038 128545.581 -93660.25 128550.797 -93681.074 128553.947 -93702.309 128555 -93723.75 128555 -94236.25 128553.947 -94257.691 128550.797 -94278.926 128545.581 -94299.75 128538.349 -94319.962 128529.17 -94339.368 128518.134 -94357.781 128505.346 -94375.024 128490.93 -94390.93 128475.024 -94405.346 128457.781 -94418.134 128439.368 -94429.17 128419.962 -94438.349 128399.75 -94445.581 128378.926 -94450.797 128357.691 -94453.947 128336.25 -94455 127898.75 -94455 127877.309 -94453.947 127856.074 -94450.797 127835.25 -94445.581 127815.038 -94438.349 127795.632 -94429.17 127777.219 -94418.134 127759.976 -94405.346 127744.07 -94390.93 127729.654 -94375.024 127716.866 -94357.781 127705.83 -94339.368 127696.651 -94319.962 127689.419 -94299.75 127684.203 -94278.926 127681.053 -94257.691 127680 -94236.25 127680 -93723.75 127681.053 -93702.309 127684.203 -93681.074 127689.419 -93660.25 127696.651 -93640.038 127705.83 -93620.632 127716.866 -93602.219 127729.654 -93584.976 127744.07 -93569.07 127759.976 -93554.654 127777.219 -93541.866 127795.632 -93530.83 127815.038 -93521.651 127835.25 -93514.419 127856.074 -93509.203 127877.309 -93506.053 127898.75 -93505 128336.25 -93505 128357.691 -93506.053 128357.691 -93506.053"/><use xlink:href="#tUNBQqzgIR9kTLpGfhKG_pad-16" x="128117.5" y="-93980"/><path d="M 127722.691 -76361.053 127743.926 -76364.203 127764.75 -76369.419 127784.962 -76376.651 127804.368 -76385.83 127822.781 -76396.866 127840.024 -76409.654 127855.93 -76424.07 127870.346 -76439.976 127883.134 -76457.219 127894.17 -76475.632 127903.349 -76495.038 127910.581 -76515.25 127915.797 -76536.074 127918.947 -76557.309 127920 -76578.75 127920 -77091.25 127918.947 -77112.691 127915.797 -77133.926 127910.581 -77154.75 127903.349 -77174.962 127894.17 -77194.368 127883.134 -77212.781 127870.346 -77230.024 127855.93 -77245.93 127840.024 -77260.346 127822.781 -77273.134 127804.368 -77284.17 127784.962 -77293.349 127764.75 -77300.581 127743.926 -77305.797 127722.691 -77308.947 127701.25 -77310 127263.75 -77310 127242.309 -77308.947 127221.074 -77305.797 127200.25 -77300.581 127180.038 -77293.349 127160.632 -77284.17 127142.219 -77273.134 127124.976 -77260.346 127109.07 -77245.93 127094.654 -77230.024 127081.866 -77212.781 127070.83 -77194.368 127061.651 -77174.962 127054.419 -77154.75 127049.203 -77133.926 127046.053 -77112.691 127045 -77091.25 127045 -76578.75 127046.053 -76557.309 127049.203 -76536.074 127054.419 -76515.25 127061.651 -76495.038 127070.83 -76475.632 127081.866 -76457.219 127094.654 -76439.976 127109.07 -76424.07 127124.976 -76409.654 127142.219 -76396.866 127160.632 -76385.83 127180.038 -76376.651 127200.25 -76369.419 127221.074 -76364.203 127242.309 -76361.053 127263.75 -76360 127701.25 -76360 127722.691 -76361.053 127722.691 -76361.053"/><use xlink:href="#tUNBQqzgIR9kTLpGfhKG_pad-16" x="127482.5" y="-76835"/><path d="M 129297.691 -76361.053 129318.926 -76364.203 129339.75 -76369.419 129359.962 -76376.651 129379.368 -76385.83 129397.781 -76396.866 129415.024 -76409.654 129430.93 -76424.07 129445.346 -76439.976 129458.134 -76457.219 129469.17 -76475.632 129478.349 -76495.038 129485.581 -76515.25 129490.797 -76536.074 129493.947 -76557.309 129495 -76578.75 129495 -77091.25 129493.947 -77112.691 129490.797 -77133.926 129485.581 -77154.75 129478.349 -77174.962 129469.17 -77194.368 129458.134 -77212.781 129445.346 -77230.024 129430.93 -77245.93 129415.024 -77260.346 129397.781 -77273.134 129379.368 -77284.17 129359.962 -77293.349 129339.75 -77300.581 129318.926 -77305.797 129297.691 -77308.947 129276.25 -77310 128838.75 -77310 128817.309 -77308.947 128796.074 -77305.797 128775.25 -77300.581 128755.038 -77293.349 128735.632 -77284.17 128717.219 -77273.134 128699.976 -77260.346 128684.07 -77245.93 128669.654 -77230.024 128656.866 -77212.781 128645.83 -77194.368 128636.651 -77174.962 128629.419 -77154.75 128624.203 -77133.926 128621.053 -77112.691 128620 -77091.25 128620 -76578.75 128621.053 -76557.309 128624.203 -76536.074 128629.419 -76515.25 128636.651 -76495.038 128645.83 -76475.632 128656.866 -76457.219 128669.654 -76439.976 128684.07 -76424.07 128699.976 -76409.654 128717.219 -76396.866 128735.632 -76385.83 128755.038 -76376.651 128775.25 -76369.419 128796.074 -76364.203 128817.309 -76361.053 128838.75 -76360 129276.25 -76360 129297.691 -76361.053 129297.691 -76361.053"/><use xlink:href="#tUNBQqzgIR9kTLpGfhKG_pad-16" x="129057.5" y="-76835"/><path d="M 136255 -92075 135150 -92075 M 137160 -91170 136255 -92075 M 137160 -88900 137160 -91170 M 135150 -93510 135150 -92075 M 134680 -93980 135150 -93510 M 129692.5 -93980 134680 -93980 M 137160 -88900 142240 -88900 M 144780 -81280 149860 -81280 M 129057.5 -76882.5 130915 -78740 M 129057.5 -76835 129057.5 -76882.5 M 141037.919 -81280 142240 -81280 M 132020 -81280 141037.919 -81280 M 130915 -80175 132020 -81280 M 130915 -78740 130915 -80175 M 125985 -93980 125730 -93725 M 128117.5 -93980 125985 -93980 M 128117.5 -93980 128117.5 -94627.5 M 129000 -95510 134900 -95510 139800 -90610 M 128117.5 -94627.5 129000 -95510 M 144780 -88900 149860 -88900 M 143070 -90610 144780 -88900 M 139800 -90610 143070 -90610 M 124715 -91440 125730 -90425 M 118110 -91440 124715 -91440 M 125730 -77950 125730 -78360 M 126845 -76835 125730 -77950 M 127482.5 -76835 126845 -76835 M 118110 -81280 120650 -81280 M 125350 -81280 125730 -81660 M 120650 -81280 125350 -81280" fill="none" stroke-width="635"/><path d="M 126105.145 -76227.817 125122.819 -77210.143 125043.286 -77263.286 125030.554 -77282.341 124882.235 -77311.843 124672.191 -77452.191 124531.843 -77662.235 124482.56 -77910 124482.56 -78810 124531.843 -79057.765 124672.191 -79267.809 124882.235 -79408.157 125130 -79457.44 126330 -79457.44 126577.765 -79408.157 126787.809 -79267.809 126928.157 -79057.765 126977.44 -78810 126977.44 -78049.598 127101.81 -77925.228 127263.75 -77957.44 127701.25 -77957.44 128032.727 -77891.505 128270 -77732.964 128507.273 -77891.505 128772.156 -77944.194 128967.56 -78139.598 128967.56 -79540 129016.843 -79787.765 129157.191 -79997.809 129367.235 -80138.157 129615 -80187.44 129946.314 -80187.44 130017.765 -80546.646 130075.733 -80633.401 130228.287 -80861.714 130307.817 -80914.854 131280.145 -81887.183 131333.286 -81966.714 131648.353 -82177.235 132020 -82251.16 132113.81 -82232.5 136010.446 -82232.5 136089.375 -82350.625 136580.582 -82678.839 137013.744 -82765 137306.256 -82765 137739.418 -82678.839 138230.625 -82350.625 138309.554 -82232.5 138550.446 -82232.5 138629.375 -82350.625 139120.582 -82678.839 139553.744 -82765 139846.256 -82765 140279.418 -82678.839 140770.625 -82350.625 140849.554 -82232.5 141090.446 -82232.5 141169.375 -82350.625 141660.582 -82678.839 142093.744 -82765 142386.256 -82765 142819.418 -82678.839 143310.625 -82350.625 143523.843 -82031.522 143584.817 -82161.358 144013.076 -82551.645 144423.11 -82721.476 144653 -82600.155 144653 -81407 144907 -81407 144907 -82600.155 145136.89 -82721.476 145546.924 -82551.645 145975.183 -82161.358 146050 -82002.046 146124.817 -82161.358 146553.076 -82551.645 146963.11 -82721.476 147193 -82600.155 147193 -81407 147447 -81407 147447 -82600.155 147676.89 -82721.476 148086.924 -82551.645 148515.183 -82161.358 148590 -82002.046 148664.817 -82161.358 149093.076 -82551.645 149503.11 -82721.476 149733 -82600.155 149733 -81407 147447 -81407 147193 -81407 144907 -81407 144653 -81407 144633 -81407 144633 -81153 144653 -81153 144653 -79959.845 144907 -79959.845 144907 -81153 147193 -81153 147193 -79959.845 147447 -79959.845 147447 -81153 149733 -81153 149733 -79959.845 149503.11 -79838.524 149093.076 -80008.355 148664.817 -80398.642 148590 -80557.954 148515.183 -80398.642 148086.924 -80008.355 147676.89 -79838.524 147447 -79959.845 147193 -79959.845 146963.11 -79838.524 146553.076 -80008.355 146124.817 -80398.642 146050 -80557.954 145975.183 -80398.642 145546.924 -80008.355 145136.89 -79838.524 144907 -79959.845 144653 -79959.845 144423.11 -79838.524 144013.076 -80008.355 143584.817 -80398.642 143523.843 -80528.478 143310.625 -80209.375 142819.418 -79881.161 142386.256 -79795 142093.744 -79795 141660.582 -79881.161 141169.375 -80209.375 141090.446 -80327.5 140849.554 -80327.5 140770.625 -80209.375 140279.418 -79881.161 139846.256 -79795 139553.744 -79795 139120.582 -79881.161 138629.375 -80209.375 138550.446 -80327.5 138309.554 -80327.5 138230.625 -80209.375 137739.418 -79881.161 137306.256 -79795 137013.744 -79795 136580.582 -79881.161 136089.375 -80209.375 136010.446 -80327.5 132414.538 -80327.5 132264.61 -80177.572 132462.765 -80138.157 132672.809 -79997.809 132713.654 -79936.68 132855.302 -80078.327 133088.691 -80175 134229.25 -80175 134388 -80016.25 134388 -78867 134642 -78867 134642 -80016.25 134800.75 -80175 135941.309 -80175 136174.698 -80078.327 136353.327 -79899.699 136450 -79666.31 136450 -79025.75 136291.25 -78867 134642 -78867 134388 -78867 134368 -78867 134368 -78613 134388 -78613 134388 -77463.75 134642 -77463.75 134642 -78613 136291.25 -78613 136450 -78454.25 136450 -77813.69 136353.327 -77580.301 136174.698 -77401.673 135941.309 -77305 134800.75 -77305 134642 -77463.75 134388 -77463.75 134229.25 -77305 133088.691 -77305 132855.302 -77401.673 132713.654 -77543.32 132672.809 -77482.191 132462.765 -77341.843 132215 -77292.56 130814.598 -77292.56 130142.44 -76620.403 130142.44 -76578.75 130076.505 -76247.273 130051.6 -76210 135705.91 -76210 138448.51 -78952.602 138488.119 -79011.881 138722.972 -79168.805 138899.106 -79203.84 139000 -79223.909 139069.926 -79210 150790 -79210 150790 -80156.972 150626.924 -80008.355 150216.89 -79838.524 149987 -79959.845 149987 -81153 150007 -81153 150007 -81407 149987 -81407 149987 -82600.155 150216.89 -82721.476 150626.924 -82551.645 150790 -82403.028 150790.001 -87735.413 150439.418 -87501.161 150006.256 -87415 149713.744 -87415 149280.582 -87501.161 148789.375 -87829.375 148710.446 -87947.5 148469.554 -87947.5 148390.625 -87829.375 147899.418 -87501.161 147466.256 -87415 147173.744 -87415 146740.582 -87501.161 146249.375 -87829.375 146170.446 -87947.5 145929.554 -87947.5 145850.625 -87829.375 145359.418 -87501.161 144926.256 -87415 144633.744 -87415 144200.582 -87501.161 143709.375 -87829.375 143510 -88127.761 143310.625 -87829.375 142819.418 -87501.161 142386.256 -87415 142093.744 -87415 141660.582 -87501.161 141169.375 -87829.375 141090.446 -87947.5 140849.554 -87947.5 140770.625 -87829.375 140279.418 -87501.161 139846.256 -87415 139553.744 -87415 139120.582 -87501.161 138629.375 -87829.375 138550.446 -87947.5 138309.554 -87947.5 138230.625 -87829.375 137739.418 -87501.161 137306.256 -87415 137013.744 -87415 136580.582 -87501.161 136089.375 -87829.375 135761.161 -88320.582 135645.908 -88900 135761.161 -89479.418 136089.375 -89970.625 136207.501 -90049.554 136207.501 -90627.56 133850 -90627.56 133602.235 -90676.843 133392.191 -90817.191 133351.346 -90878.32 133209.698 -90736.673 132976.309 -90640 131835.75 -90640 131677 -90798.75 131677 -91948 131697 -91948 131697 -92202 131677 -92202 131677 -92222 131423 -92222 131423 -92202 129773.75 -92202 129615 -92360.75 129615 -92857.56 129473.75 -92857.56 129142.273 -92923.495 128905 -93082.036 128667.727 -92923.495 128336.25 -92857.56 127898.75 -92857.56 127567.273 -92923.495 127411.618 -93027.5 126928.21 -93027.5 126928.157 -93027.235 126787.809 -92817.191 126577.765 -92676.843 126330 -92627.56 125130 -92627.56 124882.235 -92676.843 124672.191 -92817.191 124531.843 -93027.235 124482.56 -93275 124482.56 -94175 124531.843 -94422.765 124672.191 -94632.809 124882.235 -94773.157 125130 -94822.44 125531.346 -94822.44 125613.353 -94877.235 125891.19 -94932.5 125891.194 -94932.5 125984.999 -94951.159 126078.804 -94932.5 127207.008 -94932.5 127220.265 -94999.146 127220.266 -94999.147 127430.787 -95314.214 127510.317 -95367.354 128260.145 -96117.183 128313.286 -96196.714 128452.898 -96290 115210 -96290 115210 -91440 116582.041 -91440 116698.35 -92024.725 117029.57 -92520.43 117525.275 -92851.65 117962.402 -92938.6 118257.598 -92938.6 118694.725 -92851.65 119190.43 -92520.43 119275.91 -92392.5 119484.09 -92392.5 119569.57 -92520.43 120065.275 -92851.65 120502.402 -92938.6 120797.598 -92938.6 121234.725 -92851.65 121730.43 -92520.43 121815.91 -92392.5 124621.19 -92392.5 124715 -92411.16 124808.81 -92392.5 125086.647 -92337.235 125401.714 -92126.714 125454.856 -92047.181 125979.598 -91522.44 126330 -91522.44 126577.765 -91473.157 126787.809 -91332.809 126910.834 -91148.69 129615 -91148.69 129615 -91789.25 129773.75 -91948 131423 -91948 131423 -90798.75 131264.25 -90640 130123.691 -90640 129890.302 -90736.673 129711.673 -90915.301 129615 -91148.69 126910.834 -91148.69 126928.157 -91122.765 126977.44 -90875 126977.44 -89975 126928.157 -89727.235 126787.809 -89517.191 126577.765 -89376.843 126330 -89327.56 125130 -89327.56 124882.235 -89376.843 124672.191 -89517.191 124531.843 -89727.235 124482.56 -89975 124482.56 -90325.402 124320.462 -90487.5 121815.91 -90487.5 121730.43 -90359.57 121428.979 -90158.146 121538.49 -90106.821 121932.688 -89674.947 122104.958 -89259.026 121983.817 -89027 120777 -89027 120777 -89047 120523 -89047 120523 -89027 118237 -89027 118237 -89047 117983 -89047 117983 -89027 116776.183 -89027 116655.042 -89259.026 116827.312 -89674.947 117221.51 -90106.821 117331.021 -90158.146 117029.57 -90359.57 116698.35 -90855.275 116582.041 -91440 115210 -91440 115210 -86719.026 116655.042 -86719.026 116827.312 -87134.947 117221.51 -87566.821 117356.313 -87630 117221.51 -87693.179 116827.312 -88125.053 116655.042 -88540.974 116776.183 -88773 117983 -88773 117983 -86487 118237 -86487 118237 -88773 120523 -88773 120523 -86487 120777 -86487 120777 -88773 121983.817 -88773 122104.958 -88540.974 121932.688 -88125.053 121538.49 -87693.179 121403.687 -87630 121538.49 -87566.821 121932.688 -87134.947 122104.958 -86719.026 121983.817 -86487 120777 -86487 120523 -86487 118237 -86487 117983 -86487 116776.183 -86487 116655.042 -86719.026 115210 -86719.026 115210 -84179.026 116655.042 -84179.026 116827.312 -84594.947 117221.51 -85026.821 117356.313 -85090 117221.51 -85153.179 116827.312 -85585.053 116655.042 -86000.974 116776.183 -86233 117983 -86233 117983 -83947 118237 -83947 118237 -86233 120523 -86233 120523 -83947 120777 -83947 120777 -86233 121983.817 -86233 122104.958 -86000.974 121932.688 -85585.053 121538.49 -85153.179 121403.687 -85090 121538.49 -85026.821 121932.688 -84594.947 122104.958 -84179.026 121983.817 -83947 120777 -83947 120523 -83947 118237 -83947 117983 -83947 116776.183 -83947 116655.042 -84179.026 115210 -84179.026 115210 -80416.4 116598.96 -80416.4 116598.96 -82143.6 116648.243 -82391.365 116788.591 -82601.409 116998.635 -82741.757 117087.936 -82759.52 116827.312 -83045.053 116655.042 -83460.974 116776.183 -83693 117983 -83693 117983 -83673 118237 -83673 118237 -83693 120523 -83693 120523 -83673 120777 -83673 120777 -83693 121983.817 -83693 122104.958 -83460.974 121932.688 -83045.053 121538.49 -82613.179 121428.979 -82561.854 121730.43 -82360.43 121815.91 -82232.5 124506.927 -82232.5 124531.843 -82357.765 124672.191 -82567.809 124882.235 -82708.157 125130 -82757.44 126330 -82757.44 126577.765 -82708.157 126787.809 -82567.809 126928.157 -82357.765 126977.44 -82110 126977.44 -81210 126928.157 -80962.235 126787.809 -80752.191 126577.765 -80611.843 126330 -80562.56 125990.729 -80562.56 125721.647 -80382.765 125443.81 -80327.5 125350 -80308.84 125256.19 -80327.5 121815.91 -80327.5 121730.43 -80199.57 121234.725 -79868.35 120797.598 -79781.4 120502.402 -79781.4 120065.275 -79868.35 119576.932 -80194.651 119571.757 -80168.635 119431.409 -79958.591 119221.365 -79818.243 118973.6 -79768.96 117246.4 -79768.96 116998.635 -79818.243 116788.591 -79958.591 116648.243 -80168.635 116598.96 -80416.4 115210 -80416.4 115210 -76210 126117.05 -76210 126105.145 -76227.817 126105.145 -76227.817"/><path d="M 126105.145 -76227.817 125122.819 -77210.143 125043.286 -77263.286 125030.554 -77282.341 124882.235 -77311.843 124672.191 -77452.191 124531.843 -77662.235 124482.56 -77910 124482.56 -78810 124531.843 -79057.765 124672.191 -79267.809 124882.235 -79408.157 125130 -79457.44 126330 -79457.44 126577.765 -79408.157 126787.809 -79267.809 126928.157 -79057.765 126977.44 -78810 126977.44 -78049.598 127101.81 -77925.228 127263.75 -77957.44 127701.25 -77957.44 128032.727 -77891.505 128270 -77732.964 128507.273 -77891.505 128772.156 -77944.194 128967.56 -78139.598 128967.56 -79540 129016.843 -79787.765 129157.191 -79997.809 129367.235 -80138.157 129615 -80187.44 129946.314 -80187.44 130017.765 -80546.646 130075.733 -80633.401 130228.287 -80861.714 130307.817 -80914.854 131280.145 -81887.183 131333.286 -81966.714 131648.353 -82177.235 132020 -82251.16 132113.81 -82232.5 136010.446 -82232.5 136089.375 -82350.625 136580.582 -82678.839 137013.744 -82765 137306.256 -82765 137739.418 -82678.839 138230.625 -82350.625 138309.554 -82232.5 138550.446 -82232.5 138629.375 -82350.625 139120.582 -82678.839 139553.744 -82765 139846.256 -82765 140279.418 -82678.839 140770.625 -82350.625 140849.554 -82232.5 141090.446 -82232.5 141169.375 -82350.625 141660.582 -82678.839 142093.744 -82765 142386.256 -82765 142819.418 -82678.839 143310.625 -82350.625 143523.843 -82031.522 143584.817 -82161.358 144013.076 -82551.645 144423.11 -82721.476 144653 -82600.155 144653 -81407 144907 -81407 144907 -82600.155 145136.89 -82721.476 145546.924 -82551.645 145975.183 -82161.358 146050 -82002.046 146124.817 -82161.358 146553.076 -82551.645 146963.11 -82721.476 147193 -82600.155 147193 -81407 147447 -81407 147447 -82600.155 147676.89 -82721.476 148086.924 -82551.645 148515.183 -82161.358 148590 -82002.046 148664.817 -82161.358 149093.076 -82551.645 149503.11 -82721.476 149733 -82600.155 149733 -81407 147447 -81407 147193 -81407 144907 -81407 144653 -81407 144633 -81407 144633 -81153 144653 -81153 144653 -79959.845 144907 -79959.845 144907 -81153 147193 -81153 147193 -79959.845 147447 -79959.845 147447 -81153 149733 -81153 149733 -79959.845 149503.11 -79838.524 149093.076 -80008.355 148664.817 -80398.642 148590 -80557.954 148515.183 -80398.642 148086.924 -80008.355 147676.89 -79838.524 147447 -79959.845 147193 -79959.845 146963.11 -79838.524 146553.076 -80008.355 146124.817 -80398.642 146050 -80557.954 145975.183 -80398.642 145546.924 -80008.355 145136.89 -79838.524 144907 -79959.845 144653 -79959.845 144423.11 -79838.524 144013.076 -80008.355 143584.817 -80398.642 143523.843 -80528.478 143310.625 -80209.375 142819.418 -79881.161 142386.256 -79795 142093.744 -79795 141660.582 -79881.161 141169.375 -80209.375 141090.446 -80327.5 140849.554 -80327.5 140770.625 -80209.375 140279.418 -79881.161 139846.256 -79795 139553.744 -79795 139120.582 -79881.161 138629.375 -80209.375 138550.446 -80327.5 138309.554 -80327.5 138230.625 -80209.375 137739.418 -79881.161 137306.256 -79795 137013.744 -79795 136580.582 -79881.161 136089.375 -80209.375 136010.446 -80327.5 132414.538 -80327.5 132264.61 -80177.572 132462.765 -80138.157 132672.809 -79997.809 132713.654 -79936.68 132855.302 -80078.327 133088.691 -80175 134229.25 -80175 134388 -80016.25 134388 -78867 134642 -78867 134642 -80016.25 134800.75 -80175 135941.309 -80175 136174.698 -80078.327 136353.327 -79899.699 136450 -79666.31 136450 -79025.75 136291.25 -78867 134642 -78867 134388 -78867 134368 -78867 134368 -78613 134388 -78613 134388 -77463.75 134642 -77463.75 134642 -78613 136291.25 -78613 136450 -78454.25 136450 -77813.69 136353.327 -77580.301 136174.698 -77401.673 135941.309 -77305 134800.75 -77305 134642 -77463.75 134388 -77463.75 134229.25 -77305 133088.691 -77305 132855.302 -77401.673 132713.654 -77543.32 132672.809 -77482.191 132462.765 -77341.843 132215 -77292.56 130814.598 -77292.56 130142.44 -76620.403 130142.44 -76578.75 130076.505 -76247.273 130051.6 -76210 135705.91 -76210 138448.51 -78952.602 138488.119 -79011.881 138722.972 -79168.805 138899.106 -79203.84 139000 -79223.909 139069.926 -79210 150790 -79210 150790 -80156.972 150626.924 -80008.355 150216.89 -79838.524 149987 -79959.845 149987 -81153 150007 -81153 150007 -81407 149987 -81407 149987 -82600.155 150216.89 -82721.476 150626.924 -82551.645 150790 -82403.028 150790.001 -87735.413 150439.418 -87501.161 150006.256 -87415 149713.744 -87415 149280.582 -87501.161 148789.375 -87829.375 148710.446 -87947.5 148469.554 -87947.5 148390.625 -87829.375 147899.418 -87501.161 147466.256 -87415 147173.744 -87415 146740.582 -87501.161 146249.375 -87829.375 146170.446 -87947.5 145929.554 -87947.5 145850.625 -87829.375 145359.418 -87501.161 144926.256 -87415 144633.744 -87415 144200.582 -87501.161 143709.375 -87829.375 143510 -88127.761 143310.625 -87829.375 142819.418 -87501.161 142386.256 -87415 142093.744 -87415 141660.582 -87501.161 141169.375 -87829.375 141090.446 -87947.5 140849.554 -87947.5 140770.625 -87829.375 140279.418 -87501.161 139846.256 -87415 139553.744 -87415 139120.582 -87501.161 138629.375 -87829.375 138550.446 -87947.5 138309.554 -87947.5 138230.625 -87829.375 137739.418 -87501.161 137306.256 -87415 137013.744 -87415 136580.582 -87501.161 136089.375 -87829.375 135761.161 -88320.582 135645.908 -88900 135761.161 -89479.418 136089.375 -89970.625 136207.501 -90049.554 136207.501 -90627.56 133850 -90627.56 133602.235 -90676.843 133392.191 -90817.191 133351.346 -90878.32 133209.698 -90736.673 132976.309 -90640 131835.75 -90640 131677 -90798.75 131677 -91948 131697 -91948 131697 -92202 131677 -92202 131677 -92222 131423 -92222 131423 -92202 129773.75 -92202 129615 -92360.75 129615 -92857.56 129473.75 -92857.56 129142.273 -92923.495 128905 -93082.036 128667.727 -92923.495 128336.25 -92857.56 127898.75 -92857.56 127567.273 -92923.495 127411.618 -93027.5 126928.21 -93027.5 126928.157 -93027.235 126787.809 -92817.191 126577.765 -92676.843 126330 -92627.56 125130 -92627.56 124882.235 -92676.843 124672.191 -92817.191 124531.843 -93027.235 124482.56 -93275 124482.56 -94175 124531.843 -94422.765 124672.191 -94632.809 124882.235 -94773.157 125130 -94822.44 125531.346 -94822.44 125613.353 -94877.235 125891.19 -94932.5 125891.194 -94932.5 125984.999 -94951.159 126078.804 -94932.5 127207.008 -94932.5 127220.265 -94999.146 127220.266 -94999.147 127430.787 -95314.214 127510.317 -95367.354 128260.145 -96117.183 128313.286 -96196.714 128452.898 -96290 115210 -96290 115210 -91440 116582.041 -91440 116698.35 -92024.725 117029.57 -92520.43 117525.275 -92851.65 117962.402 -92938.6 118257.598 -92938.6 118694.725 -92851.65 119190.43 -92520.43 119275.91 -92392.5 119484.09 -92392.5 119569.57 -92520.43 120065.275 -92851.65 120502.402 -92938.6 120797.598 -92938.6 121234.725 -92851.65 121730.43 -92520.43 121815.91 -92392.5 124621.19 -92392.5 124715 -92411.16 124808.81 -92392.5 125086.647 -92337.235 125401.714 -92126.714 125454.856 -92047.181 125979.598 -91522.44 126330 -91522.44 126577.765 -91473.157 126787.809 -91332.809 126910.834 -91148.69 129615 -91148.69 129615 -91789.25 129773.75 -91948 131423 -91948 131423 -90798.75 131264.25 -90640 130123.691 -90640 129890.302 -90736.673 129711.673 -90915.301 129615 -91148.69 126910.834 -91148.69 126928.157 -91122.765 126977.44 -90875 126977.44 -89975 126928.157 -89727.235 126787.809 -89517.191 126577.765 -89376.843 126330 -89327.56 125130 -89327.56 124882.235 -89376.843 124672.191 -89517.191 124531.843 -89727.235 124482.56 -89975 124482.56 -90325.402 124320.462 -90487.5 121815.91 -90487.5 121730.43 -90359.57 121428.979 -90158.146 121538.49 -90106.821 121932.688 -89674.947 122104.958 -89259.026 121983.817 -89027 120777 -89027 120777 -89047 120523 -89047 120523 -89027 118237 -89027 118237 -89047 117983 -89047 117983 -89027 116776.183 -89027 116655.042 -89259.026 116827.312 -89674.947 117221.51 -90106.821 117331.021 -90158.146 117029.57 -90359.57 116698.35 -90855.275 116582.041 -91440 115210 -91440 115210 -86719.026 116655.042 -86719.026 116827.312 -87134.947 117221.51 -87566.821 117356.313 -87630 117221.51 -87693.179 116827.312 -88125.053 116655.042 -88540.974 116776.183 -88773 117983 -88773 117983 -86487 118237 -86487 118237 -88773 120523 -88773 120523 -86487 120777 -86487 120777 -88773 121983.817 -88773 122104.958 -88540.974 121932.688 -88125.053 121538.49 -87693.179 121403.687 -87630 121538.49 -87566.821 121932.688 -87134.947 122104.958 -86719.026 121983.817 -86487 120777 -86487 120523 -86487 118237 -86487 117983 -86487 116776.183 -86487 116655.042 -86719.026 115210 -86719.026 115210 -84179.026 116655.042 -84179.026 116827.312 -84594.947 117221.51 -85026.821 117356.313 -85090 117221.51 -85153.179 116827.312 -85585.053 116655.042 -86000.974 116776.183 -86233 117983 -86233 117983 -83947 118237 -83947 118237 -86233 120523 -86233 120523 -83947 120777 -83947 120777 -86233 121983.817 -86233 122104.958 -86000.974 121932.688 -85585.053 121538.49 -85153.179 121403.687 -85090 121538.49 -85026.821 121932.688 -84594.947 122104.958 -84179.026 121983.817 -83947 120777 -83947 120523 -83947 118237 -83947 117983 -83947 116776.183 -83947 116655.042 -84179.026 115210 -84179.026 115210 -80416.4 116598.96 -80416.4 116598.96 -82143.6 116648.243 -82391.365 116788.591 -82601.409 116998.635 -82741.757 117087.936 -82759.52 116827.312 -83045.053 116655.042 -83460.974 116776.183 -83693 117983 -83693 117983 -83673 118237 -83673 118237 -83693 120523 -83693 120523 -83673 120777 -83673 120777 -83693 121983.817 -83693 122104.958 -83460.974 121932.688 -83045.053 121538.49 -82613.179 121428.979 -82561.854 121730.43 -82360.43 121815.91 -82232.5 124506.927 -82232.5 124531.843 -82357.765 124672.191 -82567.809 124882.235 -82708.157 125130 -82757.44 126330 -82757.44 126577.765 -82708.157 126787.809 -82567.809 126928.157 -82357.765 126977.44 -82110 126977.44 -81210 126928.157 -80962.235 126787.809 -80752.191 126577.765 -80611.843 126330 -80562.56 125990.729 -80562.56 125721.647 -80382.765 125443.81 -80327.5 125350 -80308.84 125256.19 -80327.5 121815.91 -80327.5 121730.43 -80199.57 121234.725 -79868.35 120797.598 -79781.4 120502.402 -79781.4 120065.275 -79868.35 119576.932 -80194.651 119571.757 -80168.635 119431.409 -79958.591 119221.365 -79818.243 118973.6 -79768.96 117246.4 -79768.96 116998.635 -79818.243 116788.591 -79958.591 116648.243 -80168.635 116598.96 -80416.4 115210 -80416.4 115210 -76210 126117.05 -76210 126105.145 -76227.817" fill="none" stroke-width="254"/><use xlink:href="#tUNBQqzgIR9kTLpGfhKG_pad-19" x="137160" y="-88900"/><use xlink:href="#tUNBQqzgIR9kTLpGfhKG_pad-19" x="139700" y="-88900"/><use xlink:href="#tUNBQqzgIR9kTLpGfhKG_pad-19" x="142240" y="-88900"/><use xlink:href="#tUNBQqzgIR9kTLpGfhKG_pad-19" x="144780" y="-88900"/><use xlink:href="#tUNBQqzgIR9kTLpGfhKG_pad-19" x="147320" y="-88900"/><use xlink:href="#tUNBQqzgIR9kTLpGfhKG_pad-19" x="149860" y="-88900"/><use xlink:href="#tUNBQqzgIR9kTLpGfhKG_pad-19" x="149860" y="-81280"/><use xlink:href="#tUNBQqzgIR9kTLpGfhKG_pad-19" x="147320" y="-81280"/><use xlink:href="#tUNBQqzgIR9kTLpGfhKG_pad-19" x="144780" y="-81280"/><use xlink:href="#tUNBQqzgIR9kTLpGfhKG_pad-19" x="142240" y="-81280"/><use xlink:href="#tUNBQqzgIR9kTLpGfhKG_pad-19" x="139700" y="-81280"/><use xlink:href="#tUNBQqzgIR9kTLpGfhKG_pad-19" x="137160" y="-81280"/><use xlink:href="#tUNBQqzgIR9kTLpGfhKG_pad-19" x="118110" y="-81280"/><use xlink:href="#tUNBQqzgIR9kTLpGfhKG_pad-19" x="120650" y="-81280"/><use xlink:href="#tUNBQqzgIR9kTLpGfhKG_pad-19" x="118110" y="-83820"/><use xlink:href="#tUNBQqzgIR9kTLpGfhKG_pad-19" x="120650" y="-83820"/><use xlink:href="#tUNBQqzgIR9kTLpGfhKG_pad-19" x="118110" y="-86360"/><use xlink:href="#tUNBQqzgIR9kTLpGfhKG_pad-19" x="120650" y="-86360"/><use xlink:href="#tUNBQqzgIR9kTLpGfhKG_pad-19" x="118110" y="-88900"/><use xlink:href="#tUNBQqzgIR9kTLpGfhKG_pad-19" x="120650" y="-88900"/><use xlink:href="#tUNBQqzgIR9kTLpGfhKG_pad-19" x="118110" y="-91440"/><use xlink:href="#tUNBQqzgIR9kTLpGfhKG_pad-19" x="120650" y="-91440"/></g><g id="drWAf9hmVb05gsuAN5EF_top_soldermask"><use xlink:href="#tl6DYua83HL25NuN8mBd_pad-10" x="137160" y="-88900"/><use xlink:href="#tl6DYua83HL25NuN8mBd_pad-10" x="139700" y="-88900"/><use xlink:href="#tl6DYua83HL25NuN8mBd_pad-10" x="142240" y="-88900"/><use xlink:href="#tl6DYua83HL25NuN8mBd_pad-10" x="144780" y="-88900"/><use xlink:href="#tl6DYua83HL25NuN8mBd_pad-10" x="147320" y="-88900"/><use xlink:href="#tl6DYua83HL25NuN8mBd_pad-10" x="149860" y="-88900"/><use xlink:href="#tl6DYua83HL25NuN8mBd_pad-10" x="149860" y="-81280"/><use xlink:href="#tl6DYua83HL25NuN8mBd_pad-10" x="147320" y="-81280"/><use xlink:href="#tl6DYua83HL25NuN8mBd_pad-10" x="144780" y="-81280"/><use xlink:href="#tl6DYua83HL25NuN8mBd_pad-10" x="142240" y="-81280"/><use xlink:href="#tl6DYua83HL25NuN8mBd_pad-10" x="139700" y="-81280"/><use xlink:href="#tl6DYua83HL25NuN8mBd_pad-10" x="137160" y="-81280"/><use xlink:href="#tl6DYua83HL25NuN8mBd_pad-11" x="118110" y="-81280"/><use xlink:href="#tl6DYua83HL25NuN8mBd_pad-12" x="120650" y="-81280"/><use xlink:href="#tl6DYua83HL25NuN8mBd_pad-12" x="118110" y="-83820"/><use xlink:href="#tl6DYua83HL25NuN8mBd_pad-12" x="120650" y="-83820"/><use xlink:href="#tl6DYua83HL25NuN8mBd_pad-12" x="118110" y="-86360"/><use xlink:href="#tl6DYua83HL25NuN8mBd_pad-12" x="120650" y="-86360"/><use xlink:href="#tl6DYua83HL25NuN8mBd_pad-12" x="118110" y="-88900"/><use xlink:href="#tl6DYua83HL25NuN8mBd_pad-12" x="120650" y="-88900"/><use xlink:href="#tl6DYua83HL25NuN8mBd_pad-12" x="118110" y="-91440"/><use xlink:href="#tl6DYua83HL25NuN8mBd_pad-12" x="120650" y="-91440"/><use xlink:href="#tl6DYua83HL25NuN8mBd_pad-13" x="135150" y="-92075"/><use xlink:href="#tl6DYua83HL25NuN8mBd_pad-13" x="131550" y="-92075"/><use xlink:href="#tl6DYua83HL25NuN8mBd_pad-13" x="130915" y="-78740"/><use xlink:href="#tl6DYua83HL25NuN8mBd_pad-13" x="134515" y="-78740"/><use xlink:href="#tl6DYua83HL25NuN8mBd_pad-14" x="125730" y="-93725"/><use xlink:href="#tl6DYua83HL25NuN8mBd_pad-14" x="125730" y="-90425"/><use xlink:href="#tl6DYua83HL25NuN8mBd_pad-14" x="125730" y="-78360"/><use xlink:href="#tl6DYua83HL25NuN8mBd_pad-14" x="125730" y="-81660"/><path d="M 130042.493 -93306.535 130073.435 -93311.125 130103.778 -93318.725 130133.23 -93329.263 130161.508 -93342.638 130188.338 -93358.719 130213.463 -93377.353 130236.64 -93398.36 130257.647 -93421.537 130276.281 -93446.662 130292.362 -93473.492 130305.737 -93501.77 130316.275 -93531.222 130323.875 -93561.565 130328.465 -93592.507 130330 -93623.75 130330 -94336.25 130328.465 -94367.493 130323.875 -94398.435 130316.275 -94428.778 130305.737 -94458.23 130292.362 -94486.508 130276.281 -94513.338 130257.647 -94538.463 130236.64 -94561.64 130213.463 -94582.647 130188.338 -94601.281 130161.508 -94617.362 130133.23 -94630.737 130103.778 -94641.275 130073.435 -94648.875 130042.493 -94653.465 130011.25 -94655 129373.75 -94655 129342.507 -94653.465 129311.565 -94648.875 129281.222 -94641.275 129251.77 -94630.737 129223.492 -94617.362 129196.662 -94601.281 129171.537 -94582.647 129148.36 -94561.64 129127.353 -94538.463 129108.719 -94513.338 129092.638 -94486.508 129079.263 -94458.23 129068.725 -94428.778 129061.125 -94398.435 129056.535 -94367.493 129055 -94336.25 129055 -93623.75 129056.535 -93592.507 129061.125 -93561.565 129068.725 -93531.222 129079.263 -93501.77 129092.638 -93473.492 129108.719 -93446.662 129127.353 -93421.537 129148.36 -93398.36 129171.537 -93377.353 129196.662 -93358.719 129223.492 -93342.638 129251.77 -93329.263 129281.222 -93318.725 129311.565 -93311.125 129342.507 -93306.535 129373.75 -93305 130011.25 -93305 130042.493 -93306.535 130042.493 -93306.535"/><use xlink:href="#tl6DYua83HL25NuN8mBd_pad-16" x="129692.5" y="-93980"/><path d="M 128467.493 -93306.535 128498.435 -93311.125 128528.778 -93318.725 128558.23 -93329.263 128586.508 -93342.638 128613.338 -93358.719 128638.463 -93377.353 128661.64 -93398.36 128682.647 -93421.537 128701.281 -93446.662 128717.362 -93473.492 128730.737 -93501.77 128741.275 -93531.222 128748.875 -93561.565 128753.465 -93592.507 128755 -93623.75 128755 -94336.25 128753.465 -94367.493 128748.875 -94398.435 128741.275 -94428.778 128730.737 -94458.23 128717.362 -94486.508 128701.281 -94513.338 128682.647 -94538.463 128661.64 -94561.64 128638.463 -94582.647 128613.338 -94601.281 128586.508 -94617.362 128558.23 -94630.737 128528.778 -94641.275 128498.435 -94648.875 128467.493 -94653.465 128436.25 -94655 127798.75 -94655 127767.507 -94653.465 127736.565 -94648.875 127706.222 -94641.275 127676.77 -94630.737 127648.492 -94617.362 127621.662 -94601.281 127596.537 -94582.647 127573.36 -94561.64 127552.353 -94538.463 127533.719 -94513.338 127517.638 -94486.508 127504.263 -94458.23 127493.725 -94428.778 127486.125 -94398.435 127481.535 -94367.493 127480 -94336.25 127480 -93623.75 127481.535 -93592.507 127486.125 -93561.565 127493.725 -93531.222 127504.263 -93501.77 127517.638 -93473.492 127533.719 -93446.662 127552.353 -93421.537 127573.36 -93398.36 127596.537 -93377.353 127621.662 -93358.719 127648.492 -93342.638 127676.77 -93329.263 127706.222 -93318.725 127736.565 -93311.125 127767.507 -93306.535 127798.75 -93305 128436.25 -93305 128467.493 -93306.535 128467.493 -93306.535"/><use xlink:href="#tl6DYua83HL25NuN8mBd_pad-16" x="128117.5" y="-93980"/><path d="M 127832.493 -76161.535 127863.435 -76166.125 127893.778 -76173.725 127923.23 -76184.263 127951.508 -76197.638 127978.338 -76213.719 128003.463 -76232.353 128026.64 -76253.36 128047.647 -76276.537 128066.281 -76301.662 128082.362 -76328.492 128095.737 -76356.77 128106.275 -76386.222 128113.875 -76416.565 128118.465 -76447.507 128120 -76478.75 128120 -77191.25 128118.465 -77222.493 128113.875 -77253.435 128106.275 -77283.778 128095.737 -77313.23 128082.362 -77341.508 128066.281 -77368.338 128047.647 -77393.463 128026.64 -77416.64 128003.463 -77437.647 127978.338 -77456.281 127951.508 -77472.362 127923.23 -77485.737 127893.778 -77496.275 127863.435 -77503.875 127832.493 -77508.465 127801.25 -77510 127163.75 -77510 127132.507 -77508.465 127101.565 -77503.875 127071.222 -77496.275 127041.77 -77485.737 127013.492 -77472.362 126986.662 -77456.281 126961.537 -77437.647 126938.36 -77416.64 126917.353 -77393.463 126898.719 -77368.338 126882.638 -77341.508 126869.263 -77313.23 126858.725 -77283.778 126851.125 -77253.435 126846.535 -77222.493 126845 -77191.25 126845 -76478.75 126846.535 -76447.507 126851.125 -76416.565 126858.725 -76386.222 126869.263 -76356.77 126882.638 -76328.492 126898.719 -76301.662 126917.353 -76276.537 126938.36 -76253.36 126961.537 -76232.353 126986.662 -76213.719 127013.492 -76197.638 127041.77 -76184.263 127071.222 -76173.725 127101.565 -76166.125 127132.507 -76161.535 127163.75 -76160 127801.25 -76160 127832.493 -76161.535 127832.493 -76161.535"/><use xlink:href="#tl6DYua83HL25NuN8mBd_pad-16" x="127482.5" y="-76835"/><path d="M 129407.493 -76161.535 129438.435 -76166.125 129468.778 -76173.725 129498.23 -76184.263 129526.508 -76197.638 129553.338 -76213.719 129578.463 -76232.353 129601.64 -76253.36 129622.647 -76276.537 129641.281 -76301.662 129657.362 -76328.492 129670.737 -76356.77 129681.275 -76386.222 129688.875 -76416.565 129693.465 -76447.507 129695 -76478.75 129695 -77191.25 129693.465 -77222.493 129688.875 -77253.435 129681.275 -77283.778 129670.737 -77313.23 129657.362 -77341.508 129641.281 -77368.338 129622.647 -77393.463 129601.64 -77416.64 129578.463 -77437.647 129553.338 -77456.281 129526.508 -77472.362 129498.23 -77485.737 129468.778 -77496.275 129438.435 -77503.875 129407.493 -77508.465 129376.25 -77510 128738.75 -77510 128707.507 -77508.465 128676.565 -77503.875 128646.222 -77496.275 128616.77 -77485.737 128588.492 -77472.362 128561.662 -77456.281 128536.537 -77437.647 128513.36 -77416.64 128492.353 -77393.463 128473.719 -77368.338 128457.638 -77341.508 128444.263 -77313.23 128433.725 -77283.778 128426.125 -77253.435 128421.535 -77222.493 128420 -77191.25 128420 -76478.75 128421.535 -76447.507 128426.125 -76416.565 128433.725 -76386.222 128444.263 -76356.77 128457.638 -76328.492 128473.719 -76301.662 128492.353 -76276.537 128513.36 -76253.36 128536.537 -76232.353 128561.662 -76213.719 128588.492 -76197.638 128616.77 -76184.263 128646.222 -76173.725 128676.565 -76166.125 128707.507 -76161.535 128738.75 -76160 129376.25 -76160 129407.493 -76161.535 129407.493 -76161.535"/><use xlink:href="#tl6DYua83HL25NuN8mBd_pad-16" x="129057.5" y="-76835"/></g><g id="drWAf9hmVb05gsuAN5EF_top_silkscreen"><path d="M 149606 -86868 150876 -86868 M 143764 -86868 145034 -86868 M 141986 -86868 143256 -86868 M 136144 -86868 137414 -86868 M 141986 -83312 143256 -83312 M 136144 -83312 137414 -83312 M 150876 -86868 150876 -87376 M 143764 -87376 143764 -86868 M 143256 -86868 143256 -87376 M 136144 -87376 136144 -86868 M 150876 -83312 150876 -82804 M 149352 -83312 150876 -83312 M 143764 -83312 145288 -83312 M 143764 -82804 143764 -83312 M 143256 -83312 143256 -82804 M 136144 -82804 136144 -83312 M 145486.666 -86939.428 146248.571 -86939.428 M 145867.619 -87320.38 145867.619 -86558.476 M 147248.571 -87320.38 146677.142 -87320.38 M 146962.857 -87320.38 146962.857 -86320.38 146867.619 -86463.238 146772.38 -86558.476 146677.142 -86606.095 M 147629.523 -86415.619 147677.142 -86368 147772.38 -86320.38 148010.476 -86320.38 148105.714 -86368 148153.333 -86415.619 148200.952 -86510.857 148200.952 -86606.095 148153.333 -86748.952 147581.904 -87320.38 148200.952 -87320.38 M 149200.952 -87320.38 148867.619 -86844.19 M 148629.523 -87320.38 148629.523 -86320.38 149010.476 -86320.38 149105.714 -86368 149153.333 -86415.619 149200.952 -86510.857 149200.952 -86653.714 149153.333 -86748.952 149105.714 -86796.571 149010.476 -86844.19 148629.523 -86844.19 M 137938.095 -86939.428 138700 -86939.428 M 138319.047 -87320.38 138319.047 -86558.476 M 139700 -87320.38 139128.571 -87320.38 M 139414.285 -87320.38 139414.285 -86320.38 139319.047 -86463.238 139223.809 -86558.476 139128.571 -86606.095 M 140080.952 -86415.619 140128.571 -86368 140223.809 -86320.38 140461.904 -86320.38 140557.142 -86368 140604.761 -86415.619 140652.38 -86510.857 140652.38 -86606.095 140604.761 -86748.952 140033.333 -87320.38 140652.38 -87320.38 M 140938.095 -86320.38 141271.428 -87320.38 141604.761 -86320.38 M 146558.095 -82812 146462.857 -82764.38 146320 -82764.38 146177.142 -82812 146081.904 -82907.238 146034.285 -83002.476 145986.666 -83192.952 145986.666 -83335.809 146034.285 -83526.285 146081.904 -83621.523 146177.142 -83716.761 146320 -83764.38 146415.238 -83764.38 146558.095 -83716.761 146605.714 -83669.142 146605.714 -83335.809 146415.238 -83335.809 M 147034.285 -83764.38 147034.285 -82764.38 147605.714 -83764.38 147605.714 -82764.38 M 148081.904 -83764.38 148081.904 -82764.38 148320 -82764.38 148462.857 -82812 148558.095 -82907.238 148605.714 -83002.476 148653.333 -83192.952 148653.333 -83335.809 148605.714 -83526.285 148558.095 -83621.523 148462.857 -83716.761 148320 -83764.38 148081.904 -83764.38 M 137938.095 -83383.428 138700 -83383.428 M 139700 -83764.38 139128.571 -83764.38 M 139414.285 -83764.38 139414.285 -82764.38 139319.047 -82907.238 139223.809 -83002.476 139128.571 -83050.095 M 140080.952 -82859.619 140128.571 -82812 140223.809 -82764.38 140461.904 -82764.38 140557.142 -82812 140604.761 -82859.619 140652.38 -82954.857 140652.38 -83050.095 140604.761 -83192.952 140033.333 -83764.38 140652.38 -83764.38 M 140938.095 -82764.38 141271.428 -83764.38 141604.761 -82764.38 M 128285.714 -85542.38 128285.714 -84542.38 128666.666 -84542.38 128761.904 -84590 128809.523 -84637.619 128857.142 -84732.857 128857.142 -84875.714 128809.523 -84970.952 128761.904 -85018.571 128666.666 -85066.19 128285.714 -85066.19 M 129428.571 -85542.38 129333.333 -85494.761 129285.714 -85447.142 129238.095 -85351.904 129238.095 -85066.19 129285.714 -84970.952 129333.333 -84923.333 129428.571 -84875.714 129571.428 -84875.714 129666.666 -84923.333 129714.285 -84970.952 129761.904 -85066.19 129761.904 -85351.904 129714.285 -85447.142 129666.666 -85494.761 129571.428 -85542.38 129428.571 -85542.38 M 130095.238 -84875.714 130285.714 -85542.38 130476.19 -85066.19 130666.666 -85542.38 130857.142 -84875.714 M 131619.047 -85494.761 131523.809 -85542.38 131333.333 -85542.38 131238.095 -85494.761 131190.476 -85399.523 131190.476 -85018.571 131238.095 -84923.333 131333.333 -84875.714 131523.809 -84875.714 131619.047 -84923.333 131666.666 -85018.571 131666.666 -85113.809 131190.476 -85209.047 M 132095.238 -85542.38 132095.238 -84875.714 M 132095.238 -85066.19 132142.857 -84970.952 132190.476 -84923.333 132285.714 -84875.714 132380.952 -84875.714 M 133809.523 -85018.571 133952.38 -85066.19 134000 -85113.809 134047.619 -85209.047 134047.619 -85351.904 134000 -85447.142 133952.38 -85494.761 133857.142 -85542.38 133476.19 -85542.38 133476.19 -84542.38 133809.523 -84542.38 133904.761 -84590 133952.38 -84637.619 134000 -84732.857 134000 -84828.095 133952.38 -84923.333 133904.761 -84970.952 133809.523 -85018.571 133476.19 -85018.571 M 134904.761 -84875.714 134904.761 -85542.38 M 134476.19 -84875.714 134476.19 -85399.523 134523.809 -85494.761 134619.047 -85542.38 134761.904 -85542.38 134857.142 -85494.761 134904.761 -85447.142 M 135333.333 -85494.761 135428.571 -85542.38 135619.047 -85542.38 135714.285 -85494.761 135761.904 -85399.523 135761.904 -85351.904 135714.285 -85256.666 135619.047 -85209.047 135476.19 -85209.047 135380.952 -85161.428 135333.333 -85066.19 135333.333 -85018.571 135380.952 -84923.333 135476.19 -84875.714 135619.047 -84875.714 135714.285 -84923.333 M 115824 -88392 114808 -88392 M 115824 -84328 115824 -88392 M 114808 -84328 115824 -84328" fill="none" stroke-width="150"/><path d="M 124055 -75930 124055 -96790 114705 -96790 114705 -75930 124055 -75930 M 131090 -89815 131090 -91015 M 131090 -94335 131090 -93135 M 134545.563 -94335 131090 -94335 M 134545.563 -89815 131090 -89815 M 135610 -90879.437 135610 -91015 M 135610 -93270.563 135610 -93135 M 135610 -93270.563 134545.563 -94335 M 135610 -90879.437 134545.563 -89815 M 136350 -93635 135850 -93635 M 136100 -93885 136100 -93385 M 135465 -80550 135465 -80050 M 135715 -80300 135215 -80300 M 134975 -77544.437 133910.563 -76480 M 134975 -79935.563 133910.563 -81000 M 134975 -79935.563 134975 -79800 M 134975 -77544.437 134975 -77680 M 133910.563 -76480 130455 -76480 M 133910.563 -81000 130455 -81000 130455 -79800 M 130455 -76480 130455 -77680 M 124730 -94325 126730 -94325 126730 -90425 M 124730 -94325 124730 -90425 M 124730 -82260 124730 -78360 M 126730 -82260 126730 -78360 M 124730 -82260 126730 -82260 M 129067.779 -94490 128742.221 -94490 M 129067.779 -93470 128742.221 -93470 M 128432.779 -76325 128107.221 -76325 M 128432.779 -77345 128107.221 -77345" fill="none" stroke-width="120"/><path d="M 133183.333 -88622.142 133135.714 -88669.761 132992.857 -88717.38 132897.619 -88717.38 132754.761 -88669.761 132659.523 -88574.523 132611.904 -88479.285 132564.285 -88288.809 132564.285 -88145.952 132611.904 -87955.476 132659.523 -87860.238 132754.761 -87765 132897.619 -87717.38 132992.857 -87717.38 133135.714 -87765 133183.333 -87812.619 M 134135.714 -88717.38 133564.285 -88717.38 M 133850 -88717.38 133850 -87717.38 133754.761 -87860.238 133659.523 -87955.476 133564.285 -88003.095 M 133183.333 -82907.142 133135.714 -82954.761 132992.857 -83002.38 132897.619 -83002.38 132754.761 -82954.761 132659.523 -82859.523 132611.904 -82764.285 132564.285 -82573.809 132564.285 -82430.952 132611.904 -82240.476 132659.523 -82145.238 132754.761 -82050 132897.619 -82002.38 132992.857 -82002.38 133135.714 -82050 133183.333 -82097.619 M 133564.285 -82097.619 133611.904 -82050 133707.142 -82002.38 133945.238 -82002.38 134040.476 -82050 134088.095 -82097.619 134135.714 -82192.857 134135.714 -82288.095 134088.095 -82430.952 133516.666 -83002.38 134135.714 -83002.38 M 124991.904 -88717.38 124991.904 -87717.38 125230 -87717.38 125372.857 -87765 125468.095 -87860.238 125515.714 -87955.476 125563.333 -88145.952 125563.333 -88288.809 125515.714 -88479.285 125468.095 -88574.523 125372.857 -88669.761 125230 -88717.38 124991.904 -88717.38 M 126515.714 -88717.38 125944.285 -88717.38 M 126230 -88717.38 126230 -87717.38 126134.761 -87860.238 126039.523 -87955.476 125944.285 -88003.095 M 124991.904 -84272.38 124991.904 -83272.38 125230 -83272.38 125372.857 -83320 125468.095 -83415.238 125515.714 -83510.476 125563.333 -83700.952 125563.333 -83843.809 125515.714 -84034.285 125468.095 -84129.523 125372.857 -84224.761 125230 -84272.38 124991.904 -84272.38 M 125944.285 -83367.619 125991.904 -83320 126087.142 -83272.38 126325.238 -83272.38 126420.476 -83320 126468.095 -83367.619 126515.714 -83462.857 126515.714 -83558.095 126468.095 -83700.952 125896.666 -84272.38 126515.714 -84272.38 M 128738.333 -92527.38 128262.142 -92527.38 128262.142 -91527.38 M 129595.476 -92527.38 129024.047 -92527.38 M 129309.761 -92527.38 129309.761 -91527.38 129214.523 -91670.238 129119.285 -91765.476 129024.047 -91813.095 M 128103.333 -79192.38 127627.142 -79192.38 127627.142 -78192.38 M 128389.047 -78287.619 128436.666 -78240 128531.904 -78192.38 128770 -78192.38 128865.238 -78240 128912.857 -78287.619 128960.476 -78382.857 128960.476 -78478.095 128912.857 -78620.952 128341.428 -79192.38 128960.476 -79192.38" fill="none" stroke-width="150"/></g><g id="drWAf9hmVb05gsuAN5EF_top_solderpaste"><use xlink:href="#yj2cT-crPllmIeVQx_7E_pad-10" x="135150" y="-92075"/><use xlink:href="#yj2cT-crPllmIeVQx_7E_pad-10" x="131550" y="-92075"/><use xlink:href="#yj2cT-crPllmIeVQx_7E_pad-10" x="130915" y="-78740"/><use xlink:href="#yj2cT-crPllmIeVQx_7E_pad-10" x="134515" y="-78740"/><use xlink:href="#yj2cT-crPllmIeVQx_7E_pad-11" x="125730" y="-93725"/><use xlink:href="#yj2cT-crPllmIeVQx_7E_pad-11" x="125730" y="-90425"/><use xlink:href="#yj2cT-crPllmIeVQx_7E_pad-11" x="125730" y="-78360"/><use xlink:href="#yj2cT-crPllmIeVQx_7E_pad-11" x="125730" y="-81660"/><path d="M 129932.691 -93506.053 129953.926 -93509.203 129974.75 -93514.419 129994.962 -93521.651 130014.368 -93530.83 130032.781 -93541.866 130050.024 -93554.654 130065.93 -93569.07 130080.346 -93584.976 130093.134 -93602.219 130104.17 -93620.632 130113.349 -93640.038 130120.581 -93660.25 130125.797 -93681.074 130128.947 -93702.309 130130 -93723.75 130130 -94236.25 130128.947 -94257.691 130125.797 -94278.926 130120.581 -94299.75 130113.349 -94319.962 130104.17 -94339.368 130093.134 -94357.781 130080.346 -94375.024 130065.93 -94390.93 130050.024 -94405.346 130032.781 -94418.134 130014.368 -94429.17 129994.962 -94438.349 129974.75 -94445.581 129953.926 -94450.797 129932.691 -94453.947 129911.25 -94455 129473.75 -94455 129452.309 -94453.947 129431.074 -94450.797 129410.25 -94445.581 129390.038 -94438.349 129370.632 -94429.17 129352.219 -94418.134 129334.976 -94405.346 129319.07 -94390.93 129304.654 -94375.024 129291.866 -94357.781 129280.83 -94339.368 129271.651 -94319.962 129264.419 -94299.75 129259.203 -94278.926 129256.053 -94257.691 129255 -94236.25 129255 -93723.75 129256.053 -93702.309 129259.203 -93681.074 129264.419 -93660.25 129271.651 -93640.038 129280.83 -93620.632 129291.866 -93602.219 129304.654 -93584.976 129319.07 -93569.07 129334.976 -93554.654 129352.219 -93541.866 129370.632 -93530.83 129390.038 -93521.651 129410.25 -93514.419 129431.074 -93509.203 129452.309 -93506.053 129473.75 -93505 129911.25 -93505 129932.691 -93506.053 129932.691 -93506.053"/><use xlink:href="#yj2cT-crPllmIeVQx_7E_pad-13" x="129692.5" y="-93980"/><path d="M 128357.691 -93506.053 128378.926 -93509.203 128399.75 -93514.419 128419.962 -93521.651 128439.368 -93530.83 128457.781 -93541.866 128475.024 -93554.654 128490.93 -93569.07 128505.346 -93584.976 128518.134 -93602.219 128529.17 -93620.632 128538.349 -93640.038 128545.581 -93660.25 128550.797 -93681.074 128553.947 -93702.309 128555 -93723.75 128555 -94236.25 128553.947 -94257.691 128550.797 -94278.926 128545.581 -94299.75 128538.349 -94319.962 128529.17 -94339.368 128518.134 -94357.781 128505.346 -94375.024 128490.93 -94390.93 128475.024 -94405.346 128457.781 -94418.134 128439.368 -94429.17 128419.962 -94438.349 128399.75 -94445.581 128378.926 -94450.797 128357.691 -94453.947 128336.25 -94455 127898.75 -94455 127877.309 -94453.947 127856.074 -94450.797 127835.25 -94445.581 127815.038 -94438.349 127795.632 -94429.17 127777.219 -94418.134 127759.976 -94405.346 127744.07 -94390.93 127729.654 -94375.024 127716.866 -94357.781 127705.83 -94339.368 127696.651 -94319.962 127689.419 -94299.75 127684.203 -94278.926 127681.053 -94257.691 127680 -94236.25 127680 -93723.75 127681.053 -93702.309 127684.203 -93681.074 127689.419 -93660.25 127696.651 -93640.038 127705.83 -93620.632 127716.866 -93602.219 127729.654 -93584.976 127744.07 -93569.07 127759.976 -93554.654 127777.219 -93541.866 127795.632 -93530.83 127815.038 -93521.651 127835.25 -93514.419 127856.074 -93509.203 127877.309 -93506.053 127898.75 -93505 128336.25 -93505 128357.691 -93506.053 128357.691 -93506.053"/><use xlink:href="#yj2cT-crPllmIeVQx_7E_pad-13" x="128117.5" y="-93980"/><path d="M 127722.691 -76361.053 127743.926 -76364.203 127764.75 -76369.419 127784.962 -76376.651 127804.368 -76385.83 127822.781 -76396.866 127840.024 -76409.654 127855.93 -76424.07 127870.346 -76439.976 127883.134 -76457.219 127894.17 -76475.632 127903.349 -76495.038 127910.581 -76515.25 127915.797 -76536.074 127918.947 -76557.309 127920 -76578.75 127920 -77091.25 127918.947 -77112.691 127915.797 -77133.926 127910.581 -77154.75 127903.349 -77174.962 127894.17 -77194.368 127883.134 -77212.781 127870.346 -77230.024 127855.93 -77245.93 127840.024 -77260.346 127822.781 -77273.134 127804.368 -77284.17 127784.962 -77293.349 127764.75 -77300.581 127743.926 -77305.797 127722.691 -77308.947 127701.25 -77310 127263.75 -77310 127242.309 -77308.947 127221.074 -77305.797 127200.25 -77300.581 127180.038 -77293.349 127160.632 -77284.17 127142.219 -77273.134 127124.976 -77260.346 127109.07 -77245.93 127094.654 -77230.024 127081.866 -77212.781 127070.83 -77194.368 127061.651 -77174.962 127054.419 -77154.75 127049.203 -77133.926 127046.053 -77112.691 127045 -77091.25 127045 -76578.75 127046.053 -76557.309 127049.203 -76536.074 127054.419 -76515.25 127061.651 -76495.038 127070.83 -76475.632 127081.866 -76457.219 127094.654 -76439.976 127109.07 -76424.07 127124.976 -76409.654 127142.219 -76396.866 127160.632 -76385.83 127180.038 -76376.651 127200.25 -76369.419 127221.074 -76364.203 127242.309 -76361.053 127263.75 -76360 127701.25 -76360 127722.691 -76361.053 127722.691 -76361.053"/><use xlink:href="#yj2cT-crPllmIeVQx_7E_pad-13" x="127482.5" y="-76835"/><path d="M 129297.691 -76361.053 129318.926 -76364.203 129339.75 -76369.419 129359.962 -76376.651 129379.368 -76385.83 129397.781 -76396.866 129415.024 -76409.654 129430.93 -76424.07 129445.346 -76439.976 129458.134 -76457.219 129469.17 -76475.632 129478.349 -76495.038 129485.581 -76515.25 129490.797 -76536.074 129493.947 -76557.309 129495 -76578.75 129495 -77091.25 129493.947 -77112.691 129490.797 -77133.926 129485.581 -77154.75 129478.349 -77174.962 129469.17 -77194.368 129458.134 -77212.781 129445.346 -77230.024 129430.93 -77245.93 129415.024 -77260.346 129397.781 -77273.134 129379.368 -77284.17 129359.962 -77293.349 129339.75 -77300.581 129318.926 -77305.797 129297.691 -77308.947 129276.25 -77310 128838.75 -77310 128817.309 -77308.947 128796.074 -77305.797 128775.25 -77300.581 128755.038 -77293.349 128735.632 -77284.17 128717.219 -77273.134 128699.976 -77260.346 128684.07 -77245.93 128669.654 -77230.024 128656.866 -77212.781 128645.83 -77194.368 128636.651 -77174.962 128629.419 -77154.75 128624.203 -77133.926 128621.053 -77112.691 128620 -77091.25 128620 -76578.75 128621.053 -76557.309 128624.203 -76536.074 128629.419 -76515.25 128636.651 -76495.038 128645.83 -76475.632 128656.866 -76457.219 128669.654 -76439.976 128684.07 -76424.07 128699.976 -76409.654 128717.219 -76396.866 128735.632 -76385.83 128755.038 -76376.651 128775.25 -76369.419 128796.074 -76364.203 128817.309 -76361.053 128838.75 -76360 129276.25 -76360 129297.691 -76361.053 129297.691 -76361.053"/><use xlink:href="#yj2cT-crPllmIeVQx_7E_pad-13" x="129057.5" y="-76835"/></g><g id="drWAf9hmVb05gsuAN5EF_top_drill1"><use xlink:href="#IxixiROrUcrGrvZKP1dk_pad-1" x="137160" y="-81280"/><use xlink:href="#IxixiROrUcrGrvZKP1dk_pad-1" x="139700" y="-81280"/><use xlink:href="#IxixiROrUcrGrvZKP1dk_pad-1" x="142240" y="-81280"/><use xlink:href="#IxixiROrUcrGrvZKP1dk_pad-1" x="144780" y="-81280"/><use xlink:href="#IxixiROrUcrGrvZKP1dk_pad-1" x="147320" y="-81280"/><use xlink:href="#IxixiROrUcrGrvZKP1dk_pad-1" x="149860" y="-81280"/><use xlink:href="#IxixiROrUcrGrvZKP1dk_pad-1" x="137160" y="-88900"/><use xlink:href="#IxixiROrUcrGrvZKP1dk_pad-1" x="139700" y="-88900"/><use xlink:href="#IxixiROrUcrGrvZKP1dk_pad-1" x="142240" y="-88900"/><use xlink:href="#IxixiROrUcrGrvZKP1dk_pad-1" x="144780" y="-88900"/><use xlink:href="#IxixiROrUcrGrvZKP1dk_pad-1" x="147320" y="-88900"/><use xlink:href="#IxixiROrUcrGrvZKP1dk_pad-1" x="149860" y="-88900"/><use xlink:href="#IxixiROrUcrGrvZKP1dk_pad-2" x="118110" y="-81280"/><use xlink:href="#IxixiROrUcrGrvZKP1dk_pad-2" x="118110" y="-83820"/><use xlink:href="#IxixiROrUcrGrvZKP1dk_pad-2" x="118110" y="-86360"/><use xlink:href="#IxixiROrUcrGrvZKP1dk_pad-2" x="118110" y="-88900"/><use xlink:href="#IxixiROrUcrGrvZKP1dk_pad-2" x="118110" y="-91440"/><use xlink:href="#IxixiROrUcrGrvZKP1dk_pad-2" x="120650" y="-81280"/><use xlink:href="#IxixiROrUcrGrvZKP1dk_pad-2" x="120650" y="-83820"/><use xlink:href="#IxixiROrUcrGrvZKP1dk_pad-2" x="120650" y="-86360"/><use xlink:href="#IxixiROrUcrGrvZKP1dk_pad-2" x="120650" y="-88900"/><use xlink:href="#IxixiROrUcrGrvZKP1dk_pad-2" x="120650" y="-91440"/></g><clipPath id="drWAf9hmVb05gsuAN5EF_top_outline"><path d="M 135000 -97000 140500 -91500 151500 -91500 151500 -78500 139000 -78500 136000 -75500 114500 -75500 114500 -97000 135000 -97000" fill="none" stroke-width="150"/></clipPath><mask id="drWAf9hmVb05gsuAN5EF_top_mech-mask"><g fill="#000" stroke="#000"><rect x="114500" y="-97000" width="37000" height="21500" fill="#fff"/><use xlink:href="#drWAf9hmVb05gsuAN5EF_top_drill1"/></g></mask><mask id="drWAf9hmVb05gsuAN5EF_top_cf-mask"><g fill="#fff" stroke="#fff"><use xlink:href="#drWAf9hmVb05gsuAN5EF_top_soldermask"/></g></mask><mask id="drWAf9hmVb05gsuAN5EF_top_sm-mask"><g fill="#000" stroke="#000"><rect x="114500" y="-97000" width="37000" height="21500" fill="#fff"/><use xlink:href="#drWAf9hmVb05gsuAN5EF_top_soldermask"/></g></mask></defs><g transform="translate(0,-172500) scale(1,-1)"><g mask="url(#drWAf9hmVb05gsuAN5EF_top_mech-mask)" clip-path="url(#drWAf9hmVb05gsuAN5EF_top_outline)"><rect x="114500" y="-97000" width="37000" height="21500" fill="currentColor" class="drWAf9hmVb05gsuAN5EF_fr4"/><use xlink:href="#drWAf9hmVb05gsuAN5EF_top_copper" fill="currentColor" stroke="currentColor" class="drWAf9hmVb05gsuAN5EF_cu"/><use xlink:href="#drWAf9hmVb05gsuAN5EF_top_copper" fill="currentColor" stroke="currentColor" class="drWAf9hmVb05gsuAN5EF_cf" mask="url(#drWAf9hmVb05gsuAN5EF_top_cf-mask)"/><g mask="url(#drWAf9hmVb05gsuAN5EF_top_sm-mask)"><rect x="114500" y="-97000" width="37000" height="21500" fill="currentColor" class="drWAf9hmVb05gsuAN5EF_sm"/><use xlink:href="#drWAf9hmVb05gsuAN5EF_top_silkscreen" fill="currentColor" stroke="currentColor" class="drWAf9hmVb05gsuAN5EF_ss"/></g><use xlink:href="#drWAf9hmVb05gsuAN5EF_top_solderpaste" fill="currentColor" stroke="currentColor" class="drWAf9hmVb05gsuAN5EF_sp"/></g></g></svg>