<svg version="1.1" xmlns="http://www.w3.org/2000/svg" xmlns:xlink="http://www.w3.org/1999/xlink" stroke-linecap="round" stroke-linejoin="round" stroke-width="0" fill-rule="evenodd" clip-rule="evenodd" id="qgRJ8pSVRmTJltTwI48-_top" viewBox="101000 -75000 10000 19000" width="10mm" height="19mm" class="w-100 h-100"><defs><style>.qgRJ8pSVRmTJltTwI48-_fr4 {color: #666666;}
.qgRJ8pSVRmTJltTwI48-_cu {color: #cccccc;}
.qgRJ8pSVRmTJltTwI48-_cf {color: #cc9933;}
.qgRJ8pSVRmTJltTwI48-_sm {color: #004200; opacity: 0.75;}
.qgRJ8pSVRmTJltTwI48-_ss {color: #ffffff;}
.qgRJ8pSVRmTJltTwI48-_sp {color: #999999;}
.qgRJ8pSVRmTJltTwI48-_out {color: #000000;}</style><circle cx="0" cy="0" r="437.5" id="Jw5_MUU7PQCOwZ_rhmyu_pad-11"/><rect x="-850" y="-850" width="1700" height="1700" rx="850" ry="850" id="SyUOUEYD3wdvIFB3MkC0_pad-10"/><circle cx="0" cy="0" r="800" id="SyUOUEYD3wdvIFB3MkC0_pad-11"/><rect x="-800" y="-800" width="1600" height="1600" id="SyUOUEYD3wdvIFB3MkC0_pad-12"/><circle cx="0" cy="0" r="437.5" id="SyUOUEYD3wdvIFB3MkC0_pad-14"/><circle cx="0" cy="0" r="175" id="SyUOUEYD3wdvIFB3MkC0_pad-17"/><rect x="-1050" y="-1050" width="2100" height="2100" rx="1050" ry="1050" id="rd7ISdSHrSxdqywiRubR_pad-10"/><circle cx="0" cy="0" r="1000" id="rd7ISdSHrSxdqywiRubR_pad-11"/><rect x="-1000" y="-1000" width="2000" height="2000" id="rd7ISdSHrSxdqywiRubR_pad-12"/><circle cx="0" cy="0" r="637.5" id="rd7ISdSHrSxdqywiRubR_pad-14"/><circle cx="0" cy="0" r="450" id="t805G5v0b-uJSZKo-64d_pad-1"/><circle cx="0" cy="0" r="500" id="t805G5v0b-uJSZKo-64d_pad-2"/><g id="qgRJ8pSVRmTJltTwI48-_top_solderpaste"><path d="M 107973.691 -62581.053 107994.926 -62584.203 108015.75 -62589.419 108035.962 -62596.651 108055.368 -62605.83 108073.781 -62616.866 108091.024 -62629.654 108106.93 -62644.07 108121.346 -62659.976 108134.134 -62677.219 108145.17 -62695.632 108154.349 -62715.038 108161.581 -62735.25 108166.797 -62756.074 108169.947 -62777.309 108171 -62798.75 108171 -63236.25 108169.947 -63257.691 108166.797 -63278.926 108161.581 -63299.75 108154.349 -63319.962 108145.17 -63339.368 108134.134 -63357.781 108121.346 -63375.024 108106.93 -63390.93 108091.024 -63405.346 108073.781 -63418.134 108055.368 -63429.17 108035.962 -63438.349 108015.75 -63445.581 107994.926 -63450.797 107973.691 -63453.947 107952.25 -63455 107439.75 -63455 107418.309 -63453.947 107397.074 -63450.797 107376.25 -63445.581 107356.038 -63438.349 107336.632 -63429.17 107318.219 -63418.134 107300.976 -63405.346 107285.07 -63390.93 107270.654 -63375.024 107257.866 -63357.781 107246.83 -63339.368 107237.651 -63319.962 107230.419 -63299.75 107225.203 -63278.926 107222.053 -63257.691 107221 -63236.25 107221 -62798.75 107222.053 -62777.309 107225.203 -62756.074 107230.419 -62735.25 107237.651 -62715.038 107246.83 -62695.632 107257.866 -62677.219 107270.654 -62659.976 107285.07 -62644.07 107300.976 -62629.654 107318.219 -62616.866 107336.632 -62605.83 107356.038 -62596.651 107376.25 -62589.419 107397.074 -62584.203 107418.309 -62581.053 107439.75 -62580 107952.25 -62580 107973.691 -62581.053 107973.691 -62581.053"/><use xlink:href="#Jw5_MUU7PQCOwZ_rhmyu_pad-11" x="107696" y="-63017.5"/><path d="M 107973.691 -61006.053 107994.926 -61009.203 108015.75 -61014.419 108035.962 -61021.651 108055.368 -61030.83 108073.781 -61041.866 108091.024 -61054.654 108106.93 -61069.07 108121.346 -61084.976 108134.134 -61102.219 108145.17 -61120.632 108154.349 -61140.038 108161.581 -61160.25 108166.797 -61181.074 108169.947 -61202.309 108171 -61223.75 108171 -61661.25 108169.947 -61682.691 108166.797 -61703.926 108161.581 -61724.75 108154.349 -61744.962 108145.17 -61764.368 108134.134 -61782.781 108121.346 -61800.024 108106.93 -61815.93 108091.024 -61830.346 108073.781 -61843.134 108055.368 -61854.17 108035.962 -61863.349 108015.75 -61870.581 107994.926 -61875.797 107973.691 -61878.947 107952.25 -61880 107439.75 -61880 107418.309 -61878.947 107397.074 -61875.797 107376.25 -61870.581 107356.038 -61863.349 107336.632 -61854.17 107318.219 -61843.134 107300.976 -61830.346 107285.07 -61815.93 107270.654 -61800.024 107257.866 -61782.781 107246.83 -61764.368 107237.651 -61744.962 107230.419 -61724.75 107225.203 -61703.926 107222.053 -61682.691 107221 -61661.25 107221 -61223.75 107222.053 -61202.309 107225.203 -61181.074 107230.419 -61160.25 107237.651 -61140.038 107246.83 -61120.632 107257.866 -61102.219 107270.654 -61084.976 107285.07 -61069.07 107300.976 -61054.654 107318.219 -61041.866 107336.632 -61030.83 107356.038 -61021.651 107376.25 -61014.419 107397.074 -61009.203 107418.309 -61006.053 107439.75 -61005 107952.25 -61005 107973.691 -61006.053 107973.691 -61006.053"/><use xlink:href="#Jw5_MUU7PQCOwZ_rhmyu_pad-11" x="107696" y="-61442.5"/><path d="M 104925.691 -62581.053 104946.926 -62584.203 104967.75 -62589.419 104987.962 -62596.651 105007.368 -62605.83 105025.781 -62616.866 105043.024 -62629.654 105058.93 -62644.07 105073.346 -62659.976 105086.134 -62677.219 105097.17 -62695.632 105106.349 -62715.038 105113.581 -62735.25 105118.797 -62756.074 105121.947 -62777.309 105123 -62798.75 105123 -63236.25 105121.947 -63257.691 105118.797 -63278.926 105113.581 -63299.75 105106.349 -63319.962 105097.17 -63339.368 105086.134 -63357.781 105073.346 -63375.024 105058.93 -63390.93 105043.024 -63405.346 105025.781 -63418.134 105007.368 -63429.17 104987.962 -63438.349 104967.75 -63445.581 104946.926 -63450.797 104925.691 -63453.947 104904.25 -63455 104391.75 -63455 104370.309 -63453.947 104349.074 -63450.797 104328.25 -63445.581 104308.038 -63438.349 104288.632 -63429.17 104270.219 -63418.134 104252.976 -63405.346 104237.07 -63390.93 104222.654 -63375.024 104209.866 -63357.781 104198.83 -63339.368 104189.651 -63319.962 104182.419 -63299.75 104177.203 -63278.926 104174.053 -63257.691 104173 -63236.25 104173 -62798.75 104174.053 -62777.309 104177.203 -62756.074 104182.419 -62735.25 104189.651 -62715.038 104198.83 -62695.632 104209.866 -62677.219 104222.654 -62659.976 104237.07 -62644.07 104252.976 -62629.654 104270.219 -62616.866 104288.632 -62605.83 104308.038 -62596.651 104328.25 -62589.419 104349.074 -62584.203 104370.309 -62581.053 104391.75 -62580 104904.25 -62580 104925.691 -62581.053 104925.691 -62581.053"/><use xlink:href="#Jw5_MUU7PQCOwZ_rhmyu_pad-11" x="104648" y="-63017.5"/><path d="M 104925.691 -61006.053 104946.926 -61009.203 104967.75 -61014.419 104987.962 -61021.651 105007.368 -61030.83 105025.781 -61041.866 105043.024 -61054.654 105058.93 -61069.07 105073.346 -61084.976 105086.134 -61102.219 105097.17 -61120.632 105106.349 -61140.038 105113.581 -61160.25 105118.797 -61181.074 105121.947 -61202.309 105123 -61223.75 105123 -61661.25 105121.947 -61682.691 105118.797 -61703.926 105113.581 -61724.75 105106.349 -61744.962 105097.17 -61764.368 105086.134 -61782.781 105073.346 -61800.024 105058.93 -61815.93 105043.024 -61830.346 105025.781 -61843.134 105007.368 -61854.17 104987.962 -61863.349 104967.75 -61870.581 104946.926 -61875.797 104925.691 -61878.947 104904.25 -61880 104391.75 -61880 104370.309 -61878.947 104349.074 -61875.797 104328.25 -61870.581 104308.038 -61863.349 104288.632 -61854.17 104270.219 -61843.134 104252.976 -61830.346 104237.07 -61815.93 104222.654 -61800.024 104209.866 -61782.781 104198.83 -61764.368 104189.651 -61744.962 104182.419 -61724.75 104177.203 -61703.926 104174.053 -61682.691 104173 -61661.25 104173 -61223.75 104174.053 -61202.309 104177.203 -61181.074 104182.419 -61160.25 104189.651 -61140.038 104198.83 -61120.632 104209.866 -61102.219 104222.654 -61084.976 104237.07 -61069.07 104252.976 -61054.654 104270.219 -61041.866 104288.632 -61030.83 104308.038 -61021.651 104328.25 -61014.419 104349.074 -61009.203 104370.309 -61006.053 104391.75 -61005 104904.25 -61005 104925.691 -61006.053 104925.691 -61006.053"/><use xlink:href="#Jw5_MUU7PQCOwZ_rhmyu_pad-11" x="104648" y="-61442.5"/></g><g id="qgRJ8pSVRmTJltTwI48-_top_copper"><use xlink:href="#SyUOUEYD3wdvIFB3MkC0_pad-10" x="108720" y="-73160"/><use xlink:href="#SyUOUEYD3wdvIFB3MkC0_pad-10" x="106180" y="-73160"/><use xlink:href="#SyUOUEYD3wdvIFB3MkC0_pad-10" x="103640" y="-73160"/><use xlink:href="#SyUOUEYD3wdvIFB3MkC0_pad-11" x="108204" y="-66040"/><use xlink:href="#SyUOUEYD3wdvIFB3MkC0_pad-12" x="106204" y="-66040"/><use xlink:href="#SyUOUEYD3wdvIFB3MkC0_pad-11" x="104204" y="-66040"/><use xlink:href="#SyUOUEYD3wdvIFB3MkC0_pad-10" x="103640" y="-57920"/><use xlink:href="#SyUOUEYD3wdvIFB3MkC0_pad-10" x="106180" y="-57920"/><use xlink:href="#SyUOUEYD3wdvIFB3MkC0_pad-10" x="108720" y="-57920"/><path d="M 107973.691 -62581.053 107994.926 -62584.203 108015.75 -62589.419 108035.962 -62596.651 108055.368 -62605.83 108073.781 -62616.866 108091.024 -62629.654 108106.93 -62644.07 108121.346 -62659.976 108134.134 -62677.219 108145.17 -62695.632 108154.349 -62715.038 108161.581 -62735.25 108166.797 -62756.074 108169.947 -62777.309 108171 -62798.75 108171 -63236.25 108169.947 -63257.691 108166.797 -63278.926 108161.581 -63299.75 108154.349 -63319.962 108145.17 -63339.368 108134.134 -63357.781 108121.346 -63375.024 108106.93 -63390.93 108091.024 -63405.346 108073.781 -63418.134 108055.368 -63429.17 108035.962 -63438.349 108015.75 -63445.581 107994.926 -63450.797 107973.691 -63453.947 107952.25 -63455 107439.75 -63455 107418.309 -63453.947 107397.074 -63450.797 107376.25 -63445.581 107356.038 -63438.349 107336.632 -63429.17 107318.219 -63418.134 107300.976 -63405.346 107285.07 -63390.93 107270.654 -63375.024 107257.866 -63357.781 107246.83 -63339.368 107237.651 -63319.962 107230.419 -63299.75 107225.203 -63278.926 107222.053 -63257.691 107221 -63236.25 107221 -62798.75 107222.053 -62777.309 107225.203 -62756.074 107230.419 -62735.25 107237.651 -62715.038 107246.83 -62695.632 107257.866 -62677.219 107270.654 -62659.976 107285.07 -62644.07 107300.976 -62629.654 107318.219 -62616.866 107336.632 -62605.83 107356.038 -62596.651 107376.25 -62589.419 107397.074 -62584.203 107418.309 -62581.053 107439.75 -62580 107952.25 -62580 107973.691 -62581.053 107973.691 -62581.053"/><use xlink:href="#SyUOUEYD3wdvIFB3MkC0_pad-14" x="107696" y="-63017.5"/><path d="M 107973.691 -61006.053 107994.926 -61009.203 108015.75 -61014.419 108035.962 -61021.651 108055.368 -61030.83 108073.781 -61041.866 108091.024 -61054.654 108106.93 -61069.07 108121.346 -61084.976 108134.134 -61102.219 108145.17 -61120.632 108154.349 -61140.038 108161.581 -61160.25 108166.797 -61181.074 108169.947 -61202.309 108171 -61223.75 108171 -61661.25 108169.947 -61682.691 108166.797 -61703.926 108161.581 -61724.75 108154.349 -61744.962 108145.17 -61764.368 108134.134 -61782.781 108121.346 -61800.024 108106.93 -61815.93 108091.024 -61830.346 108073.781 -61843.134 108055.368 -61854.17 108035.962 -61863.349 108015.75 -61870.581 107994.926 -61875.797 107973.691 -61878.947 107952.25 -61880 107439.75 -61880 107418.309 -61878.947 107397.074 -61875.797 107376.25 -61870.581 107356.038 -61863.349 107336.632 -61854.17 107318.219 -61843.134 107300.976 -61830.346 107285.07 -61815.93 107270.654 -61800.024 107257.866 -61782.781 107246.83 -61764.368 107237.651 -61744.962 107230.419 -61724.75 107225.203 -61703.926 107222.053 -61682.691 107221 -61661.25 107221 -61223.75 107222.053 -61202.309 107225.203 -61181.074 107230.419 -61160.25 107237.651 -61140.038 107246.83 -61120.632 107257.866 -61102.219 107270.654 -61084.976 107285.07 -61069.07 107300.976 -61054.654 107318.219 -61041.866 107336.632 -61030.83 107356.038 -61021.651 107376.25 -61014.419 107397.074 -61009.203 107418.309 -61006.053 107439.75 -61005 107952.25 -61005 107973.691 -61006.053 107973.691 -61006.053"/><use xlink:href="#SyUOUEYD3wdvIFB3MkC0_pad-14" x="107696" y="-61442.5"/><path d="M 104925.691 -62581.053 104946.926 -62584.203 104967.75 -62589.419 104987.962 -62596.651 105007.368 -62605.83 105025.781 -62616.866 105043.024 -62629.654 105058.93 -62644.07 105073.346 -62659.976 105086.134 -62677.219 105097.17 -62695.632 105106.349 -62715.038 105113.581 -62735.25 105118.797 -62756.074 105121.947 -62777.309 105123 -62798.75 105123 -63236.25 105121.947 -63257.691 105118.797 -63278.926 105113.581 -63299.75 105106.349 -63319.962 105097.17 -63339.368 105086.134 -63357.781 105073.346 -63375.024 105058.93 -63390.93 105043.024 -63405.346 105025.781 -63418.134 105007.368 -63429.17 104987.962 -63438.349 104967.75 -63445.581 104946.926 -63450.797 104925.691 -63453.947 104904.25 -63455 104391.75 -63455 104370.309 -63453.947 104349.074 -63450.797 104328.25 -63445.581 104308.038 -63438.349 104288.632 -63429.17 104270.219 -63418.134 104252.976 -63405.346 104237.07 -63390.93 104222.654 -63375.024 104209.866 -63357.781 104198.83 -63339.368 104189.651 -63319.962 104182.419 -63299.75 104177.203 -63278.926 104174.053 -63257.691 104173 -63236.25 104173 -62798.75 104174.053 -62777.309 104177.203 -62756.074 104182.419 -62735.25 104189.651 -62715.038 104198.83 -62695.632 104209.866 -62677.219 104222.654 -62659.976 104237.07 -62644.07 104252.976 -62629.654 104270.219 -62616.866 104288.632 -62605.83 104308.038 -62596.651 104328.25 -62589.419 104349.074 -62584.203 104370.309 -62581.053 104391.75 -62580 104904.25 -62580 104925.691 -62581.053 104925.691 -62581.053"/><use xlink:href="#SyUOUEYD3wdvIFB3MkC0_pad-14" x="104648" y="-63017.5"/><path d="M 104925.691 -61006.053 104946.926 -61009.203 104967.75 -61014.419 104987.962 -61021.651 105007.368 -61030.83 105025.781 -61041.866 105043.024 -61054.654 105058.93 -61069.07 105073.346 -61084.976 105086.134 -61102.219 105097.17 -61120.632 105106.349 -61140.038 105113.581 -61160.25 105118.797 -61181.074 105121.947 -61202.309 105123 -61223.75 105123 -61661.25 105121.947 -61682.691 105118.797 -61703.926 105113.581 -61724.75 105106.349 -61744.962 105097.17 -61764.368 105086.134 -61782.781 105073.346 -61800.024 105058.93 -61815.93 105043.024 -61830.346 105025.781 -61843.134 105007.368 -61854.17 104987.962 -61863.349 104967.75 -61870.581 104946.926 -61875.797 104925.691 -61878.947 104904.25 -61880 104391.75 -61880 104370.309 -61878.947 104349.074 -61875.797 104328.25 -61870.581 104308.038 -61863.349 104288.632 -61854.17 104270.219 -61843.134 104252.976 -61830.346 104237.07 -61815.93 104222.654 -61800.024 104209.866 -61782.781 104198.83 -61764.368 104189.651 -61744.962 104182.419 -61724.75 104177.203 -61703.926 104174.053 -61682.691 104173 -61661.25 104173 -61223.75 104174.053 -61202.309 104177.203 -61181.074 104182.419 -61160.25 104189.651 -61140.038 104198.83 -61120.632 104209.866 -61102.219 104222.654 -61084.976 104237.07 -61069.07 104252.976 -61054.654 104270.219 -61041.866 104288.632 -61030.83 104308.038 -61021.651 104328.25 -61014.419 104349.074 -61009.203 104370.309 -61006.053 104391.75 -61005 104904.25 -61005 104925.691 -61006.053 104925.691 -61006.053"/><use xlink:href="#SyUOUEYD3wdvIFB3MkC0_pad-14" x="104648" y="-61442.5"/><path d="M 107696 -65532 108204 -66040 M 107696 -63017.5 107696 -65532 M 104648 -65596 104204 -66040 M 104648 -63017.5 104648 -65596 M 104648 -58928 103640 -57920 M 104648 -61442.5 104648 -58928 M 107696 -58944 108720 -57920 M 107696 -61442.5 107696 -58944" fill="none" stroke-width="406.4"/><path d="M 102569.375 -56849.375 102241.161 -57340.582 102125.908 -57920 102241.161 -58499.418 102569.375 -58990.625 103060.582 -59318.839 103493.744 -59405 103786.256 -59405 103809.801 -59400.317 103809.8 -60590.855 103779.261 -60611.261 103591.495 -60892.273 103525.56 -61223.75 103525.56 -61661.25 103591.495 -61992.727 103750.036 -62230 103591.495 -62467.273 103525.56 -62798.75 103525.56 -63236.25 103591.495 -63567.727 103779.261 -63848.739 103809.8 -63869.145 103809.801 -64650.05 103391.138 -64823.466 102987.466 -65227.138 102769 -65754.561 102769 -66325.439 102987.466 -66852.862 103391.138 -67256.534 103918.561 -67475 104489.439 -67475 104950.144 -67284.17 105044.302 -67378.327 105277.691 -67475 105918.25 -67475 106077 -67316.25 106077 -66167 106057 -66167 106057 -65913 106077 -65913 106077 -64763.75 105918.25 -64605 105486.2 -64605 105486.2 -63869.144 105516.739 -63848.739 105704.505 -63567.727 105770.44 -63236.25 105770.44 -62798.75 105704.505 -62467.273 105545.964 -62230 105704.505 -61992.727 105770.44 -61661.25 105770.44 -61223.75 105704.505 -60892.273 105516.739 -60611.261 105486.2 -60590.856 105486.2 -59221.932 105823.11 -59361.476 106053 -59240.155 106053 -58047 106033 -58047 106033 -57793 106053 -57793 106053 -57773 106307 -57773 106307 -57793 106327 -57793 106327 -58047 106307 -58047 106307 -59240.155 106536.89 -59361.476 106857.801 -59228.559 106857.8 -60590.855 106827.261 -60611.261 106639.495 -60892.273 106573.56 -61223.75 106573.56 -61661.25 106639.495 -61992.727 106798.036 -62230 106639.495 -62467.273 106573.56 -62798.75 106573.56 -63236.25 106639.495 -63567.727 106827.261 -63848.739 106857.8 -63869.145 106857.801 -64605 106489.75 -64605 106331 -64763.75 106331 -65913 106351 -65913 106351 -66167 106331 -66167 106331 -67316.25 106489.75 -67475 107130.309 -67475 107363.698 -67378.327 107457.856 -67284.17 107918.561 -67475 108489.439 -67475 109016.862 -67256.534 109420.534 -66852.862 109639 -66325.439 109639 -65754.561 109420.534 -65227.138 109016.862 -64823.466 108534.2 -64623.541 108534.2 -63869.144 108564.739 -63848.739 108752.505 -63567.727 108818.44 -63236.25 108818.44 -62798.75 108752.505 -62467.273 108593.964 -62230 108752.505 -61992.727 108818.44 -61661.25 108818.44 -61223.75 108752.505 -60892.273 108564.739 -60611.261 108534.2 -60590.856 108534.2 -59397.134 108573.744 -59405 108866.256 -59405 109299.418 -59318.839 109790.625 -58990.625 110118.839 -58499.418 110234.092 -57920 110118.839 -57340.582 109790.625 -56849.375 109582.036 -56710 110290.001 -56710 110290 -74290 109642.35 -74290 109915.183 -74041.358 110161.486 -73516.892 110040.819 -73287 108847 -73287 108847 -73307 108593 -73307 108593 -73287 106307 -73287 106307 -73307 106053 -73307 106053 -73287 103767 -73287 103767 -73307 103513 -73307 103513 -73287 102319.181 -73287 102198.514 -73516.892 102444.817 -74041.358 102717.65 -74290 101710 -74290 101710 -72803.108 102198.514 -72803.108 102319.181 -73033 103513 -73033 103513 -71839.845 103767 -71839.845 103767 -73033 106053 -73033 106053 -71839.845 106307 -71839.845 106307 -73033 108593 -73033 108593 -71839.845 108847 -71839.845 108847 -73033 110040.819 -73033 110161.486 -72803.108 109915.183 -72278.642 109486.924 -71888.355 109076.89 -71718.524 108847 -71839.845 108593 -71839.845 108363.11 -71718.524 107953.076 -71888.355 107524.817 -72278.642 107450 -72437.954 107375.183 -72278.642 106946.924 -71888.355 106536.89 -71718.524 106307 -71839.845 106053 -71839.845 105823.11 -71718.524 105413.076 -71888.355 104984.817 -72278.642 104910 -72437.954 104835.183 -72278.642 104406.924 -71888.355 103996.89 -71718.524 103767 -71839.845 103513 -71839.845 103283.11 -71718.524 102873.076 -71888.355 102444.817 -72278.642 102198.514 -72803.108 101710 -72803.108 101710 -56710 102777.964 -56710 102569.375 -56849.375 102569.375 -56849.375"/><path d="M 102569.375 -56849.375 102241.161 -57340.582 102125.908 -57920 102241.161 -58499.418 102569.375 -58990.625 103060.582 -59318.839 103493.744 -59405 103786.256 -59405 103809.801 -59400.317 103809.8 -60590.855 103779.261 -60611.261 103591.495 -60892.273 103525.56 -61223.75 103525.56 -61661.25 103591.495 -61992.727 103750.036 -62230 103591.495 -62467.273 103525.56 -62798.75 103525.56 -63236.25 103591.495 -63567.727 103779.261 -63848.739 103809.8 -63869.145 103809.801 -64650.05 103391.138 -64823.466 102987.466 -65227.138 102769 -65754.561 102769 -66325.439 102987.466 -66852.862 103391.138 -67256.534 103918.561 -67475 104489.439 -67475 104950.144 -67284.17 105044.302 -67378.327 105277.691 -67475 105918.25 -67475 106077 -67316.25 106077 -66167 106057 -66167 106057 -65913 106077 -65913 106077 -64763.75 105918.25 -64605 105486.2 -64605 105486.2 -63869.144 105516.739 -63848.739 105704.505 -63567.727 105770.44 -63236.25 105770.44 -62798.75 105704.505 -62467.273 105545.964 -62230 105704.505 -61992.727 105770.44 -61661.25 105770.44 -61223.75 105704.505 -60892.273 105516.739 -60611.261 105486.2 -60590.856 105486.2 -59221.932 105823.11 -59361.476 106053 -59240.155 106053 -58047 106033 -58047 106033 -57793 106053 -57793 106053 -57773 106307 -57773 106307 -57793 106327 -57793 106327 -58047 106307 -58047 106307 -59240.155 106536.89 -59361.476 106857.801 -59228.559 106857.8 -60590.855 106827.261 -60611.261 106639.495 -60892.273 106573.56 -61223.75 106573.56 -61661.25 106639.495 -61992.727 106798.036 -62230 106639.495 -62467.273 106573.56 -62798.75 106573.56 -63236.25 106639.495 -63567.727 106827.261 -63848.739 106857.8 -63869.145 106857.801 -64605 106489.75 -64605 106331 -64763.75 106331 -65913 106351 -65913 106351 -66167 106331 -66167 106331 -67316.25 106489.75 -67475 107130.309 -67475 107363.698 -67378.327 107457.856 -67284.17 107918.561 -67475 108489.439 -67475 109016.862 -67256.534 109420.534 -66852.862 109639 -66325.439 109639 -65754.561 109420.534 -65227.138 109016.862 -64823.466 108534.2 -64623.541 108534.2 -63869.144 108564.739 -63848.739 108752.505 -63567.727 108818.44 -63236.25 108818.44 -62798.75 108752.505 -62467.273 108593.964 -62230 108752.505 -61992.727 108818.44 -61661.25 108818.44 -61223.75 108752.505 -60892.273 108564.739 -60611.261 108534.2 -60590.856 108534.2 -59397.134 108573.744 -59405 108866.256 -59405 109299.418 -59318.839 109790.625 -58990.625 110118.839 -58499.418 110234.092 -57920 110118.839 -57340.582 109790.625 -56849.375 109582.036 -56710 110290.001 -56710 110290 -74290 109642.35 -74290 109915.183 -74041.358 110161.486 -73516.892 110040.819 -73287 108847 -73287 108847 -73307 108593 -73307 108593 -73287 106307 -73287 106307 -73307 106053 -73307 106053 -73287 103767 -73287 103767 -73307 103513 -73307 103513 -73287 102319.181 -73287 102198.514 -73516.892 102444.817 -74041.358 102717.65 -74290 101710 -74290 101710 -72803.108 102198.514 -72803.108 102319.181 -73033 103513 -73033 103513 -71839.845 103767 -71839.845 103767 -73033 106053 -73033 106053 -71839.845 106307 -71839.845 106307 -73033 108593 -73033 108593 -71839.845 108847 -71839.845 108847 -73033 110040.819 -73033 110161.486 -72803.108 109915.183 -72278.642 109486.924 -71888.355 109076.89 -71718.524 108847 -71839.845 108593 -71839.845 108363.11 -71718.524 107953.076 -71888.355 107524.817 -72278.642 107450 -72437.954 107375.183 -72278.642 106946.924 -71888.355 106536.89 -71718.524 106307 -71839.845 106053 -71839.845 105823.11 -71718.524 105413.076 -71888.355 104984.817 -72278.642 104910 -72437.954 104835.183 -72278.642 104406.924 -71888.355 103996.89 -71718.524 103767 -71839.845 103513 -71839.845 103283.11 -71718.524 102873.076 -71888.355 102444.817 -72278.642 102198.514 -72803.108 101710 -72803.108 101710 -56710 102777.964 -56710 102569.375 -56849.375" fill="none" stroke-width="254"/><use xlink:href="#SyUOUEYD3wdvIFB3MkC0_pad-17" x="108720" y="-73160"/><use xlink:href="#SyUOUEYD3wdvIFB3MkC0_pad-17" x="106180" y="-73160"/><use xlink:href="#SyUOUEYD3wdvIFB3MkC0_pad-17" x="103640" y="-73160"/><use xlink:href="#SyUOUEYD3wdvIFB3MkC0_pad-17" x="108204" y="-66040"/><use xlink:href="#SyUOUEYD3wdvIFB3MkC0_pad-17" x="106204" y="-66040"/><use xlink:href="#SyUOUEYD3wdvIFB3MkC0_pad-17" x="104204" y="-66040"/><use xlink:href="#SyUOUEYD3wdvIFB3MkC0_pad-17" x="103640" y="-57920"/><use xlink:href="#SyUOUEYD3wdvIFB3MkC0_pad-17" x="106180" y="-57920"/><use xlink:href="#SyUOUEYD3wdvIFB3MkC0_pad-17" x="108720" y="-57920"/></g><g id="qgRJ8pSVRmTJltTwI48-_top_silkscreen"><path d="M 109728 -71120 109728 -71628 M 107696 -71120 109728 -71120 M 102616 -71120 102616 -71628 M 104648 -71120 102616 -71120 M 107900.952 -60277.38 107900.952 -59277.38 M 108281.904 -60277.38 108281.904 -59277.38 108739.047 -60277.38 108739.047 -59277.38 M 109577.142 -60277.38 109310.476 -59801.19 M 109120 -60277.38 109120 -59277.38 109424.761 -59277.38 109500.952 -59325 109539.047 -59372.619 109577.142 -59467.857 109577.142 -59610.714 109539.047 -59705.952 109500.952 -59753.571 109424.761 -59801.19 109120 -59801.19 M 102820.952 -60277.38 102820.952 -59277.38 M 103201.904 -60277.38 103201.904 -59277.38 103659.047 -60277.38 103659.047 -59277.38 M 104459.047 -59325 104382.857 -59277.38 104268.571 -59277.38 104154.285 -59325 104078.095 -59420.238 104040 -59515.476 104001.904 -59705.952 104001.904 -59848.809 104040 -60039.285 104078.095 -60134.523 104154.285 -60229.761 104268.571 -60277.38 104344.761 -60277.38 104459.047 -60229.761 104497.142 -60182.142 104497.142 -59848.809 104344.761 -59848.809 M 105608.571 -70755 105537.142 -70707.38 105430 -70707.38 105322.857 -70755 105251.428 -70850.238 105215.714 -70945.476 105180 -71135.952 105180 -71278.809 105215.714 -71469.285 105251.428 -71564.523 105322.857 -71659.761 105430 -71707.38 105501.428 -71707.38 105608.571 -71659.761 105644.285 -71612.142 105644.285 -71278.809 105501.428 -71278.809 M 105965.714 -71707.38 105965.714 -70707.38 106394.285 -71707.38 106394.285 -70707.38 M 106751.428 -71707.38 106751.428 -70707.38 106930 -70707.38 107037.142 -70755 107108.571 -70850.238 107144.285 -70945.476 107180 -71135.952 107180 -71278.809 107144.285 -71469.285 107108.571 -71564.523 107037.142 -71659.761 106930 -71707.38 106751.428 -71707.38 M 105570.476 -59325 105494.285 -59277.38 105380 -59277.38 105265.714 -59325 105189.523 -59420.238 105151.428 -59515.476 105113.333 -59705.952 105113.333 -59848.809 105151.428 -60039.285 105189.523 -60134.523 105265.714 -60229.761 105380 -60277.38 105456.19 -60277.38 105570.476 -60229.761 105608.571 -60182.142 105608.571 -59848.809 105456.19 -59848.809 M 105951.428 -60277.38 105951.428 -59277.38 106408.571 -60277.38 106408.571 -59277.38 M 106789.523 -60277.38 106789.523 -59277.38 106980 -59277.38 107094.285 -59325 107170.476 -59420.238 107208.571 -59515.476 107246.666 -59705.952 107246.666 -59848.809 107208.571 -60039.285 107170.476 -60134.523 107094.285 -60229.761 106980 -60277.38 106789.523 -60277.38 M 106067.428 -70048.38 105615.047 -70048.38 105615.047 -69048.38 M 106384.095 -69524.571 106700.761 -69524.571 M 106836.476 -70048.38 106384.095 -70048.38 106384.095 -69048.38 106836.476 -69048.38 M 107243.619 -70048.38 107243.619 -69048.38 107469.809 -69048.38 107605.523 -69096 107696 -69191.238 107741.238 -69286.476 107786.476 -69476.952 107786.476 -69619.809 107741.238 -69810.285 107696 -69905.523 107605.523 -70000.761 107469.809 -70048.38 107243.619 -70048.38 M 108917.428 -70048.38 108917.428 -69048.38 M 108917.428 -69429.333 109007.904 -69381.714 109188.857 -69381.714 109279.333 -69429.333 109324.571 -69476.952 109369.809 -69572.19 109369.809 -69857.904 109324.571 -69953.142 109279.333 -70000.761 109188.857 -70048.38 109007.904 -70048.38 108917.428 -70000.761 M 109776.952 -70048.38 109776.952 -69381.714 M 109776.952 -69048.38 109731.714 -69096 109776.952 -69143.619 109822.19 -69096 109776.952 -69048.38 109776.952 -69143.619" fill="none" stroke-width="150"/><path d="M 104531.665 -67118.608 A 1989.9998919 1989.9998919 0 0 1 107764 -67275.516 M 104531.665 -64961.392 A 1989.9998919 1989.9998919 0 0 0 107764 -64804.484 M 105162.87 -67119.837 A 1499.9998745 1499.9998745 0 0 1 107244.961 -67120 M 105162.87 -64960.163 A 1499.9998745 1499.9998745 0 0 0 107244.961 -64960 M 107764 -67276 107764 -67120 M 107764 -64960 107764 -64804 M 107186 -62392.779 107186 -62067.221 M 108206 -62392.779 108206 -62067.221 M 104138 -62392.779 104138 -62067.221 M 105158 -62392.779 105158 -62067.221" fill="none" stroke-width="120"/><path d="M 103139.904 -68524.38 103139.904 -67524.38 103378 -67524.38 103520.857 -67572 103616.095 -67667.238 103663.714 -67762.476 103711.333 -67952.952 103711.333 -68095.809 103663.714 -68286.285 103616.095 -68381.523 103520.857 -68476.761 103378 -68524.38 103139.904 -68524.38 M 104663.714 -68524.38 104092.285 -68524.38 M 104378 -68524.38 104378 -67524.38 104282.761 -67667.238 104187.523 -67762.476 104092.285 -67810.095 M 109561.333 -62682.38 109228 -62206.19 M 108989.904 -62682.38 108989.904 -61682.38 109370.857 -61682.38 109466.095 -61730 109513.714 -61777.619 109561.333 -61872.857 109561.333 -62015.714 109513.714 -62110.952 109466.095 -62158.571 109370.857 -62206.19 108989.904 -62206.19 M 110513.714 -62682.38 109942.285 -62682.38 M 110228 -62682.38 110228 -61682.38 110132.761 -61825.238 110037.523 -61920.476 109942.285 -61968.095 M 102449.333 -62682.38 102116 -62206.19 M 101877.904 -62682.38 101877.904 -61682.38 102258.857 -61682.38 102354.095 -61730 102401.714 -61777.619 102449.333 -61872.857 102449.333 -62015.714 102401.714 -62110.952 102354.095 -62158.571 102258.857 -62206.19 101877.904 -62206.19 M 102830.285 -61777.619 102877.904 -61730 102973.142 -61682.38 103211.238 -61682.38 103306.476 -61730 103354.095 -61777.619 103401.714 -61872.857 103401.714 -61968.095 103354.095 -62110.952 102782.666 -62682.38 103401.714 -62682.38" fill="none" stroke-width="150"/></g><g id="qgRJ8pSVRmTJltTwI48-_top_soldermask"><use xlink:href="#rd7ISdSHrSxdqywiRubR_pad-10" x="108720" y="-73160"/><use xlink:href="#rd7ISdSHrSxdqywiRubR_pad-10" x="106180" y="-73160"/><use xlink:href="#rd7ISdSHrSxdqywiRubR_pad-10" x="103640" y="-73160"/><use xlink:href="#rd7ISdSHrSxdqywiRubR_pad-11" x="108204" y="-66040"/><use xlink:href="#rd7ISdSHrSxdqywiRubR_pad-12" x="106204" y="-66040"/><use xlink:href="#rd7ISdSHrSxdqywiRubR_pad-11" x="104204" y="-66040"/><use xlink:href="#rd7ISdSHrSxdqywiRubR_pad-10" x="103640" y="-57920"/><use xlink:href="#rd7ISdSHrSxdqywiRubR_pad-10" x="106180" y="-57920"/><use xlink:href="#rd7ISdSHrSxdqywiRubR_pad-10" x="108720" y="-57920"/><path d="M 108083.493 -62381.535 108114.435 -62386.125 108144.778 -62393.725 108174.23 -62404.263 108202.508 -62417.638 108229.338 -62433.719 108254.463 -62452.353 108277.64 -62473.36 108298.647 -62496.537 108317.281 -62521.662 108333.362 -62548.492 108346.737 -62576.77 108357.275 -62606.222 108364.875 -62636.565 108369.465 -62667.507 108371 -62698.75 108371 -63336.25 108369.465 -63367.493 108364.875 -63398.435 108357.275 -63428.778 108346.737 -63458.23 108333.362 -63486.508 108317.281 -63513.338 108298.647 -63538.463 108277.64 -63561.64 108254.463 -63582.647 108229.338 -63601.281 108202.508 -63617.362 108174.23 -63630.737 108144.778 -63641.275 108114.435 -63648.875 108083.493 -63653.465 108052.25 -63655 107339.75 -63655 107308.507 -63653.465 107277.565 -63648.875 107247.222 -63641.275 107217.77 -63630.737 107189.492 -63617.362 107162.662 -63601.281 107137.537 -63582.647 107114.36 -63561.64 107093.353 -63538.463 107074.719 -63513.338 107058.638 -63486.508 107045.263 -63458.23 107034.725 -63428.778 107027.125 -63398.435 107022.535 -63367.493 107021 -63336.25 107021 -62698.75 107022.535 -62667.507 107027.125 -62636.565 107034.725 -62606.222 107045.263 -62576.77 107058.638 -62548.492 107074.719 -62521.662 107093.353 -62496.537 107114.36 -62473.36 107137.537 -62452.353 107162.662 -62433.719 107189.492 -62417.638 107217.77 -62404.263 107247.222 -62393.725 107277.565 -62386.125 107308.507 -62381.535 107339.75 -62380 108052.25 -62380 108083.493 -62381.535 108083.493 -62381.535"/><use xlink:href="#rd7ISdSHrSxdqywiRubR_pad-14" x="107696" y="-63017.5"/><path d="M 108083.493 -60806.535 108114.435 -60811.125 108144.778 -60818.725 108174.23 -60829.263 108202.508 -60842.638 108229.338 -60858.719 108254.463 -60877.353 108277.64 -60898.36 108298.647 -60921.537 108317.281 -60946.662 108333.362 -60973.492 108346.737 -61001.77 108357.275 -61031.222 108364.875 -61061.565 108369.465 -61092.507 108371 -61123.75 108371 -61761.25 108369.465 -61792.493 108364.875 -61823.435 108357.275 -61853.778 108346.737 -61883.23 108333.362 -61911.508 108317.281 -61938.338 108298.647 -61963.463 108277.64 -61986.64 108254.463 -62007.647 108229.338 -62026.281 108202.508 -62042.362 108174.23 -62055.737 108144.778 -62066.275 108114.435 -62073.875 108083.493 -62078.465 108052.25 -62080 107339.75 -62080 107308.507 -62078.465 107277.565 -62073.875 107247.222 -62066.275 107217.77 -62055.737 107189.492 -62042.362 107162.662 -62026.281 107137.537 -62007.647 107114.36 -61986.64 107093.353 -61963.463 107074.719 -61938.338 107058.638 -61911.508 107045.263 -61883.23 107034.725 -61853.778 107027.125 -61823.435 107022.535 -61792.493 107021 -61761.25 107021 -61123.75 107022.535 -61092.507 107027.125 -61061.565 107034.725 -61031.222 107045.263 -61001.77 107058.638 -60973.492 107074.719 -60946.662 107093.353 -60921.537 107114.36 -60898.36 107137.537 -60877.353 107162.662 -60858.719 107189.492 -60842.638 107217.77 -60829.263 107247.222 -60818.725 107277.565 -60811.125 107308.507 -60806.535 107339.75 -60805 108052.25 -60805 108083.493 -60806.535 108083.493 -60806.535"/><use xlink:href="#rd7ISdSHrSxdqywiRubR_pad-14" x="107696" y="-61442.5"/><path d="M 105035.493 -62381.535 105066.435 -62386.125 105096.778 -62393.725 105126.23 -62404.263 105154.508 -62417.638 105181.338 -62433.719 105206.463 -62452.353 105229.64 -62473.36 105250.647 -62496.537 105269.281 -62521.662 105285.362 -62548.492 105298.737 -62576.77 105309.275 -62606.222 105316.875 -62636.565 105321.465 -62667.507 105323 -62698.75 105323 -63336.25 105321.465 -63367.493 105316.875 -63398.435 105309.275 -63428.778 105298.737 -63458.23 105285.362 -63486.508 105269.281 -63513.338 105250.647 -63538.463 105229.64 -63561.64 105206.463 -63582.647 105181.338 -63601.281 105154.508 -63617.362 105126.23 -63630.737 105096.778 -63641.275 105066.435 -63648.875 105035.493 -63653.465 105004.25 -63655 104291.75 -63655 104260.507 -63653.465 104229.565 -63648.875 104199.222 -63641.275 104169.77 -63630.737 104141.492 -63617.362 104114.662 -63601.281 104089.537 -63582.647 104066.36 -63561.64 104045.353 -63538.463 104026.719 -63513.338 104010.638 -63486.508 103997.263 -63458.23 103986.725 -63428.778 103979.125 -63398.435 103974.535 -63367.493 103973 -63336.25 103973 -62698.75 103974.535 -62667.507 103979.125 -62636.565 103986.725 -62606.222 103997.263 -62576.77 104010.638 -62548.492 104026.719 -62521.662 104045.353 -62496.537 104066.36 -62473.36 104089.537 -62452.353 104114.662 -62433.719 104141.492 -62417.638 104169.77 -62404.263 104199.222 -62393.725 104229.565 -62386.125 104260.507 -62381.535 104291.75 -62380 105004.25 -62380 105035.493 -62381.535 105035.493 -62381.535"/><use xlink:href="#rd7ISdSHrSxdqywiRubR_pad-14" x="104648" y="-63017.5"/><path d="M 105035.493 -60806.535 105066.435 -60811.125 105096.778 -60818.725 105126.23 -60829.263 105154.508 -60842.638 105181.338 -60858.719 105206.463 -60877.353 105229.64 -60898.36 105250.647 -60921.537 105269.281 -60946.662 105285.362 -60973.492 105298.737 -61001.77 105309.275 -61031.222 105316.875 -61061.565 105321.465 -61092.507 105323 -61123.75 105323 -61761.25 105321.465 -61792.493 105316.875 -61823.435 105309.275 -61853.778 105298.737 -61883.23 105285.362 -61911.508 105269.281 -61938.338 105250.647 -61963.463 105229.64 -61986.64 105206.463 -62007.647 105181.338 -62026.281 105154.508 -62042.362 105126.23 -62055.737 105096.778 -62066.275 105066.435 -62073.875 105035.493 -62078.465 105004.25 -62080 104291.75 -62080 104260.507 -62078.465 104229.565 -62073.875 104199.222 -62066.275 104169.77 -62055.737 104141.492 -62042.362 104114.662 -62026.281 104089.537 -62007.647 104066.36 -61986.64 104045.353 -61963.463 104026.719 -61938.338 104010.638 -61911.508 103997.263 -61883.23 103986.725 -61853.778 103979.125 -61823.435 103974.535 -61792.493 103973 -61761.25 103973 -61123.75 103974.535 -61092.507 103979.125 -61061.565 103986.725 -61031.222 103997.263 -61001.77 104010.638 -60973.492 104026.719 -60946.662 104045.353 -60921.537 104066.36 -60898.36 104089.537 -60877.353 104114.662 -60858.719 104141.492 -60842.638 104169.77 -60829.263 104199.222 -60818.725 104229.565 -60811.125 104260.507 -60806.535 104291.75 -60805 105004.25 -60805 105035.493 -60806.535 105035.493 -60806.535"/><use xlink:href="#rd7ISdSHrSxdqywiRubR_pad-14" x="104648" y="-61442.5"/></g><g id="qgRJ8pSVRmTJltTwI48-_top_drill1"><use xlink:href="#t805G5v0b-uJSZKo-64d_pad-1" x="104204" y="-66040"/><use xlink:href="#t805G5v0b-uJSZKo-64d_pad-1" x="106204" y="-66040"/><use xlink:href="#t805G5v0b-uJSZKo-64d_pad-1" x="108204" y="-66040"/><use xlink:href="#t805G5v0b-uJSZKo-64d_pad-2" x="103640" y="-73160"/><use xlink:href="#t805G5v0b-uJSZKo-64d_pad-2" x="106180" y="-73160"/><use xlink:href="#t805G5v0b-uJSZKo-64d_pad-2" x="108720" y="-73160"/><use xlink:href="#t805G5v0b-uJSZKo-64d_pad-2" x="103640" y="-57920"/><use xlink:href="#t805G5v0b-uJSZKo-64d_pad-2" x="106180" y="-57920"/><use xlink:href="#t805G5v0b-uJSZKo-64d_pad-2" x="108720" y="-57920"/></g><clipPath id="qgRJ8pSVRmTJltTwI48-_top_outline"><path d="M 101000 -56000 101000 -75000 111000 -75000 111000 -56000 101000 -56000" fill="none" stroke-width="150"/></clipPath><mask id="qgRJ8pSVRmTJltTwI48-_top_mech-mask"><g fill="#000" stroke="#000"><rect x="101000" y="-75000" width="10000" height="19000" fill="#fff"/><use xlink:href="#qgRJ8pSVRmTJltTwI48-_top_drill1"/></g></mask><mask id="qgRJ8pSVRmTJltTwI48-_top_cf-mask"><g fill="#fff" stroke="#fff"><use xlink:href="#qgRJ8pSVRmTJltTwI48-_top_soldermask"/></g></mask><mask id="qgRJ8pSVRmTJltTwI48-_top_sm-mask"><g fill="#000" stroke="#000"><rect x="101000" y="-75000" width="10000" height="19000" fill="#fff"/><use xlink:href="#qgRJ8pSVRmTJltTwI48-_top_soldermask"/></g></mask></defs><g transform="translate(0,-131000) scale(1,-1)"><g mask="url(#qgRJ8pSVRmTJltTwI48-_top_mech-mask)" clip-path="url(#qgRJ8pSVRmTJltTwI48-_top_outline)"><rect x="101000" y="-75000" width="10000" height="19000" fill="currentColor" class="qgRJ8pSVRmTJltTwI48-_fr4"/><use xlink:href="#qgRJ8pSVRmTJltTwI48-_top_copper" fill="currentColor" stroke="currentColor" class="qgRJ8pSVRmTJltTwI48-_cu"/><use xlink:href="#qgRJ8pSVRmTJltTwI48-_top_copper" fill="currentColor" stroke="currentColor" class="qgRJ8pSVRmTJltTwI48-_cf" mask="url(#qgRJ8pSVRmTJltTwI48-_top_cf-mask)"/><g mask="url(#qgRJ8pSVRmTJltTwI48-_top_sm-mask)"><rect x="101000" y="-75000" width="10000" height="19000" fill="currentColor" class="qgRJ8pSVRmTJltTwI48-_sm"/><use xlink:href="#qgRJ8pSVRmTJltTwI48-_top_silkscreen" fill="currentColor" stroke="currentColor" class="qgRJ8pSVRmTJltTwI48-_ss"/></g><use xlink:href="#qgRJ8pSVRmTJltTwI48-_top_solderpaste" fill="currentColor" stroke="currentColor" class="qgRJ8pSVRmTJltTwI48-_sp"/></g></g></svg>