<svg version="1.1" xmlns="http://www.w3.org/2000/svg" xmlns:xlink="http://www.w3.org/1999/xlink" stroke-linecap="round" stroke-linejoin="round" stroke-width="0" fill-rule="evenodd" clip-rule="evenodd" id="wG9hSz1BSnqi_OWbkQo8_top" viewBox="101000 -75000 10000 19000" width="10mm" height="19mm" class="w-100 h-100"><defs><style>.wG9hSz1BSnqi_OWbkQo8_fr4 {color: #666666;}
.wG9hSz1BSnqi_OWbkQo8_cu {color: #cccccc;}
.wG9hSz1BSnqi_OWbkQo8_cf {color: #cc9933;}
.wG9hSz1BSnqi_OWbkQo8_sm {color: #004200; opacity: 0.75;}
.wG9hSz1BSnqi_OWbkQo8_ss {color: #ffffff;}
.wG9hSz1BSnqi_OWbkQo8_sp {color: #999999;}
.wG9hSz1BSnqi_OWbkQo8_out {color: #000000;}</style><rect x="-850" y="-850" width="1700" height="1700" rx="850" ry="850" id="Pw1jDL_0XHqAP8npJPzW_pad-10"/><circle cx="0" cy="0" r="939.8" id="Pw1jDL_0XHqAP8npJPzW_pad-11"/><circle cx="0" cy="0" r="175" id="Pw1jDL_0XHqAP8npJPzW_pad-14"/><rect x="-1050" y="-1050" width="2100" height="2100" rx="1050" ry="1050" id="QGNVLOyvre2XfwyTUp8z_pad-10"/><circle cx="0" cy="0" r="1139.8" id="QGNVLOyvre2XfwyTUp8z_pad-11"/><circle cx="0" cy="0" r="500" id="se7yZBajW-Qfa8kKDoVo_pad-1"/><circle cx="0" cy="0" r="546" id="se7yZBajW-Qfa8kKDoVo_pad-2"/><g id="wG9hSz1BSnqi_OWbkQo8_top_copper"><use xlink:href="#Pw1jDL_0XHqAP8npJPzW_pad-10" x="108720" y="-73160"/><use xlink:href="#Pw1jDL_0XHqAP8npJPzW_pad-10" x="106180" y="-73160"/><use xlink:href="#Pw1jDL_0XHqAP8npJPzW_pad-10" x="103640" y="-73160"/><use xlink:href="#Pw1jDL_0XHqAP8npJPzW_pad-10" x="103640" y="-57920"/><use xlink:href="#Pw1jDL_0XHqAP8npJPzW_pad-10" x="106180" y="-57920"/><use xlink:href="#Pw1jDL_0XHqAP8npJPzW_pad-10" x="108720" y="-57920"/><use xlink:href="#Pw1jDL_0XHqAP8npJPzW_pad-11" x="106045" y="-64135"/><use xlink:href="#Pw1jDL_0XHqAP8npJPzW_pad-11" x="108585" y="-64135"/><use xlink:href="#Pw1jDL_0XHqAP8npJPzW_pad-11" x="103505" y="-64135"/><path d="M 108720 -69790 108720 -73160 M 103505 -64575 108720 -69790 M 103505 -64135 103505 -64575" fill="none" stroke-width="406.4"/><path d="M 102444.817 -57038.642 102198.514 -57563.108 102319.181 -57793 103513 -57793 103513 -57773 103767 -57773 103767 -57793 106053 -57793 106053 -57773 106307 -57773 106307 -57793 108593 -57793 108593 -57773 108847 -57773 108847 -57793 110040.819 -57793 110161.486 -57563.108 109915.183 -57038.642 109554.567 -56710 110290.001 -56710 110290 -74290 109701.764 -74290 109790.625 -74230.625 110118.839 -73739.418 110234.092 -73160 110118.839 -72580.582 109790.625 -72089.375 109558.2 -71934.074 109558.2 -69872.549 109574.62 -69790 109558.2 -69707.451 109558.2 -69707.446 109509.567 -69462.951 109324.308 -69185.692 109254.325 -69138.931 105834.841 -65719.447 106420.828 -65696.049 106883.077 -65504.58 106974.363 -65243.968 106045 -64314.605 106030.858 -64328.748 105851.253 -64149.143 105865.395 -64135 106224.605 -64135 107153.968 -65064.363 107252.683 -65029.786 107692.948 -65470.051 108271.753 -65709.8 108898.247 -65709.8 109477.052 -65470.051 109920.051 -65027.052 110159.8 -64448.247 110159.8 -63821.753 109920.051 -63242.948 109477.052 -62799.949 108898.247 -62560.2 108271.753 -62560.2 107692.948 -62799.949 107252.683 -63240.214 107153.968 -63205.637 106224.605 -64135 105865.395 -64135 104936.032 -63205.637 104837.317 -63240.214 104623.135 -63026.032 105115.637 -63026.032 106045 -63955.395 106974.363 -63026.032 106883.077 -62765.42 106295.167 -62548.955 105669.172 -62573.951 105206.923 -62765.42 105115.637 -63026.032 104623.135 -63026.032 104397.052 -62799.949 103818.247 -62560.2 103191.753 -62560.2 102612.948 -62799.949 102169.949 -63242.948 101930.2 -63821.753 101930.2 -64448.247 102169.949 -65027.052 102612.948 -65470.051 103191.753 -65709.8 103454.407 -65709.8 107881.8 -70137.194 107881.801 -71934.073 107649.375 -72089.375 107436.157 -72408.478 107375.183 -72278.642 106946.924 -71888.355 106536.89 -71718.524 106307 -71839.845 106307 -73033 106327 -73033 106327 -73287 106307 -73287 106307 -73307 106053 -73307 106053 -73287 106033 -73287 106033 -73033 106053 -73033 106053 -71839.845 105823.11 -71718.524 105413.076 -71888.355 104984.817 -72278.642 104923.843 -72408.478 104710.625 -72089.375 104219.418 -71761.161 103786.256 -71675 103493.744 -71675 103060.582 -71761.161 102569.375 -72089.375 102241.161 -72580.582 102125.908 -73160 102241.161 -73739.418 102569.375 -74230.625 102658.236 -74290 101710 -74290 101710 -58276.892 102198.514 -58276.892 102444.817 -58801.358 102873.076 -59191.645 103283.11 -59361.476 103513 -59240.155 103513 -58047 103767 -58047 103767 -59240.155 103996.89 -59361.476 104406.924 -59191.645 104835.183 -58801.358 104910 -58642.046 104984.817 -58801.358 105413.076 -59191.645 105823.11 -59361.476 106053 -59240.155 106053 -58047 106307 -58047 106307 -59240.155 106536.89 -59361.476 106946.924 -59191.645 107375.183 -58801.358 107450 -58642.046 107524.817 -58801.358 107953.076 -59191.645 108363.11 -59361.476 108593 -59240.155 108593 -58047 108847 -58047 108847 -59240.155 109076.89 -59361.476 109486.924 -59191.645 109915.183 -58801.358 110161.486 -58276.892 110040.819 -58047 108847 -58047 108593 -58047 106307 -58047 106053 -58047 103767 -58047 103513 -58047 102319.181 -58047 102198.514 -58276.892 101710 -58276.892 101710 -56710 102805.433 -56710 102444.817 -57038.642 102444.817 -57038.642"/><path d="M 102444.817 -57038.642 102198.514 -57563.108 102319.181 -57793 103513 -57793 103513 -57773 103767 -57773 103767 -57793 106053 -57793 106053 -57773 106307 -57773 106307 -57793 108593 -57793 108593 -57773 108847 -57773 108847 -57793 110040.819 -57793 110161.486 -57563.108 109915.183 -57038.642 109554.567 -56710 110290.001 -56710 110290 -74290 109701.764 -74290 109790.625 -74230.625 110118.839 -73739.418 110234.092 -73160 110118.839 -72580.582 109790.625 -72089.375 109558.2 -71934.074 109558.2 -69872.549 109574.62 -69790 109558.2 -69707.451 109558.2 -69707.446 109509.567 -69462.951 109324.308 -69185.692 109254.325 -69138.931 105834.841 -65719.447 106420.828 -65696.049 106883.077 -65504.58 106974.363 -65243.968 106045 -64314.605 106030.858 -64328.748 105851.253 -64149.143 105865.395 -64135 106224.605 -64135 107153.968 -65064.363 107252.683 -65029.786 107692.948 -65470.051 108271.753 -65709.8 108898.247 -65709.8 109477.052 -65470.051 109920.051 -65027.052 110159.8 -64448.247 110159.8 -63821.753 109920.051 -63242.948 109477.052 -62799.949 108898.247 -62560.2 108271.753 -62560.2 107692.948 -62799.949 107252.683 -63240.214 107153.968 -63205.637 106224.605 -64135 105865.395 -64135 104936.032 -63205.637 104837.317 -63240.214 104623.135 -63026.032 105115.637 -63026.032 106045 -63955.395 106974.363 -63026.032 106883.077 -62765.42 106295.167 -62548.955 105669.172 -62573.951 105206.923 -62765.42 105115.637 -63026.032 104623.135 -63026.032 104397.052 -62799.949 103818.247 -62560.2 103191.753 -62560.2 102612.948 -62799.949 102169.949 -63242.948 101930.2 -63821.753 101930.2 -64448.247 102169.949 -65027.052 102612.948 -65470.051 103191.753 -65709.8 103454.407 -65709.8 107881.8 -70137.194 107881.801 -71934.073 107649.375 -72089.375 107436.157 -72408.478 107375.183 -72278.642 106946.924 -71888.355 106536.89 -71718.524 106307 -71839.845 106307 -73033 106327 -73033 106327 -73287 106307 -73287 106307 -73307 106053 -73307 106053 -73287 106033 -73287 106033 -73033 106053 -73033 106053 -71839.845 105823.11 -71718.524 105413.076 -71888.355 104984.817 -72278.642 104923.843 -72408.478 104710.625 -72089.375 104219.418 -71761.161 103786.256 -71675 103493.744 -71675 103060.582 -71761.161 102569.375 -72089.375 102241.161 -72580.582 102125.908 -73160 102241.161 -73739.418 102569.375 -74230.625 102658.236 -74290 101710 -74290 101710 -58276.892 102198.514 -58276.892 102444.817 -58801.358 102873.076 -59191.645 103283.11 -59361.476 103513 -59240.155 103513 -58047 103767 -58047 103767 -59240.155 103996.89 -59361.476 104406.924 -59191.645 104835.183 -58801.358 104910 -58642.046 104984.817 -58801.358 105413.076 -59191.645 105823.11 -59361.476 106053 -59240.155 106053 -58047 106307 -58047 106307 -59240.155 106536.89 -59361.476 106946.924 -59191.645 107375.183 -58801.358 107450 -58642.046 107524.817 -58801.358 107953.076 -59191.645 108363.11 -59361.476 108593 -59240.155 108593 -58047 108847 -58047 108847 -59240.155 109076.89 -59361.476 109486.924 -59191.645 109915.183 -58801.358 110161.486 -58276.892 110040.819 -58047 108847 -58047 108593 -58047 106307 -58047 106053 -58047 103767 -58047 103513 -58047 102319.181 -58047 102198.514 -58276.892 101710 -58276.892 101710 -56710 102805.433 -56710 102444.817 -57038.642" fill="none" stroke-width="254"/><use xlink:href="#Pw1jDL_0XHqAP8npJPzW_pad-14" x="108720" y="-73160"/><use xlink:href="#Pw1jDL_0XHqAP8npJPzW_pad-14" x="106180" y="-73160"/><use xlink:href="#Pw1jDL_0XHqAP8npJPzW_pad-14" x="103640" y="-73160"/><use xlink:href="#Pw1jDL_0XHqAP8npJPzW_pad-14" x="103640" y="-57920"/><use xlink:href="#Pw1jDL_0XHqAP8npJPzW_pad-14" x="106180" y="-57920"/><use xlink:href="#Pw1jDL_0XHqAP8npJPzW_pad-14" x="108720" y="-57920"/><use xlink:href="#Pw1jDL_0XHqAP8npJPzW_pad-14" x="106045" y="-64135"/><use xlink:href="#Pw1jDL_0XHqAP8npJPzW_pad-14" x="108585" y="-64135"/><use xlink:href="#Pw1jDL_0XHqAP8npJPzW_pad-14" x="103505" y="-64135"/></g><g id="wG9hSz1BSnqi_OWbkQo8_top_soldermask"><use xlink:href="#QGNVLOyvre2XfwyTUp8z_pad-10" x="108720" y="-73160"/><use xlink:href="#QGNVLOyvre2XfwyTUp8z_pad-10" x="106180" y="-73160"/><use xlink:href="#QGNVLOyvre2XfwyTUp8z_pad-10" x="103640" y="-73160"/><use xlink:href="#QGNVLOyvre2XfwyTUp8z_pad-10" x="103640" y="-57920"/><use xlink:href="#QGNVLOyvre2XfwyTUp8z_pad-10" x="106180" y="-57920"/><use xlink:href="#QGNVLOyvre2XfwyTUp8z_pad-10" x="108720" y="-57920"/><use xlink:href="#QGNVLOyvre2XfwyTUp8z_pad-11" x="106045" y="-64135"/><use xlink:href="#QGNVLOyvre2XfwyTUp8z_pad-11" x="108585" y="-64135"/><use xlink:href="#QGNVLOyvre2XfwyTUp8z_pad-11" x="103505" y="-64135"/></g><g id="wG9hSz1BSnqi_OWbkQo8_top_silkscreen"><path d="M 109728 -59690 109728 -59182 M 102616 -59690 102616 -59182 M 107696 -59690 109728 -59690 M 104648 -59690 102616 -59690 M 102278.857 -70707.38 102421.714 -70707.38 102493.142 -70755 102564.571 -70850.238 102600.285 -71040.714 102600.285 -71374.047 102564.571 -71564.523 102493.142 -71659.761 102421.714 -71707.38 102278.857 -71707.38 102207.428 -71659.761 102136 -71564.523 102100.285 -71374.047 102100.285 -71040.714 102136 -70850.238 102207.428 -70755 102278.857 -70707.38 M 102921.714 -70707.38 102921.714 -71516.904 102957.428 -71612.142 102993.142 -71659.761 103064.571 -71707.38 103207.428 -71707.38 103278.857 -71659.761 103314.571 -71612.142 103350.285 -71516.904 103350.285 -70707.38 M 103600.285 -70707.38 104028.857 -70707.38 M 103814.571 -71707.38 103814.571 -70707.38 M 104421.714 -70707.38 104493.142 -70707.38 104564.571 -70755 104600.285 -70802.619 104636 -70897.857 104671.714 -71088.333 104671.714 -71326.428 104636 -71516.904 104600.285 -71612.142 104564.571 -71659.761 104493.142 -71707.38 104421.714 -71707.38 104350.285 -71659.761 104314.571 -71612.142 104278.857 -71516.904 104243.142 -71326.428 104243.142 -71088.333 104278.857 -70897.857 104314.571 -70802.619 104350.285 -70755 104421.714 -70707.38 M 105608.571 -70755 105537.142 -70707.38 105430 -70707.38 105322.857 -70755 105251.428 -70850.238 105215.714 -70945.476 105180 -71135.952 105180 -71278.809 105215.714 -71469.285 105251.428 -71564.523 105322.857 -71659.761 105430 -71707.38 105501.428 -71707.38 105608.571 -71659.761 105644.285 -71612.142 105644.285 -71278.809 105501.428 -71278.809 M 105965.714 -71707.38 105965.714 -70707.38 106394.285 -71707.38 106394.285 -70707.38 M 106751.428 -71707.38 106751.428 -70707.38 106930 -70707.38 107037.142 -70755 107108.571 -70850.238 107144.285 -70945.476 107180 -71135.952 107180 -71278.809 107144.285 -71469.285 107108.571 -71564.523 107037.142 -71659.761 106930 -71707.38 106751.428 -71707.38 M 105570.476 -59325 105494.285 -59277.38 105380 -59277.38 105265.714 -59325 105189.523 -59420.238 105151.428 -59515.476 105113.333 -59705.952 105113.333 -59848.809 105151.428 -60039.285 105189.523 -60134.523 105265.714 -60229.761 105380 -60277.38 105456.19 -60277.38 105570.476 -60229.761 105608.571 -60182.142 105608.571 -59848.809 105456.19 -59848.809 M 105951.428 -60277.38 105951.428 -59277.38 106408.571 -60277.38 106408.571 -59277.38 M 106789.523 -60277.38 106789.523 -59277.38 106980 -59277.38 107094.285 -59325 107170.476 -59420.238 107208.571 -59515.476 107246.666 -59705.952 107246.666 -59848.809 107208.571 -60039.285 107170.476 -60134.523 107094.285 -60229.761 106980 -60277.38 106789.523 -60277.38 M 107866.857 -70707.38 108009.714 -70707.38 108081.142 -70755 108152.571 -70850.238 108188.285 -71040.714 108188.285 -71374.047 108152.571 -71564.523 108081.142 -71659.761 108009.714 -71707.38 107866.857 -71707.38 107795.428 -71659.761 107724 -71564.523 107688.285 -71374.047 107688.285 -71040.714 107724 -70850.238 107795.428 -70755 107866.857 -70707.38 M 108509.714 -70707.38 108509.714 -71516.904 108545.428 -71612.142 108581.142 -71659.761 108652.571 -71707.38 108795.428 -71707.38 108866.857 -71659.761 108902.571 -71612.142 108938.285 -71516.904 108938.285 -70707.38 M 109188.285 -70707.38 109616.857 -70707.38 M 109402.571 -71707.38 109402.571 -70707.38 M 110259.714 -71707.38 109831.142 -71707.38 M 110045.428 -71707.38 110045.428 -70707.38 109974 -70850.238 109902.571 -70945.476 109831.142 -70993.095 M 103941.428 -68984.761 104077.142 -69032.38 104303.333 -69032.38 104393.809 -68984.761 104439.047 -68937.142 104484.285 -68841.904 104484.285 -68746.666 104439.047 -68651.428 104393.809 -68603.809 104303.333 -68556.19 104122.38 -68508.571 104031.904 -68460.952 103986.666 -68413.333 103941.428 -68318.095 103941.428 -68222.857 103986.666 -68127.619 104031.904 -68080 104122.38 -68032.38 104348.571 -68032.38 104484.285 -68080 M 104800.952 -68365.714 104981.904 -69032.38 105162.857 -68556.19 105343.809 -69032.38 105524.761 -68365.714 M 105886.666 -69032.38 105886.666 -68365.714 M 105886.666 -68032.38 105841.428 -68080 105886.666 -68127.619 105931.904 -68080 105886.666 -68032.38 105886.666 -68127.619 M 106203.333 -68365.714 106565.238 -68365.714 M 106339.047 -68032.38 106339.047 -68889.523 106384.285 -68984.761 106474.761 -69032.38 106565.238 -69032.38 M 107289.047 -68984.761 107198.571 -69032.38 107017.619 -69032.38 106927.142 -68984.761 106881.904 -68937.142 106836.666 -68841.904 106836.666 -68556.19 106881.904 -68460.952 106927.142 -68413.333 107017.619 -68365.714 107198.571 -68365.714 107289.047 -68413.333 M 107696.19 -69032.38 107696.19 -68032.38 M 108103.333 -69032.38 108103.333 -68508.571 108058.095 -68413.333 107967.619 -68365.714 107831.904 -68365.714 107741.428 -68413.333 107696.19 -68460.952 M 110109 -61595 110109 -66675 M 101981 -61595 101981 -66675 M 110109 -61595 101981 -61595 M 110109 -66675 101981 -66675 M 107396.28 -62064.9 104693.72 -62064.9 M 108296.541 -65166.318 A 2476.5002911 2476.5002911 0 0 0 106045 -66611.5 M 107391.448 -62061.98 A 2471.9090066 2471.9090066 0 0 0 108290.359 -63101.221 M 103793.277 -65165.919 A 2476.4996372 2476.4996372 0 0 1 106045 -66611.5 M 103790.212 -63111.355 A 2476.270989 2476.270989 0 0 0 104686.101 -62064.901" fill="none" stroke-width="150"/></g><g id="wG9hSz1BSnqi_OWbkQo8_top_drill1"><use xlink:href="#se7yZBajW-Qfa8kKDoVo_pad-1" x="103640" y="-57920"/><use xlink:href="#se7yZBajW-Qfa8kKDoVo_pad-1" x="106180" y="-57920"/><use xlink:href="#se7yZBajW-Qfa8kKDoVo_pad-1" x="108720" y="-57920"/><use xlink:href="#se7yZBajW-Qfa8kKDoVo_pad-1" x="103640" y="-73160"/><use xlink:href="#se7yZBajW-Qfa8kKDoVo_pad-1" x="106180" y="-73160"/><use xlink:href="#se7yZBajW-Qfa8kKDoVo_pad-1" x="108720" y="-73160"/><use xlink:href="#se7yZBajW-Qfa8kKDoVo_pad-2" x="103505" y="-64135"/><use xlink:href="#se7yZBajW-Qfa8kKDoVo_pad-2" x="106045" y="-64135"/><use xlink:href="#se7yZBajW-Qfa8kKDoVo_pad-2" x="108585" y="-64135"/></g><clipPath id="wG9hSz1BSnqi_OWbkQo8_top_outline"><path d="M 101000 -56000 101000 -75000 111000 -75000 111000 -56000 101000 -56000" fill="none" stroke-width="150"/></clipPath><mask id="wG9hSz1BSnqi_OWbkQo8_top_mech-mask"><g fill="#000" stroke="#000"><rect x="101000" y="-75000" width="10000" height="19000" fill="#fff"/><use xlink:href="#wG9hSz1BSnqi_OWbkQo8_top_drill1"/></g></mask><mask id="wG9hSz1BSnqi_OWbkQo8_top_cf-mask"><g fill="#fff" stroke="#fff"><use xlink:href="#wG9hSz1BSnqi_OWbkQo8_top_soldermask"/></g></mask><mask id="wG9hSz1BSnqi_OWbkQo8_top_sm-mask"><g fill="#000" stroke="#000"><rect x="101000" y="-75000" width="10000" height="19000" fill="#fff"/><use xlink:href="#wG9hSz1BSnqi_OWbkQo8_top_soldermask"/></g></mask></defs><g transform="translate(0,-131000) scale(1,-1)"><g mask="url(#wG9hSz1BSnqi_OWbkQo8_top_mech-mask)" clip-path="url(#wG9hSz1BSnqi_OWbkQo8_top_outline)"><rect x="101000" y="-75000" width="10000" height="19000" fill="currentColor" class="wG9hSz1BSnqi_OWbkQo8_fr4"/><use xlink:href="#wG9hSz1BSnqi_OWbkQo8_top_copper" fill="currentColor" stroke="currentColor" class="wG9hSz1BSnqi_OWbkQo8_cu"/><use xlink:href="#wG9hSz1BSnqi_OWbkQo8_top_copper" fill="currentColor" stroke="currentColor" class="wG9hSz1BSnqi_OWbkQo8_cf" mask="url(#wG9hSz1BSnqi_OWbkQo8_top_cf-mask)"/><g mask="url(#wG9hSz1BSnqi_OWbkQo8_top_sm-mask)"><rect x="101000" y="-75000" width="10000" height="19000" fill="currentColor" class="wG9hSz1BSnqi_OWbkQo8_sm"/><use xlink:href="#wG9hSz1BSnqi_OWbkQo8_top_silkscreen" fill="currentColor" stroke="currentColor" class="wG9hSz1BSnqi_OWbkQo8_ss"/></g></g></g></svg>