<?xml version="1.0" encoding="UTF-8" standalone="no"?>
<svg
   xmlns:dc="http://purl.org/dc/elements/1.1/"
   xmlns:cc="http://creativecommons.org/ns#"
   xmlns:rdf="http://www.w3.org/1999/02/22-rdf-syntax-ns#"
   xmlns:svg="http://www.w3.org/2000/svg"
   xmlns="http://www.w3.org/2000/svg"
   xmlns:sodipodi="http://sodipodi.sourceforge.net/DTD/sodipodi-0.dtd"
   xmlns:inkscape="http://www.inkscape.org/namespaces/inkscape"
   version="1.1"
   id="svg46"
   xml:space="preserve"
   width="806.40002"
   height="485.66934"
   viewBox="0 0 806.40002 485.66934"
   sodipodi:docname="print.svg"
   inkscape:version="1.0.2 (e86c8708, 2021-01-15)"><metadata
     id="metadata52"><rdf:RDF><cc:Work
         rdf:about=""><dc:format>image/svg+xml</dc:format><dc:type
           rdf:resource="http://purl.org/dc/dcmitype/StillImage" /><dc:title></dc:title></cc:Work></rdf:RDF></metadata><defs
     id="defs50"><clipPath
       clipPathUnits="userSpaceOnUse"
       id="clipPath64"><path
         d="M 0,364.252 H 604.8 V 0 H 0 Z"
         id="path62" /></clipPath><clipPath
       clipPathUnits="userSpaceOnUse"
       id="clipPath322"><path
         d="M 0,364.252 H 604.8 V 0 H 0 Z"
         id="path320" /></clipPath><clipPath
       clipPathUnits="userSpaceOnUse"
       id="clipPath358"><path
         d="M 0,364.252 H 604.8 V 0 H 0 Z"
         id="path356" /></clipPath></defs><sodipodi:namedview
     pagecolor="#ffffff"
     bordercolor="#666666"
     borderopacity="1"
     objecttolerance="10"
     gridtolerance="10"
     guidetolerance="10"
     inkscape:pageopacity="0"
     inkscape:pageshadow="2"
     inkscape:window-width="2117"
     inkscape:window-height="1369"
     id="namedview48"
     showgrid="false"
     inkscape:zoom="1.3045635"
     inkscape:cx="403.20001"
     inkscape:cy="242.83467"
     inkscape:window-x="0"
     inkscape:window-y="23"
     inkscape:window-maximized="0"
     inkscape:current-layer="text350" /><g
     id="g54"
     inkscape:groupmode="layer"
     inkscape:label="print"
     transform="matrix(1.3333333,0,0,-1.3333333,0,485.66933)"><path
       d="M 0,0 H 604.8 V 364.252 H 0 Z"
       style="fill:#e3e3e3;fill-opacity:1;fill-rule:nonzero;stroke:none"
       id="path56" /><g
       id="g66"
       transform="translate(553.6074,14.1729)"><path
         d="m 0,0 h -502.415 c -7.795,0 -14.173,6.378 -14.173,14.174 v 307.558 c 0,7.796 6.378,14.174 14.173,14.174 H 0 c 7.796,0 14.174,-6.378 14.174,-14.174 V 14.174 C 14.174,6.378 7.796,0 0,0"
         style="fill:#7e8284;fill-opacity:1;fill-rule:nonzero;stroke:none"
         id="path68" /></g><g
       id="g70"
       transform="translate(326.2275,297.4795)"><path
         d="m 0,0 c 0,-8.131 -6.591,-14.722 -14.722,-14.722 -8.131,0 -14.721,6.591 -14.721,14.722 0,8.131 6.59,14.722 14.721,14.722 C -6.591,14.722 0,8.131 0,0"
         style="fill:#565656;fill-opacity:1;fill-rule:nonzero;stroke:none"
         id="path72" /></g><g
       id="g74"
       transform="translate(324.0869,297.4795)"><path
         d="m 0,0 c 0,-6.948 -5.633,-12.581 -12.581,-12.581 -6.948,0 -12.581,5.633 -12.581,12.581 0,6.948 5.633,12.581 12.581,12.581 C -5.633,12.581 0,6.948 0,0"
         style="fill:#151515;fill-opacity:1;fill-rule:nonzero;stroke:none"
         id="path76" /></g><g
       id="g78"
       transform="translate(320.9111,297.4795)"><path
         d="m 0,0 c 0,-5.194 -4.211,-9.405 -9.405,-9.405 -5.195,0 -9.406,4.211 -9.406,9.405 0,5.194 4.211,9.405 9.406,9.405 C -4.211,9.405 0,5.194 0,0"
         style="fill:#eeeeee;fill-opacity:1;fill-rule:nonzero;stroke:none"
         id="path80" /></g><path
       d="m 314.341,314.51 h -5.67 v 1.351 h 5.67 z"
       style="fill:#dbdbdb;fill-opacity:1;fill-rule:nonzero;stroke:none"
       id="path82" /><path
       d="m 314.341,306.023 h -5.67 v 8.486 h 5.67 z"
       style="fill:#eeeeee;fill-opacity:1;fill-rule:nonzero;stroke:none"
       id="path84" /><g
       id="g86"
       transform="translate(321.7295,288.2315)"><path
         d="m 0,0 -4.587,-3.333 -1.25,1.721 4.587,3.332 z"
         style="fill:#565656;fill-opacity:1;fill-rule:nonzero;stroke:none"
         id="path88" /></g><g
       id="g90"
       transform="translate(322.1709,287.2832)"><path
         d="m 0,0 -4.264,-3.098 -0.764,0.713 4.587,3.333 z"
         style="fill:#151515;fill-opacity:1;fill-rule:nonzero;stroke:none"
         id="path92" /></g><g
       id="g94"
       transform="translate(323.4609,304.3448)"><path
         d="m 0,0 1.752,-5.393 -2.023,-0.656 -1.751,5.392 z"
         style="fill:#565656;fill-opacity:1;fill-rule:nonzero;stroke:none"
         id="path96" /></g><g
       id="g98"
       transform="translate(324.499,304.4717)"><path
         d="M 0,0 1.629,-5.012 0.714,-5.52 -1.038,-0.127 Z"
         style="fill:#151515;fill-opacity:1;fill-rule:nonzero;stroke:none"
         id="path100" /></g><g
       id="g102"
       transform="translate(297.7988,298.9522)"><path
         d="M 0,0 1.752,5.393 3.774,4.735 2.022,-0.656 Z"
         style="fill:#565656;fill-opacity:1;fill-rule:nonzero;stroke:none"
         id="path104" /></g><g
       id="g106"
       transform="translate(296.8848,299.46)"><path
         d="M 0,0 1.628,5.012 2.666,4.885 0.914,-0.508 Z"
         style="fill:#151515;fill-opacity:1;fill-rule:nonzero;stroke:none"
         id="path108" /></g><g
       id="g110"
       transform="translate(305.8691,284.8985)"><path
         d="M 0,0 -4.586,3.333 -3.337,5.053 1.25,1.721 Z"
         style="fill:#565656;fill-opacity:1;fill-rule:nonzero;stroke:none"
         id="path112" /></g><g
       id="g114"
       transform="translate(305.1045,284.1856)"><path
         d="M 0,0 -4.264,3.098 -3.821,4.046 0.765,0.713 Z"
         style="fill:#151515;fill-opacity:1;fill-rule:nonzero;stroke:none"
         id="path116" /></g><g
       id="g118"
       transform="translate(255.3594,251.9014)"><path
         d="M 0,0 V 0 C -2.543,0 -4.624,2.081 -4.624,4.624 V 35.67 c 0,2.543 2.081,4.624 4.624,4.624 2.543,0 4.624,-2.081 4.624,-4.624 V 4.624 C 4.624,2.081 2.543,0 0,0"
         style="fill:#151515;fill-opacity:1;fill-rule:nonzero;stroke:none"
         id="path120" /></g><path
       d="m 258.332,253.718 h -5.945 v 36.33 h 5.945 z"
       style="fill:#565656;fill-opacity:1;fill-rule:nonzero;stroke:none"
       id="path122" /><path
       d="m 257.433,255.039 h -2.973 v 33.688 h 2.973 z"
       style="fill:#151515;fill-opacity:1;fill-rule:nonzero;stroke:none"
       id="path124" /><g
       id="g126"
       transform="translate(239.1973,104.6582)"><path
         d="m 0,0 h -22.832 c -1.948,0 -3.543,1.595 -3.543,3.544 v 22.831 c 0,1.949 1.595,3.543 3.543,3.543 H 0 c 1.948,0 3.543,-1.594 3.543,-3.543 V 3.544 C 3.543,1.595 1.948,0 0,0"
         style="fill:#151515;fill-opacity:1;fill-rule:nonzero;stroke:none"
         id="path128" /></g><g
       id="g130"
       transform="translate(238.7705,105.085)"><path
         d="m 0,0 h -21.978 c -1.949,0 -3.543,1.595 -3.543,3.544 v 21.977 c 0,1.949 1.594,3.543 3.543,3.543 H 0 c 1.948,0 3.543,-1.594 3.543,-3.543 V 3.544 C 3.543,1.595 1.948,0 0,0"
         style="fill:#c0c9d4;fill-opacity:1;fill-rule:nonzero;stroke:none"
         id="path132" /></g><g
       id="g134"
       transform="translate(282.1328,104.6582)"><path
         d="m 0,0 h -22.832 c -1.948,0 -3.543,1.595 -3.543,3.544 v 22.831 c 0,1.949 1.595,3.543 3.543,3.543 H 0 c 1.948,0 3.543,-1.594 3.543,-3.543 V 3.544 C 3.543,1.595 1.948,0 0,0"
         style="fill:#151515;fill-opacity:1;fill-rule:nonzero;stroke:none"
         id="path136" /></g><g
       id="g138"
       transform="translate(281.7051,105.085)"><path
         d="m 0,0 h -21.978 c -1.948,0 -3.543,1.595 -3.543,3.544 v 21.977 c 0,1.949 1.595,3.543 3.543,3.543 H 0 c 1.949,0 3.544,-1.594 3.544,-3.543 V 3.544 C 3.544,1.595 1.949,0 0,0"
         style="fill:#c0c9d4;fill-opacity:1;fill-rule:nonzero;stroke:none"
         id="path140" /></g><g
       id="g142"
       transform="translate(325.0684,104.6582)"><path
         d="m 0,0 h -22.832 c -1.948,0 -3.543,1.595 -3.543,3.544 v 22.831 c 0,1.949 1.595,3.543 3.543,3.543 H 0 c 1.948,0 3.543,-1.594 3.543,-3.543 V 3.544 C 3.543,1.595 1.948,0 0,0"
         style="fill:#151515;fill-opacity:1;fill-rule:nonzero;stroke:none"
         id="path144" /></g><g
       id="g146"
       transform="translate(324.6406,105.085)"><path
         d="m 0,0 h -21.978 c -1.948,0 -3.543,1.595 -3.543,3.544 v 21.977 c 0,1.949 1.595,3.543 3.543,3.543 H 0 c 1.949,0 3.544,-1.594 3.544,-3.543 V 3.544 C 3.544,1.595 1.949,0 0,0"
         style="fill:#c0c9d4;fill-opacity:1;fill-rule:nonzero;stroke:none"
         id="path148" /></g><g
       id="g150"
       transform="translate(368.0029,104.6582)"><path
         d="m 0,0 h -22.831 c -1.949,0 -3.543,1.595 -3.543,3.544 v 22.831 c 0,1.949 1.594,3.543 3.543,3.543 H 0 c 1.949,0 3.544,-1.594 3.544,-3.543 V 3.544 C 3.544,1.595 1.949,0 0,0"
         style="fill:#151515;fill-opacity:1;fill-rule:nonzero;stroke:none"
         id="path152" /></g><g
       id="g154"
       transform="translate(367.5762,105.085)"><path
         d="m 0,0 h -21.978 c -1.948,0 -3.543,1.595 -3.543,3.544 v 21.977 c 0,1.949 1.595,3.543 3.543,3.543 H 0 c 1.949,0 3.544,-1.594 3.544,-3.543 V 3.544 C 3.544,1.595 1.949,0 0,0"
         style="fill:#c0c9d4;fill-opacity:1;fill-rule:nonzero;stroke:none"
         id="path156" /></g><g
       id="g158"
       transform="translate(410.9385,104.6582)"><path
         d="m 0,0 h -22.831 c -1.949,0 -3.543,1.595 -3.543,3.544 v 22.831 c 0,1.949 1.594,3.543 3.543,3.543 H 0 c 1.949,0 3.544,-1.594 3.544,-3.543 V 3.544 C 3.544,1.595 1.949,0 0,0"
         style="fill:#151515;fill-opacity:1;fill-rule:nonzero;stroke:none"
         id="path160" /></g><g
       id="g162"
       transform="translate(410.5117,105.085)"><path
         d="m 0,0 h -21.978 c -1.948,0 -3.543,1.595 -3.543,3.544 v 21.977 c 0,1.949 1.595,3.543 3.543,3.543 H 0 c 1.949,0 3.544,-1.594 3.544,-3.543 V 3.544 C 3.544,1.595 1.949,0 0,0"
         style="fill:#c0c9d4;fill-opacity:1;fill-rule:nonzero;stroke:none"
         id="path164" /></g><g
       id="g166"
       transform="translate(453.874,104.6582)"><path
         d="m 0,0 h -22.831 c -1.949,0 -3.543,1.595 -3.543,3.544 v 22.831 c 0,1.949 1.594,3.543 3.543,3.543 H 0 c 1.949,0 3.544,-1.594 3.544,-3.543 V 3.544 C 3.544,1.595 1.949,0 0,0"
         style="fill:#151515;fill-opacity:1;fill-rule:nonzero;stroke:none"
         id="path168" /></g><g
       id="g170"
       transform="translate(453.4473,105.085)"><path
         d="m 0,0 h -21.978 c -1.949,0 -3.543,1.595 -3.543,3.544 v 21.977 c 0,1.949 1.594,3.543 3.543,3.543 H 0 c 1.949,0 3.543,-1.594 3.543,-3.543 V 3.544 C 3.543,1.595 1.949,0 0,0"
         style="fill:#c0c9d4;fill-opacity:1;fill-rule:nonzero;stroke:none"
         id="path172" /></g><g
       id="g174"
       transform="translate(496.8096,104.6582)"><path
         d="m 0,0 h -22.831 c -1.949,0 -3.544,1.595 -3.544,3.544 v 22.831 c 0,1.949 1.595,3.543 3.544,3.543 H 0 c 1.949,0 3.544,-1.594 3.544,-3.543 V 3.544 C 3.544,1.595 1.949,0 0,0"
         style="fill:#151515;fill-opacity:1;fill-rule:nonzero;stroke:none"
         id="path176" /></g><g
       id="g178"
       transform="translate(496.3828,105.085)"><path
         d="m 0,0 h -21.978 c -1.949,0 -3.543,1.595 -3.543,3.544 v 21.977 c 0,1.949 1.594,3.543 3.543,3.543 H 0 c 1.949,0 3.543,-1.594 3.543,-3.543 V 3.544 C 3.543,1.595 1.949,0 0,0"
         style="fill:#c0c9d4;fill-opacity:1;fill-rule:nonzero;stroke:none"
         id="path180" /></g><g
       id="g182"
       transform="translate(539.7451,104.6582)"><path
         d="m 0,0 h -22.831 c -1.949,0 -3.544,1.595 -3.544,3.544 v 22.831 c 0,1.949 1.595,3.543 3.544,3.543 H 0 c 1.949,0 3.543,-1.594 3.543,-3.543 V 3.544 C 3.543,1.595 1.949,0 0,0"
         style="fill:#151515;fill-opacity:1;fill-rule:nonzero;stroke:none"
         id="path184" /></g><g
       id="g186"
       transform="translate(539.3184,105.085)"><path
         d="m 0,0 h -21.978 c -1.949,0 -3.543,1.595 -3.543,3.544 v 21.977 c 0,1.949 1.594,3.543 3.543,3.543 H 0 c 1.948,0 3.543,-1.594 3.543,-3.543 V 3.544 C 3.543,1.595 1.948,0 0,0"
         style="fill:#c0c9d4;fill-opacity:1;fill-rule:nonzero;stroke:none"
         id="path188" /></g><g
       id="g190"
       transform="translate(239.1973,61.9434)"><path
         d="m 0,0 h -22.832 c -1.948,0 -3.543,1.594 -3.543,3.543 v 22.831 c 0,1.949 1.595,3.544 3.543,3.544 H 0 c 1.948,0 3.543,-1.595 3.543,-3.544 V 3.543 C 3.543,1.594 1.948,0 0,0"
         style="fill:#151515;fill-opacity:1;fill-rule:nonzero;stroke:none"
         id="path192" /></g><g
       id="g194"
       transform="translate(238.7705,62.3701)"><path
         d="m 0,0 h -21.978 c -1.949,0 -3.543,1.594 -3.543,3.543 v 21.978 c 0,1.949 1.594,3.542 3.543,3.542 H 0 c 1.948,0 3.543,-1.593 3.543,-3.542 V 3.543 C 3.543,1.594 1.948,0 0,0"
         style="fill:#c0c9d4;fill-opacity:1;fill-rule:nonzero;stroke:none"
         id="path196" /></g><g
       id="g198"
       transform="translate(282.1328,61.9434)"><path
         d="m 0,0 h -22.832 c -1.948,0 -3.543,1.594 -3.543,3.543 v 22.831 c 0,1.949 1.595,3.544 3.543,3.544 H 0 c 1.948,0 3.543,-1.595 3.543,-3.544 V 3.543 C 3.543,1.594 1.948,0 0,0"
         style="fill:#151515;fill-opacity:1;fill-rule:nonzero;stroke:none"
         id="path200" /></g><g
       id="g202"
       transform="translate(281.7051,62.3701)"><path
         d="m 0,0 h -21.978 c -1.948,0 -3.543,1.594 -3.543,3.543 v 21.978 c 0,1.949 1.595,3.542 3.543,3.542 H 0 c 1.949,0 3.544,-1.593 3.544,-3.542 V 3.543 C 3.544,1.594 1.949,0 0,0"
         style="fill:#c0c9d4;fill-opacity:1;fill-rule:nonzero;stroke:none"
         id="path204" /></g><g
       id="g206"
       transform="translate(325.0684,61.9434)"><path
         d="m 0,0 h -22.832 c -1.948,0 -3.543,1.594 -3.543,3.543 v 22.831 c 0,1.949 1.595,3.544 3.543,3.544 H 0 c 1.948,0 3.543,-1.595 3.543,-3.544 V 3.543 C 3.543,1.594 1.948,0 0,0"
         style="fill:#151515;fill-opacity:1;fill-rule:nonzero;stroke:none"
         id="path208" /></g><g
       id="g210"
       transform="translate(324.6406,62.3701)"><path
         d="m 0,0 h -21.978 c -1.948,0 -3.543,1.594 -3.543,3.543 v 21.978 c 0,1.949 1.595,3.542 3.543,3.542 H 0 c 1.949,0 3.544,-1.593 3.544,-3.542 V 3.543 C 3.544,1.594 1.949,0 0,0"
         style="fill:#c0c9d4;fill-opacity:1;fill-rule:nonzero;stroke:none"
         id="path212" /></g><g
       id="g214"
       transform="translate(368.0029,61.9434)"><path
         d="m 0,0 h -22.831 c -1.949,0 -3.543,1.594 -3.543,3.543 v 22.831 c 0,1.949 1.594,3.544 3.543,3.544 H 0 c 1.949,0 3.544,-1.595 3.544,-3.544 V 3.543 C 3.544,1.594 1.949,0 0,0"
         style="fill:#151515;fill-opacity:1;fill-rule:nonzero;stroke:none"
         id="path216" /></g><g
       id="g218"
       transform="translate(367.5762,62.3701)"><path
         d="m 0,0 h -21.978 c -1.948,0 -3.543,1.594 -3.543,3.543 v 21.978 c 0,1.949 1.595,3.542 3.543,3.542 H 0 c 1.949,0 3.544,-1.593 3.544,-3.542 V 3.543 C 3.544,1.594 1.949,0 0,0"
         style="fill:#c0c9d4;fill-opacity:1;fill-rule:nonzero;stroke:none"
         id="path220" /></g><g
       id="g222"
       transform="translate(410.9385,61.9434)"><path
         d="m 0,0 h -22.831 c -1.949,0 -3.543,1.594 -3.543,3.543 v 22.831 c 0,1.949 1.594,3.544 3.543,3.544 H 0 c 1.949,0 3.544,-1.595 3.544,-3.544 V 3.543 C 3.544,1.594 1.949,0 0,0"
         style="fill:#151515;fill-opacity:1;fill-rule:nonzero;stroke:none"
         id="path224" /></g><g
       id="g226"
       transform="translate(410.5117,62.3701)"><path
         d="m 0,0 h -21.978 c -1.948,0 -3.543,1.594 -3.543,3.543 v 21.978 c 0,1.949 1.595,3.542 3.543,3.542 H 0 c 1.949,0 3.544,-1.593 3.544,-3.542 V 3.543 C 3.544,1.594 1.949,0 0,0"
         style="fill:#c0c9d4;fill-opacity:1;fill-rule:nonzero;stroke:none"
         id="path228" /></g><g
       id="g230"
       transform="translate(453.874,61.9434)"><path
         d="m 0,0 h -22.831 c -1.949,0 -3.543,1.594 -3.543,3.543 v 22.831 c 0,1.949 1.594,3.544 3.543,3.544 H 0 c 1.949,0 3.544,-1.595 3.544,-3.544 V 3.543 C 3.544,1.594 1.949,0 0,0"
         style="fill:#151515;fill-opacity:1;fill-rule:nonzero;stroke:none"
         id="path232" /></g><g
       id="g234"
       transform="translate(453.4473,62.3701)"><path
         d="m 0,0 h -21.978 c -1.949,0 -3.543,1.594 -3.543,3.543 v 21.978 c 0,1.949 1.594,3.542 3.543,3.542 H 0 c 1.949,0 3.543,-1.593 3.543,-3.542 V 3.543 C 3.543,1.594 1.949,0 0,0"
         style="fill:#c0c9d4;fill-opacity:1;fill-rule:nonzero;stroke:none"
         id="path236" /></g><g
       id="g238"
       transform="translate(496.8096,61.9434)"><path
         d="m 0,0 h -22.831 c -1.949,0 -3.544,1.594 -3.544,3.543 v 22.831 c 0,1.949 1.595,3.544 3.544,3.544 H 0 c 1.949,0 3.544,-1.595 3.544,-3.544 V 3.543 C 3.544,1.594 1.949,0 0,0"
         style="fill:#151515;fill-opacity:1;fill-rule:nonzero;stroke:none"
         id="path240" /></g><g
       id="g242"
       transform="translate(496.3828,62.3701)"><path
         d="m 0,0 h -21.978 c -1.949,0 -3.543,1.594 -3.543,3.543 v 21.978 c 0,1.949 1.594,3.542 3.543,3.542 H 0 c 1.949,0 3.543,-1.593 3.543,-3.542 V 3.543 C 3.543,1.594 1.949,0 0,0"
         style="fill:#c0c9d4;fill-opacity:1;fill-rule:nonzero;stroke:none"
         id="path244" /></g><g
       id="g246"
       transform="translate(539.7451,61.9434)"><path
         d="m 0,0 h -22.831 c -1.949,0 -3.544,1.594 -3.544,3.543 v 22.831 c 0,1.949 1.595,3.544 3.544,3.544 H 0 c 1.949,0 3.543,-1.595 3.543,-3.544 V 3.543 C 3.543,1.594 1.949,0 0,0"
         style="fill:#151515;fill-opacity:1;fill-rule:nonzero;stroke:none"
         id="path248" /></g><g
       id="g250"
       transform="translate(539.3184,62.3701)"><path
         d="m 0,0 h -21.978 c -1.949,0 -3.543,1.594 -3.543,3.543 v 21.978 c 0,1.949 1.594,3.542 3.543,3.542 H 0 c 1.948,0 3.543,-1.593 3.543,-3.542 V 3.543 C 3.543,1.594 1.948,0 0,0"
         style="fill:#c0c9d4;fill-opacity:1;fill-rule:nonzero;stroke:none"
         id="path252" /></g><g
       id="g254"
       transform="translate(40.4038,26.3789)"><path
         d="m 0,0 v 312.114 c 0,4.134 3.352,7.486 7.486,7.486 h 1.431 c -4.134,0 -7.486,-3.352 -7.486,-7.486 V 0 Z"
         style="fill:#979b9e;fill-opacity:1;fill-rule:nonzero;stroke:none"
         id="path256" /></g><g
       id="g258"
       transform="translate(565.4316,26.3789)"><path
         d="m 0,0 v 312.114 c 0,4.134 -3.352,7.486 -7.486,7.486 h -1.431 c 4.135,0 7.486,-3.352 7.486,-7.486 V 0 Z"
         style="fill:#979b9e;fill-opacity:1;fill-rule:nonzero;stroke:none"
         id="path260" /></g><path
       d="M 566.432,331.965 H 38.019 v 2.038 h 528.413 z"
       style="fill:#e7eef3;fill-opacity:1;fill-rule:nonzero;stroke:none"
       id="path262" /><path
       d="M 566.432,147.374 H 38.019 v 2.037 h 528.413 z"
       style="fill:#e7eef3;fill-opacity:1;fill-rule:nonzero;stroke:none"
       id="path264" /><path
       d="M 564.19,21.214 H 40.261 v 2.02 H 564.19 Z"
       style="fill:#e7eef3;fill-opacity:1;fill-rule:nonzero;stroke:none"
       id="path266" /><g
       id="g268"
       transform="translate(121.2393,41.792)"><path
         d="m 0,0 c 0,-4.636 -3.758,-8.394 -8.394,-8.394 -4.635,0 -8.393,3.758 -8.393,8.394 0,4.636 3.758,8.394 8.393,8.394 C -3.758,8.394 0,4.636 0,0"
         style="fill:#d2dae5;fill-opacity:1;fill-rule:nonzero;stroke:none"
         id="path270" /></g><g
       id="g272"
       transform="translate(118.2227,42.3438)"><path
         d="m 0,0 -3.59,0.672 0.671,3.59 -3.01,0.562 -0.672,-3.59 -3.589,0.672 -0.563,-3.01 3.59,-0.671 -0.672,-3.59 3.011,-0.564 0.671,3.59 3.59,-0.671 z"
         style="fill:#5b666e;fill-opacity:1;fill-rule:nonzero;stroke:none"
         id="path274" /></g><g
       id="g276"
       transform="translate(516.2852,40.1074)"><path
         d="m 0,0 c 2.039,-4.163 0.317,-9.191 -3.847,-11.23 -4.163,-2.04 -9.19,-0.317 -11.229,3.846 -2.039,4.163 -0.318,9.192 3.846,11.231 C -7.066,5.886 -2.039,4.163 0,0"
         style="fill:#d2dae5;fill-opacity:1;fill-rule:nonzero;stroke:none"
         id="path278" /></g><g
       id="g280"
       transform="translate(513.332,39.2764)"><path
         d="m 0,0 -3.519,-0.977 -0.976,3.52 -2.95,-0.818 0.975,-3.52 -3.519,-0.976 0.818,-2.951 3.52,0.977 0.975,-3.52 2.951,0.819 -0.975,3.519 3.519,0.976 z"
         style="fill:#5b666e;fill-opacity:1;fill-rule:nonzero;stroke:none"
         id="path282" /></g><g
       aria-label="OUTPUT
LEVEL"
       transform="matrix(1,0,0,-1,289.5693,260.3242)"
       id="text288"
       style="font-variant:normal;font-weight:500;font-stretch:normal;font-size:10.2874px;font-family:Futura;-inkscape-font-specification:Futura-Medium;writing-mode:lr-tb;fill:#ffffff;fill-opacity:1;fill-rule:nonzero;stroke:none"><path
         d="m 0.54249962,-3.9130297 q 0,-1.6375451 1.20053158,-2.812961 1.1955084,-1.1754158 2.8732387,-1.1754158 1.6576378,0 2.8430999,1.1854621 1.1904853,1.1854621 1.1904853,2.848123 0,1.6727072 -1.1955084,2.8380767 -1.2005316,1.17039275 -2.8983545,1.17039275 -1.5019203,0 -2.6974287,-1.03979094 Q 0.54249962,-2.049443 0.54249962,-3.9130297 Z m 1.18043898,0.01507 q 0,1.285925 0.8639809,2.1147438 0.8589577,0.82881892 1.9841421,0.82881892 1.2206242,0 2.0594893,-0.84388832 0.8388652,-0.8539346 0.8388652,-2.0795819 0,-1.2407167 -0.8288189,-2.0795819 -0.8237957,-0.8438883 -2.0393967,-0.8438883 -1.2105779,0 -2.0444199,0.8438883 -0.833842,0.8338421 -0.833842,2.0594894 z"
         id="path641" /><path
         d="m 11.291466,-7.7557353 v 4.6715245 q 0,0.9996058 0.326504,1.4617351 0.487245,0.66807822 1.371319,0.66807822 0.889096,0 1.376342,-0.66807822 0.326504,-0.4470599 0.326504,-1.4617351 v -4.6715245 h 1.170393 v 4.9930057 q 0,1.2256473 -0.763518,2.01930419 -0.858958,0.88407346 -2.109721,0.88407346 -1.250763,0 -2.104698,-0.88407346 -0.763518,-0.79365689 -0.763518,-2.01930419 v -4.9930057 z"
         id="path643" /><path
         d="M 19.863321,-6.6556667 V 0 h -1.170392 v -6.6556667 h -1.783217 v -1.1000686 h 4.731803 v 1.1000686 z"
         id="path645" /><path
         d="M 23.852381,-3.1495117 V 0 h -1.170393 v -7.7557353 h 1.32611 q 0.974491,0 1.471782,0.1356249 0.502314,0.1356249 0.884073,0.5123607 0.668079,0.6530088 0.668079,1.6475915 0,1.0649066 -0.713287,1.6877766 -0.713287,0.6228699 -1.923864,0.6228699 z m 0,-1.0849992 h 0.437014 q 1.612429,0 1.612429,-1.2407168 0,-1.2005315 -1.662661,-1.2005315 h -0.386782 z"
         id="path647" /><path
         d="m 29.407578,-7.7557353 v 4.6715245 q 0,0.9996058 0.326504,1.4617351 0.487245,0.66807822 1.371319,0.66807822 0.889096,0 1.376341,-0.66807822 0.326505,-0.4470599 0.326505,-1.4617351 v -4.6715245 h 1.170392 v 4.9930057 q 0,1.2256473 -0.763518,2.01930419 -0.858957,0.88407346 -2.10972,0.88407346 -1.250763,0 -2.104698,-0.88407346 -0.763518,-0.79365689 -0.763518,-2.01930419 v -4.9930057 z"
         id="path649" /><path
         d="M 37.979435,-6.6556667 V 0 h -1.170393 v -6.6556667 h -1.783216 v -1.1000686 h 4.731802 v 1.1000686 z"
         id="path651" /><path
         d="m 8.179528,4.5891448 v 6.6556662 h 2.280508 V 12.34488 H 7.0091353 V 4.5891448 Z"
         id="path653" /><path
         d="m 15.846173,5.6892134 h -3.109327 v 1.8635867 h 3.01891 v 1.1000687 h -3.01891 v 2.5919422 h 3.109327 V 12.34488 H 11.566454 V 4.5891448 h 4.279719 z"
         id="path655" /><path
         d="m 17.77064,4.5891448 2.144882,5.3747647 2.175022,-5.3747647 h 1.280902 L 19.890407,12.927565 16.489738,4.5891448 Z"
         id="path657" /><path
         d="M 28.612836,5.6892134 H 25.50351 v 1.8635867 h 3.01891 v 1.1000687 h -3.01891 v 2.5919422 h 3.109326 V 12.34488 H 24.333117 V 4.5891448 h 4.279719 z"
         id="path659" /><path
         d="m 31.31589,4.5891448 v 6.6556662 h 2.280507 v 1.100069 h -3.4509 V 4.5891448 Z"
         id="path661" /></g><g
       aria-label="1
SW 1SW 2
23"
       transform="matrix(1,0,0,-1,73.9824,152.7646)"
       id="text296"
       style="font-variant:normal;font-weight:500;font-stretch:normal;font-size:11.417px;font-family:Futura;-inkscape-font-specification:Futura-Medium;writing-mode:lr-tb;fill:#ffffff;fill-opacity:1;fill-rule:nonzero;stroke:none"><path
         d="M 3.0939624,-7.3920614 H 1.6055156 l 0.7135625,-1.2152861 h 2.073791 V 0 H 3.0939624 Z"
         id="path725" /><path
         d="M 1.2627379,85.266708 0.20911827,85.891075 Q -0.0863412,85.378202 -0.35392714,85.222111 -0.63266248,85.04372 -1.0730643,85.04372 q -0.5407466,0 -0.8975278,0.306609 -0.3567813,0.301034 -0.3567813,0.75816 0,0.629942 0.9365508,1.014597 l 0.85850484,0.351206 q 1.04804491,0.423678 1.53304446,1.036896 0.4849995,0.607643 0.4849995,1.494021 0,1.187413 -0.79160843,1.962297 -0.79718309,0.780459 -1.97902097,0.780459 -1.1205161,0 -1.8508027,-0.66339 -0.7191372,-0.66339 -0.8975278,-1.867527 l 1.3156308,-0.289885 q 0.089195,0.75816 0.3121836,1.048045 0.4013789,0.557471 1.1706885,0.557471 0.60764302,0 1.00902192,-0.406954 0.4013789,-0.406953 0.4013789,-1.031321 0,-0.250861 -0.0724712,-0.457126 Q 0.03630235,89.42544 -0.11421474,89.252624 -0.25915712,89.074233 -0.49329481,88.923716 -0.7274325,88.767624 -1.0507655,88.628257 l -0.8306313,-0.345632 q -1.7671821,-0.747011 -1.7671821,-2.185285 0,-0.969999 0.741436,-1.62224 0.741436,-0.657816 1.845228,-0.657816 1.48844674,0 2.3246528,1.449424 z"
         id="path727" /><path
         d="m 3.4529735,83.984526 2.2410322,5.753097 2.3413769,-6.1712 2.2410324,6.1712 2.3804,-5.753097 h 1.410401 L 10.220668,93.138194 8.0075091,87.039465 5.6995804,93.143769 2.0425726,83.984526 Z"
         id="path729" /><path
         d="m 20.728661,85.199812 h -1.488447 l 0.713563,-1.215286 h 2.073791 v 8.607347 h -1.298907 z"
         id="path731" /><path
         d="m 60.048869,85.266708 -1.053619,0.624367 q -0.29546,-0.512873 -0.563046,-0.668964 -0.278735,-0.178391 -0.719137,-0.178391 -0.540747,0 -0.897528,0.306609 -0.356781,0.301034 -0.356781,0.75816 0,0.629942 0.936551,1.014597 l 0.858505,0.351206 q 1.048045,0.423678 1.533044,1.036896 0.485,0.607643 0.485,1.494021 0,1.187413 -0.791609,1.962297 -0.797183,0.780459 -1.979021,0.780459 -1.120516,0 -1.850803,-0.66339 -0.719137,-0.66339 -0.897527,-1.867527 l 1.315631,-0.289885 q 0.0892,0.75816 0.312183,1.048045 0.401379,0.557471 1.170689,0.557471 0.607643,0 1.009022,-0.406954 0.401378,-0.406953 0.401378,-1.031321 0,-0.250861 -0.07247,-0.457126 -0.0669,-0.211838 -0.217413,-0.384654 -0.144943,-0.178391 -0.37908,-0.328908 -0.234138,-0.156092 -0.557471,-0.295459 l -0.830631,-0.345632 q -1.767183,-0.747011 -1.767183,-2.185285 0,-0.969999 0.741436,-1.62224 0.741436,-0.657816 1.845228,-0.657816 1.488447,0 2.324653,1.449424 z"
         id="path733" /><path
         d="m 62.239106,83.984526 2.241032,5.753097 2.341377,-6.1712 2.241032,6.1712 2.3804,-5.753097 h 1.410401 l -3.846548,9.153668 -2.213159,-6.098729 -2.307928,6.104304 -3.657008,-9.159243 z"
         id="path735" /><path
         d="m 79.280654,91.371012 h 3.205457 v 1.220861 H 76.70514 l 2.988043,-3.617985 q 0.440402,-0.540746 0.735861,-0.93655 0.301034,-0.395805 0.457126,-0.663391 0.317758,-0.524022 0.317758,-0.942125 0,-0.602068 -0.423677,-1.009022 -0.423678,-0.406954 -1.048045,-0.406954 -1.304482,0 -1.494022,1.544194 h -1.293332 q 0.312184,-2.720457 2.748331,-2.720457 1.176263,0 1.973446,0.747011 0.802758,0.747011 0.802758,1.850803 0,0.702413 -0.373506,1.376952 -0.18954,0.351207 -0.55747,0.836206 -0.362356,0.479425 -0.919827,1.137241 z"
         id="path737" /><path
         d="m 67.263122,-1.2208608 h 3.205457 V 0 h -5.780972 l 2.988043,-3.6179848 q 0.440402,-0.5407466 0.735862,-0.9365508 0.301034,-0.3958042 0.457126,-0.6633901 0.317758,-0.5240225 0.317758,-0.9421255 0,-0.6020683 -0.423678,-1.0090219 -0.423677,-0.4069536 -1.048045,-0.4069536 -1.304481,0 -1.494021,1.5441938 H 64.92732 q 0.312183,-2.720457 2.74833,-2.720457 1.176264,0 1.973447,0.7470107 0.802757,0.7470108 0.802757,1.8508027 0,0.7024131 -0.373505,1.3769527 -0.18954,0.3512065 -0.557471,0.836206 -0.362356,0.4794248 -0.919826,1.1372402 z"
         id="path739" /><path
         d="m 131.76119,-3.9970649 v -1.1093667 q 0.82506,0 1.10937,-0.1839653 0.50729,-0.323333 0.50729,-1.0368955 0,-0.551896 -0.36793,-0.8975278 -0.36235,-0.3512065 -0.94212,-0.3512065 -0.54075,0 -0.83621,0.2620112 -0.28431,0.2675859 -0.42368,0.9031025 h -1.29333 q 0.20069,-1.2152861 0.82506,-1.7783315 0.62437,-0.5686201 1.74488,-0.5686201 1.13167,0 1.84523,0.6689648 0.71356,0.6633902 0.71356,1.7114351 0,1.1818378 -0.93655,1.8396532 1.07035,0.6299419 1.07035,2.0459175 0,1.159539 -0.78046,1.89540036 -0.78046,0.73586131 -2.00132,0.73586131 -1.55535,0 -2.30793,-1.14281487 -0.31219,-0.4794248 -0.39581,-1.3267803 h 1.25431 q 0.10035,0.6243672 0.485,0.9588496 0.39023,0.3289077 1.0146,0.3289077 0.62994,0 1.04247,-0.418103 0.41253,-0.4292525 0.41253,-1.0870679 0,-0.8696543 -0.61879,-1.2375849 -0.36236,-0.2118389 -1.12052,-0.2118389 z"
         id="path741" /></g><g
       aria-label="A
12345678B"
       transform="matrix(1,0,0,-1,197.7686,112.251)"
       id="text304"
       style="font-variant:normal;font-weight:500;font-stretch:normal;font-size:9.3941px;font-family:Futura;-inkscape-font-specification:Futura-Medium;writing-mode:lr-tb;fill:#ffffff;fill-opacity:1;fill-rule:nonzero;stroke:none"><path
         d="M 5.0089636,-1.7201111 H 1.976981 L 1.1880234,0 H 0.0366957 L 3.5411354,-7.5272063 6.9217271,0 H 5.7520516 Z M 4.5732021,-2.724656 3.5227876,-5.1328116 2.4219165,-2.724656 Z"
         id="path744" /><path
         d="m 27.552858,63.584336 h -1.224719 l 0.587131,-0.999958 h 1.70635 v 7.082271 h -1.068762 z"
         id="path746" /><path
         d="m 70.441552,68.662104 h 2.637504 v 1.004545 h -4.756681 l 2.458612,-2.976939 q 0.36237,-0.444936 0.605479,-0.77061 0.247696,-0.325674 0.376131,-0.545848 0.261457,-0.431175 0.261457,-0.775197 0,-0.495392 -0.348609,-0.830241 -0.348609,-0.334848 -0.862349,-0.334848 -1.073349,0 -1.229306,1.270589 h -1.064176 q 0.25687,-2.238438 2.261373,-2.238438 0.967849,0 1.623785,0.614653 0.660523,0.614653 0.660523,1.522872 0,0.577957 -0.307327,1.13298 -0.155956,0.288978 -0.458696,0.688044 -0.298153,0.394479 -0.756849,0.93574 z"
         id="path748" /><path
         d="m 113.60087,66.377796 v -0.912805 q 0.67887,0 0.9128,-0.15137 0.41742,-0.266044 0.41742,-0.853175 0,-0.454109 -0.30274,-0.738501 -0.29816,-0.288979 -0.7752,-0.288979 -0.44494,0 -0.68804,0.215587 -0.23394,0.220175 -0.34861,0.743088 h -1.06418 q 0.16513,-0.999957 0.67887,-1.463241 0.51374,-0.46787 1.43572,-0.46787 0.93115,0 1.51829,0.550436 0.58713,0.545848 0.58713,1.408197 0,0.972436 -0.77061,1.513698 0.88069,0.518327 0.88069,1.683415 0,0.954089 -0.64217,1.559568 -0.64218,0.605479 -1.64672,0.605479 -1.27976,0 -1.899,-0.940327 -0.25687,-0.394479 -0.32568,-1.091698 h 1.03207 q 0.0826,0.51374 0.39907,0.788958 0.32108,0.270631 0.83482,0.270631 0.51833,0 0.85776,-0.344022 0.33944,-0.353197 0.33944,-0.894458 0,-0.715566 -0.50915,-1.018306 -0.29816,-0.174305 -0.92198,-0.174305 z"
         id="path750" /><path
         d="m 158.88396,67.689668 h 0.75226 v 0.972436 h -0.75226 v 1.004545 h -1.06876 v -1.004545 h -3.47692 l 4.54568,-6.605227 z m -1.06876,0 v -2.37146 l -1.63296,2.37146 z"
         id="path752" /><path
         d="m 202.27262,63.584336 h -2.1834 l -0.34861,1.174262 q 0.078,-0.0092 0.14679,-0.01376 0.0734,-0.0046 0.13302,-0.0046 1.03207,0 1.69259,0.697218 0.66511,0.692631 0.66511,1.775155 0,1.119219 -0.75226,1.843959 -0.75227,0.72474 -1.89442,0.72474 -1.4082,0 -2.22009,-1.321045 l 0.80731,-0.683458 q 0.33484,0.568784 0.67428,0.802719 0.33943,0.229348 0.83024,0.229348 0.64217,0 1.07794,-0.449523 0.43576,-0.463283 0.43576,-1.123806 0,-0.67887 -0.43118,-1.110045 -0.43117,-0.444935 -1.07793,-0.444935 -0.72016,0 -1.24307,0.628414 h -0.3532 l 1.11464,-3.724614 h 2.92648 z"
         id="path754" /><path
         d="m 244.10172,62.336682 0.78437,0.587131 -1.69259,2.302656 q 0.13761,-0.01835 0.23394,-0.02752 0.0963,-0.0092 0.15137,-0.0092 0.86235,0 1.49076,0.660523 0.62383,0.651348 0.62383,1.568741 0,0.972436 -0.69722,1.669655 -0.69263,0.692631 -1.66507,0.692631 -0.96326,0 -1.688,-0.683458 -0.71098,-0.683457 -0.71098,-1.619197 0,-0.839415 0.69263,-1.779742 z m 0.55044,5.151159 q 0,-0.564196 -0.38989,-0.954088 -0.39448,-0.394479 -0.94951,-0.394479 -0.55961,0 -0.9495,0.389892 -0.38989,0.389892 -0.38989,0.944915 0,0.555022 0.38989,0.944914 0.38989,0.389892 0.95409,0.389892 0.55044,0 0.94033,-0.389892 0.39448,-0.394479 0.39448,-0.931154 z"
         id="path756" /><path
         d="m 287.47663,63.584336 h -3.49526 v -0.999958 h 5.27959 l -4.4677,7.32538 -0.84859,-0.536675 z"
         id="path758" /><path
         d="m 328.20947,65.983318 q -0.77979,-0.550436 -0.77979,-1.499937 0,-0.862349 0.59172,-1.440307 0.59631,-0.577957 1.48159,-0.577957 0.8807,0 1.46783,0.577957 0.58713,0.573371 0.58713,1.444894 0,0.912805 -0.7752,1.490763 0.42659,0.229348 0.6697,0.669696 0.2477,0.440349 0.2477,0.990784 0,0.940328 -0.61466,1.54122 -0.61465,0.600892 -1.57333,0.600892 -0.98161,0 -1.61919,-0.605479 -0.64218,-0.605479 -0.64218,-1.522872 0,-1.19261 0.95868,-1.669654 z m 0.22476,-1.504524 q 0,0.454109 0.30732,0.761436 0.31192,0.311913 0.75227,0.311913 0.43576,0 0.74767,-0.311913 0.31191,-0.311914 0.31191,-0.747675 0,-0.435762 -0.31191,-0.747675 -0.31191,-0.311914 -0.74767,-0.311914 -0.43577,0 -0.74768,0.311914 -0.31191,0.311913 -0.31191,0.733914 z m -0.13302,3.137482 q 0,0.490805 0.33943,0.844002 0.34402,0.348609 0.83483,0.348609 0.48622,0 0.83024,-0.344022 0.34402,-0.34861 0.34402,-0.834828 0,-0.490805 -0.34402,-0.834827 -0.34402,-0.344022 -0.83024,-0.344022 -0.48163,0 -0.83024,0.344022 -0.34402,0.344022 -0.34402,0.821066 z"
         id="path760" /><path
         d="M 1.5343575,42.386181 V 35.30391 h 1.0641754 q 0.7109792,0 1.1329798,0.110087 0.4265876,0.110087 0.7201532,0.371544 0.2981526,0.270631 0.4724572,0.674284 0.1788916,0.408239 0.1788916,0.825653 0,0.761436 -0.5825443,1.288937 0.5641964,0.192652 0.8898708,0.674283 0.3302613,0.477044 0.3302613,1.110045 0,0.830241 -0.5871312,1.403611 -0.3531962,0.353196 -0.7935446,0.490805 -0.4816311,0.133022 -1.2063713,0.133022 z m 1.0687623,-4.041115 h 0.3348483 q 0.5963052,0 0.871523,-0.261456 0.2798048,-0.266044 0.2798048,-0.779784 0,-0.499979 -0.2843918,-0.756849 Q 3.5205124,36.28552 2.9792508,36.28552 h -0.376131 z m 0,3.03657 h 0.6605227 q 0.7247402,0 1.0641754,-0.284392 0.3577831,-0.307326 0.3577831,-0.779783 0,-0.458697 -0.3440222,-0.77061 Q 4.0067305,39.239524 3.1443815,39.239524 H 2.6031198 Z"
         id="path762" /></g><g
       aria-label="45678"
       transform="matrix(1,0,0,-1,267.1924,152.7646)"
       id="text308"
       style="font-variant:normal;font-weight:500;font-stretch:normal;font-size:11.417px;font-family:Futura;-inkscape-font-specification:Futura-Medium;writing-mode:lr-tb;fill:#ffffff;fill-opacity:1;fill-rule:nonzero;stroke:none"><path
         d="m 5.630454,-2.4026987 h 0.9142519 v 1.1818379 H 5.630454 V 0 H 4.3315473 V -1.2208608 H 0.10591943 L 5.630454,-9.2484388 Z m -1.2989067,0 v -2.8821235 l -1.9845957,2.8821235 z"
         id="path765" /><path
         d="m 70.407257,-7.3920614 h -2.653561 l -0.423677,1.427125 q 0.09477,-0.011149 0.17839,-0.016724 0.0892,-0.00557 0.161667,-0.00557 1.254309,0 2.057067,0.8473555 0.808332,0.8417807 0.808332,2.1574116 0,1.3602285 -0.914252,2.24103218 -0.914252,0.88080369 -2.302354,0.88080369 -1.711435,0 -2.698158,-1.60551557 l 0.981148,-0.8306314 q 0.406954,0.6912637 0.819482,0.9755738 0.412529,0.2787353 1.009022,0.2787353 0.780459,0 1.310056,-0.5463213 0.529598,-0.5630454 0.529598,-1.3658032 0,-0.8250566 -0.524023,-1.3490791 -0.524022,-0.5407465 -1.310056,-0.5407465 -0.875229,0 -1.510746,0.7637348 H 65.49594 l 1.354654,-4.526662 h 3.556663 z"
         id="path767" /><path
         d="m 133.28866,-8.9083817 0.95327,0.7135625 -2.05706,2.7985029 q 0.16724,-0.022299 0.28431,-0.033448 0.11707,-0.011149 0.18396,-0.011149 1.04805,0 1.81178,0.8027578 0.75816,0.7916084 0.75816,1.9065498 0,1.1818379 -0.84735,2.02919333 -0.84178,0.84178074 -2.02362,0.84178074 -1.17069,0 -2.05149,-0.83063133 -0.86408,-0.83063134 -0.86408,-1.96787154 0,-1.0201714 0.84178,-2.1629863 z m 0.66896,6.2603959 q 0,-0.685689 -0.47385,-1.159539 -0.47942,-0.4794248 -1.15396,-0.4794248 -0.68011,0 -1.15396,0.4738501 -0.47385,0.47385 -0.47385,1.1483896 0,0.6745395 0.47385,1.1483896 0.47385,0.4738501 1.15953,0.4738501 0.66897,0 1.14282,-0.4738501 0.47942,-0.4794248 0.47942,-1.1316655 z"
         id="path769" /><path
         d="m 198.04873,-7.3920614 h -4.24793 v -1.2152861 h 6.41649 l -5.42976,8.90280697 -1.03132,-0.65224071 z"
         id="path771" /><path
         d="m 259.59779,-4.4764897 q -0.9477,-0.6689648 -0.9477,-1.8229291 0,-1.0480449 0.71913,-1.750458 0.72471,-0.7024131 1.80063,-0.7024131 1.07035,0 1.78391,0.7024131 0.71356,0.6968383 0.71356,1.7560327 0,1.1093666 -0.94212,1.8117797 0.51844,0.2787354 0.8139,0.8139072 0.30104,0.5351719 0.30104,1.2041367 0,1.142815 -0.74701,1.87310156 -0.74701,0.73028661 -1.91213,0.73028661 -1.19299,0 -1.96787,-0.73586131 -0.78046,-0.73586136 -0.78046,-1.85080266 0,-1.4494239 1.16512,-2.0291934 z m 0.27316,-1.8285039 q 0,0.551896 0.3735,0.9254014 0.37908,0.3790801 0.91425,0.3790801 0.5296,0 0.90868,-0.3790801 0.37908,-0.3790801 0.37908,-0.9086772 0,-0.5295972 -0.37908,-0.9086773 -0.37908,-0.37908 -0.90868,-0.37908 -0.52959,0 -0.90867,0.37908 -0.37908,0.3790801 -0.37908,0.8919531 z m -0.16167,3.8130996 q 0,0.5964936 0.41253,1.0257461 0.4181,0.4236777 1.01459,0.4236777 0.59092,0 1.00903,-0.418103 0.4181,-0.4236777 0.4181,-1.0145967 0,-0.5964936 -0.4181,-1.0145966 -0.41811,-0.4181031 -1.00903,-0.4181031 -0.58534,0 -1.00902,0.4181031 -0.4181,0.418103 -0.4181,0.9978725 z"
         id="path773" /></g><g
       aria-label="IN 1IN 3ININOUT 1
IN 2IN 4OUTOUTOUT 2"
       transform="matrix(1,0,0,-1,353.7822,274.1055)"
       id="text314"
       style="font-variant:normal;font-weight:500;font-stretch:normal;font-size:9.0798px;font-family:Futura;-inkscape-font-specification:Futura-Medium;writing-mode:lr-tb;fill:#ffffff;fill-opacity:1;fill-rule:nonzero;stroke:none"><path
         d="M 1.8532013,-6.8453177 V 0 H 0.82019675 v -6.8453177 z"
         id="path664" /><path
         d="m 3.4987377,0 v -7.3108348 l 4.9921164,5.2226582 V -6.8453177 H 9.5238587 V 0.41674862 L 4.5317422,-4.7926091 V 0 Z"
         id="path666" /><path
         d="m 15.608141,-5.8788156 h -1.183744 l 0.567488,-0.9665021 h 1.64926 V 0 h -1.033004 z"
         id="path668" /><path
         d="M 44.564581,-6.8453177 V 0 h -1.033004 v -6.8453177 z"
         id="path670" /><path
         d="m 46.210116,0 v -7.3108348 l 4.992116,5.2226582 v -4.7571411 h 1.033005 V 0.41674862 L 47.243121,-4.7926091 V 0 Z"
         id="path672" /><path
         d="m 58.208682,-3.1788166 v -0.8822657 q 0.656157,0 0.882265,-0.1463053 0.403448,-0.2571428 0.403448,-0.8246303 0,-0.4389161 -0.29261,-0.7137928 -0.288178,-0.2793103 -0.749261,-0.2793103 -0.430049,0 -0.665025,0.2083743 -0.226108,0.2128079 -0.336945,0.7182264 h -1.028571 q 0.159606,-0.9665021 0.656157,-1.4142852 0.496552,-0.4522166 1.387684,-0.4522166 0.9,0 1.467487,0.5320195 0.567488,0.527586 0.567488,1.3610833 0,0.9399011 -0.744827,1.4630536 0.851231,0.5009851 0.851231,1.627093 0,0.9221672 -0.62069,1.50738864 -0.620689,0.58522146 -1.591625,0.58522146 -1.236945,0 -1.835467,-0.90886667 -0.248276,-0.38128063 -0.314778,-1.05517203 h 0.997536 q 0.0798,0.4965515 0.385715,0.7625613 0.310344,0.26157626 0.806896,0.26157626 0.500985,0 0.829064,-0.33251216 0.328078,-0.3413792 0.328078,-0.8645317 0,-0.6916254 -0.492118,-0.9842361 -0.288177,-0.1684729 -0.891132,-0.1684729 z"
         id="path674" /><path
         d="M 137.63253,-6.8453177 V 0 h -1.03301 v -6.8453177 z"
         id="path676" /><path
         d="m 139.27807,0 v -7.3108348 l 4.99211,5.2226582 v -4.7571411 h 1.03301 V 0.41674862 L 140.31107,-4.7926091 V 0 Z"
         id="path678" /><path
         d="M 181.45165,-6.8453177 V 0 h -1.033 v -6.8453177 z"
         id="path680" /><path
         d="m 183.09717,0 v -7.3108348 l 4.99212,5.2226582 v -4.7571411 h 1.03301 V 0.41674862 L 184.13018,-4.7926091 V 0 Z"
         id="path682" /><path
         d="m 80.925847,-3.4536933 q 0,-1.4453197 1.059605,-2.4827577 1.055172,-1.0374381 2.53596,-1.0374381 1.463054,0 2.509359,1.046305 1.050738,1.0463051 1.050738,2.5137922 0,1.4763542 -1.055172,2.50492524 -1.059605,1.03300455 -2.558127,1.03300455 -1.325615,0 -2.380787,-0.91773366 -1.161576,-1.01527053 -1.161576,-2.66009753 z m 1.041871,0.0133 q 0,1.1349749 0.762562,1.8665017 0.758127,0.73152687 1.75123,0.73152687 1.07734,0 1.817734,-0.74482727 0.740394,-0.7536943 0.740394,-1.8354674 0,-1.0950734 -0.731527,-1.8354673 -0.727094,-0.7448273 -1.8,-0.7448273 -1.068472,0 -1.804432,0.7448273 -0.735961,0.7359604 -0.735961,1.8177334 z"
         id="path684" /><path
         d="m 90.413031,-6.8453177 v 4.1231512 q 0,0.8822657 0.288177,1.2901473 0.430049,0.58965497 1.210345,0.58965497 0.784728,0 1.214778,-0.58965497 0.288177,-0.3945811 0.288177,-1.2901473 v -4.1231512 h 1.033004 v 4.4068949 q 0,1.081773 -0.673891,1.7822654 -0.758128,0.78029529 -1.862068,0.78029529 -1.103941,0 -1.857635,-0.78029529 -0.673892,-0.7004924 -0.673892,-1.7822654 v -4.4068949 z"
         id="path686" /><path
         d="M 97.978664,-5.8743821 V 0 H 96.94566 v -5.8743821 h -1.573891 v -0.9709356 h 4.176353 v 0.9709356 z"
         id="path688" /><path
         d="m 104.91251,-5.8788156 h -1.18374 l 0.56748,-0.9665021 h 1.64926 V 0 h -1.033 z"
         id="path690" /><path
         d="m 1.8441215,31.353401 v 6.845318 H 0.81111695 v -6.845318 z"
         id="path692" /><path
         d="m 3.489658,38.198719 v -7.310835 l 4.9921164,5.222658 V 31.353401 H 9.514779 v 7.262067 L 4.5226625,33.40611 v 4.792609 z"
         id="path694" /><path
         d="m 15.412854,37.227783 h 2.54926 v 0.970936 h -4.597535 l 2.376354,-2.877339 q 0.350246,-0.430049 0.585221,-0.744827 0.239409,-0.314778 0.363547,-0.527586 0.252709,-0.416749 0.252709,-0.749261 0,-0.478818 -0.336946,-0.802463 -0.336945,-0.323645 -0.833497,-0.323645 -1.037438,0 -1.188177,1.228078 h -1.028571 q 0.248276,-2.163546 2.185714,-2.163546 0.935467,0 1.569457,0.594089 0.638424,0.594088 0.638424,1.471921 0,0.55862 -0.297044,1.095073 -0.150739,0.27931 -0.44335,0.665024 -0.288177,0.381281 -0.731527,0.904434 z"
         id="path696" /><path
         d="m 44.555502,31.353401 v 6.845318 h -1.033004 v -6.845318 z"
         id="path698" /><path
         d="m 46.201037,38.198719 v -7.310835 l 4.992116,5.222658 v -4.757141 h 1.033005 v 7.262067 L 47.234042,33.40611 v 4.792609 z"
         id="path700" /><path
         d="m 60.327681,36.287882 h 0.727093 v 0.939901 h -0.727093 v 0.970936 h -1.033005 v -0.970936 h -3.36059 l 4.393595,-6.384234 z m -1.033005,0 v -2.292117 l -1.578325,2.292117 z"
         id="path702" /><path
         d="m 131.81813,34.745026 q 0,-1.44532 1.0596,-2.482758 1.05517,-1.037438 2.53596,-1.037438 1.46306,0 2.50936,1.046305 1.05074,1.046305 1.05074,2.513792 0,1.476354 -1.05517,2.504925 -1.05961,1.033005 -2.55813,1.033005 -1.32561,0 -2.38079,-0.917734 -1.16157,-1.01527 -1.16157,-2.660097 z m 1.04187,0.0133 q 0,1.134975 0.76256,1.866502 0.75813,0.731527 1.75123,0.731527 1.07734,0 1.81773,-0.744828 0.7404,-0.753694 0.7404,-1.835467 0,-1.095073 -0.73153,-1.835467 -0.72709,-0.744827 -1.8,-0.744827 -1.06847,0 -1.80443,0.744827 -0.73596,0.73596 -0.73596,1.817733 z"
         id="path704" /><path
         d="m 141.30985,31.353401 v 4.123152 q 0,0.882265 0.28818,1.290147 0.43005,0.589655 1.21034,0.589655 0.78473,0 1.21478,-0.589655 0.28818,-0.394581 0.28818,-1.290147 v -4.123152 h 1.033 v 4.406895 q 0,1.081773 -0.67389,1.782266 -0.75813,0.780295 -1.86207,0.780295 -1.10394,0 -1.85763,-0.780295 -0.67389,-0.700493 -0.67389,-1.782266 v -4.406895 z"
         id="path706" /><path
         d="m 148.87549,32.324337 v 5.874382 h -1.033 v -5.874382 h -1.57389 v -0.970936 h 4.17635 v 0.970936 z"
         id="path708" /><path
         d="m 175.63723,34.745026 q 0,-1.44532 1.05961,-2.482758 1.05517,-1.037438 2.53596,-1.037438 1.46305,0 2.50936,1.046305 1.05074,1.046305 1.05074,2.513792 0,1.476354 -1.05518,2.504925 -1.0596,1.033005 -2.55812,1.033005 -1.32562,0 -2.38079,-0.917734 -1.16158,-1.01527 -1.16158,-2.660097 z m 1.04188,0.0133 q 0,1.134975 0.76256,1.866502 0.75812,0.731527 1.75123,0.731527 1.07734,0 1.81773,-0.744828 0.7404,-0.753694 0.7404,-1.835467 0,-1.095073 -0.73153,-1.835467 -0.72709,-0.744827 -1.8,-0.744827 -1.06847,0 -1.80443,0.744827 -0.73596,0.73596 -0.73596,1.817733 z"
         id="path710" /><path
         d="m 185.12896,31.353401 v 4.123152 q 0,0.882265 0.28818,1.290147 0.43004,0.589655 1.21034,0.589655 0.78473,0 1.21478,-0.589655 0.28817,-0.394581 0.28817,-1.290147 v -4.123152 h 1.03301 v 4.406895 q 0,1.081773 -0.67389,1.782266 -0.75813,0.780295 -1.86207,0.780295 -1.10394,0 -1.85764,-0.780295 -0.67389,-0.700493 -0.67389,-1.782266 v -4.406895 z"
         id="path712" /><path
         d="m 192.6946,32.324337 v 5.874382 h -1.03301 v -5.874382 h -1.57389 v -0.970936 h 4.17636 v 0.970936 z"
         id="path714" /><path
         d="m 80.916768,34.745026 q 0,-1.44532 1.059605,-2.482758 1.055172,-1.037438 2.53596,-1.037438 1.463054,0 2.509359,1.046305 1.050738,1.046305 1.050738,2.513792 0,1.476354 -1.055172,2.504925 -1.059605,1.033005 -2.558127,1.033005 -1.325615,0 -2.380787,-0.917734 -1.161576,-1.01527 -1.161576,-2.660097 z m 1.041871,0.0133 q 0,1.134975 0.762562,1.866502 0.758127,0.731527 1.75123,0.731527 1.07734,0 1.817734,-0.744828 0.740394,-0.753694 0.740394,-1.835467 0,-1.095073 -0.731527,-1.835467 -0.727094,-0.744827 -1.8,-0.744827 -1.068472,0 -1.804432,0.744827 -0.735961,0.73596 -0.735961,1.817733 z"
         id="path716" /><path
         d="m 90.403952,31.353401 v 4.123152 q 0,0.882265 0.288177,1.290147 0.430049,0.589655 1.210345,0.589655 0.784728,0 1.214778,-0.589655 0.288177,-0.394581 0.288177,-1.290147 v -4.123152 h 1.033004 v 4.406895 q 0,1.081773 -0.673891,1.782266 -0.758128,0.780295 -1.862068,0.780295 -1.103941,0 -1.857635,-0.780295 -0.673892,-0.700493 -0.673892,-1.782266 v -4.406895 z"
         id="path718" /><path
         d="m 97.969585,32.324337 v 5.874382 H 96.936581 V 32.324337 H 95.36269 v -0.970936 h 4.176353 v 0.970936 z"
         id="path720" /><path
         d="m 104.71722,37.227783 h 2.54926 v 0.970936 h -4.59753 l 2.37635,-2.877339 q 0.35025,-0.430049 0.58522,-0.744827 0.23941,-0.314778 0.36355,-0.527586 0.25271,-0.416749 0.25271,-0.749261 0,-0.478818 -0.33695,-0.802463 -0.33694,-0.323645 -0.83349,-0.323645 -1.03744,0 -1.18818,1.228078 h -1.02857 q 0.24827,-2.163546 2.18571,-2.163546 0.93547,0 1.56946,0.594089 0.63842,0.594088 0.63842,1.471921 0,0.55862 -0.29704,1.095073 -0.15074,0.27931 -0.44335,0.665024 -0.28818,0.381281 -0.73153,0.904434 z"
         id="path722" /></g><g
       id="g324"
       transform="translate(459.6143,231.919)"><path
         d="m 0,0 h -105.797 c -5.456,0 -9.921,4.465 -9.921,9.921 V 83.57 c 0,5.456 4.465,9.921 9.921,9.921 L 0,93.491 c 5.457,0 9.921,-4.465 9.921,-9.921 V 9.921 C 9.921,4.465 5.457,0 0,0 Z"
         style="fill:none;stroke:#ffffff;stroke-width:0.75;stroke-linecap:butt;stroke-linejoin:miter;stroke-miterlimit:10;stroke-dasharray:none;stroke-opacity:1"
         id="path326" /></g><g
       id="g328"
       transform="translate(503.5605,231.919)"><path
         d="m 0,0 h -17.963 c -5.457,0 -9.922,4.465 -9.922,9.921 V 83.57 c 0,5.456 4.465,9.921 9.922,9.921 H 0 c 5.457,0 9.921,-4.465 9.921,-9.921 V 9.921 C 9.921,4.465 5.457,0 0,0 Z"
         style="fill:none;stroke:#ffffff;stroke-width:0.75;stroke-linecap:butt;stroke-linejoin:miter;stroke-miterlimit:10;stroke-dasharray:none;stroke-opacity:1"
         id="path330" /></g><g
       id="g332"
       transform="translate(547.5039,231.919)"><path
         d="m 0,0 h -17.963 c -5.457,0 -9.922,4.465 -9.922,9.921 V 83.57 c 0,5.456 4.465,9.921 9.922,9.921 H 0 c 5.457,0 9.921,-4.465 9.921,-9.921 V 9.921 C 9.921,4.465 5.457,0 0,0 Z"
         style="fill:none;stroke:#ffffff;stroke-width:0.75;stroke-linecap:butt;stroke-linejoin:miter;stroke-miterlimit:10;stroke-dasharray:none;stroke-opacity:1"
         id="path334" /></g><g
       id="g336"
       transform="translate(519.6191,313.002)"><path
         d="m 0,0 v 2.487 c 0,5.456 4.465,9.921 9.922,9.921 h 17.963 c 5.457,0 9.921,-4.465 9.921,-9.921 V 0 Z"
         style="fill:#ffffff;fill-opacity:1;fill-rule:nonzero;stroke:none"
         id="path338" /></g><g
       id="g340"
       transform="translate(475.6758,313.002)"><path
         d="m 0,0 v 2.487 c 0,5.456 4.465,9.921 9.922,9.921 h 17.963 c 5.457,0 9.921,-4.465 9.921,-9.921 V 0 Z"
         style="fill:#ffffff;fill-opacity:1;fill-rule:nonzero;stroke:none"
         id="path342" /></g><g
       id="g344"
       transform="translate(343.8965,313.002)"><path
         d="m 0,0 v 2.487 c 0,5.456 4.465,9.921 9.921,9.921 h 105.913 c 5.456,0 9.921,-4.465 9.921,-9.921 V 0 Z"
         style="fill:#ffffff;fill-opacity:1;fill-rule:nonzero;stroke:none"
         id="path346" /></g><g
       aria-label="CVGATEMIDI"
       transform="matrix(1,0,0,-1,399.6216,315.8301)"
       id="text350"
       style="font-variant:normal;font-weight:500;font-stretch:normal;font-size:9.0798px;font-family:Futura;-inkscape-font-specification:Futura-Medium;writing-mode:lr-tb;fill:#35242e;fill-opacity:1;fill-rule:nonzero;stroke:none"><path
         d="m 5.8788156,-6.4773375 v 1.2236448 q -0.8955662,-0.7492608 -1.8532013,-0.7492608 -1.055172,0 -1.7778319,0.7581278 -0.7270933,0.7536943 -0.7270933,1.8443343 0,1.0773395 0.7270933,1.8177334 0.7270934,0.74039377 1.7822654,0.74039377 0.54532,0 0.9266006,-0.17733987 0.2128078,-0.08867 0.4389161,-0.2394087 0.2305418,-0.1507389 0.4832511,-0.3635467 v 1.24581235 q -0.8866992,0.50098504 -1.8620683,0.50098504 -1.4674871,0 -2.5049252,-1.02413756 -1.03300454,-1.03300453 -1.03300454,-2.49162473 0,-1.3078813 0.86453174,-2.3320188 1.064039,-1.2546794 2.7532009,-1.2546794 0.9221672,0 1.7822654,0.5009851 z"
         id="path776" /><path
         d="m 7.5309491,-6.8453177 1.8931028,4.7438406 1.9197041,-4.7438406 h 1.130541 L 9.4018844,0.51428553 6.4004077,-6.8453177 Z"
         id="path778" /><path
         d="m 87.856391,-3.5645307 h 2.828571 v 0.2261083 q 0,0.7714283 -0.181774,1.3655167 -0.177339,0.5497535 -0.598522,1.02857107 -0.953201,1.07290601 -2.425122,1.07290601 -1.436452,0 -2.46059,-1.03743804 -1.024138,-1.04187154 -1.024138,-2.50049174 0,-1.4896546 1.041872,-2.5270926 1.041871,-1.0418716 2.53596,-1.0418716 0.802462,0 1.498521,0.3280787 0.665025,0.3280787 1.307882,1.064039 L 89.64309,-4.881279 q -0.842364,-1.1216745 -2.052708,-1.1216745 -1.086207,0 -1.822167,0.7492608 -0.735961,0.7359604 -0.735961,1.8443343 0,1.143842 0.820197,1.8842358 0.766995,0.68719187 1.662561,0.68719187 0.762561,0 1.36995,-0.51428557 0.607389,-0.518719 0.678325,-1.2413788 h -1.706896 z"
         id="path780" /><path
         d="m 95.695671,-1.662561 h -2.93054 L 92.002569,0 H 90.889762 L 94.276953,-7.2753668 97.544439,0 h -1.130541 z m -0.421182,-0.9709356 -1.01527,-2.3275853 -1.064039,2.3275853 z"
         id="path782" /><path
         d="M 99.909939,-5.8743821 V 0 h -1.033005 v -5.8743821 h -1.573891 v -0.9709356 h 4.176357 v 0.9709356 z"
         id="path784" /><path
         d="m 106.1787,-5.8743821 h -2.74433 v 1.644827 h 2.66453 v 0.9709356 h -2.66453 v 2.28768389 h 2.74433 V 0 h -3.77733 v -6.8453177 h 3.77733 z"
         id="path786" /><path
         d="m 129.16892,0 1.44089,-7.3596032 2.34975,5.3201951 2.43399,-5.3201951 L 136.68813,0 h -1.0596 L 134.96794,-4.1320182 132.94183,0.31477821 130.97336,-4.1364517 130.2374,0 Z"
         id="path788" /><path
         d="M 139.16701,-6.8453177 V 0 h -1.033 v -6.8453177 z"
         id="path790" /><path
         d="m 140.81255,0 v -6.8453177 h 1.43645 q 1.03301,0 1.63153,0.2039408 0.64286,0.1995073 1.16601,0.6783249 1.05961,0.9665021 1.05961,2.5403931 0,1.5783246 -1.10394,2.5536937 -0.55419,0.48768455 -1.16158,0.67832488 Q 143.27314,0 142.23127,0 Z m 1.03301,-0.97093561 h 0.46551 q 0.69606,0 1.15715,-0.14630539 0.46108,-0.1551723 0.83349,-0.492118 0.76256,-0.6960589 0.76256,-1.8132999 0,-1.1261079 -0.75369,-1.8266003 -0.67832,-0.6251229 -1.99951,-0.6251229 h -0.46551 z"
         id="path792" /><path
         d="M 148.43749,-6.8453177 V 0 h -1.033 v -6.8453177 z"
         id="path794" /></g><g
       id="g360"
       transform="translate(163.3779,85.6084)"><path
         d="m 0,0 h -100.755 c -1.949,0 -3.544,1.595 -3.544,3.543 v 49.475 c 0,1.948 1.595,3.543 3.544,3.543 H 0 c 1.948,0 3.543,-1.595 3.543,-3.543 V 3.543 C 3.543,1.595 1.948,0 0,0"
         style="fill:#151515;fill-opacity:1;fill-rule:nonzero;stroke:none"
         id="path362" /></g><g
       id="g364"
       transform="translate(207.9443,237.7549)"><path
         d="m 0,0 h -145.321 c -1.95,0 -3.544,1.595 -3.544,3.543 v 62.103 c 0,1.95 1.594,3.543 3.544,3.543 L 0,69.189 c 1.949,0 3.543,-1.593 3.543,-3.543 V 3.543 C 3.543,1.595 1.949,0 0,0"
         style="fill:#151515;fill-opacity:1;fill-rule:nonzero;stroke:none"
         id="path366" /></g><path
       d="M 208.46,246.122 H 62.314 v 52.349 H 208.46 Z"
       style="fill:#a97419;fill-opacity:1;fill-rule:nonzero;stroke:none"
       id="path368" /><path
       d="M 74.369,261.81 H 59.011 v 21.303 h 15.358 z"
       style="fill:#d6d7d7;fill-opacity:1;fill-rule:nonzero;stroke:none"
       id="path370" /><path
       d="m 139.268,257.847 h -28.403 v 28.568 h 28.403 z"
       style="fill:#3a363a;fill-opacity:1;fill-rule:nonzero;stroke:none"
       id="path372" /><path
       d="m 170.809,253.388 h -22.623 v 36.991 h 22.623 z"
       style="fill:#3a363a;fill-opacity:1;fill-rule:nonzero;stroke:none"
       id="path374" /><path
       d="m 200.864,265.112 h -18.165 v 13.046 h 18.165 z"
       style="fill:#3a363a;fill-opacity:1;fill-rule:nonzero;stroke:none"
       id="path376" /></g></svg>
