<svg version="1.1" xmlns="http://www.w3.org/2000/svg" xmlns:xlink="http://www.w3.org/1999/xlink" stroke-linecap="round" stroke-linejoin="round" stroke-width="0" fill-rule="evenodd" clip-rule="evenodd" id="YOAOnYBgMlvlTxupPEMz_bottom" viewBox="101000 -75000 20000 19000" width="20mm" height="19mm" class="w-100 h-100"><defs><style>.YOAOnYBgMlvlTxupPEMz_fr4 {color: #666666;}
.YOAOnYBgMlvlTxupPEMz_cu {color: #cccccc;}
.YOAOnYBgMlvlTxupPEMz_cf {color: #cc9933;}
.YOAOnYBgMlvlTxupPEMz_sm {color: #004200; opacity: 0.75;}
.YOAOnYBgMlvlTxupPEMz_ss {color: #ffffff;}
.YOAOnYBgMlvlTxupPEMz_sp {color: #999999;}
.YOAOnYBgMlvlTxupPEMz_out {color: #000000;}</style><rect x="-1050" y="-1050" width="2100" height="2100" rx="1050" ry="1050" id="BHB9HylA0jxnZ6KXxsIj_pad-10"/><rect x="-950" y="-1450" width="1900" height="2900" id="BHB9HylA0jxnZ6KXxsIj_pad-11"/><rect x="-950" y="-1450" width="1900" height="2900" rx="950" ry="950" id="BHB9HylA0jxnZ6KXxsIj_pad-12"/><rect x="-850" y="-850" width="1700" height="1700" rx="850" ry="850" id="KmbXX14NwTUCsVjrEcSI_pad-10"/><rect x="-750" y="-1250" width="1500" height="2500" id="KmbXX14NwTUCsVjrEcSI_pad-11"/><rect x="-750" y="-1250" width="1500" height="2500" rx="750" ry="750" id="KmbXX14NwTUCsVjrEcSI_pad-12"/><circle cx="0" cy="0" r="342.9" id="KmbXX14NwTUCsVjrEcSI_pad-13"/><circle cx="0" cy="0" r="152.4" id="KmbXX14NwTUCsVjrEcSI_pad-15"/><circle cx="0" cy="0" r="175" id="KmbXX14NwTUCsVjrEcSI_pad-16"/><circle cx="0" cy="0" r="152.5" id="B0vis3hZ7jFkZZyhkWLD_pad-1"/><circle cx="0" cy="0" r="500" id="B0vis3hZ7jFkZZyhkWLD_pad-2"/><g id="YOAOnYBgMlvlTxupPEMz_bottom_soldermask"><use xlink:href="#BHB9HylA0jxnZ6KXxsIj_pad-10" x="103640" y="-73160"/><use xlink:href="#BHB9HylA0jxnZ6KXxsIj_pad-10" x="106180" y="-73160"/><use xlink:href="#BHB9HylA0jxnZ6KXxsIj_pad-10" x="108720" y="-73160"/><use xlink:href="#BHB9HylA0jxnZ6KXxsIj_pad-10" x="111260" y="-73160"/><use xlink:href="#BHB9HylA0jxnZ6KXxsIj_pad-10" x="103640" y="-57920"/><use xlink:href="#BHB9HylA0jxnZ6KXxsIj_pad-10" x="106180" y="-57920"/><use xlink:href="#BHB9HylA0jxnZ6KXxsIj_pad-10" x="108720" y="-57920"/><use xlink:href="#BHB9HylA0jxnZ6KXxsIj_pad-10" x="111260" y="-57920"/><use xlink:href="#BHB9HylA0jxnZ6KXxsIj_pad-11" x="111760" y="-66294"/><use xlink:href="#BHB9HylA0jxnZ6KXxsIj_pad-12" x="114300" y="-66294"/><use xlink:href="#BHB9HylA0jxnZ6KXxsIj_pad-12" x="116840" y="-66294"/></g><g id="YOAOnYBgMlvlTxupPEMz_bottom_copper"><use xlink:href="#KmbXX14NwTUCsVjrEcSI_pad-10" x="103640" y="-73160"/><use xlink:href="#KmbXX14NwTUCsVjrEcSI_pad-10" x="106180" y="-73160"/><use xlink:href="#KmbXX14NwTUCsVjrEcSI_pad-10" x="108720" y="-73160"/><use xlink:href="#KmbXX14NwTUCsVjrEcSI_pad-10" x="111260" y="-73160"/><use xlink:href="#KmbXX14NwTUCsVjrEcSI_pad-10" x="103640" y="-57920"/><use xlink:href="#KmbXX14NwTUCsVjrEcSI_pad-10" x="106180" y="-57920"/><use xlink:href="#KmbXX14NwTUCsVjrEcSI_pad-10" x="108720" y="-57920"/><use xlink:href="#KmbXX14NwTUCsVjrEcSI_pad-10" x="111260" y="-57920"/><use xlink:href="#KmbXX14NwTUCsVjrEcSI_pad-11" x="111760" y="-66294"/><use xlink:href="#KmbXX14NwTUCsVjrEcSI_pad-12" x="114300" y="-66294"/><use xlink:href="#KmbXX14NwTUCsVjrEcSI_pad-12" x="116840" y="-66294"/><use xlink:href="#KmbXX14NwTUCsVjrEcSI_pad-13" x="102500" y="-68000"/><use xlink:href="#KmbXX14NwTUCsVjrEcSI_pad-13" x="103500" y="-68500"/><use xlink:href="#KmbXX14NwTUCsVjrEcSI_pad-13" x="104500" y="-68500"/><path d="M 102569.375 -56849.375 102241.161 -57340.582 102125.908 -57920 102241.161 -58499.418 102569.375 -58990.625 103060.582 -59318.839 103493.744 -59405 103786.256 -59405 104219.418 -59318.839 104710.625 -58990.625 104923.843 -58671.522 104984.817 -58801.358 105413.076 -59191.645 105823.11 -59361.476 106053 -59240.155 106053 -58047 106307 -58047 106307 -59240.155 106536.89 -59361.476 106946.924 -59191.645 107375.183 -58801.358 107450 -58642.046 107524.817 -58801.358 107953.076 -59191.645 108363.11 -59361.476 108593 -59240.155 108593 -58047 108847 -58047 108847 -59240.155 109076.89 -59361.476 109486.924 -59191.645 109915.183 -58801.358 109990 -58642.046 110064.817 -58801.358 110493.076 -59191.645 110903.11 -59361.476 111133 -59240.155 111133 -58047 111387 -58047 111387 -59240.155 111616.89 -59361.476 112026.924 -59191.645 112455.183 -58801.358 112701.486 -58276.892 112580.819 -58047 111387 -58047 111133 -58047 108847 -58047 108593 -58047 106307 -58047 106053 -58047 106033 -58047 106033 -57793 106053 -57793 106053 -57773 106307 -57773 106307 -57793 108593 -57793 108593 -57773 108847 -57773 108847 -57793 111133 -57793 111133 -57773 111387 -57773 111387 -57793 112580.819 -57793 112701.486 -57563.108 112455.183 -57038.642 112094.567 -56710 120290.001 -56710 120290 -74290 112241.764 -74290 112330.625 -74230.625 112658.839 -73739.418 112774.092 -73160 112658.839 -72580.582 112330.625 -72089.375 111839.418 -71761.161 111406.256 -71675 111113.744 -71675 110680.582 -71761.161 110189.375 -72089.375 109976.157 -72408.478 109915.183 -72278.642 109486.924 -71888.355 109076.89 -71718.524 108847 -71839.845 108847 -73033 108867 -73033 108867 -73287 108847 -73287 108847 -73307 108593 -73307 108593 -73287 106307 -73287 106307 -73307 106053 -73307 106053 -73287 103767 -73287 103767 -73307 103513 -73307 103513 -73287 102319.181 -73287 102198.514 -73516.892 102444.817 -74041.358 102717.65 -74290 101710 -74290 101710 -72803.108 102198.514 -72803.108 102319.181 -73033 103513 -73033 103513 -71839.845 103767 -71839.845 103767 -73033 106053 -73033 106053 -71839.845 106307 -71839.845 106307 -73033 108593 -73033 108593 -71839.845 108363.11 -71718.524 107953.076 -71888.355 107524.817 -72278.642 107450 -72437.954 107375.183 -72278.642 106946.924 -71888.355 106536.89 -71718.524 106307 -71839.845 106053 -71839.845 105823.11 -71718.524 105413.076 -71888.355 104984.817 -72278.642 104910 -72437.954 104835.183 -72278.642 104406.924 -71888.355 103996.89 -71718.524 103767 -71839.845 103513 -71839.845 103283.11 -71718.524 102873.076 -71888.355 102444.817 -72278.642 102198.514 -72803.108 101710 -72803.108 101710 -65044 110362.56 -65044 110362.56 -67544 110411.843 -67791.765 110552.191 -68001.809 110762.235 -68142.157 111010 -68191.44 112510 -68191.44 112757.765 -68142.157 112967.809 -68001.809 113108.157 -67791.765 113156.391 -67549.275 113410.46 -67863.145 113887.316 -68122.173 113958.815 -68136.318 114173 -68013.656 114173 -66421 114153 -66421 114153 -66167 114173 -66167 114173 -64574.344 114427 -64574.344 114427 -66167 114447 -66167 114447 -66421 114427 -66421 114427 -68013.656 114641.185 -68136.318 114712.684 -68122.173 115189.54 -67863.145 115530.972 -67441.349 115554.258 -67362.684 115841.472 -67792.529 116299.601 -68098.641 116840 -68206.133 117380.4 -68098.641 117838.529 -67792.529 118144.641 -67334.4 118225 -66930.407 118225 -65657.593 118144.641 -65253.6 117838.528 -64795.471 117380.399 -64489.359 116840 -64381.867 116299.6 -64489.359 115841.471 -64795.472 115554.258 -65225.317 115530.972 -65146.651 115189.54 -64724.855 114712.684 -64465.827 114641.185 -64451.682 114427 -64574.344 114173 -64574.344 113958.815 -64451.682 113887.316 -64465.827 113410.46 -64724.855 113156.391 -65038.725 113108.157 -64796.235 112967.809 -64586.191 112757.765 -64445.843 112510 -64396.56 111010 -64396.56 110762.235 -64445.843 110552.191 -64586.191 110411.843 -64796.235 110362.56 -65044 101710 -65044 101710 -56710 102777.964 -56710 102569.375 -56849.375 102569.375 -56849.375"/><path d="M 102569.375 -56849.375 102241.161 -57340.582 102125.908 -57920 102241.161 -58499.418 102569.375 -58990.625 103060.582 -59318.839 103493.744 -59405 103786.256 -59405 104219.418 -59318.839 104710.625 -58990.625 104923.843 -58671.522 104984.817 -58801.358 105413.076 -59191.645 105823.11 -59361.476 106053 -59240.155 106053 -58047 106307 -58047 106307 -59240.155 106536.89 -59361.476 106946.924 -59191.645 107375.183 -58801.358 107450 -58642.046 107524.817 -58801.358 107953.076 -59191.645 108363.11 -59361.476 108593 -59240.155 108593 -58047 108847 -58047 108847 -59240.155 109076.89 -59361.476 109486.924 -59191.645 109915.183 -58801.358 109990 -58642.046 110064.817 -58801.358 110493.076 -59191.645 110903.11 -59361.476 111133 -59240.155 111133 -58047 111387 -58047 111387 -59240.155 111616.89 -59361.476 112026.924 -59191.645 112455.183 -58801.358 112701.486 -58276.892 112580.819 -58047 111387 -58047 111133 -58047 108847 -58047 108593 -58047 106307 -58047 106053 -58047 106033 -58047 106033 -57793 106053 -57793 106053 -57773 106307 -57773 106307 -57793 108593 -57793 108593 -57773 108847 -57773 108847 -57793 111133 -57793 111133 -57773 111387 -57773 111387 -57793 112580.819 -57793 112701.486 -57563.108 112455.183 -57038.642 112094.567 -56710 120290.001 -56710 120290 -74290 112241.764 -74290 112330.625 -74230.625 112658.839 -73739.418 112774.092 -73160 112658.839 -72580.582 112330.625 -72089.375 111839.418 -71761.161 111406.256 -71675 111113.744 -71675 110680.582 -71761.161 110189.375 -72089.375 109976.157 -72408.478 109915.183 -72278.642 109486.924 -71888.355 109076.89 -71718.524 108847 -71839.845 108847 -73033 108867 -73033 108867 -73287 108847 -73287 108847 -73307 108593 -73307 108593 -73287 106307 -73287 106307 -73307 106053 -73307 106053 -73287 103767 -73287 103767 -73307 103513 -73307 103513 -73287 102319.181 -73287 102198.514 -73516.892 102444.817 -74041.358 102717.65 -74290 101710 -74290 101710 -72803.108 102198.514 -72803.108 102319.181 -73033 103513 -73033 103513 -71839.845 103767 -71839.845 103767 -73033 106053 -73033 106053 -71839.845 106307 -71839.845 106307 -73033 108593 -73033 108593 -71839.845 108363.11 -71718.524 107953.076 -71888.355 107524.817 -72278.642 107450 -72437.954 107375.183 -72278.642 106946.924 -71888.355 106536.89 -71718.524 106307 -71839.845 106053 -71839.845 105823.11 -71718.524 105413.076 -71888.355 104984.817 -72278.642 104910 -72437.954 104835.183 -72278.642 104406.924 -71888.355 103996.89 -71718.524 103767 -71839.845 103513 -71839.845 103283.11 -71718.524 102873.076 -71888.355 102444.817 -72278.642 102198.514 -72803.108 101710 -72803.108 101710 -65044 110362.56 -65044 110362.56 -67544 110411.843 -67791.765 110552.191 -68001.809 110762.235 -68142.157 111010 -68191.44 112510 -68191.44 112757.765 -68142.157 112967.809 -68001.809 113108.157 -67791.765 113156.391 -67549.275 113410.46 -67863.145 113887.316 -68122.173 113958.815 -68136.318 114173 -68013.656 114173 -66421 114153 -66421 114153 -66167 114173 -66167 114173 -64574.344 114427 -64574.344 114427 -66167 114447 -66167 114447 -66421 114427 -66421 114427 -68013.656 114641.185 -68136.318 114712.684 -68122.173 115189.54 -67863.145 115530.972 -67441.349 115554.258 -67362.684 115841.472 -67792.529 116299.601 -68098.641 116840 -68206.133 117380.4 -68098.641 117838.529 -67792.529 118144.641 -67334.4 118225 -66930.407 118225 -65657.593 118144.641 -65253.6 117838.528 -64795.471 117380.399 -64489.359 116840 -64381.867 116299.6 -64489.359 115841.471 -64795.472 115554.258 -65225.317 115530.972 -65146.651 115189.54 -64724.855 114712.684 -64465.827 114641.185 -64451.682 114427 -64574.344 114173 -64574.344 113958.815 -64451.682 113887.316 -64465.827 113410.46 -64724.855 113156.391 -65038.725 113108.157 -64796.235 112967.809 -64586.191 112757.765 -64445.843 112510 -64396.56 111010 -64396.56 110762.235 -64445.843 110552.191 -64586.191 110411.843 -64796.235 110362.56 -65044 101710 -65044 101710 -56710 102777.964 -56710 102569.375 -56849.375" fill="none" stroke-width="254"/><use xlink:href="#KmbXX14NwTUCsVjrEcSI_pad-15" x="102500" y="-68000"/><use xlink:href="#KmbXX14NwTUCsVjrEcSI_pad-15" x="103500" y="-68500"/><use xlink:href="#KmbXX14NwTUCsVjrEcSI_pad-15" x="104500" y="-68500"/><use xlink:href="#KmbXX14NwTUCsVjrEcSI_pad-16" x="103640" y="-73160"/><use xlink:href="#KmbXX14NwTUCsVjrEcSI_pad-16" x="106180" y="-73160"/><use xlink:href="#KmbXX14NwTUCsVjrEcSI_pad-16" x="108720" y="-73160"/><use xlink:href="#KmbXX14NwTUCsVjrEcSI_pad-16" x="111260" y="-73160"/><use xlink:href="#KmbXX14NwTUCsVjrEcSI_pad-16" x="103640" y="-57920"/><use xlink:href="#KmbXX14NwTUCsVjrEcSI_pad-16" x="106180" y="-57920"/><use xlink:href="#KmbXX14NwTUCsVjrEcSI_pad-16" x="108720" y="-57920"/><use xlink:href="#KmbXX14NwTUCsVjrEcSI_pad-16" x="111260" y="-57920"/><use xlink:href="#KmbXX14NwTUCsVjrEcSI_pad-16" x="111760" y="-66294"/><use xlink:href="#KmbXX14NwTUCsVjrEcSI_pad-16" x="114300" y="-66294"/><use xlink:href="#KmbXX14NwTUCsVjrEcSI_pad-16" x="116840" y="-66294"/></g><g id="YOAOnYBgMlvlTxupPEMz_bottom_drill1"><use xlink:href="#B0vis3hZ7jFkZZyhkWLD_pad-1" x="102500" y="-68000"/><use xlink:href="#B0vis3hZ7jFkZZyhkWLD_pad-1" x="103500" y="-68500"/><use xlink:href="#B0vis3hZ7jFkZZyhkWLD_pad-1" x="104500" y="-68500"/><use xlink:href="#B0vis3hZ7jFkZZyhkWLD_pad-2" x="103640" y="-57920"/><use xlink:href="#B0vis3hZ7jFkZZyhkWLD_pad-2" x="106180" y="-57920"/><use xlink:href="#B0vis3hZ7jFkZZyhkWLD_pad-2" x="108720" y="-57920"/><use xlink:href="#B0vis3hZ7jFkZZyhkWLD_pad-2" x="111260" y="-57920"/><use xlink:href="#B0vis3hZ7jFkZZyhkWLD_pad-2" x="103640" y="-73160"/><use xlink:href="#B0vis3hZ7jFkZZyhkWLD_pad-2" x="106180" y="-73160"/><use xlink:href="#B0vis3hZ7jFkZZyhkWLD_pad-2" x="108720" y="-73160"/><use xlink:href="#B0vis3hZ7jFkZZyhkWLD_pad-2" x="111260" y="-73160"/><use xlink:href="#B0vis3hZ7jFkZZyhkWLD_pad-2" x="111760" y="-66294"/><use xlink:href="#B0vis3hZ7jFkZZyhkWLD_pad-2" x="114300" y="-66294"/><use xlink:href="#B0vis3hZ7jFkZZyhkWLD_pad-2" x="116840" y="-66294"/></g><clipPath id="YOAOnYBgMlvlTxupPEMz_bottom_outline"><path d="M 101000 -56000 101000 -75000 121000 -75000 121000 -56000 101000 -56000" fill="none" stroke-width="150"/></clipPath><mask id="YOAOnYBgMlvlTxupPEMz_bottom_mech-mask"><g fill="#000" stroke="#000"><rect x="101000" y="-75000" width="20000" height="19000" fill="#fff"/><use xlink:href="#YOAOnYBgMlvlTxupPEMz_bottom_drill1"/></g></mask><mask id="YOAOnYBgMlvlTxupPEMz_bottom_cf-mask"><g fill="#fff" stroke="#fff"><use xlink:href="#YOAOnYBgMlvlTxupPEMz_bottom_soldermask"/></g></mask><mask id="YOAOnYBgMlvlTxupPEMz_bottom_sm-mask"><g fill="#000" stroke="#000"><rect x="101000" y="-75000" width="20000" height="19000" fill="#fff"/><use xlink:href="#YOAOnYBgMlvlTxupPEMz_bottom_soldermask"/></g></mask></defs><g transform="translate(0,-131000) scale(1,-1)"><g mask="url(#YOAOnYBgMlvlTxupPEMz_bottom_mech-mask)" clip-path="url(#YOAOnYBgMlvlTxupPEMz_bottom_outline)" transform="translate(222000,0) scale(-1,1)"><rect x="101000" y="-75000" width="20000" height="19000" fill="currentColor" class="YOAOnYBgMlvlTxupPEMz_fr4"/><use xlink:href="#YOAOnYBgMlvlTxupPEMz_bottom_copper" fill="currentColor" stroke="currentColor" class="YOAOnYBgMlvlTxupPEMz_cu"/><use xlink:href="#YOAOnYBgMlvlTxupPEMz_bottom_copper" fill="currentColor" stroke="currentColor" class="YOAOnYBgMlvlTxupPEMz_cf" mask="url(#YOAOnYBgMlvlTxupPEMz_bottom_cf-mask)"/><g mask="url(#YOAOnYBgMlvlTxupPEMz_bottom_sm-mask)"><rect x="101000" y="-75000" width="20000" height="19000" fill="currentColor" class="YOAOnYBgMlvlTxupPEMz_sm"/></g></g></g></svg>