<svg version="1.1" xmlns="http://www.w3.org/2000/svg" xmlns:xlink="http://www.w3.org/1999/xlink" stroke-linecap="round" stroke-linejoin="round" stroke-width="0" fill-rule="evenodd" clip-rule="evenodd" id="YOAOnYBgMlvlTxupPEMz_top" viewBox="101000 -75000 20000 19000" width="20mm" height="19mm" class="w-100 h-100"><defs><style>.YOAOnYBgMlvlTxupPEMz_fr4 {color: #666666;}
.YOAOnYBgMlvlTxupPEMz_cu {color: #cccccc;}
.YOAOnYBgMlvlTxupPEMz_cf {color: #cc9933;}
.YOAOnYBgMlvlTxupPEMz_sm {color: #004200; opacity: 0.75;}
.YOAOnYBgMlvlTxupPEMz_ss {color: #ffffff;}
.YOAOnYBgMlvlTxupPEMz_sp {color: #999999;}
.YOAOnYBgMlvlTxupPEMz_out {color: #000000;}</style><circle cx="0" cy="0" r="625" id="YbYwE4GTmckqhnqhuu7m_pad-11"/><circle cx="0" cy="0" r="437.5" id="YbYwE4GTmckqhnqhuu7m_pad-12"/><rect x="-1300" y="-800" width="2600" height="1600" id="YbYwE4GTmckqhnqhuu7m_pad-13"/><circle cx="0" cy="0" r="487.5" id="YbYwE4GTmckqhnqhuu7m_pad-14"/><rect x="-850" y="-850" width="1700" height="1700" rx="850" ry="850" id="aLI4zLmjRj9oOH2jVVHt_pad-10"/><circle cx="0" cy="0" r="625" id="aLI4zLmjRj9oOH2jVVHt_pad-12"/><circle cx="0" cy="0" r="437.5" id="aLI4zLmjRj9oOH2jVVHt_pad-13"/><rect x="-1300" y="-800" width="2600" height="1600" id="aLI4zLmjRj9oOH2jVVHt_pad-14"/><circle cx="0" cy="0" r="487.5" id="aLI4zLmjRj9oOH2jVVHt_pad-15"/><rect x="-750" y="-1250" width="1500" height="2500" id="aLI4zLmjRj9oOH2jVVHt_pad-16"/><rect x="-750" y="-1250" width="1500" height="2500" rx="750" ry="750" id="aLI4zLmjRj9oOH2jVVHt_pad-17"/><circle cx="0" cy="0" r="342.9" id="aLI4zLmjRj9oOH2jVVHt_pad-18"/><circle cx="0" cy="0" r="152.4" id="aLI4zLmjRj9oOH2jVVHt_pad-21"/><circle cx="0" cy="0" r="175" id="aLI4zLmjRj9oOH2jVVHt_pad-22"/><rect x="-1050" y="-1050" width="2100" height="2100" rx="1050" ry="1050" id="s9pgvgMWKrxvEZTC2ZdV_pad-10"/><circle cx="0" cy="0" r="825" id="s9pgvgMWKrxvEZTC2ZdV_pad-12"/><circle cx="0" cy="0" r="637.5" id="s9pgvgMWKrxvEZTC2ZdV_pad-13"/><rect x="-1500" y="-1000" width="3000" height="2000" id="s9pgvgMWKrxvEZTC2ZdV_pad-14"/><circle cx="0" cy="0" r="687.5" id="s9pgvgMWKrxvEZTC2ZdV_pad-15"/><rect x="-950" y="-1450" width="1900" height="2900" id="s9pgvgMWKrxvEZTC2ZdV_pad-16"/><rect x="-950" y="-1450" width="1900" height="2900" rx="950" ry="950" id="s9pgvgMWKrxvEZTC2ZdV_pad-17"/><circle cx="0" cy="0" r="152.5" id="B0vis3hZ7jFkZZyhkWLD_pad-1"/><circle cx="0" cy="0" r="500" id="B0vis3hZ7jFkZZyhkWLD_pad-2"/><g id="YOAOnYBgMlvlTxupPEMz_top_solderpaste"><path d="M 104409.504 -60721.204 104433.773 -60724.804 104457.571 -60730.765 104480.671 -60739.03 104502.849 -60749.52 104523.893 -60762.133 104543.598 -60776.747 104561.777 -60793.223 104578.253 -60811.402 104592.867 -60831.107 104605.48 -60852.151 104615.97 -60874.329 104624.235 -60897.429 104630.196 -60921.227 104633.796 -60945.496 104635 -60970 104635 -62220 104633.796 -62244.504 104630.196 -62268.773 104624.235 -62292.571 104615.97 -62315.671 104605.48 -62337.849 104592.867 -62358.893 104578.253 -62378.598 104561.777 -62396.777 104543.598 -62413.253 104523.893 -62427.867 104502.849 -62440.48 104480.671 -62450.97 104457.571 -62459.235 104433.773 -62465.196 104409.504 -62468.796 104385 -62470 103635 -62470 103610.496 -62468.796 103586.227 -62465.196 103562.429 -62459.235 103539.329 -62450.97 103517.151 -62440.48 103496.107 -62427.867 103476.402 -62413.253 103458.223 -62396.777 103441.747 -62378.598 103427.133 -62358.893 103414.52 -62337.849 103404.03 -62315.671 103395.765 -62292.571 103389.804 -62268.773 103386.204 -62244.504 103385 -62220 103385 -60970 103386.204 -60945.496 103389.804 -60921.227 103395.765 -60897.429 103404.03 -60874.329 103414.52 -60852.151 103427.133 -60831.107 103441.747 -60811.402 103458.223 -60793.223 103476.402 -60776.747 103496.107 -60762.133 103517.151 -60749.52 103539.329 -60739.03 103562.429 -60730.765 103586.227 -60724.804 103610.496 -60721.204 103635 -60720 104385 -60720 104409.504 -60721.204 104409.504 -60721.204"/><use xlink:href="#YbYwE4GTmckqhnqhuu7m_pad-11" x="104010" y="-61595"/><path d="M 107209.504 -60721.204 107233.773 -60724.804 107257.571 -60730.765 107280.671 -60739.03 107302.849 -60749.52 107323.893 -60762.133 107343.598 -60776.747 107361.777 -60793.223 107378.253 -60811.402 107392.867 -60831.107 107405.48 -60852.151 107415.97 -60874.329 107424.235 -60897.429 107430.196 -60921.227 107433.796 -60945.496 107435 -60970 107435 -62220 107433.796 -62244.504 107430.196 -62268.773 107424.235 -62292.571 107415.97 -62315.671 107405.48 -62337.849 107392.867 -62358.893 107378.253 -62378.598 107361.777 -62396.777 107343.598 -62413.253 107323.893 -62427.867 107302.849 -62440.48 107280.671 -62450.97 107257.571 -62459.235 107233.773 -62465.196 107209.504 -62468.796 107185 -62470 106435 -62470 106410.496 -62468.796 106386.227 -62465.196 106362.429 -62459.235 106339.329 -62450.97 106317.151 -62440.48 106296.107 -62427.867 106276.402 -62413.253 106258.223 -62396.777 106241.747 -62378.598 106227.133 -62358.893 106214.52 -62337.849 106204.03 -62315.671 106195.765 -62292.571 106189.804 -62268.773 106186.204 -62244.504 106185 -62220 106185 -60970 106186.204 -60945.496 106189.804 -60921.227 106195.765 -60897.429 106204.03 -60874.329 106214.52 -60852.151 106227.133 -60831.107 106241.747 -60811.402 106258.223 -60793.223 106276.402 -60776.747 106296.107 -60762.133 106317.151 -60749.52 106339.329 -60739.03 106362.429 -60730.765 106386.227 -60724.804 106410.496 -60721.204 106435 -60720 107185 -60720 107209.504 -60721.204 107209.504 -60721.204"/><use xlink:href="#YbYwE4GTmckqhnqhuu7m_pad-11" x="106810" y="-61595"/><path d="M 104409.504 -65801.204 104433.773 -65804.804 104457.571 -65810.765 104480.671 -65819.03 104502.849 -65829.52 104523.893 -65842.133 104543.598 -65856.747 104561.777 -65873.223 104578.253 -65891.402 104592.867 -65911.107 104605.48 -65932.151 104615.97 -65954.329 104624.235 -65977.429 104630.196 -66001.227 104633.796 -66025.496 104635 -66050 104635 -67300 104633.796 -67324.504 104630.196 -67348.773 104624.235 -67372.571 104615.97 -67395.671 104605.48 -67417.849 104592.867 -67438.893 104578.253 -67458.598 104561.777 -67476.777 104543.598 -67493.253 104523.893 -67507.867 104502.849 -67520.48 104480.671 -67530.97 104457.571 -67539.235 104433.773 -67545.196 104409.504 -67548.796 104385 -67550 103635 -67550 103610.496 -67548.796 103586.227 -67545.196 103562.429 -67539.235 103539.329 -67530.97 103517.151 -67520.48 103496.107 -67507.867 103476.402 -67493.253 103458.223 -67476.777 103441.747 -67458.598 103427.133 -67438.893 103414.52 -67417.849 103404.03 -67395.671 103395.765 -67372.571 103389.804 -67348.773 103386.204 -67324.504 103385 -67300 103385 -66050 103386.204 -66025.496 103389.804 -66001.227 103395.765 -65977.429 103404.03 -65954.329 103414.52 -65932.151 103427.133 -65911.107 103441.747 -65891.402 103458.223 -65873.223 103476.402 -65856.747 103496.107 -65842.133 103517.151 -65829.52 103539.329 -65819.03 103562.429 -65810.765 103586.227 -65804.804 103610.496 -65801.204 103635 -65800 104385 -65800 104409.504 -65801.204 104409.504 -65801.204"/><use xlink:href="#YbYwE4GTmckqhnqhuu7m_pad-11" x="104010" y="-66675"/><path d="M 107209.504 -65801.204 107233.773 -65804.804 107257.571 -65810.765 107280.671 -65819.03 107302.849 -65829.52 107323.893 -65842.133 107343.598 -65856.747 107361.777 -65873.223 107378.253 -65891.402 107392.867 -65911.107 107405.48 -65932.151 107415.97 -65954.329 107424.235 -65977.429 107430.196 -66001.227 107433.796 -66025.496 107435 -66050 107435 -67300 107433.796 -67324.504 107430.196 -67348.773 107424.235 -67372.571 107415.97 -67395.671 107405.48 -67417.849 107392.867 -67438.893 107378.253 -67458.598 107361.777 -67476.777 107343.598 -67493.253 107323.893 -67507.867 107302.849 -67520.48 107280.671 -67530.97 107257.571 -67539.235 107233.773 -67545.196 107209.504 -67548.796 107185 -67550 106435 -67550 106410.496 -67548.796 106386.227 -67545.196 106362.429 -67539.235 106339.329 -67530.97 106317.151 -67520.48 106296.107 -67507.867 106276.402 -67493.253 106258.223 -67476.777 106241.747 -67458.598 106227.133 -67438.893 106214.52 -67417.849 106204.03 -67395.671 106195.765 -67372.571 106189.804 -67348.773 106186.204 -67324.504 106185 -67300 106185 -66050 106186.204 -66025.496 106189.804 -66001.227 106195.765 -65977.429 106204.03 -65954.329 106214.52 -65932.151 106227.133 -65911.107 106241.747 -65891.402 106258.223 -65873.223 106276.402 -65856.747 106296.107 -65842.133 106317.151 -65829.52 106339.329 -65819.03 106362.429 -65810.765 106386.227 -65804.804 106410.496 -65801.204 106435 -65800 107185 -65800 107209.504 -65801.204 107209.504 -65801.204"/><use xlink:href="#YbYwE4GTmckqhnqhuu7m_pad-11" x="106810" y="-66675"/><path d="M 113676.691 -68995.053 113697.926 -68998.203 113718.75 -69003.419 113738.962 -69010.651 113758.368 -69019.83 113776.781 -69030.866 113794.024 -69043.654 113809.93 -69058.07 113824.346 -69073.976 113837.134 -69091.219 113848.17 -69109.632 113857.349 -69129.038 113864.581 -69149.25 113869.797 -69170.074 113872.947 -69191.309 113874 -69212.75 113874 -69725.25 113872.947 -69746.691 113869.797 -69767.926 113864.581 -69788.75 113857.349 -69808.962 113848.17 -69828.368 113837.134 -69846.781 113824.346 -69864.024 113809.93 -69879.93 113794.024 -69894.346 113776.781 -69907.134 113758.368 -69918.17 113738.962 -69927.349 113718.75 -69934.581 113697.926 -69939.797 113676.691 -69942.947 113655.25 -69944 113217.75 -69944 113196.309 -69942.947 113175.074 -69939.797 113154.25 -69934.581 113134.038 -69927.349 113114.632 -69918.17 113096.219 -69907.134 113078.976 -69894.346 113063.07 -69879.93 113048.654 -69864.024 113035.866 -69846.781 113024.83 -69828.368 113015.651 -69808.962 113008.419 -69788.75 113003.203 -69767.926 113000.053 -69746.691 112999 -69725.25 112999 -69212.75 113000.053 -69191.309 113003.203 -69170.074 113008.419 -69149.25 113015.651 -69129.038 113024.83 -69109.632 113035.866 -69091.219 113048.654 -69073.976 113063.07 -69058.07 113078.976 -69043.654 113096.219 -69030.866 113114.632 -69019.83 113134.038 -69010.651 113154.25 -69003.419 113175.074 -68998.203 113196.309 -68995.053 113217.75 -68994 113655.25 -68994 113676.691 -68995.053 113676.691 -68995.053"/><use xlink:href="#YbYwE4GTmckqhnqhuu7m_pad-12" x="113436.5" y="-69469"/><path d="M 112101.691 -68995.053 112122.926 -68998.203 112143.75 -69003.419 112163.962 -69010.651 112183.368 -69019.83 112201.781 -69030.866 112219.024 -69043.654 112234.93 -69058.07 112249.346 -69073.976 112262.134 -69091.219 112273.17 -69109.632 112282.349 -69129.038 112289.581 -69149.25 112294.797 -69170.074 112297.947 -69191.309 112299 -69212.75 112299 -69725.25 112297.947 -69746.691 112294.797 -69767.926 112289.581 -69788.75 112282.349 -69808.962 112273.17 -69828.368 112262.134 -69846.781 112249.346 -69864.024 112234.93 -69879.93 112219.024 -69894.346 112201.781 -69907.134 112183.368 -69918.17 112163.962 -69927.349 112143.75 -69934.581 112122.926 -69939.797 112101.691 -69942.947 112080.25 -69944 111642.75 -69944 111621.309 -69942.947 111600.074 -69939.797 111579.25 -69934.581 111559.038 -69927.349 111539.632 -69918.17 111521.219 -69907.134 111503.976 -69894.346 111488.07 -69879.93 111473.654 -69864.024 111460.866 -69846.781 111449.83 -69828.368 111440.651 -69808.962 111433.419 -69788.75 111428.203 -69767.926 111425.053 -69746.691 111424 -69725.25 111424 -69212.75 111425.053 -69191.309 111428.203 -69170.074 111433.419 -69149.25 111440.651 -69129.038 111449.83 -69109.632 111460.866 -69091.219 111473.654 -69073.976 111488.07 -69058.07 111503.976 -69043.654 111521.219 -69030.866 111539.632 -69019.83 111559.038 -69010.651 111579.25 -69003.419 111600.074 -68998.203 111621.309 -68995.053 111642.75 -68994 112080.25 -68994 112101.691 -68995.053 112101.691 -68995.053"/><use xlink:href="#YbYwE4GTmckqhnqhuu7m_pad-12" x="111861.5" y="-69469"/><use xlink:href="#YbYwE4GTmckqhnqhuu7m_pad-13" x="115294" y="-72009"/><use xlink:href="#YbYwE4GTmckqhnqhuu7m_pad-13" x="118894" y="-72009"/><path d="M 104407.642 -63436.174 104431.303 -63439.684 104454.507 -63445.496 104477.029 -63453.554 104498.653 -63463.782 104519.17 -63476.079 104538.383 -63490.329 104556.107 -63506.393 104572.171 -63524.117 104586.421 -63543.33 104598.718 -63563.847 104608.946 -63585.471 104617.004 -63607.993 104622.816 -63631.197 104626.326 -63654.858 104627.5 -63678.75 104627.5 -64591.25 104626.326 -64615.142 104622.816 -64638.803 104617.004 -64662.007 104608.946 -64684.529 104598.718 -64706.153 104586.421 -64726.67 104572.171 -64745.883 104556.107 -64763.607 104538.383 -64779.671 104519.17 -64793.921 104498.653 -64806.218 104477.029 -64816.446 104454.507 -64824.504 104431.303 -64830.316 104407.642 -64833.826 104383.75 -64835 103896.25 -64835 103872.358 -64833.826 103848.697 -64830.316 103825.493 -64824.504 103802.971 -64816.446 103781.347 -64806.218 103760.83 -64793.921 103741.617 -64779.671 103723.893 -64763.607 103707.829 -64745.883 103693.579 -64726.67 103681.282 -64706.153 103671.054 -64684.529 103662.996 -64662.007 103657.184 -64638.803 103653.674 -64615.142 103652.5 -64591.25 103652.5 -63678.75 103653.674 -63654.858 103657.184 -63631.197 103662.996 -63607.993 103671.054 -63585.471 103681.282 -63563.847 103693.579 -63543.33 103707.829 -63524.117 103723.893 -63506.393 103741.617 -63490.329 103760.83 -63476.079 103781.347 -63463.782 103802.971 -63453.554 103825.493 -63445.496 103848.697 -63439.684 103872.358 -63436.174 103896.25 -63435 104383.75 -63435 104407.642 -63436.174 104407.642 -63436.174"/><use xlink:href="#YbYwE4GTmckqhnqhuu7m_pad-14" x="104140" y="-64135"/><path d="M 106282.642 -63436.174 106306.303 -63439.684 106329.507 -63445.496 106352.029 -63453.554 106373.653 -63463.782 106394.17 -63476.079 106413.383 -63490.329 106431.107 -63506.393 106447.171 -63524.117 106461.421 -63543.33 106473.718 -63563.847 106483.946 -63585.471 106492.004 -63607.993 106497.816 -63631.197 106501.326 -63654.858 106502.5 -63678.75 106502.5 -64591.25 106501.326 -64615.142 106497.816 -64638.803 106492.004 -64662.007 106483.946 -64684.529 106473.718 -64706.153 106461.421 -64726.67 106447.171 -64745.883 106431.107 -64763.607 106413.383 -64779.671 106394.17 -64793.921 106373.653 -64806.218 106352.029 -64816.446 106329.507 -64824.504 106306.303 -64830.316 106282.642 -64833.826 106258.75 -64835 105771.25 -64835 105747.358 -64833.826 105723.697 -64830.316 105700.493 -64824.504 105677.971 -64816.446 105656.347 -64806.218 105635.83 -64793.921 105616.617 -64779.671 105598.893 -64763.607 105582.829 -64745.883 105568.579 -64726.67 105556.282 -64706.153 105546.054 -64684.529 105537.996 -64662.007 105532.184 -64638.803 105528.674 -64615.142 105527.5 -64591.25 105527.5 -63678.75 105528.674 -63654.858 105532.184 -63631.197 105537.996 -63607.993 105546.054 -63585.471 105556.282 -63563.847 105568.579 -63543.33 105582.829 -63524.117 105598.893 -63506.393 105616.617 -63490.329 105635.83 -63476.079 105656.347 -63463.782 105677.971 -63453.554 105700.493 -63445.496 105723.697 -63439.684 105747.358 -63436.174 105771.25 -63435 106258.75 -63435 106282.642 -63436.174 106282.642 -63436.174"/><use xlink:href="#YbYwE4GTmckqhnqhuu7m_pad-14" x="106015" y="-64135"/></g><g id="YOAOnYBgMlvlTxupPEMz_top_copper"><use xlink:href="#aLI4zLmjRj9oOH2jVVHt_pad-10" x="103640" y="-73160"/><use xlink:href="#aLI4zLmjRj9oOH2jVVHt_pad-10" x="106180" y="-73160"/><use xlink:href="#aLI4zLmjRj9oOH2jVVHt_pad-10" x="108720" y="-73160"/><use xlink:href="#aLI4zLmjRj9oOH2jVVHt_pad-10" x="111260" y="-73160"/><use xlink:href="#aLI4zLmjRj9oOH2jVVHt_pad-10" x="103640" y="-57920"/><use xlink:href="#aLI4zLmjRj9oOH2jVVHt_pad-10" x="106180" y="-57920"/><use xlink:href="#aLI4zLmjRj9oOH2jVVHt_pad-10" x="108720" y="-57920"/><use xlink:href="#aLI4zLmjRj9oOH2jVVHt_pad-10" x="111260" y="-57920"/><path d="M 104409.504 -60721.204 104433.773 -60724.804 104457.571 -60730.765 104480.671 -60739.03 104502.849 -60749.52 104523.893 -60762.133 104543.598 -60776.747 104561.777 -60793.223 104578.253 -60811.402 104592.867 -60831.107 104605.48 -60852.151 104615.97 -60874.329 104624.235 -60897.429 104630.196 -60921.227 104633.796 -60945.496 104635 -60970 104635 -62220 104633.796 -62244.504 104630.196 -62268.773 104624.235 -62292.571 104615.97 -62315.671 104605.48 -62337.849 104592.867 -62358.893 104578.253 -62378.598 104561.777 -62396.777 104543.598 -62413.253 104523.893 -62427.867 104502.849 -62440.48 104480.671 -62450.97 104457.571 -62459.235 104433.773 -62465.196 104409.504 -62468.796 104385 -62470 103635 -62470 103610.496 -62468.796 103586.227 -62465.196 103562.429 -62459.235 103539.329 -62450.97 103517.151 -62440.48 103496.107 -62427.867 103476.402 -62413.253 103458.223 -62396.777 103441.747 -62378.598 103427.133 -62358.893 103414.52 -62337.849 103404.03 -62315.671 103395.765 -62292.571 103389.804 -62268.773 103386.204 -62244.504 103385 -62220 103385 -60970 103386.204 -60945.496 103389.804 -60921.227 103395.765 -60897.429 103404.03 -60874.329 103414.52 -60852.151 103427.133 -60831.107 103441.747 -60811.402 103458.223 -60793.223 103476.402 -60776.747 103496.107 -60762.133 103517.151 -60749.52 103539.329 -60739.03 103562.429 -60730.765 103586.227 -60724.804 103610.496 -60721.204 103635 -60720 104385 -60720 104409.504 -60721.204 104409.504 -60721.204"/><use xlink:href="#aLI4zLmjRj9oOH2jVVHt_pad-12" x="104010" y="-61595"/><path d="M 107209.504 -60721.204 107233.773 -60724.804 107257.571 -60730.765 107280.671 -60739.03 107302.849 -60749.52 107323.893 -60762.133 107343.598 -60776.747 107361.777 -60793.223 107378.253 -60811.402 107392.867 -60831.107 107405.48 -60852.151 107415.97 -60874.329 107424.235 -60897.429 107430.196 -60921.227 107433.796 -60945.496 107435 -60970 107435 -62220 107433.796 -62244.504 107430.196 -62268.773 107424.235 -62292.571 107415.97 -62315.671 107405.48 -62337.849 107392.867 -62358.893 107378.253 -62378.598 107361.777 -62396.777 107343.598 -62413.253 107323.893 -62427.867 107302.849 -62440.48 107280.671 -62450.97 107257.571 -62459.235 107233.773 -62465.196 107209.504 -62468.796 107185 -62470 106435 -62470 106410.496 -62468.796 106386.227 -62465.196 106362.429 -62459.235 106339.329 -62450.97 106317.151 -62440.48 106296.107 -62427.867 106276.402 -62413.253 106258.223 -62396.777 106241.747 -62378.598 106227.133 -62358.893 106214.52 -62337.849 106204.03 -62315.671 106195.765 -62292.571 106189.804 -62268.773 106186.204 -62244.504 106185 -62220 106185 -60970 106186.204 -60945.496 106189.804 -60921.227 106195.765 -60897.429 106204.03 -60874.329 106214.52 -60852.151 106227.133 -60831.107 106241.747 -60811.402 106258.223 -60793.223 106276.402 -60776.747 106296.107 -60762.133 106317.151 -60749.52 106339.329 -60739.03 106362.429 -60730.765 106386.227 -60724.804 106410.496 -60721.204 106435 -60720 107185 -60720 107209.504 -60721.204 107209.504 -60721.204"/><use xlink:href="#aLI4zLmjRj9oOH2jVVHt_pad-12" x="106810" y="-61595"/><path d="M 104409.504 -65801.204 104433.773 -65804.804 104457.571 -65810.765 104480.671 -65819.03 104502.849 -65829.52 104523.893 -65842.133 104543.598 -65856.747 104561.777 -65873.223 104578.253 -65891.402 104592.867 -65911.107 104605.48 -65932.151 104615.97 -65954.329 104624.235 -65977.429 104630.196 -66001.227 104633.796 -66025.496 104635 -66050 104635 -67300 104633.796 -67324.504 104630.196 -67348.773 104624.235 -67372.571 104615.97 -67395.671 104605.48 -67417.849 104592.867 -67438.893 104578.253 -67458.598 104561.777 -67476.777 104543.598 -67493.253 104523.893 -67507.867 104502.849 -67520.48 104480.671 -67530.97 104457.571 -67539.235 104433.773 -67545.196 104409.504 -67548.796 104385 -67550 103635 -67550 103610.496 -67548.796 103586.227 -67545.196 103562.429 -67539.235 103539.329 -67530.97 103517.151 -67520.48 103496.107 -67507.867 103476.402 -67493.253 103458.223 -67476.777 103441.747 -67458.598 103427.133 -67438.893 103414.52 -67417.849 103404.03 -67395.671 103395.765 -67372.571 103389.804 -67348.773 103386.204 -67324.504 103385 -67300 103385 -66050 103386.204 -66025.496 103389.804 -66001.227 103395.765 -65977.429 103404.03 -65954.329 103414.52 -65932.151 103427.133 -65911.107 103441.747 -65891.402 103458.223 -65873.223 103476.402 -65856.747 103496.107 -65842.133 103517.151 -65829.52 103539.329 -65819.03 103562.429 -65810.765 103586.227 -65804.804 103610.496 -65801.204 103635 -65800 104385 -65800 104409.504 -65801.204 104409.504 -65801.204"/><use xlink:href="#aLI4zLmjRj9oOH2jVVHt_pad-12" x="104010" y="-66675"/><path d="M 107209.504 -65801.204 107233.773 -65804.804 107257.571 -65810.765 107280.671 -65819.03 107302.849 -65829.52 107323.893 -65842.133 107343.598 -65856.747 107361.777 -65873.223 107378.253 -65891.402 107392.867 -65911.107 107405.48 -65932.151 107415.97 -65954.329 107424.235 -65977.429 107430.196 -66001.227 107433.796 -66025.496 107435 -66050 107435 -67300 107433.796 -67324.504 107430.196 -67348.773 107424.235 -67372.571 107415.97 -67395.671 107405.48 -67417.849 107392.867 -67438.893 107378.253 -67458.598 107361.777 -67476.777 107343.598 -67493.253 107323.893 -67507.867 107302.849 -67520.48 107280.671 -67530.97 107257.571 -67539.235 107233.773 -67545.196 107209.504 -67548.796 107185 -67550 106435 -67550 106410.496 -67548.796 106386.227 -67545.196 106362.429 -67539.235 106339.329 -67530.97 106317.151 -67520.48 106296.107 -67507.867 106276.402 -67493.253 106258.223 -67476.777 106241.747 -67458.598 106227.133 -67438.893 106214.52 -67417.849 106204.03 -67395.671 106195.765 -67372.571 106189.804 -67348.773 106186.204 -67324.504 106185 -67300 106185 -66050 106186.204 -66025.496 106189.804 -66001.227 106195.765 -65977.429 106204.03 -65954.329 106214.52 -65932.151 106227.133 -65911.107 106241.747 -65891.402 106258.223 -65873.223 106276.402 -65856.747 106296.107 -65842.133 106317.151 -65829.52 106339.329 -65819.03 106362.429 -65810.765 106386.227 -65804.804 106410.496 -65801.204 106435 -65800 107185 -65800 107209.504 -65801.204 107209.504 -65801.204"/><use xlink:href="#aLI4zLmjRj9oOH2jVVHt_pad-12" x="106810" y="-66675"/><path d="M 113676.691 -68995.053 113697.926 -68998.203 113718.75 -69003.419 113738.962 -69010.651 113758.368 -69019.83 113776.781 -69030.866 113794.024 -69043.654 113809.93 -69058.07 113824.346 -69073.976 113837.134 -69091.219 113848.17 -69109.632 113857.349 -69129.038 113864.581 -69149.25 113869.797 -69170.074 113872.947 -69191.309 113874 -69212.75 113874 -69725.25 113872.947 -69746.691 113869.797 -69767.926 113864.581 -69788.75 113857.349 -69808.962 113848.17 -69828.368 113837.134 -69846.781 113824.346 -69864.024 113809.93 -69879.93 113794.024 -69894.346 113776.781 -69907.134 113758.368 -69918.17 113738.962 -69927.349 113718.75 -69934.581 113697.926 -69939.797 113676.691 -69942.947 113655.25 -69944 113217.75 -69944 113196.309 -69942.947 113175.074 -69939.797 113154.25 -69934.581 113134.038 -69927.349 113114.632 -69918.17 113096.219 -69907.134 113078.976 -69894.346 113063.07 -69879.93 113048.654 -69864.024 113035.866 -69846.781 113024.83 -69828.368 113015.651 -69808.962 113008.419 -69788.75 113003.203 -69767.926 113000.053 -69746.691 112999 -69725.25 112999 -69212.75 113000.053 -69191.309 113003.203 -69170.074 113008.419 -69149.25 113015.651 -69129.038 113024.83 -69109.632 113035.866 -69091.219 113048.654 -69073.976 113063.07 -69058.07 113078.976 -69043.654 113096.219 -69030.866 113114.632 -69019.83 113134.038 -69010.651 113154.25 -69003.419 113175.074 -68998.203 113196.309 -68995.053 113217.75 -68994 113655.25 -68994 113676.691 -68995.053 113676.691 -68995.053"/><use xlink:href="#aLI4zLmjRj9oOH2jVVHt_pad-13" x="113436.5" y="-69469"/><path d="M 112101.691 -68995.053 112122.926 -68998.203 112143.75 -69003.419 112163.962 -69010.651 112183.368 -69019.83 112201.781 -69030.866 112219.024 -69043.654 112234.93 -69058.07 112249.346 -69073.976 112262.134 -69091.219 112273.17 -69109.632 112282.349 -69129.038 112289.581 -69149.25 112294.797 -69170.074 112297.947 -69191.309 112299 -69212.75 112299 -69725.25 112297.947 -69746.691 112294.797 -69767.926 112289.581 -69788.75 112282.349 -69808.962 112273.17 -69828.368 112262.134 -69846.781 112249.346 -69864.024 112234.93 -69879.93 112219.024 -69894.346 112201.781 -69907.134 112183.368 -69918.17 112163.962 -69927.349 112143.75 -69934.581 112122.926 -69939.797 112101.691 -69942.947 112080.25 -69944 111642.75 -69944 111621.309 -69942.947 111600.074 -69939.797 111579.25 -69934.581 111559.038 -69927.349 111539.632 -69918.17 111521.219 -69907.134 111503.976 -69894.346 111488.07 -69879.93 111473.654 -69864.024 111460.866 -69846.781 111449.83 -69828.368 111440.651 -69808.962 111433.419 -69788.75 111428.203 -69767.926 111425.053 -69746.691 111424 -69725.25 111424 -69212.75 111425.053 -69191.309 111428.203 -69170.074 111433.419 -69149.25 111440.651 -69129.038 111449.83 -69109.632 111460.866 -69091.219 111473.654 -69073.976 111488.07 -69058.07 111503.976 -69043.654 111521.219 -69030.866 111539.632 -69019.83 111559.038 -69010.651 111579.25 -69003.419 111600.074 -68998.203 111621.309 -68995.053 111642.75 -68994 112080.25 -68994 112101.691 -68995.053 112101.691 -68995.053"/><use xlink:href="#aLI4zLmjRj9oOH2jVVHt_pad-13" x="111861.5" y="-69469"/><use xlink:href="#aLI4zLmjRj9oOH2jVVHt_pad-14" x="115294" y="-72009"/><use xlink:href="#aLI4zLmjRj9oOH2jVVHt_pad-14" x="118894" y="-72009"/><path d="M 104407.642 -63436.174 104431.303 -63439.684 104454.507 -63445.496 104477.029 -63453.554 104498.653 -63463.782 104519.17 -63476.079 104538.383 -63490.329 104556.107 -63506.393 104572.171 -63524.117 104586.421 -63543.33 104598.718 -63563.847 104608.946 -63585.471 104617.004 -63607.993 104622.816 -63631.197 104626.326 -63654.858 104627.5 -63678.75 104627.5 -64591.25 104626.326 -64615.142 104622.816 -64638.803 104617.004 -64662.007 104608.946 -64684.529 104598.718 -64706.153 104586.421 -64726.67 104572.171 -64745.883 104556.107 -64763.607 104538.383 -64779.671 104519.17 -64793.921 104498.653 -64806.218 104477.029 -64816.446 104454.507 -64824.504 104431.303 -64830.316 104407.642 -64833.826 104383.75 -64835 103896.25 -64835 103872.358 -64833.826 103848.697 -64830.316 103825.493 -64824.504 103802.971 -64816.446 103781.347 -64806.218 103760.83 -64793.921 103741.617 -64779.671 103723.893 -64763.607 103707.829 -64745.883 103693.579 -64726.67 103681.282 -64706.153 103671.054 -64684.529 103662.996 -64662.007 103657.184 -64638.803 103653.674 -64615.142 103652.5 -64591.25 103652.5 -63678.75 103653.674 -63654.858 103657.184 -63631.197 103662.996 -63607.993 103671.054 -63585.471 103681.282 -63563.847 103693.579 -63543.33 103707.829 -63524.117 103723.893 -63506.393 103741.617 -63490.329 103760.83 -63476.079 103781.347 -63463.782 103802.971 -63453.554 103825.493 -63445.496 103848.697 -63439.684 103872.358 -63436.174 103896.25 -63435 104383.75 -63435 104407.642 -63436.174 104407.642 -63436.174"/><use xlink:href="#aLI4zLmjRj9oOH2jVVHt_pad-15" x="104140" y="-64135"/><path d="M 106282.642 -63436.174 106306.303 -63439.684 106329.507 -63445.496 106352.029 -63453.554 106373.653 -63463.782 106394.17 -63476.079 106413.383 -63490.329 106431.107 -63506.393 106447.171 -63524.117 106461.421 -63543.33 106473.718 -63563.847 106483.946 -63585.471 106492.004 -63607.993 106497.816 -63631.197 106501.326 -63654.858 106502.5 -63678.75 106502.5 -64591.25 106501.326 -64615.142 106497.816 -64638.803 106492.004 -64662.007 106483.946 -64684.529 106473.718 -64706.153 106461.421 -64726.67 106447.171 -64745.883 106431.107 -64763.607 106413.383 -64779.671 106394.17 -64793.921 106373.653 -64806.218 106352.029 -64816.446 106329.507 -64824.504 106306.303 -64830.316 106282.642 -64833.826 106258.75 -64835 105771.25 -64835 105747.358 -64833.826 105723.697 -64830.316 105700.493 -64824.504 105677.971 -64816.446 105656.347 -64806.218 105635.83 -64793.921 105616.617 -64779.671 105598.893 -64763.607 105582.829 -64745.883 105568.579 -64726.67 105556.282 -64706.153 105546.054 -64684.529 105537.996 -64662.007 105532.184 -64638.803 105528.674 -64615.142 105527.5 -64591.25 105527.5 -63678.75 105528.674 -63654.858 105532.184 -63631.197 105537.996 -63607.993 105546.054 -63585.471 105556.282 -63563.847 105568.579 -63543.33 105582.829 -63524.117 105598.893 -63506.393 105616.617 -63490.329 105635.83 -63476.079 105656.347 -63463.782 105677.971 -63453.554 105700.493 -63445.496 105723.697 -63439.684 105747.358 -63436.174 105771.25 -63435 106258.75 -63435 106282.642 -63436.174 106282.642 -63436.174"/><use xlink:href="#aLI4zLmjRj9oOH2jVVHt_pad-15" x="106015" y="-64135"/><use xlink:href="#aLI4zLmjRj9oOH2jVVHt_pad-16" x="111760" y="-66294"/><use xlink:href="#aLI4zLmjRj9oOH2jVVHt_pad-17" x="114300" y="-66294"/><use xlink:href="#aLI4zLmjRj9oOH2jVVHt_pad-17" x="116840" y="-66294"/><use xlink:href="#aLI4zLmjRj9oOH2jVVHt_pad-18" x="102500" y="-68000"/><use xlink:href="#aLI4zLmjRj9oOH2jVVHt_pad-18" x="103500" y="-68500"/><use xlink:href="#aLI4zLmjRj9oOH2jVVHt_pad-18" x="104500" y="-68500"/><path d="M 104010 -58290 103640 -57920 M 104010 -61595 104010 -58290 M 104140 -61725 104010 -61595 M 104140 -64135 104140 -61725 M 106426 -66291 106810 -66675 M 106426 -64546 106426 -66291 M 106015 -64135 106426 -64546 M 111379 -66675 111760 -66294 M 106810 -66675 111379 -66675 M 116840 -68179 115550 -69469 M 116840 -66294 116840 -68179 M 115550 -69469 113436.5 -69469 M 115294 -69725 115294 -72009 M 115550 -69469 115294 -69725 M 114143 -73160 115294 -72009 M 111260 -73160 114143 -73160" fill="none" stroke-width="635"/><path d="M 102569.375 -56849.375 102241.161 -57340.582 102125.908 -57920 102241.161 -58499.418 102569.375 -58990.625 103057.501 -59316.78 103057.5 -60297.27 103000.414 -60335.414 102805.874 -60626.565 102737.56 -60970 102737.56 -62220 102805.874 -62563.435 103000.414 -62854.586 103187.5 -62979.593 103187.5 -63166.192 103072.898 -63337.706 103005.06 -63678.75 103005.06 -64591.25 103072.898 -64932.294 103234.957 -65174.831 103025.302 -65261.673 102846.673 -65440.301 102750 -65673.69 102750 -66389.25 102908.75 -66548 103883 -66548 103883 -66528 104137 -66528 104137 -66548 105111.25 -66548 105270 -66389.25 105270 -65673.69 105173.327 -65440.301 104994.698 -65261.673 104969.369 -65251.181 105013.916 -65221.416 105077.5 -65126.256 105141.084 -65221.416 105430.206 -65414.602 105473.501 -65423.214 105473.501 -66197.185 105454.84 -66291 105528.765 -66662.646 105528.766 -66662.647 105537.56 -66675.808 105537.56 -67300 105605.874 -67643.435 105800.414 -67934.586 106091.565 -68129.126 106435 -68197.44 107185 -68197.44 107528.435 -68129.126 107819.586 -67934.586 108014.126 -67643.435 108017.296 -67627.5 110379.169 -67627.5 110411.843 -67791.765 110552.191 -68001.809 110762.235 -68142.157 111010 -68191.44 112510 -68191.44 112757.765 -68142.157 112967.809 -68001.809 113108.157 -67791.765 113156.391 -67549.275 113410.46 -67863.145 113887.316 -68122.173 113958.815 -68136.318 114173 -68013.656 114173 -66421 114153 -66421 114153 -66167 114173 -66167 114173 -64574.344 113958.815 -64451.682 113887.316 -64465.827 113410.46 -64724.855 113156.391 -65038.725 113108.157 -64796.235 112967.809 -64586.191 112757.765 -64445.843 112510 -64396.56 111010 -64396.56 110762.235 -64445.843 110552.191 -64586.191 110411.843 -64796.235 110362.56 -65044 110362.56 -65722.5 108017.296 -65722.5 108014.126 -65706.565 107819.586 -65415.414 107528.435 -65220.874 107378.5 -65191.05 107378.5 -64639.81 107397.16 -64546 107323.235 -64174.353 107296.94 -64135 107149.94 -63914.999 107149.94 -63678.75 107082.102 -63337.706 106926.612 -63105 106937.002 -63105 106937.002 -62946.252 107095.75 -63105 107561.309 -63105 107794.698 -63008.327 107973.327 -62829.699 108070 -62596.31 108070 -61880.75 107911.25 -61722 106937 -61722 106937 -61742 106683 -61742 106683 -61722 105708.75 -61722 105550 -61880.75 105550 -62596.31 105640.03 -62813.661 105430.206 -62855.398 105141.084 -63048.584 105092.5 -63121.295 105092.5 -62745.462 105214.126 -62563.435 105282.44 -62220 105282.44 -60970 105214.126 -60626.565 105192.16 -60593.69 105550 -60593.69 105550 -61309.25 105708.75 -61468 106683 -61468 106683 -60243.75 106937 -60243.75 106937 -61468 107911.25 -61468 108070 -61309.25 108070 -60593.69 107973.327 -60360.301 107794.698 -60181.673 107561.309 -60085 107095.75 -60085 106937 -60243.75 106683 -60243.75 106524.25 -60085 106058.691 -60085 105825.302 -60181.673 105646.673 -60360.301 105550 -60593.69 105192.16 -60593.69 105019.586 -60335.414 104962.5 -60297.271 104962.5 -58753.837 104984.817 -58801.358 105413.076 -59191.645 105823.11 -59361.476 106053 -59240.155 106053 -58047 106307 -58047 106307 -59240.155 106536.89 -59361.476 106946.924 -59191.645 107375.183 -58801.358 107450 -58642.046 107524.817 -58801.358 107953.076 -59191.645 108363.11 -59361.476 108593 -59240.155 108593 -58047 108847 -58047 108847 -59240.155 109076.89 -59361.476 109486.924 -59191.645 109915.183 -58801.358 109990 -58642.046 110064.817 -58801.358 110493.076 -59191.645 110903.11 -59361.476 111133 -59240.155 111133 -58047 111387 -58047 111387 -59240.155 111616.89 -59361.476 112026.924 -59191.645 112455.183 -58801.358 112701.486 -58276.892 112580.819 -58047 111387 -58047 111133 -58047 108847 -58047 108593 -58047 106307 -58047 106053 -58047 106033 -58047 106033 -57793 106053 -57793 106053 -57773 106307 -57773 106307 -57793 108593 -57793 108593 -57773 108847 -57773 108847 -57793 111133 -57793 111133 -57773 111387 -57773 111387 -57793 112580.819 -57793 112701.486 -57563.108 112455.183 -57038.642 112094.567 -56710 120290.001 -56710 120290 -70574 119179.75 -70574 119021 -70732.75 119021 -71882 119041 -71882 119041 -72136 119021 -72136 119021 -73285.25 119179.75 -73444 120290 -73444 120290 -74290 112241.764 -74290 112330.625 -74230.625 112409.554 -74112.5 114049.19 -74112.5 114143 -74131.16 114236.81 -74112.5 114514.647 -74057.235 114829.714 -73846.714 114882.856 -73767.181 115193.598 -73456.44 116594 -73456.44 116841.765 -73407.157 117051.809 -73266.809 117092.654 -73205.68 117234.302 -73347.327 117467.691 -73444 118608.25 -73444 118767 -73285.25 118767 -72136 118747 -72136 118747 -71882 118767 -71882 118767 -70732.75 118608.25 -70574 117467.691 -70574 117234.302 -70670.673 117092.654 -70812.32 117051.809 -70751.191 116841.765 -70610.843 116594 -70561.56 116246.5 -70561.56 116246.5 -70141.068 116289.857 -70076.181 117447.183 -68918.855 117526.714 -68865.714 117737.235 -68550.647 117792.5 -68272.81 117792.5 -68272.806 117811.159 -68179.001 117792.5 -68085.196 117792.5 -67823.285 117838.529 -67792.529 118144.641 -67334.4 118225 -66930.407 118225 -65657.593 118144.641 -65253.6 117838.528 -64795.471 117380.399 -64489.359 116840 -64381.867 116299.6 -64489.359 115841.471 -64795.472 115554.258 -65225.317 115530.972 -65146.651 115189.54 -64724.855 114712.684 -64465.827 114641.185 -64451.682 114427 -64574.344 114427 -66167 114447 -66167 114447 -66421 114427 -66421 114427 -68013.656 114641.185 -68136.318 114712.684 -68122.173 115189.54 -67863.145 115530.972 -67441.349 115554.258 -67362.684 115841.472 -67792.529 115864.228 -67807.734 115155.463 -68516.5 114142.382 -68516.5 113986.727 -68412.495 113655.25 -68346.56 113217.75 -68346.56 112886.273 -68412.495 112723.969 -68520.943 112658.698 -68455.673 112425.309 -68359 112147.25 -68359 111988.5 -68517.75 111988.5 -69342 112008.5 -69342 112008.5 -69596 111988.5 -69596 111988.5 -70420.25 112147.25 -70579 112425.309 -70579 112658.698 -70482.327 112723.969 -70417.057 112886.273 -70525.505 113217.75 -70591.44 113655.25 -70591.44 113986.727 -70525.505 114142.382 -70421.5 114341.5 -70421.5 114341.5 -70561.56 113994 -70561.56 113746.235 -70610.843 113536.191 -70751.191 113395.843 -70961.235 113346.56 -71209 113346.56 -72207.5 112409.554 -72207.5 112330.625 -72089.375 111839.418 -71761.161 111406.256 -71675 111113.744 -71675 110680.582 -71761.161 110189.375 -72089.375 109976.157 -72408.478 109915.183 -72278.642 109486.924 -71888.355 109076.89 -71718.524 108847 -71839.845 108847 -73033 108867 -73033 108867 -73287 108847 -73287 108847 -73307 108593 -73307 108593 -73287 106307 -73287 106307 -73307 106053 -73307 106053 -73287 103767 -73287 103767 -73307 103513 -73307 103513 -73287 102319.181 -73287 102198.514 -73516.892 102444.817 -74041.358 102717.65 -74290 101710 -74290 101710 -72803.108 102198.514 -72803.108 102319.181 -73033 103513 -73033 103513 -71839.845 103767 -71839.845 103767 -73033 106053 -73033 106053 -71839.845 106307 -71839.845 106307 -73033 108593 -73033 108593 -71839.845 108363.11 -71718.524 107953.076 -71888.355 107524.817 -72278.642 107450 -72437.954 107375.183 -72278.642 106946.924 -71888.355 106536.89 -71718.524 106307 -71839.845 106053 -71839.845 105823.11 -71718.524 105413.076 -71888.355 104984.817 -72278.642 104910 -72437.954 104835.183 -72278.642 104406.924 -71888.355 103996.89 -71718.524 103767 -71839.845 103513 -71839.845 103283.11 -71718.524 102873.076 -71888.355 102444.817 -72278.642 102198.514 -72803.108 101710 -72803.108 101710 -69754.75 110789 -69754.75 110789 -70070.31 110885.673 -70303.699 111064.302 -70482.327 111297.691 -70579 111575.75 -70579 111734.5 -70420.25 111734.5 -69596 110947.75 -69596 110789 -69754.75 101710 -69754.75 101710 -68867.69 110789 -68867.69 110789 -69183.25 110947.75 -69342 111734.5 -69342 111734.5 -68517.75 111575.75 -68359 111297.691 -68359 111064.302 -68455.673 110885.673 -68634.301 110789 -68867.69 101710 -68867.69 101710 -66960.75 102750 -66960.75 102750 -67676.31 102846.673 -67909.699 103025.302 -68088.327 103258.691 -68185 103724.25 -68185 103883 -68026.25 103883 -66802 104137 -66802 104137 -68026.25 104295.75 -68185 104761.309 -68185 104994.698 -68088.327 105173.327 -67909.699 105270 -67676.31 105270 -66960.75 105111.25 -66802 104137 -66802 103883 -66802 102908.75 -66802 102750 -66960.75 101710 -66960.75 101710 -56710 102777.964 -56710 102569.375 -56849.375 102569.375 -56849.375"/><path d="M 102569.375 -56849.375 102241.161 -57340.582 102125.908 -57920 102241.161 -58499.418 102569.375 -58990.625 103057.501 -59316.78 103057.5 -60297.27 103000.414 -60335.414 102805.874 -60626.565 102737.56 -60970 102737.56 -62220 102805.874 -62563.435 103000.414 -62854.586 103187.5 -62979.593 103187.5 -63166.192 103072.898 -63337.706 103005.06 -63678.75 103005.06 -64591.25 103072.898 -64932.294 103234.957 -65174.831 103025.302 -65261.673 102846.673 -65440.301 102750 -65673.69 102750 -66389.25 102908.75 -66548 103883 -66548 103883 -66528 104137 -66528 104137 -66548 105111.25 -66548 105270 -66389.25 105270 -65673.69 105173.327 -65440.301 104994.698 -65261.673 104969.369 -65251.181 105013.916 -65221.416 105077.5 -65126.256 105141.084 -65221.416 105430.206 -65414.602 105473.501 -65423.214 105473.501 -66197.185 105454.84 -66291 105528.765 -66662.646 105528.766 -66662.647 105537.56 -66675.808 105537.56 -67300 105605.874 -67643.435 105800.414 -67934.586 106091.565 -68129.126 106435 -68197.44 107185 -68197.44 107528.435 -68129.126 107819.586 -67934.586 108014.126 -67643.435 108017.296 -67627.5 110379.169 -67627.5 110411.843 -67791.765 110552.191 -68001.809 110762.235 -68142.157 111010 -68191.44 112510 -68191.44 112757.765 -68142.157 112967.809 -68001.809 113108.157 -67791.765 113156.391 -67549.275 113410.46 -67863.145 113887.316 -68122.173 113958.815 -68136.318 114173 -68013.656 114173 -66421 114153 -66421 114153 -66167 114173 -66167 114173 -64574.344 113958.815 -64451.682 113887.316 -64465.827 113410.46 -64724.855 113156.391 -65038.725 113108.157 -64796.235 112967.809 -64586.191 112757.765 -64445.843 112510 -64396.56 111010 -64396.56 110762.235 -64445.843 110552.191 -64586.191 110411.843 -64796.235 110362.56 -65044 110362.56 -65722.5 108017.296 -65722.5 108014.126 -65706.565 107819.586 -65415.414 107528.435 -65220.874 107378.5 -65191.05 107378.5 -64639.81 107397.16 -64546 107323.235 -64174.353 107296.94 -64135 107149.94 -63914.999 107149.94 -63678.75 107082.102 -63337.706 106926.612 -63105 106937.002 -63105 106937.002 -62946.252 107095.75 -63105 107561.309 -63105 107794.698 -63008.327 107973.327 -62829.699 108070 -62596.31 108070 -61880.75 107911.25 -61722 106937 -61722 106937 -61742 106683 -61742 106683 -61722 105708.75 -61722 105550 -61880.75 105550 -62596.31 105640.03 -62813.661 105430.206 -62855.398 105141.084 -63048.584 105092.5 -63121.295 105092.5 -62745.462 105214.126 -62563.435 105282.44 -62220 105282.44 -60970 105214.126 -60626.565 105192.16 -60593.69 105550 -60593.69 105550 -61309.25 105708.75 -61468 106683 -61468 106683 -60243.75 106937 -60243.75 106937 -61468 107911.25 -61468 108070 -61309.25 108070 -60593.69 107973.327 -60360.301 107794.698 -60181.673 107561.309 -60085 107095.75 -60085 106937 -60243.75 106683 -60243.75 106524.25 -60085 106058.691 -60085 105825.302 -60181.673 105646.673 -60360.301 105550 -60593.69 105192.16 -60593.69 105019.586 -60335.414 104962.5 -60297.271 104962.5 -58753.837 104984.817 -58801.358 105413.076 -59191.645 105823.11 -59361.476 106053 -59240.155 106053 -58047 106307 -58047 106307 -59240.155 106536.89 -59361.476 106946.924 -59191.645 107375.183 -58801.358 107450 -58642.046 107524.817 -58801.358 107953.076 -59191.645 108363.11 -59361.476 108593 -59240.155 108593 -58047 108847 -58047 108847 -59240.155 109076.89 -59361.476 109486.924 -59191.645 109915.183 -58801.358 109990 -58642.046 110064.817 -58801.358 110493.076 -59191.645 110903.11 -59361.476 111133 -59240.155 111133 -58047 111387 -58047 111387 -59240.155 111616.89 -59361.476 112026.924 -59191.645 112455.183 -58801.358 112701.486 -58276.892 112580.819 -58047 111387 -58047 111133 -58047 108847 -58047 108593 -58047 106307 -58047 106053 -58047 106033 -58047 106033 -57793 106053 -57793 106053 -57773 106307 -57773 106307 -57793 108593 -57793 108593 -57773 108847 -57773 108847 -57793 111133 -57793 111133 -57773 111387 -57773 111387 -57793 112580.819 -57793 112701.486 -57563.108 112455.183 -57038.642 112094.567 -56710 120290.001 -56710 120290 -70574 119179.75 -70574 119021 -70732.75 119021 -71882 119041 -71882 119041 -72136 119021 -72136 119021 -73285.25 119179.75 -73444 120290 -73444 120290 -74290 112241.764 -74290 112330.625 -74230.625 112409.554 -74112.5 114049.19 -74112.5 114143 -74131.16 114236.81 -74112.5 114514.647 -74057.235 114829.714 -73846.714 114882.856 -73767.181 115193.598 -73456.44 116594 -73456.44 116841.765 -73407.157 117051.809 -73266.809 117092.654 -73205.68 117234.302 -73347.327 117467.691 -73444 118608.25 -73444 118767 -73285.25 118767 -72136 118747 -72136 118747 -71882 118767 -71882 118767 -70732.75 118608.25 -70574 117467.691 -70574 117234.302 -70670.673 117092.654 -70812.32 117051.809 -70751.191 116841.765 -70610.843 116594 -70561.56 116246.5 -70561.56 116246.5 -70141.068 116289.857 -70076.181 117447.183 -68918.855 117526.714 -68865.714 117737.235 -68550.647 117792.5 -68272.81 117792.5 -68272.806 117811.159 -68179.001 117792.5 -68085.196 117792.5 -67823.285 117838.529 -67792.529 118144.641 -67334.4 118225 -66930.407 118225 -65657.593 118144.641 -65253.6 117838.528 -64795.471 117380.399 -64489.359 116840 -64381.867 116299.6 -64489.359 115841.471 -64795.472 115554.258 -65225.317 115530.972 -65146.651 115189.54 -64724.855 114712.684 -64465.827 114641.185 -64451.682 114427 -64574.344 114427 -66167 114447 -66167 114447 -66421 114427 -66421 114427 -68013.656 114641.185 -68136.318 114712.684 -68122.173 115189.54 -67863.145 115530.972 -67441.349 115554.258 -67362.684 115841.472 -67792.529 115864.228 -67807.734 115155.463 -68516.5 114142.382 -68516.5 113986.727 -68412.495 113655.25 -68346.56 113217.75 -68346.56 112886.273 -68412.495 112723.969 -68520.943 112658.698 -68455.673 112425.309 -68359 112147.25 -68359 111988.5 -68517.75 111988.5 -69342 112008.5 -69342 112008.5 -69596 111988.5 -69596 111988.5 -70420.25 112147.25 -70579 112425.309 -70579 112658.698 -70482.327 112723.969 -70417.057 112886.273 -70525.505 113217.75 -70591.44 113655.25 -70591.44 113986.727 -70525.505 114142.382 -70421.5 114341.5 -70421.5 114341.5 -70561.56 113994 -70561.56 113746.235 -70610.843 113536.191 -70751.191 113395.843 -70961.235 113346.56 -71209 113346.56 -72207.5 112409.554 -72207.5 112330.625 -72089.375 111839.418 -71761.161 111406.256 -71675 111113.744 -71675 110680.582 -71761.161 110189.375 -72089.375 109976.157 -72408.478 109915.183 -72278.642 109486.924 -71888.355 109076.89 -71718.524 108847 -71839.845 108847 -73033 108867 -73033 108867 -73287 108847 -73287 108847 -73307 108593 -73307 108593 -73287 106307 -73287 106307 -73307 106053 -73307 106053 -73287 103767 -73287 103767 -73307 103513 -73307 103513 -73287 102319.181 -73287 102198.514 -73516.892 102444.817 -74041.358 102717.65 -74290 101710 -74290 101710 -72803.108 102198.514 -72803.108 102319.181 -73033 103513 -73033 103513 -71839.845 103767 -71839.845 103767 -73033 106053 -73033 106053 -71839.845 106307 -71839.845 106307 -73033 108593 -73033 108593 -71839.845 108363.11 -71718.524 107953.076 -71888.355 107524.817 -72278.642 107450 -72437.954 107375.183 -72278.642 106946.924 -71888.355 106536.89 -71718.524 106307 -71839.845 106053 -71839.845 105823.11 -71718.524 105413.076 -71888.355 104984.817 -72278.642 104910 -72437.954 104835.183 -72278.642 104406.924 -71888.355 103996.89 -71718.524 103767 -71839.845 103513 -71839.845 103283.11 -71718.524 102873.076 -71888.355 102444.817 -72278.642 102198.514 -72803.108 101710 -72803.108 101710 -69754.75 110789 -69754.75 110789 -70070.31 110885.673 -70303.699 111064.302 -70482.327 111297.691 -70579 111575.75 -70579 111734.5 -70420.25 111734.5 -69596 110947.75 -69596 110789 -69754.75 101710 -69754.75 101710 -68867.69 110789 -68867.69 110789 -69183.25 110947.75 -69342 111734.5 -69342 111734.5 -68517.75 111575.75 -68359 111297.691 -68359 111064.302 -68455.673 110885.673 -68634.301 110789 -68867.69 101710 -68867.69 101710 -66960.75 102750 -66960.75 102750 -67676.31 102846.673 -67909.699 103025.302 -68088.327 103258.691 -68185 103724.25 -68185 103883 -68026.25 103883 -66802 104137 -66802 104137 -68026.25 104295.75 -68185 104761.309 -68185 104994.698 -68088.327 105173.327 -67909.699 105270 -67676.31 105270 -66960.75 105111.25 -66802 104137 -66802 103883 -66802 102908.75 -66802 102750 -66960.75 101710 -66960.75 101710 -56710 102777.964 -56710 102569.375 -56849.375" fill="none" stroke-width="254"/><use xlink:href="#aLI4zLmjRj9oOH2jVVHt_pad-21" x="102500" y="-68000"/><use xlink:href="#aLI4zLmjRj9oOH2jVVHt_pad-21" x="103500" y="-68500"/><use xlink:href="#aLI4zLmjRj9oOH2jVVHt_pad-21" x="104500" y="-68500"/><use xlink:href="#aLI4zLmjRj9oOH2jVVHt_pad-22" x="103640" y="-73160"/><use xlink:href="#aLI4zLmjRj9oOH2jVVHt_pad-22" x="106180" y="-73160"/><use xlink:href="#aLI4zLmjRj9oOH2jVVHt_pad-22" x="108720" y="-73160"/><use xlink:href="#aLI4zLmjRj9oOH2jVVHt_pad-22" x="111260" y="-73160"/><use xlink:href="#aLI4zLmjRj9oOH2jVVHt_pad-22" x="103640" y="-57920"/><use xlink:href="#aLI4zLmjRj9oOH2jVVHt_pad-22" x="106180" y="-57920"/><use xlink:href="#aLI4zLmjRj9oOH2jVVHt_pad-22" x="108720" y="-57920"/><use xlink:href="#aLI4zLmjRj9oOH2jVVHt_pad-22" x="111260" y="-57920"/><use xlink:href="#aLI4zLmjRj9oOH2jVVHt_pad-22" x="111760" y="-66294"/><use xlink:href="#aLI4zLmjRj9oOH2jVVHt_pad-22" x="114300" y="-66294"/><use xlink:href="#aLI4zLmjRj9oOH2jVVHt_pad-22" x="116840" y="-66294"/></g><g id="YOAOnYBgMlvlTxupPEMz_top_silkscreen"><path d="M 109831.428 -71326.428 110440.952 -71326.428 M 110136.19 -71707.38 110136.19 -70945.476 M 111202.857 -70707.38 110821.904 -70707.38 110783.809 -71183.571 110821.904 -71135.952 110898.095 -71088.333 111088.571 -71088.333 111164.761 -71135.952 111202.857 -71183.571 111240.952 -71278.809 111240.952 -71516.904 111202.857 -71612.142 111164.761 -71659.761 111088.571 -71707.38 110898.095 -71707.38 110821.904 -71659.761 110783.809 -71612.142 M 111469.523 -70707.38 111736.19 -71707.38 112002.857 -70707.38 M 112269.523 -71707.38 112269.523 -70707.38 112460 -70707.38 112574.285 -70755 112650.476 -70850.238 112688.571 -70945.476 112726.666 -71135.952 112726.666 -71278.809 112688.571 -71469.285 112650.476 -71564.523 112574.285 -71659.761 112460 -71707.38 112269.523 -71707.38" fill="none" stroke-width="150"/><path d="M 112141 -59444 112141 -58809 M 108466 -59444 112149 -59444" fill="none" stroke-width="200"/><path d="M 114193.571 -57539.38 113876.904 -57063.19 M 113650.714 -57539.38 113650.714 -56539.38 114012.619 -56539.38 114103.095 -56587 114148.333 -56634.619 114193.571 -56729.857 114193.571 -56872.714 114148.333 -56967.952 114103.095 -57015.571 114012.619 -57063.19 113650.714 -57063.19 M 114962.619 -57491.761 114872.142 -57539.38 114691.19 -57539.38 114600.714 -57491.761 114555.476 -57396.523 114555.476 -57015.571 114600.714 -56920.333 114691.19 -56872.714 114872.142 -56872.714 114962.619 -56920.333 115007.857 -57015.571 115007.857 -57110.809 114555.476 -57206.047 M 115822.142 -56872.714 115822.142 -57682.238 115776.904 -57777.476 115731.666 -57825.095 115641.19 -57872.714 115505.476 -57872.714 115415 -57825.095 M 115822.142 -57491.761 115731.666 -57539.38 115550.714 -57539.38 115460.238 -57491.761 115415 -57444.142 115369.761 -57348.904 115369.761 -57063.19 115415 -56967.952 115460.238 -56920.333 115550.714 -56872.714 115731.666 -56872.714 115822.142 -56920.333 M 116681.666 -56872.714 116681.666 -57539.38 M 116274.523 -56872.714 116274.523 -57396.523 116319.761 -57491.761 116410.238 -57539.38 116545.952 -57539.38 116636.428 -57491.761 116681.666 -57444.142 M 117269.761 -57539.38 117179.285 -57491.761 117134.047 -57396.523 117134.047 -56539.38 M 118038.809 -57539.38 118038.809 -57015.571 117993.571 -56920.333 117903.095 -56872.714 117722.142 -56872.714 117631.666 -56920.333 M 118038.809 -57491.761 117948.333 -57539.38 117722.142 -57539.38 117631.666 -57491.761 117586.428 -57396.523 117586.428 -57301.285 117631.666 -57206.047 117722.142 -57158.428 117948.333 -57158.428 118038.809 -57110.809 M 118355.476 -56872.714 118717.38 -56872.714 M 118491.19 -56539.38 118491.19 -57396.523 118536.428 -57491.761 118626.904 -57539.38 118717.38 -57539.38 M 119169.761 -57539.38 119079.285 -57491.761 119034.047 -57444.142 118988.809 -57348.904 118988.809 -57063.19 119034.047 -56967.952 119079.285 -56920.333 119169.761 -56872.714 119305.476 -56872.714 119395.952 -56920.333 119441.19 -56967.952 119486.428 -57063.19 119486.428 -57348.904 119441.19 -57444.142 119395.952 -57491.761 119305.476 -57539.38 119169.761 -57539.38 M 119893.571 -57539.38 119893.571 -56872.714 M 119893.571 -57063.19 119938.809 -56967.952 119984.047 -56920.333 120074.523 -56872.714 120165 -56872.714 M 115188.809 -59189.38 115188.809 -58189.38 115415 -58189.38 115550.714 -58237 115641.19 -58332.238 115686.428 -58427.476 115731.666 -58617.952 115731.666 -58760.809 115686.428 -58951.285 115641.19 -59046.523 115550.714 -59141.761 115415 -59189.38 115188.809 -59189.38 M 116545.952 -59189.38 116545.952 -58665.571 116500.714 -58570.333 116410.238 -58522.714 116229.285 -58522.714 116138.809 -58570.333 M 116545.952 -59141.761 116455.476 -59189.38 116229.285 -59189.38 116138.809 -59141.761 116093.571 -59046.523 116093.571 -58951.285 116138.809 -58856.047 116229.285 -58808.428 116455.476 -58808.428 116545.952 -58760.809 M 116998.333 -59189.38 116998.333 -58522.714 M 116998.333 -58189.38 116953.095 -58237 116998.333 -58284.619 117043.571 -58237 116998.333 -58189.38 116998.333 -58284.619 M 117405.476 -59141.761 117495.952 -59189.38 117676.904 -59189.38 117767.38 -59141.761 117812.619 -59046.523 117812.619 -58998.904 117767.38 -58903.666 117676.904 -58856.047 117541.19 -58856.047 117450.714 -58808.428 117405.476 -58713.19 117405.476 -58665.571 117450.714 -58570.333 117541.19 -58522.714 117676.904 -58522.714 117767.38 -58570.333 M 118129.285 -58522.714 118355.476 -59189.38 M 118581.666 -58522.714 118355.476 -59189.38 118265 -59427.476 118219.761 -59475.095 118129.285 -59522.714" fill="none" stroke-width="150"/><path d="M 109355 -71255 109355 -71890 M 108085 -71255 109355 -71255 M 103005 -71255 104275 -71255 M 103005 -71890 103005 -71255" fill="none" stroke-width="200"/><path d="M 105418.095 -70755 105322.857 -70707.38 105180 -70707.38 105037.142 -70755 104941.904 -70850.238 104894.285 -70945.476 104846.666 -71135.952 104846.666 -71278.809 104894.285 -71469.285 104941.904 -71564.523 105037.142 -71659.761 105180 -71707.38 105275.238 -71707.38 105418.095 -71659.761 105465.714 -71612.142 105465.714 -71278.809 105275.238 -71278.809 M 105894.285 -71707.38 105894.285 -70707.38 106465.714 -71707.38 106465.714 -70707.38 M 106941.904 -71707.38 106941.904 -70707.38 107180 -70707.38 107322.857 -70755 107418.095 -70850.238 107465.714 -70945.476 107513.333 -71135.952 107513.333 -71278.809 107465.714 -71469.285 107418.095 -71564.523 107322.857 -71659.761 107180 -71707.38 106941.904 -71707.38 M 105791.095 -59317 105695.857 -59269.38 105553 -59269.38 105410.142 -59317 105314.904 -59412.238 105267.285 -59507.476 105219.666 -59697.952 105219.666 -59840.809 105267.285 -60031.285 105314.904 -60126.523 105410.142 -60221.761 105553 -60269.38 105648.238 -60269.38 105791.095 -60221.761 105838.714 -60174.142 105838.714 -59840.809 105648.238 -59840.809 M 106267.285 -60269.38 106267.285 -59269.38 106838.714 -60269.38 106838.714 -59269.38 M 107314.904 -60269.38 107314.904 -59269.38 107553 -59269.38 107695.857 -59317 107791.095 -59412.238 107838.714 -59507.476 107886.333 -59697.952 107886.333 -59840.809 107838.714 -60031.285 107791.095 -60126.523 107695.857 -60221.761 107553 -60269.38 107314.904 -60269.38 M 101657.333 -59888.428 102266.857 -59888.428 M 101962.095 -60269.38 101962.095 -59507.476 M 103066.857 -60269.38 102609.714 -60269.38 M 102838.285 -60269.38 102838.285 -59269.38 102762.095 -59412.238 102685.904 -59507.476 102609.714 -59555.095 M 103371.619 -59364.619 103409.714 -59317 103485.904 -59269.38 103676.38 -59269.38 103752.571 -59317 103790.666 -59364.619 103828.761 -59459.857 103828.761 -59555.095 103790.666 -59697.952 103333.523 -60269.38 103828.761 -60269.38 M 104628.761 -60269.38 104362.095 -59793.19 M 104171.619 -60269.38 104171.619 -59269.38 104476.38 -59269.38 104552.571 -59317 104590.666 -59364.619 104628.761 -59459.857 104628.761 -59602.714 104590.666 -59697.952 104552.571 -59745.571 104476.38 -59793.19 104171.619 -59793.19" fill="none" stroke-width="150"/><path d="M 104807.936 -60685 106012.064 -60685 M 104807.936 -62505 106012.064 -62505 M 106012.064 -65765 104807.936 -65765 M 106012.064 -67585 104807.936 -67585 M 112811.779 -69979 112486.221 -69979 M 112811.779 -68959 112486.221 -68959 M 119354 -74269 119354 -73069 M 119354 -69749 119354 -70949 M 115898.437 -69749 119354 -69749 M 115898.437 -74269 119354 -74269 M 114834 -73204.563 114834 -73069 M 114834 -70813.437 114834 -70949 M 114834 -70813.437 115898.437 -69749 M 114834 -73204.563 115898.437 -74269 M 114094 -70449 114594 -70449 M 114344 -70199 114344 -70699 M 104818.922 -63425 105336.078 -63425 M 104818.922 -64845 105336.078 -64845 M 108300 -66394 108300 -68544 110450 -68544 M 108450 -59694 108450 -68394 120250 -68394 120250 -59694 108450 -59694" fill="none" stroke-width="120"/><path d="M 102068.333 -61952.142 102020.714 -61999.761 101877.857 -62047.38 101782.619 -62047.38 101639.761 -61999.761 101544.523 -61904.523 101496.904 -61809.285 101449.285 -61618.809 101449.285 -61475.952 101496.904 -61285.476 101544.523 -61190.238 101639.761 -61095 101782.619 -61047.38 101877.857 -61047.38 102020.714 -61095 102068.333 -61142.619 M 103020.714 -62047.38 102449.285 -62047.38 M 102735 -62047.38 102735 -61047.38 102639.761 -61190.238 102544.523 -61285.476 102449.285 -61333.095 M 102068.333 -67032.142 102020.714 -67079.761 101877.857 -67127.38 101782.619 -67127.38 101639.761 -67079.761 101544.523 -66984.523 101496.904 -66889.285 101449.285 -66698.809 101449.285 -66555.952 101496.904 -66365.476 101544.523 -66270.238 101639.761 -66175 101782.619 -66127.38 101877.857 -66127.38 102020.714 -66175 102068.333 -66222.619 M 102449.285 -66222.619 102496.904 -66175 102592.142 -66127.38 102830.238 -66127.38 102925.476 -66175 102973.095 -66222.619 103020.714 -66317.857 103020.714 -66413.095 102973.095 -66555.952 102401.666 -67127.38 103020.714 -67127.38 M 109815.333 -69826.142 109767.714 -69873.761 109624.857 -69921.38 109529.619 -69921.38 109386.761 -69873.761 109291.523 -69778.523 109243.904 -69683.285 109196.285 -69492.809 109196.285 -69349.952 109243.904 -69159.476 109291.523 -69064.238 109386.761 -68969 109529.619 -68921.38 109624.857 -68921.38 109767.714 -68969 109815.333 -69016.619 M 110148.666 -68921.38 110767.714 -68921.38 110434.38 -69302.333 110577.238 -69302.333 110672.476 -69349.952 110720.095 -69397.571 110767.714 -69492.809 110767.714 -69730.904 110720.095 -69826.142 110672.476 -69873.761 110577.238 -69921.38 110291.523 -69921.38 110196.285 -69873.761 110148.666 -69826.142 M 113625.333 -74144.142 113577.714 -74191.761 113434.857 -74239.38 113339.619 -74239.38 113196.761 -74191.761 113101.523 -74096.523 113053.904 -74001.285 113006.285 -73810.809 113006.285 -73667.952 113053.904 -73477.476 113101.523 -73382.238 113196.761 -73287 113339.619 -73239.38 113434.857 -73239.38 113577.714 -73287 113625.333 -73334.619 M 114482.476 -73572.714 114482.476 -74239.38 M 114244.38 -73191.761 114006.285 -73906.047 114625.333 -73906.047 M 102068.333 -64587.38 101592.142 -64587.38 101592.142 -63587.38 M 102925.476 -64587.38 102354.047 -64587.38 M 102639.761 -64587.38 102639.761 -63587.38 102544.523 -63730.238 102449.285 -63825.476 102354.047 -63873.095 M 106553.095 -68286.38 106553.095 -69095.904 106600.714 -69191.142 106648.333 -69238.761 106743.571 -69286.38 106934.047 -69286.38 107029.285 -69238.761 107076.904 -69191.142 107124.523 -69095.904 107124.523 -68286.38 M 108124.523 -69286.38 107553.095 -69286.38 M 107838.809 -69286.38 107838.809 -68286.38 107743.571 -68429.238 107648.333 -68524.476 107553.095 -68572.095" fill="none" stroke-width="150"/></g><g id="YOAOnYBgMlvlTxupPEMz_top_soldermask"><use xlink:href="#s9pgvgMWKrxvEZTC2ZdV_pad-10" x="103640" y="-73160"/><use xlink:href="#s9pgvgMWKrxvEZTC2ZdV_pad-10" x="106180" y="-73160"/><use xlink:href="#s9pgvgMWKrxvEZTC2ZdV_pad-10" x="108720" y="-73160"/><use xlink:href="#s9pgvgMWKrxvEZTC2ZdV_pad-10" x="111260" y="-73160"/><use xlink:href="#s9pgvgMWKrxvEZTC2ZdV_pad-10" x="103640" y="-57920"/><use xlink:href="#s9pgvgMWKrxvEZTC2ZdV_pad-10" x="106180" y="-57920"/><use xlink:href="#s9pgvgMWKrxvEZTC2ZdV_pad-10" x="108720" y="-57920"/><use xlink:href="#s9pgvgMWKrxvEZTC2ZdV_pad-10" x="111260" y="-57920"/><path d="M 104537.346 -60521.589 104569.38 -60526.341 104600.794 -60534.21 104631.286 -60545.12 104660.561 -60558.966 104688.338 -60575.615 104714.35 -60594.907 104738.345 -60616.655 104760.093 -60640.65 104779.385 -60666.662 104796.034 -60694.439 104809.88 -60723.714 104820.79 -60754.206 104828.659 -60785.62 104833.411 -60817.654 104835 -60850 104835 -62340 104833.411 -62372.346 104828.659 -62404.38 104820.79 -62435.794 104809.88 -62466.286 104796.034 -62495.561 104779.385 -62523.338 104760.093 -62549.35 104738.345 -62573.345 104714.35 -62595.093 104688.338 -62614.385 104660.561 -62631.034 104631.286 -62644.88 104600.794 -62655.79 104569.38 -62663.659 104537.346 -62668.411 104505 -62670 103515 -62670 103482.654 -62668.411 103450.62 -62663.659 103419.206 -62655.79 103388.714 -62644.88 103359.439 -62631.034 103331.662 -62614.385 103305.65 -62595.093 103281.655 -62573.345 103259.907 -62549.35 103240.615 -62523.338 103223.966 -62495.561 103210.12 -62466.286 103199.21 -62435.794 103191.341 -62404.38 103186.589 -62372.346 103185 -62340 103185 -60850 103186.589 -60817.654 103191.341 -60785.62 103199.21 -60754.206 103210.12 -60723.714 103223.966 -60694.439 103240.615 -60666.662 103259.907 -60640.65 103281.655 -60616.655 103305.65 -60594.907 103331.662 -60575.615 103359.439 -60558.966 103388.714 -60545.12 103419.206 -60534.21 103450.62 -60526.341 103482.654 -60521.589 103515 -60520 104505 -60520 104537.346 -60521.589 104537.346 -60521.589"/><use xlink:href="#s9pgvgMWKrxvEZTC2ZdV_pad-12" x="104010" y="-61595"/><path d="M 107337.346 -60521.589 107369.38 -60526.341 107400.794 -60534.21 107431.286 -60545.12 107460.561 -60558.966 107488.338 -60575.615 107514.35 -60594.907 107538.345 -60616.655 107560.093 -60640.65 107579.385 -60666.662 107596.034 -60694.439 107609.88 -60723.714 107620.79 -60754.206 107628.659 -60785.62 107633.411 -60817.654 107635 -60850 107635 -62340 107633.411 -62372.346 107628.659 -62404.38 107620.79 -62435.794 107609.88 -62466.286 107596.034 -62495.561 107579.385 -62523.338 107560.093 -62549.35 107538.345 -62573.345 107514.35 -62595.093 107488.338 -62614.385 107460.561 -62631.034 107431.286 -62644.88 107400.794 -62655.79 107369.38 -62663.659 107337.346 -62668.411 107305 -62670 106315 -62670 106282.654 -62668.411 106250.62 -62663.659 106219.206 -62655.79 106188.714 -62644.88 106159.439 -62631.034 106131.662 -62614.385 106105.65 -62595.093 106081.655 -62573.345 106059.907 -62549.35 106040.615 -62523.338 106023.966 -62495.561 106010.12 -62466.286 105999.21 -62435.794 105991.341 -62404.38 105986.589 -62372.346 105985 -62340 105985 -60850 105986.589 -60817.654 105991.341 -60785.62 105999.21 -60754.206 106010.12 -60723.714 106023.966 -60694.439 106040.615 -60666.662 106059.907 -60640.65 106081.655 -60616.655 106105.65 -60594.907 106131.662 -60575.615 106159.439 -60558.966 106188.714 -60545.12 106219.206 -60534.21 106250.62 -60526.341 106282.654 -60521.589 106315 -60520 107305 -60520 107337.346 -60521.589 107337.346 -60521.589"/><use xlink:href="#s9pgvgMWKrxvEZTC2ZdV_pad-12" x="106810" y="-61595"/><path d="M 104537.346 -65601.589 104569.38 -65606.341 104600.794 -65614.21 104631.286 -65625.12 104660.561 -65638.966 104688.338 -65655.615 104714.35 -65674.907 104738.345 -65696.655 104760.093 -65720.65 104779.385 -65746.662 104796.034 -65774.439 104809.88 -65803.714 104820.79 -65834.206 104828.659 -65865.62 104833.411 -65897.654 104835 -65930 104835 -67420 104833.411 -67452.346 104828.659 -67484.38 104820.79 -67515.794 104809.88 -67546.286 104796.034 -67575.561 104779.385 -67603.338 104760.093 -67629.35 104738.345 -67653.345 104714.35 -67675.093 104688.338 -67694.385 104660.561 -67711.034 104631.286 -67724.88 104600.794 -67735.79 104569.38 -67743.659 104537.346 -67748.411 104505 -67750 103515 -67750 103482.654 -67748.411 103450.62 -67743.659 103419.206 -67735.79 103388.714 -67724.88 103359.439 -67711.034 103331.662 -67694.385 103305.65 -67675.093 103281.655 -67653.345 103259.907 -67629.35 103240.615 -67603.338 103223.966 -67575.561 103210.12 -67546.286 103199.21 -67515.794 103191.341 -67484.38 103186.589 -67452.346 103185 -67420 103185 -65930 103186.589 -65897.654 103191.341 -65865.62 103199.21 -65834.206 103210.12 -65803.714 103223.966 -65774.439 103240.615 -65746.662 103259.907 -65720.65 103281.655 -65696.655 103305.65 -65674.907 103331.662 -65655.615 103359.439 -65638.966 103388.714 -65625.12 103419.206 -65614.21 103450.62 -65606.341 103482.654 -65601.589 103515 -65600 104505 -65600 104537.346 -65601.589 104537.346 -65601.589"/><use xlink:href="#s9pgvgMWKrxvEZTC2ZdV_pad-12" x="104010" y="-66675"/><path d="M 107337.346 -65601.589 107369.38 -65606.341 107400.794 -65614.21 107431.286 -65625.12 107460.561 -65638.966 107488.338 -65655.615 107514.35 -65674.907 107538.345 -65696.655 107560.093 -65720.65 107579.385 -65746.662 107596.034 -65774.439 107609.88 -65803.714 107620.79 -65834.206 107628.659 -65865.62 107633.411 -65897.654 107635 -65930 107635 -67420 107633.411 -67452.346 107628.659 -67484.38 107620.79 -67515.794 107609.88 -67546.286 107596.034 -67575.561 107579.385 -67603.338 107560.093 -67629.35 107538.345 -67653.345 107514.35 -67675.093 107488.338 -67694.385 107460.561 -67711.034 107431.286 -67724.88 107400.794 -67735.79 107369.38 -67743.659 107337.346 -67748.411 107305 -67750 106315 -67750 106282.654 -67748.411 106250.62 -67743.659 106219.206 -67735.79 106188.714 -67724.88 106159.439 -67711.034 106131.662 -67694.385 106105.65 -67675.093 106081.655 -67653.345 106059.907 -67629.35 106040.615 -67603.338 106023.966 -67575.561 106010.12 -67546.286 105999.21 -67515.794 105991.341 -67484.38 105986.589 -67452.346 105985 -67420 105985 -65930 105986.589 -65897.654 105991.341 -65865.62 105999.21 -65834.206 106010.12 -65803.714 106023.966 -65774.439 106040.615 -65746.662 106059.907 -65720.65 106081.655 -65696.655 106105.65 -65674.907 106131.662 -65655.615 106159.439 -65638.966 106188.714 -65625.12 106219.206 -65614.21 106250.62 -65606.341 106282.654 -65601.589 106315 -65600 107305 -65600 107337.346 -65601.589 107337.346 -65601.589"/><use xlink:href="#s9pgvgMWKrxvEZTC2ZdV_pad-12" x="106810" y="-66675"/><path d="M 113786.493 -68795.535 113817.435 -68800.125 113847.778 -68807.725 113877.23 -68818.263 113905.508 -68831.638 113932.338 -68847.719 113957.463 -68866.353 113980.64 -68887.36 114001.647 -68910.537 114020.281 -68935.662 114036.362 -68962.492 114049.737 -68990.77 114060.275 -69020.222 114067.875 -69050.565 114072.465 -69081.507 114074 -69112.75 114074 -69825.25 114072.465 -69856.493 114067.875 -69887.435 114060.275 -69917.778 114049.737 -69947.23 114036.362 -69975.508 114020.281 -70002.338 114001.647 -70027.463 113980.64 -70050.64 113957.463 -70071.647 113932.338 -70090.281 113905.508 -70106.362 113877.23 -70119.737 113847.778 -70130.275 113817.435 -70137.875 113786.493 -70142.465 113755.25 -70144 113117.75 -70144 113086.507 -70142.465 113055.565 -70137.875 113025.222 -70130.275 112995.77 -70119.737 112967.492 -70106.362 112940.662 -70090.281 112915.537 -70071.647 112892.36 -70050.64 112871.353 -70027.463 112852.719 -70002.338 112836.638 -69975.508 112823.263 -69947.23 112812.725 -69917.778 112805.125 -69887.435 112800.535 -69856.493 112799 -69825.25 112799 -69112.75 112800.535 -69081.507 112805.125 -69050.565 112812.725 -69020.222 112823.263 -68990.77 112836.638 -68962.492 112852.719 -68935.662 112871.353 -68910.537 112892.36 -68887.36 112915.537 -68866.353 112940.662 -68847.719 112967.492 -68831.638 112995.77 -68818.263 113025.222 -68807.725 113055.565 -68800.125 113086.507 -68795.535 113117.75 -68794 113755.25 -68794 113786.493 -68795.535 113786.493 -68795.535"/><use xlink:href="#s9pgvgMWKrxvEZTC2ZdV_pad-13" x="113436.5" y="-69469"/><path d="M 112211.493 -68795.535 112242.435 -68800.125 112272.778 -68807.725 112302.23 -68818.263 112330.508 -68831.638 112357.338 -68847.719 112382.463 -68866.353 112405.64 -68887.36 112426.647 -68910.537 112445.281 -68935.662 112461.362 -68962.492 112474.737 -68990.77 112485.275 -69020.222 112492.875 -69050.565 112497.465 -69081.507 112499 -69112.75 112499 -69825.25 112497.465 -69856.493 112492.875 -69887.435 112485.275 -69917.778 112474.737 -69947.23 112461.362 -69975.508 112445.281 -70002.338 112426.647 -70027.463 112405.64 -70050.64 112382.463 -70071.647 112357.338 -70090.281 112330.508 -70106.362 112302.23 -70119.737 112272.778 -70130.275 112242.435 -70137.875 112211.493 -70142.465 112180.25 -70144 111542.75 -70144 111511.507 -70142.465 111480.565 -70137.875 111450.222 -70130.275 111420.77 -70119.737 111392.492 -70106.362 111365.662 -70090.281 111340.537 -70071.647 111317.36 -70050.64 111296.353 -70027.463 111277.719 -70002.338 111261.638 -69975.508 111248.263 -69947.23 111237.725 -69917.778 111230.125 -69887.435 111225.535 -69856.493 111224 -69825.25 111224 -69112.75 111225.535 -69081.507 111230.125 -69050.565 111237.725 -69020.222 111248.263 -68990.77 111261.638 -68962.492 111277.719 -68935.662 111296.353 -68910.537 111317.36 -68887.36 111340.537 -68866.353 111365.662 -68847.719 111392.492 -68831.638 111420.77 -68818.263 111450.222 -68807.725 111480.565 -68800.125 111511.507 -68795.535 111542.75 -68794 112180.25 -68794 112211.493 -68795.535 112211.493 -68795.535"/><use xlink:href="#s9pgvgMWKrxvEZTC2ZdV_pad-13" x="111861.5" y="-69469"/><use xlink:href="#s9pgvgMWKrxvEZTC2ZdV_pad-14" x="115294" y="-72009"/><use xlink:href="#s9pgvgMWKrxvEZTC2ZdV_pad-14" x="118894" y="-72009"/><path d="M 104517.443 -63236.655 104550.812 -63241.605 104583.535 -63249.802 104615.297 -63261.166 104645.793 -63275.59 104674.727 -63292.932 104701.823 -63313.028 104726.818 -63335.682 104749.472 -63360.677 104769.568 -63387.773 104786.91 -63416.707 104801.334 -63447.203 104812.698 -63478.965 104820.895 -63511.688 104825.845 -63545.057 104827.5 -63578.75 104827.5 -64691.25 104825.845 -64724.943 104820.895 -64758.312 104812.698 -64791.035 104801.334 -64822.797 104786.91 -64853.293 104769.568 -64882.227 104749.472 -64909.323 104726.818 -64934.318 104701.823 -64956.972 104674.727 -64977.068 104645.793 -64994.41 104615.297 -65008.834 104583.535 -65020.198 104550.812 -65028.395 104517.443 -65033.345 104483.75 -65035 103796.25 -65035 103762.557 -65033.345 103729.188 -65028.395 103696.465 -65020.198 103664.703 -65008.834 103634.207 -64994.41 103605.273 -64977.068 103578.177 -64956.972 103553.182 -64934.318 103530.528 -64909.323 103510.432 -64882.227 103493.09 -64853.293 103478.666 -64822.797 103467.302 -64791.035 103459.105 -64758.312 103454.155 -64724.943 103452.5 -64691.25 103452.5 -63578.75 103454.155 -63545.057 103459.105 -63511.688 103467.302 -63478.965 103478.666 -63447.203 103493.09 -63416.707 103510.432 -63387.773 103530.528 -63360.677 103553.182 -63335.682 103578.177 -63313.028 103605.273 -63292.932 103634.207 -63275.59 103664.703 -63261.166 103696.465 -63249.802 103729.188 -63241.605 103762.557 -63236.655 103796.25 -63235 104483.75 -63235 104517.443 -63236.655 104517.443 -63236.655"/><use xlink:href="#s9pgvgMWKrxvEZTC2ZdV_pad-15" x="104140" y="-64135"/><path d="M 106392.443 -63236.655 106425.812 -63241.605 106458.535 -63249.802 106490.297 -63261.166 106520.793 -63275.59 106549.727 -63292.932 106576.823 -63313.028 106601.818 -63335.682 106624.472 -63360.677 106644.568 -63387.773 106661.91 -63416.707 106676.334 -63447.203 106687.698 -63478.965 106695.895 -63511.688 106700.845 -63545.057 106702.5 -63578.75 106702.5 -64691.25 106700.845 -64724.943 106695.895 -64758.312 106687.698 -64791.035 106676.334 -64822.797 106661.91 -64853.293 106644.568 -64882.227 106624.472 -64909.323 106601.818 -64934.318 106576.823 -64956.972 106549.727 -64977.068 106520.793 -64994.41 106490.297 -65008.834 106458.535 -65020.198 106425.812 -65028.395 106392.443 -65033.345 106358.75 -65035 105671.25 -65035 105637.557 -65033.345 105604.188 -65028.395 105571.465 -65020.198 105539.703 -65008.834 105509.207 -64994.41 105480.273 -64977.068 105453.177 -64956.972 105428.182 -64934.318 105405.528 -64909.323 105385.432 -64882.227 105368.09 -64853.293 105353.666 -64822.797 105342.302 -64791.035 105334.105 -64758.312 105329.155 -64724.943 105327.5 -64691.25 105327.5 -63578.75 105329.155 -63545.057 105334.105 -63511.688 105342.302 -63478.965 105353.666 -63447.203 105368.09 -63416.707 105385.432 -63387.773 105405.528 -63360.677 105428.182 -63335.682 105453.177 -63313.028 105480.273 -63292.932 105509.207 -63275.59 105539.703 -63261.166 105571.465 -63249.802 105604.188 -63241.605 105637.557 -63236.655 105671.25 -63235 106358.75 -63235 106392.443 -63236.655 106392.443 -63236.655"/><use xlink:href="#s9pgvgMWKrxvEZTC2ZdV_pad-15" x="106015" y="-64135"/><use xlink:href="#s9pgvgMWKrxvEZTC2ZdV_pad-16" x="111760" y="-66294"/><use xlink:href="#s9pgvgMWKrxvEZTC2ZdV_pad-17" x="114300" y="-66294"/><use xlink:href="#s9pgvgMWKrxvEZTC2ZdV_pad-17" x="116840" y="-66294"/></g><g id="YOAOnYBgMlvlTxupPEMz_top_drill1"><use xlink:href="#B0vis3hZ7jFkZZyhkWLD_pad-1" x="102500" y="-68000"/><use xlink:href="#B0vis3hZ7jFkZZyhkWLD_pad-1" x="103500" y="-68500"/><use xlink:href="#B0vis3hZ7jFkZZyhkWLD_pad-1" x="104500" y="-68500"/><use xlink:href="#B0vis3hZ7jFkZZyhkWLD_pad-2" x="103640" y="-57920"/><use xlink:href="#B0vis3hZ7jFkZZyhkWLD_pad-2" x="106180" y="-57920"/><use xlink:href="#B0vis3hZ7jFkZZyhkWLD_pad-2" x="108720" y="-57920"/><use xlink:href="#B0vis3hZ7jFkZZyhkWLD_pad-2" x="111260" y="-57920"/><use xlink:href="#B0vis3hZ7jFkZZyhkWLD_pad-2" x="103640" y="-73160"/><use xlink:href="#B0vis3hZ7jFkZZyhkWLD_pad-2" x="106180" y="-73160"/><use xlink:href="#B0vis3hZ7jFkZZyhkWLD_pad-2" x="108720" y="-73160"/><use xlink:href="#B0vis3hZ7jFkZZyhkWLD_pad-2" x="111260" y="-73160"/><use xlink:href="#B0vis3hZ7jFkZZyhkWLD_pad-2" x="111760" y="-66294"/><use xlink:href="#B0vis3hZ7jFkZZyhkWLD_pad-2" x="114300" y="-66294"/><use xlink:href="#B0vis3hZ7jFkZZyhkWLD_pad-2" x="116840" y="-66294"/></g><clipPath id="YOAOnYBgMlvlTxupPEMz_top_outline"><path d="M 101000 -56000 101000 -75000 121000 -75000 121000 -56000 101000 -56000" fill="none" stroke-width="150"/></clipPath><mask id="YOAOnYBgMlvlTxupPEMz_top_mech-mask"><g fill="#000" stroke="#000"><rect x="101000" y="-75000" width="20000" height="19000" fill="#fff"/><use xlink:href="#YOAOnYBgMlvlTxupPEMz_top_drill1"/></g></mask><mask id="YOAOnYBgMlvlTxupPEMz_top_cf-mask"><g fill="#fff" stroke="#fff"><use xlink:href="#YOAOnYBgMlvlTxupPEMz_top_soldermask"/></g></mask><mask id="YOAOnYBgMlvlTxupPEMz_top_sm-mask"><g fill="#000" stroke="#000"><rect x="101000" y="-75000" width="20000" height="19000" fill="#fff"/><use xlink:href="#YOAOnYBgMlvlTxupPEMz_top_soldermask"/></g></mask></defs><g transform="translate(0,-131000) scale(1,-1)"><g mask="url(#YOAOnYBgMlvlTxupPEMz_top_mech-mask)" clip-path="url(#YOAOnYBgMlvlTxupPEMz_top_outline)"><rect x="101000" y="-75000" width="20000" height="19000" fill="currentColor" class="YOAOnYBgMlvlTxupPEMz_fr4"/><use xlink:href="#YOAOnYBgMlvlTxupPEMz_top_copper" fill="currentColor" stroke="currentColor" class="YOAOnYBgMlvlTxupPEMz_cu"/><use xlink:href="#YOAOnYBgMlvlTxupPEMz_top_copper" fill="currentColor" stroke="currentColor" class="YOAOnYBgMlvlTxupPEMz_cf" mask="url(#YOAOnYBgMlvlTxupPEMz_top_cf-mask)"/><g mask="url(#YOAOnYBgMlvlTxupPEMz_top_sm-mask)"><rect x="101000" y="-75000" width="20000" height="19000" fill="currentColor" class="YOAOnYBgMlvlTxupPEMz_sm"/><use xlink:href="#YOAOnYBgMlvlTxupPEMz_top_silkscreen" fill="currentColor" stroke="currentColor" class="YOAOnYBgMlvlTxupPEMz_ss"/></g><use xlink:href="#YOAOnYBgMlvlTxupPEMz_top_solderpaste" fill="currentColor" stroke="currentColor" class="YOAOnYBgMlvlTxupPEMz_sp"/></g></g></svg>