<svg version="1.1" xmlns="http://www.w3.org/2000/svg" xmlns:xlink="http://www.w3.org/1999/xlink" stroke-linecap="round" stroke-linejoin="round" stroke-width="0" fill-rule="evenodd" clip-rule="evenodd" id="k1Z9Ly0tXZukV28f97GK_bottom" viewBox="101000 -75000 17000 19000" width="17mm" height="19mm" class="w-100 h-100"><defs><style>.k1Z9Ly0tXZukV28f97GK_fr4 {color: #666666;}
.k1Z9Ly0tXZukV28f97GK_cu {color: #cccccc;}
.k1Z9Ly0tXZukV28f97GK_cf {color: #cc9933;}
.k1Z9Ly0tXZukV28f97GK_sm {color: #004200; opacity: 0.75;}
.k1Z9Ly0tXZukV28f97GK_ss {color: #ffffff;}
.k1Z9Ly0tXZukV28f97GK_sp {color: #999999;}
.k1Z9Ly0tXZukV28f97GK_out {color: #000000;}</style><rect x="-1050" y="-1050" width="2100" height="2100" rx="1050" ry="1050" id="PtzRZPtSU6auzMOKaxxV_pad-10"/><rect x="-1800" y="-1800" width="3600" height="3600" id="PtzRZPtSU6auzMOKaxxV_pad-11"/><rect x="-1200" y="-1200" width="2400" height="2400" id="PtzRZPtSU6auzMOKaxxV_pad-12"/><rect x="-850" y="-850" width="1700" height="1700" rx="850" ry="850" id="iMvUg0qoaDJU-vgGCYOq_pad-10"/><rect x="-1600" y="-1600" width="3200" height="3200" id="iMvUg0qoaDJU-vgGCYOq_pad-11"/><rect x="-1000" y="-1000" width="2000" height="2000" id="iMvUg0qoaDJU-vgGCYOq_pad-12"/><circle cx="0" cy="0" r="175" id="iMvUg0qoaDJU-vgGCYOq_pad-14"/><circle cx="0" cy="0" r="500" id="w_ullhJQU_1_U3kxt01N_pad-1"/><circle cx="0" cy="0" r="1100" id="w_ullhJQU_1_U3kxt01N_pad-2"/><g id="k1Z9Ly0tXZukV28f97GK_bottom_soldermask"><use xlink:href="#PtzRZPtSU6auzMOKaxxV_pad-10" x="116340" y="-73160"/><use xlink:href="#PtzRZPtSU6auzMOKaxxV_pad-10" x="113800" y="-73160"/><use xlink:href="#PtzRZPtSU6auzMOKaxxV_pad-10" x="111260" y="-73160"/><use xlink:href="#PtzRZPtSU6auzMOKaxxV_pad-10" x="108720" y="-73160"/><use xlink:href="#PtzRZPtSU6auzMOKaxxV_pad-10" x="106180" y="-73160"/><use xlink:href="#PtzRZPtSU6auzMOKaxxV_pad-10" x="103640" y="-73160"/><use xlink:href="#PtzRZPtSU6auzMOKaxxV_pad-10" x="116340" y="-57920"/><use xlink:href="#PtzRZPtSU6auzMOKaxxV_pad-10" x="103640" y="-57920"/><use xlink:href="#PtzRZPtSU6auzMOKaxxV_pad-11" x="114128" y="-61730"/><use xlink:href="#PtzRZPtSU6auzMOKaxxV_pad-12" x="112228" y="-68730"/><use xlink:href="#PtzRZPtSU6auzMOKaxxV_pad-12" x="109728" y="-68730"/><use xlink:href="#PtzRZPtSU6auzMOKaxxV_pad-12" x="107228" y="-68730"/><use xlink:href="#PtzRZPtSU6auzMOKaxxV_pad-11" x="105328" y="-61730"/></g><g id="k1Z9Ly0tXZukV28f97GK_bottom_copper"><use xlink:href="#iMvUg0qoaDJU-vgGCYOq_pad-10" x="116340" y="-73160"/><use xlink:href="#iMvUg0qoaDJU-vgGCYOq_pad-10" x="113800" y="-73160"/><use xlink:href="#iMvUg0qoaDJU-vgGCYOq_pad-10" x="111260" y="-73160"/><use xlink:href="#iMvUg0qoaDJU-vgGCYOq_pad-10" x="108720" y="-73160"/><use xlink:href="#iMvUg0qoaDJU-vgGCYOq_pad-10" x="106180" y="-73160"/><use xlink:href="#iMvUg0qoaDJU-vgGCYOq_pad-10" x="103640" y="-73160"/><use xlink:href="#iMvUg0qoaDJU-vgGCYOq_pad-10" x="116340" y="-57920"/><use xlink:href="#iMvUg0qoaDJU-vgGCYOq_pad-10" x="103640" y="-57920"/><use xlink:href="#iMvUg0qoaDJU-vgGCYOq_pad-11" x="114128" y="-61730"/><use xlink:href="#iMvUg0qoaDJU-vgGCYOq_pad-12" x="112228" y="-68730"/><use xlink:href="#iMvUg0qoaDJU-vgGCYOq_pad-12" x="109728" y="-68730"/><use xlink:href="#iMvUg0qoaDJU-vgGCYOq_pad-12" x="107228" y="-68730"/><use xlink:href="#iMvUg0qoaDJU-vgGCYOq_pad-11" x="105328" y="-61730"/><path d="M 102569.375 -56849.375 102241.161 -57340.582 102125.908 -57920 102241.161 -58499.418 102569.375 -58990.625 103060.582 -59318.839 103493.744 -59405 103786.256 -59405 104219.418 -59318.839 104710.625 -58990.625 105038.839 -58499.418 105083.102 -58276.892 114898.514 -58276.892 115144.817 -58801.358 115573.076 -59191.645 115983.11 -59361.476 116213 -59240.155 116213 -58047 115019.181 -58047 114898.514 -58276.892 105083.102 -58276.892 105154.092 -57920 105038.839 -57340.582 104710.625 -56849.375 104502.036 -56710 115505.433 -56710 115144.817 -57038.642 114898.514 -57563.108 115019.181 -57793 116213 -57793 116213 -57773 116467 -57773 116467 -57793 116487 -57793 116487 -58047 116467 -58047 116467 -59240.155 116696.89 -59361.476 117106.924 -59191.645 117290.001 -59024.801 117290 -72008.776 116919.418 -71761.161 116486.256 -71675 116193.744 -71675 115760.582 -71761.161 115269.375 -72089.375 115056.157 -72408.478 114995.183 -72278.642 114566.924 -71888.355 114156.89 -71718.524 113927 -71839.845 113927 -73033 113947 -73033 113947 -73287 113927 -73287 113927 -73307 113673 -73307 113673 -73287 111387 -73287 111387 -73307 111133 -73307 111133 -73287 108847 -73287 108847 -73307 108593 -73307 108593 -73287 106307 -73287 106307 -73307 106053 -73307 106053 -73287 103767 -73287 103767 -73307 103513 -73307 103513 -73287 102319.181 -73287 102198.514 -73516.892 102444.817 -74041.358 102717.65 -74290 101710 -74290 101710 -72803.108 102198.514 -72803.108 102319.181 -73033 103513 -73033 103513 -71839.845 103767 -71839.845 103767 -73033 106053 -73033 106053 -71839.845 106307 -71839.845 106307 -73033 108593 -73033 108593 -71839.845 108847 -71839.845 108847 -73033 111133 -73033 111133 -71839.845 111387 -71839.845 111387 -73033 113673 -73033 113673 -71839.845 113443.11 -71718.524 113033.076 -71888.355 112604.817 -72278.642 112530 -72437.954 112455.183 -72278.642 112026.924 -71888.355 111616.89 -71718.524 111387 -71839.845 111133 -71839.845 110903.11 -71718.524 110493.076 -71888.355 110064.817 -72278.642 109990 -72437.954 109915.183 -72278.642 109486.924 -71888.355 109076.89 -71718.524 108847 -71839.845 108593 -71839.845 108363.11 -71718.524 107953.076 -71888.355 107524.817 -72278.642 107450 -72437.954 107375.183 -72278.642 106946.924 -71888.355 106536.89 -71718.524 106307 -71839.845 106053 -71839.845 105823.11 -71718.524 105413.076 -71888.355 104984.817 -72278.642 104910 -72437.954 104835.183 -72278.642 104406.924 -71888.355 103996.89 -71718.524 103767 -71839.845 103513 -71839.845 103283.11 -71718.524 102873.076 -71888.355 102444.817 -72278.642 102198.514 -72803.108 101710 -72803.108 101710 -67730 105580.56 -67730 105580.56 -69730 105629.843 -69977.765 105770.191 -70187.809 105980.235 -70328.157 106228 -70377.44 108228 -70377.44 108475.765 -70328.157 108478 -70326.664 108480.235 -70328.157 108728 -70377.44 110728 -70377.44 110975.765 -70328.157 110989.916 -70318.701 111101.691 -70365 111942.25 -70365 112101 -70206.25 112101 -68857 112355 -68857 112355 -70206.25 112513.75 -70365 113354.309 -70365 113587.698 -70268.327 113766.327 -70089.699 113863 -69856.31 113863 -69015.75 113704.25 -68857 112355 -68857 112101 -68857 112081 -68857 112081 -68603 112101 -68603 112101 -67253.75 112355 -67253.75 112355 -68603 113704.25 -68603 113863 -68444.25 113863 -67603.69 113766.327 -67370.301 113587.698 -67191.673 113354.309 -67095 112513.75 -67095 112355 -67253.75 112101 -67253.75 111942.25 -67095 111101.691 -67095 110989.916 -67141.299 110975.765 -67131.843 110728 -67082.56 108728 -67082.56 108480.235 -67131.843 108478 -67133.336 108475.765 -67131.843 108228 -67082.56 106228 -67082.56 105980.235 -67131.843 105770.191 -67272.191 105629.843 -67482.235 105580.56 -67730 101710 -67730 101710 -60130 103080.56 -60130 103080.56 -63330 103129.843 -63577.765 103270.191 -63787.809 103480.235 -63928.157 103728 -63977.44 106928 -63977.44 107175.765 -63928.157 107385.809 -63787.809 107526.157 -63577.765 107575.44 -63330 107575.44 -60130 111880.56 -60130 111880.56 -63330 111929.843 -63577.765 112070.191 -63787.809 112280.235 -63928.157 112528 -63977.44 115728 -63977.44 115975.765 -63928.157 116185.809 -63787.809 116326.157 -63577.765 116375.44 -63330 116375.44 -60130 116326.157 -59882.235 116185.809 -59672.191 115975.765 -59531.843 115728 -59482.56 112528 -59482.56 112280.235 -59531.843 112070.191 -59672.191 111929.843 -59882.235 111880.56 -60130 107575.44 -60130 107526.157 -59882.235 107385.809 -59672.191 107175.765 -59531.843 106928 -59482.56 103728 -59482.56 103480.235 -59531.843 103270.191 -59672.191 103129.843 -59882.235 103080.56 -60130 101710 -60130 101710 -56710 102777.964 -56710 102569.375 -56849.375 102569.375 -56849.375"/><path d="M 102569.375 -56849.375 102241.161 -57340.582 102125.908 -57920 102241.161 -58499.418 102569.375 -58990.625 103060.582 -59318.839 103493.744 -59405 103786.256 -59405 104219.418 -59318.839 104710.625 -58990.625 105038.839 -58499.418 105083.102 -58276.892 114898.514 -58276.892 115144.817 -58801.358 115573.076 -59191.645 115983.11 -59361.476 116213 -59240.155 116213 -58047 115019.181 -58047 114898.514 -58276.892 105083.102 -58276.892 105154.092 -57920 105038.839 -57340.582 104710.625 -56849.375 104502.036 -56710 115505.433 -56710 115144.817 -57038.642 114898.514 -57563.108 115019.181 -57793 116213 -57793 116213 -57773 116467 -57773 116467 -57793 116487 -57793 116487 -58047 116467 -58047 116467 -59240.155 116696.89 -59361.476 117106.924 -59191.645 117290.001 -59024.801 117290 -72008.776 116919.418 -71761.161 116486.256 -71675 116193.744 -71675 115760.582 -71761.161 115269.375 -72089.375 115056.157 -72408.478 114995.183 -72278.642 114566.924 -71888.355 114156.89 -71718.524 113927 -71839.845 113927 -73033 113947 -73033 113947 -73287 113927 -73287 113927 -73307 113673 -73307 113673 -73287 111387 -73287 111387 -73307 111133 -73307 111133 -73287 108847 -73287 108847 -73307 108593 -73307 108593 -73287 106307 -73287 106307 -73307 106053 -73307 106053 -73287 103767 -73287 103767 -73307 103513 -73307 103513 -73287 102319.181 -73287 102198.514 -73516.892 102444.817 -74041.358 102717.65 -74290 101710 -74290 101710 -72803.108 102198.514 -72803.108 102319.181 -73033 103513 -73033 103513 -71839.845 103767 -71839.845 103767 -73033 106053 -73033 106053 -71839.845 106307 -71839.845 106307 -73033 108593 -73033 108593 -71839.845 108847 -71839.845 108847 -73033 111133 -73033 111133 -71839.845 111387 -71839.845 111387 -73033 113673 -73033 113673 -71839.845 113443.11 -71718.524 113033.076 -71888.355 112604.817 -72278.642 112530 -72437.954 112455.183 -72278.642 112026.924 -71888.355 111616.89 -71718.524 111387 -71839.845 111133 -71839.845 110903.11 -71718.524 110493.076 -71888.355 110064.817 -72278.642 109990 -72437.954 109915.183 -72278.642 109486.924 -71888.355 109076.89 -71718.524 108847 -71839.845 108593 -71839.845 108363.11 -71718.524 107953.076 -71888.355 107524.817 -72278.642 107450 -72437.954 107375.183 -72278.642 106946.924 -71888.355 106536.89 -71718.524 106307 -71839.845 106053 -71839.845 105823.11 -71718.524 105413.076 -71888.355 104984.817 -72278.642 104910 -72437.954 104835.183 -72278.642 104406.924 -71888.355 103996.89 -71718.524 103767 -71839.845 103513 -71839.845 103283.11 -71718.524 102873.076 -71888.355 102444.817 -72278.642 102198.514 -72803.108 101710 -72803.108 101710 -67730 105580.56 -67730 105580.56 -69730 105629.843 -69977.765 105770.191 -70187.809 105980.235 -70328.157 106228 -70377.44 108228 -70377.44 108475.765 -70328.157 108478 -70326.664 108480.235 -70328.157 108728 -70377.44 110728 -70377.44 110975.765 -70328.157 110989.916 -70318.701 111101.691 -70365 111942.25 -70365 112101 -70206.25 112101 -68857 112355 -68857 112355 -70206.25 112513.75 -70365 113354.309 -70365 113587.698 -70268.327 113766.327 -70089.699 113863 -69856.31 113863 -69015.75 113704.25 -68857 112355 -68857 112101 -68857 112081 -68857 112081 -68603 112101 -68603 112101 -67253.75 112355 -67253.75 112355 -68603 113704.25 -68603 113863 -68444.25 113863 -67603.69 113766.327 -67370.301 113587.698 -67191.673 113354.309 -67095 112513.75 -67095 112355 -67253.75 112101 -67253.75 111942.25 -67095 111101.691 -67095 110989.916 -67141.299 110975.765 -67131.843 110728 -67082.56 108728 -67082.56 108480.235 -67131.843 108478 -67133.336 108475.765 -67131.843 108228 -67082.56 106228 -67082.56 105980.235 -67131.843 105770.191 -67272.191 105629.843 -67482.235 105580.56 -67730 101710 -67730 101710 -60130 103080.56 -60130 103080.56 -63330 103129.843 -63577.765 103270.191 -63787.809 103480.235 -63928.157 103728 -63977.44 106928 -63977.44 107175.765 -63928.157 107385.809 -63787.809 107526.157 -63577.765 107575.44 -63330 107575.44 -60130 111880.56 -60130 111880.56 -63330 111929.843 -63577.765 112070.191 -63787.809 112280.235 -63928.157 112528 -63977.44 115728 -63977.44 115975.765 -63928.157 116185.809 -63787.809 116326.157 -63577.765 116375.44 -63330 116375.44 -60130 116326.157 -59882.235 116185.809 -59672.191 115975.765 -59531.843 115728 -59482.56 112528 -59482.56 112280.235 -59531.843 112070.191 -59672.191 111929.843 -59882.235 111880.56 -60130 107575.44 -60130 107526.157 -59882.235 107385.809 -59672.191 107175.765 -59531.843 106928 -59482.56 103728 -59482.56 103480.235 -59531.843 103270.191 -59672.191 103129.843 -59882.235 103080.56 -60130 101710 -60130 101710 -56710 102777.964 -56710 102569.375 -56849.375" fill="none" stroke-width="254"/><use xlink:href="#iMvUg0qoaDJU-vgGCYOq_pad-14" x="116340" y="-73160"/><use xlink:href="#iMvUg0qoaDJU-vgGCYOq_pad-14" x="113800" y="-73160"/><use xlink:href="#iMvUg0qoaDJU-vgGCYOq_pad-14" x="111260" y="-73160"/><use xlink:href="#iMvUg0qoaDJU-vgGCYOq_pad-14" x="108720" y="-73160"/><use xlink:href="#iMvUg0qoaDJU-vgGCYOq_pad-14" x="106180" y="-73160"/><use xlink:href="#iMvUg0qoaDJU-vgGCYOq_pad-14" x="103640" y="-73160"/><use xlink:href="#iMvUg0qoaDJU-vgGCYOq_pad-14" x="116340" y="-57920"/><use xlink:href="#iMvUg0qoaDJU-vgGCYOq_pad-14" x="103640" y="-57920"/><use xlink:href="#iMvUg0qoaDJU-vgGCYOq_pad-14" x="114128" y="-61730"/><use xlink:href="#iMvUg0qoaDJU-vgGCYOq_pad-14" x="112228" y="-68730"/><use xlink:href="#iMvUg0qoaDJU-vgGCYOq_pad-14" x="109728" y="-68730"/><use xlink:href="#iMvUg0qoaDJU-vgGCYOq_pad-14" x="107228" y="-68730"/><use xlink:href="#iMvUg0qoaDJU-vgGCYOq_pad-14" x="105328" y="-61730"/></g><g id="k1Z9Ly0tXZukV28f97GK_bottom_drill1"><use xlink:href="#w_ullhJQU_1_U3kxt01N_pad-1" x="107228" y="-68730"/><use xlink:href="#w_ullhJQU_1_U3kxt01N_pad-1" x="109728" y="-68730"/><use xlink:href="#w_ullhJQU_1_U3kxt01N_pad-1" x="112228" y="-68730"/><use xlink:href="#w_ullhJQU_1_U3kxt01N_pad-1" x="116340" y="-57920"/><use xlink:href="#w_ullhJQU_1_U3kxt01N_pad-1" x="103640" y="-57920"/><use xlink:href="#w_ullhJQU_1_U3kxt01N_pad-1" x="103640" y="-73160"/><use xlink:href="#w_ullhJQU_1_U3kxt01N_pad-1" x="106180" y="-73160"/><use xlink:href="#w_ullhJQU_1_U3kxt01N_pad-1" x="108720" y="-73160"/><use xlink:href="#w_ullhJQU_1_U3kxt01N_pad-1" x="111260" y="-73160"/><use xlink:href="#w_ullhJQU_1_U3kxt01N_pad-1" x="113800" y="-73160"/><use xlink:href="#w_ullhJQU_1_U3kxt01N_pad-1" x="116340" y="-73160"/><use xlink:href="#w_ullhJQU_1_U3kxt01N_pad-2" x="105328" y="-61730"/><use xlink:href="#w_ullhJQU_1_U3kxt01N_pad-2" x="114128" y="-61730"/></g><clipPath id="k1Z9Ly0tXZukV28f97GK_bottom_outline"><path d="M 101000 -56000 101000 -75000 118000 -75000 118000 -56000 101000 -56000" fill="none" stroke-width="150"/></clipPath><mask id="k1Z9Ly0tXZukV28f97GK_bottom_mech-mask"><g fill="#000" stroke="#000"><rect x="101000" y="-75000" width="17000" height="19000" fill="#fff"/><use xlink:href="#k1Z9Ly0tXZukV28f97GK_bottom_drill1"/></g></mask><mask id="k1Z9Ly0tXZukV28f97GK_bottom_cf-mask"><g fill="#fff" stroke="#fff"><use xlink:href="#k1Z9Ly0tXZukV28f97GK_bottom_soldermask"/></g></mask><mask id="k1Z9Ly0tXZukV28f97GK_bottom_sm-mask"><g fill="#000" stroke="#000"><rect x="101000" y="-75000" width="17000" height="19000" fill="#fff"/><use xlink:href="#k1Z9Ly0tXZukV28f97GK_bottom_soldermask"/></g></mask></defs><g transform="translate(0,-131000) scale(1,-1)"><g mask="url(#k1Z9Ly0tXZukV28f97GK_bottom_mech-mask)" clip-path="url(#k1Z9Ly0tXZukV28f97GK_bottom_outline)" transform="translate(219000,0) scale(-1,1)"><rect x="101000" y="-75000" width="17000" height="19000" fill="currentColor" class="k1Z9Ly0tXZukV28f97GK_fr4"/><use xlink:href="#k1Z9Ly0tXZukV28f97GK_bottom_copper" fill="currentColor" stroke="currentColor" class="k1Z9Ly0tXZukV28f97GK_cu"/><use xlink:href="#k1Z9Ly0tXZukV28f97GK_bottom_copper" fill="currentColor" stroke="currentColor" class="k1Z9Ly0tXZukV28f97GK_cf" mask="url(#k1Z9Ly0tXZukV28f97GK_bottom_cf-mask)"/><g mask="url(#k1Z9Ly0tXZukV28f97GK_bottom_sm-mask)"><rect x="101000" y="-75000" width="17000" height="19000" fill="currentColor" class="k1Z9Ly0tXZukV28f97GK_sm"/></g></g></g></svg>