<svg version="1.1" xmlns="http://www.w3.org/2000/svg" xmlns:xlink="http://www.w3.org/1999/xlink" stroke-linecap="round" stroke-linejoin="round" stroke-width="0" fill-rule="evenodd" clip-rule="evenodd" id="r0qRDW_QwHsOc_y9Ew9G_bottom" viewBox="101000 -75000 20000 19000" width="20mm" height="19mm" class="w-100 h-100"><defs><style>.r0qRDW_QwHsOc_y9Ew9G_fr4 {color: #666666;}
.r0qRDW_QwHsOc_y9Ew9G_cu {color: #cccccc;}
.r0qRDW_QwHsOc_y9Ew9G_cf {color: #cc9933;}
.r0qRDW_QwHsOc_y9Ew9G_sm {color: #004200; opacity: 0.75;}
.r0qRDW_QwHsOc_y9Ew9G_ss {color: #ffffff;}
.r0qRDW_QwHsOc_y9Ew9G_sp {color: #999999;}
.r0qRDW_QwHsOc_y9Ew9G_out {color: #000000;}</style><rect x="-1050" y="-1050" width="2100" height="2100" rx="1050" ry="1050" id="ZFcpBOsdPT5l-ufnBTu-_pad-10"/><rect x="-1000" y="-1350" width="2000" height="2700" rx="1000" ry="1000" id="ZFcpBOsdPT5l-ufnBTu-_pad-11"/><rect x="-1000" y="-1450" width="2000" height="2900" rx="1000" ry="1000" id="ZFcpBOsdPT5l-ufnBTu-_pad-12"/><rect x="-950" y="-1450" width="1900" height="2900" rx="950" ry="950" id="ZFcpBOsdPT5l-ufnBTu-_pad-13"/><circle cx="0" cy="0" r="1700" id="ZFcpBOsdPT5l-ufnBTu-_pad-14"/><rect x="-850" y="-850" width="1700" height="1700" rx="850" ry="850" id="xMeNZhL2hKI_fRxQJMMY_pad-10"/><rect x="-800" y="-1150" width="1600" height="2300" rx="800" ry="800" id="xMeNZhL2hKI_fRxQJMMY_pad-11"/><rect x="-800" y="-1250" width="1600" height="2500" rx="800" ry="800" id="xMeNZhL2hKI_fRxQJMMY_pad-12"/><rect x="-750" y="-1250" width="1500" height="2500" rx="750" ry="750" id="xMeNZhL2hKI_fRxQJMMY_pad-13"/><circle cx="0" cy="0" r="175" id="xMeNZhL2hKI_fRxQJMMY_pad-15"/><rect x="-300" y="-650" width="600" height="1300" rx="300" ry="300" id="xMeNZhL2hKI_fRxQJMMY_pad-16"/><rect x="-300" y="-750" width="600" height="1500" rx="300" ry="300" id="xMeNZhL2hKI_fRxQJMMY_pad-17"/><rect x="-250" y="-750" width="500" height="1500" rx="250" ry="250" id="xMeNZhL2hKI_fRxQJMMY_pad-18"/><circle cx="0" cy="0" r="500" id="zJMuXMU6tsVxB439zihp_pad-3"/><circle cx="0" cy="0" r="1500" id="zJMuXMU6tsVxB439zihp_pad-4"/><g id="r0qRDW_QwHsOc_y9Ew9G_bottom_soldermask"><use xlink:href="#ZFcpBOsdPT5l-ufnBTu-_pad-10" x="116340" y="-73160"/><use xlink:href="#ZFcpBOsdPT5l-ufnBTu-_pad-10" x="113800" y="-73160"/><use xlink:href="#ZFcpBOsdPT5l-ufnBTu-_pad-10" x="111260" y="-73160"/><use xlink:href="#ZFcpBOsdPT5l-ufnBTu-_pad-10" x="108720" y="-73160"/><use xlink:href="#ZFcpBOsdPT5l-ufnBTu-_pad-10" x="106180" y="-73160"/><use xlink:href="#ZFcpBOsdPT5l-ufnBTu-_pad-10" x="103640" y="-73160"/><use xlink:href="#ZFcpBOsdPT5l-ufnBTu-_pad-10" x="103640" y="-57920"/><use xlink:href="#ZFcpBOsdPT5l-ufnBTu-_pad-10" x="106180" y="-57920"/><use xlink:href="#ZFcpBOsdPT5l-ufnBTu-_pad-10" x="108720" y="-57920"/><use xlink:href="#ZFcpBOsdPT5l-ufnBTu-_pad-10" x="111260" y="-57920"/><use xlink:href="#ZFcpBOsdPT5l-ufnBTu-_pad-10" x="113800" y="-57920"/><use xlink:href="#ZFcpBOsdPT5l-ufnBTu-_pad-10" x="116340" y="-57920"/><use xlink:href="#ZFcpBOsdPT5l-ufnBTu-_pad-11" x="102875" y="-65540"/><use xlink:href="#ZFcpBOsdPT5l-ufnBTu-_pad-12" x="105975" y="-65540"/><use xlink:href="#ZFcpBOsdPT5l-ufnBTu-_pad-13" x="114275" y="-65540"/><use xlink:href="#ZFcpBOsdPT5l-ufnBTu-_pad-14" x="109355" y="-65540"/></g><g id="r0qRDW_QwHsOc_y9Ew9G_bottom_copper"><use xlink:href="#xMeNZhL2hKI_fRxQJMMY_pad-10" x="116340" y="-73160"/><use xlink:href="#xMeNZhL2hKI_fRxQJMMY_pad-10" x="113800" y="-73160"/><use xlink:href="#xMeNZhL2hKI_fRxQJMMY_pad-10" x="111260" y="-73160"/><use xlink:href="#xMeNZhL2hKI_fRxQJMMY_pad-10" x="108720" y="-73160"/><use xlink:href="#xMeNZhL2hKI_fRxQJMMY_pad-10" x="106180" y="-73160"/><use xlink:href="#xMeNZhL2hKI_fRxQJMMY_pad-10" x="103640" y="-73160"/><use xlink:href="#xMeNZhL2hKI_fRxQJMMY_pad-10" x="103640" y="-57920"/><use xlink:href="#xMeNZhL2hKI_fRxQJMMY_pad-10" x="106180" y="-57920"/><use xlink:href="#xMeNZhL2hKI_fRxQJMMY_pad-10" x="108720" y="-57920"/><use xlink:href="#xMeNZhL2hKI_fRxQJMMY_pad-10" x="111260" y="-57920"/><use xlink:href="#xMeNZhL2hKI_fRxQJMMY_pad-10" x="113800" y="-57920"/><use xlink:href="#xMeNZhL2hKI_fRxQJMMY_pad-10" x="116340" y="-57920"/><use xlink:href="#xMeNZhL2hKI_fRxQJMMY_pad-11" x="102875" y="-65540"/><use xlink:href="#xMeNZhL2hKI_fRxQJMMY_pad-12" x="105975" y="-65540"/><use xlink:href="#xMeNZhL2hKI_fRxQJMMY_pad-13" x="114275" y="-65540"/><path d="M 102444.817 -57038.642 102198.514 -57563.108 102319.181 -57793 103513 -57793 103513 -57773 103767 -57773 103767 -57793 106053 -57793 106053 -57773 106307 -57773 106307 -57793 108593 -57793 108593 -57773 108847 -57773 108847 -57793 111133 -57793 111133 -57773 111387 -57773 111387 -57793 111407 -57793 111407 -58047 111387 -58047 111387 -59240.155 111616.89 -59361.476 112026.924 -59191.645 112455.183 -58801.358 112516.157 -58671.522 112729.375 -58990.625 113220.582 -59318.839 113653.744 -59405 113946.256 -59405 114379.418 -59318.839 114870.625 -58990.625 115070 -58692.239 115269.375 -58990.625 115760.582 -59318.839 116193.744 -59405 116486.256 -59405 116919.418 -59318.839 117410.625 -58990.625 117738.839 -58499.418 117854.092 -57920 117738.839 -57340.582 117410.625 -56849.375 117202.036 -56710 120290.001 -56710 120290 -74290 117262.35 -74290 117535.183 -74041.358 117781.486 -73516.892 117660.819 -73287 116467 -73287 116467 -73307 116213 -73307 116213 -73287 113927 -73287 113927 -73307 113673 -73307 113673 -73287 111387 -73287 111387 -73307 111133 -73307 111133 -73287 108847 -73287 108847 -73307 108593 -73307 108593 -73287 106307 -73287 106307 -73307 106053 -73307 106053 -73287 103767 -73287 103767 -73307 103513 -73307 103513 -73287 102319.181 -73287 102198.514 -73516.892 102444.817 -74041.358 102717.65 -74290 101710 -74290 101710 -72803.108 102198.514 -72803.108 102319.181 -73033 103513 -73033 103513 -71839.845 103767 -71839.845 103767 -73033 106053 -73033 106053 -71839.845 106307 -71839.845 106307 -73033 108593 -73033 108593 -71839.845 108847 -71839.845 108847 -73033 111133 -73033 111133 -71839.845 111387 -71839.845 111387 -73033 113673 -73033 113673 -71839.845 113927 -71839.845 113927 -73033 116213 -73033 116213 -71839.845 116467 -71839.845 116467 -73033 117660.819 -73033 117781.486 -72803.108 117535.183 -72278.642 117106.924 -71888.355 116696.89 -71718.524 116467 -71839.845 116213 -71839.845 115983.11 -71718.524 115573.076 -71888.355 115144.817 -72278.642 115070 -72437.954 114995.183 -72278.642 114566.924 -71888.355 114156.89 -71718.524 113927 -71839.845 113673 -71839.845 113443.11 -71718.524 113033.076 -71888.355 112604.817 -72278.642 112530 -72437.954 112455.183 -72278.642 112026.924 -71888.355 111616.89 -71718.524 111387 -71839.845 111133 -71839.845 110903.11 -71718.524 110493.076 -71888.355 110064.817 -72278.642 109990 -72437.954 109915.183 -72278.642 109486.924 -71888.355 109076.89 -71718.524 108847 -71839.845 108593 -71839.845 108363.11 -71718.524 107953.076 -71888.355 107524.817 -72278.642 107450 -72437.954 107375.183 -72278.642 106946.924 -71888.355 106536.89 -71718.524 106307 -71839.845 106053 -71839.845 105823.11 -71718.524 105413.076 -71888.355 104984.817 -72278.642 104910 -72437.954 104835.183 -72278.642 104406.924 -71888.355 103996.89 -71718.524 103767 -71839.845 103513 -71839.845 103283.11 -71718.524 102873.076 -71888.355 102444.817 -72278.642 102198.514 -72803.108 101710 -72803.108 101710 -66695.952 101950.104 -66994.5 102443.181 -67264.367 102525.961 -67281.904 102748 -67159.915 102748 -65667 103002 -65667 103002 -67159.915 103224.039 -67281.904 103306.819 -67264.367 103799.896 -66994.5 104152.166 -66556.483 104310 -66017 104310 -65667 103002 -65667 102748 -65667 102728 -65667 102728 -65413 102748 -65413 102748 -63920.085 103002 -63920.085 103002 -65413 104310 -65413 104310 -65063 104276.551 -64948.667 104540 -64948.667 104540 -66131.332 104623.26 -66549.908 104940.423 -67024.576 105415.091 -67341.74 105975 -67453.113 106534.908 -67341.74 107009.576 -67024.577 107326.74 -66549.909 107370.755 -66328.632 107545.034 -66749.38 108145.62 -67349.966 108930.322 -67675 109779.678 -67675 110564.38 -67349.966 111164.966 -66749.38 111490 -65964.678 111490 -65115.322 111402.3 -64903.593 112890 -64903.593 112890 -66176.406 112970.359 -66580.399 113276.471 -67038.528 113734.6 -67344.641 114275 -67452.133 114815.399 -67344.641 115273.528 -67038.529 115579.641 -66580.4 115660 -66176.407 115660 -64903.593 115579.641 -64499.6 115273.529 -64041.471 114815.4 -63735.359 114275 -63627.867 113734.601 -63735.359 113276.472 -64041.471 112970.359 -64499.6 112890 -64903.593 111402.3 -64903.593 111164.966 -64330.62 110564.38 -63730.034 109779.678 -63405 108930.322 -63405 108145.62 -63730.034 107545.034 -64330.62 107370.755 -64751.368 107326.74 -64530.091 107009.577 -64055.423 106534.909 -63738.26 105975 -63626.887 105415.092 -63738.26 104940.424 -64055.423 104623.26 -64530.091 104540 -64948.667 104276.551 -64948.667 104152.166 -64523.517 103799.896 -64085.5 103306.819 -63815.633 103224.039 -63798.096 103002 -63920.085 102748 -63920.085 102525.961 -63798.096 102443.181 -63815.633 101950.104 -64085.5 101710 -64384.048 101710 -58276.892 102198.514 -58276.892 102444.817 -58801.358 102873.076 -59191.645 103283.11 -59361.476 103513 -59240.155 103513 -58047 103767 -58047 103767 -59240.155 103996.89 -59361.476 104406.924 -59191.645 104835.183 -58801.358 104910 -58642.046 104984.817 -58801.358 105413.076 -59191.645 105823.11 -59361.476 106053 -59240.155 106053 -58047 106307 -58047 106307 -59240.155 106536.89 -59361.476 106946.924 -59191.645 107375.183 -58801.358 107450 -58642.046 107524.817 -58801.358 107953.076 -59191.645 108363.11 -59361.476 108593 -59240.155 108593 -58047 108847 -58047 108847 -59240.155 109076.89 -59361.476 109486.924 -59191.645 109915.183 -58801.358 109990 -58642.046 110064.817 -58801.358 110493.076 -59191.645 110903.11 -59361.476 111133 -59240.155 111133 -58047 108847 -58047 108593 -58047 106307 -58047 106053 -58047 103767 -58047 103513 -58047 102319.181 -58047 102198.514 -58276.892 101710 -58276.892 101710 -56710 102805.433 -56710 102444.817 -57038.642 102444.817 -57038.642"/><path d="M 102444.817 -57038.642 102198.514 -57563.108 102319.181 -57793 103513 -57793 103513 -57773 103767 -57773 103767 -57793 106053 -57793 106053 -57773 106307 -57773 106307 -57793 108593 -57793 108593 -57773 108847 -57773 108847 -57793 111133 -57793 111133 -57773 111387 -57773 111387 -57793 111407 -57793 111407 -58047 111387 -58047 111387 -59240.155 111616.89 -59361.476 112026.924 -59191.645 112455.183 -58801.358 112516.157 -58671.522 112729.375 -58990.625 113220.582 -59318.839 113653.744 -59405 113946.256 -59405 114379.418 -59318.839 114870.625 -58990.625 115070 -58692.239 115269.375 -58990.625 115760.582 -59318.839 116193.744 -59405 116486.256 -59405 116919.418 -59318.839 117410.625 -58990.625 117738.839 -58499.418 117854.092 -57920 117738.839 -57340.582 117410.625 -56849.375 117202.036 -56710 120290.001 -56710 120290 -74290 117262.35 -74290 117535.183 -74041.358 117781.486 -73516.892 117660.819 -73287 116467 -73287 116467 -73307 116213 -73307 116213 -73287 113927 -73287 113927 -73307 113673 -73307 113673 -73287 111387 -73287 111387 -73307 111133 -73307 111133 -73287 108847 -73287 108847 -73307 108593 -73307 108593 -73287 106307 -73287 106307 -73307 106053 -73307 106053 -73287 103767 -73287 103767 -73307 103513 -73307 103513 -73287 102319.181 -73287 102198.514 -73516.892 102444.817 -74041.358 102717.65 -74290 101710 -74290 101710 -72803.108 102198.514 -72803.108 102319.181 -73033 103513 -73033 103513 -71839.845 103767 -71839.845 103767 -73033 106053 -73033 106053 -71839.845 106307 -71839.845 106307 -73033 108593 -73033 108593 -71839.845 108847 -71839.845 108847 -73033 111133 -73033 111133 -71839.845 111387 -71839.845 111387 -73033 113673 -73033 113673 -71839.845 113927 -71839.845 113927 -73033 116213 -73033 116213 -71839.845 116467 -71839.845 116467 -73033 117660.819 -73033 117781.486 -72803.108 117535.183 -72278.642 117106.924 -71888.355 116696.89 -71718.524 116467 -71839.845 116213 -71839.845 115983.11 -71718.524 115573.076 -71888.355 115144.817 -72278.642 115070 -72437.954 114995.183 -72278.642 114566.924 -71888.355 114156.89 -71718.524 113927 -71839.845 113673 -71839.845 113443.11 -71718.524 113033.076 -71888.355 112604.817 -72278.642 112530 -72437.954 112455.183 -72278.642 112026.924 -71888.355 111616.89 -71718.524 111387 -71839.845 111133 -71839.845 110903.11 -71718.524 110493.076 -71888.355 110064.817 -72278.642 109990 -72437.954 109915.183 -72278.642 109486.924 -71888.355 109076.89 -71718.524 108847 -71839.845 108593 -71839.845 108363.11 -71718.524 107953.076 -71888.355 107524.817 -72278.642 107450 -72437.954 107375.183 -72278.642 106946.924 -71888.355 106536.89 -71718.524 106307 -71839.845 106053 -71839.845 105823.11 -71718.524 105413.076 -71888.355 104984.817 -72278.642 104910 -72437.954 104835.183 -72278.642 104406.924 -71888.355 103996.89 -71718.524 103767 -71839.845 103513 -71839.845 103283.11 -71718.524 102873.076 -71888.355 102444.817 -72278.642 102198.514 -72803.108 101710 -72803.108 101710 -66695.952 101950.104 -66994.5 102443.181 -67264.367 102525.961 -67281.904 102748 -67159.915 102748 -65667 103002 -65667 103002 -67159.915 103224.039 -67281.904 103306.819 -67264.367 103799.896 -66994.5 104152.166 -66556.483 104310 -66017 104310 -65667 103002 -65667 102748 -65667 102728 -65667 102728 -65413 102748 -65413 102748 -63920.085 103002 -63920.085 103002 -65413 104310 -65413 104310 -65063 104276.551 -64948.667 104540 -64948.667 104540 -66131.332 104623.26 -66549.908 104940.423 -67024.576 105415.091 -67341.74 105975 -67453.113 106534.908 -67341.74 107009.576 -67024.577 107326.74 -66549.909 107370.755 -66328.632 107545.034 -66749.38 108145.62 -67349.966 108930.322 -67675 109779.678 -67675 110564.38 -67349.966 111164.966 -66749.38 111490 -65964.678 111490 -65115.322 111402.3 -64903.593 112890 -64903.593 112890 -66176.406 112970.359 -66580.399 113276.471 -67038.528 113734.6 -67344.641 114275 -67452.133 114815.399 -67344.641 115273.528 -67038.529 115579.641 -66580.4 115660 -66176.407 115660 -64903.593 115579.641 -64499.6 115273.529 -64041.471 114815.4 -63735.359 114275 -63627.867 113734.601 -63735.359 113276.472 -64041.471 112970.359 -64499.6 112890 -64903.593 111402.3 -64903.593 111164.966 -64330.62 110564.38 -63730.034 109779.678 -63405 108930.322 -63405 108145.62 -63730.034 107545.034 -64330.62 107370.755 -64751.368 107326.74 -64530.091 107009.577 -64055.423 106534.909 -63738.26 105975 -63626.887 105415.092 -63738.26 104940.424 -64055.423 104623.26 -64530.091 104540 -64948.667 104276.551 -64948.667 104152.166 -64523.517 103799.896 -64085.5 103306.819 -63815.633 103224.039 -63798.096 103002 -63920.085 102748 -63920.085 102525.961 -63798.096 102443.181 -63815.633 101950.104 -64085.5 101710 -64384.048 101710 -58276.892 102198.514 -58276.892 102444.817 -58801.358 102873.076 -59191.645 103283.11 -59361.476 103513 -59240.155 103513 -58047 103767 -58047 103767 -59240.155 103996.89 -59361.476 104406.924 -59191.645 104835.183 -58801.358 104910 -58642.046 104984.817 -58801.358 105413.076 -59191.645 105823.11 -59361.476 106053 -59240.155 106053 -58047 106307 -58047 106307 -59240.155 106536.89 -59361.476 106946.924 -59191.645 107375.183 -58801.358 107450 -58642.046 107524.817 -58801.358 107953.076 -59191.645 108363.11 -59361.476 108593 -59240.155 108593 -58047 108847 -58047 108847 -59240.155 109076.89 -59361.476 109486.924 -59191.645 109915.183 -58801.358 109990 -58642.046 110064.817 -58801.358 110493.076 -59191.645 110903.11 -59361.476 111133 -59240.155 111133 -58047 108847 -58047 108593 -58047 106307 -58047 106053 -58047 103767 -58047 103513 -58047 102319.181 -58047 102198.514 -58276.892 101710 -58276.892 101710 -56710 102805.433 -56710 102444.817 -57038.642" fill="none" stroke-width="254"/><use xlink:href="#xMeNZhL2hKI_fRxQJMMY_pad-15" x="116340" y="-73160"/><use xlink:href="#xMeNZhL2hKI_fRxQJMMY_pad-15" x="113800" y="-73160"/><use xlink:href="#xMeNZhL2hKI_fRxQJMMY_pad-15" x="111260" y="-73160"/><use xlink:href="#xMeNZhL2hKI_fRxQJMMY_pad-15" x="108720" y="-73160"/><use xlink:href="#xMeNZhL2hKI_fRxQJMMY_pad-15" x="106180" y="-73160"/><use xlink:href="#xMeNZhL2hKI_fRxQJMMY_pad-15" x="103640" y="-73160"/><use xlink:href="#xMeNZhL2hKI_fRxQJMMY_pad-15" x="103640" y="-57920"/><use xlink:href="#xMeNZhL2hKI_fRxQJMMY_pad-15" x="106180" y="-57920"/><use xlink:href="#xMeNZhL2hKI_fRxQJMMY_pad-15" x="108720" y="-57920"/><use xlink:href="#xMeNZhL2hKI_fRxQJMMY_pad-15" x="111260" y="-57920"/><use xlink:href="#xMeNZhL2hKI_fRxQJMMY_pad-15" x="113800" y="-57920"/><use xlink:href="#xMeNZhL2hKI_fRxQJMMY_pad-15" x="116340" y="-57920"/><use xlink:href="#xMeNZhL2hKI_fRxQJMMY_pad-16" x="102875" y="-65540"/><use xlink:href="#xMeNZhL2hKI_fRxQJMMY_pad-17" x="105975" y="-65540"/><use xlink:href="#xMeNZhL2hKI_fRxQJMMY_pad-18" x="114275" y="-65540"/><use xlink:href="#xMeNZhL2hKI_fRxQJMMY_pad-15" x="109355" y="-65540"/></g><g id="r0qRDW_QwHsOc_y9Ew9G_bottom_drill1"><use xlink:href="#zJMuXMU6tsVxB439zihp_pad-3" x="103640" y="-57920"/><use xlink:href="#zJMuXMU6tsVxB439zihp_pad-3" x="106180" y="-57920"/><use xlink:href="#zJMuXMU6tsVxB439zihp_pad-3" x="108720" y="-57920"/><use xlink:href="#zJMuXMU6tsVxB439zihp_pad-3" x="111260" y="-57920"/><use xlink:href="#zJMuXMU6tsVxB439zihp_pad-3" x="113800" y="-57920"/><use xlink:href="#zJMuXMU6tsVxB439zihp_pad-3" x="116340" y="-57920"/><use xlink:href="#zJMuXMU6tsVxB439zihp_pad-3" x="103640" y="-73160"/><use xlink:href="#zJMuXMU6tsVxB439zihp_pad-3" x="106180" y="-73160"/><use xlink:href="#zJMuXMU6tsVxB439zihp_pad-3" x="108720" y="-73160"/><use xlink:href="#zJMuXMU6tsVxB439zihp_pad-3" x="111260" y="-73160"/><use xlink:href="#zJMuXMU6tsVxB439zihp_pad-3" x="113800" y="-73160"/><use xlink:href="#zJMuXMU6tsVxB439zihp_pad-3" x="116340" y="-73160"/><use xlink:href="#zJMuXMU6tsVxB439zihp_pad-4" x="109355" y="-65540"/><path d="M 114275 -65040 114275 -66040" fill="none" stroke-width="500"/><path d="M 102875 -65190 102875 -65890 M 105975 -65090 105975 -65990" fill="none" stroke-width="600"/></g><clipPath id="r0qRDW_QwHsOc_y9Ew9G_bottom_outline"><path d="M 101000 -56000 101000 -75000 121000 -75000 121000 -56000 101000 -56000" fill="none" stroke-width="150"/></clipPath><mask id="r0qRDW_QwHsOc_y9Ew9G_bottom_mech-mask"><g fill="#000" stroke="#000"><rect x="101000" y="-75000" width="20000" height="19000" fill="#fff"/><use xlink:href="#r0qRDW_QwHsOc_y9Ew9G_bottom_drill1"/></g></mask><mask id="r0qRDW_QwHsOc_y9Ew9G_bottom_cf-mask"><g fill="#fff" stroke="#fff"><use xlink:href="#r0qRDW_QwHsOc_y9Ew9G_bottom_soldermask"/></g></mask><mask id="r0qRDW_QwHsOc_y9Ew9G_bottom_sm-mask"><g fill="#000" stroke="#000"><rect x="101000" y="-75000" width="20000" height="19000" fill="#fff"/><use xlink:href="#r0qRDW_QwHsOc_y9Ew9G_bottom_soldermask"/></g></mask></defs><g transform="translate(0,-131000) scale(1,-1)"><g mask="url(#r0qRDW_QwHsOc_y9Ew9G_bottom_mech-mask)" clip-path="url(#r0qRDW_QwHsOc_y9Ew9G_bottom_outline)" transform="translate(222000,0) scale(-1,1)"><rect x="101000" y="-75000" width="20000" height="19000" fill="currentColor" class="r0qRDW_QwHsOc_y9Ew9G_fr4"/><use xlink:href="#r0qRDW_QwHsOc_y9Ew9G_bottom_copper" fill="currentColor" stroke="currentColor" class="r0qRDW_QwHsOc_y9Ew9G_cu"/><use xlink:href="#r0qRDW_QwHsOc_y9Ew9G_bottom_copper" fill="currentColor" stroke="currentColor" class="r0qRDW_QwHsOc_y9Ew9G_cf" mask="url(#r0qRDW_QwHsOc_y9Ew9G_bottom_cf-mask)"/><g mask="url(#r0qRDW_QwHsOc_y9Ew9G_bottom_sm-mask)"><rect x="101000" y="-75000" width="20000" height="19000" fill="currentColor" class="r0qRDW_QwHsOc_y9Ew9G_sm"/></g></g></g></svg>