<?xml version="1.0" encoding="UTF-8" standalone="no"?>
<svg
   xmlns:dc="http://purl.org/dc/elements/1.1/"
   xmlns:cc="http://creativecommons.org/ns#"
   xmlns:rdf="http://www.w3.org/1999/02/22-rdf-syntax-ns#"
   xmlns:svg="http://www.w3.org/2000/svg"
   xmlns="http://www.w3.org/2000/svg"
   xmlns:sodipodi="http://sodipodi.sourceforge.net/DTD/sodipodi-0.dtd"
   xmlns:inkscape="http://www.inkscape.org/namespaces/inkscape"
   version="1.1"
   id="svg10"
   xml:space="preserve"
   width="8.9999952mm"
   height="8.9999952mm"
   viewBox="0 0 34.015732 34.015732"
   sodipodi:docname="dailywell.2ms.1.svg"
   inkscape:version="1.0.2 (e86c8708, 2021-01-15)"><metadata
     id="metadata16"><rdf:RDF><cc:Work
         rdf:about=""><dc:format>image/svg+xml</dc:format><dc:type
           rdf:resource="http://purl.org/dc/dcmitype/StillImage" /><dc:title></dc:title></cc:Work></rdf:RDF></metadata><defs
     id="defs14"><clipPath
       clipPathUnits="userSpaceOnUse"
       id="clipPath30"><path
         d="M 0,25.512 H 25.512 V 0 H 0 Z"
         id="path28" /></clipPath></defs><sodipodi:namedview
     pagecolor="#ffffff"
     bordercolor="#666666"
     borderopacity="1"
     objecttolerance="10"
     gridtolerance="10"
     guidetolerance="10"
     inkscape:pageopacity="0"
     inkscape:pageshadow="2"
     inkscape:window-width="742"
     inkscape:window-height="480"
     id="namedview12"
     showgrid="false"
     inkscape:document-units="mm"
     units="mm"
     inkscape:zoom="29.633347"
     inkscape:cx="17.007866"
     inkscape:cy="17.007866"
     inkscape:window-x="0"
     inkscape:window-y="23"
     inkscape:window-maximized="0"
     inkscape:current-layer="g18" /><g
     id="g18"
     inkscape:groupmode="layer"
     inkscape:label="dailywell.2ms.1"
     transform="matrix(1.3333333,0,0,-1.3333333,0,34.015733)"><g
       id="g20"
       transform="translate(2.8345,18.484)"><path
         d="m 0,0 v -11.456 l 9.921,-5.728 9.922,5.728 V 0 L 9.921,5.728 Z"
         style="fill:#b3b3b3;fill-opacity:1;fill-rule:nonzero;stroke:none"
         id="path22" /></g><g
       id="g24"><g
         id="g26"
         clip-path="url(#clipPath30)"><g
           id="g32"
           transform="translate(3.8975,18.5064)"><path
             d="m 0,0 c -0.303,-0.175 -0.551,-0.604 -0.551,-0.955 v -9.592 c 0,-0.349 0.248,-0.779 0.551,-0.954 l 8.307,-4.796 c 0.303,-0.176 0.799,-0.176 1.103,0 l 8.307,4.796 c 0.303,0.175 0.551,0.605 0.551,0.954 v 9.592 c 0,0.351 -0.248,0.78 -0.551,0.955 L 9.41,4.796 c -0.304,0.175 -0.8,0.175 -1.103,0 z"
             style="fill:#dbdbdb;fill-opacity:1;fill-rule:nonzero;stroke:none"
             id="path34" /></g><g
           id="g36"
           transform="translate(12.7559,20.7306)"><path
             d="m 0,0 c 4.404,0 7.975,-3.57 7.975,-7.975 0,-4.404 -3.571,-7.974 -7.975,-7.974 -4.404,0 -7.975,3.57 -7.975,7.974 C -7.975,-3.57 -4.404,0 0,0"
             style="fill:#565656;fill-opacity:1;fill-rule:nonzero;stroke:none"
             id="path38" /></g><g
           id="g40"
           transform="translate(12.7559,20.2662)"><path
             d="m 0,0 c 4.148,0 7.51,-3.363 7.51,-7.51 0,-4.148 -3.362,-7.511 -7.51,-7.511 -4.147,0 -7.51,3.363 -7.51,7.511 C -7.51,-3.363 -4.147,0 0,0"
             style="fill:#dbdbdb;fill-opacity:1;fill-rule:nonzero;stroke:none"
             id="path42" /></g><g
           id="g44"
           transform="translate(12.7559,19.7569)"><path
             d="m 0,0 c 3.867,0 7.001,-3.134 7.001,-7.001 0,-3.867 -3.134,-7.001 -7.001,-7.001 -3.867,0 -7.001,3.134 -7.001,7.001 C -7.001,-3.134 -3.867,0 0,0"
             style="fill:#c4c4c4;fill-opacity:1;fill-rule:nonzero;stroke:none"
             id="path46" /></g><g
           id="g48"
           transform="translate(12.7559,18.1021)"><path
             d="m 0,0 c 2.953,0 5.346,-2.394 5.346,-5.346 0,-2.953 -2.393,-5.346 -5.346,-5.346 -2.953,0 -5.346,2.393 -5.346,5.346 C -5.346,-2.394 -2.953,0 0,0"
             style="fill:#404040;fill-opacity:1;fill-rule:nonzero;stroke:none"
             id="path50" /></g><g
           id="g52"
           transform="translate(12.7559,17.5929)"><path
             d="m 0,0 c 2.671,0 4.837,-2.166 4.837,-4.837 0,-2.671 -2.166,-4.837 -4.837,-4.837 -2.671,0 -4.837,2.166 -4.837,4.837 C -4.837,-2.166 -2.671,0 0,0"
             style="fill:#121212;fill-opacity:1;fill-rule:nonzero;stroke:none"
             id="path54" /></g><g
           id="g56"
           transform="translate(16.3701,5.8736)"><path
             d="m 0,0 c 0,-1.996 -1.618,-3.614 -3.614,-3.614 -1.996,0 -3.615,1.618 -3.615,3.614 l 0.711,6.882 c 0,1.604 1.3,2.904 2.904,2.904 1.604,0 2.904,-1.3 2.904,-2.904 z"
             style="fill:#b3b3b3;fill-opacity:1;fill-rule:nonzero;stroke:none"
             id="path58" /></g><g
           id="g60"
           transform="translate(16.3701,5.8736)"><path
             d="m 0,0 c 0,-1.996 -1.618,-3.614 -3.614,-3.614 -1.996,0 -3.615,1.618 -3.615,3.614 l 0.711,6.882 c 0,1.604 1.3,2.904 2.904,2.904 1.604,0 2.904,-1.3 2.904,-2.904 z"
             style="fill:none;stroke:#5c5c5c;stroke-width:0.25;stroke-linecap:butt;stroke-linejoin:miter;stroke-miterlimit:10;stroke-dasharray:none;stroke-opacity:1"
             id="path62" /></g><g
           id="g64"
           transform="translate(15.9165,6.3614)"><path
             d="m 0,0 c 0,-1.746 -1.415,-3.161 -3.161,-3.161 -1.745,0 -3.16,1.415 -3.16,3.161 L -5.7,6.759 c 0,1.403 1.137,2.539 2.539,2.539 1.403,0 2.54,-1.136 2.54,-2.539 z"
             style="fill:#878787;fill-opacity:1;fill-rule:nonzero;stroke:none"
             id="path66" /></g><g
           id="g68"
           transform="translate(15.3745,6.5553)"><path
             d="m 0,0 c 0,-1.446 -1.172,-2.619 -2.619,-2.619 -1.446,0 -2.618,1.173 -2.618,2.619 l 0.265,6.876 c 0,1.3 1.054,2.353 2.353,2.353 1.3,0 2.354,-1.053 2.354,-2.353 z"
             style="fill:#c2c2c2;fill-opacity:1;fill-rule:nonzero;stroke:none"
             id="path70" /></g><g
           id="g72"
           transform="translate(14.479,7.1744)"><path
             d="m 0,0 c 0,-0.589 -0.771,-0.597 -1.723,-0.597 -0.952,0 -1.723,0.008 -1.723,0.597 0,0.589 0.771,1.437 1.723,1.437 C -0.771,1.437 0,0.589 0,0"
             style="fill:#dbdbdb;fill-opacity:1;fill-rule:nonzero;stroke:none"
             id="path74" /></g></g></g></g></svg>
