<?xml version="1.0" encoding="UTF-8" standalone="no"?>
<svg
   xmlns:dc="http://purl.org/dc/elements/1.1/"
   xmlns:cc="http://creativecommons.org/ns#"
   xmlns:rdf="http://www.w3.org/1999/02/22-rdf-syntax-ns#"
   xmlns:svg="http://www.w3.org/2000/svg"
   xmlns="http://www.w3.org/2000/svg"
   xmlns:sodipodi="http://sodipodi.sourceforge.net/DTD/sodipodi-0.dtd"
   xmlns:inkscape="http://www.inkscape.org/namespaces/inkscape"
   version="1.1"
   id="svg562"
   xml:space="preserve"
   width="15.75001mm"
   height="15.75001mm"
   viewBox="0 0 59.527599 59.527599"
   sodipodi:docname="rogan.2ps.svg"
   inkscape:version="1.0.2 (e86c8708, 2021-01-15)"><metadata
     id="metadata568"><rdf:RDF><cc:Work
         rdf:about=""><dc:format>image/svg+xml</dc:format><dc:type
           rdf:resource="http://purl.org/dc/dcmitype/StillImage" /><dc:title></dc:title></cc:Work></rdf:RDF></metadata><defs
     id="defs566"><clipPath
       clipPathUnits="userSpaceOnUse"
       id="clipPath578"><path
         d="M 0,44.646 H 44.646 V 0 H 0 Z"
         id="path576" /></clipPath></defs><sodipodi:namedview
     pagecolor="#ffffff"
     bordercolor="#666666"
     borderopacity="1"
     objecttolerance="10"
     gridtolerance="10"
     guidetolerance="10"
     inkscape:pageopacity="0"
     inkscape:pageshadow="2"
     inkscape:window-width="733"
     inkscape:window-height="480"
     id="namedview564"
     showgrid="false"
     inkscape:document-units="mm"
     units="mm"
     inkscape:zoom="16.933322"
     inkscape:cx="29.7638"
     inkscape:cy="29.7638"
     inkscape:window-x="0"
     inkscape:window-y="23"
     inkscape:window-maximized="0"
     inkscape:current-layer="g570" /><g
     id="g570"
     inkscape:groupmode="layer"
     inkscape:label="rogan.2ps"
     transform="matrix(1.3333333,0,0,-1.3333333,0,59.5276)"><g
       id="g572"><g
         id="g574"
         clip-path="url(#clipPath578)"><g
           id="g580"
           transform="translate(44.6455,22.3229)"><path
             d="m 0,0 c 0,-12.329 -9.994,-22.323 -22.323,-22.323 -12.328,0 -22.323,9.994 -22.323,22.323 0,12.329 9.995,22.323 22.323,22.323 C -9.994,22.323 0,12.329 0,0"
             style="fill:#565656;fill-opacity:1;fill-rule:nonzero;stroke:none"
             id="path582" /></g><g
           id="g584"
           transform="translate(42.1729,22.3229)"><path
             d="m 0,0 c 0,-10.963 -8.887,-19.85 -19.85,-19.85 -10.963,0 -19.85,8.887 -19.85,19.85 0,10.963 8.887,19.85 19.85,19.85 C -8.887,19.85 0,10.963 0,0"
             style="fill:#151515;fill-opacity:1;fill-rule:nonzero;stroke:none"
             id="path586" /></g><g
           id="g588"
           transform="translate(38.9644,22.3229)"><path
             d="m 0,0 c 0,-9.191 -7.451,-16.642 -16.642,-16.642 -9.191,0 -16.641,7.451 -16.641,16.642 0,9.191 7.45,16.642 16.641,16.642 C -7.451,16.642 0,9.191 0,0"
             style="fill:#565656;fill-opacity:1;fill-rule:nonzero;stroke:none"
             id="path590" /></g><g
           id="g592"
           transform="translate(36.8447,22.3229)"><path
             d="m 0,0 c 0,-8.021 -6.501,-14.522 -14.522,-14.522 -8.02,0 -14.522,6.501 -14.522,14.522 0,8.02 6.502,14.522 14.522,14.522 C -6.501,14.522 0,8.02 0,0"
             style="fill:#151515;fill-opacity:1;fill-rule:nonzero;stroke:none"
             id="path594" /></g><g
           id="g596"
           transform="translate(33.6294,22.3229)"><path
             d="m 0,0 c 0,-6.245 -5.062,-11.307 -11.307,-11.307 -6.244,0 -11.306,5.062 -11.306,11.307 0,6.245 5.062,11.307 11.306,11.307 C -5.062,11.307 0,6.245 0,0"
             style="fill:#eeeeee;fill-opacity:1;fill-rule:nonzero;stroke:none"
             id="path598" /></g><path
           d="m 25.158,43.317 h -5.669 v 1.329 h 5.669 z"
           style="fill:#dbdbdb;fill-opacity:1;fill-rule:nonzero;stroke:none"
           id="path600" /><path
           d="m 25.158,33.031 h -5.669 v 10.286 h 5.669 z"
           style="fill:#eeeeee;fill-opacity:1;fill-rule:nonzero;stroke:none"
           id="path602" /><g
           id="g604"
           transform="translate(33.6694,11.528)"><path
             d="m 0,0 -4.586,-3.332 -1.25,1.72 4.586,3.332 z"
             style="fill:#565656;fill-opacity:1;fill-rule:nonzero;stroke:none"
             id="path606" /></g><g
           id="g608"
           transform="translate(34.9189,9.8083)"><path
             d="m 0,0 -4.586,-3.333 -1.25,1.721 4.586,3.332 z"
             style="fill:#151515;fill-opacity:1;fill-rule:nonzero;stroke:none"
             id="path610" /></g><g
           id="g612"
           transform="translate(36.0957,29.7785)"><path
             d="M 0,0 1.752,-5.392 -0.27,-6.049 -2.022,-0.657 Z"
             style="fill:#565656;fill-opacity:1;fill-rule:nonzero;stroke:none"
             id="path614" /></g><g
           id="g616"
           transform="translate(38.1177,30.4352)"><path
             d="M 0,0 1.752,-5.392 -0.27,-6.049 -2.022,-0.657 Z"
             style="fill:#151515;fill-opacity:1;fill-rule:nonzero;stroke:none"
             id="path618" /></g><g
           id="g620"
           transform="translate(6.7983,24.3864)"><path
             d="M 0,0 1.752,5.392 3.773,4.735 2.022,-0.657 Z"
             style="fill:#565656;fill-opacity:1;fill-rule:nonzero;stroke:none"
             id="path622" /></g><g
           id="g624"
           transform="translate(4.7764,25.0436)"><path
             d="M 0,0 1.752,5.392 3.774,4.735 2.022,-0.657 Z"
             style="fill:#151515;fill-opacity:1;fill-rule:nonzero;stroke:none"
             id="path626" /></g><g
           id="g628"
           transform="translate(15.5625,8.196)"><path
             d="M 0,0 -4.586,3.332 -3.337,5.052 1.25,1.72 Z"
             style="fill:#565656;fill-opacity:1;fill-rule:nonzero;stroke:none"
             id="path630" /></g><g
           id="g632"
           transform="translate(14.313,6.4758)"><path
             d="M 0,0 -4.586,3.333 -3.337,5.052 1.25,1.72 Z"
             style="fill:#151515;fill-opacity:1;fill-rule:nonzero;stroke:none"
             id="path634" /></g></g></g></g></svg>
