<?xml version="1.0" encoding="UTF-8" standalone="no"?>
<svg
   xmlns:dc="http://purl.org/dc/elements/1.1/"
   xmlns:cc="http://creativecommons.org/ns#"
   xmlns:rdf="http://www.w3.org/1999/02/22-rdf-syntax-ns#"
   xmlns:svg="http://www.w3.org/2000/svg"
   xmlns="http://www.w3.org/2000/svg"
   xmlns:sodipodi="http://sodipodi.sourceforge.net/DTD/sodipodi-0.dtd"
   xmlns:inkscape="http://www.inkscape.org/namespaces/inkscape"
   version="1.1"
   id="svg292"
   xml:space="preserve"
   width="21.330002mm"
   height="21.330002mm"
   viewBox="0 0 80.617332 80.617332"
   sodipodi:docname="rogan.5ps.svg"
   inkscape:version="1.0.2 (e86c8708, 2021-01-15)"><metadata
     id="metadata298"><rdf:RDF><cc:Work
         rdf:about=""><dc:format>image/svg+xml</dc:format><dc:type
           rdf:resource="http://purl.org/dc/dcmitype/StillImage" /><dc:title></dc:title></cc:Work></rdf:RDF></metadata><defs
     id="defs296"><clipPath
       clipPathUnits="userSpaceOnUse"
       id="clipPath308"><path
         d="M 0,60.463 H 60.463 V 0 H 0 Z"
         id="path306" /></clipPath></defs><sodipodi:namedview
     pagecolor="#ffffff"
     bordercolor="#666666"
     borderopacity="1"
     objecttolerance="10"
     gridtolerance="10"
     guidetolerance="10"
     inkscape:pageopacity="0"
     inkscape:pageshadow="2"
     inkscape:window-width="716"
     inkscape:window-height="480"
     id="namedview294"
     showgrid="false"
     inkscape:document-units="mm"
     units="mm"
     inkscape:zoom="12.503515"
     inkscape:cx="40.308666"
     inkscape:cy="40.308666"
     inkscape:window-x="0"
     inkscape:window-y="23"
     inkscape:window-maximized="0"
     inkscape:current-layer="g300" /><g
     id="g300"
     inkscape:groupmode="layer"
     inkscape:label="rogan.5ps"
     transform="matrix(1.3333333,0,0,-1.3333333,0,80.617333)"><g
       id="g302"><g
         id="g304"
         clip-path="url(#clipPath308)"><g
           id="g310"
           transform="translate(60.4629,30.2316)"><path
             d="m 0,0 c 0,-16.696 -13.535,-30.231 -30.231,-30.231 -16.697,0 -30.232,13.535 -30.232,30.231 0,16.696 13.535,30.231 30.232,30.231 C -13.535,30.231 0,16.696 0,0"
             style="fill:#565656;fill-opacity:1;fill-rule:nonzero;stroke:none"
             id="path312" /></g><g
           id="g314"
           transform="translate(57.9951,30.2316)"><path
             d="m 0,0 c 0,-15.333 -12.43,-27.764 -27.764,-27.764 -15.333,0 -27.763,12.431 -27.763,27.764 0,15.333 12.43,27.764 27.763,27.764 C -12.43,27.764 0,15.333 0,0"
             style="fill:#151515;fill-opacity:1;fill-rule:nonzero;stroke:none"
             id="path316" /></g><g
           id="g318"
           transform="translate(54.8076,30.2316)"><path
             d="m 0,0 c 0,-13.573 -11.003,-24.576 -24.576,-24.576 -13.573,0 -24.577,11.003 -24.577,24.576 0,13.573 11.004,24.577 24.577,24.577 C -11.003,24.577 0,13.573 0,0"
             style="fill:#565656;fill-opacity:1;fill-rule:nonzero;stroke:none"
             id="path320" /></g><g
           id="g322"
           transform="translate(52.6807,30.2316)"><path
             d="m 0,0 c 0,-12.398 -10.051,-22.449 -22.449,-22.449 -12.399,0 -22.449,10.051 -22.449,22.449 0,12.398 10.05,22.449 22.449,22.449 C -10.051,22.449 0,12.398 0,0"
             style="fill:#151515;fill-opacity:1;fill-rule:nonzero;stroke:none"
             id="path324" /></g><g
           id="g326"
           transform="translate(49.4385,30.2316)"><path
             d="m 0,0 c 0,-10.608 -8.599,-19.207 -19.207,-19.207 -10.608,0 -19.207,8.599 -19.207,19.207 0,10.608 8.599,19.207 19.207,19.207 C -8.599,19.207 0,10.608 0,0"
             style="fill:#eeeeee;fill-opacity:1;fill-rule:nonzero;stroke:none"
             id="path328" /></g><path
           d="m 33.066,59.195 h -5.669 v 1.268 h 5.669 z"
           style="fill:#dbdbdb;fill-opacity:1;fill-rule:nonzero;stroke:none"
           id="path330" /><path
           d="m 33.066,48.681 h -5.669 v 10.514 h 5.669 z"
           style="fill:#eeeeee;fill-opacity:1;fill-rule:nonzero;stroke:none"
           id="path332" /><path
           d="m 33.066,6.919 h -5.669 v 2.126 h 5.669 z"
           style="fill:#565656;fill-opacity:1;fill-rule:nonzero;stroke:none"
           id="path334" /><path
           d="m 33.066,4.793 h -5.669 v 2.126 h 5.669 z"
           style="fill:#151515;fill-opacity:1;fill-rule:nonzero;stroke:none"
           id="path336" /><g
           id="g338"
           transform="translate(51.8379,21.0299)"><path
             d="m 0,0 -2.834,-4.91 -1.842,1.063 2.835,4.91 z"
             style="fill:#565656;fill-opacity:1;fill-rule:nonzero;stroke:none"
             id="path340" /></g><g
           id="g342"
           transform="translate(53.6797,19.9669)"><path
             d="m 0,0 -2.835,-4.91 -1.841,1.063 2.834,4.91 z"
             style="fill:#151515;fill-opacity:1;fill-rule:nonzero;stroke:none"
             id="path344" /></g><g
           id="g346"
           transform="translate(49.0039,44.3429)"><path
             d="m 0,0 2.834,-4.91 -1.841,-1.063 -2.835,4.91 z"
             style="fill:#565656;fill-opacity:1;fill-rule:nonzero;stroke:none"
             id="path348" /></g><g
           id="g350"
           transform="translate(50.8447,45.4059)"><path
             d="m 0,0 2.835,-4.91 -1.842,-1.063 -2.834,4.91 z"
             style="fill:#151515;fill-opacity:1;fill-rule:nonzero;stroke:none"
             id="path352" /></g><g
           id="g354"
           transform="translate(8.6245,39.4332)"><path
             d="M 0,0 2.835,4.91 4.676,3.847 1.841,-1.063 Z"
             style="fill:#565656;fill-opacity:1;fill-rule:nonzero;stroke:none"
             id="path356" /></g><g
           id="g358"
           transform="translate(6.7837,40.4962)"><path
             d="M 0,0 2.834,4.91 4.676,3.847 1.841,-1.063 Z"
             style="fill:#151515;fill-opacity:1;fill-rule:nonzero;stroke:none"
             id="path360" /></g><g
           id="g362"
           transform="translate(11.4595,16.1202)"><path
             d="m 0,0 -2.835,4.91 1.841,1.063 2.835,-4.91 z"
             style="fill:#565656;fill-opacity:1;fill-rule:nonzero;stroke:none"
             id="path364" /></g><g
           id="g366"
           transform="translate(9.6182,15.0572)"><path
             d="m 0,0 -2.834,4.91 1.84,1.063 2.835,-4.91 z"
             style="fill:#151515;fill-opacity:1;fill-rule:nonzero;stroke:none"
             id="path368" /></g></g></g></g></svg>
