<?xml version="1.0" encoding="UTF-8" standalone="no"?>
<svg
   xmlns:dc="http://purl.org/dc/elements/1.1/"
   xmlns:cc="http://creativecommons.org/ns#"
   xmlns:rdf="http://www.w3.org/1999/02/22-rdf-syntax-ns#"
   xmlns:svg="http://www.w3.org/2000/svg"
   xmlns="http://www.w3.org/2000/svg"
   xmlns:sodipodi="http://sodipodi.sourceforge.net/DTD/sodipodi-0.dtd"
   xmlns:inkscape="http://www.inkscape.org/namespaces/inkscape"
   version="1.1"
   id="svg74"
   xml:space="preserve"
   width="7.8999996mm"
   height="7.8999996mm"
   viewBox="0 0 29.858267 29.858267"
   sodipodi:docname="thonk.pj398sm.knurled.svg"
   inkscape:version="1.0.2 (e86c8708, 2021-01-15)"><metadata
     id="metadata80"><rdf:RDF><cc:Work
         rdf:about=""><dc:format>image/svg+xml</dc:format><dc:type
           rdf:resource="http://purl.org/dc/dcmitype/StillImage" /><dc:title></dc:title></cc:Work></rdf:RDF></metadata><defs
     id="defs78"><clipPath
       clipPathUnits="userSpaceOnUse"
       id="clipPath118"><path
         d="M 0,22.394 H 22.394 V 0 H 0 Z"
         id="path116" /></clipPath></defs><sodipodi:namedview
     pagecolor="#ffffff"
     bordercolor="#666666"
     borderopacity="1"
     objecttolerance="10"
     gridtolerance="10"
     guidetolerance="10"
     inkscape:pageopacity="0"
     inkscape:pageshadow="2"
     inkscape:window-width="782"
     inkscape:window-height="480"
     id="namedview76"
     showgrid="false"
     inkscape:document-units="mm"
     units="mm"
     inkscape:zoom="33.759495"
     inkscape:cx="14.929133"
     inkscape:cy="14.929133"
     inkscape:window-x="0"
     inkscape:window-y="23"
     inkscape:window-maximized="0"
     inkscape:current-layer="g82" /><g
     id="g82"
     inkscape:groupmode="layer"
     inkscape:label="thonk.pj398sm.knurled"
     transform="matrix(1.3333333,0,0,-1.3333333,0,29.858267)"><g
       id="g84"
       transform="translate(11.1969,21.6855)"><path
         d="m 0,0 -1.171,0.647 -1.01,-0.877 -1.279,0.39 -0.806,-1.067 -1.332,0.115 -0.567,-1.211 -1.327,-0.165 -0.302,-1.302 -1.265,-0.438 -0.024,-1.336 -1.146,-0.691 0.254,-1.313 -0.977,-0.912 0.521,-1.232 -0.766,-1.097 0.766,-1.096 -0.521,-1.232 0.977,-0.913 -0.254,-1.313 1.146,-0.69 0.024,-1.337 1.265,-0.437 0.302,-1.302 1.327,-0.165 0.567,-1.211 1.332,0.115 0.806,-1.067 1.279,0.389 1.01,-0.876 1.171,0.647 1.17,-0.647 1.011,0.876 1.279,-0.389 0.806,1.067 1.333,-0.115 0.566,1.211 1.328,0.165 0.301,1.302 1.265,0.437 0.024,1.337 1.146,0.69 -0.254,1.313 0.977,0.913 -0.522,1.232 0.767,1.096 -0.767,1.097 0.522,1.232 -0.977,0.912 0.254,1.313 L 9.083,-5.244 9.059,-3.908 7.794,-3.47 7.493,-2.168 6.165,-2.003 5.599,-0.792 4.266,-0.907 3.46,0.16 2.181,-0.23 1.17,0.647 Z"
         style="fill:#dbdbdb;fill-opacity:1;fill-rule:nonzero;stroke:none"
         id="path86" /></g><g
       id="g88"
       transform="translate(19.8324,12.2931)"><path
         d="M 0,0 V -2.192 H 1.795 L 2.561,-1.096 1.795,0 Z"
         style="fill:#e6e6e6;fill-opacity:1;fill-rule:nonzero;stroke:none"
         id="path90" /></g><g
       id="g92"
       transform="translate(19.8324,12.2931)"><path
         d="M 0,0 V -0.264 H 1.98 L 1.795,0 Z"
         style="fill:#999999;fill-opacity:1;fill-rule:nonzero;stroke:none"
         id="path94" /></g><g
       id="g96"
       transform="translate(19.8324,10.3644)"><path
         d="M 0,0 V -0.264 H 1.795 L 1.98,0 Z"
         style="fill:#999999;fill-opacity:1;fill-rule:nonzero;stroke:none"
         id="path98" /></g><g
       id="g100"
       transform="translate(0.7659,12.2931)"><path
         d="M 0,0 -0.766,-1.096 0,-2.192 H 1.796 V 0 Z"
         style="fill:#e6e6e6;fill-opacity:1;fill-rule:nonzero;stroke:none"
         id="path102" /></g><g
       id="g104"
       transform="translate(0.5823,10.3644)"><path
         d="M 0,0 0.184,-0.264 H 1.979 V 0 Z"
         style="fill:#999999;fill-opacity:1;fill-rule:nonzero;stroke:none"
         id="path106" /></g><g
       id="g108"
       transform="translate(0.7659,12.2931)"><path
         d="m 0,0 -0.184,-0.264 h 1.98 V 0 Z"
         style="fill:#999999;fill-opacity:1;fill-rule:nonzero;stroke:none"
         id="path110" /></g><g
       id="g112"><g
         id="g114"
         clip-path="url(#clipPath118)"><g
           id="g120"
           transform="translate(20.0762,11.1969)"><path
             d="m 0,0 c 0,-4.904 -3.975,-8.879 -8.879,-8.879 -4.904,0 -8.88,3.975 -8.88,8.879 0,4.904 3.976,8.879 8.88,8.879 C -3.975,8.879 0,4.904 0,0"
             style="fill:#565656;fill-opacity:1;fill-rule:nonzero;stroke:none"
             id="path122" /></g><g
           id="g124"
           transform="translate(19.5591,11.1969)"><path
             d="m 0,0 c 0,-4.618 -3.744,-8.362 -8.362,-8.362 -4.618,0 -8.363,3.744 -8.363,8.362 0,4.618 3.745,8.362 8.363,8.362 C -3.744,8.362 0,4.618 0,0"
             style="fill:#dbdbdb;fill-opacity:1;fill-rule:nonzero;stroke:none"
             id="path126" /></g><g
           id="g128"
           transform="translate(18.9922,11.1969)"><path
             d="m 0,0 c 0,-4.305 -3.49,-7.795 -7.795,-7.795 -4.306,0 -7.796,3.49 -7.796,7.795 0,4.305 3.49,7.795 7.796,7.795 C -3.49,7.795 0,4.305 0,0"
             style="fill:#c4c4c4;fill-opacity:1;fill-rule:nonzero;stroke:none"
             id="path130" /></g><g
           id="g132"
           transform="translate(17.1494,11.1969)"><path
             d="m 0,0 c 0,-3.288 -2.665,-5.953 -5.953,-5.953 -3.287,0 -5.952,2.665 -5.952,5.953 0,3.288 2.665,5.953 5.952,5.953 C -2.665,5.953 0,3.288 0,0"
             style="fill:#404040;fill-opacity:1;fill-rule:nonzero;stroke:none"
             id="path134" /></g><g
           id="g136"
           transform="translate(16.5825,11.1969)"><path
             d="m 0,0 c 0,-2.975 -2.411,-5.386 -5.386,-5.386 -2.974,0 -5.385,2.411 -5.385,5.386 0,2.975 2.411,5.386 5.385,5.386 C -2.411,5.386 0,2.975 0,0"
             style="fill:#121212;fill-opacity:1;fill-rule:nonzero;stroke:none"
             id="path138" /></g></g></g></g></svg>
