<?xml version="1.0" encoding="utf-8"?>
<!-- Generator: Adobe Illustrator 26.0.3, SVG Export Plug-In . SVG Version: 6.00 Build 0)  -->
<svg version="1.1" id="Layer_1" xmlns="http://www.w3.org/2000/svg" xmlns:xlink="http://www.w3.org/1999/xlink" x="0px" y="0px"
	 viewBox="0 0 385.1 127.5" style="enable-background:new 0 0 385.1 127.5;" xml:space="preserve">
<style type="text/css">
	.st0{fill:#FFFFFF;}
</style>
<rect width="385.1" height="127.5"/>
<g>
	<path class="st0" d="M310.4,93.2c1.8,0,2.7,0.9,2.7,2.7v11.8c0,1.8-0.9,2.7-2.7,2.7h-12c-1.9,0-2.8-0.9-2.8-2.7V95.9
		c0-1.8,0.9-2.7,2.8-2.7L310.4,93.2L310.4,93.2z"/>
</g>
<g>
	<path class="st0" d="M338.1,93.2c1.8,0,2.7,0.9,2.7,2.7v11.8c0,1.8-0.9,2.7-2.7,2.7h-12c-1.9,0-2.8-0.9-2.8-2.7V95.9
		c0-1.8,0.9-2.7,2.8-2.7L338.1,93.2L338.1,93.2z"/>
</g>
<g>
	<path class="st0" d="M365.9,93.2c1.8,0,2.7,0.9,2.7,2.7v11.8c0,1.8-0.9,2.7-2.7,2.7h-12c-1.9,0-2.8-0.9-2.8-2.7V95.9
		c0-1.8,0.9-2.7,2.8-2.7L365.9,93.2L365.9,93.2z"/>
</g>
<g>
	<path class="st0" d="M365.9,43.1c1.8,0,2.7,0.9,2.7,2.7v11.8c0,1.8-0.9,2.7-2.7,2.7h-12c-1.9,0-2.8-0.9-2.8-2.7V45.8
		c0-1.8,0.9-2.7,2.8-2.7L365.9,43.1L365.9,43.1z"/>
</g>
<g>
	<path class="st0" d="M338.1,68.1c1.8,0,2.7,0.9,2.7,2.7v11.8c0,1.8-0.9,2.7-2.7,2.7h-12c-1.9,0-2.8-0.9-2.8-2.7V70.8
		c0-1.8,0.9-2.7,2.8-2.7L338.1,68.1L338.1,68.1z"/>
</g>
<g>
	<path class="st0" d="M365.9,68.1c1.8,0,2.7,0.9,2.7,2.7v11.8c0,1.8-0.9,2.7-2.7,2.7h-12c-1.9,0-2.8-0.9-2.8-2.7V70.8
		c0-1.8,0.9-2.7,2.8-2.7L365.9,68.1L365.9,68.1z"/>
</g>
<g>
	<path class="st0" d="M219.2,57.8c-1.5,0-2.2-0.7-2.2-2.2V45.3c0-1.5,0.7-2.2,2.2-2.2h34.3c5.5,0,10.1,0.5,13.8,1.4
		c3.8,0.9,6.8,2.4,9,4.4c2.2,2,3.9,4.6,4.8,7.7s1.5,6.9,1.5,11.3v17.6c0,4.4-0.5,8.2-1.5,11.3c-1,3.2-2.6,5.7-4.8,7.7
		s-5.2,3.4-9,4.3c-3.8,0.9-8.4,1.3-13.8,1.3h-34.3c-5.6,0-10.2-0.4-13.9-1.3c-3.7-0.9-6.7-2.3-8.9-4.3c-2.2-2-3.9-4.6-4.8-7.7
		c-1-3.1-1.5-6.9-1.5-11.3V21.1c0-1.8,0.9-2.7,2.8-2.7h12c1.8,0,2.7,0.9,2.7,2.7v21.9v14.7v24.4c0,2.6,0.2,4.8,0.6,6.5
		s1.1,3.1,2.1,4.1s2.4,1.8,4.1,2.2c1.7,0.4,3.9,0.7,6.5,0.7h30.9c2.7,0,4.9-0.2,6.6-0.7s3.1-1.2,4.1-2.2c1-1,1.7-2.4,2.1-4.1
		c0.4-1.7,0.6-3.9,0.6-6.5V71.2c0-2.5-0.2-4.7-0.6-6.4c-0.4-1.8-1.1-3.1-2.1-4.2c-1-1-2.4-1.8-4.1-2.2c-1.7-0.5-3.9-0.7-6.6-0.7
		C251.8,57.8,219.2,57.8,219.2,57.8z"/>
</g>
<path class="st0" d="M178.4,43.1h-34.3c-5.6,0-10.2,0.5-13.9,1.4c-3.7,0.9-6.7,2.4-8.9,4.4c-2.2,2-3.9,4.6-4.8,7.7
	c-1,3.2-1.5,6.9-1.5,11.3v14.2c0,2.6-0.2,4.8-0.6,6.5s-1.1,3.1-2.1,4.1s-2.4,1.8-4.1,2.2c-1.7,0.4-3.9,0.7-6.6,0.7H46.8
	c-5.3,0-8.9-0.9-10.7-2.6c-1.8-1.7-2.8-4.5-2.8-8.3V67.6c0-3.9,0.9-6.7,2.8-8.4s5.4-2.5,10.7-2.5h30.8c2.9,0,4.8,0.5,5.9,1.6
	s1.6,2.9,1.6,5.4v5.2c0,1.4-0.7,2.1-2.1,2.1H48.6c-1.5,0-2.2,0.7-2.2,2.2v6.5c0,1.5,0.7,2.2,2.2,2.2h46.6c2.4,0,4.1-0.5,5.3-1.5
	c1.1-1,1.7-2.8,1.7-5.4V63.2c0-3.7-0.3-6.8-1-9.4s-1.8-4.7-3.4-6.2c-1.6-1.6-3.8-2.7-6.5-3.4c-2.7-0.7-6.2-1-10.3-1H45.1
	c-5.5,0-10.2,0.5-13.9,1.4c-3.7,0.9-6.7,2.4-8.9,4.4c-2.2,2-3.9,4.6-4.8,7.7S16,63.5,16,67.9v17.6c0,4.4,0.5,8.2,1.5,11.3
	c1,3.2,2.6,5.7,4.8,7.7s5.2,3.4,8.9,4.3c3.7,0.9,8.3,1.3,13.9,1.3h58.1c5.5,0,10.1-0.4,13.8-1.3c3.8-0.9,6.8-2.3,9-4.3
	c2.2-2,3.9-4.6,4.8-7.7c1-3.1,1.5-6.9,1.5-11.3v-4c0.1-0.3,0.1-0.6,0.1-1v-9.3c0-2.5,0.2-4.7,0.6-6.4c0.4-1.8,1.1-3.1,2.1-4.2
	c1-1,2.4-1.8,4.1-2.2c1.7-0.5,3.9-0.7,6.5-0.7h32.6c1.5,0,2.2-0.7,2.2-2.2V45.3C180.6,43.8,179.9,43.1,178.4,43.1z"/>
</svg>
