<?xml version="1.0" encoding="UTF-8" standalone="no"?>
<svg
   xmlns:dc="http://purl.org/dc/elements/1.1/"
   xmlns:cc="http://creativecommons.org/ns#"
   xmlns:rdf="http://www.w3.org/1999/02/22-rdf-syntax-ns#"
   xmlns:svg="http://www.w3.org/2000/svg"
   xmlns="http://www.w3.org/2000/svg"
   xmlns:sodipodi="http://sodipodi.sourceforge.net/DTD/sodipodi-0.dtd"
   xmlns:inkscape="http://www.inkscape.org/namespaces/inkscape"
   version="1.1"
   id="svg94"
   xml:space="preserve"
   width="8.9999952mm"
   height="8.9999952mm"
   viewBox="0 0 34.015732 34.015732"
   sodipodi:docname="dailywell.2ms.2.svg"
   inkscape:version="1.0.2 (e86c8708, 2021-01-15)"><metadata
     id="metadata100"><rdf:RDF><cc:Work
         rdf:about=""><dc:format>image/svg+xml</dc:format><dc:type
           rdf:resource="http://purl.org/dc/dcmitype/StillImage" /><dc:title></dc:title></cc:Work></rdf:RDF></metadata><defs
     id="defs98"><clipPath
       clipPathUnits="userSpaceOnUse"
       id="clipPath114"><path
         d="M 0,25.512 H 25.512 V 0 H 0 Z"
         id="path112" /></clipPath></defs><sodipodi:namedview
     pagecolor="#ffffff"
     bordercolor="#666666"
     borderopacity="1"
     objecttolerance="10"
     gridtolerance="10"
     guidetolerance="10"
     inkscape:pageopacity="0"
     inkscape:pageshadow="2"
     inkscape:window-width="739"
     inkscape:window-height="480"
     id="namedview96"
     showgrid="false"
     inkscape:document-units="mm"
     units="mm"
     inkscape:zoom="29.633347"
     inkscape:cx="17.007866"
     inkscape:cy="17.007866"
     inkscape:window-x="0"
     inkscape:window-y="23"
     inkscape:window-maximized="0"
     inkscape:current-layer="g102" /><g
     id="g102"
     inkscape:groupmode="layer"
     inkscape:label="dailywell.2ms.2"
     transform="matrix(1.3333333,0,0,-1.3333333,0,34.015733)"><g
       id="g104"
       transform="translate(2.8345,18.484)"><path
         d="m 0,0 v -11.456 l 9.921,-5.728 9.922,5.728 V 0 L 9.921,5.728 Z"
         style="fill:#b3b3b3;fill-opacity:1;fill-rule:nonzero;stroke:none"
         id="path106" /></g><g
       id="g108"><g
         id="g110"
         clip-path="url(#clipPath114)"><g
           id="g116"
           transform="translate(3.8975,18.5064)"><path
             d="m 0,0 c -0.303,-0.175 -0.551,-0.604 -0.551,-0.955 v -9.592 c 0,-0.349 0.248,-0.779 0.551,-0.954 l 8.307,-4.796 c 0.303,-0.176 0.799,-0.176 1.103,0 l 8.307,4.796 c 0.303,0.175 0.551,0.605 0.551,0.954 v 9.592 c 0,0.351 -0.248,0.78 -0.551,0.955 L 9.41,4.796 c -0.304,0.175 -0.8,0.175 -1.103,0 z"
             style="fill:#dbdbdb;fill-opacity:1;fill-rule:nonzero;stroke:none"
             id="path118" /></g><g
           id="g120"
           transform="translate(12.7559,20.7306)"><path
             d="m 0,0 c 4.404,0 7.975,-3.57 7.975,-7.975 0,-4.404 -3.571,-7.974 -7.975,-7.974 -4.404,0 -7.975,3.57 -7.975,7.974 C -7.975,-3.57 -4.404,0 0,0"
             style="fill:#565656;fill-opacity:1;fill-rule:nonzero;stroke:none"
             id="path122" /></g><g
           id="g124"
           transform="translate(12.7559,20.2662)"><path
             d="m 0,0 c 4.148,0 7.51,-3.363 7.51,-7.51 0,-4.148 -3.362,-7.511 -7.51,-7.511 -4.147,0 -7.51,3.363 -7.51,7.511 C -7.51,-3.363 -4.147,0 0,0"
             style="fill:#dbdbdb;fill-opacity:1;fill-rule:nonzero;stroke:none"
             id="path126" /></g><g
           id="g128"
           transform="translate(12.7559,19.7569)"><path
             d="m 0,0 c 3.867,0 7.001,-3.134 7.001,-7.001 0,-3.867 -3.134,-7.001 -7.001,-7.001 -3.867,0 -7.001,3.134 -7.001,7.001 C -7.001,-3.134 -3.867,0 0,0"
             style="fill:#c4c4c4;fill-opacity:1;fill-rule:nonzero;stroke:none"
             id="path130" /></g><g
           id="g132"
           transform="translate(12.7559,18.1021)"><path
             d="m 0,0 c 2.953,0 5.346,-2.394 5.346,-5.346 0,-2.953 -2.393,-5.346 -5.346,-5.346 -2.953,0 -5.346,2.393 -5.346,5.346 C -5.346,-2.394 -2.953,0 0,0"
             style="fill:#404040;fill-opacity:1;fill-rule:nonzero;stroke:none"
             id="path134" /></g><g
           id="g136"
           transform="translate(12.7559,17.5929)"><path
             d="m 0,0 c 2.671,0 4.837,-2.166 4.837,-4.837 0,-2.671 -2.166,-4.837 -4.837,-4.837 -2.671,0 -4.837,2.166 -4.837,4.837 C -4.837,-2.166 -2.671,0 0,0"
             style="fill:#121212;fill-opacity:1;fill-rule:nonzero;stroke:none"
             id="path138" /></g><g
           id="g140"
           transform="translate(16.356,12.756)"><path
             d="m 0,0 c 0,-1.988 -1.612,-3.6 -3.6,-3.6 -1.988,0 -3.6,1.612 -3.6,3.6 0,1.988 1.612,3.6 3.6,3.6 C -1.612,3.6 0,1.988 0,0"
             style="fill:#b3b3b3;fill-opacity:1;fill-rule:nonzero;stroke:none"
             id="path142" /></g><g
           id="g144"
           transform="translate(16.356,12.756)"><path
             d="m 0,0 c 0,-1.988 -1.612,-3.6 -3.6,-3.6 -1.988,0 -3.6,1.612 -3.6,3.6 0,1.988 1.612,3.6 3.6,3.6 C -1.612,3.6 0,1.988 0,0 Z"
             style="fill:none;stroke:#5c5c5c;stroke-width:0.25;stroke-linecap:butt;stroke-linejoin:miter;stroke-miterlimit:10;stroke-dasharray:none;stroke-opacity:1"
             id="path146" /></g><g
           id="g148"
           transform="translate(15.7075,12.756)"><path
             d="m 0,0 c 0,-1.63 -1.321,-2.952 -2.952,-2.952 -1.63,0 -2.951,1.322 -2.951,2.952 0,1.63 1.321,2.952 2.951,2.952 C -1.321,2.952 0,1.63 0,0"
             style="fill:#878787;fill-opacity:1;fill-rule:nonzero;stroke:none"
             id="path150" /></g><g
           id="g152"
           transform="translate(14.957,13.2169)"><path
             d="m 0,0 c 0,-0.753 -0.985,-0.762 -2.201,-0.762 -1.216,0 -2.201,0.009 -2.201,0.762 0,0.753 0.985,1.834 2.201,1.834 C -0.985,1.834 0,0.753 0,0"
             style="fill:#dbdbdb;fill-opacity:1;fill-rule:nonzero;stroke:none"
             id="path154" /></g></g></g></g></svg>
