<?xml version="1.0" encoding="UTF-8" standalone="no"?>
<svg
   xmlns:dc="http://purl.org/dc/elements/1.1/"
   xmlns:cc="http://creativecommons.org/ns#"
   xmlns:rdf="http://www.w3.org/1999/02/22-rdf-syntax-ns#"
   xmlns:svg="http://www.w3.org/2000/svg"
   xmlns="http://www.w3.org/2000/svg"
   xmlns:sodipodi="http://sodipodi.sourceforge.net/DTD/sodipodi-0.dtd"
   xmlns:inkscape="http://www.inkscape.org/namespaces/inkscape"
   version="1.1"
   id="svg691"
   xml:space="preserve"
   width="14.379999mm"
   height="14.379999mm"
   viewBox="0 0 54.349602 54.349602"
   sodipodi:docname="rogan.1ps.svg"
   inkscape:version="1.0.2 (e86c8708, 2021-01-15)"><metadata
     id="metadata697"><rdf:RDF><cc:Work
         rdf:about=""><dc:format>image/svg+xml</dc:format><dc:type
           rdf:resource="http://purl.org/dc/dcmitype/StillImage" /><dc:title></dc:title></cc:Work></rdf:RDF></metadata><defs
     id="defs695"><clipPath
       clipPathUnits="userSpaceOnUse"
       id="clipPath707"><path
         d="M 0,40.762 H 40.762 V 0 H 0 Z"
         id="path705" /></clipPath></defs><sodipodi:namedview
     pagecolor="#ffffff"
     bordercolor="#666666"
     borderopacity="1"
     objecttolerance="10"
     gridtolerance="10"
     guidetolerance="10"
     inkscape:pageopacity="0"
     inkscape:pageshadow="2"
     inkscape:window-width="733"
     inkscape:window-height="480"
     id="namedview693"
     showgrid="false"
     inkscape:document-units="mm"
     units="mm"
     inkscape:zoom="18.546594"
     inkscape:cx="27.174801"
     inkscape:cy="27.174801"
     inkscape:window-x="0"
     inkscape:window-y="23"
     inkscape:window-maximized="0"
     inkscape:current-layer="g699" /><g
     id="g699"
     inkscape:groupmode="layer"
     inkscape:label="rogan.1ps"
     transform="matrix(1.3333333,0,0,-1.3333333,0,54.3496)"><g
       id="g701"><g
         id="g703"
         clip-path="url(#clipPath707)"><g
           id="g709"
           transform="translate(40.7622,20.3813)"><path
             d="m 0,0 c 0,-11.256 -9.125,-20.381 -20.381,-20.381 -11.256,0 -20.381,9.125 -20.381,20.381 0,11.256 9.125,20.381 20.381,20.381 C -9.125,20.381 0,11.256 0,0"
             style="fill:#565656;fill-opacity:1;fill-rule:nonzero;stroke:none"
             id="path711" /></g><g
           id="g713"
           transform="translate(38.2773,20.3813)"><path
             d="m 0,0 c 0,-9.884 -8.012,-17.896 -17.896,-17.896 -9.884,0 -17.896,8.012 -17.896,17.896 0,9.884 8.012,17.896 17.896,17.896 C -8.012,17.896 0,9.884 0,0"
             style="fill:#151515;fill-opacity:1;fill-rule:nonzero;stroke:none"
             id="path715" /></g><g
           id="g717"
           transform="translate(35.103,20.3813)"><path
             d="m 0,0 c 0,-8.131 -6.591,-14.722 -14.722,-14.722 -8.131,0 -14.722,6.591 -14.722,14.722 0,8.13 6.591,14.722 14.722,14.722 C -6.591,14.722 0,8.13 0,0"
             style="fill:#565656;fill-opacity:1;fill-rule:nonzero;stroke:none"
             id="path719" /></g><g
           id="g721"
           transform="translate(32.9619,20.3813)"><path
             d="m 0,0 c 0,-6.948 -5.633,-12.581 -12.581,-12.581 -6.948,0 -12.581,5.633 -12.581,12.581 0,6.948 5.633,12.581 12.581,12.581 C -5.633,12.581 0,6.948 0,0"
             style="fill:#151515;fill-opacity:1;fill-rule:nonzero;stroke:none"
             id="path723" /></g><g
           id="g725"
           transform="translate(29.7861,20.3813)"><path
             d="m 0,0 c 0,-5.194 -4.211,-9.405 -9.405,-9.405 -5.194,0 -9.405,4.211 -9.405,9.405 0,5.194 4.211,9.405 9.405,9.405 C -4.211,9.405 0,5.194 0,0"
             style="fill:#eeeeee;fill-opacity:1;fill-rule:nonzero;stroke:none"
             id="path727" /></g><path
           d="m 23.216,39.412 h -5.669 v 1.351 h 5.669 z"
           style="fill:#dbdbdb;fill-opacity:1;fill-rule:nonzero;stroke:none"
           id="path729" /><path
           d="m 23.216,28.925 h -5.669 v 10.486 h 5.669 z"
           style="fill:#eeeeee;fill-opacity:1;fill-rule:nonzero;stroke:none"
           id="path731" /><g
           id="g733"
           transform="translate(30.604,11.1328)"><path
             d="m 0,0 -4.586,-3.333 -1.25,1.721 4.586,3.332 z"
             style="fill:#565656;fill-opacity:1;fill-rule:nonzero;stroke:none"
             id="path735" /></g><g
           id="g737"
           transform="translate(31.854,9.4126)"><path
             d="m 0,0 -4.587,-3.332 -1.249,1.72 4.586,3.332 z"
             style="fill:#151515;fill-opacity:1;fill-rule:nonzero;stroke:none"
             id="path739" /></g><g
           id="g741"
           transform="translate(32.3359,27.2461)"><path
             d="M 0,0 1.752,-5.392 -0.27,-6.049 -2.022,-0.657 Z"
             style="fill:#565656;fill-opacity:1;fill-rule:nonzero;stroke:none"
             id="path743" /></g><g
           id="g745"
           transform="translate(34.3579,27.9028)"><path
             d="M 0,0 1.752,-5.392 -0.27,-6.049 -2.022,-0.657 Z"
             style="fill:#151515;fill-opacity:1;fill-rule:nonzero;stroke:none"
             id="path747" /></g><g
           id="g749"
           transform="translate(6.6743,21.854)"><path
             d="M 0,0 1.752,5.392 3.774,4.735 2.022,-0.657 Z"
             style="fill:#565656;fill-opacity:1;fill-rule:nonzero;stroke:none"
             id="path751" /></g><g
           id="g753"
           transform="translate(4.6523,22.5112)"><path
             d="M 0,0 1.752,5.392 3.774,4.735 2.022,-0.657 Z"
             style="fill:#151515;fill-opacity:1;fill-rule:nonzero;stroke:none"
             id="path755" /></g><g
           id="g757"
           transform="translate(14.7446,7.8003)"><path
             d="M 0,0 -4.587,3.333 -3.337,5.052 1.25,1.72 Z"
             style="fill:#565656;fill-opacity:1;fill-rule:nonzero;stroke:none"
             id="path759" /></g><g
           id="g761"
           transform="translate(13.4951,6.0806)"><path
             d="m 0,0 -4.587,3.332 1.25,1.72 L 1.25,1.72 Z"
             style="fill:#151515;fill-opacity:1;fill-rule:nonzero;stroke:none"
             id="path763" /></g></g></g></g></svg>
