<?xml version="1.0" encoding="UTF-8" standalone="no"?>
<svg
   xmlns:dc="http://purl.org/dc/elements/1.1/"
   xmlns:cc="http://creativecommons.org/ns#"
   xmlns:rdf="http://www.w3.org/1999/02/22-rdf-syntax-ns#"
   xmlns:svg="http://www.w3.org/2000/svg"
   xmlns="http://www.w3.org/2000/svg"
   xmlns:sodipodi="http://sodipodi.sourceforge.net/DTD/sodipodi-0.dtd"
   xmlns:inkscape="http://www.inkscape.org/namespaces/inkscape"
   version="1.1"
   id="svg157"
   xml:space="preserve"
   width="31.75mm"
   height="31.75mm"
   viewBox="0 0 120 120"
   sodipodi:docname="rogan.6ps.svg"
   inkscape:version="1.0.2 (e86c8708, 2021-01-15)"><metadata
     id="metadata163"><rdf:RDF><cc:Work
         rdf:about=""><dc:format>image/svg+xml</dc:format><dc:type
           rdf:resource="http://purl.org/dc/dcmitype/StillImage" /><dc:title></dc:title></cc:Work></rdf:RDF></metadata><defs
     id="defs161"><clipPath
       clipPathUnits="userSpaceOnUse"
       id="clipPath173"><path
         d="M 0,90 H 90 V 0 H 0 Z"
         id="path171" /></clipPath></defs><sodipodi:namedview
     pagecolor="#ffffff"
     bordercolor="#666666"
     borderopacity="1"
     objecttolerance="10"
     gridtolerance="10"
     guidetolerance="10"
     inkscape:pageopacity="0"
     inkscape:pageshadow="2"
     inkscape:window-width="716"
     inkscape:window-height="480"
     id="namedview159"
     showgrid="false"
     inkscape:document-units="mm"
     units="mm"
     inkscape:zoom="8.4"
     inkscape:cx="60"
     inkscape:cy="60"
     inkscape:window-x="348"
     inkscape:window-y="363"
     inkscape:window-maximized="0"
     inkscape:current-layer="g165" /><g
     id="g165"
     inkscape:groupmode="layer"
     inkscape:label="rogan.6ps"
     transform="matrix(1.3333333,0,0,-1.3333333,0,120)"><g
       id="g167"><g
         id="g169"
         clip-path="url(#clipPath173)"><g
           id="g175"
           transform="translate(90,45)"><path
             d="m 0,0 c 0,-24.853 -20.147,-45 -45,-45 -24.853,0 -45,20.147 -45,45 0,24.853 20.147,45 45,45 C -20.147,45 0,24.853 0,0"
             style="fill:#565656;fill-opacity:1;fill-rule:nonzero;stroke:none"
             id="path177" /></g><g
           id="g179"
           transform="translate(87.5195,45)"><path
             d="m 0,0 c 0,-23.483 -19.036,-42.52 -42.52,-42.52 -23.482,0 -42.519,19.037 -42.519,42.52 0,23.483 19.037,42.52 42.519,42.52 C -19.036,42.52 0,23.483 0,0"
             style="fill:#151515;fill-opacity:1;fill-rule:nonzero;stroke:none"
             id="path181" /></g><g
           id="g183"
           transform="translate(84.3311,45)"><path
             d="m 0,0 c 0,-21.722 -17.609,-39.331 -39.331,-39.331 -21.722,0 -39.331,17.609 -39.331,39.331 0,21.722 17.609,39.331 39.331,39.331 C -17.609,39.331 0,21.722 0,0"
             style="fill:#565656;fill-opacity:1;fill-rule:nonzero;stroke:none"
             id="path185" /></g><g
           id="g187"
           transform="translate(82.2051,45)"><path
             d="m 0,0 c 0,-20.548 -16.657,-37.205 -37.205,-37.205 -20.547,0 -37.205,16.657 -37.205,37.205 0,20.547 16.658,37.205 37.205,37.205 C -16.657,37.205 0,20.547 0,0"
             style="fill:#151515;fill-opacity:1;fill-rule:nonzero;stroke:none"
             id="path189" /></g><g
           id="g191"
           transform="translate(79.0156,45)"><path
             d="m 0,0 c 0,-18.786 -15.229,-34.016 -34.016,-34.016 -18.786,0 -34.015,15.23 -34.015,34.016 0,18.787 15.229,34.016 34.015,34.016 C -15.229,34.016 0,18.787 0,0"
             style="fill:#eeeeee;fill-opacity:1;fill-rule:nonzero;stroke:none"
             id="path193" /></g><path
           d="M 47.835,88.828 H 42.166 V 90 h 5.669 z"
           style="fill:#dbdbdb;fill-opacity:1;fill-rule:nonzero;stroke:none"
           id="path195" /><path
           d="m 47.835,78.466 h -5.669 v 10.362 h 5.669 z"
           style="fill:#eeeeee;fill-opacity:1;fill-rule:nonzero;stroke:none"
           id="path197" /><path
           d="m 47.835,6.732 h -5.669 v 2.126 h 5.669 z"
           style="fill:#565656;fill-opacity:1;fill-rule:nonzero;stroke:none"
           id="path199" /><path
           d="m 47.835,4.606 h -5.669 v 2.126 h 5.669 z"
           style="fill:#151515;fill-opacity:1;fill-rule:nonzero;stroke:none"
           id="path201" /><g
           id="g203"
           transform="translate(79.5586,28.3213)"><path
             d="m 0,0 -2.835,-4.91 -1.841,1.063 2.834,4.909 z"
             style="fill:#565656;fill-opacity:1;fill-rule:nonzero;stroke:none"
             id="path205" /></g><g
           id="g207"
           transform="translate(81.3994,27.2578)"><path
             d="m 0,0 -2.835,-4.909 -1.841,1.062 2.835,4.91 z"
             style="fill:#151515;fill-opacity:1;fill-rule:nonzero;stroke:none"
             id="path209" /></g><g
           id="g211"
           transform="translate(76.7236,66.5889)"><path
             d="m 0,0 2.835,-4.91 -1.842,-1.063 -2.834,4.91 z"
             style="fill:#565656;fill-opacity:1;fill-rule:nonzero;stroke:none"
             id="path213" /></g><g
           id="g215"
           transform="translate(78.5645,67.6519)"><path
             d="m 0,0 2.835,-4.91 -1.841,-1.063 -2.835,4.91 z"
             style="fill:#151515;fill-opacity:1;fill-rule:nonzero;stroke:none"
             id="path217" /></g><g
           id="g219"
           transform="translate(10.4419,61.6792)"><path
             d="M 0,0 2.834,4.91 4.676,3.847 1.841,-1.063 Z"
             style="fill:#565656;fill-opacity:1;fill-rule:nonzero;stroke:none"
             id="path221" /></g><g
           id="g223"
           transform="translate(8.6006,62.7422)"><path
             d="M 0,0 2.835,4.91 4.676,3.847 1.841,-1.063 Z"
             style="fill:#151515;fill-opacity:1;fill-rule:nonzero;stroke:none"
             id="path225" /></g><g
           id="g227"
           transform="translate(13.2764,23.4111)"><path
             d="m 0,0 -2.834,4.91 1.841,1.063 2.834,-4.91 z"
             style="fill:#565656;fill-opacity:1;fill-rule:nonzero;stroke:none"
             id="path229" /></g><g
           id="g231"
           transform="translate(11.4355,22.3486)"><path
             d="M 0,0 -2.835,4.909 -0.994,5.973 1.841,1.062 Z"
             style="fill:#151515;fill-opacity:1;fill-rule:nonzero;stroke:none"
             id="path233" /></g></g></g></g></svg>
