<?xml version="1.0" encoding="UTF-8" standalone="no"?>
<svg
   xmlns:dc="http://purl.org/dc/elements/1.1/"
   xmlns:cc="http://creativecommons.org/ns#"
   xmlns:rdf="http://www.w3.org/1999/02/22-rdf-syntax-ns#"
   xmlns:svg="http://www.w3.org/2000/svg"
   xmlns="http://www.w3.org/2000/svg"
   xmlns:sodipodi="http://sodipodi.sourceforge.net/DTD/sodipodi-0.dtd"
   xmlns:inkscape="http://www.inkscape.org/namespaces/inkscape"
   version="1.1"
   id="svg28"
   xml:space="preserve"
   width="18.499985mm"
   height="18.499985mm"
   viewBox="0 0 69.921204 69.921204"
   sodipodi:docname="sifam.dbn151.white.svg"
   inkscape:version="1.0.2 (e86c8708, 2021-01-15)"><metadata
     id="metadata34"><rdf:RDF><cc:Work
         rdf:about=""><dc:format>image/svg+xml</dc:format><dc:type
           rdf:resource="http://purl.org/dc/dcmitype/StillImage" /><dc:title></dc:title></cc:Work></rdf:RDF></metadata><defs
     id="defs32"><clipPath
       clipPathUnits="userSpaceOnUse"
       id="clipPath44"><path
         d="M 0,52.441 H 52.441 V 0 H 0 Z"
         id="path42" /></clipPath></defs><sodipodi:namedview
     pagecolor="#ffffff"
     bordercolor="#666666"
     borderopacity="1"
     objecttolerance="10"
     gridtolerance="10"
     guidetolerance="10"
     inkscape:pageopacity="0"
     inkscape:pageshadow="2"
     inkscape:window-width="762"
     inkscape:window-height="480"
     id="namedview30"
     showgrid="false"
     inkscape:document-units="mm"
     units="mm"
     inkscape:zoom="14.416228"
     inkscape:cx="34.960602"
     inkscape:cy="34.960602"
     inkscape:window-x="0"
     inkscape:window-y="23"
     inkscape:window-maximized="0"
     inkscape:current-layer="g36" /><g
     id="g36"
     inkscape:groupmode="layer"
     inkscape:label="sifam.dbn151.white"
     transform="matrix(1.3333333,0,0,-1.3333333,0,69.9212)"><g
       id="g38"><g
         id="g40"
         clip-path="url(#clipPath44)"><g
           id="g46"
           transform="translate(26.2205,52.4409)"><path
             d="m 0,0 c 14.481,0 26.22,-11.739 26.22,-26.22 0,-14.482 -11.739,-26.221 -26.22,-26.221 -14.481,0 -26.22,11.739 -26.22,26.221 C -26.22,-11.739 -14.481,0 0,0"
             style="fill:#9e9e9e;fill-opacity:1;fill-rule:nonzero;stroke:none"
             id="path48" /></g><g
           id="g50"
           transform="translate(26.2205,51.7723)"><path
             d="m 0,0 c 14.112,0 25.552,-11.44 25.552,-25.552 0,-14.112 -11.44,-25.552 -25.552,-25.552 -14.112,0 -25.552,11.44 -25.552,25.552 C -25.552,-11.44 -14.112,0 0,0"
             style="fill:#e8e8e8;fill-opacity:1;fill-rule:nonzero;stroke:none"
             id="path52" /></g><g
           id="g54"
           transform="translate(26.2205,49.1247)"><path
             d="m 0,0 c 12.65,0 22.904,-10.255 22.904,-22.904 0,-12.65 -10.254,-22.905 -22.904,-22.905 -12.65,0 -22.904,10.255 -22.904,22.905 C -22.904,-10.255 -12.65,0 0,0"
             style="fill:#9e9e9e;fill-opacity:1;fill-rule:nonzero;stroke:none"
             id="path56" /></g><g
           id="g58"
           transform="translate(26.2205,48.0789)"><path
             d="m 0,0 c 12.072,0 21.858,-9.786 21.858,-21.858 0,-12.072 -9.786,-21.859 -21.858,-21.859 -12.072,0 -21.858,9.787 -21.858,21.859 C -21.858,-9.786 -12.072,0 0,0"
             style="fill:#e8e8e8;fill-opacity:1;fill-rule:nonzero;stroke:none"
             id="path60" /></g><g
           id="g62"
           transform="translate(26.2205,46.5864)"><path
             d="m 0,0 c 11.248,0 20.366,-9.118 20.366,-20.366 0,-11.248 -9.118,-20.366 -20.366,-20.366 -11.248,0 -20.366,9.118 -20.366,20.366 C -20.366,-9.118 -11.248,0 0,0"
             style="fill:#9e9e9e;fill-opacity:1;fill-rule:nonzero;stroke:none"
             id="path64" /></g><g
           id="g66"
           transform="translate(26.2205,45.6185)"><path
             d="m 0,0 c 10.713,0 19.398,-8.685 19.398,-19.398 0,-10.713 -8.685,-19.398 -19.398,-19.398 -10.713,0 -19.398,8.685 -19.398,19.398 C -19.398,-8.685 -10.713,0 0,0"
             style="fill:#ffffff;fill-opacity:1;fill-rule:nonzero;stroke:none"
             id="path68" /></g><g
           id="g70"
           transform="translate(29.7488,48.0805)"><path
             d="M 0,0 -1.406,-1.197 H -5.651 L -7.057,0 Z"
             style="fill:#9e9e9e;fill-opacity:1;fill-rule:nonzero;stroke:none"
             id="path72" /></g><g
           id="g74"
           transform="translate(30.1374,49.2778)"><path
             d="M 0,0 -1.584,-1.197 H -6.25 L -7.834,0 Z"
             style="fill:#e8e8e8;fill-opacity:1;fill-rule:nonzero;stroke:none"
             id="path76" /></g><g
           id="g78"
           transform="translate(13.258,44.1728)"><path
             d="M 0,0 -0.148,-1.841 -3.149,-4.842 -4.99,-4.99 Z"
             style="fill:#9e9e9e;fill-opacity:1;fill-rule:nonzero;stroke:none"
             id="path80" /></g><g
           id="g82"
           transform="translate(12.6862,45.2941)"><path
             d="M 0,0 -0.274,-1.967 -3.572,-5.266 -5.539,-5.539 Z"
             style="fill:#e8e8e8;fill-opacity:1;fill-rule:nonzero;stroke:none"
             id="path84" /></g><g
           id="g86"
           transform="translate(4.3604,29.7488)"><path
             d="M 0,0 1.197,-1.406 V -5.651 L 0,-7.057 Z"
             style="fill:#9e9e9e;fill-opacity:1;fill-rule:nonzero;stroke:none"
             id="path88" /></g><g
           id="g90"
           transform="translate(3.1632,30.1374)"><path
             d="M 0,0 1.197,-1.584 V -6.25 L 0,-7.834 Z"
             style="fill:#e8e8e8;fill-opacity:1;fill-rule:nonzero;stroke:none"
             id="path92" /></g><g
           id="g94"
           transform="translate(8.2682,13.258)"><path
             d="M 0,0 1.841,-0.148 4.842,-3.149 4.99,-4.99 Z"
             style="fill:#9e9e9e;fill-opacity:1;fill-rule:nonzero;stroke:none"
             id="path96" /></g><g
           id="g98"
           transform="translate(7.1468,12.6862)"><path
             d="M 0,0 1.967,-0.274 5.266,-3.572 5.539,-5.539 Z"
             style="fill:#e8e8e8;fill-opacity:1;fill-rule:nonzero;stroke:none"
             id="path100" /></g><g
           id="g102"
           transform="translate(22.6922,4.3604)"><path
             d="M 0,0 1.406,1.197 H 5.651 L 7.057,0 Z"
             style="fill:#9e9e9e;fill-opacity:1;fill-rule:nonzero;stroke:none"
             id="path104" /></g><g
           id="g106"
           transform="translate(22.3035,3.1632)"><path
             d="M 0,0 1.584,1.197 H 6.25 L 7.834,0 Z"
             style="fill:#e8e8e8;fill-opacity:1;fill-rule:nonzero;stroke:none"
             id="path108" /></g><g
           id="g110"
           transform="translate(39.183,8.2682)"><path
             d="M 0,0 0.148,1.841 3.149,4.842 4.99,4.99 Z"
             style="fill:#9e9e9e;fill-opacity:1;fill-rule:nonzero;stroke:none"
             id="path112" /></g><g
           id="g114"
           transform="translate(39.7547,7.1468)"><path
             d="M 0,0 0.274,1.967 3.572,5.266 5.539,5.539 Z"
             style="fill:#e8e8e8;fill-opacity:1;fill-rule:nonzero;stroke:none"
             id="path116" /></g><g
           id="g118"
           transform="translate(48.0805,22.6922)"><path
             d="M 0,0 -1.197,1.406 V 5.651 L 0,7.057 Z"
             style="fill:#9e9e9e;fill-opacity:1;fill-rule:nonzero;stroke:none"
             id="path120" /></g><g
           id="g122"
           transform="translate(49.2778,22.3035)"><path
             d="M 0,0 -1.197,1.584 V 6.25 L 0,7.834 Z"
             style="fill:#e8e8e8;fill-opacity:1;fill-rule:nonzero;stroke:none"
             id="path124" /></g><g
           id="g126"
           transform="translate(44.1728,39.183)"><path
             d="M 0,0 -1.841,0.148 -4.842,3.149 -4.99,4.99 Z"
             style="fill:#9e9e9e;fill-opacity:1;fill-rule:nonzero;stroke:none"
             id="path128" /></g><g
           id="g130"
           transform="translate(45.2941,39.7547)"><path
             d="M 0,0 -1.967,0.274 -5.266,3.572 -5.539,5.539 Z"
             style="fill:#e8e8e8;fill-opacity:1;fill-rule:nonzero;stroke:none"
             id="path132" /></g><path
           d="m 27.638,26.217 h -2.835 v 21.862 h 2.835 z"
           style="fill:#2b2b2b;fill-opacity:1;fill-rule:nonzero;stroke:none"
           id="path134" /></g></g></g></svg>
