<?xml version="1.0" encoding="UTF-8" standalone="no"?>
<svg
   xmlns:dc="http://purl.org/dc/elements/1.1/"
   xmlns:cc="http://creativecommons.org/ns#"
   xmlns:rdf="http://www.w3.org/1999/02/22-rdf-syntax-ns#"
   xmlns:svg="http://www.w3.org/2000/svg"
   xmlns="http://www.w3.org/2000/svg"
   xmlns:sodipodi="http://sodipodi.sourceforge.net/DTD/sodipodi-0.dtd"
   xmlns:inkscape="http://www.inkscape.org/namespaces/inkscape"
   version="1.1"
   id="svg10"
   xml:space="preserve"
   width="18.400007mm"
   height="4.8000002mm"
   viewBox="0 0 69.543335 18.141733"
   sodipodi:docname="erb.footer.svg"
   inkscape:version="1.0.2 (e86c8708, 2021-01-15)"><metadata
     id="metadata16"><rdf:RDF><cc:Work
         rdf:about=""><dc:format>image/svg+xml</dc:format><dc:type
           rdf:resource="http://purl.org/dc/dcmitype/StillImage" /><dc:title></dc:title></cc:Work></rdf:RDF></metadata><defs
     id="defs14"><clipPath
       clipPathUnits="userSpaceOnUse"
       id="clipPath26"><path
         d="M 0,13.606 H 52.157 V 0 H 0 Z"
         id="path24" /></clipPath></defs><sodipodi:namedview
     pagecolor="#ffffff"
     bordercolor="#666666"
     borderopacity="1"
     objecttolerance="10"
     gridtolerance="10"
     guidetolerance="10"
     inkscape:pageopacity="0"
     inkscape:pageshadow="2"
     inkscape:window-width="712"
     inkscape:window-height="480"
     id="namedview12"
     showgrid="false"
     inkscape:document-units="mm"
     units="mm"
     inkscape:zoom="15.141638"
     inkscape:cx="34.771667"
     inkscape:cy="9.0708666"
     inkscape:window-x="0"
     inkscape:window-y="23"
     inkscape:window-maximized="0"
     inkscape:current-layer="g18" /><g
     id="g18"
     inkscape:groupmode="layer"
     inkscape:label="erb.footer"
     transform="matrix(1.3333333,0,0,-1.3333333,0,18.141733)"><g
       id="g20"><g
         id="g22"
         clip-path="url(#clipPath26)"><g
           id="g28"
           transform="translate(43.5504,2.5396)"><path
             d="M 0,0 C 0.266,0 0.399,-0.133 0.399,-0.399 V -2.141 C 0.399,-2.407 0.266,-2.54 0,-2.54 h -1.776 c -0.278,0 -0.417,0.133 -0.417,0.399 v 1.742 c 0,0.266 0.139,0.399 0.417,0.399 z"
             style="fill:#000000;fill-opacity:1;fill-rule:nonzero;stroke:none"
             id="path30" /></g><g
           id="g32"
           transform="translate(47.6549,2.5396)"><path
             d="M 0,0 C 0.265,0 0.398,-0.133 0.398,-0.399 V -2.141 C 0.398,-2.407 0.265,-2.54 0,-2.54 h -1.776 c -0.278,0 -0.417,0.133 -0.417,0.399 v 1.742 c 0,0.266 0.139,0.399 0.417,0.399 z"
             style="fill:#000000;fill-opacity:1;fill-rule:nonzero;stroke:none"
             id="path34" /></g><g
           id="g36"
           transform="translate(51.7589,2.5396)"><path
             d="M 0,0 C 0.266,0 0.398,-0.133 0.398,-0.399 V -2.141 C 0.398,-2.407 0.266,-2.54 0,-2.54 h -1.776 c -0.278,0 -0.417,0.133 -0.417,0.399 v 1.742 c 0,0.266 0.139,0.399 0.417,0.399 z"
             style="fill:#000000;fill-opacity:1;fill-rule:nonzero;stroke:none"
             id="path38" /></g><g
           id="g40"
           transform="translate(51.7589,9.96)"><path
             d="M 0,0 C 0.266,0 0.398,-0.133 0.398,-0.399 V -2.141 C 0.398,-2.407 0.266,-2.54 0,-2.54 h -1.776 c -0.278,0 -0.417,0.133 -0.417,0.399 v 1.742 c 0,0.266 0.139,0.399 0.417,0.399 z"
             style="fill:#000000;fill-opacity:1;fill-rule:nonzero;stroke:none"
             id="path42" /></g><g
           id="g44"
           transform="translate(47.6549,6.2501)"><path
             d="M 0,0 C 0.265,0 0.398,-0.133 0.398,-0.399 V -2.141 C 0.398,-2.407 0.265,-2.54 0,-2.54 h -1.776 c -0.278,0 -0.417,0.133 -0.417,0.399 v 1.742 c 0,0.266 0.139,0.399 0.417,0.399 z"
             style="fill:#000000;fill-opacity:1;fill-rule:nonzero;stroke:none"
             id="path46" /></g><g
           id="g48"
           transform="translate(51.7589,6.2501)"><path
             d="M 0,0 C 0.266,0 0.398,-0.133 0.398,-0.399 V -2.141 C 0.398,-2.407 0.266,-2.54 0,-2.54 h -1.776 c -0.278,0 -0.417,0.133 -0.417,0.399 v 1.742 c 0,0.266 0.139,0.399 0.417,0.399 z"
             style="fill:#000000;fill-opacity:1;fill-rule:nonzero;stroke:none"
             id="path50" /></g><g
           id="g52"
           transform="translate(30.0641,7.7828)"><path
             d="m 0,0 c -0.217,0 -0.326,0.109 -0.326,0.327 v 1.524 c 0,0.217 0.109,0.326 0.326,0.326 h 5.074 c 0.809,0 1.492,-0.07 2.048,-0.209 0.556,-0.139 1,-0.357 1.332,-0.653 C 8.786,1.019 9.025,0.638 9.17,0.172 9.315,-0.293 9.387,-0.853 9.387,-1.506 V -4.118 C 9.387,-4.771 9.315,-5.331 9.17,-5.796 9.025,-6.262 8.786,-6.643 8.454,-6.939 8.122,-7.236 7.678,-7.45 7.122,-7.583 6.566,-7.716 5.883,-7.783 5.074,-7.783 H 0 c -0.822,0 -1.507,0.067 -2.057,0.2 -0.55,0.133 -0.99,0.347 -1.323,0.644 -0.332,0.296 -0.571,0.677 -0.716,1.143 -0.144,0.465 -0.217,1.025 -0.217,1.678 v 9.542 c 0,0.266 0.139,0.4 0.417,0.4 h 1.776 c 0.266,0 0.398,-0.134 0.398,-0.4 V 2.177 0 -3.61 c 0,-0.388 0.031,-0.708 0.091,-0.962 0.06,-0.254 0.166,-0.456 0.317,-0.608 0.151,-0.151 0.354,-0.259 0.607,-0.326 0.254,-0.067 0.574,-0.1 0.961,-0.1 H 4.82 c 0.399,0 0.725,0.033 0.979,0.1 0.254,0.067 0.456,0.175 0.607,0.326 0.151,0.152 0.257,0.354 0.317,0.608 0.061,0.254 0.091,0.574 0.091,0.962 v 1.614 c 0,0.375 -0.03,0.693 -0.091,0.953 -0.06,0.26 -0.166,0.465 -0.317,0.617 C 6.255,-0.275 6.053,-0.167 5.799,-0.1 5.545,-0.033 5.219,0 4.82,0 Z"
             style="fill:#000000;fill-opacity:1;fill-rule:nonzero;stroke:none"
             id="path54" /></g><g
           id="g56"
           transform="translate(24.0294,9.96)"><path
             d="m 0,0 h -5.074 c -0.822,0 -1.507,-0.07 -2.057,-0.209 -0.55,-0.139 -0.991,-0.357 -1.323,-0.653 -0.332,-0.296 -0.57,-0.678 -0.715,-1.143 -0.145,-0.466 -0.218,-1.025 -0.218,-1.678 v -2.105 c 0,-0.387 -0.03,-0.707 -0.091,-0.961 -0.06,-0.254 -0.166,-0.457 -0.317,-0.608 -0.151,-0.151 -0.353,-0.26 -0.607,-0.326 -0.254,-0.067 -0.58,-0.1 -0.978,-0.1 h -8.083 c -0.785,0 -1.313,0.127 -1.585,0.381 -0.272,0.254 -0.408,0.665 -0.408,1.234 v 2.54 c 0,0.58 0.136,0.994 0.408,1.242 0.272,0.248 0.8,0.372 1.585,0.372 h 4.549 c 0.423,0 0.713,-0.079 0.87,-0.236 0.157,-0.157 0.235,-0.423 0.235,-0.798 V -3.81 c 0,-0.206 -0.102,-0.308 -0.308,-0.308 h -5.087 c -0.217,0 -0.326,-0.109 -0.326,-0.327 v -0.961 c 0,-0.218 0.109,-0.327 0.326,-0.327 h 6.9 c 0.35,0 0.61,0.075 0.779,0.227 0.169,0.151 0.254,0.42 0.254,0.807 v 1.723 c 0,0.545 -0.049,1.007 -0.146,1.389 -0.096,0.38 -0.262,0.689 -0.498,0.924 -0.235,0.236 -0.556,0.406 -0.96,0.509 C -13.28,-0.052 -13.791,0 -14.407,0 h -5.309 c -0.822,0 -1.508,-0.07 -2.057,-0.209 -0.55,-0.139 -0.991,-0.357 -1.323,-0.653 -0.333,-0.296 -0.571,-0.678 -0.716,-1.143 -0.145,-0.466 -0.217,-1.025 -0.217,-1.678 v -2.612 c 0,-0.654 0.072,-1.213 0.217,-1.679 0.145,-0.465 0.383,-0.846 0.716,-1.142 0.332,-0.297 0.773,-0.511 1.323,-0.644 0.549,-0.134 1.235,-0.2 2.057,-0.2 h 8.589 c 0.81,0 1.492,0.066 2.048,0.2 0.556,0.133 0.999,0.347 1.332,0.644 0.332,0.296 0.571,0.677 0.716,1.142 0.145,0.466 0.217,1.025 0.217,1.679 V -5.7 c 0.011,0.043 0.019,0.091 0.019,0.145 v 1.382 c 0,0.375 0.029,0.693 0.09,0.953 0.06,0.26 0.166,0.465 0.317,0.616 0.151,0.151 0.353,0.26 0.607,0.327 0.254,0.067 0.574,0.1 0.961,0.1 H 0 c 0.218,0 0.327,0.109 0.327,0.326 v 1.524 C 0.327,-0.109 0.218,0 0,0"
             style="fill:#000000;fill-opacity:1;fill-rule:nonzero;stroke:none"
             id="path58" /></g></g></g></g></svg>
