<svg version="1.1" xmlns="http://www.w3.org/2000/svg" xmlns:xlink="http://www.w3.org/1999/xlink" stroke-linecap="round" stroke-linejoin="round" stroke-width="0" fill-rule="evenodd" clip-rule="evenodd" id="drWAf9hmVb05gsuAN5EF_bottom" viewBox="114500 -97000 37000 21500" width="37mm" height="21.5mm" class="w-100 h-100"><defs><style>.drWAf9hmVb05gsuAN5EF_fr4 {color: #666666;}
.drWAf9hmVb05gsuAN5EF_cu {color: #cccccc;}
.drWAf9hmVb05gsuAN5EF_cf {color: #cc9933;}
.drWAf9hmVb05gsuAN5EF_sm {color: #004200; opacity: 0.75;}
.drWAf9hmVb05gsuAN5EF_ss {color: #ffffff;}
.drWAf9hmVb05gsuAN5EF_sp {color: #999999;}
.drWAf9hmVb05gsuAN5EF_out {color: #000000;}</style><rect x="-1050" y="-1050" width="2100" height="2100" rx="1050" ry="1050" id="SJPK2pJ-LIt8w-zRdjbm_pad-10"/><rect x="-1063.6" y="-1063.6" width="2127.2" height="2127.2" id="SJPK2pJ-LIt8w-zRdjbm_pad-11"/><rect x="-1063.6" y="-1063.6" width="2127.2" height="2127.2" rx="1063.6" ry="1063.6" id="SJPK2pJ-LIt8w-zRdjbm_pad-12"/><rect x="-850" y="-850" width="1700" height="1700" rx="850" ry="850" id="aVRcVTcBWjWkDFrREmHC_pad-10"/><rect x="-863.6" y="-863.6" width="1727.2" height="1727.2" id="aVRcVTcBWjWkDFrREmHC_pad-11"/><rect x="-863.6" y="-863.6" width="1727.2" height="1727.2" rx="863.6" ry="863.6" id="aVRcVTcBWjWkDFrREmHC_pad-12"/><circle cx="0" cy="0" r="175" id="aVRcVTcBWjWkDFrREmHC_pad-14"/><circle cx="0" cy="0" r="500" id="IxixiROrUcrGrvZKP1dk_pad-1"/><circle cx="0" cy="0" r="508" id="IxixiROrUcrGrvZKP1dk_pad-2"/><g id="drWAf9hmVb05gsuAN5EF_bottom_soldermask"><use xlink:href="#SJPK2pJ-LIt8w-zRdjbm_pad-10" x="137160" y="-88900"/><use xlink:href="#SJPK2pJ-LIt8w-zRdjbm_pad-10" x="139700" y="-88900"/><use xlink:href="#SJPK2pJ-LIt8w-zRdjbm_pad-10" x="142240" y="-88900"/><use xlink:href="#SJPK2pJ-LIt8w-zRdjbm_pad-10" x="144780" y="-88900"/><use xlink:href="#SJPK2pJ-LIt8w-zRdjbm_pad-10" x="147320" y="-88900"/><use xlink:href="#SJPK2pJ-LIt8w-zRdjbm_pad-10" x="149860" y="-88900"/><use xlink:href="#SJPK2pJ-LIt8w-zRdjbm_pad-10" x="149860" y="-81280"/><use xlink:href="#SJPK2pJ-LIt8w-zRdjbm_pad-10" x="147320" y="-81280"/><use xlink:href="#SJPK2pJ-LIt8w-zRdjbm_pad-10" x="144780" y="-81280"/><use xlink:href="#SJPK2pJ-LIt8w-zRdjbm_pad-10" x="142240" y="-81280"/><use xlink:href="#SJPK2pJ-LIt8w-zRdjbm_pad-10" x="139700" y="-81280"/><use xlink:href="#SJPK2pJ-LIt8w-zRdjbm_pad-10" x="137160" y="-81280"/><use xlink:href="#SJPK2pJ-LIt8w-zRdjbm_pad-11" x="118110" y="-81280"/><use xlink:href="#SJPK2pJ-LIt8w-zRdjbm_pad-12" x="120650" y="-81280"/><use xlink:href="#SJPK2pJ-LIt8w-zRdjbm_pad-12" x="118110" y="-83820"/><use xlink:href="#SJPK2pJ-LIt8w-zRdjbm_pad-12" x="120650" y="-83820"/><use xlink:href="#SJPK2pJ-LIt8w-zRdjbm_pad-12" x="118110" y="-86360"/><use xlink:href="#SJPK2pJ-LIt8w-zRdjbm_pad-12" x="120650" y="-86360"/><use xlink:href="#SJPK2pJ-LIt8w-zRdjbm_pad-12" x="118110" y="-88900"/><use xlink:href="#SJPK2pJ-LIt8w-zRdjbm_pad-12" x="120650" y="-88900"/><use xlink:href="#SJPK2pJ-LIt8w-zRdjbm_pad-12" x="118110" y="-91440"/><use xlink:href="#SJPK2pJ-LIt8w-zRdjbm_pad-12" x="120650" y="-91440"/></g><g id="drWAf9hmVb05gsuAN5EF_bottom_copper"><use xlink:href="#aVRcVTcBWjWkDFrREmHC_pad-10" x="137160" y="-88900"/><use xlink:href="#aVRcVTcBWjWkDFrREmHC_pad-10" x="139700" y="-88900"/><use xlink:href="#aVRcVTcBWjWkDFrREmHC_pad-10" x="142240" y="-88900"/><use xlink:href="#aVRcVTcBWjWkDFrREmHC_pad-10" x="144780" y="-88900"/><use xlink:href="#aVRcVTcBWjWkDFrREmHC_pad-10" x="147320" y="-88900"/><use xlink:href="#aVRcVTcBWjWkDFrREmHC_pad-10" x="149860" y="-88900"/><use xlink:href="#aVRcVTcBWjWkDFrREmHC_pad-10" x="149860" y="-81280"/><use xlink:href="#aVRcVTcBWjWkDFrREmHC_pad-10" x="147320" y="-81280"/><use xlink:href="#aVRcVTcBWjWkDFrREmHC_pad-10" x="144780" y="-81280"/><use xlink:href="#aVRcVTcBWjWkDFrREmHC_pad-10" x="142240" y="-81280"/><use xlink:href="#aVRcVTcBWjWkDFrREmHC_pad-10" x="139700" y="-81280"/><use xlink:href="#aVRcVTcBWjWkDFrREmHC_pad-10" x="137160" y="-81280"/><use xlink:href="#aVRcVTcBWjWkDFrREmHC_pad-11" x="118110" y="-81280"/><use xlink:href="#aVRcVTcBWjWkDFrREmHC_pad-12" x="120650" y="-81280"/><use xlink:href="#aVRcVTcBWjWkDFrREmHC_pad-12" x="118110" y="-83820"/><use xlink:href="#aVRcVTcBWjWkDFrREmHC_pad-12" x="120650" y="-83820"/><use xlink:href="#aVRcVTcBWjWkDFrREmHC_pad-12" x="118110" y="-86360"/><use xlink:href="#aVRcVTcBWjWkDFrREmHC_pad-12" x="120650" y="-86360"/><use xlink:href="#aVRcVTcBWjWkDFrREmHC_pad-12" x="118110" y="-88900"/><use xlink:href="#aVRcVTcBWjWkDFrREmHC_pad-12" x="120650" y="-88900"/><use xlink:href="#aVRcVTcBWjWkDFrREmHC_pad-12" x="118110" y="-91440"/><use xlink:href="#aVRcVTcBWjWkDFrREmHC_pad-12" x="120650" y="-91440"/><path d="M 138448.51 -78952.602 138488.119 -79011.881 138547.398 -79051.49 138547.399 -79051.491 138722.972 -79168.805 139000 -79223.909 139069.926 -79210 150790 -79210 150790 -80156.972 150626.924 -80008.355 150216.89 -79838.524 149987 -79959.845 149987 -81153 150007 -81153 150007 -81407 149987 -81407 149987 -82600.155 150216.89 -82721.476 150626.924 -82551.645 150790 -82403.028 150790.001 -87735.413 150439.418 -87501.161 150006.256 -87415 149713.744 -87415 149280.582 -87501.161 148789.375 -87829.375 148590 -88127.761 148390.625 -87829.375 147899.418 -87501.161 147466.256 -87415 147173.744 -87415 146740.582 -87501.161 146249.375 -87829.375 146050 -88127.761 145850.625 -87829.375 145359.418 -87501.161 144926.256 -87415 144633.744 -87415 144200.582 -87501.161 143709.375 -87829.375 143510 -88127.761 143310.625 -87829.375 142819.418 -87501.161 142386.256 -87415 142093.744 -87415 141660.582 -87501.161 141169.375 -87829.375 140970 -88127.761 140770.625 -87829.375 140279.418 -87501.161 139846.256 -87415 139553.744 -87415 139120.582 -87501.161 138629.375 -87829.375 138430 -88127.761 138230.625 -87829.375 137739.418 -87501.161 137306.256 -87415 137013.744 -87415 136580.582 -87501.161 136089.375 -87829.375 135761.161 -88320.582 135645.908 -88900 135761.161 -89479.418 136089.375 -89970.625 136580.582 -90298.839 137013.744 -90385 137306.256 -90385 137739.418 -90298.839 138230.625 -89970.625 138430 -89672.239 138629.375 -89970.625 139120.582 -90298.839 139553.744 -90385 139846.256 -90385 140279.418 -90298.839 140770.625 -89970.625 140970 -89672.239 141169.375 -89970.625 141660.582 -90298.839 142093.744 -90385 142386.256 -90385 142819.418 -90298.839 143310.625 -89970.625 143510 -89672.239 143709.375 -89970.625 144200.582 -90298.839 144633.744 -90385 144926.256 -90385 145359.418 -90298.839 145850.625 -89970.625 146050 -89672.239 146249.375 -89970.625 146740.582 -90298.839 147173.744 -90385 147466.256 -90385 147899.418 -90298.839 148390.625 -89970.625 148590 -89672.239 148789.375 -89970.625 149280.582 -90298.839 149713.744 -90385 150006.256 -90385 150439.418 -90298.839 150790.001 -90064.587 150790.001 -90790 140569.926 -90790 140500 -90776.091 140430.074 -90790 140222.972 -90831.195 139988.119 -90988.119 139948.51 -91047.398 134705.91 -96290 115210 -96290 115210 -91440 116582.041 -91440 116698.35 -92024.725 117029.57 -92520.43 117525.275 -92851.65 117962.402 -92938.6 118257.598 -92938.6 118694.725 -92851.65 119190.43 -92520.43 119380 -92236.719 119569.57 -92520.43 120065.275 -92851.65 120502.402 -92938.6 120797.598 -92938.6 121234.725 -92851.65 121730.43 -92520.43 122061.65 -92024.725 122177.959 -91440 122061.65 -90855.275 121730.43 -90359.57 121428.979 -90158.146 121538.49 -90106.821 121932.688 -89674.947 122104.958 -89259.026 121983.817 -89027 120777 -89027 120777 -89047 120523 -89047 120523 -89027 118237 -89027 118237 -89047 117983 -89047 117983 -89027 116776.183 -89027 116655.042 -89259.026 116827.312 -89674.947 117221.51 -90106.821 117331.021 -90158.146 117029.57 -90359.57 116698.35 -90855.275 116582.041 -91440 115210 -91440 115210 -86719.026 116655.042 -86719.026 116827.312 -87134.947 117221.51 -87566.821 117356.313 -87630 117221.51 -87693.179 116827.312 -88125.053 116655.042 -88540.974 116776.183 -88773 117983 -88773 117983 -86487 118237 -86487 118237 -88773 120523 -88773 120523 -86487 120777 -86487 120777 -88773 121983.817 -88773 122104.958 -88540.974 121932.688 -88125.053 121538.49 -87693.179 121403.687 -87630 121538.49 -87566.821 121932.688 -87134.947 122104.958 -86719.026 121983.817 -86487 120777 -86487 120523 -86487 118237 -86487 117983 -86487 116776.183 -86487 116655.042 -86719.026 115210 -86719.026 115210 -84179.026 116655.042 -84179.026 116827.312 -84594.947 117221.51 -85026.821 117356.313 -85090 117221.51 -85153.179 116827.312 -85585.053 116655.042 -86000.974 116776.183 -86233 117983 -86233 117983 -83947 118237 -83947 118237 -86233 120523 -86233 120523 -83947 120777 -83947 120777 -86233 121983.817 -86233 122104.958 -86000.974 121932.688 -85585.053 121538.49 -85153.179 121403.687 -85090 121538.49 -85026.821 121932.688 -84594.947 122104.958 -84179.026 121983.817 -83947 120777 -83947 120523 -83947 118237 -83947 117983 -83947 116776.183 -83947 116655.042 -84179.026 115210 -84179.026 115210 -80416.4 116598.96 -80416.4 116598.96 -82143.6 116648.243 -82391.365 116788.591 -82601.409 116998.635 -82741.757 117087.936 -82759.52 116827.312 -83045.053 116655.042 -83460.974 116776.183 -83693 117983 -83693 117983 -83673 118237 -83673 118237 -83693 120523 -83693 120523 -83673 120777 -83673 120777 -83693 121983.817 -83693 122104.958 -83460.974 121932.688 -83045.053 121538.49 -82613.179 121428.979 -82561.854 121730.43 -82360.43 122061.65 -81864.725 122177.959 -81280 135645.908 -81280 135761.161 -81859.418 136089.375 -82350.625 136580.582 -82678.839 137013.744 -82765 137306.256 -82765 137739.418 -82678.839 138230.625 -82350.625 138430 -82052.239 138629.375 -82350.625 139120.582 -82678.839 139553.744 -82765 139846.256 -82765 140279.418 -82678.839 140770.625 -82350.625 140970 -82052.239 141169.375 -82350.625 141660.582 -82678.839 142093.744 -82765 142386.256 -82765 142819.418 -82678.839 143310.625 -82350.625 143523.843 -82031.522 143584.817 -82161.358 144013.076 -82551.645 144423.11 -82721.476 144653 -82600.155 144653 -81407 144907 -81407 144907 -82600.155 145136.89 -82721.476 145546.924 -82551.645 145975.183 -82161.358 146050 -82002.046 146124.817 -82161.358 146553.076 -82551.645 146963.11 -82721.476 147193 -82600.155 147193 -81407 147447 -81407 147447 -82600.155 147676.89 -82721.476 148086.924 -82551.645 148515.183 -82161.358 148590 -82002.046 148664.817 -82161.358 149093.076 -82551.645 149503.11 -82721.476 149733 -82600.155 149733 -81407 147447 -81407 147193 -81407 144907 -81407 144653 -81407 144633 -81407 144633 -81153 144653 -81153 144653 -79959.845 144907 -79959.845 144907 -81153 147193 -81153 147193 -79959.845 147447 -79959.845 147447 -81153 149733 -81153 149733 -79959.845 149503.11 -79838.524 149093.076 -80008.355 148664.817 -80398.642 148590 -80557.954 148515.183 -80398.642 148086.924 -80008.355 147676.89 -79838.524 147447 -79959.845 147193 -79959.845 146963.11 -79838.524 146553.076 -80008.355 146124.817 -80398.642 146050 -80557.954 145975.183 -80398.642 145546.924 -80008.355 145136.89 -79838.524 144907 -79959.845 144653 -79959.845 144423.11 -79838.524 144013.076 -80008.355 143584.817 -80398.642 143523.843 -80528.478 143310.625 -80209.375 142819.418 -79881.161 142386.256 -79795 142093.744 -79795 141660.582 -79881.161 141169.375 -80209.375 140970 -80507.761 140770.625 -80209.375 140279.418 -79881.161 139846.256 -79795 139553.744 -79795 139120.582 -79881.161 138629.375 -80209.375 138430 -80507.761 138230.625 -80209.375 137739.418 -79881.161 137306.256 -79795 137013.744 -79795 136580.582 -79881.161 136089.375 -80209.375 135761.161 -80700.582 135645.908 -81280 122177.959 -81280 122061.65 -80695.275 121730.43 -80199.57 121234.725 -79868.35 120797.598 -79781.4 120502.402 -79781.4 120065.275 -79868.35 119576.932 -80194.651 119571.757 -80168.635 119431.409 -79958.591 119221.365 -79818.243 118973.6 -79768.96 117246.4 -79768.96 116998.635 -79818.243 116788.591 -79958.591 116648.243 -80168.635 116598.96 -80416.4 115210 -80416.4 115210 -76210 135705.91 -76210 138448.51 -78952.602 138448.51 -78952.602"/><path d="M 138448.51 -78952.602 138488.119 -79011.881 138547.398 -79051.49 138547.399 -79051.491 138722.972 -79168.805 139000 -79223.909 139069.926 -79210 150790 -79210 150790 -80156.972 150626.924 -80008.355 150216.89 -79838.524 149987 -79959.845 149987 -81153 150007 -81153 150007 -81407 149987 -81407 149987 -82600.155 150216.89 -82721.476 150626.924 -82551.645 150790 -82403.028 150790.001 -87735.413 150439.418 -87501.161 150006.256 -87415 149713.744 -87415 149280.582 -87501.161 148789.375 -87829.375 148590 -88127.761 148390.625 -87829.375 147899.418 -87501.161 147466.256 -87415 147173.744 -87415 146740.582 -87501.161 146249.375 -87829.375 146050 -88127.761 145850.625 -87829.375 145359.418 -87501.161 144926.256 -87415 144633.744 -87415 144200.582 -87501.161 143709.375 -87829.375 143510 -88127.761 143310.625 -87829.375 142819.418 -87501.161 142386.256 -87415 142093.744 -87415 141660.582 -87501.161 141169.375 -87829.375 140970 -88127.761 140770.625 -87829.375 140279.418 -87501.161 139846.256 -87415 139553.744 -87415 139120.582 -87501.161 138629.375 -87829.375 138430 -88127.761 138230.625 -87829.375 137739.418 -87501.161 137306.256 -87415 137013.744 -87415 136580.582 -87501.161 136089.375 -87829.375 135761.161 -88320.582 135645.908 -88900 135761.161 -89479.418 136089.375 -89970.625 136580.582 -90298.839 137013.744 -90385 137306.256 -90385 137739.418 -90298.839 138230.625 -89970.625 138430 -89672.239 138629.375 -89970.625 139120.582 -90298.839 139553.744 -90385 139846.256 -90385 140279.418 -90298.839 140770.625 -89970.625 140970 -89672.239 141169.375 -89970.625 141660.582 -90298.839 142093.744 -90385 142386.256 -90385 142819.418 -90298.839 143310.625 -89970.625 143510 -89672.239 143709.375 -89970.625 144200.582 -90298.839 144633.744 -90385 144926.256 -90385 145359.418 -90298.839 145850.625 -89970.625 146050 -89672.239 146249.375 -89970.625 146740.582 -90298.839 147173.744 -90385 147466.256 -90385 147899.418 -90298.839 148390.625 -89970.625 148590 -89672.239 148789.375 -89970.625 149280.582 -90298.839 149713.744 -90385 150006.256 -90385 150439.418 -90298.839 150790.001 -90064.587 150790.001 -90790 140569.926 -90790 140500 -90776.091 140430.074 -90790 140222.972 -90831.195 139988.119 -90988.119 139948.51 -91047.398 134705.91 -96290 115210 -96290 115210 -91440 116582.041 -91440 116698.35 -92024.725 117029.57 -92520.43 117525.275 -92851.65 117962.402 -92938.6 118257.598 -92938.6 118694.725 -92851.65 119190.43 -92520.43 119380 -92236.719 119569.57 -92520.43 120065.275 -92851.65 120502.402 -92938.6 120797.598 -92938.6 121234.725 -92851.65 121730.43 -92520.43 122061.65 -92024.725 122177.959 -91440 122061.65 -90855.275 121730.43 -90359.57 121428.979 -90158.146 121538.49 -90106.821 121932.688 -89674.947 122104.958 -89259.026 121983.817 -89027 120777 -89027 120777 -89047 120523 -89047 120523 -89027 118237 -89027 118237 -89047 117983 -89047 117983 -89027 116776.183 -89027 116655.042 -89259.026 116827.312 -89674.947 117221.51 -90106.821 117331.021 -90158.146 117029.57 -90359.57 116698.35 -90855.275 116582.041 -91440 115210 -91440 115210 -86719.026 116655.042 -86719.026 116827.312 -87134.947 117221.51 -87566.821 117356.313 -87630 117221.51 -87693.179 116827.312 -88125.053 116655.042 -88540.974 116776.183 -88773 117983 -88773 117983 -86487 118237 -86487 118237 -88773 120523 -88773 120523 -86487 120777 -86487 120777 -88773 121983.817 -88773 122104.958 -88540.974 121932.688 -88125.053 121538.49 -87693.179 121403.687 -87630 121538.49 -87566.821 121932.688 -87134.947 122104.958 -86719.026 121983.817 -86487 120777 -86487 120523 -86487 118237 -86487 117983 -86487 116776.183 -86487 116655.042 -86719.026 115210 -86719.026 115210 -84179.026 116655.042 -84179.026 116827.312 -84594.947 117221.51 -85026.821 117356.313 -85090 117221.51 -85153.179 116827.312 -85585.053 116655.042 -86000.974 116776.183 -86233 117983 -86233 117983 -83947 118237 -83947 118237 -86233 120523 -86233 120523 -83947 120777 -83947 120777 -86233 121983.817 -86233 122104.958 -86000.974 121932.688 -85585.053 121538.49 -85153.179 121403.687 -85090 121538.49 -85026.821 121932.688 -84594.947 122104.958 -84179.026 121983.817 -83947 120777 -83947 120523 -83947 118237 -83947 117983 -83947 116776.183 -83947 116655.042 -84179.026 115210 -84179.026 115210 -80416.4 116598.96 -80416.4 116598.96 -82143.6 116648.243 -82391.365 116788.591 -82601.409 116998.635 -82741.757 117087.936 -82759.52 116827.312 -83045.053 116655.042 -83460.974 116776.183 -83693 117983 -83693 117983 -83673 118237 -83673 118237 -83693 120523 -83693 120523 -83673 120777 -83673 120777 -83693 121983.817 -83693 122104.958 -83460.974 121932.688 -83045.053 121538.49 -82613.179 121428.979 -82561.854 121730.43 -82360.43 122061.65 -81864.725 122177.959 -81280 135645.908 -81280 135761.161 -81859.418 136089.375 -82350.625 136580.582 -82678.839 137013.744 -82765 137306.256 -82765 137739.418 -82678.839 138230.625 -82350.625 138430 -82052.239 138629.375 -82350.625 139120.582 -82678.839 139553.744 -82765 139846.256 -82765 140279.418 -82678.839 140770.625 -82350.625 140970 -82052.239 141169.375 -82350.625 141660.582 -82678.839 142093.744 -82765 142386.256 -82765 142819.418 -82678.839 143310.625 -82350.625 143523.843 -82031.522 143584.817 -82161.358 144013.076 -82551.645 144423.11 -82721.476 144653 -82600.155 144653 -81407 144907 -81407 144907 -82600.155 145136.89 -82721.476 145546.924 -82551.645 145975.183 -82161.358 146050 -82002.046 146124.817 -82161.358 146553.076 -82551.645 146963.11 -82721.476 147193 -82600.155 147193 -81407 147447 -81407 147447 -82600.155 147676.89 -82721.476 148086.924 -82551.645 148515.183 -82161.358 148590 -82002.046 148664.817 -82161.358 149093.076 -82551.645 149503.11 -82721.476 149733 -82600.155 149733 -81407 147447 -81407 147193 -81407 144907 -81407 144653 -81407 144633 -81407 144633 -81153 144653 -81153 144653 -79959.845 144907 -79959.845 144907 -81153 147193 -81153 147193 -79959.845 147447 -79959.845 147447 -81153 149733 -81153 149733 -79959.845 149503.11 -79838.524 149093.076 -80008.355 148664.817 -80398.642 148590 -80557.954 148515.183 -80398.642 148086.924 -80008.355 147676.89 -79838.524 147447 -79959.845 147193 -79959.845 146963.11 -79838.524 146553.076 -80008.355 146124.817 -80398.642 146050 -80557.954 145975.183 -80398.642 145546.924 -80008.355 145136.89 -79838.524 144907 -79959.845 144653 -79959.845 144423.11 -79838.524 144013.076 -80008.355 143584.817 -80398.642 143523.843 -80528.478 143310.625 -80209.375 142819.418 -79881.161 142386.256 -79795 142093.744 -79795 141660.582 -79881.161 141169.375 -80209.375 140970 -80507.761 140770.625 -80209.375 140279.418 -79881.161 139846.256 -79795 139553.744 -79795 139120.582 -79881.161 138629.375 -80209.375 138430 -80507.761 138230.625 -80209.375 137739.418 -79881.161 137306.256 -79795 137013.744 -79795 136580.582 -79881.161 136089.375 -80209.375 135761.161 -80700.582 135645.908 -81280 122177.959 -81280 122061.65 -80695.275 121730.43 -80199.57 121234.725 -79868.35 120797.598 -79781.4 120502.402 -79781.4 120065.275 -79868.35 119576.932 -80194.651 119571.757 -80168.635 119431.409 -79958.591 119221.365 -79818.243 118973.6 -79768.96 117246.4 -79768.96 116998.635 -79818.243 116788.591 -79958.591 116648.243 -80168.635 116598.96 -80416.4 115210 -80416.4 115210 -76210 135705.91 -76210 138448.51 -78952.602" fill="none" stroke-width="254"/><use xlink:href="#aVRcVTcBWjWkDFrREmHC_pad-14" x="137160" y="-88900"/><use xlink:href="#aVRcVTcBWjWkDFrREmHC_pad-14" x="139700" y="-88900"/><use xlink:href="#aVRcVTcBWjWkDFrREmHC_pad-14" x="142240" y="-88900"/><use xlink:href="#aVRcVTcBWjWkDFrREmHC_pad-14" x="144780" y="-88900"/><use xlink:href="#aVRcVTcBWjWkDFrREmHC_pad-14" x="147320" y="-88900"/><use xlink:href="#aVRcVTcBWjWkDFrREmHC_pad-14" x="149860" y="-88900"/><use xlink:href="#aVRcVTcBWjWkDFrREmHC_pad-14" x="149860" y="-81280"/><use xlink:href="#aVRcVTcBWjWkDFrREmHC_pad-14" x="147320" y="-81280"/><use xlink:href="#aVRcVTcBWjWkDFrREmHC_pad-14" x="144780" y="-81280"/><use xlink:href="#aVRcVTcBWjWkDFrREmHC_pad-14" x="142240" y="-81280"/><use xlink:href="#aVRcVTcBWjWkDFrREmHC_pad-14" x="139700" y="-81280"/><use xlink:href="#aVRcVTcBWjWkDFrREmHC_pad-14" x="137160" y="-81280"/><use xlink:href="#aVRcVTcBWjWkDFrREmHC_pad-14" x="118110" y="-81280"/><use xlink:href="#aVRcVTcBWjWkDFrREmHC_pad-14" x="120650" y="-81280"/><use xlink:href="#aVRcVTcBWjWkDFrREmHC_pad-14" x="118110" y="-83820"/><use xlink:href="#aVRcVTcBWjWkDFrREmHC_pad-14" x="120650" y="-83820"/><use xlink:href="#aVRcVTcBWjWkDFrREmHC_pad-14" x="118110" y="-86360"/><use xlink:href="#aVRcVTcBWjWkDFrREmHC_pad-14" x="120650" y="-86360"/><use xlink:href="#aVRcVTcBWjWkDFrREmHC_pad-14" x="118110" y="-88900"/><use xlink:href="#aVRcVTcBWjWkDFrREmHC_pad-14" x="120650" y="-88900"/><use xlink:href="#aVRcVTcBWjWkDFrREmHC_pad-14" x="118110" y="-91440"/><use xlink:href="#aVRcVTcBWjWkDFrREmHC_pad-14" x="120650" y="-91440"/></g><g id="drWAf9hmVb05gsuAN5EF_bottom_drill1"><use xlink:href="#IxixiROrUcrGrvZKP1dk_pad-1" x="137160" y="-81280"/><use xlink:href="#IxixiROrUcrGrvZKP1dk_pad-1" x="139700" y="-81280"/><use xlink:href="#IxixiROrUcrGrvZKP1dk_pad-1" x="142240" y="-81280"/><use xlink:href="#IxixiROrUcrGrvZKP1dk_pad-1" x="144780" y="-81280"/><use xlink:href="#IxixiROrUcrGrvZKP1dk_pad-1" x="147320" y="-81280"/><use xlink:href="#IxixiROrUcrGrvZKP1dk_pad-1" x="149860" y="-81280"/><use xlink:href="#IxixiROrUcrGrvZKP1dk_pad-1" x="137160" y="-88900"/><use xlink:href="#IxixiROrUcrGrvZKP1dk_pad-1" x="139700" y="-88900"/><use xlink:href="#IxixiROrUcrGrvZKP1dk_pad-1" x="142240" y="-88900"/><use xlink:href="#IxixiROrUcrGrvZKP1dk_pad-1" x="144780" y="-88900"/><use xlink:href="#IxixiROrUcrGrvZKP1dk_pad-1" x="147320" y="-88900"/><use xlink:href="#IxixiROrUcrGrvZKP1dk_pad-1" x="149860" y="-88900"/><use xlink:href="#IxixiROrUcrGrvZKP1dk_pad-2" x="118110" y="-81280"/><use xlink:href="#IxixiROrUcrGrvZKP1dk_pad-2" x="118110" y="-83820"/><use xlink:href="#IxixiROrUcrGrvZKP1dk_pad-2" x="118110" y="-86360"/><use xlink:href="#IxixiROrUcrGrvZKP1dk_pad-2" x="118110" y="-88900"/><use xlink:href="#IxixiROrUcrGrvZKP1dk_pad-2" x="118110" y="-91440"/><use xlink:href="#IxixiROrUcrGrvZKP1dk_pad-2" x="120650" y="-81280"/><use xlink:href="#IxixiROrUcrGrvZKP1dk_pad-2" x="120650" y="-83820"/><use xlink:href="#IxixiROrUcrGrvZKP1dk_pad-2" x="120650" y="-86360"/><use xlink:href="#IxixiROrUcrGrvZKP1dk_pad-2" x="120650" y="-88900"/><use xlink:href="#IxixiROrUcrGrvZKP1dk_pad-2" x="120650" y="-91440"/></g><clipPath id="drWAf9hmVb05gsuAN5EF_bottom_outline"><path d="M 135000 -97000 140500 -91500 151500 -91500 151500 -78500 139000 -78500 136000 -75500 114500 -75500 114500 -97000 135000 -97000" fill="none" stroke-width="150"/></clipPath><mask id="drWAf9hmVb05gsuAN5EF_bottom_mech-mask"><g fill="#000" stroke="#000"><rect x="114500" y="-97000" width="37000" height="21500" fill="#fff"/><use xlink:href="#drWAf9hmVb05gsuAN5EF_bottom_drill1"/></g></mask><mask id="drWAf9hmVb05gsuAN5EF_bottom_cf-mask"><g fill="#fff" stroke="#fff"><use xlink:href="#drWAf9hmVb05gsuAN5EF_bottom_soldermask"/></g></mask><mask id="drWAf9hmVb05gsuAN5EF_bottom_sm-mask"><g fill="#000" stroke="#000"><rect x="114500" y="-97000" width="37000" height="21500" fill="#fff"/><use xlink:href="#drWAf9hmVb05gsuAN5EF_bottom_soldermask"/></g></mask></defs><g transform="translate(0,-172500) scale(1,-1)"><g mask="url(#drWAf9hmVb05gsuAN5EF_bottom_mech-mask)" clip-path="url(#drWAf9hmVb05gsuAN5EF_bottom_outline)" transform="translate(266000,0) scale(-1,1)"><rect x="114500" y="-97000" width="37000" height="21500" fill="currentColor" class="drWAf9hmVb05gsuAN5EF_fr4"/><use xlink:href="#drWAf9hmVb05gsuAN5EF_bottom_copper" fill="currentColor" stroke="currentColor" class="drWAf9hmVb05gsuAN5EF_cu"/><use xlink:href="#drWAf9hmVb05gsuAN5EF_bottom_copper" fill="currentColor" stroke="currentColor" class="drWAf9hmVb05gsuAN5EF_cf" mask="url(#drWAf9hmVb05gsuAN5EF_bottom_cf-mask)"/><g mask="url(#drWAf9hmVb05gsuAN5EF_bottom_sm-mask)"><rect x="114500" y="-97000" width="37000" height="21500" fill="currentColor" class="drWAf9hmVb05gsuAN5EF_sm"/></g></g></g></svg>