<svg version="1.1" xmlns="http://www.w3.org/2000/svg" xmlns:xlink="http://www.w3.org/1999/xlink" stroke-linecap="round" stroke-linejoin="round" stroke-width="0" fill-rule="evenodd" clip-rule="evenodd" id="r0qRDW_QwHsOc_y9Ew9G_top" viewBox="101000 -75000 20000 19000" width="20mm" height="19mm" class="w-100 h-100"><defs><style>.r0qRDW_QwHsOc_y9Ew9G_fr4 {color: #666666;}
.r0qRDW_QwHsOc_y9Ew9G_cu {color: #cccccc;}
.r0qRDW_QwHsOc_y9Ew9G_cf {color: #cc9933;}
.r0qRDW_QwHsOc_y9Ew9G_sm {color: #004200; opacity: 0.75;}
.r0qRDW_QwHsOc_y9Ew9G_ss {color: #ffffff;}
.r0qRDW_QwHsOc_y9Ew9G_sp {color: #999999;}
.r0qRDW_QwHsOc_y9Ew9G_out {color: #000000;}</style><rect x="-1050" y="-1050" width="2100" height="2100" rx="1050" ry="1050" id="IbDOS3oKWhs8PsX-ZMG9_pad-10"/><rect x="-1000" y="-1350" width="2000" height="2700" rx="1000" ry="1000" id="IbDOS3oKWhs8PsX-ZMG9_pad-11"/><rect x="-1000" y="-1450" width="2000" height="2900" rx="1000" ry="1000" id="IbDOS3oKWhs8PsX-ZMG9_pad-12"/><rect x="-950" y="-1450" width="1900" height="2900" rx="950" ry="950" id="IbDOS3oKWhs8PsX-ZMG9_pad-13"/><circle cx="0" cy="0" r="1700" id="IbDOS3oKWhs8PsX-ZMG9_pad-14"/><circle cx="0" cy="0" r="637.5" id="IbDOS3oKWhs8PsX-ZMG9_pad-16"/><rect x="-600" y="-650" width="1200" height="1300" id="IbDOS3oKWhs8PsX-ZMG9_pad-17"/><circle cx="0" cy="0" r="437.5" id="UZeHzxKpeF4q12jeSu01_pad-11"/><rect x="-400" y="-450" width="800" height="900" id="UZeHzxKpeF4q12jeSu01_pad-12"/><rect x="-850" y="-850" width="1700" height="1700" rx="850" ry="850" id="V7dqRyVNLz21KcQVXrpz_pad-10"/><rect x="-800" y="-1150" width="1600" height="2300" rx="800" ry="800" id="V7dqRyVNLz21KcQVXrpz_pad-11"/><rect x="-800" y="-1250" width="1600" height="2500" rx="800" ry="800" id="V7dqRyVNLz21KcQVXrpz_pad-12"/><rect x="-750" y="-1250" width="1500" height="2500" rx="750" ry="750" id="V7dqRyVNLz21KcQVXrpz_pad-13"/><circle cx="0" cy="0" r="437.5" id="V7dqRyVNLz21KcQVXrpz_pad-15"/><rect x="-400" y="-450" width="800" height="900" id="V7dqRyVNLz21KcQVXrpz_pad-16"/><circle cx="0" cy="0" r="175" id="V7dqRyVNLz21KcQVXrpz_pad-19"/><rect x="-300" y="-650" width="600" height="1300" rx="300" ry="300" id="V7dqRyVNLz21KcQVXrpz_pad-20"/><rect x="-300" y="-750" width="600" height="1500" rx="300" ry="300" id="V7dqRyVNLz21KcQVXrpz_pad-21"/><rect x="-250" y="-750" width="500" height="1500" rx="250" ry="250" id="V7dqRyVNLz21KcQVXrpz_pad-22"/><circle cx="0" cy="0" r="500" id="zJMuXMU6tsVxB439zihp_pad-3"/><circle cx="0" cy="0" r="1500" id="zJMuXMU6tsVxB439zihp_pad-4"/><g id="r0qRDW_QwHsOc_y9Ew9G_top_soldermask"><use xlink:href="#IbDOS3oKWhs8PsX-ZMG9_pad-10" x="116340" y="-73160"/><use xlink:href="#IbDOS3oKWhs8PsX-ZMG9_pad-10" x="113800" y="-73160"/><use xlink:href="#IbDOS3oKWhs8PsX-ZMG9_pad-10" x="111260" y="-73160"/><use xlink:href="#IbDOS3oKWhs8PsX-ZMG9_pad-10" x="108720" y="-73160"/><use xlink:href="#IbDOS3oKWhs8PsX-ZMG9_pad-10" x="106180" y="-73160"/><use xlink:href="#IbDOS3oKWhs8PsX-ZMG9_pad-10" x="103640" y="-73160"/><use xlink:href="#IbDOS3oKWhs8PsX-ZMG9_pad-10" x="103640" y="-57920"/><use xlink:href="#IbDOS3oKWhs8PsX-ZMG9_pad-10" x="106180" y="-57920"/><use xlink:href="#IbDOS3oKWhs8PsX-ZMG9_pad-10" x="108720" y="-57920"/><use xlink:href="#IbDOS3oKWhs8PsX-ZMG9_pad-10" x="111260" y="-57920"/><use xlink:href="#IbDOS3oKWhs8PsX-ZMG9_pad-10" x="113800" y="-57920"/><use xlink:href="#IbDOS3oKWhs8PsX-ZMG9_pad-10" x="116340" y="-57920"/><use xlink:href="#IbDOS3oKWhs8PsX-ZMG9_pad-11" x="102875" y="-65540"/><use xlink:href="#IbDOS3oKWhs8PsX-ZMG9_pad-12" x="105975" y="-65540"/><use xlink:href="#IbDOS3oKWhs8PsX-ZMG9_pad-13" x="114275" y="-65540"/><use xlink:href="#IbDOS3oKWhs8PsX-ZMG9_pad-14" x="109355" y="-65540"/><path d="M 118485.493 -61556.535 118516.435 -61561.125 118546.778 -61568.725 118576.23 -61579.263 118604.508 -61592.638 118631.338 -61608.719 118656.463 -61627.353 118679.64 -61648.36 118700.647 -61671.537 118719.281 -61696.662 118735.362 -61723.492 118748.737 -61751.77 118759.275 -61781.222 118766.875 -61811.565 118771.465 -61842.507 118773 -61873.75 118773 -62586.25 118771.465 -62617.493 118766.875 -62648.435 118759.275 -62678.778 118748.737 -62708.23 118735.362 -62736.508 118719.281 -62763.338 118700.647 -62788.463 118679.64 -62811.64 118656.463 -62832.647 118631.338 -62851.281 118604.508 -62867.362 118576.23 -62880.737 118546.778 -62891.275 118516.435 -62898.875 118485.493 -62903.465 118454.25 -62905 117816.75 -62905 117785.507 -62903.465 117754.565 -62898.875 117724.222 -62891.275 117694.77 -62880.737 117666.492 -62867.362 117639.662 -62851.281 117614.537 -62832.647 117591.36 -62811.64 117570.353 -62788.463 117551.719 -62763.338 117535.638 -62736.508 117522.263 -62708.23 117511.725 -62678.778 117504.125 -62648.435 117499.535 -62617.493 117498 -62586.25 117498 -61873.75 117499.535 -61842.507 117504.125 -61811.565 117511.725 -61781.222 117522.263 -61751.77 117535.638 -61723.492 117551.719 -61696.662 117570.353 -61671.537 117591.36 -61648.36 117614.537 -61627.353 117639.662 -61608.719 117666.492 -61592.638 117694.77 -61579.263 117724.222 -61568.725 117754.565 -61561.125 117785.507 -61556.535 117816.75 -61555 118454.25 -61555 118485.493 -61556.535 118485.493 -61556.535"/><use xlink:href="#IbDOS3oKWhs8PsX-ZMG9_pad-16" x="118135.5" y="-62230"/><path d="M 116910.493 -61556.535 116941.435 -61561.125 116971.778 -61568.725 117001.23 -61579.263 117029.508 -61592.638 117056.338 -61608.719 117081.463 -61627.353 117104.64 -61648.36 117125.647 -61671.537 117144.281 -61696.662 117160.362 -61723.492 117173.737 -61751.77 117184.275 -61781.222 117191.875 -61811.565 117196.465 -61842.507 117198 -61873.75 117198 -62586.25 117196.465 -62617.493 117191.875 -62648.435 117184.275 -62678.778 117173.737 -62708.23 117160.362 -62736.508 117144.281 -62763.338 117125.647 -62788.463 117104.64 -62811.64 117081.463 -62832.647 117056.338 -62851.281 117029.508 -62867.362 117001.23 -62880.737 116971.778 -62891.275 116941.435 -62898.875 116910.493 -62903.465 116879.25 -62905 116241.75 -62905 116210.507 -62903.465 116179.565 -62898.875 116149.222 -62891.275 116119.77 -62880.737 116091.492 -62867.362 116064.662 -62851.281 116039.537 -62832.647 116016.36 -62811.64 115995.353 -62788.463 115976.719 -62763.338 115960.638 -62736.508 115947.263 -62708.23 115936.725 -62678.778 115929.125 -62648.435 115924.535 -62617.493 115923 -62586.25 115923 -61873.75 115924.535 -61842.507 115929.125 -61811.565 115936.725 -61781.222 115947.263 -61751.77 115960.638 -61723.492 115976.719 -61696.662 115995.353 -61671.537 116016.36 -61648.36 116039.537 -61627.353 116064.662 -61608.719 116091.492 -61592.638 116119.77 -61579.263 116149.222 -61568.725 116179.565 -61561.125 116210.507 -61556.535 116241.75 -61555 116879.25 -61555 116910.493 -61556.535 116910.493 -61556.535"/><use xlink:href="#IbDOS3oKWhs8PsX-ZMG9_pad-16" x="116560.5" y="-62230"/><path d="M 119513.493 -59587.535 119544.435 -59592.125 119574.778 -59599.725 119604.23 -59610.263 119632.508 -59623.638 119659.338 -59639.719 119684.463 -59658.353 119707.64 -59679.36 119728.647 -59702.537 119747.281 -59727.662 119763.362 -59754.492 119776.737 -59782.77 119787.275 -59812.222 119794.875 -59842.565 119799.465 -59873.507 119801 -59904.75 119801 -60542.25 119799.465 -60573.493 119794.875 -60604.435 119787.275 -60634.778 119776.737 -60664.23 119763.362 -60692.508 119747.281 -60719.338 119728.647 -60744.463 119707.64 -60767.64 119684.463 -60788.647 119659.338 -60807.281 119632.508 -60823.362 119604.23 -60836.737 119574.778 -60847.275 119544.435 -60854.875 119513.493 -60859.465 119482.25 -60861 118769.75 -60861 118738.507 -60859.465 118707.565 -60854.875 118677.222 -60847.275 118647.77 -60836.737 118619.492 -60823.362 118592.662 -60807.281 118567.537 -60788.647 118544.36 -60767.64 118523.353 -60744.463 118504.719 -60719.338 118488.638 -60692.508 118475.263 -60664.23 118464.725 -60634.778 118457.125 -60604.435 118452.535 -60573.493 118451 -60542.25 118451 -59904.75 118452.535 -59873.507 118457.125 -59842.565 118464.725 -59812.222 118475.263 -59782.77 118488.638 -59754.492 118504.719 -59727.662 118523.353 -59702.537 118544.36 -59679.36 118567.537 -59658.353 118592.662 -59639.719 118619.492 -59623.638 118647.77 -59610.263 118677.222 -59599.725 118707.565 -59592.125 118738.507 -59587.535 118769.75 -59586 119482.25 -59586 119513.493 -59587.535 119513.493 -59587.535"/><use xlink:href="#IbDOS3oKWhs8PsX-ZMG9_pad-16" x="119126" y="-60223.5"/><path d="M 119513.493 -58012.535 119544.435 -58017.125 119574.778 -58024.725 119604.23 -58035.263 119632.508 -58048.638 119659.338 -58064.719 119684.463 -58083.353 119707.64 -58104.36 119728.647 -58127.537 119747.281 -58152.662 119763.362 -58179.492 119776.737 -58207.77 119787.275 -58237.222 119794.875 -58267.565 119799.465 -58298.507 119801 -58329.75 119801 -58967.25 119799.465 -58998.493 119794.875 -59029.435 119787.275 -59059.778 119776.737 -59089.23 119763.362 -59117.508 119747.281 -59144.338 119728.647 -59169.463 119707.64 -59192.64 119684.463 -59213.647 119659.338 -59232.281 119632.508 -59248.362 119604.23 -59261.737 119574.778 -59272.275 119544.435 -59279.875 119513.493 -59284.465 119482.25 -59286 118769.75 -59286 118738.507 -59284.465 118707.565 -59279.875 118677.222 -59272.275 118647.77 -59261.737 118619.492 -59248.362 118592.662 -59232.281 118567.537 -59213.647 118544.36 -59192.64 118523.353 -59169.463 118504.719 -59144.338 118488.638 -59117.508 118475.263 -59089.23 118464.725 -59059.778 118457.125 -59029.435 118452.535 -58998.493 118451 -58967.25 118451 -58329.75 118452.535 -58298.507 118457.125 -58267.565 118464.725 -58237.222 118475.263 -58207.77 118488.638 -58179.492 118504.719 -58152.662 118523.353 -58127.537 118544.36 -58104.36 118567.537 -58083.353 118592.662 -58064.719 118619.492 -58048.638 118647.77 -58035.263 118677.222 -58024.725 118707.565 -58017.125 118738.507 -58012.535 118769.75 -58011 119482.25 -58011 119513.493 -58012.535 119513.493 -58012.535"/><use xlink:href="#IbDOS3oKWhs8PsX-ZMG9_pad-16" x="119126" y="-58648.5"/><path d="M 118485.493 -68414.535 118516.435 -68419.125 118546.778 -68426.725 118576.23 -68437.263 118604.508 -68450.638 118631.338 -68466.719 118656.463 -68485.353 118679.64 -68506.36 118700.647 -68529.537 118719.281 -68554.662 118735.362 -68581.492 118748.737 -68609.77 118759.275 -68639.222 118766.875 -68669.565 118771.465 -68700.507 118773 -68731.75 118773 -69444.25 118771.465 -69475.493 118766.875 -69506.435 118759.275 -69536.778 118748.737 -69566.23 118735.362 -69594.508 118719.281 -69621.338 118700.647 -69646.463 118679.64 -69669.64 118656.463 -69690.647 118631.338 -69709.281 118604.508 -69725.362 118576.23 -69738.737 118546.778 -69749.275 118516.435 -69756.875 118485.493 -69761.465 118454.25 -69763 117816.75 -69763 117785.507 -69761.465 117754.565 -69756.875 117724.222 -69749.275 117694.77 -69738.737 117666.492 -69725.362 117639.662 -69709.281 117614.537 -69690.647 117591.36 -69669.64 117570.353 -69646.463 117551.719 -69621.338 117535.638 -69594.508 117522.263 -69566.23 117511.725 -69536.778 117504.125 -69506.435 117499.535 -69475.493 117498 -69444.25 117498 -68731.75 117499.535 -68700.507 117504.125 -68669.565 117511.725 -68639.222 117522.263 -68609.77 117535.638 -68581.492 117551.719 -68554.662 117570.353 -68529.537 117591.36 -68506.36 117614.537 -68485.353 117639.662 -68466.719 117666.492 -68450.638 117694.77 -68437.263 117724.222 -68426.725 117754.565 -68419.125 117785.507 -68414.535 117816.75 -68413 118454.25 -68413 118485.493 -68414.535 118485.493 -68414.535"/><use xlink:href="#IbDOS3oKWhs8PsX-ZMG9_pad-16" x="118135.5" y="-69088"/><path d="M 116910.493 -68414.535 116941.435 -68419.125 116971.778 -68426.725 117001.23 -68437.263 117029.508 -68450.638 117056.338 -68466.719 117081.463 -68485.353 117104.64 -68506.36 117125.647 -68529.537 117144.281 -68554.662 117160.362 -68581.492 117173.737 -68609.77 117184.275 -68639.222 117191.875 -68669.565 117196.465 -68700.507 117198 -68731.75 117198 -69444.25 117196.465 -69475.493 117191.875 -69506.435 117184.275 -69536.778 117173.737 -69566.23 117160.362 -69594.508 117144.281 -69621.338 117125.647 -69646.463 117104.64 -69669.64 117081.463 -69690.647 117056.338 -69709.281 117029.508 -69725.362 117001.23 -69738.737 116971.778 -69749.275 116941.435 -69756.875 116910.493 -69761.465 116879.25 -69763 116241.75 -69763 116210.507 -69761.465 116179.565 -69756.875 116149.222 -69749.275 116119.77 -69738.737 116091.492 -69725.362 116064.662 -69709.281 116039.537 -69690.647 116016.36 -69669.64 115995.353 -69646.463 115976.719 -69621.338 115960.638 -69594.508 115947.263 -69566.23 115936.725 -69536.778 115929.125 -69506.435 115924.535 -69475.493 115923 -69444.25 115923 -68731.75 115924.535 -68700.507 115929.125 -68669.565 115936.725 -68639.222 115947.263 -68609.77 115960.638 -68581.492 115976.719 -68554.662 115995.353 -68529.537 116016.36 -68506.36 116039.537 -68485.353 116064.662 -68466.719 116091.492 -68450.638 116119.77 -68437.263 116149.222 -68426.725 116179.565 -68419.125 116210.507 -68414.535 116241.75 -68413 116879.25 -68413 116910.493 -68414.535 116910.493 -68414.535"/><use xlink:href="#IbDOS3oKWhs8PsX-ZMG9_pad-16" x="116560.5" y="-69088"/><use xlink:href="#IbDOS3oKWhs8PsX-ZMG9_pad-17" x="118806" y="-64532"/><use xlink:href="#IbDOS3oKWhs8PsX-ZMG9_pad-17" x="116906" y="-64532"/><use xlink:href="#IbDOS3oKWhs8PsX-ZMG9_pad-17" x="117856" y="-66532"/></g><g id="r0qRDW_QwHsOc_y9Ew9G_top_silkscreen"><path d="M 115140 -59896.428 115825.714 -59896.428 M 115482.857 -60277.38 115482.857 -59515.476 M 116725.714 -60277.38 116211.428 -60277.38 M 116468.571 -60277.38 116468.571 -59277.38 116382.857 -59420.238 116297.142 -59515.476 116211.428 -59563.095 M 117068.571 -59372.619 117111.428 -59325 117197.142 -59277.38 117411.428 -59277.38 117497.142 -59325 117540 -59372.619 117582.857 -59467.857 117582.857 -59563.095 117540 -59705.952 117025.714 -60277.38 117582.857 -60277.38" fill="none" stroke-width="150"/><path d="M 111760 -59825 111760 -59190 M 109355 -59825 111768 -59825" fill="none" stroke-width="200"/><path d="M 102140.476 -67675 102050 -67627.38 101914.285 -67627.38 101778.571 -67675 101688.095 -67770.238 101642.857 -67865.476 101597.619 -68055.952 101597.619 -68198.809 101642.857 -68389.285 101688.095 -68484.523 101778.571 -68579.761 101914.285 -68627.38 102004.761 -68627.38 102140.476 -68579.761 102185.714 -68532.142 102185.714 -68198.809 102004.761 -68198.809 M 103000 -68627.38 103000 -68103.571 102954.761 -68008.333 102864.285 -67960.714 102683.333 -67960.714 102592.857 -68008.333 M 103000 -68579.761 102909.523 -68627.38 102683.333 -68627.38 102592.857 -68579.761 102547.619 -68484.523 102547.619 -68389.285 102592.857 -68294.047 102683.333 -68246.428 102909.523 -68246.428 103000 -68198.809 M 103316.666 -67960.714 103678.571 -67960.714 M 103452.38 -67627.38 103452.38 -68484.523 103497.619 -68579.761 103588.095 -68627.38 103678.571 -68627.38 M 104357.142 -68579.761 104266.666 -68627.38 104085.714 -68627.38 103995.238 -68579.761 103950 -68484.523 103950 -68103.571 103995.238 -68008.333 104085.714 -67960.714 104266.666 -67960.714 104357.142 -68008.333 104402.38 -68103.571 104402.38 -68198.809 103950 -68294.047 M 102050 -69277.38 102230.952 -69277.38 102321.428 -69325 102411.904 -69420.238 102457.142 -69610.714 102457.142 -69944.047 102411.904 -70134.523 102321.428 -70229.761 102230.952 -70277.38 102050 -70277.38 101959.523 -70229.761 101869.047 -70134.523 101823.809 -69944.047 101823.809 -69610.714 101869.047 -69420.238 101959.523 -69325 102050 -69277.38 M 102864.285 -69277.38 102864.285 -70086.904 102909.523 -70182.142 102954.761 -70229.761 103045.238 -70277.38 103226.19 -70277.38 103316.666 -70229.761 103361.904 -70182.142 103407.142 -70086.904 103407.142 -69277.38 M 103723.809 -69277.38 104266.666 -69277.38 M 103995.238 -70277.38 103995.238 -69277.38" fill="none" stroke-width="150"/><path d="M 116975 -71255 116975 -71890 M 111895 -71255 116975 -71255 M 103005 -71255 108085 -71255 M 103005 -71890 103005 -71255" fill="none" stroke-width="200"/><path d="M 109228.095 -70755 109132.857 -70707.38 108990 -70707.38 108847.142 -70755 108751.904 -70850.238 108704.285 -70945.476 108656.666 -71135.952 108656.666 -71278.809 108704.285 -71469.285 108751.904 -71564.523 108847.142 -71659.761 108990 -71707.38 109085.238 -71707.38 109228.095 -71659.761 109275.714 -71612.142 109275.714 -71278.809 109085.238 -71278.809 M 109704.285 -71707.38 109704.285 -70707.38 110275.714 -71707.38 110275.714 -70707.38 M 110751.904 -71707.38 110751.904 -70707.38 110990 -70707.38 111132.857 -70755 111228.095 -70850.238 111275.714 -70945.476 111323.333 -71135.952 111323.333 -71278.809 111275.714 -71469.285 111228.095 -71564.523 111132.857 -71659.761 110990 -71707.38 110751.904 -71707.38" fill="none" stroke-width="150"/><path d="M 103005 -59825 105545 -59825 M 103005 -59190 103005 -59825" fill="none" stroke-width="200"/><path d="M 106688.095 -59325 106592.857 -59277.38 106450 -59277.38 106307.142 -59325 106211.904 -59420.238 106164.285 -59515.476 106116.666 -59705.952 106116.666 -59848.809 106164.285 -60039.285 106211.904 -60134.523 106307.142 -60229.761 106450 -60277.38 106545.238 -60277.38 106688.095 -60229.761 106735.714 -60182.142 106735.714 -59848.809 106545.238 -59848.809 M 107164.285 -60277.38 107164.285 -59277.38 107735.714 -60277.38 107735.714 -59277.38 M 108211.904 -60277.38 108211.904 -59277.38 108450 -59277.38 108592.857 -59325 108688.095 -59420.238 108735.714 -59515.476 108783.333 -59705.952 108783.333 -59848.809 108735.714 -60039.285 108688.095 -60134.523 108592.857 -60229.761 108450 -60277.38 108211.904 -60277.38 M 113276.19 -60277.38 113276.19 -59277.38 M 113752.38 -60277.38 113752.38 -59277.38 114323.809 -60277.38 114323.809 -59277.38 M 111555 -65540 A 2200 2200 0 0 1 107155 -65540 2200 2200 0 0 1 111555 -65540 M 104855 -61040 104855 -70040 M 115355 -70040 104855 -70040 M 115355 -61040 104855 -61040 M 115355 -61040 115355 -70040 M 111155 -65540 A 1800 1800 0 0 1 107555 -65540 1800 1800 0 0 1 111155 -65540" fill="none" stroke-width="150"/><path d="M 117510.779 -62740 117185.221 -62740 M 117510.779 -61720 117185.221 -61720 M 118616 -59273.221 118616 -59598.779 M 119636 -59273.221 119636 -59598.779 M 117510.779 -69598 117185.221 -69598 M 117510.779 -68578 117185.221 -68578 M 116276 -66292 117206 -66292 M 119436 -66292 118506 -66292 M 119436 -66292 119436 -64132 M 116276 -66292 116276 -64832" fill="none" stroke-width="120"/><path d="M 119584 -62698.38 119284 -62222.19 M 119069.714 -62698.38 119069.714 -61698.38 119412.571 -61698.38 119498.285 -61746 119541.142 -61793.619 119584 -61888.857 119584 -62031.714 119541.142 -62126.952 119498.285 -62174.571 119412.571 -62222.19 119069.714 -62222.19 M 120441.142 -62698.38 119926.857 -62698.38 M 120184 -62698.38 120184 -61698.38 120098.285 -61841.238 120012.571 -61936.476 119926.857 -61984.095 M 118976 -57602.38 118676 -57126.19 M 118461.714 -57602.38 118461.714 -56602.38 118804.571 -56602.38 118890.285 -56650 118933.142 -56697.619 118976 -56792.857 118976 -56935.714 118933.142 -57030.952 118890.285 -57078.571 118804.571 -57126.19 118461.714 -57126.19 M 119318.857 -56697.619 119361.714 -56650 119447.428 -56602.38 119661.714 -56602.38 119747.428 -56650 119790.285 -56697.619 119833.142 -56792.857 119833.142 -56888.095 119790.285 -57030.952 119276 -57602.38 119833.142 -57602.38 M 118705.333 -71318.38 118372 -70842.19 M 118133.904 -71318.38 118133.904 -70318.38 118514.857 -70318.38 118610.095 -70366 118657.714 -70413.619 118705.333 -70508.857 118705.333 -70651.714 118657.714 -70746.952 118610.095 -70794.571 118514.857 -70842.19 118133.904 -70842.19 M 119038.666 -70318.38 119657.714 -70318.38 119324.38 -70699.333 119467.238 -70699.333 119562.476 -70746.952 119610.095 -70794.571 119657.714 -70889.809 119657.714 -71127.904 119610.095 -71223.142 119562.476 -71270.761 119467.238 -71318.38 119181.523 -71318.38 119086.285 -71270.761 119038.666 -71223.142 M 119479.809 -67979.619 119403.619 -67932 119327.428 -67836.761 119213.142 -67693.904 119136.952 -67646.285 119060.761 -67646.285 M 119098.857 -67884.38 119022.666 -67836.761 118946.476 -67741.523 118908.38 -67551.047 118908.38 -67217.714 118946.476 -67027.238 119022.666 -66932 119098.857 -66884.38 119251.238 -66884.38 119327.428 -66932 119403.619 -67027.238 119441.714 -67217.714 119441.714 -67551.047 119403.619 -67741.523 119327.428 -67836.761 119251.238 -67884.38 119098.857 -67884.38 M 120203.619 -67884.38 119746.476 -67884.38 M 119975.047 -67884.38 119975.047 -66884.38 119898.857 -67027.238 119822.666 -67122.476 119746.476 -67170.095" fill="none" stroke-width="150"/></g><g id="r0qRDW_QwHsOc_y9Ew9G_top_solderpaste"><path d="M 118375.691 -61756.053 118396.926 -61759.203 118417.75 -61764.419 118437.962 -61771.651 118457.368 -61780.83 118475.781 -61791.866 118493.024 -61804.654 118508.93 -61819.07 118523.346 -61834.976 118536.134 -61852.219 118547.17 -61870.632 118556.349 -61890.038 118563.581 -61910.25 118568.797 -61931.074 118571.947 -61952.309 118573 -61973.75 118573 -62486.25 118571.947 -62507.691 118568.797 -62528.926 118563.581 -62549.75 118556.349 -62569.962 118547.17 -62589.368 118536.134 -62607.781 118523.346 -62625.024 118508.93 -62640.93 118493.024 -62655.346 118475.781 -62668.134 118457.368 -62679.17 118437.962 -62688.349 118417.75 -62695.581 118396.926 -62700.797 118375.691 -62703.947 118354.25 -62705 117916.75 -62705 117895.309 -62703.947 117874.074 -62700.797 117853.25 -62695.581 117833.038 -62688.349 117813.632 -62679.17 117795.219 -62668.134 117777.976 -62655.346 117762.07 -62640.93 117747.654 -62625.024 117734.866 -62607.781 117723.83 -62589.368 117714.651 -62569.962 117707.419 -62549.75 117702.203 -62528.926 117699.053 -62507.691 117698 -62486.25 117698 -61973.75 117699.053 -61952.309 117702.203 -61931.074 117707.419 -61910.25 117714.651 -61890.038 117723.83 -61870.632 117734.866 -61852.219 117747.654 -61834.976 117762.07 -61819.07 117777.976 -61804.654 117795.219 -61791.866 117813.632 -61780.83 117833.038 -61771.651 117853.25 -61764.419 117874.074 -61759.203 117895.309 -61756.053 117916.75 -61755 118354.25 -61755 118375.691 -61756.053 118375.691 -61756.053"/><use xlink:href="#UZeHzxKpeF4q12jeSu01_pad-11" x="118135.5" y="-62230"/><path d="M 116800.691 -61756.053 116821.926 -61759.203 116842.75 -61764.419 116862.962 -61771.651 116882.368 -61780.83 116900.781 -61791.866 116918.024 -61804.654 116933.93 -61819.07 116948.346 -61834.976 116961.134 -61852.219 116972.17 -61870.632 116981.349 -61890.038 116988.581 -61910.25 116993.797 -61931.074 116996.947 -61952.309 116998 -61973.75 116998 -62486.25 116996.947 -62507.691 116993.797 -62528.926 116988.581 -62549.75 116981.349 -62569.962 116972.17 -62589.368 116961.134 -62607.781 116948.346 -62625.024 116933.93 -62640.93 116918.024 -62655.346 116900.781 -62668.134 116882.368 -62679.17 116862.962 -62688.349 116842.75 -62695.581 116821.926 -62700.797 116800.691 -62703.947 116779.25 -62705 116341.75 -62705 116320.309 -62703.947 116299.074 -62700.797 116278.25 -62695.581 116258.038 -62688.349 116238.632 -62679.17 116220.219 -62668.134 116202.976 -62655.346 116187.07 -62640.93 116172.654 -62625.024 116159.866 -62607.781 116148.83 -62589.368 116139.651 -62569.962 116132.419 -62549.75 116127.203 -62528.926 116124.053 -62507.691 116123 -62486.25 116123 -61973.75 116124.053 -61952.309 116127.203 -61931.074 116132.419 -61910.25 116139.651 -61890.038 116148.83 -61870.632 116159.866 -61852.219 116172.654 -61834.976 116187.07 -61819.07 116202.976 -61804.654 116220.219 -61791.866 116238.632 -61780.83 116258.038 -61771.651 116278.25 -61764.419 116299.074 -61759.203 116320.309 -61756.053 116341.75 -61755 116779.25 -61755 116800.691 -61756.053 116800.691 -61756.053"/><use xlink:href="#UZeHzxKpeF4q12jeSu01_pad-11" x="116560.5" y="-62230"/><path d="M 119403.691 -59787.053 119424.926 -59790.203 119445.75 -59795.419 119465.962 -59802.651 119485.368 -59811.83 119503.781 -59822.866 119521.024 -59835.654 119536.93 -59850.07 119551.346 -59865.976 119564.134 -59883.219 119575.17 -59901.632 119584.349 -59921.038 119591.581 -59941.25 119596.797 -59962.074 119599.947 -59983.309 119601 -60004.75 119601 -60442.25 119599.947 -60463.691 119596.797 -60484.926 119591.581 -60505.75 119584.349 -60525.962 119575.17 -60545.368 119564.134 -60563.781 119551.346 -60581.024 119536.93 -60596.93 119521.024 -60611.346 119503.781 -60624.134 119485.368 -60635.17 119465.962 -60644.349 119445.75 -60651.581 119424.926 -60656.797 119403.691 -60659.947 119382.25 -60661 118869.75 -60661 118848.309 -60659.947 118827.074 -60656.797 118806.25 -60651.581 118786.038 -60644.349 118766.632 -60635.17 118748.219 -60624.134 118730.976 -60611.346 118715.07 -60596.93 118700.654 -60581.024 118687.866 -60563.781 118676.83 -60545.368 118667.651 -60525.962 118660.419 -60505.75 118655.203 -60484.926 118652.053 -60463.691 118651 -60442.25 118651 -60004.75 118652.053 -59983.309 118655.203 -59962.074 118660.419 -59941.25 118667.651 -59921.038 118676.83 -59901.632 118687.866 -59883.219 118700.654 -59865.976 118715.07 -59850.07 118730.976 -59835.654 118748.219 -59822.866 118766.632 -59811.83 118786.038 -59802.651 118806.25 -59795.419 118827.074 -59790.203 118848.309 -59787.053 118869.75 -59786 119382.25 -59786 119403.691 -59787.053 119403.691 -59787.053"/><use xlink:href="#UZeHzxKpeF4q12jeSu01_pad-11" x="119126" y="-60223.5"/><path d="M 119403.691 -58212.053 119424.926 -58215.203 119445.75 -58220.419 119465.962 -58227.651 119485.368 -58236.83 119503.781 -58247.866 119521.024 -58260.654 119536.93 -58275.07 119551.346 -58290.976 119564.134 -58308.219 119575.17 -58326.632 119584.349 -58346.038 119591.581 -58366.25 119596.797 -58387.074 119599.947 -58408.309 119601 -58429.75 119601 -58867.25 119599.947 -58888.691 119596.797 -58909.926 119591.581 -58930.75 119584.349 -58950.962 119575.17 -58970.368 119564.134 -58988.781 119551.346 -59006.024 119536.93 -59021.93 119521.024 -59036.346 119503.781 -59049.134 119485.368 -59060.17 119465.962 -59069.349 119445.75 -59076.581 119424.926 -59081.797 119403.691 -59084.947 119382.25 -59086 118869.75 -59086 118848.309 -59084.947 118827.074 -59081.797 118806.25 -59076.581 118786.038 -59069.349 118766.632 -59060.17 118748.219 -59049.134 118730.976 -59036.346 118715.07 -59021.93 118700.654 -59006.024 118687.866 -58988.781 118676.83 -58970.368 118667.651 -58950.962 118660.419 -58930.75 118655.203 -58909.926 118652.053 -58888.691 118651 -58867.25 118651 -58429.75 118652.053 -58408.309 118655.203 -58387.074 118660.419 -58366.25 118667.651 -58346.038 118676.83 -58326.632 118687.866 -58308.219 118700.654 -58290.976 118715.07 -58275.07 118730.976 -58260.654 118748.219 -58247.866 118766.632 -58236.83 118786.038 -58227.651 118806.25 -58220.419 118827.074 -58215.203 118848.309 -58212.053 118869.75 -58211 119382.25 -58211 119403.691 -58212.053 119403.691 -58212.053"/><use xlink:href="#UZeHzxKpeF4q12jeSu01_pad-11" x="119126" y="-58648.5"/><path d="M 118375.691 -68614.053 118396.926 -68617.203 118417.75 -68622.419 118437.962 -68629.651 118457.368 -68638.83 118475.781 -68649.866 118493.024 -68662.654 118508.93 -68677.07 118523.346 -68692.976 118536.134 -68710.219 118547.17 -68728.632 118556.349 -68748.038 118563.581 -68768.25 118568.797 -68789.074 118571.947 -68810.309 118573 -68831.75 118573 -69344.25 118571.947 -69365.691 118568.797 -69386.926 118563.581 -69407.75 118556.349 -69427.962 118547.17 -69447.368 118536.134 -69465.781 118523.346 -69483.024 118508.93 -69498.93 118493.024 -69513.346 118475.781 -69526.134 118457.368 -69537.17 118437.962 -69546.349 118417.75 -69553.581 118396.926 -69558.797 118375.691 -69561.947 118354.25 -69563 117916.75 -69563 117895.309 -69561.947 117874.074 -69558.797 117853.25 -69553.581 117833.038 -69546.349 117813.632 -69537.17 117795.219 -69526.134 117777.976 -69513.346 117762.07 -69498.93 117747.654 -69483.024 117734.866 -69465.781 117723.83 -69447.368 117714.651 -69427.962 117707.419 -69407.75 117702.203 -69386.926 117699.053 -69365.691 117698 -69344.25 117698 -68831.75 117699.053 -68810.309 117702.203 -68789.074 117707.419 -68768.25 117714.651 -68748.038 117723.83 -68728.632 117734.866 -68710.219 117747.654 -68692.976 117762.07 -68677.07 117777.976 -68662.654 117795.219 -68649.866 117813.632 -68638.83 117833.038 -68629.651 117853.25 -68622.419 117874.074 -68617.203 117895.309 -68614.053 117916.75 -68613 118354.25 -68613 118375.691 -68614.053 118375.691 -68614.053"/><use xlink:href="#UZeHzxKpeF4q12jeSu01_pad-11" x="118135.5" y="-69088"/><path d="M 116800.691 -68614.053 116821.926 -68617.203 116842.75 -68622.419 116862.962 -68629.651 116882.368 -68638.83 116900.781 -68649.866 116918.024 -68662.654 116933.93 -68677.07 116948.346 -68692.976 116961.134 -68710.219 116972.17 -68728.632 116981.349 -68748.038 116988.581 -68768.25 116993.797 -68789.074 116996.947 -68810.309 116998 -68831.75 116998 -69344.25 116996.947 -69365.691 116993.797 -69386.926 116988.581 -69407.75 116981.349 -69427.962 116972.17 -69447.368 116961.134 -69465.781 116948.346 -69483.024 116933.93 -69498.93 116918.024 -69513.346 116900.781 -69526.134 116882.368 -69537.17 116862.962 -69546.349 116842.75 -69553.581 116821.926 -69558.797 116800.691 -69561.947 116779.25 -69563 116341.75 -69563 116320.309 -69561.947 116299.074 -69558.797 116278.25 -69553.581 116258.038 -69546.349 116238.632 -69537.17 116220.219 -69526.134 116202.976 -69513.346 116187.07 -69498.93 116172.654 -69483.024 116159.866 -69465.781 116148.83 -69447.368 116139.651 -69427.962 116132.419 -69407.75 116127.203 -69386.926 116124.053 -69365.691 116123 -69344.25 116123 -68831.75 116124.053 -68810.309 116127.203 -68789.074 116132.419 -68768.25 116139.651 -68748.038 116148.83 -68728.632 116159.866 -68710.219 116172.654 -68692.976 116187.07 -68677.07 116202.976 -68662.654 116220.219 -68649.866 116238.632 -68638.83 116258.038 -68629.651 116278.25 -68622.419 116299.074 -68617.203 116320.309 -68614.053 116341.75 -68613 116779.25 -68613 116800.691 -68614.053 116800.691 -68614.053"/><use xlink:href="#UZeHzxKpeF4q12jeSu01_pad-11" x="116560.5" y="-69088"/><use xlink:href="#UZeHzxKpeF4q12jeSu01_pad-12" x="118806" y="-64532"/><use xlink:href="#UZeHzxKpeF4q12jeSu01_pad-12" x="116906" y="-64532"/><use xlink:href="#UZeHzxKpeF4q12jeSu01_pad-12" x="117856" y="-66532"/></g><g id="r0qRDW_QwHsOc_y9Ew9G_top_copper"><use xlink:href="#V7dqRyVNLz21KcQVXrpz_pad-10" x="116340" y="-73160"/><use xlink:href="#V7dqRyVNLz21KcQVXrpz_pad-10" x="113800" y="-73160"/><use xlink:href="#V7dqRyVNLz21KcQVXrpz_pad-10" x="111260" y="-73160"/><use xlink:href="#V7dqRyVNLz21KcQVXrpz_pad-10" x="108720" y="-73160"/><use xlink:href="#V7dqRyVNLz21KcQVXrpz_pad-10" x="106180" y="-73160"/><use xlink:href="#V7dqRyVNLz21KcQVXrpz_pad-10" x="103640" y="-73160"/><use xlink:href="#V7dqRyVNLz21KcQVXrpz_pad-10" x="103640" y="-57920"/><use xlink:href="#V7dqRyVNLz21KcQVXrpz_pad-10" x="106180" y="-57920"/><use xlink:href="#V7dqRyVNLz21KcQVXrpz_pad-10" x="108720" y="-57920"/><use xlink:href="#V7dqRyVNLz21KcQVXrpz_pad-10" x="111260" y="-57920"/><use xlink:href="#V7dqRyVNLz21KcQVXrpz_pad-10" x="113800" y="-57920"/><use xlink:href="#V7dqRyVNLz21KcQVXrpz_pad-10" x="116340" y="-57920"/><use xlink:href="#V7dqRyVNLz21KcQVXrpz_pad-11" x="102875" y="-65540"/><use xlink:href="#V7dqRyVNLz21KcQVXrpz_pad-12" x="105975" y="-65540"/><use xlink:href="#V7dqRyVNLz21KcQVXrpz_pad-13" x="114275" y="-65540"/><path d="M 118375.691 -61756.053 118396.926 -61759.203 118417.75 -61764.419 118437.962 -61771.651 118457.368 -61780.83 118475.781 -61791.866 118493.024 -61804.654 118508.93 -61819.07 118523.346 -61834.976 118536.134 -61852.219 118547.17 -61870.632 118556.349 -61890.038 118563.581 -61910.25 118568.797 -61931.074 118571.947 -61952.309 118573 -61973.75 118573 -62486.25 118571.947 -62507.691 118568.797 -62528.926 118563.581 -62549.75 118556.349 -62569.962 118547.17 -62589.368 118536.134 -62607.781 118523.346 -62625.024 118508.93 -62640.93 118493.024 -62655.346 118475.781 -62668.134 118457.368 -62679.17 118437.962 -62688.349 118417.75 -62695.581 118396.926 -62700.797 118375.691 -62703.947 118354.25 -62705 117916.75 -62705 117895.309 -62703.947 117874.074 -62700.797 117853.25 -62695.581 117833.038 -62688.349 117813.632 -62679.17 117795.219 -62668.134 117777.976 -62655.346 117762.07 -62640.93 117747.654 -62625.024 117734.866 -62607.781 117723.83 -62589.368 117714.651 -62569.962 117707.419 -62549.75 117702.203 -62528.926 117699.053 -62507.691 117698 -62486.25 117698 -61973.75 117699.053 -61952.309 117702.203 -61931.074 117707.419 -61910.25 117714.651 -61890.038 117723.83 -61870.632 117734.866 -61852.219 117747.654 -61834.976 117762.07 -61819.07 117777.976 -61804.654 117795.219 -61791.866 117813.632 -61780.83 117833.038 -61771.651 117853.25 -61764.419 117874.074 -61759.203 117895.309 -61756.053 117916.75 -61755 118354.25 -61755 118375.691 -61756.053 118375.691 -61756.053"/><use xlink:href="#V7dqRyVNLz21KcQVXrpz_pad-15" x="118135.5" y="-62230"/><path d="M 116800.691 -61756.053 116821.926 -61759.203 116842.75 -61764.419 116862.962 -61771.651 116882.368 -61780.83 116900.781 -61791.866 116918.024 -61804.654 116933.93 -61819.07 116948.346 -61834.976 116961.134 -61852.219 116972.17 -61870.632 116981.349 -61890.038 116988.581 -61910.25 116993.797 -61931.074 116996.947 -61952.309 116998 -61973.75 116998 -62486.25 116996.947 -62507.691 116993.797 -62528.926 116988.581 -62549.75 116981.349 -62569.962 116972.17 -62589.368 116961.134 -62607.781 116948.346 -62625.024 116933.93 -62640.93 116918.024 -62655.346 116900.781 -62668.134 116882.368 -62679.17 116862.962 -62688.349 116842.75 -62695.581 116821.926 -62700.797 116800.691 -62703.947 116779.25 -62705 116341.75 -62705 116320.309 -62703.947 116299.074 -62700.797 116278.25 -62695.581 116258.038 -62688.349 116238.632 -62679.17 116220.219 -62668.134 116202.976 -62655.346 116187.07 -62640.93 116172.654 -62625.024 116159.866 -62607.781 116148.83 -62589.368 116139.651 -62569.962 116132.419 -62549.75 116127.203 -62528.926 116124.053 -62507.691 116123 -62486.25 116123 -61973.75 116124.053 -61952.309 116127.203 -61931.074 116132.419 -61910.25 116139.651 -61890.038 116148.83 -61870.632 116159.866 -61852.219 116172.654 -61834.976 116187.07 -61819.07 116202.976 -61804.654 116220.219 -61791.866 116238.632 -61780.83 116258.038 -61771.651 116278.25 -61764.419 116299.074 -61759.203 116320.309 -61756.053 116341.75 -61755 116779.25 -61755 116800.691 -61756.053 116800.691 -61756.053"/><use xlink:href="#V7dqRyVNLz21KcQVXrpz_pad-15" x="116560.5" y="-62230"/><path d="M 119403.691 -59787.053 119424.926 -59790.203 119445.75 -59795.419 119465.962 -59802.651 119485.368 -59811.83 119503.781 -59822.866 119521.024 -59835.654 119536.93 -59850.07 119551.346 -59865.976 119564.134 -59883.219 119575.17 -59901.632 119584.349 -59921.038 119591.581 -59941.25 119596.797 -59962.074 119599.947 -59983.309 119601 -60004.75 119601 -60442.25 119599.947 -60463.691 119596.797 -60484.926 119591.581 -60505.75 119584.349 -60525.962 119575.17 -60545.368 119564.134 -60563.781 119551.346 -60581.024 119536.93 -60596.93 119521.024 -60611.346 119503.781 -60624.134 119485.368 -60635.17 119465.962 -60644.349 119445.75 -60651.581 119424.926 -60656.797 119403.691 -60659.947 119382.25 -60661 118869.75 -60661 118848.309 -60659.947 118827.074 -60656.797 118806.25 -60651.581 118786.038 -60644.349 118766.632 -60635.17 118748.219 -60624.134 118730.976 -60611.346 118715.07 -60596.93 118700.654 -60581.024 118687.866 -60563.781 118676.83 -60545.368 118667.651 -60525.962 118660.419 -60505.75 118655.203 -60484.926 118652.053 -60463.691 118651 -60442.25 118651 -60004.75 118652.053 -59983.309 118655.203 -59962.074 118660.419 -59941.25 118667.651 -59921.038 118676.83 -59901.632 118687.866 -59883.219 118700.654 -59865.976 118715.07 -59850.07 118730.976 -59835.654 118748.219 -59822.866 118766.632 -59811.83 118786.038 -59802.651 118806.25 -59795.419 118827.074 -59790.203 118848.309 -59787.053 118869.75 -59786 119382.25 -59786 119403.691 -59787.053 119403.691 -59787.053"/><use xlink:href="#V7dqRyVNLz21KcQVXrpz_pad-15" x="119126" y="-60223.5"/><path d="M 119403.691 -58212.053 119424.926 -58215.203 119445.75 -58220.419 119465.962 -58227.651 119485.368 -58236.83 119503.781 -58247.866 119521.024 -58260.654 119536.93 -58275.07 119551.346 -58290.976 119564.134 -58308.219 119575.17 -58326.632 119584.349 -58346.038 119591.581 -58366.25 119596.797 -58387.074 119599.947 -58408.309 119601 -58429.75 119601 -58867.25 119599.947 -58888.691 119596.797 -58909.926 119591.581 -58930.75 119584.349 -58950.962 119575.17 -58970.368 119564.134 -58988.781 119551.346 -59006.024 119536.93 -59021.93 119521.024 -59036.346 119503.781 -59049.134 119485.368 -59060.17 119465.962 -59069.349 119445.75 -59076.581 119424.926 -59081.797 119403.691 -59084.947 119382.25 -59086 118869.75 -59086 118848.309 -59084.947 118827.074 -59081.797 118806.25 -59076.581 118786.038 -59069.349 118766.632 -59060.17 118748.219 -59049.134 118730.976 -59036.346 118715.07 -59021.93 118700.654 -59006.024 118687.866 -58988.781 118676.83 -58970.368 118667.651 -58950.962 118660.419 -58930.75 118655.203 -58909.926 118652.053 -58888.691 118651 -58867.25 118651 -58429.75 118652.053 -58408.309 118655.203 -58387.074 118660.419 -58366.25 118667.651 -58346.038 118676.83 -58326.632 118687.866 -58308.219 118700.654 -58290.976 118715.07 -58275.07 118730.976 -58260.654 118748.219 -58247.866 118766.632 -58236.83 118786.038 -58227.651 118806.25 -58220.419 118827.074 -58215.203 118848.309 -58212.053 118869.75 -58211 119382.25 -58211 119403.691 -58212.053 119403.691 -58212.053"/><use xlink:href="#V7dqRyVNLz21KcQVXrpz_pad-15" x="119126" y="-58648.5"/><path d="M 118375.691 -68614.053 118396.926 -68617.203 118417.75 -68622.419 118437.962 -68629.651 118457.368 -68638.83 118475.781 -68649.866 118493.024 -68662.654 118508.93 -68677.07 118523.346 -68692.976 118536.134 -68710.219 118547.17 -68728.632 118556.349 -68748.038 118563.581 -68768.25 118568.797 -68789.074 118571.947 -68810.309 118573 -68831.75 118573 -69344.25 118571.947 -69365.691 118568.797 -69386.926 118563.581 -69407.75 118556.349 -69427.962 118547.17 -69447.368 118536.134 -69465.781 118523.346 -69483.024 118508.93 -69498.93 118493.024 -69513.346 118475.781 -69526.134 118457.368 -69537.17 118437.962 -69546.349 118417.75 -69553.581 118396.926 -69558.797 118375.691 -69561.947 118354.25 -69563 117916.75 -69563 117895.309 -69561.947 117874.074 -69558.797 117853.25 -69553.581 117833.038 -69546.349 117813.632 -69537.17 117795.219 -69526.134 117777.976 -69513.346 117762.07 -69498.93 117747.654 -69483.024 117734.866 -69465.781 117723.83 -69447.368 117714.651 -69427.962 117707.419 -69407.75 117702.203 -69386.926 117699.053 -69365.691 117698 -69344.25 117698 -68831.75 117699.053 -68810.309 117702.203 -68789.074 117707.419 -68768.25 117714.651 -68748.038 117723.83 -68728.632 117734.866 -68710.219 117747.654 -68692.976 117762.07 -68677.07 117777.976 -68662.654 117795.219 -68649.866 117813.632 -68638.83 117833.038 -68629.651 117853.25 -68622.419 117874.074 -68617.203 117895.309 -68614.053 117916.75 -68613 118354.25 -68613 118375.691 -68614.053 118375.691 -68614.053"/><use xlink:href="#V7dqRyVNLz21KcQVXrpz_pad-15" x="118135.5" y="-69088"/><path d="M 116800.691 -68614.053 116821.926 -68617.203 116842.75 -68622.419 116862.962 -68629.651 116882.368 -68638.83 116900.781 -68649.866 116918.024 -68662.654 116933.93 -68677.07 116948.346 -68692.976 116961.134 -68710.219 116972.17 -68728.632 116981.349 -68748.038 116988.581 -68768.25 116993.797 -68789.074 116996.947 -68810.309 116998 -68831.75 116998 -69344.25 116996.947 -69365.691 116993.797 -69386.926 116988.581 -69407.75 116981.349 -69427.962 116972.17 -69447.368 116961.134 -69465.781 116948.346 -69483.024 116933.93 -69498.93 116918.024 -69513.346 116900.781 -69526.134 116882.368 -69537.17 116862.962 -69546.349 116842.75 -69553.581 116821.926 -69558.797 116800.691 -69561.947 116779.25 -69563 116341.75 -69563 116320.309 -69561.947 116299.074 -69558.797 116278.25 -69553.581 116258.038 -69546.349 116238.632 -69537.17 116220.219 -69526.134 116202.976 -69513.346 116187.07 -69498.93 116172.654 -69483.024 116159.866 -69465.781 116148.83 -69447.368 116139.651 -69427.962 116132.419 -69407.75 116127.203 -69386.926 116124.053 -69365.691 116123 -69344.25 116123 -68831.75 116124.053 -68810.309 116127.203 -68789.074 116132.419 -68768.25 116139.651 -68748.038 116148.83 -68728.632 116159.866 -68710.219 116172.654 -68692.976 116187.07 -68677.07 116202.976 -68662.654 116220.219 -68649.866 116238.632 -68638.83 116258.038 -68629.651 116278.25 -68622.419 116299.074 -68617.203 116320.309 -68614.053 116341.75 -68613 116779.25 -68613 116800.691 -68614.053 116800.691 -68614.053"/><use xlink:href="#V7dqRyVNLz21KcQVXrpz_pad-15" x="116560.5" y="-69088"/><use xlink:href="#V7dqRyVNLz21KcQVXrpz_pad-16" x="118806" y="-64532"/><use xlink:href="#V7dqRyVNLz21KcQVXrpz_pad-16" x="116906" y="-64532"/><use xlink:href="#V7dqRyVNLz21KcQVXrpz_pad-16" x="117856" y="-66532"/><path d="M 115267 -66532 114275 -65540 M 117856 -66532 115267 -66532 M 118597.112 -68626.388 118135.5 -69088 M 120040 -67183.5 118597.112 -68626.388 M 119126 -60761 120040 -61675 120040 -67183.5 M 119126 -60223.5 119126 -60761 M 118030 -68982.5 118135.5 -69088 M 118030 -66706 118030 -68982.5 M 117856 -66532 118030 -66706 M 116560.5 -60680.5 113800 -57920 M 116560.5 -62230 116560.5 -60680.5 M 117068.5 -58648.5 116340 -57920 M 119126 -58648.5 117068.5 -58648.5 M 118618 -62712.5 118618 -64344 118806 -64532 M 118135.5 -62230 118618 -62712.5" fill="none" stroke-width="406.4"/><path d="M 102444.817 -57038.642 102198.514 -57563.108 102319.181 -57793 103513 -57793 103513 -57773 103767 -57773 103767 -57793 106053 -57793 106053 -57773 106307 -57773 106307 -57793 108593 -57793 108593 -57773 108847 -57773 108847 -57793 111133 -57793 111133 -57773 111387 -57773 111387 -57793 111407 -57793 111407 -58047 111387 -58047 111387 -59240.155 111616.89 -59361.476 112026.924 -59191.645 112455.183 -58801.358 112516.157 -58671.522 112729.375 -58990.625 113220.582 -59318.839 113653.744 -59405 113946.256 -59405 114074.164 -59379.558 115722.301 -61027.695 115722.301 -61371.678 115541.495 -61642.273 115475.56 -61973.75 115475.56 -62486.25 115541.495 -62817.727 115729.261 -63098.739 116010.273 -63286.505 116341.75 -63352.44 116779.25 -63352.44 117110.727 -63286.505 117348 -63127.964 117585.273 -63286.505 117779.8 -63325.199 117779.801 -63657.775 117665.699 -63543.673 117432.31 -63447 117191.75 -63447 117033 -63605.75 117033 -64405 117053 -64405 117053 -64659 117033 -64659 117033 -65458.25 117118.531 -65543.781 116998.191 -65624.191 116951.679 -65693.8 115660 -65693.8 115660 -64903.593 115642.925 -64817.75 115871 -64817.75 115871 -65108.309 115967.673 -65341.698 116146.301 -65520.327 116379.69 -65617 116620.25 -65617 116779 -65458.25 116779 -64659 116029.75 -64659 115871 -64817.75 115642.925 -64817.75 115579.641 -64499.6 115273.529 -64041.471 115145.151 -63955.691 115871 -63955.691 115871 -64246.25 116029.75 -64405 116779 -64405 116779 -63605.75 116620.25 -63447 116379.69 -63447 116146.301 -63543.673 115967.673 -63722.302 115871 -63955.691 115145.151 -63955.691 114815.4 -63735.359 114275 -63627.867 113734.601 -63735.359 113276.472 -64041.471 112970.359 -64499.6 112890 -64903.593 112890 -66176.406 112970.359 -66580.399 113276.471 -67038.528 113734.6 -67344.641 114275 -67452.133 114815.399 -67344.641 114894.941 -67291.492 114939.951 -67321.567 115184.446 -67370.2 115184.451 -67370.2 115267 -67386.62 115349.549 -67370.2 116951.679 -67370.2 116998.191 -67439.809 117191.8 -67569.176 117191.801 -68005.956 117124.309 -67978 116846.25 -67978 116687.5 -68136.75 116687.5 -68961 116707.5 -68961 116707.5 -69215 116687.5 -69215 116687.5 -70039.25 116846.25 -70198 117124.309 -70198 117357.698 -70101.327 117422.969 -70036.057 117585.273 -70144.505 117916.75 -70210.44 118354.25 -70210.44 118685.727 -70144.505 118966.739 -69956.739 119154.505 -69675.727 119220.44 -69344.25 119220.44 -69188.453 120290 -68118.893 120290 -74290 117262.35 -74290 117535.183 -74041.358 117781.486 -73516.892 117660.819 -73287 116467 -73287 116467 -73307 116213 -73307 116213 -73287 113927 -73287 113927 -73307 113673 -73307 113673 -73287 111387 -73287 111387 -73307 111133 -73307 111133 -73287 108847 -73287 108847 -73307 108593 -73307 108593 -73287 106307 -73287 106307 -73307 106053 -73307 106053 -73287 103767 -73287 103767 -73307 103513 -73307 103513 -73287 102319.181 -73287 102198.514 -73516.892 102444.817 -74041.358 102717.65 -74290 101710 -74290 101710 -72803.108 102198.514 -72803.108 102319.181 -73033 103513 -73033 103513 -71839.845 103767 -71839.845 103767 -73033 106053 -73033 106053 -71839.845 106307 -71839.845 106307 -73033 108593 -73033 108593 -71839.845 108847 -71839.845 108847 -73033 111133 -73033 111133 -71839.845 111387 -71839.845 111387 -73033 113673 -73033 113673 -71839.845 113927 -71839.845 113927 -73033 116213 -73033 116213 -71839.845 116467 -71839.845 116467 -73033 117660.819 -73033 117781.486 -72803.108 117535.183 -72278.642 117106.924 -71888.355 116696.89 -71718.524 116467 -71839.845 116213 -71839.845 115983.11 -71718.524 115573.076 -71888.355 115144.817 -72278.642 115070 -72437.954 114995.183 -72278.642 114566.924 -71888.355 114156.89 -71718.524 113927 -71839.845 113673 -71839.845 113443.11 -71718.524 113033.076 -71888.355 112604.817 -72278.642 112530 -72437.954 112455.183 -72278.642 112026.924 -71888.355 111616.89 -71718.524 111387 -71839.845 111133 -71839.845 110903.11 -71718.524 110493.076 -71888.355 110064.817 -72278.642 109990 -72437.954 109915.183 -72278.642 109486.924 -71888.355 109076.89 -71718.524 108847 -71839.845 108593 -71839.845 108363.11 -71718.524 107953.076 -71888.355 107524.817 -72278.642 107450 -72437.954 107375.183 -72278.642 106946.924 -71888.355 106536.89 -71718.524 106307 -71839.845 106053 -71839.845 105823.11 -71718.524 105413.076 -71888.355 104984.817 -72278.642 104910 -72437.954 104835.183 -72278.642 104406.924 -71888.355 103996.89 -71718.524 103767 -71839.845 103513 -71839.845 103283.11 -71718.524 102873.076 -71888.355 102444.817 -72278.642 102198.514 -72803.108 101710 -72803.108 101710 -69373.75 115488 -69373.75 115488 -69689.31 115584.673 -69922.699 115763.302 -70101.327 115996.691 -70198 116274.75 -70198 116433.5 -70039.25 116433.5 -69215 115646.75 -69215 115488 -69373.75 101710 -69373.75 101710 -68486.69 115488 -68486.69 115488 -68802.25 115646.75 -68961 116433.5 -68961 116433.5 -68136.75 116274.75 -67978 115996.691 -67978 115763.302 -68074.673 115584.673 -68253.301 115488 -68486.69 101710 -68486.69 101710 -66695.952 101950.104 -66994.5 102443.181 -67264.367 102525.961 -67281.904 102748 -67159.915 102748 -65667 103002 -65667 103002 -67159.915 103224.039 -67281.904 103306.819 -67264.367 103799.896 -66994.5 104152.166 -66556.483 104310 -66017 104310 -65667 103002 -65667 102748 -65667 102728 -65667 102728 -65413 102748 -65413 102748 -63920.085 103002 -63920.085 103002 -65413 104310 -65413 104310 -65063 104276.551 -64948.667 104540 -64948.667 104540 -66131.332 104623.26 -66549.908 104940.423 -67024.576 105415.091 -67341.74 105975 -67453.113 106534.908 -67341.74 107009.576 -67024.577 107326.74 -66549.909 107370.755 -66328.632 107545.034 -66749.38 108145.62 -67349.966 108930.322 -67675 109779.678 -67675 110564.38 -67349.966 111164.966 -66749.38 111490 -65964.678 111490 -65115.322 111164.966 -64330.62 110564.38 -63730.034 109779.678 -63405 108930.322 -63405 108145.62 -63730.034 107545.034 -64330.62 107370.755 -64751.368 107326.74 -64530.091 107009.577 -64055.423 106534.909 -63738.26 105975 -63626.887 105415.092 -63738.26 104940.424 -64055.423 104623.26 -64530.091 104540 -64948.667 104276.551 -64948.667 104152.166 -64523.517 103799.896 -64085.5 103306.819 -63815.633 103224.039 -63798.096 103002 -63920.085 102748 -63920.085 102525.961 -63798.096 102443.181 -63815.633 101950.104 -64085.5 101710 -64384.048 101710 -58276.892 102198.514 -58276.892 102444.817 -58801.358 102873.076 -59191.645 103283.11 -59361.476 103513 -59240.155 103513 -58047 103767 -58047 103767 -59240.155 103996.89 -59361.476 104406.924 -59191.645 104835.183 -58801.358 104910 -58642.046 104984.817 -58801.358 105413.076 -59191.645 105823.11 -59361.476 106053 -59240.155 106053 -58047 106307 -58047 106307 -59240.155 106536.89 -59361.476 106946.924 -59191.645 107375.183 -58801.358 107450 -58642.046 107524.817 -58801.358 107953.076 -59191.645 108363.11 -59361.476 108593 -59240.155 108593 -58047 108847 -58047 108847 -59240.155 109076.89 -59361.476 109486.924 -59191.645 109915.183 -58801.358 109990 -58642.046 110064.817 -58801.358 110493.076 -59191.645 110903.11 -59361.476 111133 -59240.155 111133 -58047 108847 -58047 108593 -58047 106307 -58047 106053 -58047 103767 -58047 103513 -58047 102319.181 -58047 102198.514 -58276.892 101710 -58276.892 101710 -56710 102805.433 -56710 102444.817 -57038.642 102444.817 -57038.642"/><path d="M 102444.817 -57038.642 102198.514 -57563.108 102319.181 -57793 103513 -57793 103513 -57773 103767 -57773 103767 -57793 106053 -57793 106053 -57773 106307 -57773 106307 -57793 108593 -57793 108593 -57773 108847 -57773 108847 -57793 111133 -57793 111133 -57773 111387 -57773 111387 -57793 111407 -57793 111407 -58047 111387 -58047 111387 -59240.155 111616.89 -59361.476 112026.924 -59191.645 112455.183 -58801.358 112516.157 -58671.522 112729.375 -58990.625 113220.582 -59318.839 113653.744 -59405 113946.256 -59405 114074.164 -59379.558 115722.301 -61027.695 115722.301 -61371.678 115541.495 -61642.273 115475.56 -61973.75 115475.56 -62486.25 115541.495 -62817.727 115729.261 -63098.739 116010.273 -63286.505 116341.75 -63352.44 116779.25 -63352.44 117110.727 -63286.505 117348 -63127.964 117585.273 -63286.505 117779.8 -63325.199 117779.801 -63657.775 117665.699 -63543.673 117432.31 -63447 117191.75 -63447 117033 -63605.75 117033 -64405 117053 -64405 117053 -64659 117033 -64659 117033 -65458.25 117118.531 -65543.781 116998.191 -65624.191 116951.679 -65693.8 115660 -65693.8 115660 -64903.593 115642.925 -64817.75 115871 -64817.75 115871 -65108.309 115967.673 -65341.698 116146.301 -65520.327 116379.69 -65617 116620.25 -65617 116779 -65458.25 116779 -64659 116029.75 -64659 115871 -64817.75 115642.925 -64817.75 115579.641 -64499.6 115273.529 -64041.471 115145.151 -63955.691 115871 -63955.691 115871 -64246.25 116029.75 -64405 116779 -64405 116779 -63605.75 116620.25 -63447 116379.69 -63447 116146.301 -63543.673 115967.673 -63722.302 115871 -63955.691 115145.151 -63955.691 114815.4 -63735.359 114275 -63627.867 113734.601 -63735.359 113276.472 -64041.471 112970.359 -64499.6 112890 -64903.593 112890 -66176.406 112970.359 -66580.399 113276.471 -67038.528 113734.6 -67344.641 114275 -67452.133 114815.399 -67344.641 114894.941 -67291.492 114939.951 -67321.567 115184.446 -67370.2 115184.451 -67370.2 115267 -67386.62 115349.549 -67370.2 116951.679 -67370.2 116998.191 -67439.809 117191.8 -67569.176 117191.801 -68005.956 117124.309 -67978 116846.25 -67978 116687.5 -68136.75 116687.5 -68961 116707.5 -68961 116707.5 -69215 116687.5 -69215 116687.5 -70039.25 116846.25 -70198 117124.309 -70198 117357.698 -70101.327 117422.969 -70036.057 117585.273 -70144.505 117916.75 -70210.44 118354.25 -70210.44 118685.727 -70144.505 118966.739 -69956.739 119154.505 -69675.727 119220.44 -69344.25 119220.44 -69188.453 120290 -68118.893 120290 -74290 117262.35 -74290 117535.183 -74041.358 117781.486 -73516.892 117660.819 -73287 116467 -73287 116467 -73307 116213 -73307 116213 -73287 113927 -73287 113927 -73307 113673 -73307 113673 -73287 111387 -73287 111387 -73307 111133 -73307 111133 -73287 108847 -73287 108847 -73307 108593 -73307 108593 -73287 106307 -73287 106307 -73307 106053 -73307 106053 -73287 103767 -73287 103767 -73307 103513 -73307 103513 -73287 102319.181 -73287 102198.514 -73516.892 102444.817 -74041.358 102717.65 -74290 101710 -74290 101710 -72803.108 102198.514 -72803.108 102319.181 -73033 103513 -73033 103513 -71839.845 103767 -71839.845 103767 -73033 106053 -73033 106053 -71839.845 106307 -71839.845 106307 -73033 108593 -73033 108593 -71839.845 108847 -71839.845 108847 -73033 111133 -73033 111133 -71839.845 111387 -71839.845 111387 -73033 113673 -73033 113673 -71839.845 113927 -71839.845 113927 -73033 116213 -73033 116213 -71839.845 116467 -71839.845 116467 -73033 117660.819 -73033 117781.486 -72803.108 117535.183 -72278.642 117106.924 -71888.355 116696.89 -71718.524 116467 -71839.845 116213 -71839.845 115983.11 -71718.524 115573.076 -71888.355 115144.817 -72278.642 115070 -72437.954 114995.183 -72278.642 114566.924 -71888.355 114156.89 -71718.524 113927 -71839.845 113673 -71839.845 113443.11 -71718.524 113033.076 -71888.355 112604.817 -72278.642 112530 -72437.954 112455.183 -72278.642 112026.924 -71888.355 111616.89 -71718.524 111387 -71839.845 111133 -71839.845 110903.11 -71718.524 110493.076 -71888.355 110064.817 -72278.642 109990 -72437.954 109915.183 -72278.642 109486.924 -71888.355 109076.89 -71718.524 108847 -71839.845 108593 -71839.845 108363.11 -71718.524 107953.076 -71888.355 107524.817 -72278.642 107450 -72437.954 107375.183 -72278.642 106946.924 -71888.355 106536.89 -71718.524 106307 -71839.845 106053 -71839.845 105823.11 -71718.524 105413.076 -71888.355 104984.817 -72278.642 104910 -72437.954 104835.183 -72278.642 104406.924 -71888.355 103996.89 -71718.524 103767 -71839.845 103513 -71839.845 103283.11 -71718.524 102873.076 -71888.355 102444.817 -72278.642 102198.514 -72803.108 101710 -72803.108 101710 -69373.75 115488 -69373.75 115488 -69689.31 115584.673 -69922.699 115763.302 -70101.327 115996.691 -70198 116274.75 -70198 116433.5 -70039.25 116433.5 -69215 115646.75 -69215 115488 -69373.75 101710 -69373.75 101710 -68486.69 115488 -68486.69 115488 -68802.25 115646.75 -68961 116433.5 -68961 116433.5 -68136.75 116274.75 -67978 115996.691 -67978 115763.302 -68074.673 115584.673 -68253.301 115488 -68486.69 101710 -68486.69 101710 -66695.952 101950.104 -66994.5 102443.181 -67264.367 102525.961 -67281.904 102748 -67159.915 102748 -65667 103002 -65667 103002 -67159.915 103224.039 -67281.904 103306.819 -67264.367 103799.896 -66994.5 104152.166 -66556.483 104310 -66017 104310 -65667 103002 -65667 102748 -65667 102728 -65667 102728 -65413 102748 -65413 102748 -63920.085 103002 -63920.085 103002 -65413 104310 -65413 104310 -65063 104276.551 -64948.667 104540 -64948.667 104540 -66131.332 104623.26 -66549.908 104940.423 -67024.576 105415.091 -67341.74 105975 -67453.113 106534.908 -67341.74 107009.576 -67024.577 107326.74 -66549.909 107370.755 -66328.632 107545.034 -66749.38 108145.62 -67349.966 108930.322 -67675 109779.678 -67675 110564.38 -67349.966 111164.966 -66749.38 111490 -65964.678 111490 -65115.322 111164.966 -64330.62 110564.38 -63730.034 109779.678 -63405 108930.322 -63405 108145.62 -63730.034 107545.034 -64330.62 107370.755 -64751.368 107326.74 -64530.091 107009.577 -64055.423 106534.909 -63738.26 105975 -63626.887 105415.092 -63738.26 104940.424 -64055.423 104623.26 -64530.091 104540 -64948.667 104276.551 -64948.667 104152.166 -64523.517 103799.896 -64085.5 103306.819 -63815.633 103224.039 -63798.096 103002 -63920.085 102748 -63920.085 102525.961 -63798.096 102443.181 -63815.633 101950.104 -64085.5 101710 -64384.048 101710 -58276.892 102198.514 -58276.892 102444.817 -58801.358 102873.076 -59191.645 103283.11 -59361.476 103513 -59240.155 103513 -58047 103767 -58047 103767 -59240.155 103996.89 -59361.476 104406.924 -59191.645 104835.183 -58801.358 104910 -58642.046 104984.817 -58801.358 105413.076 -59191.645 105823.11 -59361.476 106053 -59240.155 106053 -58047 106307 -58047 106307 -59240.155 106536.89 -59361.476 106946.924 -59191.645 107375.183 -58801.358 107450 -58642.046 107524.817 -58801.358 107953.076 -59191.645 108363.11 -59361.476 108593 -59240.155 108593 -58047 108847 -58047 108847 -59240.155 109076.89 -59361.476 109486.924 -59191.645 109915.183 -58801.358 109990 -58642.046 110064.817 -58801.358 110493.076 -59191.645 110903.11 -59361.476 111133 -59240.155 111133 -58047 108847 -58047 108593 -58047 106307 -58047 106053 -58047 103767 -58047 103513 -58047 102319.181 -58047 102198.514 -58276.892 101710 -58276.892 101710 -56710 102805.433 -56710 102444.817 -57038.642" fill="none" stroke-width="254"/><use xlink:href="#V7dqRyVNLz21KcQVXrpz_pad-19" x="116340" y="-73160"/><use xlink:href="#V7dqRyVNLz21KcQVXrpz_pad-19" x="113800" y="-73160"/><use xlink:href="#V7dqRyVNLz21KcQVXrpz_pad-19" x="111260" y="-73160"/><use xlink:href="#V7dqRyVNLz21KcQVXrpz_pad-19" x="108720" y="-73160"/><use xlink:href="#V7dqRyVNLz21KcQVXrpz_pad-19" x="106180" y="-73160"/><use xlink:href="#V7dqRyVNLz21KcQVXrpz_pad-19" x="103640" y="-73160"/><use xlink:href="#V7dqRyVNLz21KcQVXrpz_pad-19" x="103640" y="-57920"/><use xlink:href="#V7dqRyVNLz21KcQVXrpz_pad-19" x="106180" y="-57920"/><use xlink:href="#V7dqRyVNLz21KcQVXrpz_pad-19" x="108720" y="-57920"/><use xlink:href="#V7dqRyVNLz21KcQVXrpz_pad-19" x="111260" y="-57920"/><use xlink:href="#V7dqRyVNLz21KcQVXrpz_pad-19" x="113800" y="-57920"/><use xlink:href="#V7dqRyVNLz21KcQVXrpz_pad-19" x="116340" y="-57920"/><use xlink:href="#V7dqRyVNLz21KcQVXrpz_pad-20" x="102875" y="-65540"/><use xlink:href="#V7dqRyVNLz21KcQVXrpz_pad-21" x="105975" y="-65540"/><use xlink:href="#V7dqRyVNLz21KcQVXrpz_pad-22" x="114275" y="-65540"/><use xlink:href="#V7dqRyVNLz21KcQVXrpz_pad-19" x="109355" y="-65540"/></g><g id="r0qRDW_QwHsOc_y9Ew9G_top_drill1"><use xlink:href="#zJMuXMU6tsVxB439zihp_pad-3" x="103640" y="-57920"/><use xlink:href="#zJMuXMU6tsVxB439zihp_pad-3" x="106180" y="-57920"/><use xlink:href="#zJMuXMU6tsVxB439zihp_pad-3" x="108720" y="-57920"/><use xlink:href="#zJMuXMU6tsVxB439zihp_pad-3" x="111260" y="-57920"/><use xlink:href="#zJMuXMU6tsVxB439zihp_pad-3" x="113800" y="-57920"/><use xlink:href="#zJMuXMU6tsVxB439zihp_pad-3" x="116340" y="-57920"/><use xlink:href="#zJMuXMU6tsVxB439zihp_pad-3" x="103640" y="-73160"/><use xlink:href="#zJMuXMU6tsVxB439zihp_pad-3" x="106180" y="-73160"/><use xlink:href="#zJMuXMU6tsVxB439zihp_pad-3" x="108720" y="-73160"/><use xlink:href="#zJMuXMU6tsVxB439zihp_pad-3" x="111260" y="-73160"/><use xlink:href="#zJMuXMU6tsVxB439zihp_pad-3" x="113800" y="-73160"/><use xlink:href="#zJMuXMU6tsVxB439zihp_pad-3" x="116340" y="-73160"/><use xlink:href="#zJMuXMU6tsVxB439zihp_pad-4" x="109355" y="-65540"/><path d="M 114275 -65040 114275 -66040" fill="none" stroke-width="500"/><path d="M 102875 -65190 102875 -65890 M 105975 -65090 105975 -65990" fill="none" stroke-width="600"/></g><clipPath id="r0qRDW_QwHsOc_y9Ew9G_top_outline"><path d="M 101000 -56000 101000 -75000 121000 -75000 121000 -56000 101000 -56000" fill="none" stroke-width="150"/></clipPath><mask id="r0qRDW_QwHsOc_y9Ew9G_top_mech-mask"><g fill="#000" stroke="#000"><rect x="101000" y="-75000" width="20000" height="19000" fill="#fff"/><use xlink:href="#r0qRDW_QwHsOc_y9Ew9G_top_drill1"/></g></mask><mask id="r0qRDW_QwHsOc_y9Ew9G_top_cf-mask"><g fill="#fff" stroke="#fff"><use xlink:href="#r0qRDW_QwHsOc_y9Ew9G_top_soldermask"/></g></mask><mask id="r0qRDW_QwHsOc_y9Ew9G_top_sm-mask"><g fill="#000" stroke="#000"><rect x="101000" y="-75000" width="20000" height="19000" fill="#fff"/><use xlink:href="#r0qRDW_QwHsOc_y9Ew9G_top_soldermask"/></g></mask></defs><g transform="translate(0,-131000) scale(1,-1)"><g mask="url(#r0qRDW_QwHsOc_y9Ew9G_top_mech-mask)" clip-path="url(#r0qRDW_QwHsOc_y9Ew9G_top_outline)"><rect x="101000" y="-75000" width="20000" height="19000" fill="currentColor" class="r0qRDW_QwHsOc_y9Ew9G_fr4"/><use xlink:href="#r0qRDW_QwHsOc_y9Ew9G_top_copper" fill="currentColor" stroke="currentColor" class="r0qRDW_QwHsOc_y9Ew9G_cu"/><use xlink:href="#r0qRDW_QwHsOc_y9Ew9G_top_copper" fill="currentColor" stroke="currentColor" class="r0qRDW_QwHsOc_y9Ew9G_cf" mask="url(#r0qRDW_QwHsOc_y9Ew9G_top_cf-mask)"/><g mask="url(#r0qRDW_QwHsOc_y9Ew9G_top_sm-mask)"><rect x="101000" y="-75000" width="20000" height="19000" fill="currentColor" class="r0qRDW_QwHsOc_y9Ew9G_sm"/><use xlink:href="#r0qRDW_QwHsOc_y9Ew9G_top_silkscreen" fill="currentColor" stroke="currentColor" class="r0qRDW_QwHsOc_y9Ew9G_ss"/></g><use xlink:href="#r0qRDW_QwHsOc_y9Ew9G_top_solderpaste" fill="currentColor" stroke="currentColor" class="r0qRDW_QwHsOc_y9Ew9G_sp"/></g></g></svg>