<svg version="1.1" xmlns="http://www.w3.org/2000/svg" xmlns:xlink="http://www.w3.org/1999/xlink" stroke-linecap="round" stroke-linejoin="round" stroke-width="0" fill-rule="evenodd" clip-rule="evenodd" id="VyxcyOhNZnKrLHtegL0m_bottom" viewBox="101000 -75000 8000 19000" width="8mm" height="19mm" class="w-100 h-100"><defs><style>.VyxcyOhNZnKrLHtegL0m_fr4 {color: #666666;}
.VyxcyOhNZnKrLHtegL0m_cu {color: #cccccc;}
.VyxcyOhNZnKrLHtegL0m_cf {color: #cc9933;}
.VyxcyOhNZnKrLHtegL0m_sm {color: #004200; opacity: 0.75;}
.VyxcyOhNZnKrLHtegL0m_ss {color: #ffffff;}
.VyxcyOhNZnKrLHtegL0m_sp {color: #999999;}
.VyxcyOhNZnKrLHtegL0m_out {color: #000000;}</style><rect x="-1050" y="-1050" width="2100" height="2100" rx="1050" ry="1050" id="k6QxVRhsCa0mqf-7xe5B_pad-10"/><rect x="-1100" y="-1100" width="2200" height="2200" id="k6QxVRhsCa0mqf-7xe5B_pad-11"/><circle cx="0" cy="0" r="1100" id="k6QxVRhsCa0mqf-7xe5B_pad-12"/><rect x="-850" y="-850" width="1700" height="1700" rx="850" ry="850" id="niYg1M_bVsFoyPXp8Fv8_pad-10"/><rect x="-900" y="-900" width="1800" height="1800" id="niYg1M_bVsFoyPXp8Fv8_pad-11"/><circle cx="0" cy="0" r="900" id="niYg1M_bVsFoyPXp8Fv8_pad-12"/><circle cx="0" cy="0" r="175" id="niYg1M_bVsFoyPXp8Fv8_pad-14"/><circle cx="0" cy="0" r="450" id="C4PcmyUH2gCP7yI6OBGj_pad-1"/><circle cx="0" cy="0" r="500" id="C4PcmyUH2gCP7yI6OBGj_pad-2"/><g id="VyxcyOhNZnKrLHtegL0m_bottom_soldermask"><use xlink:href="#k6QxVRhsCa0mqf-7xe5B_pad-10" x="106180" y="-73160"/><use xlink:href="#k6QxVRhsCa0mqf-7xe5B_pad-10" x="103640" y="-73160"/><use xlink:href="#k6QxVRhsCa0mqf-7xe5B_pad-10" x="103640" y="-57920"/><use xlink:href="#k6QxVRhsCa0mqf-7xe5B_pad-10" x="106180" y="-57920"/><use xlink:href="#k6QxVRhsCa0mqf-7xe5B_pad-11" x="106172" y="-64516"/><use xlink:href="#k6QxVRhsCa0mqf-7xe5B_pad-12" x="103632" y="-64516"/></g><g id="VyxcyOhNZnKrLHtegL0m_bottom_copper"><use xlink:href="#niYg1M_bVsFoyPXp8Fv8_pad-10" x="106180" y="-73160"/><use xlink:href="#niYg1M_bVsFoyPXp8Fv8_pad-10" x="103640" y="-73160"/><use xlink:href="#niYg1M_bVsFoyPXp8Fv8_pad-10" x="103640" y="-57920"/><use xlink:href="#niYg1M_bVsFoyPXp8Fv8_pad-10" x="106180" y="-57920"/><use xlink:href="#niYg1M_bVsFoyPXp8Fv8_pad-11" x="106172" y="-64516"/><use xlink:href="#niYg1M_bVsFoyPXp8Fv8_pad-12" x="103632" y="-64516"/><path d="M 102569.375 -56849.375 102241.161 -57340.582 102125.908 -57920 102241.161 -58499.418 102569.375 -58990.625 103060.582 -59318.839 103493.744 -59405 103786.256 -59405 104219.418 -59318.839 104710.625 -58990.625 104923.843 -58671.522 104984.817 -58801.358 105413.076 -59191.645 105823.11 -59361.476 106053 -59240.155 106053 -58047 106307 -58047 106307 -59240.155 106536.89 -59361.476 106946.924 -59191.645 107375.183 -58801.358 107621.486 -58276.892 107500.819 -58047 106307 -58047 106053 -58047 106033 -58047 106033 -57793 106053 -57793 106053 -57773 106307 -57773 106307 -57793 107500.819 -57793 107621.486 -57563.108 107375.183 -57038.642 107014.567 -56710 108290.001 -56710 108290 -74290 107102.35 -74290 107375.183 -74041.358 107621.486 -73516.892 107500.819 -73287 106307 -73287 106307 -73307 106053 -73307 106053 -73287 103767 -73287 103767 -73307 103513 -73307 103513 -73287 102319.181 -73287 102198.514 -73516.892 102444.817 -74041.358 102717.65 -74290 101710 -74290 101710 -72803.108 102198.514 -72803.108 102319.181 -73033 103513 -73033 103513 -71839.845 103767 -71839.845 103767 -73033 106053 -73033 106053 -71839.845 106307 -71839.845 106307 -73033 107500.819 -73033 107621.486 -72803.108 107375.183 -72278.642 106946.924 -71888.355 106536.89 -71718.524 106307 -71839.845 106053 -71839.845 105823.11 -71718.524 105413.076 -71888.355 104984.817 -72278.642 104910 -72437.954 104835.183 -72278.642 104406.924 -71888.355 103996.89 -71718.524 103767 -71839.845 103513 -71839.845 103283.11 -71718.524 102873.076 -71888.355 102444.817 -72278.642 102198.514 -72803.108 101710 -72803.108 101710 -64210.67 102097 -64210.67 102097 -64821.33 102330.69 -65385.507 102762.493 -65817.31 103326.67 -66051 103937.33 -66051 104501.507 -65817.31 104677.861 -65640.956 104733.673 -65775.699 104912.302 -65954.327 105145.691 -66051 105886.25 -66051 106045 -65892.25 106045 -64643 106299 -64643 106299 -65892.25 106457.75 -66051 107198.309 -66051 107431.698 -65954.327 107610.327 -65775.699 107707 -65542.31 107707 -64801.75 107548.25 -64643 106299 -64643 106045 -64643 106025 -64643 106025 -64389 106045 -64389 106045 -63139.75 106299 -63139.75 106299 -64389 107548.25 -64389 107707 -64230.25 107707 -63489.69 107610.327 -63256.301 107431.698 -63077.673 107198.309 -62981 106457.75 -62981 106299 -63139.75 106045 -63139.75 105886.25 -62981 105145.691 -62981 104912.302 -63077.673 104733.673 -63256.301 104677.861 -63391.044 104501.507 -63214.69 103937.33 -62981 103326.67 -62981 102762.493 -63214.69 102330.69 -63646.493 102097 -64210.67 101710 -64210.67 101710 -56710 102777.964 -56710 102569.375 -56849.375 102569.375 -56849.375"/><path d="M 102569.375 -56849.375 102241.161 -57340.582 102125.908 -57920 102241.161 -58499.418 102569.375 -58990.625 103060.582 -59318.839 103493.744 -59405 103786.256 -59405 104219.418 -59318.839 104710.625 -58990.625 104923.843 -58671.522 104984.817 -58801.358 105413.076 -59191.645 105823.11 -59361.476 106053 -59240.155 106053 -58047 106307 -58047 106307 -59240.155 106536.89 -59361.476 106946.924 -59191.645 107375.183 -58801.358 107621.486 -58276.892 107500.819 -58047 106307 -58047 106053 -58047 106033 -58047 106033 -57793 106053 -57793 106053 -57773 106307 -57773 106307 -57793 107500.819 -57793 107621.486 -57563.108 107375.183 -57038.642 107014.567 -56710 108290.001 -56710 108290 -74290 107102.35 -74290 107375.183 -74041.358 107621.486 -73516.892 107500.819 -73287 106307 -73287 106307 -73307 106053 -73307 106053 -73287 103767 -73287 103767 -73307 103513 -73307 103513 -73287 102319.181 -73287 102198.514 -73516.892 102444.817 -74041.358 102717.65 -74290 101710 -74290 101710 -72803.108 102198.514 -72803.108 102319.181 -73033 103513 -73033 103513 -71839.845 103767 -71839.845 103767 -73033 106053 -73033 106053 -71839.845 106307 -71839.845 106307 -73033 107500.819 -73033 107621.486 -72803.108 107375.183 -72278.642 106946.924 -71888.355 106536.89 -71718.524 106307 -71839.845 106053 -71839.845 105823.11 -71718.524 105413.076 -71888.355 104984.817 -72278.642 104910 -72437.954 104835.183 -72278.642 104406.924 -71888.355 103996.89 -71718.524 103767 -71839.845 103513 -71839.845 103283.11 -71718.524 102873.076 -71888.355 102444.817 -72278.642 102198.514 -72803.108 101710 -72803.108 101710 -64210.67 102097 -64210.67 102097 -64821.33 102330.69 -65385.507 102762.493 -65817.31 103326.67 -66051 103937.33 -66051 104501.507 -65817.31 104677.861 -65640.956 104733.673 -65775.699 104912.302 -65954.327 105145.691 -66051 105886.25 -66051 106045 -65892.25 106045 -64643 106299 -64643 106299 -65892.25 106457.75 -66051 107198.309 -66051 107431.698 -65954.327 107610.327 -65775.699 107707 -65542.31 107707 -64801.75 107548.25 -64643 106299 -64643 106045 -64643 106025 -64643 106025 -64389 106045 -64389 106045 -63139.75 106299 -63139.75 106299 -64389 107548.25 -64389 107707 -64230.25 107707 -63489.69 107610.327 -63256.301 107431.698 -63077.673 107198.309 -62981 106457.75 -62981 106299 -63139.75 106045 -63139.75 105886.25 -62981 105145.691 -62981 104912.302 -63077.673 104733.673 -63256.301 104677.861 -63391.044 104501.507 -63214.69 103937.33 -62981 103326.67 -62981 102762.493 -63214.69 102330.69 -63646.493 102097 -64210.67 101710 -64210.67 101710 -56710 102777.964 -56710 102569.375 -56849.375" fill="none" stroke-width="254"/><use xlink:href="#niYg1M_bVsFoyPXp8Fv8_pad-14" x="106180" y="-73160"/><use xlink:href="#niYg1M_bVsFoyPXp8Fv8_pad-14" x="103640" y="-73160"/><use xlink:href="#niYg1M_bVsFoyPXp8Fv8_pad-14" x="103640" y="-57920"/><use xlink:href="#niYg1M_bVsFoyPXp8Fv8_pad-14" x="106180" y="-57920"/><use xlink:href="#niYg1M_bVsFoyPXp8Fv8_pad-14" x="106172" y="-64516"/><use xlink:href="#niYg1M_bVsFoyPXp8Fv8_pad-14" x="103632" y="-64516"/></g><g id="VyxcyOhNZnKrLHtegL0m_bottom_drill1"><use xlink:href="#C4PcmyUH2gCP7yI6OBGj_pad-1" x="103632" y="-64516"/><use xlink:href="#C4PcmyUH2gCP7yI6OBGj_pad-1" x="106172" y="-64516"/><use xlink:href="#C4PcmyUH2gCP7yI6OBGj_pad-2" x="103640" y="-73160"/><use xlink:href="#C4PcmyUH2gCP7yI6OBGj_pad-2" x="106180" y="-73160"/><use xlink:href="#C4PcmyUH2gCP7yI6OBGj_pad-2" x="103640" y="-57920"/><use xlink:href="#C4PcmyUH2gCP7yI6OBGj_pad-2" x="106180" y="-57920"/></g><clipPath id="VyxcyOhNZnKrLHtegL0m_bottom_outline"><path d="M 101000 -56000 101000 -75000 109000 -75000 109000 -56000 101000 -56000" fill="none" stroke-width="150"/></clipPath><mask id="VyxcyOhNZnKrLHtegL0m_bottom_mech-mask"><g fill="#000" stroke="#000"><rect x="101000" y="-75000" width="8000" height="19000" fill="#fff"/><use xlink:href="#VyxcyOhNZnKrLHtegL0m_bottom_drill1"/></g></mask><mask id="VyxcyOhNZnKrLHtegL0m_bottom_cf-mask"><g fill="#fff" stroke="#fff"><use xlink:href="#VyxcyOhNZnKrLHtegL0m_bottom_soldermask"/></g></mask><mask id="VyxcyOhNZnKrLHtegL0m_bottom_sm-mask"><g fill="#000" stroke="#000"><rect x="101000" y="-75000" width="8000" height="19000" fill="#fff"/><use xlink:href="#VyxcyOhNZnKrLHtegL0m_bottom_soldermask"/></g></mask></defs><g transform="translate(0,-131000) scale(1,-1)"><g mask="url(#VyxcyOhNZnKrLHtegL0m_bottom_mech-mask)" clip-path="url(#VyxcyOhNZnKrLHtegL0m_bottom_outline)" transform="translate(210000,0) scale(-1,1)"><rect x="101000" y="-75000" width="8000" height="19000" fill="currentColor" class="VyxcyOhNZnKrLHtegL0m_fr4"/><use xlink:href="#VyxcyOhNZnKrLHtegL0m_bottom_copper" fill="currentColor" stroke="currentColor" class="VyxcyOhNZnKrLHtegL0m_cu"/><use xlink:href="#VyxcyOhNZnKrLHtegL0m_bottom_copper" fill="currentColor" stroke="currentColor" class="VyxcyOhNZnKrLHtegL0m_cf" mask="url(#VyxcyOhNZnKrLHtegL0m_bottom_cf-mask)"/><g mask="url(#VyxcyOhNZnKrLHtegL0m_bottom_sm-mask)"><rect x="101000" y="-75000" width="8000" height="19000" fill="currentColor" class="VyxcyOhNZnKrLHtegL0m_sm"/></g></g></g></svg>