<svg version="1.1" xmlns="http://www.w3.org/2000/svg" xmlns:xlink="http://www.w3.org/1999/xlink" stroke-linecap="round" stroke-linejoin="round" stroke-width="0" fill-rule="evenodd" clip-rule="evenodd" id="wnNnhiJSiPNr-kBQz2IZ_bottom" viewBox="101000 -75000 17000 19000" width="17mm" height="19mm" class="w-100 h-100"><defs><style>.wnNnhiJSiPNr-kBQz2IZ_fr4 {color: #666666;}
.wnNnhiJSiPNr-kBQz2IZ_cu {color: #cccccc;}
.wnNnhiJSiPNr-kBQz2IZ_cf {color: #cc9933;}
.wnNnhiJSiPNr-kBQz2IZ_sm {color: #004200; opacity: 0.75;}
.wnNnhiJSiPNr-kBQz2IZ_ss {color: #ffffff;}
.wnNnhiJSiPNr-kBQz2IZ_sp {color: #999999;}
.wnNnhiJSiPNr-kBQz2IZ_out {color: #000000;}</style><rect x="-1050" y="-1050" width="2100" height="2100" rx="1050" ry="1050" id="aCvkBGKQVNfrpfAZyId-_pad-10"/><rect x="-1450" y="-1450" width="2900" height="2900" id="aCvkBGKQVNfrpfAZyId-_pad-11"/><rect x="-1200" y="-1200" width="2400" height="2400" id="aCvkBGKQVNfrpfAZyId-_pad-12"/><rect x="-850" y="-850" width="1700" height="1700" rx="850" ry="850" id="cOpeRcslSaSfvwjEzwrZ_pad-10"/><rect x="-1250" y="-1250" width="2500" height="2500" id="cOpeRcslSaSfvwjEzwrZ_pad-11"/><rect x="-1000" y="-1000" width="2000" height="2000" id="cOpeRcslSaSfvwjEzwrZ_pad-12"/><circle cx="0" cy="0" r="175" id="cOpeRcslSaSfvwjEzwrZ_pad-14"/><circle cx="0" cy="0" r="500" id="hZnq4CRwyuKqyPu-i3xh_pad-1"/><circle cx="0" cy="0" r="750" id="hZnq4CRwyuKqyPu-i3xh_pad-2"/><g id="wnNnhiJSiPNr-kBQz2IZ_bottom_soldermask"><use xlink:href="#aCvkBGKQVNfrpfAZyId-_pad-10" x="116340" y="-73160"/><use xlink:href="#aCvkBGKQVNfrpfAZyId-_pad-10" x="113800" y="-73160"/><use xlink:href="#aCvkBGKQVNfrpfAZyId-_pad-10" x="111260" y="-73160"/><use xlink:href="#aCvkBGKQVNfrpfAZyId-_pad-10" x="108720" y="-73160"/><use xlink:href="#aCvkBGKQVNfrpfAZyId-_pad-10" x="106180" y="-73160"/><use xlink:href="#aCvkBGKQVNfrpfAZyId-_pad-10" x="103640" y="-73160"/><use xlink:href="#aCvkBGKQVNfrpfAZyId-_pad-10" x="116340" y="-57920"/><use xlink:href="#aCvkBGKQVNfrpfAZyId-_pad-10" x="103640" y="-57920"/><use xlink:href="#aCvkBGKQVNfrpfAZyId-_pad-11" x="115428" y="-61730"/><use xlink:href="#aCvkBGKQVNfrpfAZyId-_pad-12" x="112228" y="-69230"/><use xlink:href="#aCvkBGKQVNfrpfAZyId-_pad-12" x="109728" y="-69230"/><use xlink:href="#aCvkBGKQVNfrpfAZyId-_pad-12" x="107228" y="-69230"/><use xlink:href="#aCvkBGKQVNfrpfAZyId-_pad-11" x="104028" y="-61730"/></g><g id="wnNnhiJSiPNr-kBQz2IZ_bottom_copper"><use xlink:href="#cOpeRcslSaSfvwjEzwrZ_pad-10" x="116340" y="-73160"/><use xlink:href="#cOpeRcslSaSfvwjEzwrZ_pad-10" x="113800" y="-73160"/><use xlink:href="#cOpeRcslSaSfvwjEzwrZ_pad-10" x="111260" y="-73160"/><use xlink:href="#cOpeRcslSaSfvwjEzwrZ_pad-10" x="108720" y="-73160"/><use xlink:href="#cOpeRcslSaSfvwjEzwrZ_pad-10" x="106180" y="-73160"/><use xlink:href="#cOpeRcslSaSfvwjEzwrZ_pad-10" x="103640" y="-73160"/><use xlink:href="#cOpeRcslSaSfvwjEzwrZ_pad-10" x="116340" y="-57920"/><use xlink:href="#cOpeRcslSaSfvwjEzwrZ_pad-10" x="103640" y="-57920"/><use xlink:href="#cOpeRcslSaSfvwjEzwrZ_pad-11" x="115428" y="-61730"/><use xlink:href="#cOpeRcslSaSfvwjEzwrZ_pad-12" x="112228" y="-69230"/><use xlink:href="#cOpeRcslSaSfvwjEzwrZ_pad-12" x="109728" y="-69230"/><use xlink:href="#cOpeRcslSaSfvwjEzwrZ_pad-12" x="107228" y="-69230"/><use xlink:href="#cOpeRcslSaSfvwjEzwrZ_pad-11" x="104028" y="-61730"/><path d="M 102569.375 -56849.375 102241.161 -57340.582 102125.908 -57920 102241.161 -58499.418 102569.375 -58990.625 103060.582 -59318.839 103493.744 -59405 103786.256 -59405 104219.418 -59318.839 104710.625 -58990.625 105038.839 -58499.418 105083.102 -58276.892 114898.514 -58276.892 115144.817 -58801.358 115573.076 -59191.645 115983.11 -59361.476 116213 -59240.155 116213 -58047 115019.181 -58047 114898.514 -58276.892 105083.102 -58276.892 105154.092 -57920 105038.839 -57340.582 104710.625 -56849.375 104502.036 -56710 115505.433 -56710 115144.817 -57038.642 114898.514 -57563.108 115019.181 -57793 116213 -57793 116213 -57773 116467 -57773 116467 -57793 116487 -57793 116487 -58047 116467 -58047 116467 -59240.155 116696.89 -59361.476 117106.924 -59191.645 117290.001 -59024.801 117290.001 -60301.833 117276.157 -60232.235 117135.809 -60022.191 116925.765 -59881.843 116678 -59832.56 114178 -59832.56 113930.235 -59881.843 113720.191 -60022.191 113579.843 -60232.235 113530.56 -60480 113530.56 -62980 113579.843 -63227.765 113720.191 -63437.809 113930.235 -63578.157 114178 -63627.44 116678 -63627.44 116925.765 -63578.157 117135.809 -63437.809 117276.157 -63227.765 117290.001 -63158.168 117290 -72008.776 116919.418 -71761.161 116486.256 -71675 116193.744 -71675 115760.582 -71761.161 115269.375 -72089.375 115056.157 -72408.478 114995.183 -72278.642 114566.924 -71888.355 114156.89 -71718.524 113927 -71839.845 113927 -73033 113947 -73033 113947 -73287 113927 -73287 113927 -73307 113673 -73307 113673 -73287 111387 -73287 111387 -73307 111133 -73307 111133 -73287 108847 -73287 108847 -73307 108593 -73307 108593 -73287 106307 -73287 106307 -73307 106053 -73307 106053 -73287 103767 -73287 103767 -73307 103513 -73307 103513 -73287 102319.181 -73287 102198.514 -73516.892 102444.817 -74041.358 102717.65 -74290 101710 -74290 101710 -72803.108 102198.514 -72803.108 102319.181 -73033 103513 -73033 103513 -71839.845 103767 -71839.845 103767 -73033 106053 -73033 106053 -71839.845 106307 -71839.845 106307 -73033 108593 -73033 108593 -71839.845 108847 -71839.845 108847 -73033 111133 -73033 111133 -71839.845 111387 -71839.845 111387 -73033 113673 -73033 113673 -71839.845 113443.11 -71718.524 113033.076 -71888.355 112604.817 -72278.642 112530 -72437.954 112455.183 -72278.642 112026.924 -71888.355 111616.89 -71718.524 111387 -71839.845 111133 -71839.845 110903.11 -71718.524 110493.076 -71888.355 110064.817 -72278.642 109990 -72437.954 109915.183 -72278.642 109486.924 -71888.355 109076.89 -71718.524 108847 -71839.845 108593 -71839.845 108363.11 -71718.524 107953.076 -71888.355 107524.817 -72278.642 107450 -72437.954 107375.183 -72278.642 106946.924 -71888.355 106536.89 -71718.524 106307 -71839.845 106053 -71839.845 105823.11 -71718.524 105413.076 -71888.355 104984.817 -72278.642 104910 -72437.954 104835.183 -72278.642 104406.924 -71888.355 103996.89 -71718.524 103767 -71839.845 103513 -71839.845 103283.11 -71718.524 102873.076 -71888.355 102444.817 -72278.642 102198.514 -72803.108 101710 -72803.108 101710 -68230 105580.56 -68230 105580.56 -70230 105629.843 -70477.765 105770.191 -70687.809 105980.235 -70828.157 106228 -70877.44 108228 -70877.44 108475.765 -70828.157 108478 -70826.664 108480.235 -70828.157 108728 -70877.44 110728 -70877.44 110975.765 -70828.157 110989.916 -70818.701 111101.691 -70865 111942.25 -70865 112101 -70706.25 112101 -69357 112355 -69357 112355 -70706.25 112513.75 -70865 113354.309 -70865 113587.698 -70768.327 113766.327 -70589.699 113863 -70356.31 113863 -69515.75 113704.25 -69357 112355 -69357 112101 -69357 112081 -69357 112081 -69103 112101 -69103 112101 -67753.75 112355 -67753.75 112355 -69103 113704.25 -69103 113863 -68944.25 113863 -68103.69 113766.327 -67870.301 113587.698 -67691.673 113354.309 -67595 112513.75 -67595 112355 -67753.75 112101 -67753.75 111942.25 -67595 111101.691 -67595 110989.916 -67641.299 110975.765 -67631.843 110728 -67582.56 108728 -67582.56 108480.235 -67631.843 108478 -67633.336 108475.765 -67631.843 108228 -67582.56 106228 -67582.56 105980.235 -67631.843 105770.191 -67772.191 105629.843 -67982.235 105580.56 -68230 101710 -68230 101710 -60480 102130.56 -60480 102130.56 -62980 102179.843 -63227.765 102320.191 -63437.809 102530.235 -63578.157 102778 -63627.44 105278 -63627.44 105525.765 -63578.157 105735.809 -63437.809 105876.157 -63227.765 105925.44 -62980 105925.44 -60480 105876.157 -60232.235 105735.809 -60022.191 105525.765 -59881.843 105278 -59832.56 102778 -59832.56 102530.235 -59881.843 102320.191 -60022.191 102179.843 -60232.235 102130.56 -60480 101710 -60480 101710 -56710 102777.964 -56710 102569.375 -56849.375 102569.375 -56849.375"/><path d="M 102569.375 -56849.375 102241.161 -57340.582 102125.908 -57920 102241.161 -58499.418 102569.375 -58990.625 103060.582 -59318.839 103493.744 -59405 103786.256 -59405 104219.418 -59318.839 104710.625 -58990.625 105038.839 -58499.418 105083.102 -58276.892 114898.514 -58276.892 115144.817 -58801.358 115573.076 -59191.645 115983.11 -59361.476 116213 -59240.155 116213 -58047 115019.181 -58047 114898.514 -58276.892 105083.102 -58276.892 105154.092 -57920 105038.839 -57340.582 104710.625 -56849.375 104502.036 -56710 115505.433 -56710 115144.817 -57038.642 114898.514 -57563.108 115019.181 -57793 116213 -57793 116213 -57773 116467 -57773 116467 -57793 116487 -57793 116487 -58047 116467 -58047 116467 -59240.155 116696.89 -59361.476 117106.924 -59191.645 117290.001 -59024.801 117290.001 -60301.833 117276.157 -60232.235 117135.809 -60022.191 116925.765 -59881.843 116678 -59832.56 114178 -59832.56 113930.235 -59881.843 113720.191 -60022.191 113579.843 -60232.235 113530.56 -60480 113530.56 -62980 113579.843 -63227.765 113720.191 -63437.809 113930.235 -63578.157 114178 -63627.44 116678 -63627.44 116925.765 -63578.157 117135.809 -63437.809 117276.157 -63227.765 117290.001 -63158.168 117290 -72008.776 116919.418 -71761.161 116486.256 -71675 116193.744 -71675 115760.582 -71761.161 115269.375 -72089.375 115056.157 -72408.478 114995.183 -72278.642 114566.924 -71888.355 114156.89 -71718.524 113927 -71839.845 113927 -73033 113947 -73033 113947 -73287 113927 -73287 113927 -73307 113673 -73307 113673 -73287 111387 -73287 111387 -73307 111133 -73307 111133 -73287 108847 -73287 108847 -73307 108593 -73307 108593 -73287 106307 -73287 106307 -73307 106053 -73307 106053 -73287 103767 -73287 103767 -73307 103513 -73307 103513 -73287 102319.181 -73287 102198.514 -73516.892 102444.817 -74041.358 102717.65 -74290 101710 -74290 101710 -72803.108 102198.514 -72803.108 102319.181 -73033 103513 -73033 103513 -71839.845 103767 -71839.845 103767 -73033 106053 -73033 106053 -71839.845 106307 -71839.845 106307 -73033 108593 -73033 108593 -71839.845 108847 -71839.845 108847 -73033 111133 -73033 111133 -71839.845 111387 -71839.845 111387 -73033 113673 -73033 113673 -71839.845 113443.11 -71718.524 113033.076 -71888.355 112604.817 -72278.642 112530 -72437.954 112455.183 -72278.642 112026.924 -71888.355 111616.89 -71718.524 111387 -71839.845 111133 -71839.845 110903.11 -71718.524 110493.076 -71888.355 110064.817 -72278.642 109990 -72437.954 109915.183 -72278.642 109486.924 -71888.355 109076.89 -71718.524 108847 -71839.845 108593 -71839.845 108363.11 -71718.524 107953.076 -71888.355 107524.817 -72278.642 107450 -72437.954 107375.183 -72278.642 106946.924 -71888.355 106536.89 -71718.524 106307 -71839.845 106053 -71839.845 105823.11 -71718.524 105413.076 -71888.355 104984.817 -72278.642 104910 -72437.954 104835.183 -72278.642 104406.924 -71888.355 103996.89 -71718.524 103767 -71839.845 103513 -71839.845 103283.11 -71718.524 102873.076 -71888.355 102444.817 -72278.642 102198.514 -72803.108 101710 -72803.108 101710 -68230 105580.56 -68230 105580.56 -70230 105629.843 -70477.765 105770.191 -70687.809 105980.235 -70828.157 106228 -70877.44 108228 -70877.44 108475.765 -70828.157 108478 -70826.664 108480.235 -70828.157 108728 -70877.44 110728 -70877.44 110975.765 -70828.157 110989.916 -70818.701 111101.691 -70865 111942.25 -70865 112101 -70706.25 112101 -69357 112355 -69357 112355 -70706.25 112513.75 -70865 113354.309 -70865 113587.698 -70768.327 113766.327 -70589.699 113863 -70356.31 113863 -69515.75 113704.25 -69357 112355 -69357 112101 -69357 112081 -69357 112081 -69103 112101 -69103 112101 -67753.75 112355 -67753.75 112355 -69103 113704.25 -69103 113863 -68944.25 113863 -68103.69 113766.327 -67870.301 113587.698 -67691.673 113354.309 -67595 112513.75 -67595 112355 -67753.75 112101 -67753.75 111942.25 -67595 111101.691 -67595 110989.916 -67641.299 110975.765 -67631.843 110728 -67582.56 108728 -67582.56 108480.235 -67631.843 108478 -67633.336 108475.765 -67631.843 108228 -67582.56 106228 -67582.56 105980.235 -67631.843 105770.191 -67772.191 105629.843 -67982.235 105580.56 -68230 101710 -68230 101710 -60480 102130.56 -60480 102130.56 -62980 102179.843 -63227.765 102320.191 -63437.809 102530.235 -63578.157 102778 -63627.44 105278 -63627.44 105525.765 -63578.157 105735.809 -63437.809 105876.157 -63227.765 105925.44 -62980 105925.44 -60480 105876.157 -60232.235 105735.809 -60022.191 105525.765 -59881.843 105278 -59832.56 102778 -59832.56 102530.235 -59881.843 102320.191 -60022.191 102179.843 -60232.235 102130.56 -60480 101710 -60480 101710 -56710 102777.964 -56710 102569.375 -56849.375" fill="none" stroke-width="254"/><use xlink:href="#cOpeRcslSaSfvwjEzwrZ_pad-14" x="116340" y="-73160"/><use xlink:href="#cOpeRcslSaSfvwjEzwrZ_pad-14" x="113800" y="-73160"/><use xlink:href="#cOpeRcslSaSfvwjEzwrZ_pad-14" x="111260" y="-73160"/><use xlink:href="#cOpeRcslSaSfvwjEzwrZ_pad-14" x="108720" y="-73160"/><use xlink:href="#cOpeRcslSaSfvwjEzwrZ_pad-14" x="106180" y="-73160"/><use xlink:href="#cOpeRcslSaSfvwjEzwrZ_pad-14" x="103640" y="-73160"/><use xlink:href="#cOpeRcslSaSfvwjEzwrZ_pad-14" x="116340" y="-57920"/><use xlink:href="#cOpeRcslSaSfvwjEzwrZ_pad-14" x="103640" y="-57920"/><use xlink:href="#cOpeRcslSaSfvwjEzwrZ_pad-14" x="115428" y="-61730"/><use xlink:href="#cOpeRcslSaSfvwjEzwrZ_pad-14" x="112228" y="-69230"/><use xlink:href="#cOpeRcslSaSfvwjEzwrZ_pad-14" x="109728" y="-69230"/><use xlink:href="#cOpeRcslSaSfvwjEzwrZ_pad-14" x="107228" y="-69230"/><use xlink:href="#cOpeRcslSaSfvwjEzwrZ_pad-14" x="104028" y="-61730"/></g><g id="wnNnhiJSiPNr-kBQz2IZ_bottom_drill1"><use xlink:href="#hZnq4CRwyuKqyPu-i3xh_pad-1" x="103640" y="-73160"/><use xlink:href="#hZnq4CRwyuKqyPu-i3xh_pad-1" x="106180" y="-73160"/><use xlink:href="#hZnq4CRwyuKqyPu-i3xh_pad-1" x="108720" y="-73160"/><use xlink:href="#hZnq4CRwyuKqyPu-i3xh_pad-1" x="111260" y="-73160"/><use xlink:href="#hZnq4CRwyuKqyPu-i3xh_pad-1" x="113800" y="-73160"/><use xlink:href="#hZnq4CRwyuKqyPu-i3xh_pad-1" x="116340" y="-73160"/><use xlink:href="#hZnq4CRwyuKqyPu-i3xh_pad-1" x="116340" y="-57920"/><use xlink:href="#hZnq4CRwyuKqyPu-i3xh_pad-1" x="107228" y="-69230"/><use xlink:href="#hZnq4CRwyuKqyPu-i3xh_pad-1" x="109728" y="-69230"/><use xlink:href="#hZnq4CRwyuKqyPu-i3xh_pad-1" x="112228" y="-69230"/><use xlink:href="#hZnq4CRwyuKqyPu-i3xh_pad-1" x="103640" y="-57920"/><use xlink:href="#hZnq4CRwyuKqyPu-i3xh_pad-2" x="104028" y="-61730"/><use xlink:href="#hZnq4CRwyuKqyPu-i3xh_pad-2" x="115428" y="-61730"/></g><clipPath id="wnNnhiJSiPNr-kBQz2IZ_bottom_outline"><path d="M 101000 -56000 101000 -75000 118000 -75000 118000 -56000 101000 -56000" fill="none" stroke-width="150"/></clipPath><mask id="wnNnhiJSiPNr-kBQz2IZ_bottom_mech-mask"><g fill="#000" stroke="#000"><rect x="101000" y="-75000" width="17000" height="19000" fill="#fff"/><use xlink:href="#wnNnhiJSiPNr-kBQz2IZ_bottom_drill1"/></g></mask><mask id="wnNnhiJSiPNr-kBQz2IZ_bottom_cf-mask"><g fill="#fff" stroke="#fff"><use xlink:href="#wnNnhiJSiPNr-kBQz2IZ_bottom_soldermask"/></g></mask><mask id="wnNnhiJSiPNr-kBQz2IZ_bottom_sm-mask"><g fill="#000" stroke="#000"><rect x="101000" y="-75000" width="17000" height="19000" fill="#fff"/><use xlink:href="#wnNnhiJSiPNr-kBQz2IZ_bottom_soldermask"/></g></mask></defs><g transform="translate(0,-131000) scale(1,-1)"><g mask="url(#wnNnhiJSiPNr-kBQz2IZ_bottom_mech-mask)" clip-path="url(#wnNnhiJSiPNr-kBQz2IZ_bottom_outline)" transform="translate(219000,0) scale(-1,1)"><rect x="101000" y="-75000" width="17000" height="19000" fill="currentColor" class="wnNnhiJSiPNr-kBQz2IZ_fr4"/><use xlink:href="#wnNnhiJSiPNr-kBQz2IZ_bottom_copper" fill="currentColor" stroke="currentColor" class="wnNnhiJSiPNr-kBQz2IZ_cu"/><use xlink:href="#wnNnhiJSiPNr-kBQz2IZ_bottom_copper" fill="currentColor" stroke="currentColor" class="wnNnhiJSiPNr-kBQz2IZ_cf" mask="url(#wnNnhiJSiPNr-kBQz2IZ_bottom_cf-mask)"/><g mask="url(#wnNnhiJSiPNr-kBQz2IZ_bottom_sm-mask)"><rect x="101000" y="-75000" width="17000" height="19000" fill="currentColor" class="wnNnhiJSiPNr-kBQz2IZ_sm"/></g></g></g></svg>