<svg version="1.1" xmlns="http://www.w3.org/2000/svg" xmlns:xlink="http://www.w3.org/1999/xlink" stroke-linecap="round" stroke-linejoin="round" stroke-width="0" fill-rule="evenodd" clip-rule="evenodd" id="epvAXAkRko0dFbc6bUx3_top" viewBox="101000 -75000 20000 19000" width="20mm" height="19mm" class="w-100 h-100"><defs><style>.epvAXAkRko0dFbc6bUx3_fr4 {color: #666666;}
.epvAXAkRko0dFbc6bUx3_cu {color: #cccccc;}
.epvAXAkRko0dFbc6bUx3_cf {color: #cc9933;}
.epvAXAkRko0dFbc6bUx3_sm {color: #004200; opacity: 0.75;}
.epvAXAkRko0dFbc6bUx3_ss {color: #ffffff;}
.epvAXAkRko0dFbc6bUx3_sp {color: #999999;}
.epvAXAkRko0dFbc6bUx3_out {color: #000000;}</style><circle cx="0" cy="0" r="437.5" id="e7TjUuWse4jiyiek0ev9_pad-11"/><rect x="-300" y="-350" width="600" height="700" id="e7TjUuWse4jiyiek0ev9_pad-12"/><rect x="-400" y="-450" width="800" height="900" id="e7TjUuWse4jiyiek0ev9_pad-13"/><rect x="-850" y="-850" width="1700" height="1700" rx="850" ry="850" id="sjW2AXDEbjYi8LLm-OKB_pad-10"/><rect x="-800" y="-1150" width="1600" height="2300" rx="800" ry="800" id="sjW2AXDEbjYi8LLm-OKB_pad-11"/><rect x="-800" y="-1250" width="1600" height="2500" rx="800" ry="800" id="sjW2AXDEbjYi8LLm-OKB_pad-12"/><rect x="-750" y="-1250" width="1500" height="2500" rx="750" ry="750" id="sjW2AXDEbjYi8LLm-OKB_pad-13"/><circle cx="0" cy="0" r="437.5" id="sjW2AXDEbjYi8LLm-OKB_pad-15"/><rect x="-300" y="-350" width="600" height="700" id="sjW2AXDEbjYi8LLm-OKB_pad-16"/><rect x="-400" y="-450" width="800" height="900" id="sjW2AXDEbjYi8LLm-OKB_pad-17"/><circle cx="0" cy="0" r="175" id="sjW2AXDEbjYi8LLm-OKB_pad-21"/><rect x="-300" y="-650" width="600" height="1300" rx="300" ry="300" id="sjW2AXDEbjYi8LLm-OKB_pad-22"/><rect x="-300" y="-750" width="600" height="1500" rx="300" ry="300" id="sjW2AXDEbjYi8LLm-OKB_pad-23"/><rect x="-250" y="-750" width="500" height="1500" rx="250" ry="250" id="sjW2AXDEbjYi8LLm-OKB_pad-24"/><circle cx="0" cy="0" r="500" id="qeG6SZb2z3VY9uAdS1uQ_pad-3"/><circle cx="0" cy="0" r="1500" id="qeG6SZb2z3VY9uAdS1uQ_pad-4"/><g id="epvAXAkRko0dFbc6bUx3_top_soldermask"><path d="M 116512.507 -72292.733 116678.392 -72343.053 116831.267 -72424.766 116965.265 -72534.735 117075.234 -72668.733 117156.947 -72821.608 117207.267 -72987.493 117224.258 -73160 117207.267 -73332.507 117156.947 -73498.392 117075.234 -73651.267 116965.265 -73785.265 116831.267 -73895.234 116678.392 -73976.947 116512.507 -74027.267 116383.232 -74040 116296.768 -74040 116167.493 -74027.267 116001.608 -73976.947 115848.733 -73895.234 115714.735 -73785.265 115604.766 -73651.267 115523.053 -73498.392 115472.733 -73332.507 115455.742 -73160 115472.733 -72987.493 115523.053 -72821.608 115604.766 -72668.733 115714.735 -72534.735 115848.733 -72424.766 116001.608 -72343.053 116167.493 -72292.733 116296.768 -72280 116383.232 -72280 116512.507 -72292.733 116512.507 -72292.733"/><path d="M 113972.507 -72292.733 114138.392 -72343.053 114291.267 -72424.766 114425.265 -72534.735 114535.234 -72668.733 114616.947 -72821.608 114667.267 -72987.493 114684.258 -73160 114667.267 -73332.507 114616.947 -73498.392 114535.234 -73651.267 114425.265 -73785.265 114291.267 -73895.234 114138.392 -73976.947 113972.507 -74027.267 113843.232 -74040 113756.768 -74040 113627.493 -74027.267 113461.608 -73976.947 113308.733 -73895.234 113174.735 -73785.265 113064.766 -73651.267 112983.053 -73498.392 112932.733 -73332.507 112915.742 -73160 112932.733 -72987.493 112983.053 -72821.608 113064.766 -72668.733 113174.735 -72534.735 113308.733 -72424.766 113461.608 -72343.053 113627.493 -72292.733 113756.768 -72280 113843.232 -72280 113972.507 -72292.733 113972.507 -72292.733"/><path d="M 111432.507 -72292.733 111598.392 -72343.053 111751.267 -72424.766 111885.265 -72534.735 111995.234 -72668.733 112076.947 -72821.608 112127.267 -72987.493 112144.258 -73160 112127.267 -73332.507 112076.947 -73498.392 111995.234 -73651.267 111885.265 -73785.265 111751.267 -73895.234 111598.392 -73976.947 111432.507 -74027.267 111303.232 -74040 111216.768 -74040 111087.493 -74027.267 110921.608 -73976.947 110768.733 -73895.234 110634.735 -73785.265 110524.766 -73651.267 110443.053 -73498.392 110392.733 -73332.507 110375.742 -73160 110392.733 -72987.493 110443.053 -72821.608 110524.766 -72668.733 110634.735 -72534.735 110768.733 -72424.766 110921.608 -72343.053 111087.493 -72292.733 111216.768 -72280 111303.232 -72280 111432.507 -72292.733 111432.507 -72292.733"/><path d="M 108892.507 -72292.733 109058.392 -72343.053 109211.267 -72424.766 109345.265 -72534.735 109455.234 -72668.733 109536.947 -72821.608 109587.267 -72987.493 109604.258 -73160 109587.267 -73332.507 109536.947 -73498.392 109455.234 -73651.267 109345.265 -73785.265 109211.267 -73895.234 109058.392 -73976.947 108892.507 -74027.267 108763.232 -74040 108676.768 -74040 108547.493 -74027.267 108381.608 -73976.947 108228.733 -73895.234 108094.735 -73785.265 107984.766 -73651.267 107903.053 -73498.392 107852.733 -73332.507 107835.742 -73160 107852.733 -72987.493 107903.053 -72821.608 107984.766 -72668.733 108094.735 -72534.735 108228.733 -72424.766 108381.608 -72343.053 108547.493 -72292.733 108676.768 -72280 108763.232 -72280 108892.507 -72292.733 108892.507 -72292.733"/><path d="M 106352.507 -72292.733 106518.392 -72343.053 106671.267 -72424.766 106805.265 -72534.735 106915.234 -72668.733 106996.947 -72821.608 107047.267 -72987.493 107064.258 -73160 107047.267 -73332.507 106996.947 -73498.392 106915.234 -73651.267 106805.265 -73785.265 106671.267 -73895.234 106518.392 -73976.947 106352.507 -74027.267 106223.232 -74040 106136.768 -74040 106007.493 -74027.267 105841.608 -73976.947 105688.733 -73895.234 105554.735 -73785.265 105444.766 -73651.267 105363.053 -73498.392 105312.733 -73332.507 105295.742 -73160 105312.733 -72987.493 105363.053 -72821.608 105444.766 -72668.733 105554.735 -72534.735 105688.733 -72424.766 105841.608 -72343.053 106007.493 -72292.733 106136.768 -72280 106223.232 -72280 106352.507 -72292.733 106352.507 -72292.733"/><path d="M 103812.507 -72292.733 103978.392 -72343.053 104131.267 -72424.766 104265.265 -72534.735 104375.234 -72668.733 104456.947 -72821.608 104507.267 -72987.493 104524.258 -73160 104507.267 -73332.507 104456.947 -73498.392 104375.234 -73651.267 104265.265 -73785.265 104131.267 -73895.234 103978.392 -73976.947 103812.507 -74027.267 103683.232 -74040 103596.768 -74040 103467.493 -74027.267 103301.608 -73976.947 103148.733 -73895.234 103014.735 -73785.265 102904.766 -73651.267 102823.053 -73498.392 102772.733 -73332.507 102755.742 -73160 102772.733 -72987.493 102823.053 -72821.608 102904.766 -72668.733 103014.735 -72534.735 103148.733 -72424.766 103301.608 -72343.053 103467.493 -72292.733 103596.768 -72280 103683.232 -72280 103812.507 -72292.733 103812.507 -72292.733"/><path d="M 118430 -70380 117570 -70380 117570 -69420 118430 -69420 118430 -70380 118430 -70380"/><path d="M 117480 -68380 116620 -68380 116620 -67420 117480 -67420 117480 -68380 117480 -68380"/><path d="M 119380 -68380 118520 -68380 118520 -67420 119380 -67420 119380 -68380 119380 -68380"/><path d="M 109801.281 -64068.796 109801.282 -64068.796 109801.285 -64068.797 110079.727 -64184.132 110079.729 -64184.133 110282.275 -64319.47 110330.318 -64351.571 110543.429 -64564.682 110543.431 -64564.685 110681.177 -64770.836 110710.868 -64815.273 110826.203 -65093.715 110826.204 -65093.718 110826.204 -65093.719 110885 -65389.306 110885 -65690.694 110826.204 -65986.281 110826.203 -65986.285 110710.868 -66264.727 110710.867 -66264.729 110660.614 -66339.938 110543.429 -66515.318 110330.318 -66728.429 110330.315 -66728.431 110079.729 -66895.867 110079.728 -66895.868 110079.727 -66895.868 109801.285 -67011.203 109801.282 -67011.204 109801.281 -67011.204 109505.694 -67070 109204.306 -67070 108908.719 -67011.204 108908.718 -67011.204 108908.715 -67011.203 108630.273 -66895.868 108630.272 -66895.868 108630.271 -66895.867 108379.685 -66728.431 108379.682 -66728.429 108166.571 -66515.318 108049.386 -66339.938 107999.133 -66264.729 107999.132 -66264.727 107883.797 -65986.285 107883.796 -65986.281 107825 -65690.694 107825 -65389.306 107883.796 -65093.719 107883.796 -65093.718 107883.797 -65093.715 107999.132 -64815.273 108028.824 -64770.836 108166.569 -64564.685 108166.571 -64564.682 108379.682 -64351.571 108427.725 -64319.47 108630.271 -64184.133 108630.273 -64184.132 108908.715 -64068.797 108908.718 -64068.796 108908.719 -64068.796 109204.306 -64010 109505.694 -64010 109801.281 -64068.796 109801.281 -64068.796"/><path d="M 106137.708 -64272.009 106294.164 -64319.47 106422.966 -64388.316 106438.354 -64396.541 106564.739 -64500.261 106650.332 -64604.558 106668.459 -64626.646 106745.53 -64770.836 106792.991 -64927.292 106805 -65049.224 106805 -66030.776 106792.991 -66152.708 106745.53 -66309.164 106721.91 -66353.354 106668.459 -66453.354 106564.741 -66579.735 106564.739 -66579.736 106564.738 -66579.738 106438.353 -66683.459 106438.351 -66683.46 106438.35 -66683.461 106392.457 -66707.991 106294.163 -66760.53 106137.707 -66807.991 105975 -66824.016 105812.292 -66807.991 105655.836 -66760.53 105511.646 -66683.459 105483.706 -66660.529 105385.265 -66579.741 105385.264 -66579.739 105385.262 -66579.738 105281.541 -66453.353 105204.47 -66309.163 105157.009 -66152.707 105145 -66030.775 105145 -65049.224 105157.01 -64927.292 105204.471 -64770.836 105281.542 -64626.646 105299.669 -64604.558 105385.262 -64500.261 105511.647 -64396.541 105527.035 -64388.316 105655.837 -64319.47 105812.293 -64272.009 105975 -64255.984 106137.708 -64272.009 106137.708 -64272.009"/><path d="M 114427.907 -64271.286 114574.937 -64315.887 114710.442 -64388.316 114829.212 -64485.788 114926.684 -64604.558 114999.113 -64740.063 115043.714 -64887.093 115055 -65001.682 115055 -66078.318 115043.714 -66192.907 114999.113 -66339.937 114926.684 -66475.442 114829.212 -66594.212 114710.441 -66691.684 114574.936 -66764.113 114427.906 -66808.714 114275 -66823.774 114122.093 -66808.714 113975.063 -66764.113 113839.558 -66691.684 113720.788 -66594.212 113623.316 -66475.441 113550.887 -66339.936 113506.286 -66192.906 113495 -66078.317 113495.001 -65001.682 113506.287 -64887.093 113550.888 -64740.063 113623.317 -64604.558 113720.789 -64485.788 113839.559 -64388.316 113975.064 -64315.887 114122.094 -64271.286 114275 -64256.226 114427.907 -64271.286 114427.907 -64271.286"/><path d="M 103037.708 -64372.009 103194.164 -64419.47 103338.354 -64496.541 103464.739 -64600.261 103568.459 -64726.646 103645.53 -64870.836 103692.991 -65027.292 103705 -65149.224 103705 -65930.776 103692.991 -66052.708 103645.53 -66209.164 103575.63 -66339.938 103568.459 -66353.354 103464.741 -66479.735 103464.739 -66479.736 103464.738 -66479.738 103338.353 -66583.459 103338.351 -66583.46 103338.35 -66583.461 103318.236 -66594.212 103194.163 -66660.53 103037.707 -66707.991 102875 -66724.016 102712.292 -66707.991 102555.836 -66660.53 102411.646 -66583.459 102328.616 -66515.318 102285.265 -66479.741 102285.264 -66479.739 102285.262 -66479.738 102181.541 -66353.353 102174.371 -66339.938 102134.17 -66264.727 102104.47 -66209.163 102057.009 -66052.707 102045 -65930.775 102045 -65149.224 102057.009 -65027.292 102104.471 -64870.836 102181.542 -64726.646 102285.262 -64600.261 102411.647 -64496.541 102555.837 -64419.47 102712.293 -64372.009 102875 -64355.984 103037.708 -64372.009 103037.708 -64372.009"/><path d="M 118280.902 -65499.321 118321.442 -65511.618 118358.795 -65531.583 118391.542 -65558.458 118418.417 -65591.205 118438.382 -65628.558 118450.679 -65669.098 118455 -65712.965 118455 -66287.035 118450.679 -66330.902 118438.382 -66371.442 118418.417 -66408.795 118391.542 -66441.542 118358.795 -66468.417 118321.442 -66488.382 118280.902 -66500.679 118237.035 -66505 117737.965 -66505 117694.098 -66500.679 117653.558 -66488.382 117616.205 -66468.417 117583.458 -66441.542 117556.583 -66408.795 117536.618 -66371.442 117524.321 -66330.902 117520 -66287.035 117520 -65712.965 117524.321 -65669.098 117536.618 -65628.558 117556.583 -65591.205 117583.458 -65558.458 117616.205 -65531.583 117653.558 -65511.618 117694.098 -65499.321 117737.965 -65495 118237.035 -65495 118280.902 -65499.321 118280.902 -65499.321"/><path d="M 116705.902 -65499.321 116746.442 -65511.618 116783.795 -65531.583 116816.542 -65558.458 116843.417 -65591.205 116863.382 -65628.558 116875.679 -65669.098 116880 -65712.965 116880 -66287.035 116875.679 -66330.902 116863.382 -66371.442 116843.417 -66408.795 116816.542 -66441.542 116783.795 -66468.417 116746.442 -66488.382 116705.902 -66500.679 116662.035 -66505 116162.965 -66505 116119.098 -66500.679 116078.558 -66488.382 116041.205 -66468.417 116008.458 -66441.542 115981.583 -66408.795 115961.618 -66371.442 115949.321 -66330.902 115945 -66287.035 115945 -65712.965 115949.321 -65669.098 115961.618 -65628.558 115981.583 -65591.205 116008.458 -65558.458 116041.205 -65531.583 116078.558 -65511.618 116119.098 -65499.321 116162.965 -65495 116662.035 -65495 116705.902 -65499.321 116705.902 -65499.321"/><path d="M 116830 -64280 116170 -64280 116170 -63520 116830 -63520 116830 -64280 116830 -64280"/><path d="M 118230 -64280 117570 -64280 117570 -63520 118230 -63520 118230 -64280 118230 -64280"/><path d="M 116705.902 -61499.321 116746.442 -61511.618 116783.795 -61531.583 116816.542 -61558.458 116843.417 -61591.205 116863.382 -61628.558 116875.679 -61669.098 116880 -61712.965 116880 -62287.035 116875.679 -62330.902 116863.382 -62371.442 116843.417 -62408.795 116816.542 -62441.542 116783.795 -62468.417 116746.442 -62488.382 116705.902 -62500.679 116662.035 -62505 116162.965 -62505 116119.098 -62500.679 116078.558 -62488.382 116041.205 -62468.417 116008.458 -62441.542 115981.583 -62408.795 115961.618 -62371.442 115949.321 -62330.902 115945 -62287.035 115945 -61712.965 115949.321 -61669.098 115961.618 -61628.558 115981.583 -61591.205 116008.458 -61558.458 116041.205 -61531.583 116078.558 -61511.618 116119.098 -61499.321 116162.965 -61495 116662.035 -61495 116705.902 -61499.321 116705.902 -61499.321"/><path d="M 118280.902 -61499.321 118321.442 -61511.618 118358.795 -61531.583 118391.542 -61558.458 118418.417 -61591.205 118438.382 -61628.558 118450.679 -61669.098 118455 -61712.965 118455 -62287.035 118450.679 -62330.902 118438.382 -62371.442 118418.417 -62408.795 118391.542 -62441.542 118358.795 -62468.417 118321.442 -62488.382 118280.902 -62500.679 118237.035 -62505 117737.965 -62505 117694.098 -62500.679 117653.558 -62488.382 117616.205 -62468.417 117583.458 -62441.542 117556.583 -62408.795 117536.618 -62371.442 117524.321 -62330.902 117520 -62287.035 117520 -61712.965 117524.321 -61669.098 117536.618 -61628.558 117556.583 -61591.205 117583.458 -61558.458 117616.205 -61531.583 117653.558 -61511.618 117694.098 -61499.321 117737.965 -61495 118237.035 -61495 118280.902 -61499.321 118280.902 -61499.321"/><path d="M 119330.902 -59724.321 119371.442 -59736.618 119408.795 -59756.583 119441.542 -59783.458 119468.417 -59816.205 119488.382 -59853.558 119500.679 -59894.098 119505 -59937.965 119505 -60437.035 119500.679 -60480.902 119488.382 -60521.442 119468.417 -60558.795 119441.542 -60591.542 119408.795 -60618.417 119371.442 -60638.382 119330.902 -60650.679 119287.035 -60655 118712.965 -60655 118669.098 -60650.679 118628.558 -60638.382 118591.205 -60618.417 118558.458 -60591.542 118531.583 -60558.795 118511.618 -60521.442 118499.321 -60480.902 118495 -60437.035 118495 -59937.965 118499.321 -59894.098 118511.618 -59853.558 118531.583 -59816.205 118558.458 -59783.458 118591.205 -59756.583 118628.558 -59736.618 118669.098 -59724.321 118712.965 -59720 119287.035 -59720 119330.902 -59724.321 119330.902 -59724.321"/><path d="M 119330.902 -58149.321 119371.442 -58161.618 119408.795 -58181.583 119441.542 -58208.458 119468.417 -58241.205 119488.382 -58278.558 119500.679 -58319.098 119505 -58362.965 119505 -58862.035 119500.679 -58905.902 119488.382 -58946.442 119468.417 -58983.795 119441.542 -59016.542 119408.795 -59043.417 119371.442 -59063.382 119330.902 -59075.679 119287.035 -59080 118712.965 -59080 118669.098 -59075.679 118628.558 -59063.382 118591.205 -59043.417 118558.458 -59016.542 118531.583 -58983.795 118511.618 -58946.442 118499.321 -58905.902 118495 -58862.035 118495 -58362.965 118499.321 -58319.098 118511.618 -58278.558 118531.583 -58241.205 118558.458 -58208.458 118591.205 -58181.583 118628.558 -58161.618 118669.098 -58149.321 118712.965 -58145 119287.035 -58145 119330.902 -58149.321 119330.902 -58149.321"/><path d="M 106352.507 -57052.733 106518.392 -57103.053 106671.267 -57184.766 106805.265 -57294.735 106915.234 -57428.733 106996.947 -57581.608 107047.267 -57747.493 107064.258 -57920 107047.267 -58092.507 106996.947 -58258.392 106915.234 -58411.267 106805.265 -58545.265 106671.267 -58655.234 106518.392 -58736.947 106352.507 -58787.267 106223.232 -58800 106136.768 -58800 106007.493 -58787.267 105841.608 -58736.947 105688.733 -58655.234 105554.735 -58545.265 105444.766 -58411.267 105363.053 -58258.392 105312.733 -58092.507 105295.742 -57920 105312.733 -57747.493 105363.053 -57581.608 105444.766 -57428.733 105554.735 -57294.735 105688.733 -57184.766 105841.608 -57103.053 106007.493 -57052.733 106136.768 -57040 106223.232 -57040 106352.507 -57052.733 106352.507 -57052.733"/><path d="M 103812.507 -57052.733 103978.392 -57103.053 104131.267 -57184.766 104265.265 -57294.735 104375.234 -57428.733 104456.947 -57581.608 104507.267 -57747.493 104524.258 -57920 104507.267 -58092.507 104456.947 -58258.392 104375.234 -58411.267 104265.265 -58545.265 104131.267 -58655.234 103978.392 -58736.947 103812.507 -58787.267 103683.232 -58800 103596.768 -58800 103467.493 -58787.267 103301.608 -58736.947 103148.733 -58655.234 103014.735 -58545.265 102904.766 -58411.267 102823.053 -58258.392 102772.733 -58092.507 102755.742 -57920 102772.733 -57747.493 102823.053 -57581.608 102904.766 -57428.733 103014.735 -57294.735 103148.733 -57184.766 103301.608 -57103.053 103467.493 -57052.733 103596.768 -57040 103683.232 -57040 103812.507 -57052.733 103812.507 -57052.733"/><path d="M 111432.507 -57052.733 111598.392 -57103.053 111751.267 -57184.766 111885.265 -57294.735 111995.234 -57428.733 112076.947 -57581.608 112127.267 -57747.493 112144.258 -57920 112127.267 -58092.507 112076.947 -58258.392 111995.234 -58411.267 111885.265 -58545.265 111751.267 -58655.234 111598.392 -58736.947 111432.507 -58787.267 111303.232 -58800 111216.768 -58800 111087.493 -58787.267 110921.608 -58736.947 110768.733 -58655.234 110634.735 -58545.265 110524.766 -58411.267 110443.053 -58258.392 110392.733 -58092.507 110375.742 -57920 110392.733 -57747.493 110443.053 -57581.608 110524.766 -57428.733 110634.735 -57294.735 110768.733 -57184.766 110921.608 -57103.053 111087.493 -57052.733 111216.768 -57040 111303.232 -57040 111432.507 -57052.733 111432.507 -57052.733"/><path d="M 113972.507 -57052.733 114138.392 -57103.053 114291.267 -57184.766 114425.265 -57294.735 114535.234 -57428.733 114616.947 -57581.608 114667.267 -57747.493 114684.258 -57920 114667.267 -58092.507 114616.947 -58258.392 114535.234 -58411.267 114425.265 -58545.265 114291.267 -58655.234 114138.392 -58736.947 113972.507 -58787.267 113843.232 -58800 113756.768 -58800 113627.493 -58787.267 113461.608 -58736.947 113308.733 -58655.234 113174.735 -58545.265 113064.766 -58411.267 112983.053 -58258.392 112932.733 -58092.507 112915.742 -57920 112932.733 -57747.493 112983.053 -57581.608 113064.766 -57428.733 113174.735 -57294.735 113308.733 -57184.766 113461.608 -57103.053 113627.493 -57052.733 113756.768 -57040 113843.232 -57040 113972.507 -57052.733 113972.507 -57052.733"/><path d="M 116512.507 -57052.733 116678.392 -57103.053 116831.267 -57184.766 116965.265 -57294.735 117075.234 -57428.733 117156.947 -57581.608 117207.267 -57747.493 117224.258 -57920 117207.267 -58092.507 117156.947 -58258.392 117075.234 -58411.267 116965.265 -58545.265 116831.267 -58655.234 116678.392 -58736.947 116512.507 -58787.267 116383.232 -58800 116296.768 -58800 116167.493 -58787.267 116001.608 -58736.947 115848.733 -58655.234 115714.735 -58545.265 115604.766 -58411.267 115523.053 -58258.392 115472.733 -58092.507 115455.742 -57920 115472.733 -57747.493 115523.053 -57581.608 115604.766 -57428.733 115714.735 -57294.735 115848.733 -57184.766 116001.608 -57103.053 116167.493 -57052.733 116296.768 -57040 116383.232 -57040 116512.507 -57052.733 116512.507 -57052.733"/><path d="M 108892.507 -57052.733 109058.392 -57103.053 109211.267 -57184.766 109345.265 -57294.735 109455.234 -57428.733 109536.947 -57581.608 109587.267 -57747.493 109604.258 -57920 109587.267 -58092.507 109536.947 -58258.392 109455.234 -58411.267 109345.265 -58545.265 109211.267 -58655.234 109058.392 -58736.947 108892.507 -58787.267 108763.232 -58800 108676.768 -58800 108547.493 -58787.267 108381.608 -58736.947 108228.733 -58655.234 108094.735 -58545.265 107984.766 -58411.267 107903.053 -58258.392 107852.733 -58092.507 107835.742 -57920 107852.733 -57747.493 107903.053 -57581.608 107984.766 -57428.733 108094.735 -57294.735 108228.733 -57184.766 108381.608 -57103.053 108547.493 -57052.733 108676.768 -57040 108763.232 -57040 108892.507 -57052.733 108892.507 -57052.733"/></g><g id="epvAXAkRko0dFbc6bUx3_top_solderpaste"><path d="M 118227.691 -61526.053 118248.926 -61529.203 118269.75 -61534.419 118289.962 -61541.651 118309.368 -61550.83 118327.781 -61561.866 118345.024 -61574.654 118360.93 -61589.07 118375.346 -61604.976 118388.134 -61622.219 118399.17 -61640.632 118408.349 -61660.038 118415.581 -61680.25 118420.797 -61701.074 118423.947 -61722.309 118425 -61743.75 118425 -62256.25 118423.947 -62277.691 118420.797 -62298.926 118415.581 -62319.75 118408.349 -62339.962 118399.17 -62359.368 118388.134 -62377.781 118375.346 -62395.024 118360.93 -62410.93 118345.024 -62425.346 118327.781 -62438.134 118309.368 -62449.17 118289.962 -62458.349 118269.75 -62465.581 118248.926 -62470.797 118227.691 -62473.947 118206.25 -62475 117768.75 -62475 117747.309 -62473.947 117726.074 -62470.797 117705.25 -62465.581 117685.038 -62458.349 117665.632 -62449.17 117647.219 -62438.134 117629.976 -62425.346 117614.07 -62410.93 117599.654 -62395.024 117586.866 -62377.781 117575.83 -62359.368 117566.651 -62339.962 117559.419 -62319.75 117554.203 -62298.926 117551.053 -62277.691 117550 -62256.25 117550 -61743.75 117551.053 -61722.309 117554.203 -61701.074 117559.419 -61680.25 117566.651 -61660.038 117575.83 -61640.632 117586.866 -61622.219 117599.654 -61604.976 117614.07 -61589.07 117629.976 -61574.654 117647.219 -61561.866 117665.632 -61550.83 117685.038 -61541.651 117705.25 -61534.419 117726.074 -61529.203 117747.309 -61526.053 117768.75 -61525 118206.25 -61525 118227.691 -61526.053 118227.691 -61526.053"/><use xlink:href="#e7TjUuWse4jiyiek0ev9_pad-11" x="117987.5" y="-62000"/><path d="M 116652.691 -61526.053 116673.926 -61529.203 116694.75 -61534.419 116714.962 -61541.651 116734.368 -61550.83 116752.781 -61561.866 116770.024 -61574.654 116785.93 -61589.07 116800.346 -61604.976 116813.134 -61622.219 116824.17 -61640.632 116833.349 -61660.038 116840.581 -61680.25 116845.797 -61701.074 116848.947 -61722.309 116850 -61743.75 116850 -62256.25 116848.947 -62277.691 116845.797 -62298.926 116840.581 -62319.75 116833.349 -62339.962 116824.17 -62359.368 116813.134 -62377.781 116800.346 -62395.024 116785.93 -62410.93 116770.024 -62425.346 116752.781 -62438.134 116734.368 -62449.17 116714.962 -62458.349 116694.75 -62465.581 116673.926 -62470.797 116652.691 -62473.947 116631.25 -62475 116193.75 -62475 116172.309 -62473.947 116151.074 -62470.797 116130.25 -62465.581 116110.038 -62458.349 116090.632 -62449.17 116072.219 -62438.134 116054.976 -62425.346 116039.07 -62410.93 116024.654 -62395.024 116011.866 -62377.781 116000.83 -62359.368 115991.651 -62339.962 115984.419 -62319.75 115979.203 -62298.926 115976.053 -62277.691 115975 -62256.25 115975 -61743.75 115976.053 -61722.309 115979.203 -61701.074 115984.419 -61680.25 115991.651 -61660.038 116000.83 -61640.632 116011.866 -61622.219 116024.654 -61604.976 116039.07 -61589.07 116054.976 -61574.654 116072.219 -61561.866 116090.632 -61550.83 116110.038 -61541.651 116130.25 -61534.419 116151.074 -61529.203 116172.309 -61526.053 116193.75 -61525 116631.25 -61525 116652.691 -61526.053 116652.691 -61526.053"/><use xlink:href="#e7TjUuWse4jiyiek0ev9_pad-11" x="116412.5" y="-62000"/><path d="M 118227.691 -65526.053 118248.926 -65529.203 118269.75 -65534.419 118289.962 -65541.651 118309.368 -65550.83 118327.781 -65561.866 118345.024 -65574.654 118360.93 -65589.07 118375.346 -65604.976 118388.134 -65622.219 118399.17 -65640.632 118408.349 -65660.038 118415.581 -65680.25 118420.797 -65701.074 118423.947 -65722.309 118425 -65743.75 118425 -66256.25 118423.947 -66277.691 118420.797 -66298.926 118415.581 -66319.75 118408.349 -66339.962 118399.17 -66359.368 118388.134 -66377.781 118375.346 -66395.024 118360.93 -66410.93 118345.024 -66425.346 118327.781 -66438.134 118309.368 -66449.17 118289.962 -66458.349 118269.75 -66465.581 118248.926 -66470.797 118227.691 -66473.947 118206.25 -66475 117768.75 -66475 117747.309 -66473.947 117726.074 -66470.797 117705.25 -66465.581 117685.038 -66458.349 117665.632 -66449.17 117647.219 -66438.134 117629.976 -66425.346 117614.07 -66410.93 117599.654 -66395.024 117586.866 -66377.781 117575.83 -66359.368 117566.651 -66339.962 117559.419 -66319.75 117554.203 -66298.926 117551.053 -66277.691 117550 -66256.25 117550 -65743.75 117551.053 -65722.309 117554.203 -65701.074 117559.419 -65680.25 117566.651 -65660.038 117575.83 -65640.632 117586.866 -65622.219 117599.654 -65604.976 117614.07 -65589.07 117629.976 -65574.654 117647.219 -65561.866 117665.632 -65550.83 117685.038 -65541.651 117705.25 -65534.419 117726.074 -65529.203 117747.309 -65526.053 117768.75 -65525 118206.25 -65525 118227.691 -65526.053 118227.691 -65526.053"/><use xlink:href="#e7TjUuWse4jiyiek0ev9_pad-11" x="117987.5" y="-66000"/><path d="M 116652.691 -65526.053 116673.926 -65529.203 116694.75 -65534.419 116714.962 -65541.651 116734.368 -65550.83 116752.781 -65561.866 116770.024 -65574.654 116785.93 -65589.07 116800.346 -65604.976 116813.134 -65622.219 116824.17 -65640.632 116833.349 -65660.038 116840.581 -65680.25 116845.797 -65701.074 116848.947 -65722.309 116850 -65743.75 116850 -66256.25 116848.947 -66277.691 116845.797 -66298.926 116840.581 -66319.75 116833.349 -66339.962 116824.17 -66359.368 116813.134 -66377.781 116800.346 -66395.024 116785.93 -66410.93 116770.024 -66425.346 116752.781 -66438.134 116734.368 -66449.17 116714.962 -66458.349 116694.75 -66465.581 116673.926 -66470.797 116652.691 -66473.947 116631.25 -66475 116193.75 -66475 116172.309 -66473.947 116151.074 -66470.797 116130.25 -66465.581 116110.038 -66458.349 116090.632 -66449.17 116072.219 -66438.134 116054.976 -66425.346 116039.07 -66410.93 116024.654 -66395.024 116011.866 -66377.781 116000.83 -66359.368 115991.651 -66339.962 115984.419 -66319.75 115979.203 -66298.926 115976.053 -66277.691 115975 -66256.25 115975 -65743.75 115976.053 -65722.309 115979.203 -65701.074 115984.419 -65680.25 115991.651 -65660.038 116000.83 -65640.632 116011.866 -65622.219 116024.654 -65604.976 116039.07 -65589.07 116054.976 -65574.654 116072.219 -65561.866 116090.632 -65550.83 116110.038 -65541.651 116130.25 -65534.419 116151.074 -65529.203 116172.309 -65526.053 116193.75 -65525 116631.25 -65525 116652.691 -65526.053 116652.691 -65526.053"/><use xlink:href="#e7TjUuWse4jiyiek0ev9_pad-11" x="116412.5" y="-66000"/><path d="M 119277.691 -58176.053 119298.926 -58179.203 119319.75 -58184.419 119339.962 -58191.651 119359.368 -58200.83 119377.781 -58211.866 119395.024 -58224.654 119410.93 -58239.07 119425.346 -58254.976 119438.134 -58272.219 119449.17 -58290.632 119458.349 -58310.038 119465.581 -58330.25 119470.797 -58351.074 119473.947 -58372.309 119475 -58393.75 119475 -58831.25 119473.947 -58852.691 119470.797 -58873.926 119465.581 -58894.75 119458.349 -58914.962 119449.17 -58934.368 119438.134 -58952.781 119425.346 -58970.024 119410.93 -58985.93 119395.024 -59000.346 119377.781 -59013.134 119359.368 -59024.17 119339.962 -59033.349 119319.75 -59040.581 119298.926 -59045.797 119277.691 -59048.947 119256.25 -59050 118743.75 -59050 118722.309 -59048.947 118701.074 -59045.797 118680.25 -59040.581 118660.038 -59033.349 118640.632 -59024.17 118622.219 -59013.134 118604.976 -59000.346 118589.07 -58985.93 118574.654 -58970.024 118561.866 -58952.781 118550.83 -58934.368 118541.651 -58914.962 118534.419 -58894.75 118529.203 -58873.926 118526.053 -58852.691 118525 -58831.25 118525 -58393.75 118526.053 -58372.309 118529.203 -58351.074 118534.419 -58330.25 118541.651 -58310.038 118550.83 -58290.632 118561.866 -58272.219 118574.654 -58254.976 118589.07 -58239.07 118604.976 -58224.654 118622.219 -58211.866 118640.632 -58200.83 118660.038 -58191.651 118680.25 -58184.419 118701.074 -58179.203 118722.309 -58176.053 118743.75 -58175 119256.25 -58175 119277.691 -58176.053 119277.691 -58176.053"/><use xlink:href="#e7TjUuWse4jiyiek0ev9_pad-11" x="119000" y="-58612.5"/><path d="M 119277.691 -59751.053 119298.926 -59754.203 119319.75 -59759.419 119339.962 -59766.651 119359.368 -59775.83 119377.781 -59786.866 119395.024 -59799.654 119410.93 -59814.07 119425.346 -59829.976 119438.134 -59847.219 119449.17 -59865.632 119458.349 -59885.038 119465.581 -59905.25 119470.797 -59926.074 119473.947 -59947.309 119475 -59968.75 119475 -60406.25 119473.947 -60427.691 119470.797 -60448.926 119465.581 -60469.75 119458.349 -60489.962 119449.17 -60509.368 119438.134 -60527.781 119425.346 -60545.024 119410.93 -60560.93 119395.024 -60575.346 119377.781 -60588.134 119359.368 -60599.17 119339.962 -60608.349 119319.75 -60615.581 119298.926 -60620.797 119277.691 -60623.947 119256.25 -60625 118743.75 -60625 118722.309 -60623.947 118701.074 -60620.797 118680.25 -60615.581 118660.038 -60608.349 118640.632 -60599.17 118622.219 -60588.134 118604.976 -60575.346 118589.07 -60560.93 118574.654 -60545.024 118561.866 -60527.781 118550.83 -60509.368 118541.651 -60489.962 118534.419 -60469.75 118529.203 -60448.926 118526.053 -60427.691 118525 -60406.25 118525 -59968.75 118526.053 -59947.309 118529.203 -59926.074 118534.419 -59905.25 118541.651 -59885.038 118550.83 -59865.632 118561.866 -59847.219 118574.654 -59829.976 118589.07 -59814.07 118604.976 -59799.654 118622.219 -59786.866 118640.632 -59775.83 118660.038 -59766.651 118680.25 -59759.419 118701.074 -59754.203 118722.309 -59751.053 118743.75 -59750 119256.25 -59750 119277.691 -59751.053 119277.691 -59751.053"/><use xlink:href="#e7TjUuWse4jiyiek0ev9_pad-11" x="119000" y="-60187.5"/><use xlink:href="#e7TjUuWse4jiyiek0ev9_pad-12" x="116500" y="-63900"/><use xlink:href="#e7TjUuWse4jiyiek0ev9_pad-12" x="117900" y="-63900"/><use xlink:href="#e7TjUuWse4jiyiek0ev9_pad-13" x="118950" y="-67900"/><use xlink:href="#e7TjUuWse4jiyiek0ev9_pad-13" x="117050" y="-67900"/><use xlink:href="#e7TjUuWse4jiyiek0ev9_pad-13" x="118000" y="-69900"/></g><g id="epvAXAkRko0dFbc6bUx3_top_copper"><use xlink:href="#sjW2AXDEbjYi8LLm-OKB_pad-10" x="116340" y="-73160"/><use xlink:href="#sjW2AXDEbjYi8LLm-OKB_pad-10" x="113800" y="-73160"/><use xlink:href="#sjW2AXDEbjYi8LLm-OKB_pad-10" x="111260" y="-73160"/><use xlink:href="#sjW2AXDEbjYi8LLm-OKB_pad-10" x="108720" y="-73160"/><use xlink:href="#sjW2AXDEbjYi8LLm-OKB_pad-10" x="106180" y="-73160"/><use xlink:href="#sjW2AXDEbjYi8LLm-OKB_pad-10" x="103640" y="-73160"/><use xlink:href="#sjW2AXDEbjYi8LLm-OKB_pad-10" x="116340" y="-57920"/><use xlink:href="#sjW2AXDEbjYi8LLm-OKB_pad-10" x="113800" y="-57920"/><use xlink:href="#sjW2AXDEbjYi8LLm-OKB_pad-10" x="111260" y="-57920"/><use xlink:href="#sjW2AXDEbjYi8LLm-OKB_pad-10" x="108720" y="-57920"/><use xlink:href="#sjW2AXDEbjYi8LLm-OKB_pad-10" x="106180" y="-57920"/><use xlink:href="#sjW2AXDEbjYi8LLm-OKB_pad-10" x="103640" y="-57920"/><use xlink:href="#sjW2AXDEbjYi8LLm-OKB_pad-11" x="102875" y="-65540"/><use xlink:href="#sjW2AXDEbjYi8LLm-OKB_pad-12" x="105975" y="-65540"/><use xlink:href="#sjW2AXDEbjYi8LLm-OKB_pad-13" x="114275" y="-65540"/><path d="M 118227.691 -61526.053 118248.926 -61529.203 118269.75 -61534.419 118289.962 -61541.651 118309.368 -61550.83 118327.781 -61561.866 118345.024 -61574.654 118360.93 -61589.07 118375.346 -61604.976 118388.134 -61622.219 118399.17 -61640.632 118408.349 -61660.038 118415.581 -61680.25 118420.797 -61701.074 118423.947 -61722.309 118425 -61743.75 118425 -62256.25 118423.947 -62277.691 118420.797 -62298.926 118415.581 -62319.75 118408.349 -62339.962 118399.17 -62359.368 118388.134 -62377.781 118375.346 -62395.024 118360.93 -62410.93 118345.024 -62425.346 118327.781 -62438.134 118309.368 -62449.17 118289.962 -62458.349 118269.75 -62465.581 118248.926 -62470.797 118227.691 -62473.947 118206.25 -62475 117768.75 -62475 117747.309 -62473.947 117726.074 -62470.797 117705.25 -62465.581 117685.038 -62458.349 117665.632 -62449.17 117647.219 -62438.134 117629.976 -62425.346 117614.07 -62410.93 117599.654 -62395.024 117586.866 -62377.781 117575.83 -62359.368 117566.651 -62339.962 117559.419 -62319.75 117554.203 -62298.926 117551.053 -62277.691 117550 -62256.25 117550 -61743.75 117551.053 -61722.309 117554.203 -61701.074 117559.419 -61680.25 117566.651 -61660.038 117575.83 -61640.632 117586.866 -61622.219 117599.654 -61604.976 117614.07 -61589.07 117629.976 -61574.654 117647.219 -61561.866 117665.632 -61550.83 117685.038 -61541.651 117705.25 -61534.419 117726.074 -61529.203 117747.309 -61526.053 117768.75 -61525 118206.25 -61525 118227.691 -61526.053 118227.691 -61526.053"/><use xlink:href="#sjW2AXDEbjYi8LLm-OKB_pad-15" x="117987.5" y="-62000"/><path d="M 116652.691 -61526.053 116673.926 -61529.203 116694.75 -61534.419 116714.962 -61541.651 116734.368 -61550.83 116752.781 -61561.866 116770.024 -61574.654 116785.93 -61589.07 116800.346 -61604.976 116813.134 -61622.219 116824.17 -61640.632 116833.349 -61660.038 116840.581 -61680.25 116845.797 -61701.074 116848.947 -61722.309 116850 -61743.75 116850 -62256.25 116848.947 -62277.691 116845.797 -62298.926 116840.581 -62319.75 116833.349 -62339.962 116824.17 -62359.368 116813.134 -62377.781 116800.346 -62395.024 116785.93 -62410.93 116770.024 -62425.346 116752.781 -62438.134 116734.368 -62449.17 116714.962 -62458.349 116694.75 -62465.581 116673.926 -62470.797 116652.691 -62473.947 116631.25 -62475 116193.75 -62475 116172.309 -62473.947 116151.074 -62470.797 116130.25 -62465.581 116110.038 -62458.349 116090.632 -62449.17 116072.219 -62438.134 116054.976 -62425.346 116039.07 -62410.93 116024.654 -62395.024 116011.866 -62377.781 116000.83 -62359.368 115991.651 -62339.962 115984.419 -62319.75 115979.203 -62298.926 115976.053 -62277.691 115975 -62256.25 115975 -61743.75 115976.053 -61722.309 115979.203 -61701.074 115984.419 -61680.25 115991.651 -61660.038 116000.83 -61640.632 116011.866 -61622.219 116024.654 -61604.976 116039.07 -61589.07 116054.976 -61574.654 116072.219 -61561.866 116090.632 -61550.83 116110.038 -61541.651 116130.25 -61534.419 116151.074 -61529.203 116172.309 -61526.053 116193.75 -61525 116631.25 -61525 116652.691 -61526.053 116652.691 -61526.053"/><use xlink:href="#sjW2AXDEbjYi8LLm-OKB_pad-15" x="116412.5" y="-62000"/><path d="M 118227.691 -65526.053 118248.926 -65529.203 118269.75 -65534.419 118289.962 -65541.651 118309.368 -65550.83 118327.781 -65561.866 118345.024 -65574.654 118360.93 -65589.07 118375.346 -65604.976 118388.134 -65622.219 118399.17 -65640.632 118408.349 -65660.038 118415.581 -65680.25 118420.797 -65701.074 118423.947 -65722.309 118425 -65743.75 118425 -66256.25 118423.947 -66277.691 118420.797 -66298.926 118415.581 -66319.75 118408.349 -66339.962 118399.17 -66359.368 118388.134 -66377.781 118375.346 -66395.024 118360.93 -66410.93 118345.024 -66425.346 118327.781 -66438.134 118309.368 -66449.17 118289.962 -66458.349 118269.75 -66465.581 118248.926 -66470.797 118227.691 -66473.947 118206.25 -66475 117768.75 -66475 117747.309 -66473.947 117726.074 -66470.797 117705.25 -66465.581 117685.038 -66458.349 117665.632 -66449.17 117647.219 -66438.134 117629.976 -66425.346 117614.07 -66410.93 117599.654 -66395.024 117586.866 -66377.781 117575.83 -66359.368 117566.651 -66339.962 117559.419 -66319.75 117554.203 -66298.926 117551.053 -66277.691 117550 -66256.25 117550 -65743.75 117551.053 -65722.309 117554.203 -65701.074 117559.419 -65680.25 117566.651 -65660.038 117575.83 -65640.632 117586.866 -65622.219 117599.654 -65604.976 117614.07 -65589.07 117629.976 -65574.654 117647.219 -65561.866 117665.632 -65550.83 117685.038 -65541.651 117705.25 -65534.419 117726.074 -65529.203 117747.309 -65526.053 117768.75 -65525 118206.25 -65525 118227.691 -65526.053 118227.691 -65526.053"/><use xlink:href="#sjW2AXDEbjYi8LLm-OKB_pad-15" x="117987.5" y="-66000"/><path d="M 116652.691 -65526.053 116673.926 -65529.203 116694.75 -65534.419 116714.962 -65541.651 116734.368 -65550.83 116752.781 -65561.866 116770.024 -65574.654 116785.93 -65589.07 116800.346 -65604.976 116813.134 -65622.219 116824.17 -65640.632 116833.349 -65660.038 116840.581 -65680.25 116845.797 -65701.074 116848.947 -65722.309 116850 -65743.75 116850 -66256.25 116848.947 -66277.691 116845.797 -66298.926 116840.581 -66319.75 116833.349 -66339.962 116824.17 -66359.368 116813.134 -66377.781 116800.346 -66395.024 116785.93 -66410.93 116770.024 -66425.346 116752.781 -66438.134 116734.368 -66449.17 116714.962 -66458.349 116694.75 -66465.581 116673.926 -66470.797 116652.691 -66473.947 116631.25 -66475 116193.75 -66475 116172.309 -66473.947 116151.074 -66470.797 116130.25 -66465.581 116110.038 -66458.349 116090.632 -66449.17 116072.219 -66438.134 116054.976 -66425.346 116039.07 -66410.93 116024.654 -66395.024 116011.866 -66377.781 116000.83 -66359.368 115991.651 -66339.962 115984.419 -66319.75 115979.203 -66298.926 115976.053 -66277.691 115975 -66256.25 115975 -65743.75 115976.053 -65722.309 115979.203 -65701.074 115984.419 -65680.25 115991.651 -65660.038 116000.83 -65640.632 116011.866 -65622.219 116024.654 -65604.976 116039.07 -65589.07 116054.976 -65574.654 116072.219 -65561.866 116090.632 -65550.83 116110.038 -65541.651 116130.25 -65534.419 116151.074 -65529.203 116172.309 -65526.053 116193.75 -65525 116631.25 -65525 116652.691 -65526.053 116652.691 -65526.053"/><use xlink:href="#sjW2AXDEbjYi8LLm-OKB_pad-15" x="116412.5" y="-66000"/><path d="M 119277.691 -58176.053 119298.926 -58179.203 119319.75 -58184.419 119339.962 -58191.651 119359.368 -58200.83 119377.781 -58211.866 119395.024 -58224.654 119410.93 -58239.07 119425.346 -58254.976 119438.134 -58272.219 119449.17 -58290.632 119458.349 -58310.038 119465.581 -58330.25 119470.797 -58351.074 119473.947 -58372.309 119475 -58393.75 119475 -58831.25 119473.947 -58852.691 119470.797 -58873.926 119465.581 -58894.75 119458.349 -58914.962 119449.17 -58934.368 119438.134 -58952.781 119425.346 -58970.024 119410.93 -58985.93 119395.024 -59000.346 119377.781 -59013.134 119359.368 -59024.17 119339.962 -59033.349 119319.75 -59040.581 119298.926 -59045.797 119277.691 -59048.947 119256.25 -59050 118743.75 -59050 118722.309 -59048.947 118701.074 -59045.797 118680.25 -59040.581 118660.038 -59033.349 118640.632 -59024.17 118622.219 -59013.134 118604.976 -59000.346 118589.07 -58985.93 118574.654 -58970.024 118561.866 -58952.781 118550.83 -58934.368 118541.651 -58914.962 118534.419 -58894.75 118529.203 -58873.926 118526.053 -58852.691 118525 -58831.25 118525 -58393.75 118526.053 -58372.309 118529.203 -58351.074 118534.419 -58330.25 118541.651 -58310.038 118550.83 -58290.632 118561.866 -58272.219 118574.654 -58254.976 118589.07 -58239.07 118604.976 -58224.654 118622.219 -58211.866 118640.632 -58200.83 118660.038 -58191.651 118680.25 -58184.419 118701.074 -58179.203 118722.309 -58176.053 118743.75 -58175 119256.25 -58175 119277.691 -58176.053 119277.691 -58176.053"/><use xlink:href="#sjW2AXDEbjYi8LLm-OKB_pad-15" x="119000" y="-58612.5"/><path d="M 119277.691 -59751.053 119298.926 -59754.203 119319.75 -59759.419 119339.962 -59766.651 119359.368 -59775.83 119377.781 -59786.866 119395.024 -59799.654 119410.93 -59814.07 119425.346 -59829.976 119438.134 -59847.219 119449.17 -59865.632 119458.349 -59885.038 119465.581 -59905.25 119470.797 -59926.074 119473.947 -59947.309 119475 -59968.75 119475 -60406.25 119473.947 -60427.691 119470.797 -60448.926 119465.581 -60469.75 119458.349 -60489.962 119449.17 -60509.368 119438.134 -60527.781 119425.346 -60545.024 119410.93 -60560.93 119395.024 -60575.346 119377.781 -60588.134 119359.368 -60599.17 119339.962 -60608.349 119319.75 -60615.581 119298.926 -60620.797 119277.691 -60623.947 119256.25 -60625 118743.75 -60625 118722.309 -60623.947 118701.074 -60620.797 118680.25 -60615.581 118660.038 -60608.349 118640.632 -60599.17 118622.219 -60588.134 118604.976 -60575.346 118589.07 -60560.93 118574.654 -60545.024 118561.866 -60527.781 118550.83 -60509.368 118541.651 -60489.962 118534.419 -60469.75 118529.203 -60448.926 118526.053 -60427.691 118525 -60406.25 118525 -59968.75 118526.053 -59947.309 118529.203 -59926.074 118534.419 -59905.25 118541.651 -59885.038 118550.83 -59865.632 118561.866 -59847.219 118574.654 -59829.976 118589.07 -59814.07 118604.976 -59799.654 118622.219 -59786.866 118640.632 -59775.83 118660.038 -59766.651 118680.25 -59759.419 118701.074 -59754.203 118722.309 -59751.053 118743.75 -59750 119256.25 -59750 119277.691 -59751.053 119277.691 -59751.053"/><use xlink:href="#sjW2AXDEbjYi8LLm-OKB_pad-15" x="119000" y="-60187.5"/><use xlink:href="#sjW2AXDEbjYi8LLm-OKB_pad-16" x="116500" y="-63900"/><use xlink:href="#sjW2AXDEbjYi8LLm-OKB_pad-16" x="117900" y="-63900"/><use xlink:href="#sjW2AXDEbjYi8LLm-OKB_pad-17" x="118950" y="-67900"/><use xlink:href="#sjW2AXDEbjYi8LLm-OKB_pad-17" x="117050" y="-67900"/><use xlink:href="#sjW2AXDEbjYi8LLm-OKB_pad-17" x="118000" y="-69900"/><path d="M 116512.34 -66099.84 116412.5 -66000 M 116512.34 -66768.98 116512.34 -66099.84 M 117050 -67306.64 116512.34 -66768.98 M 117050 -67900 117050 -67306.64 M 116497.1 -63902.9 116500 -63900 M 116497.1 -65915.4 116497.1 -63902.9 M 116412.5 -66000 116497.1 -65915.4 M 116412.5 -66000 116412.5 -66650.38" fill="none" stroke-width="635"/><path d="M 117987.5 -63812.5 117900 -63900 M 117987.5 -62000 117987.5 -63812.5 M 117900 -65912.5 117987.5 -66000 M 117900 -63900 117900 -65912.5 M 118950 -66962.5 117987.5 -66000 M 118950 -67900 118950 -66962.5 M 111260 -71382 111260 -73160 M 105975 -66097 111260 -71382 M 105975 -65540 105975 -66097 M 117032.5 -58612.5 116340 -57920 M 119000 -58612.5 117032.5 -58612.5 M 119000 -60187.5 120100 -61287.5 120100 -68900 M 119100 -69900 118000 -69900 M 120100 -68900 119100 -69900 M 118000 -72756.4 117596.4 -73160 116340 -73160 M 118000 -69900 118000 -72756.4 M 114275 -63600 114275 -63883.6 114275 -65540 M 115875 -62000 114275 -63600 M 116412.5 -62000 115875 -62000" fill="none" stroke-width="406.4"/><path d="M 102444.817 -57038.642 102198.514 -57563.108 102319.181 -57793 103513 -57793 103513 -57773 103767 -57773 103767 -57793 106053 -57793 106053 -57773 106307 -57773 106307 -57793 108593 -57793 108593 -57773 108847 -57773 108847 -57793 111133 -57793 111133 -57773 111387 -57773 111387 -57793 113673 -57793 113673 -57773 113927 -57773 113927 -57793 113947 -57793 113947 -58047 113927 -58047 113927 -59240.155 114156.89 -59361.476 114566.924 -59191.645 114995.183 -58801.358 115056.157 -58671.522 115269.375 -58990.625 115760.582 -59318.839 116193.744 -59405 116486.256 -59405 116658.55 -59370.729 116705.451 -59402.067 116949.946 -59450.7 116949.951 -59450.7 117032.5 -59467.12 117115.049 -59450.7 118068.159 -59450.7 117943.495 -59637.273 117877.56 -59968.75 117877.56 -60406.25 117943.495 -60737.727 118036.928 -60877.56 117768.75 -60877.56 117437.273 -60943.495 117200 -61102.036 116962.727 -60943.495 116631.25 -60877.56 116193.75 -60877.56 115862.273 -60943.495 115581.261 -61131.261 115512.558 -61234.082 115340.677 -61348.929 115340.676 -61348.93 115270.692 -61395.692 115223.93 -61465.676 113740.679 -62948.928 113670.692 -62995.692 113485.433 -63272.952 113436.8 -63517.447 113436.8 -63517.451 113420.38 -63600 113436.8 -63682.549 113436.8 -63934.343 113276.472 -64041.471 112970.359 -64499.6 112890 -64903.593 112890 -66176.406 112970.359 -66580.399 113276.471 -67038.528 113734.6 -67344.641 114275 -67452.133 114815.399 -67344.641 115273.528 -67038.529 115426.36 -66809.801 115436.673 -66834.699 115615.302 -67013.327 115848.691 -67110 116103.514 -67110 116015 -67323.691 116015 -67614.25 116173.75 -67773 116923 -67773 116923 -67753 117177 -67753 117177 -67773 117197 -67773 117197 -68027 117177 -68027 117177 -68826.25 117262.531 -68911.781 117142.191 -68992.191 117001.843 -69202.235 116952.56 -69450 116952.56 -70350 117001.843 -70597.765 117142.191 -70807.809 117161.8 -70820.912 117161.801 -71923.116 116919.418 -71761.161 116486.256 -71675 116193.744 -71675 115760.582 -71761.161 115269.375 -72089.375 115070 -72387.761 114870.625 -72089.375 114379.418 -71761.161 113946.256 -71675 113653.744 -71675 113220.582 -71761.161 112729.375 -72089.375 112530 -72387.761 112330.625 -72089.375 112098.2 -71934.074 112098.2 -71464.549 112114.62 -71382 112098.2 -71299.451 112098.2 -71299.446 112049.567 -71054.951 111864.308 -70777.692 111794.325 -70730.931 109249.144 -68185.75 116015 -68185.75 116015 -68476.309 116111.673 -68709.698 116290.301 -68888.327 116523.69 -68985 116764.25 -68985 116923 -68826.25 116923 -68027 116173.75 -68027 116015 -68185.75 109249.144 -68185.75 108602.68 -67539.286 108930.322 -67675 109779.678 -67675 110564.38 -67349.966 111164.966 -66749.38 111490 -65964.678 111490 -65115.322 111164.966 -64330.62 110564.38 -63730.034 109779.678 -63405 108930.322 -63405 108145.62 -63730.034 107545.034 -64330.62 107370.755 -64751.368 107326.74 -64530.091 107009.577 -64055.423 106534.909 -63738.26 105975 -63626.887 105415.092 -63738.26 104940.424 -64055.423 104623.26 -64530.091 104540 -64948.667 104540 -66131.332 104623.26 -66549.908 104940.423 -67024.576 105415.091 -67341.74 105975 -67453.113 106117.396 -67424.789 110421.8 -71729.194 110421.8 -71934.073 110189.375 -72089.375 109976.157 -72408.478 109915.183 -72278.642 109486.924 -71888.355 109076.89 -71718.524 108847 -71839.845 108847 -73033 108867 -73033 108867 -73287 108847 -73287 108847 -73307 108593 -73307 108593 -73287 106307 -73287 106307 -73307 106053 -73307 106053 -73287 103767 -73287 103767 -73307 103513 -73307 103513 -73287 102319.181 -73287 102198.514 -73516.892 102444.817 -74041.358 102717.65 -74290 101710 -74290 101710 -72803.108 102198.514 -72803.108 102319.181 -73033 103513 -73033 103513 -71839.845 103767 -71839.845 103767 -73033 106053 -73033 106053 -71839.845 106307 -71839.845 106307 -73033 108593 -73033 108593 -71839.845 108363.11 -71718.524 107953.076 -71888.355 107524.817 -72278.642 107450 -72437.954 107375.183 -72278.642 106946.924 -71888.355 106536.89 -71718.524 106307 -71839.845 106053 -71839.845 105823.11 -71718.524 105413.076 -71888.355 104984.817 -72278.642 104910 -72437.954 104835.183 -72278.642 104406.924 -71888.355 103996.89 -71718.524 103767 -71839.845 103513 -71839.845 103283.11 -71718.524 102873.076 -71888.355 102444.817 -72278.642 102198.514 -72803.108 101710 -72803.108 101710 -66695.952 101950.104 -66994.5 102443.181 -67264.367 102525.961 -67281.904 102748 -67159.915 102748 -65667 103002 -65667 103002 -67159.915 103224.039 -67281.904 103306.819 -67264.367 103799.896 -66994.5 104152.166 -66556.483 104310 -66017 104310 -65667 103002 -65667 102748 -65667 102728 -65667 102728 -65413 102748 -65413 102748 -63920.085 103002 -63920.085 103002 -65413 104310 -65413 104310 -65063 104152.166 -64523.517 103799.896 -64085.5 103306.819 -63815.633 103224.039 -63798.096 103002 -63920.085 102748 -63920.085 102525.961 -63798.096 102443.181 -63815.633 101950.104 -64085.5 101710 -64384.048 101710 -58276.892 102198.514 -58276.892 102444.817 -58801.358 102873.076 -59191.645 103283.11 -59361.476 103513 -59240.155 103513 -58047 103767 -58047 103767 -59240.155 103996.89 -59361.476 104406.924 -59191.645 104835.183 -58801.358 104910 -58642.046 104984.817 -58801.358 105413.076 -59191.645 105823.11 -59361.476 106053 -59240.155 106053 -58047 106307 -58047 106307 -59240.155 106536.89 -59361.476 106946.924 -59191.645 107375.183 -58801.358 107450 -58642.046 107524.817 -58801.358 107953.076 -59191.645 108363.11 -59361.476 108593 -59240.155 108593 -58047 108847 -58047 108847 -59240.155 109076.89 -59361.476 109486.924 -59191.645 109915.183 -58801.358 109990 -58642.046 110064.817 -58801.358 110493.076 -59191.645 110903.11 -59361.476 111133 -59240.155 111133 -58047 111387 -58047 111387 -59240.155 111616.89 -59361.476 112026.924 -59191.645 112455.183 -58801.358 112530 -58642.046 112604.817 -58801.358 113033.076 -59191.645 113443.11 -59361.476 113673 -59240.155 113673 -58047 111387 -58047 111133 -58047 108847 -58047 108593 -58047 106307 -58047 106053 -58047 103767 -58047 103513 -58047 102319.181 -58047 102198.514 -58276.892 101710 -58276.892 101710 -56710 102805.433 -56710 102444.817 -57038.642 102444.817 -57038.642"/><path d="M 102444.817 -57038.642 102198.514 -57563.108 102319.181 -57793 103513 -57793 103513 -57773 103767 -57773 103767 -57793 106053 -57793 106053 -57773 106307 -57773 106307 -57793 108593 -57793 108593 -57773 108847 -57773 108847 -57793 111133 -57793 111133 -57773 111387 -57773 111387 -57793 113673 -57793 113673 -57773 113927 -57773 113927 -57793 113947 -57793 113947 -58047 113927 -58047 113927 -59240.155 114156.89 -59361.476 114566.924 -59191.645 114995.183 -58801.358 115056.157 -58671.522 115269.375 -58990.625 115760.582 -59318.839 116193.744 -59405 116486.256 -59405 116658.55 -59370.729 116705.451 -59402.067 116949.946 -59450.7 116949.951 -59450.7 117032.5 -59467.12 117115.049 -59450.7 118068.159 -59450.7 117943.495 -59637.273 117877.56 -59968.75 117877.56 -60406.25 117943.495 -60737.727 118036.928 -60877.56 117768.75 -60877.56 117437.273 -60943.495 117200 -61102.036 116962.727 -60943.495 116631.25 -60877.56 116193.75 -60877.56 115862.273 -60943.495 115581.261 -61131.261 115512.558 -61234.082 115340.677 -61348.929 115340.676 -61348.93 115270.692 -61395.692 115223.93 -61465.676 113740.679 -62948.928 113670.692 -62995.692 113485.433 -63272.952 113436.8 -63517.447 113436.8 -63517.451 113420.38 -63600 113436.8 -63682.549 113436.8 -63934.343 113276.472 -64041.471 112970.359 -64499.6 112890 -64903.593 112890 -66176.406 112970.359 -66580.399 113276.471 -67038.528 113734.6 -67344.641 114275 -67452.133 114815.399 -67344.641 115273.528 -67038.529 115426.36 -66809.801 115436.673 -66834.699 115615.302 -67013.327 115848.691 -67110 116103.514 -67110 116015 -67323.691 116015 -67614.25 116173.75 -67773 116923 -67773 116923 -67753 117177 -67753 117177 -67773 117197 -67773 117197 -68027 117177 -68027 117177 -68826.25 117262.531 -68911.781 117142.191 -68992.191 117001.843 -69202.235 116952.56 -69450 116952.56 -70350 117001.843 -70597.765 117142.191 -70807.809 117161.8 -70820.912 117161.801 -71923.116 116919.418 -71761.161 116486.256 -71675 116193.744 -71675 115760.582 -71761.161 115269.375 -72089.375 115070 -72387.761 114870.625 -72089.375 114379.418 -71761.161 113946.256 -71675 113653.744 -71675 113220.582 -71761.161 112729.375 -72089.375 112530 -72387.761 112330.625 -72089.375 112098.2 -71934.074 112098.2 -71464.549 112114.62 -71382 112098.2 -71299.451 112098.2 -71299.446 112049.567 -71054.951 111864.308 -70777.692 111794.325 -70730.931 109249.144 -68185.75 116015 -68185.75 116015 -68476.309 116111.673 -68709.698 116290.301 -68888.327 116523.69 -68985 116764.25 -68985 116923 -68826.25 116923 -68027 116173.75 -68027 116015 -68185.75 109249.144 -68185.75 108602.68 -67539.286 108930.322 -67675 109779.678 -67675 110564.38 -67349.966 111164.966 -66749.38 111490 -65964.678 111490 -65115.322 111164.966 -64330.62 110564.38 -63730.034 109779.678 -63405 108930.322 -63405 108145.62 -63730.034 107545.034 -64330.62 107370.755 -64751.368 107326.74 -64530.091 107009.577 -64055.423 106534.909 -63738.26 105975 -63626.887 105415.092 -63738.26 104940.424 -64055.423 104623.26 -64530.091 104540 -64948.667 104540 -66131.332 104623.26 -66549.908 104940.423 -67024.576 105415.091 -67341.74 105975 -67453.113 106117.396 -67424.789 110421.8 -71729.194 110421.8 -71934.073 110189.375 -72089.375 109976.157 -72408.478 109915.183 -72278.642 109486.924 -71888.355 109076.89 -71718.524 108847 -71839.845 108847 -73033 108867 -73033 108867 -73287 108847 -73287 108847 -73307 108593 -73307 108593 -73287 106307 -73287 106307 -73307 106053 -73307 106053 -73287 103767 -73287 103767 -73307 103513 -73307 103513 -73287 102319.181 -73287 102198.514 -73516.892 102444.817 -74041.358 102717.65 -74290 101710 -74290 101710 -72803.108 102198.514 -72803.108 102319.181 -73033 103513 -73033 103513 -71839.845 103767 -71839.845 103767 -73033 106053 -73033 106053 -71839.845 106307 -71839.845 106307 -73033 108593 -73033 108593 -71839.845 108363.11 -71718.524 107953.076 -71888.355 107524.817 -72278.642 107450 -72437.954 107375.183 -72278.642 106946.924 -71888.355 106536.89 -71718.524 106307 -71839.845 106053 -71839.845 105823.11 -71718.524 105413.076 -71888.355 104984.817 -72278.642 104910 -72437.954 104835.183 -72278.642 104406.924 -71888.355 103996.89 -71718.524 103767 -71839.845 103513 -71839.845 103283.11 -71718.524 102873.076 -71888.355 102444.817 -72278.642 102198.514 -72803.108 101710 -72803.108 101710 -66695.952 101950.104 -66994.5 102443.181 -67264.367 102525.961 -67281.904 102748 -67159.915 102748 -65667 103002 -65667 103002 -67159.915 103224.039 -67281.904 103306.819 -67264.367 103799.896 -66994.5 104152.166 -66556.483 104310 -66017 104310 -65667 103002 -65667 102748 -65667 102728 -65667 102728 -65413 102748 -65413 102748 -63920.085 103002 -63920.085 103002 -65413 104310 -65413 104310 -65063 104152.166 -64523.517 103799.896 -64085.5 103306.819 -63815.633 103224.039 -63798.096 103002 -63920.085 102748 -63920.085 102525.961 -63798.096 102443.181 -63815.633 101950.104 -64085.5 101710 -64384.048 101710 -58276.892 102198.514 -58276.892 102444.817 -58801.358 102873.076 -59191.645 103283.11 -59361.476 103513 -59240.155 103513 -58047 103767 -58047 103767 -59240.155 103996.89 -59361.476 104406.924 -59191.645 104835.183 -58801.358 104910 -58642.046 104984.817 -58801.358 105413.076 -59191.645 105823.11 -59361.476 106053 -59240.155 106053 -58047 106307 -58047 106307 -59240.155 106536.89 -59361.476 106946.924 -59191.645 107375.183 -58801.358 107450 -58642.046 107524.817 -58801.358 107953.076 -59191.645 108363.11 -59361.476 108593 -59240.155 108593 -58047 108847 -58047 108847 -59240.155 109076.89 -59361.476 109486.924 -59191.645 109915.183 -58801.358 109990 -58642.046 110064.817 -58801.358 110493.076 -59191.645 110903.11 -59361.476 111133 -59240.155 111133 -58047 111387 -58047 111387 -59240.155 111616.89 -59361.476 112026.924 -59191.645 112455.183 -58801.358 112530 -58642.046 112604.817 -58801.358 113033.076 -59191.645 113443.11 -59361.476 113673 -59240.155 113673 -58047 111387 -58047 111133 -58047 108847 -58047 108593 -58047 106307 -58047 106053 -58047 103767 -58047 103513 -58047 102319.181 -58047 102198.514 -58276.892 101710 -58276.892 101710 -56710 102805.433 -56710 102444.817 -57038.642" fill="none" stroke-width="254"/><path d="M 115565 -63614.25 115723.75 -63773 116373 -63773 116373 -63753 116627 -63753 116627 -63773 116647 -63773 116647 -64027 116627 -64027 116627 -64726.25 116785.75 -64885 116926.309 -64885 117061.8 -64828.878 117061.801 -64925.412 116976.309 -64890 116698.25 -64890 116539.5 -65048.75 116539.5 -65873 116559.5 -65873 116559.5 -66127 116539.5 -66127 116539.5 -66147 116285.5 -66147 116285.5 -66127 116265.5 -66127 116265.5 -65873 116285.5 -65873 116285.5 -65048.75 116126.75 -64890 115848.691 -64890 115660 -64968.158 115660 -64903.593 115579.641 -64499.6 115369.934 -64185.75 115565 -64185.75 115565 -64376.31 115661.673 -64609.699 115840.302 -64788.327 116073.691 -64885 116214.25 -64885 116373 -64726.25 116373 -64027 115723.75 -64027 115565 -64185.75 115369.934 -64185.75 115273.529 -64041.471 115120.903 -63939.49 115565 -63495.393 115565 -63614.25 115565 -63614.25"/><path d="M 115565 -63614.25 115723.75 -63773 116373 -63773 116373 -63753 116627 -63753 116627 -63773 116647 -63773 116647 -64027 116627 -64027 116627 -64726.25 116785.75 -64885 116926.309 -64885 117061.8 -64828.878 117061.801 -64925.412 116976.309 -64890 116698.25 -64890 116539.5 -65048.75 116539.5 -65873 116559.5 -65873 116559.5 -66127 116539.5 -66127 116539.5 -66147 116285.5 -66147 116285.5 -66127 116265.5 -66127 116265.5 -65873 116285.5 -65873 116285.5 -65048.75 116126.75 -64890 115848.691 -64890 115660 -64968.158 115660 -64903.593 115579.641 -64499.6 115369.934 -64185.75 115565 -64185.75 115565 -64376.31 115661.673 -64609.699 115840.302 -64788.327 116073.691 -64885 116214.25 -64885 116373 -64726.25 116373 -64027 115723.75 -64027 115565 -64185.75 115369.934 -64185.75 115273.529 -64041.471 115120.903 -63939.49 115565 -63495.393 115565 -63614.25" fill="none" stroke-width="254"/><use xlink:href="#sjW2AXDEbjYi8LLm-OKB_pad-21" x="116340" y="-73160"/><use xlink:href="#sjW2AXDEbjYi8LLm-OKB_pad-21" x="113800" y="-73160"/><use xlink:href="#sjW2AXDEbjYi8LLm-OKB_pad-21" x="111260" y="-73160"/><use xlink:href="#sjW2AXDEbjYi8LLm-OKB_pad-21" x="108720" y="-73160"/><use xlink:href="#sjW2AXDEbjYi8LLm-OKB_pad-21" x="106180" y="-73160"/><use xlink:href="#sjW2AXDEbjYi8LLm-OKB_pad-21" x="103640" y="-73160"/><use xlink:href="#sjW2AXDEbjYi8LLm-OKB_pad-21" x="116340" y="-57920"/><use xlink:href="#sjW2AXDEbjYi8LLm-OKB_pad-21" x="113800" y="-57920"/><use xlink:href="#sjW2AXDEbjYi8LLm-OKB_pad-21" x="111260" y="-57920"/><use xlink:href="#sjW2AXDEbjYi8LLm-OKB_pad-21" x="108720" y="-57920"/><use xlink:href="#sjW2AXDEbjYi8LLm-OKB_pad-21" x="106180" y="-57920"/><use xlink:href="#sjW2AXDEbjYi8LLm-OKB_pad-21" x="103640" y="-57920"/><use xlink:href="#sjW2AXDEbjYi8LLm-OKB_pad-22" x="102875" y="-65540"/><use xlink:href="#sjW2AXDEbjYi8LLm-OKB_pad-23" x="105975" y="-65540"/><use xlink:href="#sjW2AXDEbjYi8LLm-OKB_pad-24" x="114275" y="-65540"/><use xlink:href="#sjW2AXDEbjYi8LLm-OKB_pad-21" x="109355" y="-65540"/></g><g id="epvAXAkRko0dFbc6bUx3_top_silkscreen"><path d="M 110212.38 -71707.38 110212.38 -70707.38 110669.523 -71707.38 110669.523 -70707.38 M 111202.857 -70707.38 111355.238 -70707.38 111431.428 -70755 111507.619 -70850.238 111545.714 -71040.714 111545.714 -71374.047 111507.619 -71564.523 111431.428 -71659.761 111355.238 -71707.38 111202.857 -71707.38 111126.666 -71659.761 111050.476 -71564.523 111012.38 -71374.047 111012.38 -71040.714 111050.476 -70850.238 111126.666 -70755 111202.857 -70707.38 M 111888.571 -71707.38 111888.571 -70707.38 112193.333 -70707.38 112269.523 -70755 112307.619 -70802.619 112345.714 -70897.857 112345.714 -71040.714 112307.619 -71135.952 112269.523 -71183.571 112193.333 -71231.19 111888.571 -71231.19 M 113400 -71707.38 113400 -70707.38 113590.476 -70707.38 113704.761 -70755 113780.952 -70850.238 113819.047 -70945.476 113857.142 -71135.952 113857.142 -71278.809 113819.047 -71469.285 113780.952 -71564.523 113704.761 -71659.761 113590.476 -71707.38 113400 -71707.38 M 114200 -71707.38 114200 -70707.38" fill="none" stroke-width="150"/><path d="M 114300 -59825 114300 -59190 M 110625 -59825 114308 -59825" fill="none" stroke-width="200"/><path d="M 102140.476 -67675 102050 -67627.38 101914.285 -67627.38 101778.571 -67675 101688.095 -67770.238 101642.857 -67865.476 101597.619 -68055.952 101597.619 -68198.809 101642.857 -68389.285 101688.095 -68484.523 101778.571 -68579.761 101914.285 -68627.38 102004.761 -68627.38 102140.476 -68579.761 102185.714 -68532.142 102185.714 -68198.809 102004.761 -68198.809 M 103000 -68627.38 103000 -68103.571 102954.761 -68008.333 102864.285 -67960.714 102683.333 -67960.714 102592.857 -68008.333 M 103000 -68579.761 102909.523 -68627.38 102683.333 -68627.38 102592.857 -68579.761 102547.619 -68484.523 102547.619 -68389.285 102592.857 -68294.047 102683.333 -68246.428 102909.523 -68246.428 103000 -68198.809 M 103316.666 -67960.714 103678.571 -67960.714 M 103452.38 -67627.38 103452.38 -68484.523 103497.619 -68579.761 103588.095 -68627.38 103678.571 -68627.38 M 104357.142 -68579.761 104266.666 -68627.38 104085.714 -68627.38 103995.238 -68579.761 103950 -68484.523 103950 -68103.571 103995.238 -68008.333 104085.714 -67960.714 104266.666 -67960.714 104357.142 -68008.333 104402.38 -68103.571 104402.38 -68198.809 103950 -68294.047 M 102502.38 -70277.38 102502.38 -69277.38 M 102954.761 -70277.38 102954.761 -69277.38 103497.619 -70277.38 103497.619 -69277.38 M 115540 -70707.38 115692.38 -70707.38 115768.571 -70755 115844.761 -70850.238 115882.857 -71040.714 115882.857 -71374.047 115844.761 -71564.523 115768.571 -71659.761 115692.38 -71707.38 115540 -71707.38 115463.809 -71659.761 115387.619 -71564.523 115349.523 -71374.047 115349.523 -71040.714 115387.619 -70850.238 115463.809 -70755 115540 -70707.38 M 116225.714 -70707.38 116225.714 -71516.904 116263.809 -71612.142 116301.904 -71659.761 116378.095 -71707.38 116530.476 -71707.38 116606.666 -71659.761 116644.761 -71612.142 116682.857 -71516.904 116682.857 -70707.38 M 116949.523 -70707.38 117406.666 -70707.38 M 117178.095 -71707.38 117178.095 -70707.38" fill="none" stroke-width="150"/><path d="M 109355 -71255 109355 -71890 M 108085 -71255 109355 -71255 M 103005 -71255 104275 -71255 M 103005 -71890 103005 -71255" fill="none" stroke-width="200"/><path d="M 105418.095 -70755 105322.857 -70707.38 105180 -70707.38 105037.142 -70755 104941.904 -70850.238 104894.285 -70945.476 104846.666 -71135.952 104846.666 -71278.809 104894.285 -71469.285 104941.904 -71564.523 105037.142 -71659.761 105180 -71707.38 105275.238 -71707.38 105418.095 -71659.761 105465.714 -71612.142 105465.714 -71278.809 105275.238 -71278.809 M 105894.285 -71707.38 105894.285 -70707.38 106465.714 -71707.38 106465.714 -70707.38 M 106941.904 -71707.38 106941.904 -70707.38 107180 -70707.38 107322.857 -70755 107418.095 -70850.238 107465.714 -70945.476 107513.333 -71135.952 107513.333 -71278.809 107465.714 -71469.285 107418.095 -71564.523 107322.857 -71659.761 107180 -71707.38 106941.904 -71707.38" fill="none" stroke-width="150"/><path d="M 103005 -59825 106815 -59825 M 103005 -59190 103005 -59825" fill="none" stroke-width="200"/><path d="M 107958.095 -59325 107862.857 -59277.38 107720 -59277.38 107577.142 -59325 107481.904 -59420.238 107434.285 -59515.476 107386.666 -59705.952 107386.666 -59848.809 107434.285 -60039.285 107481.904 -60134.523 107577.142 -60229.761 107720 -60277.38 107815.238 -60277.38 107958.095 -60229.761 108005.714 -60182.142 108005.714 -59848.809 107815.238 -59848.809 M 108434.285 -60277.38 108434.285 -59277.38 109005.714 -60277.38 109005.714 -59277.38 M 109481.904 -60277.38 109481.904 -59277.38 109720 -59277.38 109862.857 -59325 109958.095 -59420.238 110005.714 -59515.476 110053.333 -59705.952 110053.333 -59848.809 110005.714 -60039.285 109958.095 -60134.523 109862.857 -60229.761 109720 -60277.38 109481.904 -60277.38 M 114949.523 -59277.38 115444.761 -59277.38 115178.095 -59658.333 115292.38 -59658.333 115368.571 -59705.952 115406.666 -59753.571 115444.761 -59848.809 115444.761 -60086.904 115406.666 -60182.142 115368.571 -60229.761 115292.38 -60277.38 115063.809 -60277.38 114987.619 -60229.761 114949.523 -60182.142 M 115673.333 -59277.38 115940 -60277.38 116206.666 -59277.38 M 116397.142 -59277.38 116892.38 -59277.38 116625.714 -59658.333 116740 -59658.333 116816.19 -59705.952 116854.285 -59753.571 116892.38 -59848.809 116892.38 -60086.904 116854.285 -60182.142 116816.19 -60229.761 116740 -60277.38 116511.428 -60277.38 116435.238 -60229.761 116397.142 -60182.142 M 117235.238 -60277.38 117235.238 -59277.38 117425.714 -59277.38 117540 -59325 117616.19 -59420.238 117654.285 -59515.476 117692.38 -59705.952 117692.38 -59848.809 117654.285 -60039.285 117616.19 -60134.523 117540 -60229.761 117425.714 -60277.38 117235.238 -60277.38 M 111555 -65540 A 2200 2200 0 0 1 107155 -65540 2200 2200 0 0 1 111555 -65540 M 104855 -61040 104855 -70040 M 115355 -70040 104855 -70040 M 115355 -61040 104855 -61040 M 115355 -61040 115355 -70040 M 111155 -65540 A 1800 1800 0 0 1 107555 -65540 1800 1800 0 0 1 111155 -65540" fill="none" stroke-width="150"/><path d="M 117362.779 -62510 117037.221 -62510 M 117362.779 -61490 117037.221 -61490 M 117037.221 -66510 117362.779 -66510 M 117037.221 -65490 117362.779 -65490 M 119510 -59237.221 119510 -59562.779 M 118490 -59237.221 118490 -59562.779 M 118350 -64500 118350 -63300 M 116500 -64500 118350 -64500 M 116500 -63300 118350 -63300 M 116420 -69660 117350 -69660 M 119580 -69660 118650 -69660 M 119580 -69660 119580 -67500 M 116420 -69660 116420 -68200" fill="none" stroke-width="120"/><path d="M 119436 -62468.38 119136 -61992.19 M 118921.714 -62468.38 118921.714 -61468.38 119264.571 -61468.38 119350.285 -61516 119393.142 -61563.619 119436 -61658.857 119436 -61801.714 119393.142 -61896.952 119350.285 -61944.571 119264.571 -61992.19 118921.714 -61992.19 M 120293.142 -62468.38 119778.857 -62468.38 M 120036 -62468.38 120036 -61468.38 119950.285 -61611.238 119864.571 -61706.476 119778.857 -61754.095 M 119436 -66504.38 119136 -66028.19 M 118921.714 -66504.38 118921.714 -65504.38 119264.571 -65504.38 119350.285 -65552 119393.142 -65599.619 119436 -65694.857 119436 -65837.714 119393.142 -65932.952 119350.285 -65980.571 119264.571 -66028.19 118921.714 -66028.19 M 119778.857 -65599.619 119821.714 -65552 119907.428 -65504.38 120121.714 -65504.38 120207.428 -65552 120250.285 -65599.619 120293.142 -65694.857 120293.142 -65790.095 120250.285 -65932.952 119736 -66504.38 120293.142 -66504.38 M 118833.333 -57602.38 118500 -57126.19 M 118261.904 -57602.38 118261.904 -56602.38 118642.857 -56602.38 118738.095 -56650 118785.714 -56697.619 118833.333 -56792.857 118833.333 -56935.714 118785.714 -57030.952 118738.095 -57078.571 118642.857 -57126.19 118261.904 -57126.19 M 119166.666 -56602.38 119785.714 -56602.38 119452.38 -56983.333 119595.238 -56983.333 119690.476 -57030.952 119738.095 -57078.571 119785.714 -57173.809 119785.714 -57411.904 119738.095 -57507.142 119690.476 -57554.761 119595.238 -57602.38 119309.523 -57602.38 119214.285 -57554.761 119166.666 -57507.142 M 118847.904 -64336.38 118847.904 -63336.38 119086 -63336.38 119228.857 -63384 119324.095 -63479.238 119371.714 -63574.476 119419.333 -63764.952 119419.333 -63907.809 119371.714 -64098.285 119324.095 -64193.523 119228.857 -64288.761 119086 -64336.38 118847.904 -64336.38 M 120371.714 -64336.38 119800.285 -64336.38 M 120086 -64336.38 120086 -63336.38 119990.761 -63479.238 119895.523 -63574.476 119800.285 -63622.095 M 119623.809 -71347.619 119547.619 -71300 119471.428 -71204.761 119357.142 -71061.904 119280.952 -71014.285 119204.761 -71014.285 M 119242.857 -71252.38 119166.666 -71204.761 119090.476 -71109.523 119052.38 -70919.047 119052.38 -70585.714 119090.476 -70395.238 119166.666 -70300 119242.857 -70252.38 119395.238 -70252.38 119471.428 -70300 119547.619 -70395.238 119585.714 -70585.714 119585.714 -70919.047 119547.619 -71109.523 119471.428 -71204.761 119395.238 -71252.38 119242.857 -71252.38 M 120347.619 -71252.38 119890.476 -71252.38 M 120119.047 -71252.38 120119.047 -70252.38 120042.857 -70395.238 119966.666 -70490.476 119890.476 -70538.095" fill="none" stroke-width="150"/></g><g id="epvAXAkRko0dFbc6bUx3_top_drill1"><use xlink:href="#qeG6SZb2z3VY9uAdS1uQ_pad-3" x="103640" y="-57920"/><use xlink:href="#qeG6SZb2z3VY9uAdS1uQ_pad-3" x="106180" y="-57920"/><use xlink:href="#qeG6SZb2z3VY9uAdS1uQ_pad-3" x="108720" y="-57920"/><use xlink:href="#qeG6SZb2z3VY9uAdS1uQ_pad-3" x="111260" y="-57920"/><use xlink:href="#qeG6SZb2z3VY9uAdS1uQ_pad-3" x="113800" y="-57920"/><use xlink:href="#qeG6SZb2z3VY9uAdS1uQ_pad-3" x="116340" y="-57920"/><use xlink:href="#qeG6SZb2z3VY9uAdS1uQ_pad-3" x="103640" y="-73160"/><use xlink:href="#qeG6SZb2z3VY9uAdS1uQ_pad-3" x="106180" y="-73160"/><use xlink:href="#qeG6SZb2z3VY9uAdS1uQ_pad-3" x="108720" y="-73160"/><use xlink:href="#qeG6SZb2z3VY9uAdS1uQ_pad-3" x="111260" y="-73160"/><use xlink:href="#qeG6SZb2z3VY9uAdS1uQ_pad-3" x="113800" y="-73160"/><use xlink:href="#qeG6SZb2z3VY9uAdS1uQ_pad-3" x="116340" y="-73160"/><use xlink:href="#qeG6SZb2z3VY9uAdS1uQ_pad-4" x="109355" y="-65540"/><path d="M 114275 -65040 114275 -66040" fill="none" stroke-width="500"/><path d="M 102875 -65190 102875 -65890 M 105975 -65090 105975 -65990" fill="none" stroke-width="600"/></g><clipPath id="epvAXAkRko0dFbc6bUx3_top_outline"><path d="M 101000 -56000 101000 -75000 121000 -75000 121000 -56000 101000 -56000" fill="none" stroke-width="150"/></clipPath><mask id="epvAXAkRko0dFbc6bUx3_top_mech-mask"><g fill="#000" stroke="#000"><rect x="101000" y="-75000" width="20000" height="19000" fill="#fff"/><use xlink:href="#epvAXAkRko0dFbc6bUx3_top_drill1"/></g></mask><mask id="epvAXAkRko0dFbc6bUx3_top_cf-mask"><g fill="#fff" stroke="#fff"><use xlink:href="#epvAXAkRko0dFbc6bUx3_top_soldermask"/></g></mask><mask id="epvAXAkRko0dFbc6bUx3_top_sm-mask"><g fill="#000" stroke="#000"><rect x="101000" y="-75000" width="20000" height="19000" fill="#fff"/><use xlink:href="#epvAXAkRko0dFbc6bUx3_top_soldermask"/></g></mask></defs><g transform="translate(0,-131000) scale(1,-1)"><g mask="url(#epvAXAkRko0dFbc6bUx3_top_mech-mask)" clip-path="url(#epvAXAkRko0dFbc6bUx3_top_outline)"><rect x="101000" y="-75000" width="20000" height="19000" fill="currentColor" class="epvAXAkRko0dFbc6bUx3_fr4"/><use xlink:href="#epvAXAkRko0dFbc6bUx3_top_copper" fill="currentColor" stroke="currentColor" class="epvAXAkRko0dFbc6bUx3_cu"/><use xlink:href="#epvAXAkRko0dFbc6bUx3_top_copper" fill="currentColor" stroke="currentColor" class="epvAXAkRko0dFbc6bUx3_cf" mask="url(#epvAXAkRko0dFbc6bUx3_top_cf-mask)"/><g mask="url(#epvAXAkRko0dFbc6bUx3_top_sm-mask)"><rect x="101000" y="-75000" width="20000" height="19000" fill="currentColor" class="epvAXAkRko0dFbc6bUx3_sm"/><use xlink:href="#epvAXAkRko0dFbc6bUx3_top_silkscreen" fill="currentColor" stroke="currentColor" class="epvAXAkRko0dFbc6bUx3_ss"/></g><use xlink:href="#epvAXAkRko0dFbc6bUx3_top_solderpaste" fill="currentColor" stroke="currentColor" class="epvAXAkRko0dFbc6bUx3_sp"/></g></g></svg>