<svg version="1.1" xmlns="http://www.w3.org/2000/svg" xmlns:xlink="http://www.w3.org/1999/xlink" stroke-linecap="round" stroke-linejoin="round" stroke-width="0" fill-rule="evenodd" clip-rule="evenodd" id="zZLUTSZs06vJnWqHePmW_bottom" viewBox="101000 -75000 25000 19000" width="25mm" height="19mm" class="w-100 h-100"><defs><style>.zZLUTSZs06vJnWqHePmW_fr4 {color: #666666;}
.zZLUTSZs06vJnWqHePmW_cu {color: #cccccc;}
.zZLUTSZs06vJnWqHePmW_cf {color: #cc9933;}
.zZLUTSZs06vJnWqHePmW_sm {color: #004200; opacity: 0.75;}
.zZLUTSZs06vJnWqHePmW_ss {color: #ffffff;}
.zZLUTSZs06vJnWqHePmW_sp {color: #999999;}
.zZLUTSZs06vJnWqHePmW_out {color: #000000;}</style><rect x="-850" y="-850" width="1700" height="1700" rx="850" ry="850" id="W4QQjs_htbG-bS4qI982_pad-10"/><rect x="-800" y="-1150" width="1600" height="2300" rx="800" ry="800" id="W4QQjs_htbG-bS4qI982_pad-11"/><rect x="-800" y="-1250" width="1600" height="2500" rx="800" ry="800" id="W4QQjs_htbG-bS4qI982_pad-12"/><rect x="-750" y="-1250" width="1500" height="2500" rx="750" ry="750" id="W4QQjs_htbG-bS4qI982_pad-13"/><circle cx="0" cy="0" r="342.9" id="W4QQjs_htbG-bS4qI982_pad-14"/><circle cx="0" cy="0" r="152.4" id="W4QQjs_htbG-bS4qI982_pad-17"/><circle cx="0" cy="0" r="175" id="W4QQjs_htbG-bS4qI982_pad-18"/><rect x="-300" y="-650" width="600" height="1300" rx="300" ry="300" id="W4QQjs_htbG-bS4qI982_pad-19"/><rect x="-300" y="-750" width="600" height="1500" rx="300" ry="300" id="W4QQjs_htbG-bS4qI982_pad-20"/><rect x="-250" y="-750" width="500" height="1500" rx="250" ry="250" id="W4QQjs_htbG-bS4qI982_pad-21"/><circle cx="0" cy="0" r="152.5" id="uOlDM29um7FkpXYJ_LRu_pad-1"/><circle cx="0" cy="0" r="500" id="uOlDM29um7FkpXYJ_LRu_pad-4"/><circle cx="0" cy="0" r="1500" id="uOlDM29um7FkpXYJ_LRu_pad-5"/><g id="zZLUTSZs06vJnWqHePmW_bottom_soldermask"><path d="M 116520.351 -72253.312 116693.772 -72305.919 116853.597 -72391.347 116993.686 -72506.314 117108.653 -72646.403 117194.081 -72806.228 117246.688 -72979.649 117264.451 -73160 117246.688 -73340.351 117194.081 -73513.772 117108.653 -73673.597 116993.686 -73813.686 116853.597 -73928.653 116693.772 -74014.081 116520.351 -74066.688 116385.192 -74080 116294.808 -74080 116159.649 -74066.688 115986.228 -74014.081 115826.403 -73928.653 115686.314 -73813.686 115571.347 -73673.597 115485.919 -73513.772 115433.312 -73340.351 115415.549 -73160 115433.312 -72979.649 115485.919 -72806.228 115571.347 -72646.403 115686.314 -72506.314 115826.403 -72391.347 115986.228 -72305.919 116159.649 -72253.312 116294.808 -72240 116385.192 -72240 116520.351 -72253.312 116520.351 -72253.312"/><path d="M 113980.351 -72253.312 114153.772 -72305.919 114313.597 -72391.347 114453.686 -72506.314 114568.653 -72646.403 114654.081 -72806.228 114706.688 -72979.649 114724.451 -73160 114706.688 -73340.351 114654.081 -73513.772 114568.653 -73673.597 114453.686 -73813.686 114313.597 -73928.653 114153.772 -74014.081 113980.351 -74066.688 113845.192 -74080 113754.808 -74080 113619.649 -74066.688 113446.228 -74014.081 113286.403 -73928.653 113146.314 -73813.686 113031.347 -73673.597 112945.919 -73513.772 112893.312 -73340.351 112875.549 -73160 112893.312 -72979.649 112945.919 -72806.228 113031.347 -72646.403 113146.314 -72506.314 113286.403 -72391.347 113446.228 -72305.919 113619.649 -72253.312 113754.808 -72240 113845.192 -72240 113980.351 -72253.312 113980.351 -72253.312"/><path d="M 111440.351 -72253.312 111613.772 -72305.919 111773.597 -72391.347 111913.686 -72506.314 112028.653 -72646.403 112114.081 -72806.228 112166.688 -72979.649 112184.451 -73160 112166.688 -73340.351 112114.081 -73513.772 112028.653 -73673.597 111913.686 -73813.686 111773.597 -73928.653 111613.772 -74014.081 111440.351 -74066.688 111305.192 -74080 111214.808 -74080 111079.649 -74066.688 110906.228 -74014.081 110746.403 -73928.653 110606.314 -73813.686 110491.347 -73673.597 110405.919 -73513.772 110353.312 -73340.351 110335.549 -73160 110353.312 -72979.649 110405.919 -72806.228 110491.347 -72646.403 110606.314 -72506.314 110746.403 -72391.347 110906.228 -72305.919 111079.649 -72253.312 111214.808 -72240 111305.192 -72240 111440.351 -72253.312 111440.351 -72253.312"/><path d="M 108900.351 -72253.312 109073.772 -72305.919 109233.597 -72391.347 109373.686 -72506.314 109488.653 -72646.403 109574.081 -72806.228 109626.688 -72979.649 109644.451 -73160 109626.688 -73340.351 109574.081 -73513.772 109488.653 -73673.597 109373.686 -73813.686 109233.597 -73928.653 109073.772 -74014.081 108900.351 -74066.688 108765.192 -74080 108674.808 -74080 108539.649 -74066.688 108366.228 -74014.081 108206.403 -73928.653 108066.314 -73813.686 107951.347 -73673.597 107865.919 -73513.772 107813.312 -73340.351 107795.549 -73160 107813.312 -72979.649 107865.919 -72806.228 107951.347 -72646.403 108066.314 -72506.314 108206.403 -72391.347 108366.228 -72305.919 108539.649 -72253.312 108674.808 -72240 108765.192 -72240 108900.351 -72253.312 108900.351 -72253.312"/><path d="M 106360.351 -72253.312 106533.772 -72305.919 106693.597 -72391.347 106833.686 -72506.314 106948.653 -72646.403 107034.081 -72806.228 107086.688 -72979.649 107104.451 -73160 107086.688 -73340.351 107034.081 -73513.772 106948.653 -73673.597 106833.686 -73813.686 106693.597 -73928.653 106533.772 -74014.081 106360.351 -74066.688 106225.192 -74080 106134.808 -74080 105999.649 -74066.688 105826.228 -74014.081 105666.403 -73928.653 105526.314 -73813.686 105411.347 -73673.597 105325.919 -73513.772 105273.312 -73340.351 105255.549 -73160 105273.312 -72979.649 105325.919 -72806.228 105411.347 -72646.403 105526.314 -72506.314 105666.403 -72391.347 105826.228 -72305.919 105999.649 -72253.312 106134.808 -72240 106225.192 -72240 106360.351 -72253.312 106360.351 -72253.312"/><path d="M 103820.351 -72253.312 103993.772 -72305.919 104153.597 -72391.347 104293.686 -72506.314 104408.653 -72646.403 104494.081 -72806.228 104546.688 -72979.649 104564.451 -73160 104546.688 -73340.351 104494.081 -73513.772 104408.653 -73673.597 104293.686 -73813.686 104153.597 -73928.653 103993.772 -74014.081 103820.351 -74066.688 103685.192 -74080 103594.808 -74080 103459.649 -74066.688 103286.228 -74014.081 103126.403 -73928.653 102986.314 -73813.686 102871.347 -73673.597 102785.919 -73513.772 102733.312 -73340.351 102715.549 -73160 102733.312 -72979.649 102785.919 -72806.228 102871.347 -72646.403 102986.314 -72506.314 103126.403 -72391.347 103286.228 -72305.919 103459.649 -72253.312 103594.808 -72240 103685.192 -72240 103820.351 -72253.312 103820.351 -72253.312"/><path d="M 109812.948 -64030.333 109812.949 -64030.333 109812.952 -64030.334 110021.601 -64116.759 110098.677 -64148.685 110348.768 -64315.791 110355.817 -64320.501 110574.499 -64539.183 110574.501 -64539.186 110746.315 -64796.323 110746.316 -64796.326 110864.666 -65082.048 110925 -65385.368 110925 -65694.632 110864.666 -65997.952 110780.665 -66200.748 110746.315 -66283.677 110603.261 -66497.772 110574.499 -66540.817 110355.817 -66759.499 110355.814 -66759.501 110098.677 -66931.315 110021.601 -66963.241 109812.952 -67049.666 109812.949 -67049.667 109812.948 -67049.667 109509.634 -67110 109200.366 -67110 108897.052 -67049.667 108897.051 -67049.667 108897.048 -67049.666 108688.399 -66963.241 108611.323 -66931.315 108354.186 -66759.501 108354.183 -66759.499 108135.501 -66540.817 108106.739 -66497.772 107963.685 -66283.677 107929.335 -66200.748 107845.334 -65997.952 107785 -65694.632 107785 -65385.368 107845.334 -65082.048 107963.684 -64796.326 107963.685 -64796.323 108135.499 -64539.186 108135.501 -64539.183 108354.183 -64320.501 108361.232 -64315.791 108611.323 -64148.685 108688.399 -64116.759 108897.048 -64030.334 108897.051 -64030.333 108897.052 -64030.333 109200.366 -63970 109509.634 -63970 109812.948 -64030.333 109812.948 -64030.333"/><path d="M 106145.547 -64232.588 106145.55 -64232.589 106309.545 -64282.336 106460.684 -64363.122 106593.159 -64471.841 106701.878 -64604.316 106782.664 -64755.455 106812.998 -64855.454 106832.412 -64919.453 106845 -65047.263 106845 -66032.737 106832.412 -66160.547 106832.411 -66160.549 106832.411 -66160.55 106782.664 -66324.545 106701.878 -66475.684 106593.159 -66608.159 106460.683 -66716.878 106309.544 -66797.664 106164.303 -66841.722 106145.546 -66847.412 105975 -66864.209 105804.453 -66847.412 105785.696 -66841.722 105640.455 -66797.664 105489.316 -66716.878 105356.841 -66608.159 105248.122 -66475.683 105167.336 -66324.544 105117.589 -66160.549 105117.588 -66160.546 105105 -66032.736 105105 -65047.263 105117.589 -64919.453 105137.003 -64855.454 105167.337 -64755.455 105248.123 -64604.316 105356.842 -64471.841 105489.317 -64363.122 105640.456 -64282.336 105804.451 -64232.589 105804.454 -64232.588 105975 -64215.791 106145.547 -64232.588 106145.547 -64232.588"/><path d="M 114435.748 -64231.865 114590.319 -64278.754 114732.772 -64354.896 114857.633 -64457.367 114960.104 -64582.228 115036.246 -64724.681 115083.135 -64879.252 115095 -64999.722 115095 -66080.278 115083.135 -66200.748 115036.246 -66355.319 114960.104 -66497.772 114857.633 -66622.633 114732.771 -66725.104 114590.318 -66801.246 114435.747 -66848.135 114275 -66863.967 114114.252 -66848.135 113959.681 -66801.246 113817.228 -66725.104 113692.367 -66622.633 113589.896 -66497.771 113513.754 -66355.318 113466.865 -66200.747 113455 -66080.277 113455.001 -64999.722 113466.866 -64879.252 113513.755 -64724.681 113589.897 -64582.228 113692.368 -64457.367 113817.229 -64354.896 113959.682 -64278.754 114114.253 -64231.865 114275 -64216.033 114435.748 -64231.865 114435.748 -64231.865"/><path d="M 103045.547 -64332.588 103045.55 -64332.589 103209.545 -64382.336 103360.684 -64463.122 103493.159 -64571.841 103601.878 -64704.316 103682.664 -64855.455 103702.077 -64919.453 103732.412 -65019.453 103745 -65147.263 103745 -65932.737 103732.412 -66060.547 103732.411 -66060.549 103732.411 -66060.55 103682.664 -66224.545 103601.878 -66375.684 103493.159 -66508.159 103360.683 -66616.878 103209.544 -66697.664 103064.303 -66741.722 103045.546 -66747.412 102875 -66764.209 102704.453 -66747.412 102685.696 -66741.722 102540.455 -66697.664 102389.316 -66616.878 102256.841 -66508.159 102148.122 -66375.683 102067.336 -66224.544 102017.589 -66060.549 102017.588 -66060.546 102005 -65932.736 102005 -65147.263 102017.588 -65019.453 102023.574 -64999.721 102067.337 -64855.455 102148.123 -64704.316 102256.842 -64571.841 102389.317 -64463.122 102540.456 -64382.336 102704.451 -64332.589 102704.454 -64332.588 102875 -64315.791 103045.547 -64332.588 103045.547 -64332.588"/><path d="M 111440.351 -57013.312 111613.772 -57065.919 111773.597 -57151.347 111913.686 -57266.314 112028.653 -57406.403 112114.081 -57566.228 112166.688 -57739.649 112184.451 -57920 112166.688 -58100.351 112114.081 -58273.772 112028.653 -58433.597 111913.686 -58573.686 111773.597 -58688.653 111613.772 -58774.081 111440.351 -58826.688 111305.192 -58840 111214.808 -58840 111079.649 -58826.688 110906.228 -58774.081 110746.403 -58688.653 110606.314 -58573.686 110491.347 -58433.597 110405.919 -58273.772 110353.312 -58100.351 110335.549 -57920 110353.312 -57739.649 110405.919 -57566.228 110491.347 -57406.403 110606.314 -57266.314 110746.403 -57151.347 110906.228 -57065.919 111079.649 -57013.312 111214.808 -57000 111305.192 -57000 111440.351 -57013.312 111440.351 -57013.312"/><path d="M 108900.351 -57013.312 109073.772 -57065.919 109233.597 -57151.347 109373.686 -57266.314 109488.653 -57406.403 109574.081 -57566.228 109626.688 -57739.649 109644.451 -57920 109626.688 -58100.351 109574.081 -58273.772 109488.653 -58433.597 109373.686 -58573.686 109233.597 -58688.653 109073.772 -58774.081 108900.351 -58826.688 108765.192 -58840 108674.808 -58840 108539.649 -58826.688 108366.228 -58774.081 108206.403 -58688.653 108066.314 -58573.686 107951.347 -58433.597 107865.919 -58273.772 107813.312 -58100.351 107795.549 -57920 107813.312 -57739.649 107865.919 -57566.228 107951.347 -57406.403 108066.314 -57266.314 108206.403 -57151.347 108366.228 -57065.919 108539.649 -57013.312 108674.808 -57000 108765.192 -57000 108900.351 -57013.312 108900.351 -57013.312"/><path d="M 106360.351 -57013.312 106533.772 -57065.919 106693.597 -57151.347 106833.686 -57266.314 106948.653 -57406.403 107034.081 -57566.228 107086.688 -57739.649 107104.451 -57920 107086.688 -58100.351 107034.081 -58273.772 106948.653 -58433.597 106833.686 -58573.686 106693.597 -58688.653 106533.772 -58774.081 106360.351 -58826.688 106225.192 -58840 106134.808 -58840 105999.649 -58826.688 105826.228 -58774.081 105666.403 -58688.653 105526.314 -58573.686 105411.347 -58433.597 105325.919 -58273.772 105273.312 -58100.351 105255.549 -57920 105273.312 -57739.649 105325.919 -57566.228 105411.347 -57406.403 105526.314 -57266.314 105666.403 -57151.347 105826.228 -57065.919 105999.649 -57013.312 106134.808 -57000 106225.192 -57000 106360.351 -57013.312 106360.351 -57013.312"/><path d="M 103820.351 -57013.312 103993.772 -57065.919 104153.597 -57151.347 104293.686 -57266.314 104408.653 -57406.403 104494.081 -57566.228 104546.688 -57739.649 104564.451 -57920 104546.688 -58100.351 104494.081 -58273.772 104408.653 -58433.597 104293.686 -58573.686 104153.597 -58688.653 103993.772 -58774.081 103820.351 -58826.688 103685.192 -58840 103594.808 -58840 103459.649 -58826.688 103286.228 -58774.081 103126.403 -58688.653 102986.314 -58573.686 102871.347 -58433.597 102785.919 -58273.772 102733.312 -58100.351 102715.549 -57920 102733.312 -57739.649 102785.919 -57566.228 102871.347 -57406.403 102986.314 -57266.314 103126.403 -57151.347 103286.228 -57065.919 103459.649 -57013.312 103594.808 -57000 103685.192 -57000 103820.351 -57013.312 103820.351 -57013.312"/><path d="M 113980.351 -57013.312 114153.772 -57065.919 114313.597 -57151.347 114453.686 -57266.314 114568.653 -57406.403 114654.081 -57566.228 114706.688 -57739.649 114724.451 -57920 114706.688 -58100.351 114654.081 -58273.772 114568.653 -58433.597 114453.686 -58573.686 114313.597 -58688.653 114153.772 -58774.081 113980.351 -58826.688 113845.192 -58840 113754.808 -58840 113619.649 -58826.688 113446.228 -58774.081 113286.403 -58688.653 113146.314 -58573.686 113031.347 -58433.597 112945.919 -58273.772 112893.312 -58100.351 112875.549 -57920 112893.312 -57739.649 112945.919 -57566.228 113031.347 -57406.403 113146.314 -57266.314 113286.403 -57151.347 113446.228 -57065.919 113619.649 -57013.312 113754.808 -57000 113845.192 -57000 113980.351 -57013.312 113980.351 -57013.312"/><path d="M 116520.351 -57013.312 116693.772 -57065.919 116853.597 -57151.347 116993.686 -57266.314 117108.653 -57406.403 117194.081 -57566.228 117246.688 -57739.649 117264.451 -57920 117246.688 -58100.351 117194.081 -58273.772 117108.653 -58433.597 116993.686 -58573.686 116853.597 -58688.653 116693.772 -58774.081 116520.351 -58826.688 116385.192 -58840 116294.808 -58840 116159.649 -58826.688 115986.228 -58774.081 115826.403 -58688.653 115686.314 -58573.686 115571.347 -58433.597 115485.919 -58273.772 115433.312 -58100.351 115415.549 -57920 115433.312 -57739.649 115485.919 -57566.228 115571.347 -57406.403 115686.314 -57266.314 115826.403 -57151.347 115986.228 -57065.919 116159.649 -57013.312 116294.808 -57000 116385.192 -57000 116520.351 -57013.312 116520.351 -57013.312"/></g><g id="zZLUTSZs06vJnWqHePmW_bottom_copper"><use xlink:href="#W4QQjs_htbG-bS4qI982_pad-10" x="116340" y="-73160"/><use xlink:href="#W4QQjs_htbG-bS4qI982_pad-10" x="113800" y="-73160"/><use xlink:href="#W4QQjs_htbG-bS4qI982_pad-10" x="111260" y="-73160"/><use xlink:href="#W4QQjs_htbG-bS4qI982_pad-10" x="108720" y="-73160"/><use xlink:href="#W4QQjs_htbG-bS4qI982_pad-10" x="106180" y="-73160"/><use xlink:href="#W4QQjs_htbG-bS4qI982_pad-10" x="103640" y="-73160"/><use xlink:href="#W4QQjs_htbG-bS4qI982_pad-10" x="116340" y="-57920"/><use xlink:href="#W4QQjs_htbG-bS4qI982_pad-10" x="113800" y="-57920"/><use xlink:href="#W4QQjs_htbG-bS4qI982_pad-10" x="111260" y="-57920"/><use xlink:href="#W4QQjs_htbG-bS4qI982_pad-10" x="108720" y="-57920"/><use xlink:href="#W4QQjs_htbG-bS4qI982_pad-10" x="106180" y="-57920"/><use xlink:href="#W4QQjs_htbG-bS4qI982_pad-10" x="103640" y="-57920"/><use xlink:href="#W4QQjs_htbG-bS4qI982_pad-11" x="102875" y="-65540"/><use xlink:href="#W4QQjs_htbG-bS4qI982_pad-12" x="105975" y="-65540"/><use xlink:href="#W4QQjs_htbG-bS4qI982_pad-13" x="114275" y="-65540"/><use xlink:href="#W4QQjs_htbG-bS4qI982_pad-14" x="120920" y="-62850"/><use xlink:href="#W4QQjs_htbG-bS4qI982_pad-14" x="120650" y="-61780"/><use xlink:href="#W4QQjs_htbG-bS4qI982_pad-14" x="124520" y="-67450"/><use xlink:href="#W4QQjs_htbG-bS4qI982_pad-14" x="123580" y="-67510"/><use xlink:href="#W4QQjs_htbG-bS4qI982_pad-14" x="121670" y="-73720"/><use xlink:href="#W4QQjs_htbG-bS4qI982_pad-14" x="121420" y="-64870"/><use xlink:href="#W4QQjs_htbG-bS4qI982_pad-14" x="119890" y="-73570"/><use xlink:href="#W4QQjs_htbG-bS4qI982_pad-14" x="120960" y="-73550"/><use xlink:href="#W4QQjs_htbG-bS4qI982_pad-14" x="119920" y="-71780"/><path d="M 114649.999 -58769.999 113800 -57920 M 115770 -59890 114649.999 -58769.999 M 115770 -67660 115770 -59890 M 119890 -71780 115770 -67660 M 119920 -71780 119890 -71780" fill="none" stroke-width="406.4"/><path d="M 102444.817 -57038.642 102198.514 -57563.108 102319.181 -57793 103513 -57793 103513 -57773 103767 -57773 103767 -57793 106053 -57793 106053 -57773 106307 -57773 106307 -57793 108593 -57793 108593 -57773 108847 -57773 108847 -57793 111133 -57793 111133 -57773 111387 -57773 111387 -57793 111407 -57793 111407 -58047 111387 -58047 111387 -59240.155 111616.89 -59361.476 112026.924 -59191.645 112455.183 -58801.358 112516.157 -58671.522 112729.375 -58990.625 113220.582 -59318.839 113653.744 -59405 113946.256 -59405 114074.164 -59379.558 114115.676 -59421.07 114115.679 -59421.072 114931.801 -60237.195 114931.8 -63813.135 114815.4 -63735.359 114275 -63627.867 113734.601 -63735.359 113276.472 -64041.471 112970.359 -64499.6 112890 -64903.593 112890 -66176.406 112970.359 -66580.399 113276.471 -67038.528 113734.6 -67344.641 114275 -67452.133 114815.399 -67344.641 114931.8 -67266.864 114931.8 -67577.451 114915.38 -67660 114931.8 -67742.549 114931.8 -67742.553 114980.433 -67987.048 115165.692 -68264.308 115235.679 -68311.072 118972.49 -72047.884 119090.977 -72333.936 119366.064 -72609.023 119725.484 -72757.9 120114.516 -72757.9 120473.936 -72609.023 120749.023 -72333.936 120897.9 -71974.516 120897.9 -71585.484 120749.023 -71226.064 120473.936 -70950.977 120114.516 -70802.1 120097.494 -70802.1 116608.2 -67312.807 116608.2 -59972.55 116624.62 -59890 116608.2 -59807.449 116608.2 -59807.446 116559.567 -59562.951 116559.567 -59562.95 116454.028 -59405 116486.256 -59405 116919.418 -59318.839 117410.625 -58990.625 117738.839 -58499.418 117854.092 -57920 117738.839 -57340.582 117410.625 -56849.375 117202.036 -56710 125290.001 -56710 125290 -74290 117321.764 -74290 117410.625 -74230.625 117738.839 -73739.418 117854.092 -73160 117738.839 -72580.582 117410.625 -72089.375 116919.418 -71761.161 116486.256 -71675 116193.744 -71675 115760.582 -71761.161 115269.375 -72089.375 115070 -72387.761 114870.625 -72089.375 114379.418 -71761.161 113946.256 -71675 113653.744 -71675 113220.582 -71761.161 112729.375 -72089.375 112516.157 -72408.478 112455.183 -72278.642 112026.924 -71888.355 111616.89 -71718.524 111387 -71839.845 111387 -73033 111407 -73033 111407 -73287 111387 -73287 111387 -73307 111133 -73307 111133 -73287 108847 -73287 108847 -73307 108593 -73307 108593 -73287 106307 -73287 106307 -73307 106053 -73307 106053 -73287 103767 -73287 103767 -73307 103513 -73307 103513 -73287 102319.181 -73287 102198.514 -73516.892 102444.817 -74041.358 102717.65 -74290 101710 -74290 101710 -72803.108 102198.514 -72803.108 102319.181 -73033 103513 -73033 103513 -71839.845 103767 -71839.845 103767 -73033 106053 -73033 106053 -71839.845 106307 -71839.845 106307 -73033 108593 -73033 108593 -71839.845 108847 -71839.845 108847 -73033 111133 -73033 111133 -71839.845 110903.11 -71718.524 110493.076 -71888.355 110064.817 -72278.642 109990 -72437.954 109915.183 -72278.642 109486.924 -71888.355 109076.89 -71718.524 108847 -71839.845 108593 -71839.845 108363.11 -71718.524 107953.076 -71888.355 107524.817 -72278.642 107450 -72437.954 107375.183 -72278.642 106946.924 -71888.355 106536.89 -71718.524 106307 -71839.845 106053 -71839.845 105823.11 -71718.524 105413.076 -71888.355 104984.817 -72278.642 104910 -72437.954 104835.183 -72278.642 104406.924 -71888.355 103996.89 -71718.524 103767 -71839.845 103513 -71839.845 103283.11 -71718.524 102873.076 -71888.355 102444.817 -72278.642 102198.514 -72803.108 101710 -72803.108 101710 -66695.952 101950.104 -66994.5 102443.181 -67264.367 102525.961 -67281.904 102748 -67159.915 102748 -65667 103002 -65667 103002 -67159.915 103224.039 -67281.904 103306.819 -67264.367 103799.896 -66994.5 104152.166 -66556.483 104310 -66017 104310 -65667 103002 -65667 102748 -65667 102728 -65667 102728 -65413 102748 -65413 102748 -63920.085 103002 -63920.085 103002 -65413 104310 -65413 104310 -65063 104276.551 -64948.667 104540 -64948.667 104540 -66131.332 104623.26 -66549.908 104940.423 -67024.576 105415.091 -67341.74 105975 -67453.113 106534.908 -67341.74 107009.576 -67024.577 107326.74 -66549.909 107370.755 -66328.632 107545.034 -66749.38 108145.62 -67349.966 108930.322 -67675 109779.678 -67675 110564.38 -67349.966 111164.966 -66749.38 111490 -65964.678 111490 -65115.322 111164.966 -64330.62 110564.38 -63730.034 109779.678 -63405 108930.322 -63405 108145.62 -63730.034 107545.034 -64330.62 107370.755 -64751.368 107326.74 -64530.091 107009.577 -64055.423 106534.909 -63738.26 105975 -63626.887 105415.092 -63738.26 104940.424 -64055.423 104623.26 -64530.091 104540 -64948.667 104276.551 -64948.667 104152.166 -64523.517 103799.896 -64085.5 103306.819 -63815.633 103224.039 -63798.096 103002 -63920.085 102748 -63920.085 102525.961 -63798.096 102443.181 -63815.633 101950.104 -64085.5 101710 -64384.048 101710 -58276.892 102198.514 -58276.892 102444.817 -58801.358 102873.076 -59191.645 103283.11 -59361.476 103513 -59240.155 103513 -58047 103767 -58047 103767 -59240.155 103996.89 -59361.476 104406.924 -59191.645 104835.183 -58801.358 104910 -58642.046 104984.817 -58801.358 105413.076 -59191.645 105823.11 -59361.476 106053 -59240.155 106053 -58047 106307 -58047 106307 -59240.155 106536.89 -59361.476 106946.924 -59191.645 107375.183 -58801.358 107450 -58642.046 107524.817 -58801.358 107953.076 -59191.645 108363.11 -59361.476 108593 -59240.155 108593 -58047 108847 -58047 108847 -59240.155 109076.89 -59361.476 109486.924 -59191.645 109915.183 -58801.358 109990 -58642.046 110064.817 -58801.358 110493.076 -59191.645 110903.11 -59361.476 111133 -59240.155 111133 -58047 108847 -58047 108593 -58047 106307 -58047 106053 -58047 103767 -58047 103513 -58047 102319.181 -58047 102198.514 -58276.892 101710 -58276.892 101710 -56710 102805.433 -56710 102444.817 -57038.642 102444.817 -57038.642"/><path d="M 102444.817 -57038.642 102198.514 -57563.108 102319.181 -57793 103513 -57793 103513 -57773 103767 -57773 103767 -57793 106053 -57793 106053 -57773 106307 -57773 106307 -57793 108593 -57793 108593 -57773 108847 -57773 108847 -57793 111133 -57793 111133 -57773 111387 -57773 111387 -57793 111407 -57793 111407 -58047 111387 -58047 111387 -59240.155 111616.89 -59361.476 112026.924 -59191.645 112455.183 -58801.358 112516.157 -58671.522 112729.375 -58990.625 113220.582 -59318.839 113653.744 -59405 113946.256 -59405 114074.164 -59379.558 114115.676 -59421.07 114115.679 -59421.072 114931.801 -60237.195 114931.8 -63813.135 114815.4 -63735.359 114275 -63627.867 113734.601 -63735.359 113276.472 -64041.471 112970.359 -64499.6 112890 -64903.593 112890 -66176.406 112970.359 -66580.399 113276.471 -67038.528 113734.6 -67344.641 114275 -67452.133 114815.399 -67344.641 114931.8 -67266.864 114931.8 -67577.451 114915.38 -67660 114931.8 -67742.549 114931.8 -67742.553 114980.433 -67987.048 115165.692 -68264.308 115235.679 -68311.072 118972.49 -72047.884 119090.977 -72333.936 119366.064 -72609.023 119725.484 -72757.9 120114.516 -72757.9 120473.936 -72609.023 120749.023 -72333.936 120897.9 -71974.516 120897.9 -71585.484 120749.023 -71226.064 120473.936 -70950.977 120114.516 -70802.1 120097.494 -70802.1 116608.2 -67312.807 116608.2 -59972.55 116624.62 -59890 116608.2 -59807.449 116608.2 -59807.446 116559.567 -59562.951 116559.567 -59562.95 116454.028 -59405 116486.256 -59405 116919.418 -59318.839 117410.625 -58990.625 117738.839 -58499.418 117854.092 -57920 117738.839 -57340.582 117410.625 -56849.375 117202.036 -56710 125290.001 -56710 125290 -74290 117321.764 -74290 117410.625 -74230.625 117738.839 -73739.418 117854.092 -73160 117738.839 -72580.582 117410.625 -72089.375 116919.418 -71761.161 116486.256 -71675 116193.744 -71675 115760.582 -71761.161 115269.375 -72089.375 115070 -72387.761 114870.625 -72089.375 114379.418 -71761.161 113946.256 -71675 113653.744 -71675 113220.582 -71761.161 112729.375 -72089.375 112516.157 -72408.478 112455.183 -72278.642 112026.924 -71888.355 111616.89 -71718.524 111387 -71839.845 111387 -73033 111407 -73033 111407 -73287 111387 -73287 111387 -73307 111133 -73307 111133 -73287 108847 -73287 108847 -73307 108593 -73307 108593 -73287 106307 -73287 106307 -73307 106053 -73307 106053 -73287 103767 -73287 103767 -73307 103513 -73307 103513 -73287 102319.181 -73287 102198.514 -73516.892 102444.817 -74041.358 102717.65 -74290 101710 -74290 101710 -72803.108 102198.514 -72803.108 102319.181 -73033 103513 -73033 103513 -71839.845 103767 -71839.845 103767 -73033 106053 -73033 106053 -71839.845 106307 -71839.845 106307 -73033 108593 -73033 108593 -71839.845 108847 -71839.845 108847 -73033 111133 -73033 111133 -71839.845 110903.11 -71718.524 110493.076 -71888.355 110064.817 -72278.642 109990 -72437.954 109915.183 -72278.642 109486.924 -71888.355 109076.89 -71718.524 108847 -71839.845 108593 -71839.845 108363.11 -71718.524 107953.076 -71888.355 107524.817 -72278.642 107450 -72437.954 107375.183 -72278.642 106946.924 -71888.355 106536.89 -71718.524 106307 -71839.845 106053 -71839.845 105823.11 -71718.524 105413.076 -71888.355 104984.817 -72278.642 104910 -72437.954 104835.183 -72278.642 104406.924 -71888.355 103996.89 -71718.524 103767 -71839.845 103513 -71839.845 103283.11 -71718.524 102873.076 -71888.355 102444.817 -72278.642 102198.514 -72803.108 101710 -72803.108 101710 -66695.952 101950.104 -66994.5 102443.181 -67264.367 102525.961 -67281.904 102748 -67159.915 102748 -65667 103002 -65667 103002 -67159.915 103224.039 -67281.904 103306.819 -67264.367 103799.896 -66994.5 104152.166 -66556.483 104310 -66017 104310 -65667 103002 -65667 102748 -65667 102728 -65667 102728 -65413 102748 -65413 102748 -63920.085 103002 -63920.085 103002 -65413 104310 -65413 104310 -65063 104276.551 -64948.667 104540 -64948.667 104540 -66131.332 104623.26 -66549.908 104940.423 -67024.576 105415.091 -67341.74 105975 -67453.113 106534.908 -67341.74 107009.576 -67024.577 107326.74 -66549.909 107370.755 -66328.632 107545.034 -66749.38 108145.62 -67349.966 108930.322 -67675 109779.678 -67675 110564.38 -67349.966 111164.966 -66749.38 111490 -65964.678 111490 -65115.322 111164.966 -64330.62 110564.38 -63730.034 109779.678 -63405 108930.322 -63405 108145.62 -63730.034 107545.034 -64330.62 107370.755 -64751.368 107326.74 -64530.091 107009.577 -64055.423 106534.909 -63738.26 105975 -63626.887 105415.092 -63738.26 104940.424 -64055.423 104623.26 -64530.091 104540 -64948.667 104276.551 -64948.667 104152.166 -64523.517 103799.896 -64085.5 103306.819 -63815.633 103224.039 -63798.096 103002 -63920.085 102748 -63920.085 102525.961 -63798.096 102443.181 -63815.633 101950.104 -64085.5 101710 -64384.048 101710 -58276.892 102198.514 -58276.892 102444.817 -58801.358 102873.076 -59191.645 103283.11 -59361.476 103513 -59240.155 103513 -58047 103767 -58047 103767 -59240.155 103996.89 -59361.476 104406.924 -59191.645 104835.183 -58801.358 104910 -58642.046 104984.817 -58801.358 105413.076 -59191.645 105823.11 -59361.476 106053 -59240.155 106053 -58047 106307 -58047 106307 -59240.155 106536.89 -59361.476 106946.924 -59191.645 107375.183 -58801.358 107450 -58642.046 107524.817 -58801.358 107953.076 -59191.645 108363.11 -59361.476 108593 -59240.155 108593 -58047 108847 -58047 108847 -59240.155 109076.89 -59361.476 109486.924 -59191.645 109915.183 -58801.358 109990 -58642.046 110064.817 -58801.358 110493.076 -59191.645 110903.11 -59361.476 111133 -59240.155 111133 -58047 108847 -58047 108593 -58047 106307 -58047 106053 -58047 103767 -58047 103513 -58047 102319.181 -58047 102198.514 -58276.892 101710 -58276.892 101710 -56710 102805.433 -56710 102444.817 -57038.642" fill="none" stroke-width="254"/><use xlink:href="#W4QQjs_htbG-bS4qI982_pad-17" x="120920" y="-62850"/><use xlink:href="#W4QQjs_htbG-bS4qI982_pad-17" x="120650" y="-61780"/><use xlink:href="#W4QQjs_htbG-bS4qI982_pad-17" x="124520" y="-67450"/><use xlink:href="#W4QQjs_htbG-bS4qI982_pad-17" x="123580" y="-67510"/><use xlink:href="#W4QQjs_htbG-bS4qI982_pad-17" x="121670" y="-73720"/><use xlink:href="#W4QQjs_htbG-bS4qI982_pad-17" x="121420" y="-64870"/><use xlink:href="#W4QQjs_htbG-bS4qI982_pad-17" x="119890" y="-73570"/><use xlink:href="#W4QQjs_htbG-bS4qI982_pad-17" x="120960" y="-73550"/><use xlink:href="#W4QQjs_htbG-bS4qI982_pad-17" x="119920" y="-71780"/><use xlink:href="#W4QQjs_htbG-bS4qI982_pad-18" x="116340" y="-73160"/><use xlink:href="#W4QQjs_htbG-bS4qI982_pad-18" x="113800" y="-73160"/><use xlink:href="#W4QQjs_htbG-bS4qI982_pad-18" x="111260" y="-73160"/><use xlink:href="#W4QQjs_htbG-bS4qI982_pad-18" x="108720" y="-73160"/><use xlink:href="#W4QQjs_htbG-bS4qI982_pad-18" x="106180" y="-73160"/><use xlink:href="#W4QQjs_htbG-bS4qI982_pad-18" x="103640" y="-73160"/><use xlink:href="#W4QQjs_htbG-bS4qI982_pad-18" x="116340" y="-57920"/><use xlink:href="#W4QQjs_htbG-bS4qI982_pad-18" x="113800" y="-57920"/><use xlink:href="#W4QQjs_htbG-bS4qI982_pad-18" x="111260" y="-57920"/><use xlink:href="#W4QQjs_htbG-bS4qI982_pad-18" x="108720" y="-57920"/><use xlink:href="#W4QQjs_htbG-bS4qI982_pad-18" x="106180" y="-57920"/><use xlink:href="#W4QQjs_htbG-bS4qI982_pad-18" x="103640" y="-57920"/><use xlink:href="#W4QQjs_htbG-bS4qI982_pad-19" x="102875" y="-65540"/><use xlink:href="#W4QQjs_htbG-bS4qI982_pad-20" x="105975" y="-65540"/><use xlink:href="#W4QQjs_htbG-bS4qI982_pad-21" x="114275" y="-65540"/><use xlink:href="#W4QQjs_htbG-bS4qI982_pad-18" x="109355" y="-65540"/></g><g id="zZLUTSZs06vJnWqHePmW_bottom_drill1"><use xlink:href="#uOlDM29um7FkpXYJ_LRu_pad-1" x="119890" y="-73570"/><use xlink:href="#uOlDM29um7FkpXYJ_LRu_pad-1" x="119920" y="-71780"/><use xlink:href="#uOlDM29um7FkpXYJ_LRu_pad-1" x="120650" y="-61780"/><use xlink:href="#uOlDM29um7FkpXYJ_LRu_pad-1" x="120920" y="-62850"/><use xlink:href="#uOlDM29um7FkpXYJ_LRu_pad-1" x="120960" y="-73550"/><use xlink:href="#uOlDM29um7FkpXYJ_LRu_pad-1" x="121420" y="-64870"/><use xlink:href="#uOlDM29um7FkpXYJ_LRu_pad-1" x="121670" y="-73720"/><use xlink:href="#uOlDM29um7FkpXYJ_LRu_pad-1" x="123580" y="-67510"/><use xlink:href="#uOlDM29um7FkpXYJ_LRu_pad-1" x="124520" y="-67450"/><use xlink:href="#uOlDM29um7FkpXYJ_LRu_pad-4" x="103640" y="-73160"/><use xlink:href="#uOlDM29um7FkpXYJ_LRu_pad-4" x="106180" y="-73160"/><use xlink:href="#uOlDM29um7FkpXYJ_LRu_pad-4" x="108720" y="-73160"/><use xlink:href="#uOlDM29um7FkpXYJ_LRu_pad-4" x="111260" y="-73160"/><use xlink:href="#uOlDM29um7FkpXYJ_LRu_pad-4" x="113800" y="-73160"/><use xlink:href="#uOlDM29um7FkpXYJ_LRu_pad-4" x="116340" y="-73160"/><use xlink:href="#uOlDM29um7FkpXYJ_LRu_pad-4" x="103640" y="-57920"/><use xlink:href="#uOlDM29um7FkpXYJ_LRu_pad-4" x="106180" y="-57920"/><use xlink:href="#uOlDM29um7FkpXYJ_LRu_pad-4" x="108720" y="-57920"/><use xlink:href="#uOlDM29um7FkpXYJ_LRu_pad-4" x="111260" y="-57920"/><use xlink:href="#uOlDM29um7FkpXYJ_LRu_pad-4" x="113800" y="-57920"/><use xlink:href="#uOlDM29um7FkpXYJ_LRu_pad-4" x="116340" y="-57920"/><use xlink:href="#uOlDM29um7FkpXYJ_LRu_pad-5" x="109355" y="-65540"/><path d="M 114275 -65040 114275 -66040" fill="none" stroke-width="500"/><path d="M 102875 -65190 102875 -65890 M 105975 -65090 105975 -65990" fill="none" stroke-width="600"/></g><clipPath id="zZLUTSZs06vJnWqHePmW_bottom_outline"><path d="M 101000 -56000 101000 -75000 126000 -75000 126000 -56000 101000 -56000" fill="none" stroke-width="150"/></clipPath><mask id="zZLUTSZs06vJnWqHePmW_bottom_mech-mask"><g fill="#000" stroke="#000"><rect x="101000" y="-75000" width="25000" height="19000" fill="#fff"/><use xlink:href="#zZLUTSZs06vJnWqHePmW_bottom_drill1"/></g></mask><mask id="zZLUTSZs06vJnWqHePmW_bottom_cf-mask"><g fill="#fff" stroke="#fff"><use xlink:href="#zZLUTSZs06vJnWqHePmW_bottom_soldermask"/></g></mask><mask id="zZLUTSZs06vJnWqHePmW_bottom_sm-mask"><g fill="#000" stroke="#000"><rect x="101000" y="-75000" width="25000" height="19000" fill="#fff"/><use xlink:href="#zZLUTSZs06vJnWqHePmW_bottom_soldermask"/></g></mask></defs><g transform="translate(0,-131000) scale(1,-1)"><g mask="url(#zZLUTSZs06vJnWqHePmW_bottom_mech-mask)" clip-path="url(#zZLUTSZs06vJnWqHePmW_bottom_outline)" transform="translate(227000,0) scale(-1,1)"><rect x="101000" y="-75000" width="25000" height="19000" fill="currentColor" class="zZLUTSZs06vJnWqHePmW_fr4"/><use xlink:href="#zZLUTSZs06vJnWqHePmW_bottom_copper" fill="currentColor" stroke="currentColor" class="zZLUTSZs06vJnWqHePmW_cu"/><use xlink:href="#zZLUTSZs06vJnWqHePmW_bottom_copper" fill="currentColor" stroke="currentColor" class="zZLUTSZs06vJnWqHePmW_cf" mask="url(#zZLUTSZs06vJnWqHePmW_bottom_cf-mask)"/><g mask="url(#zZLUTSZs06vJnWqHePmW_bottom_sm-mask)"><rect x="101000" y="-75000" width="25000" height="19000" fill="currentColor" class="zZLUTSZs06vJnWqHePmW_sm"/></g></g></g></svg>