<svg version="1.1" xmlns="http://www.w3.org/2000/svg" xmlns:xlink="http://www.w3.org/1999/xlink" stroke-linecap="round" stroke-linejoin="round" stroke-width="0" fill-rule="evenodd" clip-rule="evenodd" id="fQXm6oPWPd1CkIZ6FD_K_bottom" viewBox="101000 -75000 22000 19000" width="22mm" height="19mm" class="w-100 h-100"><defs><style>.fQXm6oPWPd1CkIZ6FD_K_fr4 {color: #666666;}
.fQXm6oPWPd1CkIZ6FD_K_cu {color: #cccccc;}
.fQXm6oPWPd1CkIZ6FD_K_cf {color: #cc9933;}
.fQXm6oPWPd1CkIZ6FD_K_sm {color: #004200; opacity: 0.75;}
.fQXm6oPWPd1CkIZ6FD_K_ss {color: #ffffff;}
.fQXm6oPWPd1CkIZ6FD_K_sp {color: #999999;}
.fQXm6oPWPd1CkIZ6FD_K_out {color: #000000;}</style><rect x="-850" y="-850" width="1700" height="1700" rx="850" ry="850" id="vJMCkCb5s2RhUqP-8FM7_pad-10"/><circle cx="0" cy="0" r="342.9" id="vJMCkCb5s2RhUqP-8FM7_pad-11"/><circle cx="0" cy="0" r="152.4" id="vJMCkCb5s2RhUqP-8FM7_pad-14"/><circle cx="0" cy="0" r="175" id="vJMCkCb5s2RhUqP-8FM7_pad-15"/><circle cx="0" cy="0" r="152.5" id="C2GeMbPJ7X2xaen9_68H_pad-1"/><circle cx="0" cy="0" r="500" id="C2GeMbPJ7X2xaen9_68H_pad-2"/><g id="fQXm6oPWPd1CkIZ6FD_K_bottom_soldermask"><path d="M 121600.351 -72253.312 121687.062 -72279.616 121773.77 -72305.918 121933.599 -72391.348 121970.091 -72421.296 122073.686 -72506.314 122158.704 -72609.909 122188.652 -72646.401 122188.653 -72646.403 122274.081 -72806.228 122326.688 -72979.649 122344.451 -73160 122326.688 -73340.351 122326.687 -73340.353 122274.082 -73513.77 122188.652 -73673.599 122158.704 -73710.091 122073.686 -73813.686 121970.091 -73898.704 121933.599 -73928.652 121773.77 -74014.082 121687.062 -74040.384 121600.351 -74066.688 121465.192 -74080 121374.808 -74080 121239.649 -74066.688 121152.939 -74040.385 121066.23 -74014.082 120906.401 -73928.652 120869.909 -73898.704 120766.314 -73813.686 120681.296 -73710.091 120651.348 -73673.599 120565.918 -73513.77 120513.313 -73340.353 120513.312 -73340.351 120495.549 -73160 120513.312 -72979.649 120565.919 -72806.228 120651.347 -72646.403 120651.348 -72646.401 120681.296 -72609.909 120766.314 -72506.314 120869.909 -72421.296 120906.401 -72391.348 121066.23 -72305.918 121152.939 -72279.615 121239.649 -72253.312 121374.808 -72240 121465.192 -72240 121600.351 -72253.312 121600.351 -72253.312"/><path d="M 119060.351 -72253.312 119147.062 -72279.616 119233.77 -72305.918 119393.599 -72391.348 119430.091 -72421.296 119533.686 -72506.314 119618.704 -72609.909 119648.652 -72646.401 119648.653 -72646.403 119734.081 -72806.228 119786.688 -72979.649 119804.451 -73160 119786.688 -73340.351 119786.687 -73340.353 119734.082 -73513.77 119648.652 -73673.599 119618.704 -73710.091 119533.686 -73813.686 119430.091 -73898.704 119393.599 -73928.652 119233.77 -74014.082 119147.062 -74040.384 119060.351 -74066.688 118925.192 -74080 118834.808 -74080 118699.649 -74066.688 118612.939 -74040.385 118526.23 -74014.082 118366.401 -73928.652 118329.909 -73898.704 118226.314 -73813.686 118141.296 -73710.091 118111.348 -73673.599 118025.918 -73513.77 117973.313 -73340.353 117973.312 -73340.351 117955.549 -73160 117973.312 -72979.649 118025.919 -72806.228 118111.347 -72646.403 118111.348 -72646.401 118141.296 -72609.909 118226.314 -72506.314 118329.909 -72421.296 118366.401 -72391.348 118526.23 -72305.918 118612.939 -72279.615 118699.649 -72253.312 118834.808 -72240 118925.192 -72240 119060.351 -72253.312 119060.351 -72253.312"/><path d="M 116520.351 -72253.312 116607.062 -72279.616 116693.77 -72305.918 116853.599 -72391.348 116890.091 -72421.296 116993.686 -72506.314 117078.704 -72609.909 117108.652 -72646.401 117108.653 -72646.403 117194.081 -72806.228 117246.688 -72979.649 117264.451 -73160 117246.688 -73340.351 117246.687 -73340.353 117194.082 -73513.77 117108.652 -73673.599 117078.704 -73710.091 116993.686 -73813.686 116890.091 -73898.704 116853.599 -73928.652 116693.77 -74014.082 116607.062 -74040.384 116520.351 -74066.688 116385.192 -74080 116294.808 -74080 116159.649 -74066.688 116072.939 -74040.385 115986.23 -74014.082 115826.401 -73928.652 115789.909 -73898.704 115686.314 -73813.686 115601.296 -73710.091 115571.348 -73673.599 115485.918 -73513.77 115433.313 -73340.353 115433.312 -73340.351 115415.549 -73160 115433.312 -72979.649 115485.919 -72806.228 115571.347 -72646.403 115571.348 -72646.401 115601.296 -72609.909 115686.314 -72506.314 115789.909 -72421.296 115826.401 -72391.348 115986.23 -72305.918 116072.939 -72279.615 116159.649 -72253.312 116294.808 -72240 116385.192 -72240 116520.351 -72253.312 116520.351 -72253.312"/><path d="M 113980.351 -72253.312 114067.062 -72279.616 114153.77 -72305.918 114313.599 -72391.348 114350.091 -72421.296 114453.686 -72506.314 114538.704 -72609.909 114568.652 -72646.401 114568.653 -72646.403 114654.081 -72806.228 114706.688 -72979.649 114724.451 -73160 114706.688 -73340.351 114706.687 -73340.353 114654.082 -73513.77 114568.652 -73673.599 114538.704 -73710.091 114453.686 -73813.686 114350.091 -73898.704 114313.599 -73928.652 114153.77 -74014.082 114067.062 -74040.384 113980.351 -74066.688 113845.192 -74080 113754.808 -74080 113619.649 -74066.688 113532.939 -74040.385 113446.23 -74014.082 113286.401 -73928.652 113249.909 -73898.704 113146.314 -73813.686 113061.296 -73710.091 113031.348 -73673.599 112945.918 -73513.77 112893.313 -73340.353 112893.312 -73340.351 112875.549 -73160 112893.312 -72979.649 112945.919 -72806.228 113031.347 -72646.403 113031.348 -72646.401 113061.296 -72609.909 113146.314 -72506.314 113249.909 -72421.296 113286.401 -72391.348 113446.23 -72305.918 113532.939 -72279.615 113619.649 -72253.312 113754.808 -72240 113845.192 -72240 113980.351 -72253.312 113980.351 -72253.312"/><path d="M 111440.351 -72253.312 111527.062 -72279.616 111613.77 -72305.918 111773.599 -72391.348 111810.091 -72421.296 111913.686 -72506.314 111998.704 -72609.909 112028.652 -72646.401 112028.653 -72646.403 112114.081 -72806.228 112166.688 -72979.649 112184.451 -73160 112166.688 -73340.351 112166.687 -73340.353 112114.082 -73513.77 112028.652 -73673.599 111998.704 -73710.091 111913.686 -73813.686 111810.091 -73898.704 111773.599 -73928.652 111613.77 -74014.082 111527.062 -74040.384 111440.351 -74066.688 111305.192 -74080 111214.808 -74080 111079.649 -74066.688 110992.939 -74040.385 110906.23 -74014.082 110746.401 -73928.652 110709.909 -73898.704 110606.314 -73813.686 110521.296 -73710.091 110491.348 -73673.599 110405.918 -73513.77 110353.313 -73340.353 110353.312 -73340.351 110335.549 -73160 110353.312 -72979.649 110405.919 -72806.228 110491.347 -72646.403 110491.348 -72646.401 110521.296 -72609.909 110606.314 -72506.314 110709.909 -72421.296 110746.401 -72391.348 110906.23 -72305.918 110992.939 -72279.615 111079.649 -72253.312 111214.808 -72240 111305.192 -72240 111440.351 -72253.312 111440.351 -72253.312"/><path d="M 108900.351 -72253.312 108987.062 -72279.616 109073.77 -72305.918 109233.599 -72391.348 109270.091 -72421.296 109373.686 -72506.314 109458.704 -72609.909 109488.652 -72646.401 109488.653 -72646.403 109574.081 -72806.228 109626.688 -72979.649 109644.451 -73160 109626.688 -73340.351 109626.687 -73340.353 109574.082 -73513.77 109488.652 -73673.599 109458.704 -73710.091 109373.686 -73813.686 109270.091 -73898.704 109233.599 -73928.652 109073.77 -74014.082 108987.062 -74040.384 108900.351 -74066.688 108765.192 -74080 108674.808 -74080 108539.649 -74066.688 108452.939 -74040.385 108366.23 -74014.082 108206.401 -73928.652 108169.909 -73898.704 108066.314 -73813.686 107981.296 -73710.091 107951.348 -73673.599 107865.918 -73513.77 107813.313 -73340.353 107813.312 -73340.351 107795.549 -73160 107813.312 -72979.649 107865.919 -72806.228 107951.347 -72646.403 107951.348 -72646.401 107981.296 -72609.909 108066.314 -72506.314 108169.909 -72421.296 108206.401 -72391.348 108366.23 -72305.918 108452.939 -72279.615 108539.649 -72253.312 108674.808 -72240 108765.192 -72240 108900.351 -72253.312 108900.351 -72253.312"/><path d="M 106360.351 -72253.312 106447.062 -72279.616 106533.77 -72305.918 106693.599 -72391.348 106730.091 -72421.296 106833.686 -72506.314 106918.704 -72609.909 106948.652 -72646.401 106948.653 -72646.403 107034.081 -72806.228 107086.688 -72979.649 107104.451 -73160 107086.688 -73340.351 107086.687 -73340.353 107034.082 -73513.77 106948.652 -73673.599 106918.704 -73710.091 106833.686 -73813.686 106730.091 -73898.704 106693.599 -73928.652 106533.77 -74014.082 106447.062 -74040.384 106360.351 -74066.688 106225.192 -74080 106134.808 -74080 105999.649 -74066.688 105912.939 -74040.385 105826.23 -74014.082 105666.401 -73928.652 105629.909 -73898.704 105526.314 -73813.686 105441.296 -73710.091 105411.348 -73673.599 105325.918 -73513.77 105273.313 -73340.353 105273.312 -73340.351 105255.549 -73160 105273.312 -72979.649 105325.919 -72806.228 105411.347 -72646.403 105411.348 -72646.401 105441.296 -72609.909 105526.314 -72506.314 105629.909 -72421.296 105666.401 -72391.348 105826.23 -72305.918 105912.939 -72279.615 105999.649 -72253.312 106134.808 -72240 106225.192 -72240 106360.351 -72253.312 106360.351 -72253.312"/><path d="M 103820.351 -72253.312 103907.062 -72279.616 103993.77 -72305.918 104153.599 -72391.348 104190.091 -72421.296 104293.686 -72506.314 104378.704 -72609.909 104408.652 -72646.401 104408.653 -72646.403 104494.081 -72806.228 104546.688 -72979.649 104564.451 -73160 104546.688 -73340.351 104546.687 -73340.353 104494.082 -73513.77 104408.652 -73673.599 104378.704 -73710.091 104293.686 -73813.686 104190.091 -73898.704 104153.599 -73928.652 103993.77 -74014.082 103907.062 -74040.384 103820.351 -74066.688 103685.192 -74080 103594.808 -74080 103459.649 -74066.688 103372.939 -74040.385 103286.23 -74014.082 103126.401 -73928.652 103089.909 -73898.704 102986.314 -73813.686 102901.296 -73710.091 102871.348 -73673.599 102785.918 -73513.77 102733.313 -73340.353 102733.312 -73340.351 102715.549 -73160 102733.312 -72979.649 102785.919 -72806.228 102871.347 -72646.403 102871.348 -72646.401 102901.296 -72609.909 102986.314 -72506.314 103089.909 -72421.296 103126.401 -72391.348 103286.23 -72305.918 103372.939 -72279.615 103459.649 -72253.312 103594.808 -72240 103685.192 -72240 103820.351 -72253.312 103820.351 -72253.312"/><path d="M 103820.351 -57013.312 103907.062 -57039.616 103993.77 -57065.918 104153.599 -57151.348 104190.091 -57181.296 104293.686 -57266.314 104378.704 -57369.909 104408.652 -57406.401 104408.653 -57406.403 104494.081 -57566.228 104546.688 -57739.649 104564.451 -57920 104546.688 -58100.351 104546.687 -58100.353 104494.082 -58273.77 104408.652 -58433.599 104378.704 -58470.091 104293.686 -58573.686 104190.091 -58658.704 104153.599 -58688.652 103993.77 -58774.082 103907.062 -58800.384 103820.351 -58826.688 103685.192 -58840 103594.808 -58840 103459.649 -58826.688 103372.938 -58800.384 103286.23 -58774.082 103126.401 -58688.652 103089.909 -58658.704 102986.314 -58573.686 102901.296 -58470.091 102871.348 -58433.599 102785.918 -58273.77 102733.313 -58100.353 102733.312 -58100.351 102715.549 -57920 102733.312 -57739.649 102785.919 -57566.228 102871.347 -57406.403 102871.348 -57406.401 102901.296 -57369.909 102986.314 -57266.314 103089.909 -57181.296 103126.401 -57151.348 103286.23 -57065.918 103372.939 -57039.615 103459.649 -57013.312 103594.808 -57000 103685.192 -57000 103820.351 -57013.312 103820.351 -57013.312"/><path d="M 106360.351 -57013.312 106447.062 -57039.616 106533.77 -57065.918 106693.599 -57151.348 106730.091 -57181.296 106833.686 -57266.314 106918.704 -57369.909 106948.652 -57406.401 106948.653 -57406.403 107034.081 -57566.228 107086.688 -57739.649 107104.451 -57920 107086.688 -58100.351 107086.687 -58100.353 107034.082 -58273.77 106948.652 -58433.599 106918.704 -58470.091 106833.686 -58573.686 106730.091 -58658.704 106693.599 -58688.652 106533.77 -58774.082 106447.062 -58800.384 106360.351 -58826.688 106225.192 -58840 106134.808 -58840 105999.649 -58826.688 105912.938 -58800.384 105826.23 -58774.082 105666.401 -58688.652 105629.909 -58658.704 105526.314 -58573.686 105441.296 -58470.091 105411.348 -58433.599 105325.918 -58273.77 105273.313 -58100.353 105273.312 -58100.351 105255.549 -57920 105273.312 -57739.649 105325.919 -57566.228 105411.347 -57406.403 105411.348 -57406.401 105441.296 -57369.909 105526.314 -57266.314 105629.909 -57181.296 105666.401 -57151.348 105826.23 -57065.918 105912.939 -57039.615 105999.649 -57013.312 106134.808 -57000 106225.192 -57000 106360.351 -57013.312 106360.351 -57013.312"/><path d="M 108900.351 -57013.312 108987.062 -57039.616 109073.77 -57065.918 109233.599 -57151.348 109270.091 -57181.296 109373.686 -57266.314 109458.704 -57369.909 109488.652 -57406.401 109488.653 -57406.403 109574.081 -57566.228 109626.688 -57739.649 109644.451 -57920 109626.688 -58100.351 109626.687 -58100.353 109574.082 -58273.77 109488.652 -58433.599 109458.704 -58470.091 109373.686 -58573.686 109270.091 -58658.704 109233.599 -58688.652 109073.77 -58774.082 108987.062 -58800.384 108900.351 -58826.688 108765.192 -58840 108674.808 -58840 108539.649 -58826.688 108452.938 -58800.384 108366.23 -58774.082 108206.401 -58688.652 108169.909 -58658.704 108066.314 -58573.686 107981.296 -58470.091 107951.348 -58433.599 107865.918 -58273.77 107813.313 -58100.353 107813.312 -58100.351 107795.549 -57920 107813.312 -57739.649 107865.919 -57566.228 107951.347 -57406.403 107951.348 -57406.401 107981.296 -57369.909 108066.314 -57266.314 108169.909 -57181.296 108206.401 -57151.348 108366.23 -57065.918 108452.939 -57039.615 108539.649 -57013.312 108674.808 -57000 108765.192 -57000 108900.351 -57013.312 108900.351 -57013.312"/><path d="M 111440.351 -57013.312 111527.062 -57039.616 111613.77 -57065.918 111773.599 -57151.348 111810.091 -57181.296 111913.686 -57266.314 111998.704 -57369.909 112028.652 -57406.401 112028.653 -57406.403 112114.081 -57566.228 112166.688 -57739.649 112184.451 -57920 112166.688 -58100.351 112166.687 -58100.353 112114.082 -58273.77 112028.652 -58433.599 111998.704 -58470.091 111913.686 -58573.686 111810.091 -58658.704 111773.599 -58688.652 111613.77 -58774.082 111527.062 -58800.384 111440.351 -58826.688 111305.192 -58840 111214.808 -58840 111079.649 -58826.688 110992.938 -58800.384 110906.23 -58774.082 110746.401 -58688.652 110709.909 -58658.704 110606.314 -58573.686 110521.296 -58470.091 110491.348 -58433.599 110405.918 -58273.77 110353.313 -58100.353 110353.312 -58100.351 110335.549 -57920 110353.312 -57739.649 110405.919 -57566.228 110491.347 -57406.403 110491.348 -57406.401 110521.296 -57369.909 110606.314 -57266.314 110709.909 -57181.296 110746.401 -57151.348 110906.23 -57065.918 110992.939 -57039.615 111079.649 -57013.312 111214.808 -57000 111305.192 -57000 111440.351 -57013.312 111440.351 -57013.312"/><path d="M 113980.351 -57013.312 114067.062 -57039.616 114153.77 -57065.918 114313.599 -57151.348 114350.091 -57181.296 114453.686 -57266.314 114538.704 -57369.909 114568.652 -57406.401 114568.653 -57406.403 114654.081 -57566.228 114706.688 -57739.649 114724.451 -57920 114706.688 -58100.351 114706.687 -58100.353 114654.082 -58273.77 114568.652 -58433.599 114538.704 -58470.091 114453.686 -58573.686 114350.091 -58658.704 114313.599 -58688.652 114153.77 -58774.082 114067.062 -58800.384 113980.351 -58826.688 113845.192 -58840 113754.808 -58840 113619.649 -58826.688 113532.938 -58800.384 113446.23 -58774.082 113286.401 -58688.652 113249.909 -58658.704 113146.314 -58573.686 113061.296 -58470.091 113031.348 -58433.599 112945.918 -58273.77 112893.313 -58100.353 112893.312 -58100.351 112875.549 -57920 112893.312 -57739.649 112945.919 -57566.228 113031.347 -57406.403 113031.348 -57406.401 113061.296 -57369.909 113146.314 -57266.314 113249.909 -57181.296 113286.401 -57151.348 113446.23 -57065.918 113532.939 -57039.615 113619.649 -57013.312 113754.808 -57000 113845.192 -57000 113980.351 -57013.312 113980.351 -57013.312"/><path d="M 116520.351 -57013.312 116607.062 -57039.616 116693.77 -57065.918 116853.599 -57151.348 116890.091 -57181.296 116993.686 -57266.314 117078.704 -57369.909 117108.652 -57406.401 117108.653 -57406.403 117194.081 -57566.228 117246.688 -57739.649 117264.451 -57920 117246.688 -58100.351 117246.687 -58100.353 117194.082 -58273.77 117108.652 -58433.599 117078.704 -58470.091 116993.686 -58573.686 116890.091 -58658.704 116853.599 -58688.652 116693.77 -58774.082 116607.062 -58800.384 116520.351 -58826.688 116385.192 -58840 116294.808 -58840 116159.649 -58826.688 116072.938 -58800.384 115986.23 -58774.082 115826.401 -58688.652 115789.909 -58658.704 115686.314 -58573.686 115601.296 -58470.091 115571.348 -58433.599 115485.918 -58273.77 115433.313 -58100.353 115433.312 -58100.351 115415.549 -57920 115433.312 -57739.649 115485.919 -57566.228 115571.347 -57406.403 115571.348 -57406.401 115601.296 -57369.909 115686.314 -57266.314 115789.909 -57181.296 115826.401 -57151.348 115986.23 -57065.918 116072.939 -57039.615 116159.649 -57013.312 116294.808 -57000 116385.192 -57000 116520.351 -57013.312 116520.351 -57013.312"/><path d="M 119060.351 -57013.312 119147.062 -57039.616 119233.77 -57065.918 119393.599 -57151.348 119430.091 -57181.296 119533.686 -57266.314 119618.704 -57369.909 119648.652 -57406.401 119648.653 -57406.403 119734.081 -57566.228 119786.688 -57739.649 119804.451 -57920 119786.688 -58100.351 119786.687 -58100.353 119734.082 -58273.77 119648.652 -58433.599 119618.704 -58470.091 119533.686 -58573.686 119430.091 -58658.704 119393.599 -58688.652 119233.77 -58774.082 119147.062 -58800.384 119060.351 -58826.688 118925.192 -58840 118834.808 -58840 118699.649 -58826.688 118612.938 -58800.384 118526.23 -58774.082 118366.401 -58688.652 118329.909 -58658.704 118226.314 -58573.686 118141.296 -58470.091 118111.348 -58433.599 118025.918 -58273.77 117973.313 -58100.353 117973.312 -58100.351 117955.549 -57920 117973.312 -57739.649 118025.919 -57566.228 118111.347 -57406.403 118111.348 -57406.401 118141.296 -57369.909 118226.314 -57266.314 118329.909 -57181.296 118366.401 -57151.348 118526.23 -57065.918 118612.939 -57039.615 118699.649 -57013.312 118834.808 -57000 118925.192 -57000 119060.351 -57013.312 119060.351 -57013.312"/><path d="M 121600.351 -57013.312 121687.062 -57039.616 121773.77 -57065.918 121933.599 -57151.348 121970.091 -57181.296 122073.686 -57266.314 122158.704 -57369.909 122188.652 -57406.401 122188.653 -57406.403 122274.081 -57566.228 122326.688 -57739.649 122344.451 -57920 122326.688 -58100.351 122326.687 -58100.353 122274.082 -58273.77 122188.652 -58433.599 122158.704 -58470.091 122073.686 -58573.686 121970.091 -58658.704 121933.599 -58688.652 121773.77 -58774.082 121687.062 -58800.384 121600.351 -58826.688 121465.192 -58840 121374.808 -58840 121239.649 -58826.688 121152.938 -58800.384 121066.23 -58774.082 120906.401 -58688.652 120869.909 -58658.704 120766.314 -58573.686 120681.296 -58470.091 120651.348 -58433.599 120565.918 -58273.77 120513.313 -58100.353 120513.312 -58100.351 120495.549 -57920 120513.312 -57739.649 120565.919 -57566.228 120651.347 -57406.403 120651.348 -57406.401 120681.296 -57369.909 120766.314 -57266.314 120869.909 -57181.296 120906.401 -57151.348 121066.23 -57065.918 121152.939 -57039.615 121239.649 -57013.312 121374.808 -57000 121465.192 -57000 121600.351 -57013.312 121600.351 -57013.312"/></g><g id="fQXm6oPWPd1CkIZ6FD_K_bottom_copper"><use xlink:href="#vJMCkCb5s2RhUqP-8FM7_pad-10" x="103640" y="-73160"/><use xlink:href="#vJMCkCb5s2RhUqP-8FM7_pad-10" x="106180" y="-73160"/><use xlink:href="#vJMCkCb5s2RhUqP-8FM7_pad-10" x="108720" y="-73160"/><use xlink:href="#vJMCkCb5s2RhUqP-8FM7_pad-10" x="111260" y="-73160"/><use xlink:href="#vJMCkCb5s2RhUqP-8FM7_pad-10" x="113800" y="-73160"/><use xlink:href="#vJMCkCb5s2RhUqP-8FM7_pad-10" x="116340" y="-73160"/><use xlink:href="#vJMCkCb5s2RhUqP-8FM7_pad-10" x="118880" y="-73160"/><use xlink:href="#vJMCkCb5s2RhUqP-8FM7_pad-10" x="121420" y="-73160"/><use xlink:href="#vJMCkCb5s2RhUqP-8FM7_pad-10" x="121420" y="-57920"/><use xlink:href="#vJMCkCb5s2RhUqP-8FM7_pad-10" x="118880" y="-57920"/><use xlink:href="#vJMCkCb5s2RhUqP-8FM7_pad-10" x="116340" y="-57920"/><use xlink:href="#vJMCkCb5s2RhUqP-8FM7_pad-10" x="113800" y="-57920"/><use xlink:href="#vJMCkCb5s2RhUqP-8FM7_pad-10" x="111260" y="-57920"/><use xlink:href="#vJMCkCb5s2RhUqP-8FM7_pad-10" x="108720" y="-57920"/><use xlink:href="#vJMCkCb5s2RhUqP-8FM7_pad-10" x="106180" y="-57920"/><use xlink:href="#vJMCkCb5s2RhUqP-8FM7_pad-10" x="103640" y="-57920"/><use xlink:href="#vJMCkCb5s2RhUqP-8FM7_pad-11" x="110290" y="-69130"/><use xlink:href="#vJMCkCb5s2RhUqP-8FM7_pad-11" x="107900" y="-69300"/><use xlink:href="#vJMCkCb5s2RhUqP-8FM7_pad-11" x="109190" y="-69220"/><use xlink:href="#vJMCkCb5s2RhUqP-8FM7_pad-11" x="108560" y="-68200"/><use xlink:href="#vJMCkCb5s2RhUqP-8FM7_pad-11" x="117870" y="-67958.501"/><use xlink:href="#vJMCkCb5s2RhUqP-8FM7_pad-11" x="118860" y="-67308.501"/><use xlink:href="#vJMCkCb5s2RhUqP-8FM7_pad-11" x="120860" y="-66140.002"/><use xlink:href="#vJMCkCb5s2RhUqP-8FM7_pad-11" x="107930" y="-61400"/><use xlink:href="#vJMCkCb5s2RhUqP-8FM7_pad-11" x="107930" y="-62230"/><use xlink:href="#vJMCkCb5s2RhUqP-8FM7_pad-11" x="107930" y="-63050"/><path d="M 117870 -67958.501 117870 -59450 116340 -57920 M 119580 -58620 118880 -57920 M 119580 -66588.501 119580 -58620 M 118860 -67308.501 119580 -66588.501 M 121420 -57920 121420 -65580.002 121202.899 -65797.103 120860 -66140.002 M 103640 -59122.081 104567.919 -60050 M 103640 -57920 103640 -59122.081 M 104567.919 -60050 107150 -60050 M 107930 -60830 107930 -61400 M 107150 -60050 107930 -60830 M 107930 -61400 107930 -63050" fill="none" stroke-width="406.4"/><path d="M 102569.375 -56849.375 102241.161 -57340.582 102125.908 -57920 102241.161 -58499.418 102569.375 -58990.625 102788.333 -59136.928 102850.434 -59449.13 102988.929 -59656.403 102988.931 -59656.405 103035.693 -59726.389 103105.676 -59773.151 103916.849 -60584.324 103963.611 -60654.308 104033.595 -60701.07 104033.596 -60701.071 104240.869 -60839.567 104295.826 -60850.498 104485.365 -60888.2 104485.368 -60888.2 104567.919 -60904.62 104650.469 -60888.2 106802.807 -60888.2 107001.303 -61086.697 106952.1 -61205.484 106952.1 -61594.516 107043.428 -61815 106952.1 -62035.484 106952.1 -62424.516 107041.357 -62640 106952.1 -62855.484 106952.1 -63244.516 107100.977 -63603.936 107376.064 -63879.023 107735.484 -64027.9 108124.516 -64027.9 108483.936 -63879.023 108759.023 -63603.936 108907.9 -63244.516 108907.9 -62855.484 108818.643 -62640 108907.9 -62424.516 108907.9 -62035.484 108816.572 -61815 108907.9 -61594.516 108907.9 -61205.484 108774.157 -60882.601 108784.62 -60830 108768.2 -60747.447 108768.2 -60747.446 108719.567 -60502.951 108719.567 -60502.95 108581.071 -60295.677 108581.07 -60295.676 108534.308 -60225.692 108464.324 -60178.93 107801.072 -59515.678 107754.308 -59445.692 107477.049 -59260.433 107232.554 -59211.8 107232.549 -59211.8 107150 -59195.38 107067.451 -59211.8 106898.262 -59211.8 106946.924 -59191.645 107375.183 -58801.358 107450 -58642.046 107524.817 -58801.358 107953.076 -59191.645 108363.11 -59361.476 108593 -59240.155 108593 -58047 108847 -58047 108847 -59240.155 109076.89 -59361.476 109486.924 -59191.645 109915.183 -58801.358 109990 -58642.046 110064.817 -58801.358 110493.076 -59191.645 110903.11 -59361.476 111133 -59240.155 111133 -58047 108847 -58047 108593 -58047 106307 -58047 106307 -58067 106053 -58067 106053 -58047 106033 -58047 106033 -57793 106053 -57793 106053 -57773 106307 -57773 106307 -57793 108593 -57793 108593 -57773 108847 -57773 108847 -57793 111133 -57793 111133 -57773 111387 -57773 111387 -57793 111407 -57793 111407 -58047 111387 -58047 111387 -59240.155 111616.89 -59361.476 112026.924 -59191.645 112455.183 -58801.358 112516.157 -58671.522 112729.375 -58990.625 113220.582 -59318.839 113653.744 -59405 113946.256 -59405 114379.418 -59318.839 114870.625 -58990.625 115070 -58692.239 115269.375 -58990.625 115760.582 -59318.839 116193.744 -59405 116486.256 -59405 116614.164 -59379.558 117031.801 -59797.195 117031.8 -67426.72 116892.1 -67763.985 116892.1 -68153.017 117040.977 -68512.437 117316.064 -68787.524 117675.484 -68936.401 118064.516 -68936.401 118423.936 -68787.524 118699.023 -68512.437 118792.65 -68286.401 119054.516 -68286.401 119413.936 -68137.524 119689.023 -67862.437 119828.723 -67525.171 120114.324 -67239.571 120184.308 -67192.809 120234.36 -67117.902 120316.733 -66994.622 120327.816 -66978.035 120665.484 -67117.902 121054.516 -67117.902 121413.936 -66969.025 121689.023 -66693.938 121828.724 -66356.671 121954.321 -66231.074 122024.308 -66184.31 122209.567 -65907.051 122258.2 -65662.556 122258.2 -65662.552 122274.62 -65580.003 122258.2 -65497.454 122258.2 -59145.926 122290.001 -59124.678 122290 -71955.322 121999.418 -71761.161 121566.256 -71675 121273.744 -71675 120840.582 -71761.161 120349.375 -72089.375 120150 -72387.761 119950.625 -72089.375 119459.418 -71761.161 119026.256 -71675 118733.744 -71675 118300.582 -71761.161 117809.375 -72089.375 117610 -72387.761 117410.625 -72089.375 116919.418 -71761.161 116486.256 -71675 116193.744 -71675 115760.582 -71761.161 115269.375 -72089.375 115070 -72387.761 114870.625 -72089.375 114379.418 -71761.161 113946.256 -71675 113653.744 -71675 113220.582 -71761.161 112729.375 -72089.375 112530 -72387.761 112330.625 -72089.375 111839.418 -71761.161 111406.256 -71675 111113.744 -71675 110680.582 -71761.161 110189.375 -72089.375 109990 -72387.761 109790.625 -72089.375 109299.418 -71761.161 108866.256 -71675 108573.744 -71675 108140.582 -71761.161 107649.375 -72089.375 107450 -72387.761 107250.625 -72089.375 106759.418 -71761.161 106326.256 -71675 106033.744 -71675 105600.582 -71761.161 105109.375 -72089.375 104910 -72387.761 104710.625 -72089.375 104219.418 -71761.161 103786.256 -71675 103493.744 -71675 103060.582 -71761.161 102569.375 -72089.375 102241.161 -72580.582 102125.908 -73160 102241.161 -73739.418 102569.375 -74230.625 102658.236 -74290 101710 -74290 101710 -56710 102777.964 -56710 102569.375 -56849.375 102569.375 -56849.375"/><path d="M 102569.375 -56849.375 102241.161 -57340.582 102125.908 -57920 102241.161 -58499.418 102569.375 -58990.625 102788.333 -59136.928 102850.434 -59449.13 102988.929 -59656.403 102988.931 -59656.405 103035.693 -59726.389 103105.676 -59773.151 103916.849 -60584.324 103963.611 -60654.308 104033.595 -60701.07 104033.596 -60701.071 104240.869 -60839.567 104295.826 -60850.498 104485.365 -60888.2 104485.368 -60888.2 104567.919 -60904.62 104650.469 -60888.2 106802.807 -60888.2 107001.303 -61086.697 106952.1 -61205.484 106952.1 -61594.516 107043.428 -61815 106952.1 -62035.484 106952.1 -62424.516 107041.357 -62640 106952.1 -62855.484 106952.1 -63244.516 107100.977 -63603.936 107376.064 -63879.023 107735.484 -64027.9 108124.516 -64027.9 108483.936 -63879.023 108759.023 -63603.936 108907.9 -63244.516 108907.9 -62855.484 108818.643 -62640 108907.9 -62424.516 108907.9 -62035.484 108816.572 -61815 108907.9 -61594.516 108907.9 -61205.484 108774.157 -60882.601 108784.62 -60830 108768.2 -60747.447 108768.2 -60747.446 108719.567 -60502.951 108719.567 -60502.95 108581.071 -60295.677 108581.07 -60295.676 108534.308 -60225.692 108464.324 -60178.93 107801.072 -59515.678 107754.308 -59445.692 107477.049 -59260.433 107232.554 -59211.8 107232.549 -59211.8 107150 -59195.38 107067.451 -59211.8 106898.262 -59211.8 106946.924 -59191.645 107375.183 -58801.358 107450 -58642.046 107524.817 -58801.358 107953.076 -59191.645 108363.11 -59361.476 108593 -59240.155 108593 -58047 108847 -58047 108847 -59240.155 109076.89 -59361.476 109486.924 -59191.645 109915.183 -58801.358 109990 -58642.046 110064.817 -58801.358 110493.076 -59191.645 110903.11 -59361.476 111133 -59240.155 111133 -58047 108847 -58047 108593 -58047 106307 -58047 106307 -58067 106053 -58067 106053 -58047 106033 -58047 106033 -57793 106053 -57793 106053 -57773 106307 -57773 106307 -57793 108593 -57793 108593 -57773 108847 -57773 108847 -57793 111133 -57793 111133 -57773 111387 -57773 111387 -57793 111407 -57793 111407 -58047 111387 -58047 111387 -59240.155 111616.89 -59361.476 112026.924 -59191.645 112455.183 -58801.358 112516.157 -58671.522 112729.375 -58990.625 113220.582 -59318.839 113653.744 -59405 113946.256 -59405 114379.418 -59318.839 114870.625 -58990.625 115070 -58692.239 115269.375 -58990.625 115760.582 -59318.839 116193.744 -59405 116486.256 -59405 116614.164 -59379.558 117031.801 -59797.195 117031.8 -67426.72 116892.1 -67763.985 116892.1 -68153.017 117040.977 -68512.437 117316.064 -68787.524 117675.484 -68936.401 118064.516 -68936.401 118423.936 -68787.524 118699.023 -68512.437 118792.65 -68286.401 119054.516 -68286.401 119413.936 -68137.524 119689.023 -67862.437 119828.723 -67525.171 120114.324 -67239.571 120184.308 -67192.809 120234.36 -67117.902 120316.733 -66994.622 120327.816 -66978.035 120665.484 -67117.902 121054.516 -67117.902 121413.936 -66969.025 121689.023 -66693.938 121828.724 -66356.671 121954.321 -66231.074 122024.308 -66184.31 122209.567 -65907.051 122258.2 -65662.556 122258.2 -65662.552 122274.62 -65580.003 122258.2 -65497.454 122258.2 -59145.926 122290.001 -59124.678 122290 -71955.322 121999.418 -71761.161 121566.256 -71675 121273.744 -71675 120840.582 -71761.161 120349.375 -72089.375 120150 -72387.761 119950.625 -72089.375 119459.418 -71761.161 119026.256 -71675 118733.744 -71675 118300.582 -71761.161 117809.375 -72089.375 117610 -72387.761 117410.625 -72089.375 116919.418 -71761.161 116486.256 -71675 116193.744 -71675 115760.582 -71761.161 115269.375 -72089.375 115070 -72387.761 114870.625 -72089.375 114379.418 -71761.161 113946.256 -71675 113653.744 -71675 113220.582 -71761.161 112729.375 -72089.375 112530 -72387.761 112330.625 -72089.375 111839.418 -71761.161 111406.256 -71675 111113.744 -71675 110680.582 -71761.161 110189.375 -72089.375 109990 -72387.761 109790.625 -72089.375 109299.418 -71761.161 108866.256 -71675 108573.744 -71675 108140.582 -71761.161 107649.375 -72089.375 107450 -72387.761 107250.625 -72089.375 106759.418 -71761.161 106326.256 -71675 106033.744 -71675 105600.582 -71761.161 105109.375 -72089.375 104910 -72387.761 104710.625 -72089.375 104219.418 -71761.161 103786.256 -71675 103493.744 -71675 103060.582 -71761.161 102569.375 -72089.375 102241.161 -72580.582 102125.908 -73160 102241.161 -73739.418 102569.375 -74230.625 102658.236 -74290 101710 -74290 101710 -56710 102777.964 -56710 102569.375 -56849.375" fill="none" stroke-width="254"/><use xlink:href="#vJMCkCb5s2RhUqP-8FM7_pad-14" x="110290" y="-69130"/><use xlink:href="#vJMCkCb5s2RhUqP-8FM7_pad-14" x="107900" y="-69300"/><use xlink:href="#vJMCkCb5s2RhUqP-8FM7_pad-14" x="109190" y="-69220"/><use xlink:href="#vJMCkCb5s2RhUqP-8FM7_pad-14" x="108560" y="-68200"/><use xlink:href="#vJMCkCb5s2RhUqP-8FM7_pad-14" x="117870" y="-67958.501"/><use xlink:href="#vJMCkCb5s2RhUqP-8FM7_pad-14" x="118860" y="-67308.501"/><use xlink:href="#vJMCkCb5s2RhUqP-8FM7_pad-14" x="120860" y="-66140.002"/><use xlink:href="#vJMCkCb5s2RhUqP-8FM7_pad-14" x="107930" y="-61400"/><use xlink:href="#vJMCkCb5s2RhUqP-8FM7_pad-14" x="107930" y="-62230"/><use xlink:href="#vJMCkCb5s2RhUqP-8FM7_pad-14" x="107930" y="-63050"/><use xlink:href="#vJMCkCb5s2RhUqP-8FM7_pad-15" x="103640" y="-73160"/><use xlink:href="#vJMCkCb5s2RhUqP-8FM7_pad-15" x="106180" y="-73160"/><use xlink:href="#vJMCkCb5s2RhUqP-8FM7_pad-15" x="108720" y="-73160"/><use xlink:href="#vJMCkCb5s2RhUqP-8FM7_pad-15" x="111260" y="-73160"/><use xlink:href="#vJMCkCb5s2RhUqP-8FM7_pad-15" x="113800" y="-73160"/><use xlink:href="#vJMCkCb5s2RhUqP-8FM7_pad-15" x="116340" y="-73160"/><use xlink:href="#vJMCkCb5s2RhUqP-8FM7_pad-15" x="118880" y="-73160"/><use xlink:href="#vJMCkCb5s2RhUqP-8FM7_pad-15" x="121420" y="-73160"/><use xlink:href="#vJMCkCb5s2RhUqP-8FM7_pad-15" x="121420" y="-57920"/><use xlink:href="#vJMCkCb5s2RhUqP-8FM7_pad-15" x="118880" y="-57920"/><use xlink:href="#vJMCkCb5s2RhUqP-8FM7_pad-15" x="116340" y="-57920"/><use xlink:href="#vJMCkCb5s2RhUqP-8FM7_pad-15" x="113800" y="-57920"/><use xlink:href="#vJMCkCb5s2RhUqP-8FM7_pad-15" x="111260" y="-57920"/><use xlink:href="#vJMCkCb5s2RhUqP-8FM7_pad-15" x="108720" y="-57920"/><use xlink:href="#vJMCkCb5s2RhUqP-8FM7_pad-15" x="106180" y="-57920"/><use xlink:href="#vJMCkCb5s2RhUqP-8FM7_pad-15" x="103640" y="-57920"/></g><g id="fQXm6oPWPd1CkIZ6FD_K_bottom_drill1"><use xlink:href="#C2GeMbPJ7X2xaen9_68H_pad-1" x="107900" y="-69300"/><use xlink:href="#C2GeMbPJ7X2xaen9_68H_pad-1" x="107930" y="-61400"/><use xlink:href="#C2GeMbPJ7X2xaen9_68H_pad-1" x="107930" y="-62230"/><use xlink:href="#C2GeMbPJ7X2xaen9_68H_pad-1" x="107930" y="-63050"/><use xlink:href="#C2GeMbPJ7X2xaen9_68H_pad-1" x="108560" y="-68200"/><use xlink:href="#C2GeMbPJ7X2xaen9_68H_pad-1" x="109190" y="-69220"/><use xlink:href="#C2GeMbPJ7X2xaen9_68H_pad-1" x="110290" y="-69130"/><use xlink:href="#C2GeMbPJ7X2xaen9_68H_pad-1" x="117870" y="-67959"/><use xlink:href="#C2GeMbPJ7X2xaen9_68H_pad-1" x="118860" y="-67309"/><use xlink:href="#C2GeMbPJ7X2xaen9_68H_pad-1" x="120860" y="-66140"/><use xlink:href="#C2GeMbPJ7X2xaen9_68H_pad-2" x="103640" y="-73160"/><use xlink:href="#C2GeMbPJ7X2xaen9_68H_pad-2" x="106180" y="-73160"/><use xlink:href="#C2GeMbPJ7X2xaen9_68H_pad-2" x="108720" y="-73160"/><use xlink:href="#C2GeMbPJ7X2xaen9_68H_pad-2" x="111260" y="-73160"/><use xlink:href="#C2GeMbPJ7X2xaen9_68H_pad-2" x="113800" y="-73160"/><use xlink:href="#C2GeMbPJ7X2xaen9_68H_pad-2" x="116340" y="-73160"/><use xlink:href="#C2GeMbPJ7X2xaen9_68H_pad-2" x="118880" y="-73160"/><use xlink:href="#C2GeMbPJ7X2xaen9_68H_pad-2" x="121420" y="-73160"/><use xlink:href="#C2GeMbPJ7X2xaen9_68H_pad-2" x="103640" y="-57920"/><use xlink:href="#C2GeMbPJ7X2xaen9_68H_pad-2" x="106180" y="-57920"/><use xlink:href="#C2GeMbPJ7X2xaen9_68H_pad-2" x="108720" y="-57920"/><use xlink:href="#C2GeMbPJ7X2xaen9_68H_pad-2" x="111260" y="-57920"/><use xlink:href="#C2GeMbPJ7X2xaen9_68H_pad-2" x="113800" y="-57920"/><use xlink:href="#C2GeMbPJ7X2xaen9_68H_pad-2" x="116340" y="-57920"/><use xlink:href="#C2GeMbPJ7X2xaen9_68H_pad-2" x="118880" y="-57920"/><use xlink:href="#C2GeMbPJ7X2xaen9_68H_pad-2" x="121420" y="-57920"/></g><clipPath id="fQXm6oPWPd1CkIZ6FD_K_bottom_outline"><path d="M 101000 -56000 101000 -75000 123000 -75000 123000 -56000 101000 -56000" fill="none" stroke-width="150"/></clipPath><mask id="fQXm6oPWPd1CkIZ6FD_K_bottom_mech-mask"><g fill="#000" stroke="#000"><rect x="101000" y="-75000" width="22000" height="19000" fill="#fff"/><use xlink:href="#fQXm6oPWPd1CkIZ6FD_K_bottom_drill1"/></g></mask><mask id="fQXm6oPWPd1CkIZ6FD_K_bottom_cf-mask"><g fill="#fff" stroke="#fff"><use xlink:href="#fQXm6oPWPd1CkIZ6FD_K_bottom_soldermask"/></g></mask><mask id="fQXm6oPWPd1CkIZ6FD_K_bottom_sm-mask"><g fill="#000" stroke="#000"><rect x="101000" y="-75000" width="22000" height="19000" fill="#fff"/><use xlink:href="#fQXm6oPWPd1CkIZ6FD_K_bottom_soldermask"/></g></mask></defs><g transform="translate(0,-131000) scale(1,-1)"><g mask="url(#fQXm6oPWPd1CkIZ6FD_K_bottom_mech-mask)" clip-path="url(#fQXm6oPWPd1CkIZ6FD_K_bottom_outline)" transform="translate(224000,0) scale(-1,1)"><rect x="101000" y="-75000" width="22000" height="19000" fill="currentColor" class="fQXm6oPWPd1CkIZ6FD_K_fr4"/><use xlink:href="#fQXm6oPWPd1CkIZ6FD_K_bottom_copper" fill="currentColor" stroke="currentColor" class="fQXm6oPWPd1CkIZ6FD_K_cu"/><use xlink:href="#fQXm6oPWPd1CkIZ6FD_K_bottom_copper" fill="currentColor" stroke="currentColor" class="fQXm6oPWPd1CkIZ6FD_K_cf" mask="url(#fQXm6oPWPd1CkIZ6FD_K_bottom_cf-mask)"/><g mask="url(#fQXm6oPWPd1CkIZ6FD_K_bottom_sm-mask)"><rect x="101000" y="-75000" width="22000" height="19000" fill="currentColor" class="fQXm6oPWPd1CkIZ6FD_K_sm"/></g></g></g></svg>