<svg version="1.1" xmlns="http://www.w3.org/2000/svg" xmlns:xlink="http://www.w3.org/1999/xlink" stroke-linecap="round" stroke-linejoin="round" stroke-width="0" fill-rule="evenodd" clip-rule="evenodd" id="fQXm6oPWPd1CkIZ6FD_K_top" viewBox="101000 -75000 22000 19000" width="22mm" height="19mm" class="w-100 h-100"><defs><style>.fQXm6oPWPd1CkIZ6FD_K_fr4 {color: #666666;}
.fQXm6oPWPd1CkIZ6FD_K_cu {color: #cccccc;}
.fQXm6oPWPd1CkIZ6FD_K_cf {color: #cc9933;}
.fQXm6oPWPd1CkIZ6FD_K_sm {color: #004200; opacity: 0.75;}
.fQXm6oPWPd1CkIZ6FD_K_ss {color: #ffffff;}
.fQXm6oPWPd1CkIZ6FD_K_sp {color: #999999;}
.fQXm6oPWPd1CkIZ6FD_K_out {color: #000000;}</style><rect x="-850" y="-850" width="1700" height="1700" rx="850" ry="850" id="nvXpEq_SVn56BfmXztPE_pad-10"/><circle cx="0" cy="0" r="437.5" id="nvXpEq_SVn56BfmXztPE_pad-12"/><rect x="-750" y="-225" width="1500" height="450" id="nvXpEq_SVn56BfmXztPE_pad-13"/><circle cx="0" cy="0" r="342.9" id="nvXpEq_SVn56BfmXztPE_pad-14"/><circle cx="0" cy="0" r="152.4" id="nvXpEq_SVn56BfmXztPE_pad-17"/><circle cx="0" cy="0" r="175" id="nvXpEq_SVn56BfmXztPE_pad-18"/><circle cx="0" cy="0" r="437.5" id="rbWTsxAsSnlWxa50rLIY_pad-11"/><rect x="-750" y="-225" width="1500" height="450" id="rbWTsxAsSnlWxa50rLIY_pad-12"/><circle cx="0" cy="0" r="152.5" id="C2GeMbPJ7X2xaen9_68H_pad-1"/><circle cx="0" cy="0" r="500" id="C2GeMbPJ7X2xaen9_68H_pad-2"/><g id="fQXm6oPWPd1CkIZ6FD_K_top_soldermask"><path d="M 121600.351 -72253.312 121687.062 -72279.616 121773.77 -72305.918 121933.599 -72391.348 121970.091 -72421.296 122073.686 -72506.314 122158.704 -72609.909 122188.652 -72646.401 122188.653 -72646.403 122274.081 -72806.228 122326.688 -72979.649 122344.451 -73160 122326.688 -73340.351 122326.687 -73340.353 122274.082 -73513.77 122188.652 -73673.599 122158.704 -73710.091 122073.686 -73813.686 121970.091 -73898.704 121933.599 -73928.652 121773.77 -74014.082 121687.062 -74040.384 121600.351 -74066.688 121465.192 -74080 121374.808 -74080 121239.649 -74066.688 121152.939 -74040.385 121066.23 -74014.082 120906.401 -73928.652 120869.909 -73898.704 120766.314 -73813.686 120681.296 -73710.091 120651.348 -73673.599 120565.918 -73513.77 120513.313 -73340.353 120513.312 -73340.351 120495.549 -73160 120513.312 -72979.649 120565.919 -72806.228 120651.347 -72646.403 120651.348 -72646.401 120681.296 -72609.909 120766.314 -72506.314 120869.909 -72421.296 120906.401 -72391.348 121066.23 -72305.918 121152.939 -72279.615 121239.649 -72253.312 121374.808 -72240 121465.192 -72240 121600.351 -72253.312 121600.351 -72253.312"/><path d="M 119060.351 -72253.312 119147.062 -72279.616 119233.77 -72305.918 119393.599 -72391.348 119430.091 -72421.296 119533.686 -72506.314 119618.704 -72609.909 119648.652 -72646.401 119648.653 -72646.403 119734.081 -72806.228 119786.688 -72979.649 119804.451 -73160 119786.688 -73340.351 119786.687 -73340.353 119734.082 -73513.77 119648.652 -73673.599 119618.704 -73710.091 119533.686 -73813.686 119430.091 -73898.704 119393.599 -73928.652 119233.77 -74014.082 119147.062 -74040.384 119060.351 -74066.688 118925.192 -74080 118834.808 -74080 118699.649 -74066.688 118612.939 -74040.385 118526.23 -74014.082 118366.401 -73928.652 118329.909 -73898.704 118226.314 -73813.686 118141.296 -73710.091 118111.348 -73673.599 118025.918 -73513.77 117973.313 -73340.353 117973.312 -73340.351 117955.549 -73160 117973.312 -72979.649 118025.919 -72806.228 118111.347 -72646.403 118111.348 -72646.401 118141.296 -72609.909 118226.314 -72506.314 118329.909 -72421.296 118366.401 -72391.348 118526.23 -72305.918 118612.939 -72279.615 118699.649 -72253.312 118834.808 -72240 118925.192 -72240 119060.351 -72253.312 119060.351 -72253.312"/><path d="M 116520.351 -72253.312 116607.062 -72279.616 116693.77 -72305.918 116853.599 -72391.348 116890.091 -72421.296 116993.686 -72506.314 117078.704 -72609.909 117108.652 -72646.401 117108.653 -72646.403 117194.081 -72806.228 117246.688 -72979.649 117264.451 -73160 117246.688 -73340.351 117246.687 -73340.353 117194.082 -73513.77 117108.652 -73673.599 117078.704 -73710.091 116993.686 -73813.686 116890.091 -73898.704 116853.599 -73928.652 116693.77 -74014.082 116607.062 -74040.384 116520.351 -74066.688 116385.192 -74080 116294.808 -74080 116159.649 -74066.688 116072.939 -74040.385 115986.23 -74014.082 115826.401 -73928.652 115789.909 -73898.704 115686.314 -73813.686 115601.296 -73710.091 115571.348 -73673.599 115485.918 -73513.77 115433.313 -73340.353 115433.312 -73340.351 115415.549 -73160 115433.312 -72979.649 115485.919 -72806.228 115571.347 -72646.403 115571.348 -72646.401 115601.296 -72609.909 115686.314 -72506.314 115789.909 -72421.296 115826.401 -72391.348 115986.23 -72305.918 116072.939 -72279.615 116159.649 -72253.312 116294.808 -72240 116385.192 -72240 116520.351 -72253.312 116520.351 -72253.312"/><path d="M 113980.351 -72253.312 114067.062 -72279.616 114153.77 -72305.918 114313.599 -72391.348 114350.091 -72421.296 114453.686 -72506.314 114538.704 -72609.909 114568.652 -72646.401 114568.653 -72646.403 114654.081 -72806.228 114706.688 -72979.649 114724.451 -73160 114706.688 -73340.351 114706.687 -73340.353 114654.082 -73513.77 114568.652 -73673.599 114538.704 -73710.091 114453.686 -73813.686 114350.091 -73898.704 114313.599 -73928.652 114153.77 -74014.082 114067.062 -74040.384 113980.351 -74066.688 113845.192 -74080 113754.808 -74080 113619.649 -74066.688 113532.939 -74040.385 113446.23 -74014.082 113286.401 -73928.652 113249.909 -73898.704 113146.314 -73813.686 113061.296 -73710.091 113031.348 -73673.599 112945.918 -73513.77 112893.313 -73340.353 112893.312 -73340.351 112875.549 -73160 112893.312 -72979.649 112945.919 -72806.228 113031.347 -72646.403 113031.348 -72646.401 113061.296 -72609.909 113146.314 -72506.314 113249.909 -72421.296 113286.401 -72391.348 113446.23 -72305.918 113532.939 -72279.615 113619.649 -72253.312 113754.808 -72240 113845.192 -72240 113980.351 -72253.312 113980.351 -72253.312"/><path d="M 111440.351 -72253.312 111527.062 -72279.616 111613.77 -72305.918 111773.599 -72391.348 111810.091 -72421.296 111913.686 -72506.314 111998.704 -72609.909 112028.652 -72646.401 112028.653 -72646.403 112114.081 -72806.228 112166.688 -72979.649 112184.451 -73160 112166.688 -73340.351 112166.687 -73340.353 112114.082 -73513.77 112028.652 -73673.599 111998.704 -73710.091 111913.686 -73813.686 111810.091 -73898.704 111773.599 -73928.652 111613.77 -74014.082 111527.062 -74040.384 111440.351 -74066.688 111305.192 -74080 111214.808 -74080 111079.649 -74066.688 110992.939 -74040.385 110906.23 -74014.082 110746.401 -73928.652 110709.909 -73898.704 110606.314 -73813.686 110521.296 -73710.091 110491.348 -73673.599 110405.918 -73513.77 110353.313 -73340.353 110353.312 -73340.351 110335.549 -73160 110353.312 -72979.649 110405.919 -72806.228 110491.347 -72646.403 110491.348 -72646.401 110521.296 -72609.909 110606.314 -72506.314 110709.909 -72421.296 110746.401 -72391.348 110906.23 -72305.918 110992.939 -72279.615 111079.649 -72253.312 111214.808 -72240 111305.192 -72240 111440.351 -72253.312 111440.351 -72253.312"/><path d="M 108900.351 -72253.312 108987.062 -72279.616 109073.77 -72305.918 109233.599 -72391.348 109270.091 -72421.296 109373.686 -72506.314 109458.704 -72609.909 109488.652 -72646.401 109488.653 -72646.403 109574.081 -72806.228 109626.688 -72979.649 109644.451 -73160 109626.688 -73340.351 109626.687 -73340.353 109574.082 -73513.77 109488.652 -73673.599 109458.704 -73710.091 109373.686 -73813.686 109270.091 -73898.704 109233.599 -73928.652 109073.77 -74014.082 108987.062 -74040.384 108900.351 -74066.688 108765.192 -74080 108674.808 -74080 108539.649 -74066.688 108452.939 -74040.385 108366.23 -74014.082 108206.401 -73928.652 108169.909 -73898.704 108066.314 -73813.686 107981.296 -73710.091 107951.348 -73673.599 107865.918 -73513.77 107813.313 -73340.353 107813.312 -73340.351 107795.549 -73160 107813.312 -72979.649 107865.919 -72806.228 107951.347 -72646.403 107951.348 -72646.401 107981.296 -72609.909 108066.314 -72506.314 108169.909 -72421.296 108206.401 -72391.348 108366.23 -72305.918 108452.939 -72279.615 108539.649 -72253.312 108674.808 -72240 108765.192 -72240 108900.351 -72253.312 108900.351 -72253.312"/><path d="M 106360.351 -72253.312 106447.062 -72279.616 106533.77 -72305.918 106693.599 -72391.348 106730.091 -72421.296 106833.686 -72506.314 106918.704 -72609.909 106948.652 -72646.401 106948.653 -72646.403 107034.081 -72806.228 107086.688 -72979.649 107104.451 -73160 107086.688 -73340.351 107086.687 -73340.353 107034.082 -73513.77 106948.652 -73673.599 106918.704 -73710.091 106833.686 -73813.686 106730.091 -73898.704 106693.599 -73928.652 106533.77 -74014.082 106447.062 -74040.384 106360.351 -74066.688 106225.192 -74080 106134.808 -74080 105999.649 -74066.688 105912.939 -74040.385 105826.23 -74014.082 105666.401 -73928.652 105629.909 -73898.704 105526.314 -73813.686 105441.296 -73710.091 105411.348 -73673.599 105325.918 -73513.77 105273.313 -73340.353 105273.312 -73340.351 105255.549 -73160 105273.312 -72979.649 105325.919 -72806.228 105411.347 -72646.403 105411.348 -72646.401 105441.296 -72609.909 105526.314 -72506.314 105629.909 -72421.296 105666.401 -72391.348 105826.23 -72305.918 105912.939 -72279.615 105999.649 -72253.312 106134.808 -72240 106225.192 -72240 106360.351 -72253.312 106360.351 -72253.312"/><path d="M 103820.351 -72253.312 103907.062 -72279.616 103993.77 -72305.918 104153.599 -72391.348 104190.091 -72421.296 104293.686 -72506.314 104378.704 -72609.909 104408.652 -72646.401 104408.653 -72646.403 104494.081 -72806.228 104546.688 -72979.649 104564.451 -73160 104546.688 -73340.351 104546.687 -73340.353 104494.082 -73513.77 104408.652 -73673.599 104378.704 -73710.091 104293.686 -73813.686 104190.091 -73898.704 104153.599 -73928.652 103993.77 -74014.082 103907.062 -74040.384 103820.351 -74066.688 103685.192 -74080 103594.808 -74080 103459.649 -74066.688 103372.939 -74040.385 103286.23 -74014.082 103126.401 -73928.652 103089.909 -73898.704 102986.314 -73813.686 102901.296 -73710.091 102871.348 -73673.599 102785.918 -73513.77 102733.313 -73340.353 102733.312 -73340.351 102715.549 -73160 102733.312 -72979.649 102785.919 -72806.228 102871.347 -72646.403 102871.348 -72646.401 102901.296 -72609.909 102986.314 -72506.314 103089.909 -72421.296 103126.401 -72391.348 103286.23 -72305.918 103372.939 -72279.615 103459.649 -72253.312 103594.808 -72240 103685.192 -72240 103820.351 -72253.312 103820.351 -72253.312"/><path d="M 111105.001 -68205.001 109465.001 -68205.001 109465.001 -63065.001 111105.001 -63065.001 111105.001 -68205.001 111105.001 -68205.001"/><path d="M 117005.001 -68205.001 115365.001 -68205.001 115365.001 -63065.001 117005.001 -63065.001 117005.001 -68205.001 117005.001 -68205.001"/><path d="M 106677.804 -63669.731 106722.556 -63683.306 106763.814 -63705.359 106799.969 -63735.031 106829.641 -63771.186 106851.694 -63812.444 106865.269 -63857.196 106870 -63905.229 106870 -64514.771 106865.269 -64562.804 106851.694 -64607.556 106829.641 -64648.814 106799.969 -64684.969 106763.814 -64714.641 106722.556 -64736.694 106677.804 -64750.269 106629.771 -64755 106095.229 -64755 106047.196 -64750.269 106002.444 -64736.694 105961.186 -64714.641 105925.031 -64684.969 105895.359 -64648.814 105873.306 -64607.556 105859.731 -64562.804 105855 -64514.771 105855 -63905.229 105859.731 -63857.196 105873.306 -63812.444 105895.359 -63771.186 105925.031 -63735.031 105961.186 -63705.359 106002.444 -63683.306 106047.196 -63669.731 106095.229 -63665 106629.771 -63665 106677.804 -63669.731 106677.804 -63669.731"/><path d="M 108252.804 -63669.731 108297.556 -63683.306 108338.814 -63705.359 108374.969 -63735.031 108404.641 -63771.186 108426.694 -63812.444 108440.269 -63857.196 108445 -63905.229 108445 -64514.771 108440.269 -64562.804 108426.694 -64607.556 108404.641 -64648.814 108374.969 -64684.969 108338.814 -64714.641 108297.556 -64736.694 108252.804 -64750.269 108204.771 -64755 107670.229 -64755 107622.196 -64750.269 107577.444 -64736.694 107536.186 -64714.641 107500.031 -64684.969 107470.359 -64648.814 107448.306 -64607.556 107434.731 -64562.804 107430 -64514.771 107430 -63905.229 107434.731 -63857.196 107448.306 -63812.444 107470.359 -63771.186 107500.031 -63735.031 107536.186 -63705.359 107577.444 -63683.306 107622.196 -63669.731 107670.229 -63665 108204.771 -63665 108252.804 -63669.731 108252.804 -63669.731"/><path d="M 114952.804 -61249.731 114997.556 -61263.306 115038.814 -61285.359 115074.969 -61315.031 115104.641 -61351.186 115126.694 -61392.444 115140.269 -61437.196 115145 -61485.229 115145 -62094.771 115140.269 -62142.804 115126.694 -62187.556 115104.641 -62228.814 115074.969 -62264.969 115038.814 -62294.641 114997.556 -62316.694 114952.804 -62330.269 114904.771 -62335 114370.229 -62335 114322.196 -62330.269 114277.444 -62316.694 114236.186 -62294.641 114200.031 -62264.969 114170.359 -62228.814 114148.306 -62187.556 114134.731 -62142.804 114130 -62094.771 114130 -61485.229 114134.731 -61437.196 114148.306 -61392.444 114170.359 -61351.186 114200.031 -61315.031 114236.186 -61285.359 114277.444 -61263.306 114322.196 -61249.731 114370.229 -61245 114904.771 -61245 114952.804 -61249.731 114952.804 -61249.731"/><path d="M 113377.804 -61249.731 113422.556 -61263.306 113463.814 -61285.359 113499.969 -61315.031 113529.641 -61351.186 113551.694 -61392.444 113565.269 -61437.196 113570 -61485.229 113570 -62094.771 113565.269 -62142.804 113551.694 -62187.556 113529.641 -62228.814 113499.969 -62264.969 113463.814 -62294.641 113422.556 -62316.694 113377.804 -62330.269 113329.771 -62335 112795.229 -62335 112747.196 -62330.269 112702.444 -62316.694 112661.186 -62294.641 112625.031 -62264.969 112595.359 -62228.814 112573.306 -62187.556 112559.731 -62142.804 112555 -62094.771 112555 -61485.229 112559.731 -61437.196 112573.306 -61392.444 112595.359 -61351.186 112625.031 -61315.031 112661.186 -61285.359 112702.444 -61263.306 112747.196 -61249.731 112795.229 -61245 113329.771 -61245 113377.804 -61249.731 113377.804 -61249.731"/><path d="M 116520.351 -57013.312 116607.062 -57039.616 116693.77 -57065.918 116853.599 -57151.348 116890.091 -57181.296 116993.686 -57266.314 117078.704 -57369.909 117108.652 -57406.401 117108.653 -57406.403 117194.081 -57566.228 117246.688 -57739.649 117264.451 -57920 117246.688 -58100.351 117246.687 -58100.353 117194.082 -58273.77 117108.652 -58433.599 117078.704 -58470.091 116993.686 -58573.686 116890.091 -58658.704 116853.599 -58688.652 116693.77 -58774.082 116607.062 -58800.384 116520.351 -58826.688 116385.192 -58840 116294.808 -58840 116159.649 -58826.688 116072.938 -58800.384 115986.23 -58774.082 115826.401 -58688.652 115789.909 -58658.704 115686.314 -58573.686 115601.296 -58470.091 115571.348 -58433.599 115485.918 -58273.77 115433.313 -58100.353 115433.312 -58100.351 115415.549 -57920 115433.312 -57739.649 115485.919 -57566.228 115571.347 -57406.403 115571.348 -57406.401 115601.296 -57369.909 115686.314 -57266.314 115789.909 -57181.296 115826.401 -57151.348 115986.23 -57065.918 116072.939 -57039.615 116159.649 -57013.312 116294.808 -57000 116385.192 -57000 116520.351 -57013.312 116520.351 -57013.312"/><path d="M 106360.351 -57013.312 106447.062 -57039.616 106533.77 -57065.918 106693.599 -57151.348 106730.091 -57181.296 106833.686 -57266.314 106918.704 -57369.909 106948.652 -57406.401 106948.653 -57406.403 107034.081 -57566.228 107086.688 -57739.649 107104.451 -57920 107086.688 -58100.351 107086.687 -58100.353 107034.082 -58273.77 106948.652 -58433.599 106918.704 -58470.091 106833.686 -58573.686 106730.091 -58658.704 106693.599 -58688.652 106533.77 -58774.082 106447.062 -58800.384 106360.351 -58826.688 106225.192 -58840 106134.808 -58840 105999.649 -58826.688 105912.938 -58800.384 105826.23 -58774.082 105666.401 -58688.652 105629.909 -58658.704 105526.314 -58573.686 105441.296 -58470.091 105411.348 -58433.599 105325.918 -58273.77 105273.313 -58100.353 105273.312 -58100.351 105255.549 -57920 105273.312 -57739.649 105325.919 -57566.228 105411.347 -57406.403 105411.348 -57406.401 105441.296 -57369.909 105526.314 -57266.314 105629.909 -57181.296 105666.401 -57151.348 105826.23 -57065.918 105912.939 -57039.615 105999.649 -57013.312 106134.808 -57000 106225.192 -57000 106360.351 -57013.312 106360.351 -57013.312"/><path d="M 108900.351 -57013.312 108987.062 -57039.616 109073.77 -57065.918 109233.599 -57151.348 109270.091 -57181.296 109373.686 -57266.314 109458.704 -57369.909 109488.652 -57406.401 109488.653 -57406.403 109574.081 -57566.228 109626.688 -57739.649 109644.451 -57920 109626.688 -58100.351 109626.687 -58100.353 109574.082 -58273.77 109488.652 -58433.599 109458.704 -58470.091 109373.686 -58573.686 109270.091 -58658.704 109233.599 -58688.652 109073.77 -58774.082 108987.062 -58800.384 108900.351 -58826.688 108765.192 -58840 108674.808 -58840 108539.649 -58826.688 108452.938 -58800.384 108366.23 -58774.082 108206.401 -58688.652 108169.909 -58658.704 108066.314 -58573.686 107981.296 -58470.091 107951.348 -58433.599 107865.918 -58273.77 107813.313 -58100.353 107813.312 -58100.351 107795.549 -57920 107813.312 -57739.649 107865.919 -57566.228 107951.347 -57406.403 107951.348 -57406.401 107981.296 -57369.909 108066.314 -57266.314 108169.909 -57181.296 108206.401 -57151.348 108366.23 -57065.918 108452.939 -57039.615 108539.649 -57013.312 108674.808 -57000 108765.192 -57000 108900.351 -57013.312 108900.351 -57013.312"/><path d="M 111440.351 -57013.312 111527.062 -57039.616 111613.77 -57065.918 111773.599 -57151.348 111810.091 -57181.296 111913.686 -57266.314 111998.704 -57369.909 112028.652 -57406.401 112028.653 -57406.403 112114.081 -57566.228 112166.688 -57739.649 112184.451 -57920 112166.688 -58100.351 112166.687 -58100.353 112114.082 -58273.77 112028.652 -58433.599 111998.704 -58470.091 111913.686 -58573.686 111810.091 -58658.704 111773.599 -58688.652 111613.77 -58774.082 111527.062 -58800.384 111440.351 -58826.688 111305.192 -58840 111214.808 -58840 111079.649 -58826.688 110992.938 -58800.384 110906.23 -58774.082 110746.401 -58688.652 110709.909 -58658.704 110606.314 -58573.686 110521.296 -58470.091 110491.348 -58433.599 110405.918 -58273.77 110353.313 -58100.353 110353.312 -58100.351 110335.549 -57920 110353.312 -57739.649 110405.919 -57566.228 110491.347 -57406.403 110491.348 -57406.401 110521.296 -57369.909 110606.314 -57266.314 110709.909 -57181.296 110746.401 -57151.348 110906.23 -57065.918 110992.939 -57039.615 111079.649 -57013.312 111214.808 -57000 111305.192 -57000 111440.351 -57013.312 111440.351 -57013.312"/><path d="M 113980.351 -57013.312 114067.062 -57039.616 114153.77 -57065.918 114313.599 -57151.348 114350.091 -57181.296 114453.686 -57266.314 114538.704 -57369.909 114568.652 -57406.401 114568.653 -57406.403 114654.081 -57566.228 114706.688 -57739.649 114724.451 -57920 114706.688 -58100.351 114706.687 -58100.353 114654.082 -58273.77 114568.652 -58433.599 114538.704 -58470.091 114453.686 -58573.686 114350.091 -58658.704 114313.599 -58688.652 114153.77 -58774.082 114067.062 -58800.384 113980.351 -58826.688 113845.192 -58840 113754.808 -58840 113619.649 -58826.688 113532.938 -58800.384 113446.23 -58774.082 113286.401 -58688.652 113249.909 -58658.704 113146.314 -58573.686 113061.296 -58470.091 113031.348 -58433.599 112945.918 -58273.77 112893.313 -58100.353 112893.312 -58100.351 112875.549 -57920 112893.312 -57739.649 112945.919 -57566.228 113031.347 -57406.403 113031.348 -57406.401 113061.296 -57369.909 113146.314 -57266.314 113249.909 -57181.296 113286.401 -57151.348 113446.23 -57065.918 113532.939 -57039.615 113619.649 -57013.312 113754.808 -57000 113845.192 -57000 113980.351 -57013.312 113980.351 -57013.312"/><path d="M 119060.351 -57013.312 119147.062 -57039.616 119233.77 -57065.918 119393.599 -57151.348 119430.091 -57181.296 119533.686 -57266.314 119618.704 -57369.909 119648.652 -57406.401 119648.653 -57406.403 119734.081 -57566.228 119786.688 -57739.649 119804.451 -57920 119786.688 -58100.351 119786.687 -58100.353 119734.082 -58273.77 119648.652 -58433.599 119618.704 -58470.091 119533.686 -58573.686 119430.091 -58658.704 119393.599 -58688.652 119233.77 -58774.082 119147.062 -58800.384 119060.351 -58826.688 118925.192 -58840 118834.808 -58840 118699.649 -58826.688 118612.938 -58800.384 118526.23 -58774.082 118366.401 -58688.652 118329.909 -58658.704 118226.314 -58573.686 118141.296 -58470.091 118111.348 -58433.599 118025.918 -58273.77 117973.313 -58100.353 117973.312 -58100.351 117955.549 -57920 117973.312 -57739.649 118025.919 -57566.228 118111.347 -57406.403 118111.348 -57406.401 118141.296 -57369.909 118226.314 -57266.314 118329.909 -57181.296 118366.401 -57151.348 118526.23 -57065.918 118612.939 -57039.615 118699.649 -57013.312 118834.808 -57000 118925.192 -57000 119060.351 -57013.312 119060.351 -57013.312"/><path d="M 121600.351 -57013.312 121687.062 -57039.616 121773.77 -57065.918 121933.599 -57151.348 121970.091 -57181.296 122073.686 -57266.314 122158.704 -57369.909 122188.652 -57406.401 122188.653 -57406.403 122274.081 -57566.228 122326.688 -57739.649 122344.451 -57920 122326.688 -58100.351 122326.687 -58100.353 122274.082 -58273.77 122188.652 -58433.599 122158.704 -58470.091 122073.686 -58573.686 121970.091 -58658.704 121933.599 -58688.652 121773.77 -58774.082 121687.062 -58800.384 121600.351 -58826.688 121465.192 -58840 121374.808 -58840 121239.649 -58826.688 121152.938 -58800.384 121066.23 -58774.082 120906.401 -58688.652 120869.909 -58658.704 120766.314 -58573.686 120681.296 -58470.091 120651.348 -58433.599 120565.918 -58273.77 120513.313 -58100.353 120513.312 -58100.351 120495.549 -57920 120513.312 -57739.649 120565.919 -57566.228 120651.347 -57406.403 120651.348 -57406.401 120681.296 -57369.909 120766.314 -57266.314 120869.909 -57181.296 120906.401 -57151.348 121066.23 -57065.918 121152.939 -57039.615 121239.649 -57013.312 121374.808 -57000 121465.192 -57000 121600.351 -57013.312 121600.351 -57013.312"/><path d="M 103820.351 -57013.312 103907.062 -57039.616 103993.77 -57065.918 104153.599 -57151.348 104190.091 -57181.296 104293.686 -57266.314 104378.704 -57369.909 104408.652 -57406.401 104408.653 -57406.403 104494.081 -57566.228 104546.688 -57739.649 104564.451 -57920 104546.688 -58100.351 104546.687 -58100.353 104494.082 -58273.77 104408.652 -58433.599 104378.704 -58470.091 104293.686 -58573.686 104190.091 -58658.704 104153.599 -58688.652 103993.77 -58774.082 103907.062 -58800.384 103820.351 -58826.688 103685.192 -58840 103594.808 -58840 103459.649 -58826.688 103372.938 -58800.384 103286.23 -58774.082 103126.401 -58688.652 103089.909 -58658.704 102986.314 -58573.686 102901.296 -58470.091 102871.348 -58433.599 102785.918 -58273.77 102733.313 -58100.353 102733.312 -58100.351 102715.549 -57920 102733.312 -57739.649 102785.919 -57566.228 102871.347 -57406.403 102871.348 -57406.401 102901.296 -57369.909 102986.314 -57266.314 103089.909 -57181.296 103126.401 -57151.348 103286.23 -57065.918 103372.939 -57039.615 103459.649 -57013.312 103594.808 -57000 103685.192 -57000 103820.351 -57013.312 103820.351 -57013.312"/></g><g id="fQXm6oPWPd1CkIZ6FD_K_top_copper"><use xlink:href="#nvXpEq_SVn56BfmXztPE_pad-10" x="103640" y="-73160"/><use xlink:href="#nvXpEq_SVn56BfmXztPE_pad-10" x="106180" y="-73160"/><use xlink:href="#nvXpEq_SVn56BfmXztPE_pad-10" x="108720" y="-73160"/><use xlink:href="#nvXpEq_SVn56BfmXztPE_pad-10" x="111260" y="-73160"/><use xlink:href="#nvXpEq_SVn56BfmXztPE_pad-10" x="113800" y="-73160"/><use xlink:href="#nvXpEq_SVn56BfmXztPE_pad-10" x="116340" y="-73160"/><use xlink:href="#nvXpEq_SVn56BfmXztPE_pad-10" x="118880" y="-73160"/><use xlink:href="#nvXpEq_SVn56BfmXztPE_pad-10" x="121420" y="-73160"/><use xlink:href="#nvXpEq_SVn56BfmXztPE_pad-10" x="121420" y="-57920"/><use xlink:href="#nvXpEq_SVn56BfmXztPE_pad-10" x="118880" y="-57920"/><use xlink:href="#nvXpEq_SVn56BfmXztPE_pad-10" x="116340" y="-57920"/><use xlink:href="#nvXpEq_SVn56BfmXztPE_pad-10" x="113800" y="-57920"/><use xlink:href="#nvXpEq_SVn56BfmXztPE_pad-10" x="111260" y="-57920"/><use xlink:href="#nvXpEq_SVn56BfmXztPE_pad-10" x="108720" y="-57920"/><use xlink:href="#nvXpEq_SVn56BfmXztPE_pad-10" x="106180" y="-57920"/><use xlink:href="#nvXpEq_SVn56BfmXztPE_pad-10" x="103640" y="-57920"/><path d="M 108177.691 -63736.053 108198.926 -63739.203 108219.75 -63744.419 108239.962 -63751.651 108259.368 -63760.83 108277.781 -63771.866 108295.024 -63784.654 108310.93 -63799.07 108325.346 -63814.976 108338.134 -63832.219 108349.17 -63850.632 108358.349 -63870.038 108365.581 -63890.25 108370.797 -63911.074 108373.947 -63932.309 108375 -63953.75 108375 -64466.25 108373.947 -64487.691 108370.797 -64508.926 108365.581 -64529.75 108358.349 -64549.962 108349.17 -64569.368 108338.134 -64587.781 108325.346 -64605.024 108310.93 -64620.93 108295.024 -64635.346 108277.781 -64648.134 108259.368 -64659.17 108239.962 -64668.349 108219.75 -64675.581 108198.926 -64680.797 108177.691 -64683.947 108156.25 -64685 107718.75 -64685 107697.309 -64683.947 107676.074 -64680.797 107655.25 -64675.581 107635.038 -64668.349 107615.632 -64659.17 107597.219 -64648.134 107579.976 -64635.346 107564.07 -64620.93 107549.654 -64605.024 107536.866 -64587.781 107525.83 -64569.368 107516.651 -64549.962 107509.419 -64529.75 107504.203 -64508.926 107501.053 -64487.691 107500 -64466.25 107500 -63953.75 107501.053 -63932.309 107504.203 -63911.074 107509.419 -63890.25 107516.651 -63870.038 107525.83 -63850.632 107536.866 -63832.219 107549.654 -63814.976 107564.07 -63799.07 107579.976 -63784.654 107597.219 -63771.866 107615.632 -63760.83 107635.038 -63751.651 107655.25 -63744.419 107676.074 -63739.203 107697.309 -63736.053 107718.75 -63735 108156.25 -63735 108177.691 -63736.053 108177.691 -63736.053"/><use xlink:href="#nvXpEq_SVn56BfmXztPE_pad-12" x="107937.5" y="-64210"/><path d="M 106602.691 -63736.053 106623.926 -63739.203 106644.75 -63744.419 106664.962 -63751.651 106684.368 -63760.83 106702.781 -63771.866 106720.024 -63784.654 106735.93 -63799.07 106750.346 -63814.976 106763.134 -63832.219 106774.17 -63850.632 106783.349 -63870.038 106790.581 -63890.25 106795.797 -63911.074 106798.947 -63932.309 106800 -63953.75 106800 -64466.25 106798.947 -64487.691 106795.797 -64508.926 106790.581 -64529.75 106783.349 -64549.962 106774.17 -64569.368 106763.134 -64587.781 106750.346 -64605.024 106735.93 -64620.93 106720.024 -64635.346 106702.781 -64648.134 106684.368 -64659.17 106664.962 -64668.349 106644.75 -64675.581 106623.926 -64680.797 106602.691 -64683.947 106581.25 -64685 106143.75 -64685 106122.309 -64683.947 106101.074 -64680.797 106080.25 -64675.581 106060.038 -64668.349 106040.632 -64659.17 106022.219 -64648.134 106004.976 -64635.346 105989.07 -64620.93 105974.654 -64605.024 105961.866 -64587.781 105950.83 -64569.368 105941.651 -64549.962 105934.419 -64529.75 105929.203 -64508.926 105926.053 -64487.691 105925 -64466.25 105925 -63953.75 105926.053 -63932.309 105929.203 -63911.074 105934.419 -63890.25 105941.651 -63870.038 105950.83 -63850.632 105961.866 -63832.219 105974.654 -63814.976 105989.07 -63799.07 106004.976 -63784.654 106022.219 -63771.866 106040.632 -63760.83 106060.038 -63751.651 106080.25 -63744.419 106101.074 -63739.203 106122.309 -63736.053 106143.75 -63735 106581.25 -63735 106602.691 -63736.053 106602.691 -63736.053"/><use xlink:href="#nvXpEq_SVn56BfmXztPE_pad-12" x="106362.5" y="-64210"/><use xlink:href="#nvXpEq_SVn56BfmXztPE_pad-13" x="110285.001" y="-63360.001"/><use xlink:href="#nvXpEq_SVn56BfmXztPE_pad-13" x="110285.001" y="-64010.001"/><use xlink:href="#nvXpEq_SVn56BfmXztPE_pad-13" x="110285.001" y="-64660.001"/><use xlink:href="#nvXpEq_SVn56BfmXztPE_pad-13" x="110285.001" y="-65310.001"/><use xlink:href="#nvXpEq_SVn56BfmXztPE_pad-13" x="110285.001" y="-65960.001"/><use xlink:href="#nvXpEq_SVn56BfmXztPE_pad-13" x="110285.001" y="-66610.001"/><use xlink:href="#nvXpEq_SVn56BfmXztPE_pad-13" x="110285.001" y="-67260.001"/><use xlink:href="#nvXpEq_SVn56BfmXztPE_pad-13" x="110285.001" y="-67910.001"/><use xlink:href="#nvXpEq_SVn56BfmXztPE_pad-13" x="116185.001" y="-67910.001"/><use xlink:href="#nvXpEq_SVn56BfmXztPE_pad-13" x="116185.001" y="-67260.001"/><use xlink:href="#nvXpEq_SVn56BfmXztPE_pad-13" x="116185.001" y="-66610.001"/><use xlink:href="#nvXpEq_SVn56BfmXztPE_pad-13" x="116185.001" y="-65960.001"/><use xlink:href="#nvXpEq_SVn56BfmXztPE_pad-13" x="116185.001" y="-65310.001"/><use xlink:href="#nvXpEq_SVn56BfmXztPE_pad-13" x="116185.001" y="-64660.001"/><use xlink:href="#nvXpEq_SVn56BfmXztPE_pad-13" x="116185.001" y="-64010.001"/><use xlink:href="#nvXpEq_SVn56BfmXztPE_pad-13" x="116185.001" y="-63360.001"/><path d="M 113302.691 -61316.053 113323.926 -61319.203 113344.75 -61324.419 113364.962 -61331.651 113384.368 -61340.83 113402.781 -61351.866 113420.024 -61364.654 113435.93 -61379.07 113450.346 -61394.976 113463.134 -61412.219 113474.17 -61430.632 113483.349 -61450.038 113490.581 -61470.25 113495.797 -61491.074 113498.947 -61512.309 113500 -61533.75 113500 -62046.25 113498.947 -62067.691 113495.797 -62088.926 113490.581 -62109.75 113483.349 -62129.962 113474.17 -62149.368 113463.134 -62167.781 113450.346 -62185.024 113435.93 -62200.93 113420.024 -62215.346 113402.781 -62228.134 113384.368 -62239.17 113364.962 -62248.349 113344.75 -62255.581 113323.926 -62260.797 113302.691 -62263.947 113281.25 -62265 112843.75 -62265 112822.309 -62263.947 112801.074 -62260.797 112780.25 -62255.581 112760.038 -62248.349 112740.632 -62239.17 112722.219 -62228.134 112704.976 -62215.346 112689.07 -62200.93 112674.654 -62185.024 112661.866 -62167.781 112650.83 -62149.368 112641.651 -62129.962 112634.419 -62109.75 112629.203 -62088.926 112626.053 -62067.691 112625 -62046.25 112625 -61533.75 112626.053 -61512.309 112629.203 -61491.074 112634.419 -61470.25 112641.651 -61450.038 112650.83 -61430.632 112661.866 -61412.219 112674.654 -61394.976 112689.07 -61379.07 112704.976 -61364.654 112722.219 -61351.866 112740.632 -61340.83 112760.038 -61331.651 112780.25 -61324.419 112801.074 -61319.203 112822.309 -61316.053 112843.75 -61315 113281.25 -61315 113302.691 -61316.053 113302.691 -61316.053"/><use xlink:href="#nvXpEq_SVn56BfmXztPE_pad-12" x="113062.5" y="-61790"/><path d="M 114877.691 -61316.053 114898.926 -61319.203 114919.75 -61324.419 114939.962 -61331.651 114959.368 -61340.83 114977.781 -61351.866 114995.024 -61364.654 115010.93 -61379.07 115025.346 -61394.976 115038.134 -61412.219 115049.17 -61430.632 115058.349 -61450.038 115065.581 -61470.25 115070.797 -61491.074 115073.947 -61512.309 115075 -61533.75 115075 -62046.25 115073.947 -62067.691 115070.797 -62088.926 115065.581 -62109.75 115058.349 -62129.962 115049.17 -62149.368 115038.134 -62167.781 115025.346 -62185.024 115010.93 -62200.93 114995.024 -62215.346 114977.781 -62228.134 114959.368 -62239.17 114939.962 -62248.349 114919.75 -62255.581 114898.926 -62260.797 114877.691 -62263.947 114856.25 -62265 114418.75 -62265 114397.309 -62263.947 114376.074 -62260.797 114355.25 -62255.581 114335.038 -62248.349 114315.632 -62239.17 114297.219 -62228.134 114279.976 -62215.346 114264.07 -62200.93 114249.654 -62185.024 114236.866 -62167.781 114225.83 -62149.368 114216.651 -62129.962 114209.419 -62109.75 114204.203 -62088.926 114201.053 -62067.691 114200 -62046.25 114200 -61533.75 114201.053 -61512.309 114204.203 -61491.074 114209.419 -61470.25 114216.651 -61450.038 114225.83 -61430.632 114236.866 -61412.219 114249.654 -61394.976 114264.07 -61379.07 114279.976 -61364.654 114297.219 -61351.866 114315.632 -61340.83 114335.038 -61331.651 114355.25 -61324.419 114376.074 -61319.203 114397.309 -61316.053 114418.75 -61315 114856.25 -61315 114877.691 -61316.053 114877.691 -61316.053"/><use xlink:href="#nvXpEq_SVn56BfmXztPE_pad-12" x="114637.5" y="-61790"/><use xlink:href="#nvXpEq_SVn56BfmXztPE_pad-14" x="110290" y="-69130"/><use xlink:href="#nvXpEq_SVn56BfmXztPE_pad-14" x="107900" y="-69300"/><use xlink:href="#nvXpEq_SVn56BfmXztPE_pad-14" x="109190" y="-69220"/><use xlink:href="#nvXpEq_SVn56BfmXztPE_pad-14" x="108560" y="-68200"/><use xlink:href="#nvXpEq_SVn56BfmXztPE_pad-14" x="117870" y="-67958.501"/><use xlink:href="#nvXpEq_SVn56BfmXztPE_pad-14" x="118860" y="-67308.501"/><use xlink:href="#nvXpEq_SVn56BfmXztPE_pad-14" x="120860" y="-66140.002"/><use xlink:href="#nvXpEq_SVn56BfmXztPE_pad-14" x="107930" y="-61400"/><use xlink:href="#nvXpEq_SVn56BfmXztPE_pad-14" x="107930" y="-62230"/><use xlink:href="#nvXpEq_SVn56BfmXztPE_pad-14" x="107930" y="-63050"/><path d="M 110285.001 -66610.001 110285.001 -67260.001 110285.001 -67910.001 M 117821.5 -67910.001 117870 -67958.501 M 116185.001 -67910.001 117821.5 -67910.001 M 118811.5 -67260.001 118860 -67308.501 M 116185.001 -67260.001 118811.5 -67260.001 M 120517.101 -66482.901 120860 -66140.002 M 120390.001 -66610.001 120517.101 -66482.901 M 116185.001 -66610.001 120390.001 -66610.001 M 116185.001 -63360.001 115000.001 -63360.001 M 114637.5 -62997.5 114637.5 -61790 M 115000.001 -63360.001 114637.5 -62997.5 M 114637.5 -58757.5 113800 -57920 M 114637.5 -61790 114637.5 -58757.5 M 108387.501 -64660.001 107937.5 -64210 M 110285.001 -64660.001 108387.501 -64660.001 M 107930 -64202.5 107937.5 -64210 M 107930 -61400 107930 -62230 107930 -63050 107930 -64202.5 M 106180 -71957.919 106180 -73160 M 106180 -69099.92 106180 -71957.919 M 109319.919 -65960.001 106180 -69099.92 M 110285.001 -65960.001 109319.919 -65960.001 M 103640 -71957.919 103640 -73160 M 108929.999 -65310.001 103640 -70600 103640 -71957.919 M 110285.001 -65310.001 108929.999 -65310.001 M 108820 -73060 108720 -73160 M 111250.083 -64010.001 111640 -64399.918 M 111640 -69290 108820 -72110 108820 -73060 M 111640 -64399.918 111640 -69290 M 110285.001 -64010.001 111250.083 -64010.001 M 112260 -71200 111260 -72200 M 112260 -64130 112260 -71200 M 111260 -72200 111260 -73160 M 111490.001 -63360.001 112260 -64130 M 110285.001 -63360.001 111490.001 -63360.001 M 113850 -73110 113800 -73160 M 114309.999 -64010.001 112950.001 -65369.999 M 113850 -72160 113850 -73110 M 112950.001 -65369.999 112950.001 -71260.001 113850 -72160 M 116185.001 -64010.001 114309.999 -64010.001 M 116100 -72920 116340 -73160 M 114569.999 -64660.001 113570 -65660 M 113570 -69810 116100 -72340 M 113570 -65660 113570 -69810 M 116100 -72340 116100 -72920 M 116185.001 -64660.001 114569.999 -64660.001 M 114200 -69230 116150 -71180 M 118880 -72150 118880 -73160 M 116150 -71180 117910 -71180 M 114200 -65970 114200 -69230 M 114859.999 -65310.001 114200 -65970 M 117910 -71180 118880 -72150 M 116185.001 -65310.001 114859.999 -65310.001 M 120570.001 -72310.001 121420 -73160 M 118210 -69950 120570.001 -72310.001 M 116170 -69950 118210 -69950 M 116185.001 -65960.001 115219.919 -65960.001 M 114820 -68600 116170 -69950 M 114820 -66359.92 114820 -68600 M 115219.919 -65960.001 114820 -66359.92" fill="none" stroke-width="406.4"/><path d="M 102569.375 -56849.375 102241.161 -57340.582 102125.908 -57920 102241.161 -58499.418 102569.375 -58990.625 103060.582 -59318.839 103493.744 -59405 103786.256 -59405 104219.418 -59318.839 104710.625 -58990.625 104923.843 -58671.522 104984.817 -58801.358 105413.076 -59191.645 105823.11 -59361.476 106053 -59240.155 106053 -58047 106307 -58047 106307 -59240.155 106536.89 -59361.476 106946.924 -59191.645 107375.183 -58801.358 107450 -58642.046 107524.817 -58801.358 107953.076 -59191.645 108363.11 -59361.476 108593 -59240.155 108593 -58047 108847 -58047 108847 -59240.155 109076.89 -59361.476 109486.924 -59191.645 109915.183 -58801.358 109990 -58642.046 110064.817 -58801.358 110493.076 -59191.645 110903.11 -59361.476 111133 -59240.155 111133 -58047 108847 -58047 108593 -58047 106307 -58047 106053 -58047 106033 -58047 106033 -57793 106053 -57793 106053 -57773 106307 -57773 106307 -57793 108593 -57793 108593 -57773 108847 -57773 108847 -57793 111133 -57793 111133 -57773 111387 -57773 111387 -57793 111407 -57793 111407 -58047 111387 -58047 111387 -59240.155 111616.89 -59361.476 112026.924 -59191.645 112455.183 -58801.358 112516.157 -58671.522 112729.375 -58990.625 113220.582 -59318.839 113653.744 -59405 113799.301 -59405 113799.3 -60751.655 113626.309 -60680 113348.25 -60680 113189.5 -60838.75 113189.5 -61663 113209.5 -61663 113209.5 -61917 113189.5 -61917 113189.5 -62741.25 113348.25 -62900 113626.309 -62900 113799.3 -62828.345 113799.3 -62914.95 113782.88 -62997.5 113799.3 -63080.049 113799.3 -63080.053 113845.493 -63312.28 113775.676 -63358.93 113775.675 -63358.931 113705.691 -63405.693 113658.929 -63475.677 113096.368 -64038.238 113049.567 -63802.951 112928.842 -63622.273 112911.071 -63595.677 112911.07 -63595.676 112864.308 -63525.692 112794.324 -63478.93 112141.073 -62825.679 112094.309 -62755.693 111817.05 -62570.434 111572.555 -62521.801 111572.55 -62521.801 111490.001 -62505.381 111407.452 -62521.801 111207.139 -62521.801 111035.001 -62487.561 109535.001 -62487.561 109287.236 -62536.844 109077.192 -62677.192 108936.844 -62887.236 108907.9 -63032.749 108907.9 -62855.484 108818.643 -62640 108907.9 -62424.516 108907.9 -62075.75 111990 -62075.75 111990 -62391.31 112086.673 -62624.699 112265.302 -62803.327 112498.691 -62900 112776.75 -62900 112935.5 -62741.25 112935.5 -61917 112148.75 -61917 111990 -62075.75 108907.9 -62075.75 108907.9 -62035.484 108816.572 -61815 108907.9 -61594.516 108907.9 -61205.484 108900.944 -61188.69 111990 -61188.69 111990 -61504.25 112148.75 -61663 112935.5 -61663 112935.5 -60838.75 112776.75 -60680 112498.691 -60680 112265.302 -60776.673 112086.673 -60955.301 111990 -61188.69 108900.944 -61188.69 108759.023 -60846.064 108483.936 -60570.977 108124.516 -60422.1 107735.484 -60422.1 107376.064 -60570.977 107100.977 -60846.064 106952.1 -61205.484 106952.1 -61594.516 107043.428 -61815 106952.1 -62035.484 106952.1 -62424.516 107041.357 -62640 106952.1 -62855.484 106952.1 -63110.683 106926.309 -63100 106648.25 -63100 106489.5 -63258.75 106489.5 -64083 106509.5 -64083 106509.5 -64337 106489.5 -64337 106489.5 -65161.25 106648.25 -65320 106926.309 -65320 107159.698 -65223.327 107224.969 -65158.057 107387.273 -65266.505 107718.75 -65332.44 107722.166 -65332.44 103105.679 -69948.928 103035.692 -69995.692 102850.433 -70272.952 102801.8 -70517.447 102801.8 -70517.451 102785.38 -70600 102801.8 -70682.55 102801.801 -71875.362 102801.8 -71875.366 102801.8 -71934.074 102569.375 -72089.375 102241.161 -72580.582 102125.908 -73160 102241.161 -73739.418 102569.375 -74230.625 102658.236 -74290 101710 -74290 101710 -64495.75 105290 -64495.75 105290 -64811.31 105386.673 -65044.699 105565.302 -65223.327 105798.691 -65320 106076.75 -65320 106235.5 -65161.25 106235.5 -64337 105448.75 -64337 105290 -64495.75 101710 -64495.75 101710 -63608.69 105290 -63608.69 105290 -63924.25 105448.75 -64083 106235.5 -64083 106235.5 -63258.75 106076.75 -63100 105798.691 -63100 105565.302 -63196.673 105386.673 -63375.301 105290 -63608.69 101710 -63608.69 101710 -56710 102777.964 -56710 102569.375 -56849.375 102569.375 -56849.375"/><path d="M 102569.375 -56849.375 102241.161 -57340.582 102125.908 -57920 102241.161 -58499.418 102569.375 -58990.625 103060.582 -59318.839 103493.744 -59405 103786.256 -59405 104219.418 -59318.839 104710.625 -58990.625 104923.843 -58671.522 104984.817 -58801.358 105413.076 -59191.645 105823.11 -59361.476 106053 -59240.155 106053 -58047 106307 -58047 106307 -59240.155 106536.89 -59361.476 106946.924 -59191.645 107375.183 -58801.358 107450 -58642.046 107524.817 -58801.358 107953.076 -59191.645 108363.11 -59361.476 108593 -59240.155 108593 -58047 108847 -58047 108847 -59240.155 109076.89 -59361.476 109486.924 -59191.645 109915.183 -58801.358 109990 -58642.046 110064.817 -58801.358 110493.076 -59191.645 110903.11 -59361.476 111133 -59240.155 111133 -58047 108847 -58047 108593 -58047 106307 -58047 106053 -58047 106033 -58047 106033 -57793 106053 -57793 106053 -57773 106307 -57773 106307 -57793 108593 -57793 108593 -57773 108847 -57773 108847 -57793 111133 -57793 111133 -57773 111387 -57773 111387 -57793 111407 -57793 111407 -58047 111387 -58047 111387 -59240.155 111616.89 -59361.476 112026.924 -59191.645 112455.183 -58801.358 112516.157 -58671.522 112729.375 -58990.625 113220.582 -59318.839 113653.744 -59405 113799.301 -59405 113799.3 -60751.655 113626.309 -60680 113348.25 -60680 113189.5 -60838.75 113189.5 -61663 113209.5 -61663 113209.5 -61917 113189.5 -61917 113189.5 -62741.25 113348.25 -62900 113626.309 -62900 113799.3 -62828.345 113799.3 -62914.95 113782.88 -62997.5 113799.3 -63080.049 113799.3 -63080.053 113845.493 -63312.28 113775.676 -63358.93 113775.675 -63358.931 113705.691 -63405.693 113658.929 -63475.677 113096.368 -64038.238 113049.567 -63802.951 112928.842 -63622.273 112911.071 -63595.677 112911.07 -63595.676 112864.308 -63525.692 112794.324 -63478.93 112141.073 -62825.679 112094.309 -62755.693 111817.05 -62570.434 111572.555 -62521.801 111572.55 -62521.801 111490.001 -62505.381 111407.452 -62521.801 111207.139 -62521.801 111035.001 -62487.561 109535.001 -62487.561 109287.236 -62536.844 109077.192 -62677.192 108936.844 -62887.236 108907.9 -63032.749 108907.9 -62855.484 108818.643 -62640 108907.9 -62424.516 108907.9 -62075.75 111990 -62075.75 111990 -62391.31 112086.673 -62624.699 112265.302 -62803.327 112498.691 -62900 112776.75 -62900 112935.5 -62741.25 112935.5 -61917 112148.75 -61917 111990 -62075.75 108907.9 -62075.75 108907.9 -62035.484 108816.572 -61815 108907.9 -61594.516 108907.9 -61205.484 108900.944 -61188.69 111990 -61188.69 111990 -61504.25 112148.75 -61663 112935.5 -61663 112935.5 -60838.75 112776.75 -60680 112498.691 -60680 112265.302 -60776.673 112086.673 -60955.301 111990 -61188.69 108900.944 -61188.69 108759.023 -60846.064 108483.936 -60570.977 108124.516 -60422.1 107735.484 -60422.1 107376.064 -60570.977 107100.977 -60846.064 106952.1 -61205.484 106952.1 -61594.516 107043.428 -61815 106952.1 -62035.484 106952.1 -62424.516 107041.357 -62640 106952.1 -62855.484 106952.1 -63110.683 106926.309 -63100 106648.25 -63100 106489.5 -63258.75 106489.5 -64083 106509.5 -64083 106509.5 -64337 106489.5 -64337 106489.5 -65161.25 106648.25 -65320 106926.309 -65320 107159.698 -65223.327 107224.969 -65158.057 107387.273 -65266.505 107718.75 -65332.44 107722.166 -65332.44 103105.679 -69948.928 103035.692 -69995.692 102850.433 -70272.952 102801.8 -70517.447 102801.8 -70517.451 102785.38 -70600 102801.8 -70682.55 102801.801 -71875.362 102801.8 -71875.366 102801.8 -71934.074 102569.375 -72089.375 102241.161 -72580.582 102125.908 -73160 102241.161 -73739.418 102569.375 -74230.625 102658.236 -74290 101710 -74290 101710 -64495.75 105290 -64495.75 105290 -64811.31 105386.673 -65044.699 105565.302 -65223.327 105798.691 -65320 106076.75 -65320 106235.5 -65161.25 106235.5 -64337 105448.75 -64337 105290 -64495.75 101710 -64495.75 101710 -63608.69 105290 -63608.69 105290 -63924.25 105448.75 -64083 106235.5 -64083 106235.5 -63258.75 106076.75 -63100 105798.691 -63100 105565.302 -63196.673 105386.673 -63375.301 105290 -63608.69 101710 -63608.69 101710 -56710 102777.964 -56710 102569.375 -56849.375" fill="none" stroke-width="254"/><path d="M 110412.001 -67961.251 110432.001 -67981.251 110432.001 -68022.501 110412.001 -68022.501 110412.001 -68611.251 110570.751 -68770.001 110801.801 -68770.001 110801.801 -68942.805 108285.679 -71458.928 108215.692 -71505.692 108030.433 -71782.952 108018.548 -71842.701 107649.375 -72089.375 107450 -72387.761 107250.625 -72089.375 107018.2 -71934.074 107018.2 -69447.113 108900.001 -67565.313 108900.001 -67638.751 108919.404 -67658.154 108996.674 -67844.7 109174.476 -68022.501 109058.751 -68022.501 108900.001 -68181.251 108900.001 -68261.311 108996.674 -68494.7 109175.303 -68673.328 109408.692 -68770.001 109999.251 -68770.001 110158.001 -68611.251 110158.001 -68022.501 110096.751 -68022.501 110158.001 -67961.251 110158.001 -67113.001 110412.001 -67113.001 110412.001 -67961.251 110412.001 -67961.251"/><path d="M 110412.001 -67961.251 110432.001 -67981.251 110432.001 -68022.501 110412.001 -68022.501 110412.001 -68611.251 110570.751 -68770.001 110801.801 -68770.001 110801.801 -68942.805 108285.679 -71458.928 108215.692 -71505.692 108030.433 -71782.952 108018.548 -71842.701 107649.375 -72089.375 107450 -72387.761 107250.625 -72089.375 107018.2 -71934.074 107018.2 -69447.113 108900.001 -67565.313 108900.001 -67638.751 108919.404 -67658.154 108996.674 -67844.7 109174.476 -68022.501 109058.751 -68022.501 108900.001 -68181.251 108900.001 -68261.311 108996.674 -68494.7 109175.303 -68673.328 109408.692 -68770.001 109999.251 -68770.001 110158.001 -68611.251 110158.001 -68022.501 110096.751 -68022.501 110158.001 -67961.251 110158.001 -67113.001 110412.001 -67113.001 110412.001 -67961.251" fill="none" stroke-width="254"/><use xlink:href="#nvXpEq_SVn56BfmXztPE_pad-17" x="110290" y="-69130"/><use xlink:href="#nvXpEq_SVn56BfmXztPE_pad-17" x="107900" y="-69300"/><use xlink:href="#nvXpEq_SVn56BfmXztPE_pad-17" x="109190" y="-69220"/><use xlink:href="#nvXpEq_SVn56BfmXztPE_pad-17" x="108560" y="-68200"/><use xlink:href="#nvXpEq_SVn56BfmXztPE_pad-17" x="117870" y="-67958.501"/><use xlink:href="#nvXpEq_SVn56BfmXztPE_pad-17" x="118860" y="-67308.501"/><use xlink:href="#nvXpEq_SVn56BfmXztPE_pad-17" x="120860" y="-66140.002"/><use xlink:href="#nvXpEq_SVn56BfmXztPE_pad-17" x="107930" y="-61400"/><use xlink:href="#nvXpEq_SVn56BfmXztPE_pad-17" x="107930" y="-62230"/><use xlink:href="#nvXpEq_SVn56BfmXztPE_pad-17" x="107930" y="-63050"/><use xlink:href="#nvXpEq_SVn56BfmXztPE_pad-18" x="103640" y="-73160"/><use xlink:href="#nvXpEq_SVn56BfmXztPE_pad-18" x="106180" y="-73160"/><use xlink:href="#nvXpEq_SVn56BfmXztPE_pad-18" x="108720" y="-73160"/><use xlink:href="#nvXpEq_SVn56BfmXztPE_pad-18" x="111260" y="-73160"/><use xlink:href="#nvXpEq_SVn56BfmXztPE_pad-18" x="113800" y="-73160"/><use xlink:href="#nvXpEq_SVn56BfmXztPE_pad-18" x="116340" y="-73160"/><use xlink:href="#nvXpEq_SVn56BfmXztPE_pad-18" x="118880" y="-73160"/><use xlink:href="#nvXpEq_SVn56BfmXztPE_pad-18" x="121420" y="-73160"/><use xlink:href="#nvXpEq_SVn56BfmXztPE_pad-18" x="121420" y="-57920"/><use xlink:href="#nvXpEq_SVn56BfmXztPE_pad-18" x="118880" y="-57920"/><use xlink:href="#nvXpEq_SVn56BfmXztPE_pad-18" x="116340" y="-57920"/><use xlink:href="#nvXpEq_SVn56BfmXztPE_pad-18" x="113800" y="-57920"/><use xlink:href="#nvXpEq_SVn56BfmXztPE_pad-18" x="111260" y="-57920"/><use xlink:href="#nvXpEq_SVn56BfmXztPE_pad-18" x="108720" y="-57920"/><use xlink:href="#nvXpEq_SVn56BfmXztPE_pad-18" x="106180" y="-57920"/><use xlink:href="#nvXpEq_SVn56BfmXztPE_pad-18" x="103640" y="-57920"/></g><g id="fQXm6oPWPd1CkIZ6FD_K_top_solderpaste"><path d="M 108177.691 -63736.053 108198.926 -63739.203 108219.75 -63744.419 108239.962 -63751.651 108259.368 -63760.83 108277.781 -63771.866 108295.024 -63784.654 108310.93 -63799.07 108325.346 -63814.976 108338.134 -63832.219 108349.17 -63850.632 108358.349 -63870.038 108365.581 -63890.25 108370.797 -63911.074 108373.947 -63932.309 108375 -63953.75 108375 -64466.25 108373.947 -64487.691 108370.797 -64508.926 108365.581 -64529.75 108358.349 -64549.962 108349.17 -64569.368 108338.134 -64587.781 108325.346 -64605.024 108310.93 -64620.93 108295.024 -64635.346 108277.781 -64648.134 108259.368 -64659.17 108239.962 -64668.349 108219.75 -64675.581 108198.926 -64680.797 108177.691 -64683.947 108156.25 -64685 107718.75 -64685 107697.309 -64683.947 107676.074 -64680.797 107655.25 -64675.581 107635.038 -64668.349 107615.632 -64659.17 107597.219 -64648.134 107579.976 -64635.346 107564.07 -64620.93 107549.654 -64605.024 107536.866 -64587.781 107525.83 -64569.368 107516.651 -64549.962 107509.419 -64529.75 107504.203 -64508.926 107501.053 -64487.691 107500 -64466.25 107500 -63953.75 107501.053 -63932.309 107504.203 -63911.074 107509.419 -63890.25 107516.651 -63870.038 107525.83 -63850.632 107536.866 -63832.219 107549.654 -63814.976 107564.07 -63799.07 107579.976 -63784.654 107597.219 -63771.866 107615.632 -63760.83 107635.038 -63751.651 107655.25 -63744.419 107676.074 -63739.203 107697.309 -63736.053 107718.75 -63735 108156.25 -63735 108177.691 -63736.053 108177.691 -63736.053"/><use xlink:href="#rbWTsxAsSnlWxa50rLIY_pad-11" x="107937.5" y="-64210"/><path d="M 106602.691 -63736.053 106623.926 -63739.203 106644.75 -63744.419 106664.962 -63751.651 106684.368 -63760.83 106702.781 -63771.866 106720.024 -63784.654 106735.93 -63799.07 106750.346 -63814.976 106763.134 -63832.219 106774.17 -63850.632 106783.349 -63870.038 106790.581 -63890.25 106795.797 -63911.074 106798.947 -63932.309 106800 -63953.75 106800 -64466.25 106798.947 -64487.691 106795.797 -64508.926 106790.581 -64529.75 106783.349 -64549.962 106774.17 -64569.368 106763.134 -64587.781 106750.346 -64605.024 106735.93 -64620.93 106720.024 -64635.346 106702.781 -64648.134 106684.368 -64659.17 106664.962 -64668.349 106644.75 -64675.581 106623.926 -64680.797 106602.691 -64683.947 106581.25 -64685 106143.75 -64685 106122.309 -64683.947 106101.074 -64680.797 106080.25 -64675.581 106060.038 -64668.349 106040.632 -64659.17 106022.219 -64648.134 106004.976 -64635.346 105989.07 -64620.93 105974.654 -64605.024 105961.866 -64587.781 105950.83 -64569.368 105941.651 -64549.962 105934.419 -64529.75 105929.203 -64508.926 105926.053 -64487.691 105925 -64466.25 105925 -63953.75 105926.053 -63932.309 105929.203 -63911.074 105934.419 -63890.25 105941.651 -63870.038 105950.83 -63850.632 105961.866 -63832.219 105974.654 -63814.976 105989.07 -63799.07 106004.976 -63784.654 106022.219 -63771.866 106040.632 -63760.83 106060.038 -63751.651 106080.25 -63744.419 106101.074 -63739.203 106122.309 -63736.053 106143.75 -63735 106581.25 -63735 106602.691 -63736.053 106602.691 -63736.053"/><use xlink:href="#rbWTsxAsSnlWxa50rLIY_pad-11" x="106362.5" y="-64210"/><use xlink:href="#rbWTsxAsSnlWxa50rLIY_pad-12" x="110285.001" y="-63360.001"/><use xlink:href="#rbWTsxAsSnlWxa50rLIY_pad-12" x="110285.001" y="-64010.001"/><use xlink:href="#rbWTsxAsSnlWxa50rLIY_pad-12" x="110285.001" y="-64660.001"/><use xlink:href="#rbWTsxAsSnlWxa50rLIY_pad-12" x="110285.001" y="-65310.001"/><use xlink:href="#rbWTsxAsSnlWxa50rLIY_pad-12" x="110285.001" y="-65960.001"/><use xlink:href="#rbWTsxAsSnlWxa50rLIY_pad-12" x="110285.001" y="-66610.001"/><use xlink:href="#rbWTsxAsSnlWxa50rLIY_pad-12" x="110285.001" y="-67260.001"/><use xlink:href="#rbWTsxAsSnlWxa50rLIY_pad-12" x="110285.001" y="-67910.001"/><use xlink:href="#rbWTsxAsSnlWxa50rLIY_pad-12" x="116185.001" y="-67910.001"/><use xlink:href="#rbWTsxAsSnlWxa50rLIY_pad-12" x="116185.001" y="-67260.001"/><use xlink:href="#rbWTsxAsSnlWxa50rLIY_pad-12" x="116185.001" y="-66610.001"/><use xlink:href="#rbWTsxAsSnlWxa50rLIY_pad-12" x="116185.001" y="-65960.001"/><use xlink:href="#rbWTsxAsSnlWxa50rLIY_pad-12" x="116185.001" y="-65310.001"/><use xlink:href="#rbWTsxAsSnlWxa50rLIY_pad-12" x="116185.001" y="-64660.001"/><use xlink:href="#rbWTsxAsSnlWxa50rLIY_pad-12" x="116185.001" y="-64010.001"/><use xlink:href="#rbWTsxAsSnlWxa50rLIY_pad-12" x="116185.001" y="-63360.001"/><path d="M 113302.691 -61316.053 113323.926 -61319.203 113344.75 -61324.419 113364.962 -61331.651 113384.368 -61340.83 113402.781 -61351.866 113420.024 -61364.654 113435.93 -61379.07 113450.346 -61394.976 113463.134 -61412.219 113474.17 -61430.632 113483.349 -61450.038 113490.581 -61470.25 113495.797 -61491.074 113498.947 -61512.309 113500 -61533.75 113500 -62046.25 113498.947 -62067.691 113495.797 -62088.926 113490.581 -62109.75 113483.349 -62129.962 113474.17 -62149.368 113463.134 -62167.781 113450.346 -62185.024 113435.93 -62200.93 113420.024 -62215.346 113402.781 -62228.134 113384.368 -62239.17 113364.962 -62248.349 113344.75 -62255.581 113323.926 -62260.797 113302.691 -62263.947 113281.25 -62265 112843.75 -62265 112822.309 -62263.947 112801.074 -62260.797 112780.25 -62255.581 112760.038 -62248.349 112740.632 -62239.17 112722.219 -62228.134 112704.976 -62215.346 112689.07 -62200.93 112674.654 -62185.024 112661.866 -62167.781 112650.83 -62149.368 112641.651 -62129.962 112634.419 -62109.75 112629.203 -62088.926 112626.053 -62067.691 112625 -62046.25 112625 -61533.75 112626.053 -61512.309 112629.203 -61491.074 112634.419 -61470.25 112641.651 -61450.038 112650.83 -61430.632 112661.866 -61412.219 112674.654 -61394.976 112689.07 -61379.07 112704.976 -61364.654 112722.219 -61351.866 112740.632 -61340.83 112760.038 -61331.651 112780.25 -61324.419 112801.074 -61319.203 112822.309 -61316.053 112843.75 -61315 113281.25 -61315 113302.691 -61316.053 113302.691 -61316.053"/><use xlink:href="#rbWTsxAsSnlWxa50rLIY_pad-11" x="113062.5" y="-61790"/><path d="M 114877.691 -61316.053 114898.926 -61319.203 114919.75 -61324.419 114939.962 -61331.651 114959.368 -61340.83 114977.781 -61351.866 114995.024 -61364.654 115010.93 -61379.07 115025.346 -61394.976 115038.134 -61412.219 115049.17 -61430.632 115058.349 -61450.038 115065.581 -61470.25 115070.797 -61491.074 115073.947 -61512.309 115075 -61533.75 115075 -62046.25 115073.947 -62067.691 115070.797 -62088.926 115065.581 -62109.75 115058.349 -62129.962 115049.17 -62149.368 115038.134 -62167.781 115025.346 -62185.024 115010.93 -62200.93 114995.024 -62215.346 114977.781 -62228.134 114959.368 -62239.17 114939.962 -62248.349 114919.75 -62255.581 114898.926 -62260.797 114877.691 -62263.947 114856.25 -62265 114418.75 -62265 114397.309 -62263.947 114376.074 -62260.797 114355.25 -62255.581 114335.038 -62248.349 114315.632 -62239.17 114297.219 -62228.134 114279.976 -62215.346 114264.07 -62200.93 114249.654 -62185.024 114236.866 -62167.781 114225.83 -62149.368 114216.651 -62129.962 114209.419 -62109.75 114204.203 -62088.926 114201.053 -62067.691 114200 -62046.25 114200 -61533.75 114201.053 -61512.309 114204.203 -61491.074 114209.419 -61470.25 114216.651 -61450.038 114225.83 -61430.632 114236.866 -61412.219 114249.654 -61394.976 114264.07 -61379.07 114279.976 -61364.654 114297.219 -61351.866 114315.632 -61340.83 114335.038 -61331.651 114355.25 -61324.419 114376.074 -61319.203 114397.309 -61316.053 114418.75 -61315 114856.25 -61315 114877.691 -61316.053 114877.691 -61316.053"/><use xlink:href="#rbWTsxAsSnlWxa50rLIY_pad-11" x="114637.5" y="-61790"/></g><g id="fQXm6oPWPd1CkIZ6FD_K_top_silkscreen"><path d="M 102740 -71707.38 102740 -70707.38 M 103168.571 -71707.38 103168.571 -70707.38 103682.857 -71707.38 103682.857 -70707.38 M 104540 -70707.38 104111.428 -70707.38 104068.571 -71183.571 104111.428 -71135.952 104197.142 -71088.333 104411.428 -71088.333 104497.142 -71135.952 104540 -71183.571 104582.857 -71278.809 104582.857 -71516.904 104540 -71612.142 104497.142 -71659.761 104411.428 -71707.38 104197.142 -71707.38 104111.428 -71659.761 104068.571 -71612.142 M 105280 -71707.38 105280 -70707.38 M 105708.571 -71707.38 105708.571 -70707.38 106222.857 -71707.38 106222.857 -70707.38 M 106565.714 -70707.38 107165.714 -70707.38 106780 -71707.38 M 107820 -71707.38 107820 -70707.38 M 108248.571 -71707.38 108248.571 -70707.38 108762.857 -71707.38 108762.857 -70707.38 M 109577.142 -70707.38 109405.714 -70707.38 109320 -70755 109277.142 -70802.619 109191.428 -70945.476 109148.571 -71135.952 109148.571 -71516.904 109191.428 -71612.142 109234.285 -71659.761 109320 -71707.38 109491.428 -71707.38 109577.142 -71659.761 109620 -71612.142 109662.857 -71516.904 109662.857 -71278.809 109620 -71183.571 109577.142 -71135.952 109491.428 -71088.333 109320 -71088.333 109234.285 -71135.952 109191.428 -71183.571 109148.571 -71278.809 M 110360 -71707.38 110360 -70707.38 M 110788.571 -71707.38 110788.571 -70707.38 111302.857 -71707.38 111302.857 -70707.38 M 112117.142 -71040.714 112117.142 -71707.38 M 111902.857 -70659.761 111688.571 -71374.047 112245.714 -71374.047 M 112900 -71707.38 112900 -70707.38 M 113328.571 -71707.38 113328.571 -70707.38 113842.857 -71707.38 113842.857 -70707.38 M 114228.571 -70802.619 114271.428 -70755 114357.142 -70707.38 114571.428 -70707.38 114657.142 -70755 114700 -70802.619 114742.857 -70897.857 114742.857 -70993.095 114700 -71135.952 114185.714 -71707.38 114742.857 -71707.38 M 120520 -71707.38 120520 -70707.38 M 120948.571 -71707.38 120948.571 -70707.38 121462.857 -71707.38 121462.857 -70707.38 M 121805.714 -70707.38 122362.857 -70707.38 122062.857 -71088.333 122191.428 -71088.333 122277.142 -71135.952 122320 -71183.571 122362.857 -71278.809 122362.857 -71516.904 122320 -71612.142 122277.142 -71659.761 122191.428 -71707.38 121934.285 -71707.38 121848.571 -71659.761 121805.714 -71612.142 M 117980 -71707.38 117980 -70707.38 M 118408.571 -71707.38 118408.571 -70707.38 118922.857 -71707.38 118922.857 -70707.38 M 119522.857 -70707.38 119608.571 -70707.38 119694.285 -70755 119737.142 -70802.619 119780 -70897.857 119822.857 -71088.333 119822.857 -71326.428 119780 -71516.904 119737.142 -71612.142 119694.285 -71659.761 119608.571 -71707.38 119522.857 -71707.38 119437.142 -71659.761 119394.285 -71612.142 119351.428 -71516.904 119308.571 -71326.428 119308.571 -71088.333 119351.428 -70897.857 119394.285 -70802.619 119437.142 -70755 119522.857 -70707.38 M 115440 -71707.38 115440 -70707.38 M 115868.571 -71707.38 115868.571 -70707.38 116382.857 -71707.38 116382.857 -70707.38 M 117282.857 -71707.38 116768.571 -71707.38 M 117025.714 -71707.38 117025.714 -70707.38 116940 -70850.238 116854.285 -70945.476 116768.571 -70993.095 M 112466.666 -59277.38 112961.904 -59277.38 112695.238 -59658.333 112809.523 -59658.333 112885.714 -59705.952 112923.809 -59753.571 112961.904 -59848.809 112961.904 -60086.904 112923.809 -60182.142 112885.714 -60229.761 112809.523 -60277.38 112580.952 -60277.38 112504.761 -60229.761 112466.666 -60182.142 M 113190.476 -59277.38 113457.142 -60277.38 113723.809 -59277.38 M 113914.285 -59277.38 114409.523 -59277.38 114142.857 -59658.333 114257.142 -59658.333 114333.333 -59705.952 114371.428 -59753.571 114409.523 -59848.809 114409.523 -60086.904 114371.428 -60182.142 114333.333 -60229.761 114257.142 -60277.38 114028.571 -60277.38 113952.38 -60229.761 113914.285 -60182.142 M 114714.285 -59991.666 115095.238 -59991.666 M 114638.095 -60277.38 114904.761 -59277.38 115171.428 -60277.38" fill="none" stroke-width="150"/><path d="M 122250 -61317.5 122250 -60817.5 M 121000 -61317.5 122250 -61317.5 M 115500 -61317.5 115500 -60817.5 M 116750 -61317.5 115500 -61317.5" fill="none" stroke-width="200"/><path d="M 117141.904 -61579.166 117618.095 -61579.166 M 117046.666 -61864.88 117380 -60864.88 117713.333 -61864.88 M 118046.666 -61864.88 118046.666 -60864.88 118284.761 -60864.88 118427.619 -60912.5 118522.857 -61007.738 118570.476 -61102.976 118618.095 -61293.452 118618.095 -61436.309 118570.476 -61626.785 118522.857 -61722.023 118427.619 -61817.261 118284.761 -61864.88 118046.666 -61864.88 M 119046.666 -61864.88 119046.666 -60864.88 119284.761 -60864.88 119427.619 -60912.5 119522.857 -61007.738 119570.476 -61102.976 119618.095 -61293.452 119618.095 -61436.309 119570.476 -61626.785 119522.857 -61722.023 119427.619 -61817.261 119284.761 -61864.88 119046.666 -61864.88 M 120618.095 -61864.88 120284.761 -61388.69 M 120046.666 -61864.88 120046.666 -60864.88 120427.619 -60864.88 120522.857 -60912.5 120570.476 -60960.119 120618.095 -61055.357 120618.095 -61198.214 120570.476 -61293.452 120522.857 -61341.071 120427.619 -61388.69 120046.666 -61388.69 M 121181.904 -59991.666 121658.095 -59991.666 M 121086.666 -60277.38 121420 -59277.38 121753.333 -60277.38 M 118951.428 -59753.571 119094.285 -59801.19 119141.904 -59848.809 119189.523 -59944.047 119189.523 -60086.904 119141.904 -60182.142 119094.285 -60229.761 118999.047 -60277.38 118618.095 -60277.38 118618.095 -59277.38 118951.428 -59277.38 119046.666 -59325 119094.285 -59372.619 119141.904 -59467.857 119141.904 -59563.095 119094.285 -59658.333 119046.666 -59705.952 118951.428 -59753.571 118618.095 -59753.571 M 112292.843 -63580 A 282.843 282.843 0 0 1 111727.157 -63580 282.843 282.843 0 0 1 112292.843 -63580 M 101904.285 -66912.38 101904.285 -65912.38 102170.952 -66626.666 102437.619 -65912.38 102437.619 -66912.38 M 103161.428 -66245.714 103161.428 -66912.38 M 102818.571 -66245.714 102818.571 -66769.523 102856.666 -66864.761 102932.857 -66912.38 103047.142 -66912.38 103123.333 -66864.761 103161.428 -66817.142 M 103656.666 -66912.38 103580.476 -66864.761 103542.38 -66769.523 103542.38 -65912.38 M 103847.142 -66245.714 104151.904 -66245.714 M 103961.428 -65912.38 103961.428 -66769.523 103999.523 -66864.761 104075.714 -66912.38 104151.904 -66912.38 M 104418.571 -66912.38 104418.571 -66245.714 M 104418.571 -65912.38 104380.476 -65960 104418.571 -66007.619 104456.666 -65960 104418.571 -65912.38 104418.571 -66007.619 M 104799.523 -66245.714 104799.523 -67245.714 M 104799.523 -66293.333 104875.714 -66245.714 105028.095 -66245.714 105104.285 -66293.333 105142.38 -66340.952 105180.476 -66436.19 105180.476 -66721.904 105142.38 -66817.142 105104.285 -66864.761 105028.095 -66912.38 104875.714 -66912.38 104799.523 -66864.761 M 105637.619 -66912.38 105561.428 -66864.761 105523.333 -66769.523 105523.333 -65912.38 M 106247.142 -66864.761 106170.952 -66912.38 106018.571 -66912.38 105942.38 -66864.761 105904.285 -66769.523 105904.285 -66388.571 105942.38 -66293.333 106018.571 -66245.714 106170.952 -66245.714 106247.142 -66293.333 106285.238 -66388.571 106285.238 -66483.809 105904.285 -66579.047 M 106551.904 -66912.38 106970.952 -66245.714 M 106551.904 -66245.714 106970.952 -66912.38 M 107580.476 -66864.761 107504.285 -66912.38 107351.904 -66912.38 107275.714 -66864.761 107237.619 -66769.523 107237.619 -66388.571 107275.714 -66293.333 107351.904 -66245.714 107504.285 -66245.714 107580.476 -66293.333 107618.571 -66388.571 107618.571 -66483.809 107237.619 -66579.047 M 107961.428 -66912.38 107961.428 -66245.714 M 107961.428 -66436.19 107999.523 -66340.952 108037.619 -66293.333 108113.809 -66245.714 108190 -66245.714" fill="none" stroke-width="150"/><path d="M 111895 -59825 111895 -59190 M 110625 -59825 111895 -59825 M 105545 -59825 106815 -59825 M 105545 -59190 105545 -59825" fill="none" stroke-width="200"/><path d="M 107958.095 -59325 107862.857 -59277.38 107720 -59277.38 107577.142 -59325 107481.904 -59420.238 107434.285 -59515.476 107386.666 -59705.952 107386.666 -59848.809 107434.285 -60039.285 107481.904 -60134.523 107577.142 -60229.761 107720 -60277.38 107815.238 -60277.38 107958.095 -60229.761 108005.714 -60182.142 108005.714 -59848.809 107815.238 -59848.809 M 108434.285 -60277.38 108434.285 -59277.38 109005.714 -60277.38 109005.714 -59277.38 M 109481.904 -60277.38 109481.904 -59277.38 109720 -59277.38 109862.857 -59325 109958.095 -59420.238 110005.714 -59515.476 110053.333 -59705.952 110053.333 -59848.809 110005.714 -60039.285 109958.095 -60134.523 109862.857 -60229.761 109720 -60277.38 109481.904 -60277.38 M 116649.523 -60182.142 116601.904 -60229.761 116459.047 -60277.38 116363.809 -60277.38 116220.952 -60229.761 116125.714 -60134.523 116078.095 -60039.285 116030.476 -59848.809 116030.476 -59705.952 116078.095 -59515.476 116125.714 -59420.238 116220.952 -59325 116363.809 -59277.38 116459.047 -59277.38 116601.904 -59325 116649.523 -59372.619 M 102740 -59277.38 102911.428 -59277.38 102997.142 -59325 103082.857 -59420.238 103125.714 -59610.714 103125.714 -59944.047 103082.857 -60134.523 102997.142 -60229.761 102911.428 -60277.38 102740 -60277.38 102654.285 -60229.761 102568.571 -60134.523 102525.714 -59944.047 102525.714 -59610.714 102568.571 -59420.238 102654.285 -59325 102740 -59277.38 M 103511.428 -59277.38 103511.428 -60086.904 103554.285 -60182.142 103597.142 -60229.761 103682.857 -60277.38 103854.285 -60277.38 103940 -60229.761 103982.857 -60182.142 104025.714 -60086.904 104025.714 -59277.38 M 104325.714 -59277.38 104840 -59277.38 M 104582.857 -60277.38 104582.857 -59277.38" fill="none" stroke-width="150"/><path d="M 107312.779 -64720 106987.221 -64720 M 107312.779 -63700 106987.221 -63700" fill="none" stroke-width="120"/><path d="M 111035.001 -68360.001 115435.001 -68360.001 M 109460.001 -62835.001 115435.001 -62835.001" fill="none" stroke-width="150"/><path d="M 113687.221 -61280 114012.779 -61280 M 113687.221 -62300 114012.779 -62300" fill="none" stroke-width="120"/><path d="M 104483.333 -64547.142 104435.714 -64594.761 104292.857 -64642.38 104197.619 -64642.38 104054.761 -64594.761 103959.523 -64499.523 103911.904 -64404.285 103864.285 -64213.809 103864.285 -64070.952 103911.904 -63880.476 103959.523 -63785.238 104054.761 -63690 104197.619 -63642.38 104292.857 -63642.38 104435.714 -63690 104483.333 -63737.619 M 105435.714 -64642.38 104864.285 -64642.38 M 105150 -64642.38 105150 -63642.38 105054.761 -63785.238 104959.523 -63880.476 104864.285 -63928.095 M 109368.095 -61422.38 109368.095 -62231.904 109415.714 -62327.142 109463.333 -62374.761 109558.571 -62422.38 109749.047 -62422.38 109844.285 -62374.761 109891.904 -62327.142 109939.523 -62231.904 109939.523 -61422.38 M 110939.523 -62422.38 110368.095 -62422.38 M 110653.809 -62422.38 110653.809 -61422.38 110558.571 -61565.238 110463.333 -61660.476 110368.095 -61708.095 M 111283.333 -61197.142 111235.714 -61244.761 111092.857 -61292.38 110997.619 -61292.38 110854.761 -61244.761 110759.523 -61149.523 110711.904 -61054.285 110664.285 -60863.809 110664.285 -60720.952 110711.904 -60530.476 110759.523 -60435.238 110854.761 -60340 110997.619 -60292.38 111092.857 -60292.38 111235.714 -60340 111283.333 -60387.619 M 111664.285 -60387.619 111711.904 -60340 111807.142 -60292.38 112045.238 -60292.38 112140.476 -60340 112188.095 -60387.619 112235.714 -60482.857 112235.714 -60578.095 112188.095 -60720.952 111616.666 -61292.38 112235.714 -61292.38" fill="none" stroke-width="150"/></g><g id="fQXm6oPWPd1CkIZ6FD_K_top_drill1"><use xlink:href="#C2GeMbPJ7X2xaen9_68H_pad-1" x="107900" y="-69300"/><use xlink:href="#C2GeMbPJ7X2xaen9_68H_pad-1" x="107930" y="-61400"/><use xlink:href="#C2GeMbPJ7X2xaen9_68H_pad-1" x="107930" y="-62230"/><use xlink:href="#C2GeMbPJ7X2xaen9_68H_pad-1" x="107930" y="-63050"/><use xlink:href="#C2GeMbPJ7X2xaen9_68H_pad-1" x="108560" y="-68200"/><use xlink:href="#C2GeMbPJ7X2xaen9_68H_pad-1" x="109190" y="-69220"/><use xlink:href="#C2GeMbPJ7X2xaen9_68H_pad-1" x="110290" y="-69130"/><use xlink:href="#C2GeMbPJ7X2xaen9_68H_pad-1" x="117870" y="-67959"/><use xlink:href="#C2GeMbPJ7X2xaen9_68H_pad-1" x="118860" y="-67309"/><use xlink:href="#C2GeMbPJ7X2xaen9_68H_pad-1" x="120860" y="-66140"/><use xlink:href="#C2GeMbPJ7X2xaen9_68H_pad-2" x="103640" y="-73160"/><use xlink:href="#C2GeMbPJ7X2xaen9_68H_pad-2" x="106180" y="-73160"/><use xlink:href="#C2GeMbPJ7X2xaen9_68H_pad-2" x="108720" y="-73160"/><use xlink:href="#C2GeMbPJ7X2xaen9_68H_pad-2" x="111260" y="-73160"/><use xlink:href="#C2GeMbPJ7X2xaen9_68H_pad-2" x="113800" y="-73160"/><use xlink:href="#C2GeMbPJ7X2xaen9_68H_pad-2" x="116340" y="-73160"/><use xlink:href="#C2GeMbPJ7X2xaen9_68H_pad-2" x="118880" y="-73160"/><use xlink:href="#C2GeMbPJ7X2xaen9_68H_pad-2" x="121420" y="-73160"/><use xlink:href="#C2GeMbPJ7X2xaen9_68H_pad-2" x="103640" y="-57920"/><use xlink:href="#C2GeMbPJ7X2xaen9_68H_pad-2" x="106180" y="-57920"/><use xlink:href="#C2GeMbPJ7X2xaen9_68H_pad-2" x="108720" y="-57920"/><use xlink:href="#C2GeMbPJ7X2xaen9_68H_pad-2" x="111260" y="-57920"/><use xlink:href="#C2GeMbPJ7X2xaen9_68H_pad-2" x="113800" y="-57920"/><use xlink:href="#C2GeMbPJ7X2xaen9_68H_pad-2" x="116340" y="-57920"/><use xlink:href="#C2GeMbPJ7X2xaen9_68H_pad-2" x="118880" y="-57920"/><use xlink:href="#C2GeMbPJ7X2xaen9_68H_pad-2" x="121420" y="-57920"/></g><clipPath id="fQXm6oPWPd1CkIZ6FD_K_top_outline"><path d="M 101000 -56000 101000 -75000 123000 -75000 123000 -56000 101000 -56000" fill="none" stroke-width="150"/></clipPath><mask id="fQXm6oPWPd1CkIZ6FD_K_top_mech-mask"><g fill="#000" stroke="#000"><rect x="101000" y="-75000" width="22000" height="19000" fill="#fff"/><use xlink:href="#fQXm6oPWPd1CkIZ6FD_K_top_drill1"/></g></mask><mask id="fQXm6oPWPd1CkIZ6FD_K_top_cf-mask"><g fill="#fff" stroke="#fff"><use xlink:href="#fQXm6oPWPd1CkIZ6FD_K_top_soldermask"/></g></mask><mask id="fQXm6oPWPd1CkIZ6FD_K_top_sm-mask"><g fill="#000" stroke="#000"><rect x="101000" y="-75000" width="22000" height="19000" fill="#fff"/><use xlink:href="#fQXm6oPWPd1CkIZ6FD_K_top_soldermask"/></g></mask></defs><g transform="translate(0,-131000) scale(1,-1)"><g mask="url(#fQXm6oPWPd1CkIZ6FD_K_top_mech-mask)" clip-path="url(#fQXm6oPWPd1CkIZ6FD_K_top_outline)"><rect x="101000" y="-75000" width="22000" height="19000" fill="currentColor" class="fQXm6oPWPd1CkIZ6FD_K_fr4"/><use xlink:href="#fQXm6oPWPd1CkIZ6FD_K_top_copper" fill="currentColor" stroke="currentColor" class="fQXm6oPWPd1CkIZ6FD_K_cu"/><use xlink:href="#fQXm6oPWPd1CkIZ6FD_K_top_copper" fill="currentColor" stroke="currentColor" class="fQXm6oPWPd1CkIZ6FD_K_cf" mask="url(#fQXm6oPWPd1CkIZ6FD_K_top_cf-mask)"/><g mask="url(#fQXm6oPWPd1CkIZ6FD_K_top_sm-mask)"><rect x="101000" y="-75000" width="22000" height="19000" fill="currentColor" class="fQXm6oPWPd1CkIZ6FD_K_sm"/><use xlink:href="#fQXm6oPWPd1CkIZ6FD_K_top_silkscreen" fill="currentColor" stroke="currentColor" class="fQXm6oPWPd1CkIZ6FD_K_ss"/></g><use xlink:href="#fQXm6oPWPd1CkIZ6FD_K_top_solderpaste" fill="currentColor" stroke="currentColor" class="fQXm6oPWPd1CkIZ6FD_K_sp"/></g></g></svg>