<svg version="1.1" xmlns="http://www.w3.org/2000/svg" xmlns:xlink="http://www.w3.org/1999/xlink" stroke-linecap="round" stroke-linejoin="round" stroke-width="0" fill-rule="evenodd" clip-rule="evenodd" id="VKc239pU5PFAg5FmD6Q0_top" viewBox="101000 -75000 22000 19000" width="22mm" height="19mm" class="w-100 h-100"><defs><style>.VKc239pU5PFAg5FmD6Q0_fr4 {color: #666666;}
.VKc239pU5PFAg5FmD6Q0_cu {color: #cccccc;}
.VKc239pU5PFAg5FmD6Q0_cf {color: #cc9933;}
.VKc239pU5PFAg5FmD6Q0_sm {color: #004200; opacity: 0.75;}
.VKc239pU5PFAg5FmD6Q0_ss {color: #ffffff;}
.VKc239pU5PFAg5FmD6Q0_sp {color: #999999;}
.VKc239pU5PFAg5FmD6Q0_out {color: #000000;}</style><rect x="-750" y="-225" width="1500" height="450" id="XqBbQQ7kP8qVLTDA-LlK_pad-10"/><rect x="-850" y="-850" width="1700" height="1700" rx="850" ry="850" id="ayBQEpLvfyUhWS8Rtxyy_pad-10"/><rect x="-750" y="-225" width="1500" height="450" id="ayBQEpLvfyUhWS8Rtxyy_pad-11"/><circle cx="0" cy="0" r="342.9" id="ayBQEpLvfyUhWS8Rtxyy_pad-12"/><circle cx="0" cy="0" r="152.4" id="ayBQEpLvfyUhWS8Rtxyy_pad-16"/><circle cx="0" cy="0" r="175" id="ayBQEpLvfyUhWS8Rtxyy_pad-17"/><rect x="-920" y="-920" width="1840" height="1840" rx="920" ry="920" id="nlylT-DZY8KphBpJcH1t_pad-10"/><circle cx="0" cy="0" r="152.5" id="iwxRzA9nKxHQ-aLOdAMo_pad-1"/><circle cx="0" cy="0" r="500" id="iwxRzA9nKxHQ-aLOdAMo_pad-2"/><g id="VKc239pU5PFAg5FmD6Q0_top_silkscreen"><path d="M 102740 -71707.38 102740 -70707.38 M 103168.571 -71707.38 103168.571 -70707.38 103682.857 -71707.38 103682.857 -70707.38 M 104025.714 -70707.38 104625.714 -70707.38 104240 -71707.38 M 105280 -71707.38 105280 -70707.38 M 105708.571 -71707.38 105708.571 -70707.38 106222.857 -71707.38 106222.857 -70707.38 M 107080 -70707.38 106651.428 -70707.38 106608.571 -71183.571 106651.428 -71135.952 106737.142 -71088.333 106951.428 -71088.333 107037.142 -71135.952 107080 -71183.571 107122.857 -71278.809 107122.857 -71516.904 107080 -71612.142 107037.142 -71659.761 106951.428 -71707.38 106737.142 -71707.38 106651.428 -71659.761 106608.571 -71612.142 M 107820 -71707.38 107820 -70707.38 M 108248.571 -71707.38 108248.571 -70707.38 108762.857 -71707.38 108762.857 -70707.38 M 109577.142 -70707.38 109405.714 -70707.38 109320 -70755 109277.142 -70802.619 109191.428 -70945.476 109148.571 -71135.952 109148.571 -71516.904 109191.428 -71612.142 109234.285 -71659.761 109320 -71707.38 109491.428 -71707.38 109577.142 -71659.761 109620 -71612.142 109662.857 -71516.904 109662.857 -71278.809 109620 -71183.571 109577.142 -71135.952 109491.428 -71088.333 109320 -71088.333 109234.285 -71135.952 109191.428 -71183.571 109148.571 -71278.809 M 110360 -71707.38 110360 -70707.38 M 110788.571 -71707.38 110788.571 -70707.38 111302.857 -71707.38 111302.857 -70707.38 M 112117.142 -71040.714 112117.142 -71707.38 M 111902.857 -70659.761 111688.571 -71374.047 112245.714 -71374.047 M 112900 -71707.38 112900 -70707.38 M 113328.571 -71707.38 113328.571 -70707.38 113842.857 -71707.38 113842.857 -70707.38 M 114228.571 -70802.619 114271.428 -70755 114357.142 -70707.38 114571.428 -70707.38 114657.142 -70755 114700 -70802.619 114742.857 -70897.857 114742.857 -70993.095 114700 -71135.952 114185.714 -71707.38 114742.857 -71707.38 M 120520 -71707.38 120520 -70707.38 M 120948.571 -71707.38 120948.571 -70707.38 121462.857 -71707.38 121462.857 -70707.38 M 121805.714 -70707.38 122362.857 -70707.38 122062.857 -71088.333 122191.428 -71088.333 122277.142 -71135.952 122320 -71183.571 122362.857 -71278.809 122362.857 -71516.904 122320 -71612.142 122277.142 -71659.761 122191.428 -71707.38 121934.285 -71707.38 121848.571 -71659.761 121805.714 -71612.142 M 117980 -71707.38 117980 -70707.38 M 118408.571 -71707.38 118408.571 -70707.38 118922.857 -71707.38 118922.857 -70707.38 M 119522.857 -70707.38 119608.571 -70707.38 119694.285 -70755 119737.142 -70802.619 119780 -70897.857 119822.857 -71088.333 119822.857 -71326.428 119780 -71516.904 119737.142 -71612.142 119694.285 -71659.761 119608.571 -71707.38 119522.857 -71707.38 119437.142 -71659.761 119394.285 -71612.142 119351.428 -71516.904 119308.571 -71326.428 119308.571 -71088.333 119351.428 -70897.857 119394.285 -70802.619 119437.142 -70755 119522.857 -70707.38 M 115440 -71707.38 115440 -70707.38 M 115868.571 -71707.38 115868.571 -70707.38 116382.857 -71707.38 116382.857 -70707.38 M 117282.857 -71707.38 116768.571 -71707.38 M 117025.714 -71707.38 117025.714 -70707.38 116940 -70850.238 116854.285 -70945.476 116768.571 -70993.095 M 112466.666 -59277.38 112961.904 -59277.38 112695.238 -59658.333 112809.523 -59658.333 112885.714 -59705.952 112923.809 -59753.571 112961.904 -59848.809 112961.904 -60086.904 112923.809 -60182.142 112885.714 -60229.761 112809.523 -60277.38 112580.952 -60277.38 112504.761 -60229.761 112466.666 -60182.142 M 113190.476 -59277.38 113457.142 -60277.38 113723.809 -59277.38 M 113914.285 -59277.38 114409.523 -59277.38 114142.857 -59658.333 114257.142 -59658.333 114333.333 -59705.952 114371.428 -59753.571 114409.523 -59848.809 114409.523 -60086.904 114371.428 -60182.142 114333.333 -60229.761 114257.142 -60277.38 114028.571 -60277.38 113952.38 -60229.761 113914.285 -60182.142 M 114714.285 -59991.666 115095.238 -59991.666 M 114638.095 -60277.38 114904.761 -59277.38 115171.428 -60277.38" fill="none" stroke-width="150"/><path d="M 122250 -61317.5 122250 -60817.5 M 121000 -61317.5 122250 -61317.5 M 115500 -61317.5 115500 -60817.5 M 116750 -61317.5 115500 -61317.5" fill="none" stroke-width="200"/><path d="M 117141.904 -61579.166 117618.095 -61579.166 M 117046.666 -61864.88 117380 -60864.88 117713.333 -61864.88 M 118046.666 -61864.88 118046.666 -60864.88 118284.761 -60864.88 118427.619 -60912.5 118522.857 -61007.738 118570.476 -61102.976 118618.095 -61293.452 118618.095 -61436.309 118570.476 -61626.785 118522.857 -61722.023 118427.619 -61817.261 118284.761 -61864.88 118046.666 -61864.88 M 119046.666 -61864.88 119046.666 -60864.88 119284.761 -60864.88 119427.619 -60912.5 119522.857 -61007.738 119570.476 -61102.976 119618.095 -61293.452 119618.095 -61436.309 119570.476 -61626.785 119522.857 -61722.023 119427.619 -61817.261 119284.761 -61864.88 119046.666 -61864.88 M 120618.095 -61864.88 120284.761 -61388.69 M 120046.666 -61864.88 120046.666 -60864.88 120427.619 -60864.88 120522.857 -60912.5 120570.476 -60960.119 120618.095 -61055.357 120618.095 -61198.214 120570.476 -61293.452 120522.857 -61341.071 120427.619 -61388.69 120046.666 -61388.69 M 121181.904 -59991.666 121658.095 -59991.666 M 121086.666 -60277.38 121420 -59277.38 121753.333 -60277.38 M 118951.428 -59753.571 119094.285 -59801.19 119141.904 -59848.809 119189.523 -59944.047 119189.523 -60086.904 119141.904 -60182.142 119094.285 -60229.761 118999.047 -60277.38 118618.095 -60277.38 118618.095 -59277.38 118951.428 -59277.38 119046.666 -59325 119094.285 -59372.619 119141.904 -59467.857 119141.904 -59563.095 119094.285 -59658.333 119046.666 -59705.952 118951.428 -59753.571 118618.095 -59753.571 M 112292.843 -63580 A 282.843 282.843 0 0 1 111727.157 -63580 282.843 282.843 0 0 1 112292.843 -63580 M 101904.285 -66912.38 101904.285 -65912.38 102170.952 -66626.666 102437.619 -65912.38 102437.619 -66912.38 M 103161.428 -66245.714 103161.428 -66912.38 M 102818.571 -66245.714 102818.571 -66769.523 102856.666 -66864.761 102932.857 -66912.38 103047.142 -66912.38 103123.333 -66864.761 103161.428 -66817.142 M 103656.666 -66912.38 103580.476 -66864.761 103542.38 -66769.523 103542.38 -65912.38 M 103847.142 -66245.714 104151.904 -66245.714 M 103961.428 -65912.38 103961.428 -66769.523 103999.523 -66864.761 104075.714 -66912.38 104151.904 -66912.38 M 104418.571 -66912.38 104418.571 -66245.714 M 104418.571 -65912.38 104380.476 -65960 104418.571 -66007.619 104456.666 -65960 104418.571 -65912.38 104418.571 -66007.619 M 104799.523 -66245.714 104799.523 -67245.714 M 104799.523 -66293.333 104875.714 -66245.714 105028.095 -66245.714 105104.285 -66293.333 105142.38 -66340.952 105180.476 -66436.19 105180.476 -66721.904 105142.38 -66817.142 105104.285 -66864.761 105028.095 -66912.38 104875.714 -66912.38 104799.523 -66864.761 M 105637.619 -66912.38 105561.428 -66864.761 105523.333 -66769.523 105523.333 -65912.38 M 106247.142 -66864.761 106170.952 -66912.38 106018.571 -66912.38 105942.38 -66864.761 105904.285 -66769.523 105904.285 -66388.571 105942.38 -66293.333 106018.571 -66245.714 106170.952 -66245.714 106247.142 -66293.333 106285.238 -66388.571 106285.238 -66483.809 105904.285 -66579.047 M 106551.904 -66912.38 106970.952 -66245.714 M 106551.904 -66245.714 106970.952 -66912.38 M 107580.476 -66864.761 107504.285 -66912.38 107351.904 -66912.38 107275.714 -66864.761 107237.619 -66769.523 107237.619 -66388.571 107275.714 -66293.333 107351.904 -66245.714 107504.285 -66245.714 107580.476 -66293.333 107618.571 -66388.571 107618.571 -66483.809 107237.619 -66579.047 M 107961.428 -66912.38 107961.428 -66245.714 M 107961.428 -66436.19 107999.523 -66340.952 108037.619 -66293.333 108113.809 -66245.714 108190 -66245.714" fill="none" stroke-width="150"/><path d="M 111895 -59825 111895 -59190 M 110625 -59825 111895 -59825 M 105545 -59825 106815 -59825 M 105545 -59190 105545 -59825" fill="none" stroke-width="200"/><path d="M 107958.095 -59325 107862.857 -59277.38 107720 -59277.38 107577.142 -59325 107481.904 -59420.238 107434.285 -59515.476 107386.666 -59705.952 107386.666 -59848.809 107434.285 -60039.285 107481.904 -60134.523 107577.142 -60229.761 107720 -60277.38 107815.238 -60277.38 107958.095 -60229.761 108005.714 -60182.142 108005.714 -59848.809 107815.238 -59848.809 M 108434.285 -60277.38 108434.285 -59277.38 109005.714 -60277.38 109005.714 -59277.38 M 109481.904 -60277.38 109481.904 -59277.38 109720 -59277.38 109862.857 -59325 109958.095 -59420.238 110005.714 -59515.476 110053.333 -59705.952 110053.333 -59848.809 110005.714 -60039.285 109958.095 -60134.523 109862.857 -60229.761 109720 -60277.38 109481.904 -60277.38 M 116649.523 -60182.142 116601.904 -60229.761 116459.047 -60277.38 116363.809 -60277.38 116220.952 -60229.761 116125.714 -60134.523 116078.095 -60039.285 116030.476 -59848.809 116030.476 -59705.952 116078.095 -59515.476 116125.714 -59420.238 116220.952 -59325 116363.809 -59277.38 116459.047 -59277.38 116601.904 -59325 116649.523 -59372.619 M 102740 -59277.38 102911.428 -59277.38 102997.142 -59325 103082.857 -59420.238 103125.714 -59610.714 103125.714 -59944.047 103082.857 -60134.523 102997.142 -60229.761 102911.428 -60277.38 102740 -60277.38 102654.285 -60229.761 102568.571 -60134.523 102525.714 -59944.047 102525.714 -59610.714 102568.571 -59420.238 102654.285 -59325 102740 -59277.38 M 103511.428 -59277.38 103511.428 -60086.904 103554.285 -60182.142 103597.142 -60229.761 103682.857 -60277.38 103854.285 -60277.38 103940 -60229.761 103982.857 -60182.142 104025.714 -60086.904 104025.714 -59277.38 M 104325.714 -59277.38 104840 -59277.38 M 104582.857 -60277.38 104582.857 -59277.38" fill="none" stroke-width="150"/><path d="M 107312.779 -63700 106987.221 -63700 M 107312.779 -64720 106987.221 -64720" fill="none" stroke-width="120"/><path d="M 109460.001 -62835.001 115435.001 -62835.001 M 111035.001 -68360.001 115435.001 -68360.001" fill="none" stroke-width="150"/><path d="M 113687.221 -62300 114012.779 -62300 M 113687.221 -61280 114012.779 -61280" fill="none" stroke-width="120"/><path d="M 104483.333 -64547.142 104435.714 -64594.761 104292.857 -64642.38 104197.619 -64642.38 104054.761 -64594.761 103959.523 -64499.523 103911.904 -64404.285 103864.285 -64213.809 103864.285 -64070.952 103911.904 -63880.476 103959.523 -63785.238 104054.761 -63690 104197.619 -63642.38 104292.857 -63642.38 104435.714 -63690 104483.333 -63737.619 M 105435.714 -64642.38 104864.285 -64642.38 M 105150 -64642.38 105150 -63642.38 105054.761 -63785.238 104959.523 -63880.476 104864.285 -63928.095 M 109368.095 -61422.38 109368.095 -62231.904 109415.714 -62327.142 109463.333 -62374.761 109558.571 -62422.38 109749.047 -62422.38 109844.285 -62374.761 109891.904 -62327.142 109939.523 -62231.904 109939.523 -61422.38 M 110939.523 -62422.38 110368.095 -62422.38 M 110653.809 -62422.38 110653.809 -61422.38 110558.571 -61565.238 110463.333 -61660.476 110368.095 -61708.095 M 111283.333 -61197.142 111235.714 -61244.761 111092.857 -61292.38 110997.619 -61292.38 110854.761 -61244.761 110759.523 -61149.523 110711.904 -61054.285 110664.285 -60863.809 110664.285 -60720.952 110711.904 -60530.476 110759.523 -60435.238 110854.761 -60340 110997.619 -60292.38 111092.857 -60292.38 111235.714 -60340 111283.333 -60387.619 M 111664.285 -60387.619 111711.904 -60340 111807.142 -60292.38 112045.238 -60292.38 112140.476 -60340 112188.095 -60387.619 112235.714 -60482.857 112235.714 -60578.095 112188.095 -60720.952 111616.666 -61292.38 112235.714 -61292.38" fill="none" stroke-width="150"/></g><g id="VKc239pU5PFAg5FmD6Q0_top_solderpaste"><path d="M 108375 -63953.75 108375 -64466.25 A 218.75 218.75 0 0 0 108156.25 -64685 L 107718.75 -64685 A 218.75 218.75 0 0 0 107500 -64466.25 L 107500 -63953.75 A 218.75 218.75 0 0 0 107718.75 -63735 L 108156.25 -63735 A 218.75 218.75 0 0 0 108375 -63953.75"/><path d="M 106800 -63953.75 106800 -64466.25 A 218.75 218.75 0 0 0 106581.25 -64685 L 106143.75 -64685 A 218.75 218.75 0 0 0 105925 -64466.25 L 105925 -63953.75 A 218.75 218.75 0 0 0 106143.75 -63735 L 106581.25 -63735 A 218.75 218.75 0 0 0 106800 -63953.75"/><use xlink:href="#XqBbQQ7kP8qVLTDA-LlK_pad-10" x="110285.001" y="-63360.001"/><use xlink:href="#XqBbQQ7kP8qVLTDA-LlK_pad-10" x="110285.001" y="-64010.001"/><use xlink:href="#XqBbQQ7kP8qVLTDA-LlK_pad-10" x="110285.001" y="-64660.001"/><use xlink:href="#XqBbQQ7kP8qVLTDA-LlK_pad-10" x="110285.001" y="-65310.001"/><use xlink:href="#XqBbQQ7kP8qVLTDA-LlK_pad-10" x="110285.001" y="-65960.001"/><use xlink:href="#XqBbQQ7kP8qVLTDA-LlK_pad-10" x="110285.001" y="-66610.001"/><use xlink:href="#XqBbQQ7kP8qVLTDA-LlK_pad-10" x="110285.001" y="-67260.001"/><use xlink:href="#XqBbQQ7kP8qVLTDA-LlK_pad-10" x="110285.001" y="-67910.001"/><use xlink:href="#XqBbQQ7kP8qVLTDA-LlK_pad-10" x="116185.001" y="-67910.001"/><use xlink:href="#XqBbQQ7kP8qVLTDA-LlK_pad-10" x="116185.001" y="-67260.001"/><use xlink:href="#XqBbQQ7kP8qVLTDA-LlK_pad-10" x="116185.001" y="-66610.001"/><use xlink:href="#XqBbQQ7kP8qVLTDA-LlK_pad-10" x="116185.001" y="-65960.001"/><use xlink:href="#XqBbQQ7kP8qVLTDA-LlK_pad-10" x="116185.001" y="-65310.001"/><use xlink:href="#XqBbQQ7kP8qVLTDA-LlK_pad-10" x="116185.001" y="-64660.001"/><use xlink:href="#XqBbQQ7kP8qVLTDA-LlK_pad-10" x="116185.001" y="-64010.001"/><use xlink:href="#XqBbQQ7kP8qVLTDA-LlK_pad-10" x="116185.001" y="-63360.001"/><path d="M 112625 -62046.25 112625 -61533.75 A 218.75 218.75 0 0 0 112843.75 -61315 L 113281.25 -61315 A 218.75 218.75 0 0 0 113500 -61533.75 L 113500 -62046.25 A 218.75 218.75 0 0 0 113281.25 -62265 L 112843.75 -62265 A 218.75 218.75 0 0 0 112625 -62046.25"/><path d="M 114200 -62046.25 114200 -61533.75 A 218.75 218.75 0 0 0 114418.75 -61315 L 114856.25 -61315 A 218.75 218.75 0 0 0 115075 -61533.75 L 115075 -62046.25 A 218.75 218.75 0 0 0 114856.25 -62265 L 114418.75 -62265 A 218.75 218.75 0 0 0 114200 -62046.25"/></g><g id="VKc239pU5PFAg5FmD6Q0_top_copper"><use xlink:href="#ayBQEpLvfyUhWS8Rtxyy_pad-10" x="103640" y="-73160"/><use xlink:href="#ayBQEpLvfyUhWS8Rtxyy_pad-10" x="106180" y="-73160"/><use xlink:href="#ayBQEpLvfyUhWS8Rtxyy_pad-10" x="108720" y="-73160"/><use xlink:href="#ayBQEpLvfyUhWS8Rtxyy_pad-10" x="111260" y="-73160"/><use xlink:href="#ayBQEpLvfyUhWS8Rtxyy_pad-10" x="113800" y="-73160"/><use xlink:href="#ayBQEpLvfyUhWS8Rtxyy_pad-10" x="116340" y="-73160"/><use xlink:href="#ayBQEpLvfyUhWS8Rtxyy_pad-10" x="118880" y="-73160"/><use xlink:href="#ayBQEpLvfyUhWS8Rtxyy_pad-10" x="121420" y="-73160"/><use xlink:href="#ayBQEpLvfyUhWS8Rtxyy_pad-10" x="121420" y="-57920"/><use xlink:href="#ayBQEpLvfyUhWS8Rtxyy_pad-10" x="118880" y="-57920"/><use xlink:href="#ayBQEpLvfyUhWS8Rtxyy_pad-10" x="116340" y="-57920"/><use xlink:href="#ayBQEpLvfyUhWS8Rtxyy_pad-10" x="113800" y="-57920"/><use xlink:href="#ayBQEpLvfyUhWS8Rtxyy_pad-10" x="111260" y="-57920"/><use xlink:href="#ayBQEpLvfyUhWS8Rtxyy_pad-10" x="108720" y="-57920"/><use xlink:href="#ayBQEpLvfyUhWS8Rtxyy_pad-10" x="106180" y="-57920"/><use xlink:href="#ayBQEpLvfyUhWS8Rtxyy_pad-10" x="103640" y="-57920"/><path d="M 108375 -63953.75 108375 -64466.25 A 218.75 218.75 0 0 0 108156.25 -64685 L 107718.75 -64685 A 218.75 218.75 0 0 0 107500 -64466.25 L 107500 -63953.75 A 218.75 218.75 0 0 0 107718.75 -63735 L 108156.25 -63735 A 218.75 218.75 0 0 0 108375 -63953.75"/><path d="M 106800 -63953.75 106800 -64466.25 A 218.75 218.75 0 0 0 106581.25 -64685 L 106143.75 -64685 A 218.75 218.75 0 0 0 105925 -64466.25 L 105925 -63953.75 A 218.75 218.75 0 0 0 106143.75 -63735 L 106581.25 -63735 A 218.75 218.75 0 0 0 106800 -63953.75"/><use xlink:href="#ayBQEpLvfyUhWS8Rtxyy_pad-11" x="110285.001" y="-63360.001"/><use xlink:href="#ayBQEpLvfyUhWS8Rtxyy_pad-11" x="110285.001" y="-64010.001"/><use xlink:href="#ayBQEpLvfyUhWS8Rtxyy_pad-11" x="110285.001" y="-64660.001"/><use xlink:href="#ayBQEpLvfyUhWS8Rtxyy_pad-11" x="110285.001" y="-65310.001"/><use xlink:href="#ayBQEpLvfyUhWS8Rtxyy_pad-11" x="110285.001" y="-65960.001"/><use xlink:href="#ayBQEpLvfyUhWS8Rtxyy_pad-11" x="110285.001" y="-66610.001"/><use xlink:href="#ayBQEpLvfyUhWS8Rtxyy_pad-11" x="110285.001" y="-67260.001"/><use xlink:href="#ayBQEpLvfyUhWS8Rtxyy_pad-11" x="110285.001" y="-67910.001"/><use xlink:href="#ayBQEpLvfyUhWS8Rtxyy_pad-11" x="116185.001" y="-67910.001"/><use xlink:href="#ayBQEpLvfyUhWS8Rtxyy_pad-11" x="116185.001" y="-67260.001"/><use xlink:href="#ayBQEpLvfyUhWS8Rtxyy_pad-11" x="116185.001" y="-66610.001"/><use xlink:href="#ayBQEpLvfyUhWS8Rtxyy_pad-11" x="116185.001" y="-65960.001"/><use xlink:href="#ayBQEpLvfyUhWS8Rtxyy_pad-11" x="116185.001" y="-65310.001"/><use xlink:href="#ayBQEpLvfyUhWS8Rtxyy_pad-11" x="116185.001" y="-64660.001"/><use xlink:href="#ayBQEpLvfyUhWS8Rtxyy_pad-11" x="116185.001" y="-64010.001"/><use xlink:href="#ayBQEpLvfyUhWS8Rtxyy_pad-11" x="116185.001" y="-63360.001"/><path d="M 112625 -62046.25 112625 -61533.75 A 218.75 218.75 0 0 0 112843.75 -61315 L 113281.25 -61315 A 218.75 218.75 0 0 0 113500 -61533.75 L 113500 -62046.25 A 218.75 218.75 0 0 0 113281.25 -62265 L 112843.75 -62265 A 218.75 218.75 0 0 0 112625 -62046.25"/><path d="M 114200 -62046.25 114200 -61533.75 A 218.75 218.75 0 0 0 114418.75 -61315 L 114856.25 -61315 A 218.75 218.75 0 0 0 115075 -61533.75 L 115075 -62046.25 A 218.75 218.75 0 0 0 114856.25 -62265 L 114418.75 -62265 A 218.75 218.75 0 0 0 114200 -62046.25"/><use xlink:href="#ayBQEpLvfyUhWS8Rtxyy_pad-12" x="110290" y="-69130"/><use xlink:href="#ayBQEpLvfyUhWS8Rtxyy_pad-12" x="107900" y="-69300"/><use xlink:href="#ayBQEpLvfyUhWS8Rtxyy_pad-12" x="109190" y="-69220"/><use xlink:href="#ayBQEpLvfyUhWS8Rtxyy_pad-12" x="108560" y="-68200"/><use xlink:href="#ayBQEpLvfyUhWS8Rtxyy_pad-12" x="117870" y="-67958.501"/><use xlink:href="#ayBQEpLvfyUhWS8Rtxyy_pad-12" x="118860" y="-67308.501"/><use xlink:href="#ayBQEpLvfyUhWS8Rtxyy_pad-12" x="120860" y="-66140.002"/><use xlink:href="#ayBQEpLvfyUhWS8Rtxyy_pad-12" x="107930" y="-61400"/><use xlink:href="#ayBQEpLvfyUhWS8Rtxyy_pad-12" x="107930" y="-62230"/><use xlink:href="#ayBQEpLvfyUhWS8Rtxyy_pad-12" x="107930" y="-63050"/><path d="M 110285.001 -66610.001 110285.001 -67260.001 110285.001 -67910.001 M 117821.5 -67910.001 117870 -67958.501 M 116185.001 -67910.001 117821.5 -67910.001 M 118811.5 -67260.001 118860 -67308.501 M 116185.001 -67260.001 118811.5 -67260.001 M 120517.101 -66482.901 120860 -66140.002 M 120390.001 -66610.001 120517.101 -66482.901 M 116185.001 -66610.001 120390.001 -66610.001 M 116185.001 -63360.001 115000.001 -63360.001 M 114637.5 -62997.5 114637.5 -61790 M 115000.001 -63360.001 114637.5 -62997.5 M 114637.5 -58757.5 113800 -57920 M 114637.5 -61790 114637.5 -58757.5 M 108387.501 -64660.001 107937.5 -64210 M 110285.001 -64660.001 108387.501 -64660.001 M 107930 -64202.5 107937.5 -64210 M 107930 -61400 107930 -62230 107930 -63050 107930 -64202.5 M 106180 -71957.919 106180 -73160 M 106180 -69099.92 106180 -71957.919 M 109319.919 -65960.001 106180 -69099.92 M 110285.001 -65960.001 109319.919 -65960.001 M 103640 -71957.919 103640 -73160 M 108929.999 -65310.001 103640 -70600 103640 -71957.919 M 110285.001 -65310.001 108929.999 -65310.001 M 108820 -73060 108720 -73160 M 111250.083 -64010.001 111640 -64399.918 M 111640 -69290 108820 -72110 108820 -73060 M 111640 -64399.918 111640 -69290 M 110285.001 -64010.001 111250.083 -64010.001 M 112260 -71200 111260 -72200 M 112260 -64130 112260 -71200 M 111260 -72200 111260 -73160 M 111490.001 -63360.001 112260 -64130 M 110285.001 -63360.001 111490.001 -63360.001 M 113850 -73110 113800 -73160 M 114309.999 -64010.001 112950.001 -65369.999 M 113850 -72160 113850 -73110 M 112950.001 -65369.999 112950.001 -71260.001 113850 -72160 M 116185.001 -64010.001 114309.999 -64010.001 M 116100 -72920 116340 -73160 M 114569.999 -64660.001 113570 -65660 M 113570 -69810 116100 -72340 M 113570 -65660 113570 -69810 M 116100 -72340 116100 -72920 M 116185.001 -64660.001 114569.999 -64660.001 M 114200 -69230 116150 -71180 M 118880 -72150 118880 -73160 M 116150 -71180 117910 -71180 M 114200 -65970 114200 -69230 M 114859.999 -65310.001 114200 -65970 M 117910 -71180 118880 -72150 M 116185.001 -65310.001 114859.999 -65310.001 M 120570.001 -72310.001 121420 -73160 M 118210 -69950 120570.001 -72310.001 M 116170 -69950 118210 -69950 M 116185.001 -65960.001 115219.919 -65960.001 M 114820 -68600 116170 -69950 M 114820 -66359.92 114820 -68600 M 115219.919 -65960.001 114820 -66359.92" fill="none" stroke-width="406.4"/><path d="M 102693.368 -56766.525 102486.525 -56973.368 102324.01 -57216.589 102212.068 -57486.842 102155 -57773.74 102155 -58066.26 102212.068 -58353.158 102324.01 -58623.411 102486.525 -58866.632 102693.368 -59073.475 102936.589 -59235.99 103206.842 -59347.932 103493.74 -59405 103786.26 -59405 104073.158 -59347.932 104343.411 -59235.99 104586.632 -59073.475 104793.475 -58866.632 104915.195 -58684.466 104984.822 -58801.355 105179.731 -59017.588 105413.08 -59191.641 105675.901 -59316.825 105823.11 -59361.476 106053 -59240.155 106053 -58047 106307 -58047 106307 -59240.155 106536.89 -59361.476 106684.099 -59316.825 106946.92 -59191.641 107180.269 -59017.588 107375.178 -58801.355 107450 -58675.745 107524.822 -58801.355 107719.731 -59017.588 107953.08 -59191.641 108215.901 -59316.825 108363.11 -59361.476 108593 -59240.155 108593 -58047 108847 -58047 108847 -59240.155 109076.89 -59361.476 109224.099 -59316.825 109486.92 -59191.641 109720.269 -59017.588 109915.178 -58801.355 109990 -58675.745 110064.822 -58801.355 110259.731 -59017.588 110493.08 -59191.641 110755.901 -59316.825 110903.11 -59361.476 111133 -59240.155 111133 -58047 108847 -58047 108593 -58047 106307 -58047 106053 -58047 106033 -58047 106033 -57793 106053 -57793 106053 -57773 106307 -57773 106307 -57793 108593 -57793 108593 -57773 108847 -57773 108847 -57793 111133 -57793 111133 -57773 111387 -57773 111387 -57793 111407 -57793 111407 -58047 111387 -58047 111387 -59240.155 111616.89 -59361.476 111764.099 -59316.825 112026.92 -59191.641 112260.269 -59017.588 112455.178 -58801.355 112524.805 -58684.466 112646.525 -58866.632 112853.368 -59073.475 113096.589 -59235.99 113366.842 -59347.932 113653.74 -59405 113799.301 -59405 113799.3 -60754.961 113744.18 -60725.498 113624.482 -60689.188 113500 -60676.928 113348.25 -60680 113189.5 -60838.75 113189.5 -61663 113209.5 -61663 113209.5 -61917 113189.5 -61917 113189.5 -62741.25 113348.25 -62900 113500 -62903.072 113624.482 -62890.812 113744.18 -62854.502 113799.3 -62825.039 113799.3 -62956.337 113795.246 -62997.5 113799.3 -63038.663 113799.3 -63038.669 113811.429 -63161.815 113854.303 -63303.152 113842.067 -63309.692 113790.688 -63351.858 113714.435 -63414.437 113688.192 -63446.414 113093.5 -64041.107 113086.071 -63965.684 113038.142 -63807.683 112960.309 -63662.068 112927.242 -63621.776 112881.808 -63566.414 112881.806 -63566.412 112855.564 -63534.436 112823.588 -63508.195 112111.812 -62796.418 112085.565 -62764.437 111957.933 -62659.692 111812.318 -62581.859 111654.317 -62533.93 111531.171 -62521.801 111531.164 -62521.801 111490.001 -62517.747 111448.838 -62521.801 111201.059 -62521.801 111159.483 -62509.189 111035.001 -62496.929 109535.001 -62496.929 109410.519 -62509.189 109290.821 -62545.499 109180.507 -62604.464 109083.816 -62683.816 109004.464 -62780.507 108945.499 -62890.821 108909.189 -63010.519 108907.9 -63023.607 108907.9 -62953.685 108870.32 -62764.757 108818.644 -62640 108870.32 -62515.243 108907.9 -62326.315 108907.9 -62265 111986.928 -62265 111999.188 -62389.482 112035.498 -62509.18 112094.463 -62619.494 112173.815 -62716.185 112270.506 -62795.537 112380.82 -62854.502 112500.518 -62890.812 112625 -62903.072 112776.75 -62900 112935.5 -62741.25 112935.5 -61917 112148.75 -61917 111990 -62075.75 111986.928 -62265 108907.9 -62265 108907.9 -62133.685 108870.32 -61944.757 108816.573 -61815 108870.32 -61685.243 108907.9 -61496.315 108907.9 -61315 111986.928 -61315 111990 -61504.25 112148.75 -61663 112935.5 -61663 112935.5 -60838.75 112776.75 -60680 112625 -60676.928 112500.518 -60689.188 112380.82 -60725.498 112270.506 -60784.463 112173.815 -60863.815 112094.463 -60960.506 112035.498 -61070.82 111999.188 -61190.518 111986.928 -61315 108907.9 -61315 108907.9 -61303.685 108870.32 -61114.757 108796.604 -60936.79 108689.585 -60776.625 108553.375 -60640.415 108393.21 -60533.396 108215.243 -60459.68 108026.315 -60422.1 107833.685 -60422.1 107644.757 -60459.68 107466.79 -60533.396 107306.625 -60640.415 107170.415 -60776.625 107063.396 -60936.79 106989.68 -61114.757 106952.1 -61303.685 106952.1 -61496.315 106989.68 -61685.243 107043.427 -61815 106989.68 -61944.757 106952.1 -62133.685 106952.1 -62326.315 106989.68 -62515.243 107041.356 -62640 106989.68 -62764.757 106952.1 -62953.685 106952.1 -63117.566 106924.482 -63109.188 106800 -63096.928 106648.25 -63100 106489.5 -63258.75 106489.5 -64083 106509.5 -64083 106509.5 -64337 106489.5 -64337 106489.5 -65161.25 106648.25 -65320 106800 -65323.072 106924.482 -65310.812 107044.18 -65274.502 107154.494 -65215.537 107221.07 -65160.9 107242.725 -65178.671 107390.858 -65257.85 107551.592 -65306.608 107718.75 -65323.072 107731.534 -65323.072 103076.418 -69978.189 103044.436 -70004.436 102939.691 -70132.069 102861.858 -70277.684 102813.929 -70435.685 102801.8 -70558.831 102801.8 -70558.837 102797.746 -70600 102801.8 -70641.163 102801.801 -71916.74 102801.8 -71916.75 102801.8 -71934.073 102693.368 -72006.525 102486.525 -72213.368 102324.01 -72456.589 102212.068 -72726.842 102155 -73013.74 102155 -73306.26 102212.068 -73593.158 102324.01 -73863.411 102486.525 -74106.632 102669.893 -74290 101710 -74290 101710 -64685 105286.928 -64685 105299.188 -64809.482 105335.498 -64929.18 105394.463 -65039.494 105473.815 -65136.185 105570.506 -65215.537 105680.82 -65274.502 105800.518 -65310.812 105925 -65323.072 106076.75 -65320 106235.5 -65161.25 106235.5 -64337 105448.75 -64337 105290 -64495.75 105286.928 -64685 101710 -64685 101710 -63735 105286.928 -63735 105290 -63924.25 105448.75 -64083 106235.5 -64083 106235.5 -63258.75 106076.75 -63100 105925 -63096.928 105800.518 -63109.188 105680.82 -63145.498 105570.506 -63204.463 105473.815 -63283.815 105394.463 -63380.506 105335.498 -63490.82 105299.188 -63610.518 105286.928 -63735 101710 -63735 101710 -56710 102777.964 -56710 102693.368 -56766.525" fill="none" stroke-width="254"/><path d="M 102693.368 -56766.525 102486.525 -56973.368 102324.01 -57216.589 102212.068 -57486.842 102155 -57773.74 102155 -58066.26 102212.068 -58353.158 102324.01 -58623.411 102486.525 -58866.632 102693.368 -59073.475 102936.589 -59235.99 103206.842 -59347.932 103493.74 -59405 103786.26 -59405 104073.158 -59347.932 104343.411 -59235.99 104586.632 -59073.475 104793.475 -58866.632 104915.195 -58684.466 104984.822 -58801.355 105179.731 -59017.588 105413.08 -59191.641 105675.901 -59316.825 105823.11 -59361.476 106053 -59240.155 106053 -58047 106307 -58047 106307 -59240.155 106536.89 -59361.476 106684.099 -59316.825 106946.92 -59191.641 107180.269 -59017.588 107375.178 -58801.355 107450 -58675.745 107524.822 -58801.355 107719.731 -59017.588 107953.08 -59191.641 108215.901 -59316.825 108363.11 -59361.476 108593 -59240.155 108593 -58047 108847 -58047 108847 -59240.155 109076.89 -59361.476 109224.099 -59316.825 109486.92 -59191.641 109720.269 -59017.588 109915.178 -58801.355 109990 -58675.745 110064.822 -58801.355 110259.731 -59017.588 110493.08 -59191.641 110755.901 -59316.825 110903.11 -59361.476 111133 -59240.155 111133 -58047 108847 -58047 108593 -58047 106307 -58047 106053 -58047 106033 -58047 106033 -57793 106053 -57793 106053 -57773 106307 -57773 106307 -57793 108593 -57793 108593 -57773 108847 -57773 108847 -57793 111133 -57793 111133 -57773 111387 -57773 111387 -57793 111407 -57793 111407 -58047 111387 -58047 111387 -59240.155 111616.89 -59361.476 111764.099 -59316.825 112026.92 -59191.641 112260.269 -59017.588 112455.178 -58801.355 112524.805 -58684.466 112646.525 -58866.632 112853.368 -59073.475 113096.589 -59235.99 113366.842 -59347.932 113653.74 -59405 113799.301 -59405 113799.3 -60754.961 113744.18 -60725.498 113624.482 -60689.188 113500 -60676.928 113348.25 -60680 113189.5 -60838.75 113189.5 -61663 113209.5 -61663 113209.5 -61917 113189.5 -61917 113189.5 -62741.25 113348.25 -62900 113500 -62903.072 113624.482 -62890.812 113744.18 -62854.502 113799.3 -62825.039 113799.3 -62956.337 113795.246 -62997.5 113799.3 -63038.663 113799.3 -63038.669 113811.429 -63161.815 113854.303 -63303.152 113842.067 -63309.692 113790.688 -63351.858 113714.435 -63414.437 113688.192 -63446.414 113093.5 -64041.107 113086.071 -63965.684 113038.142 -63807.683 112960.309 -63662.068 112927.242 -63621.776 112881.808 -63566.414 112881.806 -63566.412 112855.564 -63534.436 112823.588 -63508.195 112111.812 -62796.418 112085.565 -62764.437 111957.933 -62659.692 111812.318 -62581.859 111654.317 -62533.93 111531.171 -62521.801 111531.164 -62521.801 111490.001 -62517.747 111448.838 -62521.801 111201.059 -62521.801 111159.483 -62509.189 111035.001 -62496.929 109535.001 -62496.929 109410.519 -62509.189 109290.821 -62545.499 109180.507 -62604.464 109083.816 -62683.816 109004.464 -62780.507 108945.499 -62890.821 108909.189 -63010.519 108907.9 -63023.607 108907.9 -62953.685 108870.32 -62764.757 108818.644 -62640 108870.32 -62515.243 108907.9 -62326.315 108907.9 -62265 111986.928 -62265 111999.188 -62389.482 112035.498 -62509.18 112094.463 -62619.494 112173.815 -62716.185 112270.506 -62795.537 112380.82 -62854.502 112500.518 -62890.812 112625 -62903.072 112776.75 -62900 112935.5 -62741.25 112935.5 -61917 112148.75 -61917 111990 -62075.75 111986.928 -62265 108907.9 -62265 108907.9 -62133.685 108870.32 -61944.757 108816.573 -61815 108870.32 -61685.243 108907.9 -61496.315 108907.9 -61315 111986.928 -61315 111990 -61504.25 112148.75 -61663 112935.5 -61663 112935.5 -60838.75 112776.75 -60680 112625 -60676.928 112500.518 -60689.188 112380.82 -60725.498 112270.506 -60784.463 112173.815 -60863.815 112094.463 -60960.506 112035.498 -61070.82 111999.188 -61190.518 111986.928 -61315 108907.9 -61315 108907.9 -61303.685 108870.32 -61114.757 108796.604 -60936.79 108689.585 -60776.625 108553.375 -60640.415 108393.21 -60533.396 108215.243 -60459.68 108026.315 -60422.1 107833.685 -60422.1 107644.757 -60459.68 107466.79 -60533.396 107306.625 -60640.415 107170.415 -60776.625 107063.396 -60936.79 106989.68 -61114.757 106952.1 -61303.685 106952.1 -61496.315 106989.68 -61685.243 107043.427 -61815 106989.68 -61944.757 106952.1 -62133.685 106952.1 -62326.315 106989.68 -62515.243 107041.356 -62640 106989.68 -62764.757 106952.1 -62953.685 106952.1 -63117.566 106924.482 -63109.188 106800 -63096.928 106648.25 -63100 106489.5 -63258.75 106489.5 -64083 106509.5 -64083 106509.5 -64337 106489.5 -64337 106489.5 -65161.25 106648.25 -65320 106800 -65323.072 106924.482 -65310.812 107044.18 -65274.502 107154.494 -65215.537 107221.07 -65160.9 107242.725 -65178.671 107390.858 -65257.85 107551.592 -65306.608 107718.75 -65323.072 107731.534 -65323.072 103076.418 -69978.189 103044.436 -70004.436 102939.691 -70132.069 102861.858 -70277.684 102813.929 -70435.685 102801.8 -70558.831 102801.8 -70558.837 102797.746 -70600 102801.8 -70641.163 102801.801 -71916.74 102801.8 -71916.75 102801.8 -71934.073 102693.368 -72006.525 102486.525 -72213.368 102324.01 -72456.589 102212.068 -72726.842 102155 -73013.74 102155 -73306.26 102212.068 -73593.158 102324.01 -73863.411 102486.525 -74106.632 102669.893 -74290 101710 -74290 101710 -64685 105286.928 -64685 105299.188 -64809.482 105335.498 -64929.18 105394.463 -65039.494 105473.815 -65136.185 105570.506 -65215.537 105680.82 -65274.502 105800.518 -65310.812 105925 -65323.072 106076.75 -65320 106235.5 -65161.25 106235.5 -64337 105448.75 -64337 105290 -64495.75 105286.928 -64685 101710 -64685 101710 -63735 105286.928 -63735 105290 -63924.25 105448.75 -64083 106235.5 -64083 106235.5 -63258.75 106076.75 -63100 105925 -63096.928 105800.518 -63109.188 105680.82 -63145.498 105570.506 -63204.463 105473.815 -63283.815 105394.463 -63380.506 105335.498 -63490.82 105299.188 -63610.518 105286.928 -63735 101710 -63735 101710 -56710 102777.964 -56710 102693.368 -56766.525"/><path d="M 110412.001 -67961.251 110432.001 -67981.251 110432.001 -68008.001 110412.001 -68008.001 110412.001 -68611.251 110570.751 -68770.001 110801.801 -68771.526 110801.801 -68942.805 108256.418 -71488.189 108224.436 -71514.436 108119.691 -71642.069 108041.858 -71787.684 108025.948 -71840.134 108016.589 -71844.01 107773.368 -72006.525 107566.525 -72213.368 107450 -72387.76 107333.475 -72213.368 107126.632 -72006.525 107018.2 -71934.073 107018.2 -69447.113 108904.77 -67560.544 108907.433 -67585.001 108900.001 -67653.251 108932.528 -67685.778 108949.195 -67737.919 109009.793 -67847.344 109090.575 -67942.845 109172.419 -68008.001 109058.751 -68008.001 108900.001 -68166.751 108911.11 -68268.774 108949.195 -68387.919 109009.793 -68497.344 109090.575 -68592.845 109188.435 -68670.751 109299.614 -68728.068 109419.839 -68762.594 109544.489 -68773.002 109999.251 -68770.001 110158.001 -68611.251 110158.001 -68008.001 110111.251 -68008.001 110158.001 -67961.251 110158.001 -67113.001 110412.001 -67113.001 110412.001 -67961.251" fill="none" stroke-width="254"/><path d="M 110412.001 -67961.251 110432.001 -67981.251 110432.001 -68008.001 110412.001 -68008.001 110412.001 -68611.251 110570.751 -68770.001 110801.801 -68771.526 110801.801 -68942.805 108256.418 -71488.189 108224.436 -71514.436 108119.691 -71642.069 108041.858 -71787.684 108025.948 -71840.134 108016.589 -71844.01 107773.368 -72006.525 107566.525 -72213.368 107450 -72387.76 107333.475 -72213.368 107126.632 -72006.525 107018.2 -71934.073 107018.2 -69447.113 108904.77 -67560.544 108907.433 -67585.001 108900.001 -67653.251 108932.528 -67685.778 108949.195 -67737.919 109009.793 -67847.344 109090.575 -67942.845 109172.419 -68008.001 109058.751 -68008.001 108900.001 -68166.751 108911.11 -68268.774 108949.195 -68387.919 109009.793 -68497.344 109090.575 -68592.845 109188.435 -68670.751 109299.614 -68728.068 109419.839 -68762.594 109544.489 -68773.002 109999.251 -68770.001 110158.001 -68611.251 110158.001 -68008.001 110111.251 -68008.001 110158.001 -67961.251 110158.001 -67113.001 110412.001 -67113.001 110412.001 -67961.251"/><use xlink:href="#ayBQEpLvfyUhWS8Rtxyy_pad-16" x="110290" y="-69130"/><use xlink:href="#ayBQEpLvfyUhWS8Rtxyy_pad-16" x="107900" y="-69300"/><use xlink:href="#ayBQEpLvfyUhWS8Rtxyy_pad-16" x="109190" y="-69220"/><use xlink:href="#ayBQEpLvfyUhWS8Rtxyy_pad-16" x="108560" y="-68200"/><use xlink:href="#ayBQEpLvfyUhWS8Rtxyy_pad-16" x="117870" y="-67958.501"/><use xlink:href="#ayBQEpLvfyUhWS8Rtxyy_pad-16" x="118860" y="-67308.501"/><use xlink:href="#ayBQEpLvfyUhWS8Rtxyy_pad-16" x="120860" y="-66140.002"/><use xlink:href="#ayBQEpLvfyUhWS8Rtxyy_pad-16" x="107930" y="-61400"/><use xlink:href="#ayBQEpLvfyUhWS8Rtxyy_pad-16" x="107930" y="-62230"/><use xlink:href="#ayBQEpLvfyUhWS8Rtxyy_pad-16" x="107930" y="-63050"/><use xlink:href="#ayBQEpLvfyUhWS8Rtxyy_pad-17" x="103640" y="-73160"/><use xlink:href="#ayBQEpLvfyUhWS8Rtxyy_pad-17" x="106180" y="-73160"/><use xlink:href="#ayBQEpLvfyUhWS8Rtxyy_pad-17" x="108720" y="-73160"/><use xlink:href="#ayBQEpLvfyUhWS8Rtxyy_pad-17" x="111260" y="-73160"/><use xlink:href="#ayBQEpLvfyUhWS8Rtxyy_pad-17" x="113800" y="-73160"/><use xlink:href="#ayBQEpLvfyUhWS8Rtxyy_pad-17" x="116340" y="-73160"/><use xlink:href="#ayBQEpLvfyUhWS8Rtxyy_pad-17" x="118880" y="-73160"/><use xlink:href="#ayBQEpLvfyUhWS8Rtxyy_pad-17" x="121420" y="-73160"/><use xlink:href="#ayBQEpLvfyUhWS8Rtxyy_pad-17" x="121420" y="-57920"/><use xlink:href="#ayBQEpLvfyUhWS8Rtxyy_pad-17" x="118880" y="-57920"/><use xlink:href="#ayBQEpLvfyUhWS8Rtxyy_pad-17" x="116340" y="-57920"/><use xlink:href="#ayBQEpLvfyUhWS8Rtxyy_pad-17" x="113800" y="-57920"/><use xlink:href="#ayBQEpLvfyUhWS8Rtxyy_pad-17" x="111260" y="-57920"/><use xlink:href="#ayBQEpLvfyUhWS8Rtxyy_pad-17" x="108720" y="-57920"/><use xlink:href="#ayBQEpLvfyUhWS8Rtxyy_pad-17" x="106180" y="-57920"/><use xlink:href="#ayBQEpLvfyUhWS8Rtxyy_pad-17" x="103640" y="-57920"/></g><g id="VKc239pU5PFAg5FmD6Q0_top_soldermask"><use xlink:href="#nlylT-DZY8KphBpJcH1t_pad-10" x="103640" y="-73160"/><use xlink:href="#nlylT-DZY8KphBpJcH1t_pad-10" x="106180" y="-73160"/><use xlink:href="#nlylT-DZY8KphBpJcH1t_pad-10" x="108720" y="-73160"/><use xlink:href="#nlylT-DZY8KphBpJcH1t_pad-10" x="111260" y="-73160"/><use xlink:href="#nlylT-DZY8KphBpJcH1t_pad-10" x="113800" y="-73160"/><use xlink:href="#nlylT-DZY8KphBpJcH1t_pad-10" x="116340" y="-73160"/><use xlink:href="#nlylT-DZY8KphBpJcH1t_pad-10" x="118880" y="-73160"/><use xlink:href="#nlylT-DZY8KphBpJcH1t_pad-10" x="121420" y="-73160"/><use xlink:href="#nlylT-DZY8KphBpJcH1t_pad-10" x="121420" y="-57920"/><use xlink:href="#nlylT-DZY8KphBpJcH1t_pad-10" x="118880" y="-57920"/><use xlink:href="#nlylT-DZY8KphBpJcH1t_pad-10" x="116340" y="-57920"/><use xlink:href="#nlylT-DZY8KphBpJcH1t_pad-10" x="113800" y="-57920"/><use xlink:href="#nlylT-DZY8KphBpJcH1t_pad-10" x="111260" y="-57920"/><use xlink:href="#nlylT-DZY8KphBpJcH1t_pad-10" x="108720" y="-57920"/><use xlink:href="#nlylT-DZY8KphBpJcH1t_pad-10" x="106180" y="-57920"/><use xlink:href="#nlylT-DZY8KphBpJcH1t_pad-10" x="103640" y="-57920"/><path d="M 108445 -63918.75 108445 -64501.25 A 253.75 253.75 0 0 0 108191.25 -64755 L 107683.75 -64755 A 253.75 253.75 0 0 0 107430 -64501.25 L 107430 -63918.75 A 253.75 253.75 0 0 0 107683.75 -63665 L 108191.25 -63665 A 253.75 253.75 0 0 0 108445 -63918.75"/><path d="M 106870 -63918.75 106870 -64501.25 A 253.75 253.75 0 0 0 106616.25 -64755 L 106108.75 -64755 A 253.75 253.75 0 0 0 105855 -64501.25 L 105855 -63918.75 A 253.75 253.75 0 0 0 106108.75 -63665 L 106616.25 -63665 A 253.75 253.75 0 0 0 106870 -63918.75"/><path d="M 109465.001 -63585.001 109465.001 -63135.001 A 70 70 0 0 0 109535.001 -63065.001 L 111035.001 -63065.001 A 70 70 0 0 0 111105.001 -63135.001 L 111105.001 -63585.001 A 70 70 0 0 0 111035.001 -63655.001 L 109535.001 -63655.001 A 70 70 0 0 0 109465.001 -63585.001"/><path d="M 109465.001 -64235.001 109465.001 -63785.001 A 70 70 0 0 0 109535.001 -63715.001 L 111035.001 -63715.001 A 70 70 0 0 0 111105.001 -63785.001 L 111105.001 -64235.001 A 70 70 0 0 0 111035.001 -64305.001 L 109535.001 -64305.001 A 70 70 0 0 0 109465.001 -64235.001"/><path d="M 109465.001 -64885.001 109465.001 -64435.001 A 70 70 0 0 0 109535.001 -64365.001 L 111035.001 -64365.001 A 70 70 0 0 0 111105.001 -64435.001 L 111105.001 -64885.001 A 70 70 0 0 0 111035.001 -64955.001 L 109535.001 -64955.001 A 70 70 0 0 0 109465.001 -64885.001"/><path d="M 109465.001 -65535.001 109465.001 -65085.001 A 70 70 0 0 0 109535.001 -65015.001 L 111035.001 -65015.001 A 70 70 0 0 0 111105.001 -65085.001 L 111105.001 -65535.001 A 70 70 0 0 0 111035.001 -65605.001 L 109535.001 -65605.001 A 70 70 0 0 0 109465.001 -65535.001"/><path d="M 109465.001 -66185.001 109465.001 -65735.001 A 70 70 0 0 0 109535.001 -65665.001 L 111035.001 -65665.001 A 70 70 0 0 0 111105.001 -65735.001 L 111105.001 -66185.001 A 70 70 0 0 0 111035.001 -66255.001 L 109535.001 -66255.001 A 70 70 0 0 0 109465.001 -66185.001"/><path d="M 109465.001 -66835.001 109465.001 -66385.001 A 70 70 0 0 0 109535.001 -66315.001 L 111035.001 -66315.001 A 70 70 0 0 0 111105.001 -66385.001 L 111105.001 -66835.001 A 70 70 0 0 0 111035.001 -66905.001 L 109535.001 -66905.001 A 70 70 0 0 0 109465.001 -66835.001"/><path d="M 109465.001 -67485.001 109465.001 -67035.001 A 70 70 0 0 0 109535.001 -66965.001 L 111035.001 -66965.001 A 70 70 0 0 0 111105.001 -67035.001 L 111105.001 -67485.001 A 70 70 0 0 0 111035.001 -67555.001 L 109535.001 -67555.001 A 70 70 0 0 0 109465.001 -67485.001"/><path d="M 109465.001 -68135.001 109465.001 -67685.001 A 70 70 0 0 0 109535.001 -67615.001 L 111035.001 -67615.001 A 70 70 0 0 0 111105.001 -67685.001 L 111105.001 -68135.001 A 70 70 0 0 0 111035.001 -68205.001 L 109535.001 -68205.001 A 70 70 0 0 0 109465.001 -68135.001"/><path d="M 115365.001 -68135.001 115365.001 -67685.001 A 70 70 0 0 0 115435.001 -67615.001 L 116935.001 -67615.001 A 70 70 0 0 0 117005.001 -67685.001 L 117005.001 -68135.001 A 70 70 0 0 0 116935.001 -68205.001 L 115435.001 -68205.001 A 70 70 0 0 0 115365.001 -68135.001"/><path d="M 115365.001 -67485.001 115365.001 -67035.001 A 70 70 0 0 0 115435.001 -66965.001 L 116935.001 -66965.001 A 70 70 0 0 0 117005.001 -67035.001 L 117005.001 -67485.001 A 70 70 0 0 0 116935.001 -67555.001 L 115435.001 -67555.001 A 70 70 0 0 0 115365.001 -67485.001"/><path d="M 115365.001 -66835.001 115365.001 -66385.001 A 70 70 0 0 0 115435.001 -66315.001 L 116935.001 -66315.001 A 70 70 0 0 0 117005.001 -66385.001 L 117005.001 -66835.001 A 70 70 0 0 0 116935.001 -66905.001 L 115435.001 -66905.001 A 70 70 0 0 0 115365.001 -66835.001"/><path d="M 115365.001 -66185.001 115365.001 -65735.001 A 70 70 0 0 0 115435.001 -65665.001 L 116935.001 -65665.001 A 70 70 0 0 0 117005.001 -65735.001 L 117005.001 -66185.001 A 70 70 0 0 0 116935.001 -66255.001 L 115435.001 -66255.001 A 70 70 0 0 0 115365.001 -66185.001"/><path d="M 115365.001 -65535.001 115365.001 -65085.001 A 70 70 0 0 0 115435.001 -65015.001 L 116935.001 -65015.001 A 70 70 0 0 0 117005.001 -65085.001 L 117005.001 -65535.001 A 70 70 0 0 0 116935.001 -65605.001 L 115435.001 -65605.001 A 70 70 0 0 0 115365.001 -65535.001"/><path d="M 115365.001 -64885.001 115365.001 -64435.001 A 70 70 0 0 0 115435.001 -64365.001 L 116935.001 -64365.001 A 70 70 0 0 0 117005.001 -64435.001 L 117005.001 -64885.001 A 70 70 0 0 0 116935.001 -64955.001 L 115435.001 -64955.001 A 70 70 0 0 0 115365.001 -64885.001"/><path d="M 115365.001 -64235.001 115365.001 -63785.001 A 70 70 0 0 0 115435.001 -63715.001 L 116935.001 -63715.001 A 70 70 0 0 0 117005.001 -63785.001 L 117005.001 -64235.001 A 70 70 0 0 0 116935.001 -64305.001 L 115435.001 -64305.001 A 70 70 0 0 0 115365.001 -64235.001"/><path d="M 115365.001 -63585.001 115365.001 -63135.001 A 70 70 0 0 0 115435.001 -63065.001 L 116935.001 -63065.001 A 70 70 0 0 0 117005.001 -63135.001 L 117005.001 -63585.001 A 70 70 0 0 0 116935.001 -63655.001 L 115435.001 -63655.001 A 70 70 0 0 0 115365.001 -63585.001"/><path d="M 112555 -62081.25 112555 -61498.75 A 253.75 253.75 0 0 0 112808.75 -61245 L 113316.25 -61245 A 253.75 253.75 0 0 0 113570 -61498.75 L 113570 -62081.25 A 253.75 253.75 0 0 0 113316.25 -62335 L 112808.75 -62335 A 253.75 253.75 0 0 0 112555 -62081.25"/><path d="M 114130 -62081.25 114130 -61498.75 A 253.75 253.75 0 0 0 114383.75 -61245 L 114891.25 -61245 A 253.75 253.75 0 0 0 115145 -61498.75 L 115145 -62081.25 A 253.75 253.75 0 0 0 114891.25 -62335 L 114383.75 -62335 A 253.75 253.75 0 0 0 114130 -62081.25"/></g><g id="VKc239pU5PFAg5FmD6Q0_top_drill1"><use xlink:href="#iwxRzA9nKxHQ-aLOdAMo_pad-1" x="107900" y="-69300"/><use xlink:href="#iwxRzA9nKxHQ-aLOdAMo_pad-1" x="107930" y="-61400"/><use xlink:href="#iwxRzA9nKxHQ-aLOdAMo_pad-1" x="107930" y="-62230"/><use xlink:href="#iwxRzA9nKxHQ-aLOdAMo_pad-1" x="107930" y="-63050"/><use xlink:href="#iwxRzA9nKxHQ-aLOdAMo_pad-1" x="108560" y="-68200"/><use xlink:href="#iwxRzA9nKxHQ-aLOdAMo_pad-1" x="109190" y="-69220"/><use xlink:href="#iwxRzA9nKxHQ-aLOdAMo_pad-1" x="110290" y="-69130"/><use xlink:href="#iwxRzA9nKxHQ-aLOdAMo_pad-1" x="117870" y="-67959"/><use xlink:href="#iwxRzA9nKxHQ-aLOdAMo_pad-1" x="118860" y="-67309"/><use xlink:href="#iwxRzA9nKxHQ-aLOdAMo_pad-1" x="120860" y="-66140"/><use xlink:href="#iwxRzA9nKxHQ-aLOdAMo_pad-2" x="103640" y="-57920"/><use xlink:href="#iwxRzA9nKxHQ-aLOdAMo_pad-2" x="103640" y="-73160"/><use xlink:href="#iwxRzA9nKxHQ-aLOdAMo_pad-2" x="106180" y="-57920"/><use xlink:href="#iwxRzA9nKxHQ-aLOdAMo_pad-2" x="106180" y="-73160"/><use xlink:href="#iwxRzA9nKxHQ-aLOdAMo_pad-2" x="108720" y="-57920"/><use xlink:href="#iwxRzA9nKxHQ-aLOdAMo_pad-2" x="108720" y="-73160"/><use xlink:href="#iwxRzA9nKxHQ-aLOdAMo_pad-2" x="111260" y="-57920"/><use xlink:href="#iwxRzA9nKxHQ-aLOdAMo_pad-2" x="111260" y="-73160"/><use xlink:href="#iwxRzA9nKxHQ-aLOdAMo_pad-2" x="113800" y="-57920"/><use xlink:href="#iwxRzA9nKxHQ-aLOdAMo_pad-2" x="113800" y="-73160"/><use xlink:href="#iwxRzA9nKxHQ-aLOdAMo_pad-2" x="116340" y="-57920"/><use xlink:href="#iwxRzA9nKxHQ-aLOdAMo_pad-2" x="116340" y="-73160"/><use xlink:href="#iwxRzA9nKxHQ-aLOdAMo_pad-2" x="118880" y="-57920"/><use xlink:href="#iwxRzA9nKxHQ-aLOdAMo_pad-2" x="118880" y="-73160"/><use xlink:href="#iwxRzA9nKxHQ-aLOdAMo_pad-2" x="121420" y="-57920"/><use xlink:href="#iwxRzA9nKxHQ-aLOdAMo_pad-2" x="121420" y="-73160"/></g><clipPath id="VKc239pU5PFAg5FmD6Q0_top_outline"><path d="M 101000 -56000 101000 -75000 123000 -75000 123000 -56000 101000 -56000" fill="none" stroke-width="150"/></clipPath><mask id="VKc239pU5PFAg5FmD6Q0_top_mech-mask"><g fill="#000" stroke="#000"><rect x="101000" y="-75000" width="22000" height="19000" fill="#fff"/><use xlink:href="#VKc239pU5PFAg5FmD6Q0_top_drill1"/></g></mask><mask id="VKc239pU5PFAg5FmD6Q0_top_cf-mask"><g fill="#fff" stroke="#fff"><use xlink:href="#VKc239pU5PFAg5FmD6Q0_top_soldermask"/></g></mask><mask id="VKc239pU5PFAg5FmD6Q0_top_sm-mask"><g fill="#000" stroke="#000"><rect x="101000" y="-75000" width="22000" height="19000" fill="#fff"/><use xlink:href="#VKc239pU5PFAg5FmD6Q0_top_soldermask"/></g></mask></defs><g transform="translate(0,-131000) scale(1,-1)"><g mask="url(#VKc239pU5PFAg5FmD6Q0_top_mech-mask)" clip-path="url(#VKc239pU5PFAg5FmD6Q0_top_outline)"><rect x="101000" y="-75000" width="22000" height="19000" fill="currentColor" class="VKc239pU5PFAg5FmD6Q0_fr4"/><use xlink:href="#VKc239pU5PFAg5FmD6Q0_top_copper" fill="currentColor" stroke="currentColor" class="VKc239pU5PFAg5FmD6Q0_cu"/><use xlink:href="#VKc239pU5PFAg5FmD6Q0_top_copper" fill="currentColor" stroke="currentColor" class="VKc239pU5PFAg5FmD6Q0_cf" mask="url(#VKc239pU5PFAg5FmD6Q0_top_cf-mask)"/><g mask="url(#VKc239pU5PFAg5FmD6Q0_top_sm-mask)"><rect x="101000" y="-75000" width="22000" height="19000" fill="currentColor" class="VKc239pU5PFAg5FmD6Q0_sm"/><use xlink:href="#VKc239pU5PFAg5FmD6Q0_top_silkscreen" fill="currentColor" stroke="currentColor" class="VKc239pU5PFAg5FmD6Q0_ss"/></g><use xlink:href="#VKc239pU5PFAg5FmD6Q0_top_solderpaste" fill="currentColor" stroke="currentColor" class="VKc239pU5PFAg5FmD6Q0_sp"/></g></g></svg>