<svg version="1.1" xmlns="http://www.w3.org/2000/svg" xmlns:xlink="http://www.w3.org/1999/xlink" stroke-linecap="round" stroke-linejoin="round" stroke-width="0" fill-rule="evenodd" clip-rule="evenodd" id="Uepdb86mztEIwE2CJ95m_bottom" viewBox="101000 -75000 10000 19000" width="10mm" height="19mm" class="w-100 h-100"><defs><style>.Uepdb86mztEIwE2CJ95m_fr4 {color: #666666;}
.Uepdb86mztEIwE2CJ95m_cu {color: #cccccc;}
.Uepdb86mztEIwE2CJ95m_cf {color: #cc9933;}
.Uepdb86mztEIwE2CJ95m_sm {color: #004200; opacity: 0.75;}
.Uepdb86mztEIwE2CJ95m_ss {color: #ffffff;}
.Uepdb86mztEIwE2CJ95m_sp {color: #999999;}
.Uepdb86mztEIwE2CJ95m_out {color: #000000;}</style><rect x="-1050" y="-1050" width="2100" height="2100" rx="1050" ry="1050" id="pmeDdS8v3cZaurethF-X_pad-10"/><circle cx="0" cy="0" r="1200" id="pmeDdS8v3cZaurethF-X_pad-11"/><rect x="-850" y="-850" width="1700" height="1700" rx="850" ry="850" id="ufeeoQgni_Z-YGDtEmxr_pad-10"/><circle cx="0" cy="0" r="1000" id="ufeeoQgni_Z-YGDtEmxr_pad-11"/><circle cx="0" cy="0" r="175" id="ufeeoQgni_Z-YGDtEmxr_pad-13"/><circle cx="0" cy="0" r="500" id="Dpg60oQJoLAKCW0w7Val_pad-1"/><circle cx="0" cy="0" r="550" id="Dpg60oQJoLAKCW0w7Val_pad-2"/><g id="Uepdb86mztEIwE2CJ95m_bottom_soldermask"><use xlink:href="#pmeDdS8v3cZaurethF-X_pad-10" x="108720" y="-73160"/><use xlink:href="#pmeDdS8v3cZaurethF-X_pad-10" x="106180" y="-73160"/><use xlink:href="#pmeDdS8v3cZaurethF-X_pad-10" x="103640" y="-73160"/><use xlink:href="#pmeDdS8v3cZaurethF-X_pad-10" x="103640" y="-57920"/><use xlink:href="#pmeDdS8v3cZaurethF-X_pad-10" x="106180" y="-57920"/><use xlink:href="#pmeDdS8v3cZaurethF-X_pad-10" x="108720" y="-57920"/><use xlink:href="#pmeDdS8v3cZaurethF-X_pad-11" x="108386" y="-67564"/><use xlink:href="#pmeDdS8v3cZaurethF-X_pad-11" x="103886" y="-67564"/><use xlink:href="#pmeDdS8v3cZaurethF-X_pad-11" x="108386" y="-61064"/><use xlink:href="#pmeDdS8v3cZaurethF-X_pad-11" x="103886" y="-61064"/></g><g id="Uepdb86mztEIwE2CJ95m_bottom_copper"><use xlink:href="#ufeeoQgni_Z-YGDtEmxr_pad-10" x="108720" y="-73160"/><use xlink:href="#ufeeoQgni_Z-YGDtEmxr_pad-10" x="106180" y="-73160"/><use xlink:href="#ufeeoQgni_Z-YGDtEmxr_pad-10" x="103640" y="-73160"/><use xlink:href="#ufeeoQgni_Z-YGDtEmxr_pad-10" x="103640" y="-57920"/><use xlink:href="#ufeeoQgni_Z-YGDtEmxr_pad-10" x="106180" y="-57920"/><use xlink:href="#ufeeoQgni_Z-YGDtEmxr_pad-10" x="108720" y="-57920"/><use xlink:href="#ufeeoQgni_Z-YGDtEmxr_pad-11" x="108386" y="-67564"/><use xlink:href="#ufeeoQgni_Z-YGDtEmxr_pad-11" x="103886" y="-67564"/><use xlink:href="#ufeeoQgni_Z-YGDtEmxr_pad-11" x="108386" y="-61064"/><use xlink:href="#ufeeoQgni_Z-YGDtEmxr_pad-11" x="103886" y="-61064"/><path d="M 102444.817 -57038.642 102198.514 -57563.108 102319.181 -57793 103513 -57793 103513 -57773 103767 -57773 103767 -57793 106053 -57793 106053 -57773 106307 -57773 106307 -57793 108593 -57793 108593 -57773 108847 -57773 108847 -57793 110040.819 -57793 110161.486 -57563.108 109915.183 -57038.642 109554.567 -56710 110290.001 -56710 110290 -74290 109642.35 -74290 109915.183 -74041.358 110161.486 -73516.892 110040.819 -73287 108847 -73287 108847 -73307 108593 -73307 108593 -73287 108573 -73287 108573 -73033 108593 -73033 108593 -71839.845 108847 -71839.845 108847 -73033 110040.819 -73033 110161.486 -72803.108 109915.183 -72278.642 109486.924 -71888.355 109076.89 -71718.524 108847 -71839.845 108593 -71839.845 108363.11 -71718.524 107953.076 -71888.355 107524.817 -72278.642 107463.843 -72408.478 107250.625 -72089.375 106759.418 -71761.161 106326.256 -71675 106033.744 -71675 105600.582 -71761.161 105109.375 -72089.375 104896.157 -72408.478 104835.183 -72278.642 104406.924 -71888.355 103996.89 -71718.524 103767 -71839.845 103767 -73033 103787 -73033 103787 -73287 103767 -73287 103767 -73307 103513 -73307 103513 -73287 102319.181 -73287 102198.514 -73516.892 102444.817 -74041.358 102717.65 -74290 101710 -74290 101710 -72803.108 102198.514 -72803.108 102319.181 -73033 103513 -73033 103513 -71839.845 103283.11 -71718.524 102873.076 -71888.355 102444.817 -72278.642 102198.514 -72803.108 101710 -72803.108 101710 -68716.532 102913.073 -68716.532 103011.736 -68983.387 103621.461 -69209.908 104271.46 -69185.856 104760.264 -68983.387 104858.927 -68716.532 103886 -67743.605 102913.073 -68716.532 101710 -68716.532 101710 -67299.461 102240.092 -67299.461 102264.144 -67949.46 102466.613 -68438.264 102733.468 -68536.927 103706.395 -67564 104065.605 -67564 105038.532 -68536.927 105305.387 -68438.264 105531.908 -67828.539 105510.085 -67238.778 106751 -67238.778 106751 -67889.222 106999.914 -68490.153 107459.847 -68950.086 108060.778 -69199 108711.222 -69199 109312.153 -68950.086 109772.086 -68490.153 110021 -67889.222 110021 -67238.778 109772.086 -66637.847 109312.153 -66177.914 108711.222 -65929 108060.778 -65929 107459.847 -66177.914 106999.914 -66637.847 106751 -67238.778 105510.085 -67238.778 105507.856 -67178.54 105305.387 -66689.736 105038.532 -66591.073 104065.605 -67564 103706.395 -67564 102733.468 -66591.073 102466.613 -66689.736 102240.092 -67299.461 101710 -67299.461 101710 -66411.468 102913.073 -66411.468 103886 -67384.395 104858.927 -66411.468 104760.264 -66144.613 104150.539 -65918.092 103500.54 -65942.144 103011.736 -66144.613 102913.073 -66411.468 101710 -66411.468 101710 -62216.532 102913.073 -62216.532 103011.736 -62483.387 103621.461 -62709.908 104271.46 -62685.856 104760.264 -62483.387 104858.927 -62216.532 103886 -61243.605 102913.073 -62216.532 101710 -62216.532 101710 -60799.461 102240.092 -60799.461 102264.144 -61449.46 102466.613 -61938.264 102733.468 -62036.927 103706.395 -61064 104065.605 -61064 105038.532 -62036.927 105305.387 -61938.264 105531.908 -61328.539 105510.085 -60738.778 106751 -60738.778 106751 -61389.222 106999.914 -61990.153 107459.847 -62450.086 108060.778 -62699 108711.222 -62699 109312.153 -62450.086 109772.086 -61990.153 110021 -61389.222 110021 -60738.778 109772.086 -60137.847 109312.153 -59677.914 108711.222 -59429 108060.778 -59429 107459.847 -59677.914 106999.914 -60137.847 106751 -60738.778 105510.085 -60738.778 105507.856 -60678.54 105305.387 -60189.736 105038.532 -60091.073 104065.605 -61064 103706.395 -61064 102733.468 -60091.073 102466.613 -60189.736 102240.092 -60799.461 101710 -60799.461 101710 -59911.468 102913.073 -59911.468 103886 -60884.395 104858.927 -59911.468 104760.264 -59644.613 104150.539 -59418.092 103500.54 -59442.144 103011.736 -59644.613 102913.073 -59911.468 101710 -59911.468 101710 -58276.892 102198.514 -58276.892 102444.817 -58801.358 102873.076 -59191.645 103283.11 -59361.476 103513 -59240.155 103513 -58047 103767 -58047 103767 -59240.155 103996.89 -59361.476 104406.924 -59191.645 104835.183 -58801.358 104910 -58642.046 104984.817 -58801.358 105413.076 -59191.645 105823.11 -59361.476 106053 -59240.155 106053 -58047 106307 -58047 106307 -59240.155 106536.89 -59361.476 106946.924 -59191.645 107375.183 -58801.358 107450 -58642.046 107524.817 -58801.358 107953.076 -59191.645 108363.11 -59361.476 108593 -59240.155 108593 -58047 108847 -58047 108847 -59240.155 109076.89 -59361.476 109486.924 -59191.645 109915.183 -58801.358 110161.486 -58276.892 110040.819 -58047 108847 -58047 108593 -58047 106307 -58047 106053 -58047 103767 -58047 103513 -58047 102319.181 -58047 102198.514 -58276.892 101710 -58276.892 101710 -56710 102805.433 -56710 102444.817 -57038.642 102444.817 -57038.642"/><path d="M 102444.817 -57038.642 102198.514 -57563.108 102319.181 -57793 103513 -57793 103513 -57773 103767 -57773 103767 -57793 106053 -57793 106053 -57773 106307 -57773 106307 -57793 108593 -57793 108593 -57773 108847 -57773 108847 -57793 110040.819 -57793 110161.486 -57563.108 109915.183 -57038.642 109554.567 -56710 110290.001 -56710 110290 -74290 109642.35 -74290 109915.183 -74041.358 110161.486 -73516.892 110040.819 -73287 108847 -73287 108847 -73307 108593 -73307 108593 -73287 108573 -73287 108573 -73033 108593 -73033 108593 -71839.845 108847 -71839.845 108847 -73033 110040.819 -73033 110161.486 -72803.108 109915.183 -72278.642 109486.924 -71888.355 109076.89 -71718.524 108847 -71839.845 108593 -71839.845 108363.11 -71718.524 107953.076 -71888.355 107524.817 -72278.642 107463.843 -72408.478 107250.625 -72089.375 106759.418 -71761.161 106326.256 -71675 106033.744 -71675 105600.582 -71761.161 105109.375 -72089.375 104896.157 -72408.478 104835.183 -72278.642 104406.924 -71888.355 103996.89 -71718.524 103767 -71839.845 103767 -73033 103787 -73033 103787 -73287 103767 -73287 103767 -73307 103513 -73307 103513 -73287 102319.181 -73287 102198.514 -73516.892 102444.817 -74041.358 102717.65 -74290 101710 -74290 101710 -72803.108 102198.514 -72803.108 102319.181 -73033 103513 -73033 103513 -71839.845 103283.11 -71718.524 102873.076 -71888.355 102444.817 -72278.642 102198.514 -72803.108 101710 -72803.108 101710 -68716.532 102913.073 -68716.532 103011.736 -68983.387 103621.461 -69209.908 104271.46 -69185.856 104760.264 -68983.387 104858.927 -68716.532 103886 -67743.605 102913.073 -68716.532 101710 -68716.532 101710 -67299.461 102240.092 -67299.461 102264.144 -67949.46 102466.613 -68438.264 102733.468 -68536.927 103706.395 -67564 104065.605 -67564 105038.532 -68536.927 105305.387 -68438.264 105531.908 -67828.539 105510.085 -67238.778 106751 -67238.778 106751 -67889.222 106999.914 -68490.153 107459.847 -68950.086 108060.778 -69199 108711.222 -69199 109312.153 -68950.086 109772.086 -68490.153 110021 -67889.222 110021 -67238.778 109772.086 -66637.847 109312.153 -66177.914 108711.222 -65929 108060.778 -65929 107459.847 -66177.914 106999.914 -66637.847 106751 -67238.778 105510.085 -67238.778 105507.856 -67178.54 105305.387 -66689.736 105038.532 -66591.073 104065.605 -67564 103706.395 -67564 102733.468 -66591.073 102466.613 -66689.736 102240.092 -67299.461 101710 -67299.461 101710 -66411.468 102913.073 -66411.468 103886 -67384.395 104858.927 -66411.468 104760.264 -66144.613 104150.539 -65918.092 103500.54 -65942.144 103011.736 -66144.613 102913.073 -66411.468 101710 -66411.468 101710 -62216.532 102913.073 -62216.532 103011.736 -62483.387 103621.461 -62709.908 104271.46 -62685.856 104760.264 -62483.387 104858.927 -62216.532 103886 -61243.605 102913.073 -62216.532 101710 -62216.532 101710 -60799.461 102240.092 -60799.461 102264.144 -61449.46 102466.613 -61938.264 102733.468 -62036.927 103706.395 -61064 104065.605 -61064 105038.532 -62036.927 105305.387 -61938.264 105531.908 -61328.539 105510.085 -60738.778 106751 -60738.778 106751 -61389.222 106999.914 -61990.153 107459.847 -62450.086 108060.778 -62699 108711.222 -62699 109312.153 -62450.086 109772.086 -61990.153 110021 -61389.222 110021 -60738.778 109772.086 -60137.847 109312.153 -59677.914 108711.222 -59429 108060.778 -59429 107459.847 -59677.914 106999.914 -60137.847 106751 -60738.778 105510.085 -60738.778 105507.856 -60678.54 105305.387 -60189.736 105038.532 -60091.073 104065.605 -61064 103706.395 -61064 102733.468 -60091.073 102466.613 -60189.736 102240.092 -60799.461 101710 -60799.461 101710 -59911.468 102913.073 -59911.468 103886 -60884.395 104858.927 -59911.468 104760.264 -59644.613 104150.539 -59418.092 103500.54 -59442.144 103011.736 -59644.613 102913.073 -59911.468 101710 -59911.468 101710 -58276.892 102198.514 -58276.892 102444.817 -58801.358 102873.076 -59191.645 103283.11 -59361.476 103513 -59240.155 103513 -58047 103767 -58047 103767 -59240.155 103996.89 -59361.476 104406.924 -59191.645 104835.183 -58801.358 104910 -58642.046 104984.817 -58801.358 105413.076 -59191.645 105823.11 -59361.476 106053 -59240.155 106053 -58047 106307 -58047 106307 -59240.155 106536.89 -59361.476 106946.924 -59191.645 107375.183 -58801.358 107450 -58642.046 107524.817 -58801.358 107953.076 -59191.645 108363.11 -59361.476 108593 -59240.155 108593 -58047 108847 -58047 108847 -59240.155 109076.89 -59361.476 109486.924 -59191.645 109915.183 -58801.358 110161.486 -58276.892 110040.819 -58047 108847 -58047 108593 -58047 106307 -58047 106053 -58047 103767 -58047 103513 -58047 102319.181 -58047 102198.514 -58276.892 101710 -58276.892 101710 -56710 102805.433 -56710 102444.817 -57038.642" fill="none" stroke-width="254"/><use xlink:href="#ufeeoQgni_Z-YGDtEmxr_pad-13" x="108720" y="-73160"/><use xlink:href="#ufeeoQgni_Z-YGDtEmxr_pad-13" x="106180" y="-73160"/><use xlink:href="#ufeeoQgni_Z-YGDtEmxr_pad-13" x="103640" y="-73160"/><use xlink:href="#ufeeoQgni_Z-YGDtEmxr_pad-13" x="103640" y="-57920"/><use xlink:href="#ufeeoQgni_Z-YGDtEmxr_pad-13" x="106180" y="-57920"/><use xlink:href="#ufeeoQgni_Z-YGDtEmxr_pad-13" x="108720" y="-57920"/><use xlink:href="#ufeeoQgni_Z-YGDtEmxr_pad-13" x="108386" y="-67564"/><use xlink:href="#ufeeoQgni_Z-YGDtEmxr_pad-13" x="103886" y="-67564"/><use xlink:href="#ufeeoQgni_Z-YGDtEmxr_pad-13" x="108386" y="-61064"/><use xlink:href="#ufeeoQgni_Z-YGDtEmxr_pad-13" x="103886" y="-61064"/></g><g id="Uepdb86mztEIwE2CJ95m_bottom_drill1"><use xlink:href="#Dpg60oQJoLAKCW0w7Val_pad-1" x="103640" y="-73160"/><use xlink:href="#Dpg60oQJoLAKCW0w7Val_pad-1" x="106180" y="-73160"/><use xlink:href="#Dpg60oQJoLAKCW0w7Val_pad-1" x="108720" y="-73160"/><use xlink:href="#Dpg60oQJoLAKCW0w7Val_pad-1" x="103640" y="-57920"/><use xlink:href="#Dpg60oQJoLAKCW0w7Val_pad-1" x="106180" y="-57920"/><use xlink:href="#Dpg60oQJoLAKCW0w7Val_pad-1" x="108720" y="-57920"/><use xlink:href="#Dpg60oQJoLAKCW0w7Val_pad-2" x="103886" y="-61064"/><use xlink:href="#Dpg60oQJoLAKCW0w7Val_pad-2" x="103886" y="-67564"/><use xlink:href="#Dpg60oQJoLAKCW0w7Val_pad-2" x="108386" y="-61064"/><use xlink:href="#Dpg60oQJoLAKCW0w7Val_pad-2" x="108386" y="-67564"/></g><clipPath id="Uepdb86mztEIwE2CJ95m_bottom_outline"><path d="M 101000 -56000 101000 -75000 111000 -75000 111000 -56000 101000 -56000" fill="none" stroke-width="150"/></clipPath><mask id="Uepdb86mztEIwE2CJ95m_bottom_mech-mask"><g fill="#000" stroke="#000"><rect x="101000" y="-75000" width="10000" height="19000" fill="#fff"/><use xlink:href="#Uepdb86mztEIwE2CJ95m_bottom_drill1"/></g></mask><mask id="Uepdb86mztEIwE2CJ95m_bottom_cf-mask"><g fill="#fff" stroke="#fff"><use xlink:href="#Uepdb86mztEIwE2CJ95m_bottom_soldermask"/></g></mask><mask id="Uepdb86mztEIwE2CJ95m_bottom_sm-mask"><g fill="#000" stroke="#000"><rect x="101000" y="-75000" width="10000" height="19000" fill="#fff"/><use xlink:href="#Uepdb86mztEIwE2CJ95m_bottom_soldermask"/></g></mask></defs><g transform="translate(0,-131000) scale(1,-1)"><g mask="url(#Uepdb86mztEIwE2CJ95m_bottom_mech-mask)" clip-path="url(#Uepdb86mztEIwE2CJ95m_bottom_outline)" transform="translate(212000,0) scale(-1,1)"><rect x="101000" y="-75000" width="10000" height="19000" fill="currentColor" class="Uepdb86mztEIwE2CJ95m_fr4"/><use xlink:href="#Uepdb86mztEIwE2CJ95m_bottom_copper" fill="currentColor" stroke="currentColor" class="Uepdb86mztEIwE2CJ95m_cu"/><use xlink:href="#Uepdb86mztEIwE2CJ95m_bottom_copper" fill="currentColor" stroke="currentColor" class="Uepdb86mztEIwE2CJ95m_cf" mask="url(#Uepdb86mztEIwE2CJ95m_bottom_cf-mask)"/><g mask="url(#Uepdb86mztEIwE2CJ95m_bottom_sm-mask)"><rect x="101000" y="-75000" width="10000" height="19000" fill="currentColor" class="Uepdb86mztEIwE2CJ95m_sm"/></g></g></g></svg>