<svg version="1.1" xmlns="http://www.w3.org/2000/svg" xmlns:xlink="http://www.w3.org/1999/xlink" stroke-linecap="round" stroke-linejoin="round" stroke-width="0" fill-rule="evenodd" clip-rule="evenodd" id="Uepdb86mztEIwE2CJ95m_top" viewBox="101000 -75000 10000 19000" width="10mm" height="19mm" class="w-100 h-100"><defs><style>.Uepdb86mztEIwE2CJ95m_fr4 {color: #666666;}
.Uepdb86mztEIwE2CJ95m_cu {color: #cccccc;}
.Uepdb86mztEIwE2CJ95m_cf {color: #cc9933;}
.Uepdb86mztEIwE2CJ95m_sm {color: #004200; opacity: 0.75;}
.Uepdb86mztEIwE2CJ95m_ss {color: #ffffff;}
.Uepdb86mztEIwE2CJ95m_sp {color: #999999;}
.Uepdb86mztEIwE2CJ95m_out {color: #000000;}</style><rect x="-1050" y="-1050" width="2100" height="2100" rx="1050" ry="1050" id="FwQmyFm-DGUS1Ink2oez_pad-10"/><circle cx="0" cy="0" r="1200" id="FwQmyFm-DGUS1Ink2oez_pad-11"/><rect x="-850" y="-850" width="1700" height="1700" rx="850" ry="850" id="jzE3NgbCCDG6Q5MB5Aos_pad-10"/><circle cx="0" cy="0" r="1000" id="jzE3NgbCCDG6Q5MB5Aos_pad-11"/><circle cx="0" cy="0" r="175" id="jzE3NgbCCDG6Q5MB5Aos_pad-14"/><circle cx="0" cy="0" r="500" id="Dpg60oQJoLAKCW0w7Val_pad-1"/><circle cx="0" cy="0" r="550" id="Dpg60oQJoLAKCW0w7Val_pad-2"/><g id="Uepdb86mztEIwE2CJ95m_top_soldermask"><use xlink:href="#FwQmyFm-DGUS1Ink2oez_pad-10" x="108720" y="-73160"/><use xlink:href="#FwQmyFm-DGUS1Ink2oez_pad-10" x="106180" y="-73160"/><use xlink:href="#FwQmyFm-DGUS1Ink2oez_pad-10" x="103640" y="-73160"/><use xlink:href="#FwQmyFm-DGUS1Ink2oez_pad-10" x="103640" y="-57920"/><use xlink:href="#FwQmyFm-DGUS1Ink2oez_pad-10" x="106180" y="-57920"/><use xlink:href="#FwQmyFm-DGUS1Ink2oez_pad-10" x="108720" y="-57920"/><use xlink:href="#FwQmyFm-DGUS1Ink2oez_pad-11" x="108386" y="-67564"/><use xlink:href="#FwQmyFm-DGUS1Ink2oez_pad-11" x="103886" y="-67564"/><use xlink:href="#FwQmyFm-DGUS1Ink2oez_pad-11" x="108386" y="-61064"/><use xlink:href="#FwQmyFm-DGUS1Ink2oez_pad-11" x="103886" y="-61064"/></g><g id="Uepdb86mztEIwE2CJ95m_top_silkscreen"><path d="M 109474 -59436 109474 -58928 M 107696 -59436 109474 -59436 M 102870 -59436 104648 -59436 M 102870 -58928 102870 -59436 M 103068.571 -70755 102997.142 -70707.38 102890 -70707.38 102782.857 -70755 102711.428 -70850.238 102675.714 -70945.476 102640 -71135.952 102640 -71278.809 102675.714 -71469.285 102711.428 -71564.523 102782.857 -71659.761 102890 -71707.38 102961.428 -71707.38 103068.571 -71659.761 103104.285 -71612.142 103104.285 -71278.809 102961.428 -71278.809 M 103425.714 -71707.38 103425.714 -70707.38 103854.285 -71707.38 103854.285 -70707.38 M 104211.428 -71707.38 104211.428 -70707.38 104390 -70707.38 104497.142 -70755 104568.571 -70850.238 104604.285 -70945.476 104640 -71135.952 104640 -71278.809 104604.285 -71469.285 104568.571 -71564.523 104497.142 -71659.761 104390 -71707.38 104211.428 -71707.38 M 105430 -70707.38 105572.857 -70707.38 105644.285 -70755 105715.714 -70850.238 105751.428 -71040.714 105751.428 -71374.047 105715.714 -71564.523 105644.285 -71659.761 105572.857 -71707.38 105430 -71707.38 105358.571 -71659.761 105287.142 -71564.523 105251.428 -71374.047 105251.428 -71040.714 105287.142 -70850.238 105358.571 -70755 105430 -70707.38 M 106072.857 -70707.38 106072.857 -71516.904 106108.571 -71612.142 106144.285 -71659.761 106215.714 -71707.38 106358.571 -71707.38 106430 -71659.761 106465.714 -71612.142 106501.428 -71516.904 106501.428 -70707.38 M 106751.428 -70707.38 107180 -70707.38 M 106965.714 -71707.38 106965.714 -70707.38 M 105570.476 -59325 105494.285 -59277.38 105380 -59277.38 105265.714 -59325 105189.523 -59420.238 105151.428 -59515.476 105113.333 -59705.952 105113.333 -59848.809 105151.428 -60039.285 105189.523 -60134.523 105265.714 -60229.761 105380 -60277.38 105456.19 -60277.38 105570.476 -60229.761 105608.571 -60182.142 105608.571 -59848.809 105456.19 -59848.809 M 105951.428 -60277.38 105951.428 -59277.38 106408.571 -60277.38 106408.571 -59277.38 M 106789.523 -60277.38 106789.523 -59277.38 106980 -59277.38 107094.285 -59325 107170.476 -59420.238 107208.571 -59515.476 107246.666 -59705.952 107246.666 -59848.809 107208.571 -60039.285 107170.476 -60134.523 107094.285 -60229.761 106980 -60277.38 106789.523 -60277.38 M 108148.571 -70755 108077.142 -70707.38 107970 -70707.38 107862.857 -70755 107791.428 -70850.238 107755.714 -70945.476 107720 -71135.952 107720 -71278.809 107755.714 -71469.285 107791.428 -71564.523 107862.857 -71659.761 107970 -71707.38 108041.428 -71707.38 108148.571 -71659.761 108184.285 -71612.142 108184.285 -71278.809 108041.428 -71278.809 M 108505.714 -71707.38 108505.714 -70707.38 108934.285 -71707.38 108934.285 -70707.38 M 109291.428 -71707.38 109291.428 -70707.38 109470 -70707.38 109577.142 -70755 109648.571 -70850.238 109684.285 -70945.476 109720 -71135.952 109720 -71278.809 109684.285 -71469.285 109648.571 -71564.523 109577.142 -71659.761 109470 -71707.38 109291.428 -71707.38 M 104153.714 -69524.571 104289.428 -69572.19 104334.666 -69619.809 104379.904 -69715.047 104379.904 -69857.904 104334.666 -69953.142 104289.428 -70000.761 104198.952 -70048.38 103837.047 -70048.38 103837.047 -69048.38 104153.714 -69048.38 104244.19 -69096 104289.428 -69143.619 104334.666 -69238.857 104334.666 -69334.095 104289.428 -69429.333 104244.19 -69476.952 104153.714 -69524.571 103837.047 -69524.571 M 105194.19 -69381.714 105194.19 -70048.38 M 104787.047 -69381.714 104787.047 -69905.523 104832.285 -70000.761 104922.761 -70048.38 105058.476 -70048.38 105148.952 -70000.761 105194.19 -69953.142 M 105510.857 -69381.714 105872.761 -69381.714 M 105646.571 -69048.38 105646.571 -69905.523 105691.809 -70000.761 105782.285 -70048.38 105872.761 -70048.38 M 106053.714 -69381.714 106415.619 -69381.714 M 106189.428 -69048.38 106189.428 -69905.523 106234.666 -70000.761 106325.142 -70048.38 106415.619 -70048.38 M 106868 -70048.38 106777.523 -70000.761 106732.285 -69953.142 106687.047 -69857.904 106687.047 -69572.19 106732.285 -69476.952 106777.523 -69429.333 106868 -69381.714 107003.714 -69381.714 107094.19 -69429.333 107139.428 -69476.952 107184.666 -69572.19 107184.666 -69857.904 107139.428 -69953.142 107094.19 -70000.761 107003.714 -70048.38 106868 -70048.38 M 107591.809 -69381.714 107591.809 -70048.38 M 107591.809 -69476.952 107637.047 -69429.333 107727.523 -69381.714 107863.238 -69381.714 107953.714 -69429.333 107998.952 -69524.571 107998.952 -70048.38" fill="none" stroke-width="150"/><path d="M 109386 -66564 109386 -62064 M 105386 -67814 106886 -67814 M 102886 -62064 102886 -66564 M 106886 -60814 105386 -60814" fill="none" stroke-width="120"/></g><g id="Uepdb86mztEIwE2CJ95m_top_copper"><use xlink:href="#jzE3NgbCCDG6Q5MB5Aos_pad-10" x="108720" y="-73160"/><use xlink:href="#jzE3NgbCCDG6Q5MB5Aos_pad-10" x="106180" y="-73160"/><use xlink:href="#jzE3NgbCCDG6Q5MB5Aos_pad-10" x="103640" y="-73160"/><use xlink:href="#jzE3NgbCCDG6Q5MB5Aos_pad-10" x="103640" y="-57920"/><use xlink:href="#jzE3NgbCCDG6Q5MB5Aos_pad-10" x="106180" y="-57920"/><use xlink:href="#jzE3NgbCCDG6Q5MB5Aos_pad-10" x="108720" y="-57920"/><use xlink:href="#jzE3NgbCCDG6Q5MB5Aos_pad-11" x="108386" y="-67564"/><use xlink:href="#jzE3NgbCCDG6Q5MB5Aos_pad-11" x="103886" y="-67564"/><use xlink:href="#jzE3NgbCCDG6Q5MB5Aos_pad-11" x="108386" y="-61064"/><use xlink:href="#jzE3NgbCCDG6Q5MB5Aos_pad-11" x="103886" y="-61064"/><path d="M 108386 -62478.213 108386 -67564 M 108386 -61064 108386 -62478.213 M 106180 -69770 108386 -67564 M 106180 -73160 106180 -69770" fill="none" stroke-width="406.4"/><path d="M 102444.817 -57038.642 102198.514 -57563.108 102319.181 -57793 103513 -57793 103513 -57773 103767 -57773 103767 -57793 106053 -57793 106053 -57773 106307 -57773 106307 -57793 108593 -57793 108593 -57773 108847 -57773 108847 -57793 110040.819 -57793 110161.486 -57563.108 109915.183 -57038.642 109554.567 -56710 110290.001 -56710 110290 -74290 109642.35 -74290 109915.183 -74041.358 110161.486 -73516.892 110040.819 -73287 108847 -73287 108847 -73307 108593 -73307 108593 -73287 108573 -73287 108573 -73033 108593 -73033 108593 -71839.845 108847 -71839.845 108847 -73033 110040.819 -73033 110161.486 -72803.108 109915.183 -72278.642 109486.924 -71888.355 109076.89 -71718.524 108847 -71839.845 108593 -71839.845 108363.11 -71718.524 107953.076 -71888.355 107524.817 -72278.642 107463.843 -72408.478 107250.625 -72089.375 107018.2 -71934.074 107018.2 -70117.193 107972.825 -69162.569 108060.778 -69199 108711.222 -69199 109312.153 -68950.086 109772.086 -68490.153 110021 -67889.222 110021 -67238.778 109772.086 -66637.847 109312.153 -66177.914 109224.2 -66141.483 109224.2 -62486.517 109312.153 -62450.086 109772.086 -61990.153 110021 -61389.222 110021 -60738.778 109772.086 -60137.847 109312.153 -59677.914 108711.222 -59429 108060.778 -59429 107459.847 -59677.914 106999.914 -60137.847 106751 -60738.778 106751 -61389.222 106999.914 -61990.153 107459.847 -62450.086 107547.8 -62486.517 107547.801 -66141.482 107459.847 -66177.914 106999.914 -66637.847 106751 -67238.778 106751 -67889.222 106787.431 -67977.175 105645.677 -69118.93 105575.693 -69165.692 105528.931 -69235.676 105528.929 -69235.678 105390.434 -69442.951 105325.38 -69770 105341.801 -69852.554 105341.8 -71934.073 105109.375 -72089.375 104896.157 -72408.478 104835.183 -72278.642 104406.924 -71888.355 103996.89 -71718.524 103767 -71839.845 103767 -73033 103787 -73033 103787 -73287 103767 -73287 103767 -73307 103513 -73307 103513 -73287 102319.181 -73287 102198.514 -73516.892 102444.817 -74041.358 102717.65 -74290 101710 -74290 101710 -72803.108 102198.514 -72803.108 102319.181 -73033 103513 -73033 103513 -71839.845 103283.11 -71718.524 102873.076 -71888.355 102444.817 -72278.642 102198.514 -72803.108 101710 -72803.108 101710 -68716.532 102913.073 -68716.532 103011.736 -68983.387 103621.461 -69209.908 104271.46 -69185.856 104760.264 -68983.387 104858.927 -68716.532 103886 -67743.605 102913.073 -68716.532 101710 -68716.532 101710 -67299.461 102240.092 -67299.461 102264.144 -67949.46 102466.613 -68438.264 102733.468 -68536.927 103706.395 -67564 104065.605 -67564 105038.532 -68536.927 105305.387 -68438.264 105531.908 -67828.539 105507.856 -67178.54 105305.387 -66689.736 105038.532 -66591.073 104065.605 -67564 103706.395 -67564 102733.468 -66591.073 102466.613 -66689.736 102240.092 -67299.461 101710 -67299.461 101710 -66411.468 102913.073 -66411.468 103886 -67384.395 104858.927 -66411.468 104760.264 -66144.613 104150.539 -65918.092 103500.54 -65942.144 103011.736 -66144.613 102913.073 -66411.468 101710 -66411.468 101710 -62216.532 102913.073 -62216.532 103011.736 -62483.387 103621.461 -62709.908 104271.46 -62685.856 104760.264 -62483.387 104858.927 -62216.532 103886 -61243.605 102913.073 -62216.532 101710 -62216.532 101710 -60799.461 102240.092 -60799.461 102264.144 -61449.46 102466.613 -61938.264 102733.468 -62036.927 103706.395 -61064 104065.605 -61064 105038.532 -62036.927 105305.387 -61938.264 105531.908 -61328.539 105507.856 -60678.54 105305.387 -60189.736 105038.532 -60091.073 104065.605 -61064 103706.395 -61064 102733.468 -60091.073 102466.613 -60189.736 102240.092 -60799.461 101710 -60799.461 101710 -59911.468 102913.073 -59911.468 103886 -60884.395 104858.927 -59911.468 104760.264 -59644.613 104150.539 -59418.092 103500.54 -59442.144 103011.736 -59644.613 102913.073 -59911.468 101710 -59911.468 101710 -58276.892 102198.514 -58276.892 102444.817 -58801.358 102873.076 -59191.645 103283.11 -59361.476 103513 -59240.155 103513 -58047 103767 -58047 103767 -59240.155 103996.89 -59361.476 104406.924 -59191.645 104835.183 -58801.358 104910 -58642.046 104984.817 -58801.358 105413.076 -59191.645 105823.11 -59361.476 106053 -59240.155 106053 -58047 106307 -58047 106307 -59240.155 106536.89 -59361.476 106946.924 -59191.645 107375.183 -58801.358 107450 -58642.046 107524.817 -58801.358 107953.076 -59191.645 108363.11 -59361.476 108593 -59240.155 108593 -58047 108847 -58047 108847 -59240.155 109076.89 -59361.476 109486.924 -59191.645 109915.183 -58801.358 110161.486 -58276.892 110040.819 -58047 108847 -58047 108593 -58047 106307 -58047 106053 -58047 103767 -58047 103513 -58047 102319.181 -58047 102198.514 -58276.892 101710 -58276.892 101710 -56710 102805.433 -56710 102444.817 -57038.642 102444.817 -57038.642"/><path d="M 102444.817 -57038.642 102198.514 -57563.108 102319.181 -57793 103513 -57793 103513 -57773 103767 -57773 103767 -57793 106053 -57793 106053 -57773 106307 -57773 106307 -57793 108593 -57793 108593 -57773 108847 -57773 108847 -57793 110040.819 -57793 110161.486 -57563.108 109915.183 -57038.642 109554.567 -56710 110290.001 -56710 110290 -74290 109642.35 -74290 109915.183 -74041.358 110161.486 -73516.892 110040.819 -73287 108847 -73287 108847 -73307 108593 -73307 108593 -73287 108573 -73287 108573 -73033 108593 -73033 108593 -71839.845 108847 -71839.845 108847 -73033 110040.819 -73033 110161.486 -72803.108 109915.183 -72278.642 109486.924 -71888.355 109076.89 -71718.524 108847 -71839.845 108593 -71839.845 108363.11 -71718.524 107953.076 -71888.355 107524.817 -72278.642 107463.843 -72408.478 107250.625 -72089.375 107018.2 -71934.074 107018.2 -70117.193 107972.825 -69162.569 108060.778 -69199 108711.222 -69199 109312.153 -68950.086 109772.086 -68490.153 110021 -67889.222 110021 -67238.778 109772.086 -66637.847 109312.153 -66177.914 109224.2 -66141.483 109224.2 -62486.517 109312.153 -62450.086 109772.086 -61990.153 110021 -61389.222 110021 -60738.778 109772.086 -60137.847 109312.153 -59677.914 108711.222 -59429 108060.778 -59429 107459.847 -59677.914 106999.914 -60137.847 106751 -60738.778 106751 -61389.222 106999.914 -61990.153 107459.847 -62450.086 107547.8 -62486.517 107547.801 -66141.482 107459.847 -66177.914 106999.914 -66637.847 106751 -67238.778 106751 -67889.222 106787.431 -67977.175 105645.677 -69118.93 105575.693 -69165.692 105528.931 -69235.676 105528.929 -69235.678 105390.434 -69442.951 105325.38 -69770 105341.801 -69852.554 105341.8 -71934.073 105109.375 -72089.375 104896.157 -72408.478 104835.183 -72278.642 104406.924 -71888.355 103996.89 -71718.524 103767 -71839.845 103767 -73033 103787 -73033 103787 -73287 103767 -73287 103767 -73307 103513 -73307 103513 -73287 102319.181 -73287 102198.514 -73516.892 102444.817 -74041.358 102717.65 -74290 101710 -74290 101710 -72803.108 102198.514 -72803.108 102319.181 -73033 103513 -73033 103513 -71839.845 103283.11 -71718.524 102873.076 -71888.355 102444.817 -72278.642 102198.514 -72803.108 101710 -72803.108 101710 -68716.532 102913.073 -68716.532 103011.736 -68983.387 103621.461 -69209.908 104271.46 -69185.856 104760.264 -68983.387 104858.927 -68716.532 103886 -67743.605 102913.073 -68716.532 101710 -68716.532 101710 -67299.461 102240.092 -67299.461 102264.144 -67949.46 102466.613 -68438.264 102733.468 -68536.927 103706.395 -67564 104065.605 -67564 105038.532 -68536.927 105305.387 -68438.264 105531.908 -67828.539 105507.856 -67178.54 105305.387 -66689.736 105038.532 -66591.073 104065.605 -67564 103706.395 -67564 102733.468 -66591.073 102466.613 -66689.736 102240.092 -67299.461 101710 -67299.461 101710 -66411.468 102913.073 -66411.468 103886 -67384.395 104858.927 -66411.468 104760.264 -66144.613 104150.539 -65918.092 103500.54 -65942.144 103011.736 -66144.613 102913.073 -66411.468 101710 -66411.468 101710 -62216.532 102913.073 -62216.532 103011.736 -62483.387 103621.461 -62709.908 104271.46 -62685.856 104760.264 -62483.387 104858.927 -62216.532 103886 -61243.605 102913.073 -62216.532 101710 -62216.532 101710 -60799.461 102240.092 -60799.461 102264.144 -61449.46 102466.613 -61938.264 102733.468 -62036.927 103706.395 -61064 104065.605 -61064 105038.532 -62036.927 105305.387 -61938.264 105531.908 -61328.539 105507.856 -60678.54 105305.387 -60189.736 105038.532 -60091.073 104065.605 -61064 103706.395 -61064 102733.468 -60091.073 102466.613 -60189.736 102240.092 -60799.461 101710 -60799.461 101710 -59911.468 102913.073 -59911.468 103886 -60884.395 104858.927 -59911.468 104760.264 -59644.613 104150.539 -59418.092 103500.54 -59442.144 103011.736 -59644.613 102913.073 -59911.468 101710 -59911.468 101710 -58276.892 102198.514 -58276.892 102444.817 -58801.358 102873.076 -59191.645 103283.11 -59361.476 103513 -59240.155 103513 -58047 103767 -58047 103767 -59240.155 103996.89 -59361.476 104406.924 -59191.645 104835.183 -58801.358 104910 -58642.046 104984.817 -58801.358 105413.076 -59191.645 105823.11 -59361.476 106053 -59240.155 106053 -58047 106307 -58047 106307 -59240.155 106536.89 -59361.476 106946.924 -59191.645 107375.183 -58801.358 107450 -58642.046 107524.817 -58801.358 107953.076 -59191.645 108363.11 -59361.476 108593 -59240.155 108593 -58047 108847 -58047 108847 -59240.155 109076.89 -59361.476 109486.924 -59191.645 109915.183 -58801.358 110161.486 -58276.892 110040.819 -58047 108847 -58047 108593 -58047 106307 -58047 106053 -58047 103767 -58047 103513 -58047 102319.181 -58047 102198.514 -58276.892 101710 -58276.892 101710 -56710 102805.433 -56710 102444.817 -57038.642" fill="none" stroke-width="254"/><use xlink:href="#jzE3NgbCCDG6Q5MB5Aos_pad-14" x="108720" y="-73160"/><use xlink:href="#jzE3NgbCCDG6Q5MB5Aos_pad-14" x="106180" y="-73160"/><use xlink:href="#jzE3NgbCCDG6Q5MB5Aos_pad-14" x="103640" y="-73160"/><use xlink:href="#jzE3NgbCCDG6Q5MB5Aos_pad-14" x="103640" y="-57920"/><use xlink:href="#jzE3NgbCCDG6Q5MB5Aos_pad-14" x="106180" y="-57920"/><use xlink:href="#jzE3NgbCCDG6Q5MB5Aos_pad-14" x="108720" y="-57920"/><use xlink:href="#jzE3NgbCCDG6Q5MB5Aos_pad-14" x="108386" y="-67564"/><use xlink:href="#jzE3NgbCCDG6Q5MB5Aos_pad-14" x="103886" y="-67564"/><use xlink:href="#jzE3NgbCCDG6Q5MB5Aos_pad-14" x="108386" y="-61064"/><use xlink:href="#jzE3NgbCCDG6Q5MB5Aos_pad-14" x="103886" y="-61064"/></g><g id="Uepdb86mztEIwE2CJ95m_top_drill1"><use xlink:href="#Dpg60oQJoLAKCW0w7Val_pad-1" x="103640" y="-73160"/><use xlink:href="#Dpg60oQJoLAKCW0w7Val_pad-1" x="106180" y="-73160"/><use xlink:href="#Dpg60oQJoLAKCW0w7Val_pad-1" x="108720" y="-73160"/><use xlink:href="#Dpg60oQJoLAKCW0w7Val_pad-1" x="103640" y="-57920"/><use xlink:href="#Dpg60oQJoLAKCW0w7Val_pad-1" x="106180" y="-57920"/><use xlink:href="#Dpg60oQJoLAKCW0w7Val_pad-1" x="108720" y="-57920"/><use xlink:href="#Dpg60oQJoLAKCW0w7Val_pad-2" x="103886" y="-61064"/><use xlink:href="#Dpg60oQJoLAKCW0w7Val_pad-2" x="103886" y="-67564"/><use xlink:href="#Dpg60oQJoLAKCW0w7Val_pad-2" x="108386" y="-61064"/><use xlink:href="#Dpg60oQJoLAKCW0w7Val_pad-2" x="108386" y="-67564"/></g><clipPath id="Uepdb86mztEIwE2CJ95m_top_outline"><path d="M 101000 -56000 101000 -75000 111000 -75000 111000 -56000 101000 -56000" fill="none" stroke-width="150"/></clipPath><mask id="Uepdb86mztEIwE2CJ95m_top_mech-mask"><g fill="#000" stroke="#000"><rect x="101000" y="-75000" width="10000" height="19000" fill="#fff"/><use xlink:href="#Uepdb86mztEIwE2CJ95m_top_drill1"/></g></mask><mask id="Uepdb86mztEIwE2CJ95m_top_cf-mask"><g fill="#fff" stroke="#fff"><use xlink:href="#Uepdb86mztEIwE2CJ95m_top_soldermask"/></g></mask><mask id="Uepdb86mztEIwE2CJ95m_top_sm-mask"><g fill="#000" stroke="#000"><rect x="101000" y="-75000" width="10000" height="19000" fill="#fff"/><use xlink:href="#Uepdb86mztEIwE2CJ95m_top_soldermask"/></g></mask></defs><g transform="translate(0,-131000) scale(1,-1)"><g mask="url(#Uepdb86mztEIwE2CJ95m_top_mech-mask)" clip-path="url(#Uepdb86mztEIwE2CJ95m_top_outline)"><rect x="101000" y="-75000" width="10000" height="19000" fill="currentColor" class="Uepdb86mztEIwE2CJ95m_fr4"/><use xlink:href="#Uepdb86mztEIwE2CJ95m_top_copper" fill="currentColor" stroke="currentColor" class="Uepdb86mztEIwE2CJ95m_cu"/><use xlink:href="#Uepdb86mztEIwE2CJ95m_top_copper" fill="currentColor" stroke="currentColor" class="Uepdb86mztEIwE2CJ95m_cf" mask="url(#Uepdb86mztEIwE2CJ95m_top_cf-mask)"/><g mask="url(#Uepdb86mztEIwE2CJ95m_top_sm-mask)"><rect x="101000" y="-75000" width="10000" height="19000" fill="currentColor" class="Uepdb86mztEIwE2CJ95m_sm"/><use xlink:href="#Uepdb86mztEIwE2CJ95m_top_silkscreen" fill="currentColor" stroke="currentColor" class="Uepdb86mztEIwE2CJ95m_ss"/></g></g></g></svg>